<?xml version="1.0" encoding="utf-8"?>
<!-- Generator: Adobe Illustrator 16.0.0, SVG Export Plug-In . SVG Version: 6.00 Build 0)  -->
<!DOCTYPE svg PUBLIC "-//W3C//DTD SVG 1.1//EN" "http://www.w3.org/Graphics/SVG/1.1/DTD/svg11.dtd">
<svg version="1.1" id="Layer_1" xmlns="http://www.w3.org/2000/svg" xmlns:xlink="http://www.w3.org/1999/xlink" x="0px" y="0px"
	 width="200px" height="201.482px" viewBox="0 0 200 201.482" enable-background="new 0 0 200 201.482" xml:space="preserve">
<g>
	<g>
		<path fill="#FFFFFF" d="M100.07,2c-54.676,0-99,44.324-99,99c0,54.676,44.324,99,99,99c54.677,0,99-44.324,99-99
			C199.07,46.324,154.747,2,100.07,2z M189.539,66.124c2.863,7.339,4.811,15.033,5.788,22.867l-1.984,0.248
			c-0.957-7.67-2.863-15.203-5.667-22.388L189.539,66.124z M170.896,36.194c5.332,5.824,9.935,12.289,13.679,19.214l-1.76,0.951
			c-3.666-6.781-8.173-13.111-13.394-18.814L170.896,36.194z M142.719,14.97c7.053,3.502,13.675,7.881,19.681,13.013l-1.299,1.521
			c-5.882-5.025-12.365-9.313-19.271-12.742L142.719,14.97z M108.77,5.389c7.87,0.707,15.627,2.385,23.055,4.987l-0.662,1.888
			c-7.271-2.548-14.865-4.19-22.572-4.883L108.77,5.389z M96.96,5.049l0.063,1.999C89.277,7.295,81.6,8.491,74.203,10.604
			l-0.549-1.923C81.208,6.523,89.05,5.301,96.96,5.049z M62.512,12.625l0.783,1.84c-7.091,3.018-13.81,6.917-19.971,11.589
			l-1.208-1.594C48.408,19.688,55.271,15.707,62.512,12.625z M33.157,32.162l1.395,1.434c-5.543,5.389-10.412,11.448-14.472,18.008
			l-1.701-1.053C22.525,43.852,27.497,37.665,33.157,32.162z M12.789,60.969l1.817,0.835c-3.224,7.019-5.57,14.429-6.972,22.026
			l-1.967-0.363C7.1,75.707,9.496,68.138,12.789,60.969z M5.706,118.736C4.621,112.929,4.071,106.962,4.07,101
			c0-1.929,0.058-3.882,0.173-5.804l1.996,0.119C6.127,97.198,6.07,99.11,6.07,101c0.001,5.839,0.54,11.683,1.602,17.369
			L5.706,118.736z M18.481,151.614c-4.17-6.709-7.498-13.914-9.891-21.417l1.905-0.607c2.343,7.345,5.601,14.399,9.684,20.968
			L18.481,151.614z M42.269,177.654c-6.292-4.752-11.993-10.273-16.946-16.41l1.557-1.256c4.85,6.01,10.433,11.417,16.594,16.07
			L42.269,177.654z M73.854,193.376c-7.582-2.147-14.894-5.239-21.733-9.189l1-1.732c6.697,3.868,13.855,6.896,21.278,8.998
			L73.854,193.376z M80.806,167.229c-7.162,0-15.707,0.488-25.635,1.465v-2.197c5.615-1.709,9.644-5.167,12.085-10.376
			c2.441-5.127,3.662-13.508,3.662-25.146V70.671c0-11.066-1.465-18.799-4.395-23.193c-3.012-4.313-6.796-6.998-11.353-8.057v-2.319
			c8.707,0.732,17.252,1.221,25.635,1.465V167.229z M100.071,197c-4.912,0-9.847-0.375-14.669-1.114l0.303-1.977
			c7.578,1.161,15.446,1.394,23.089,0.69l0.184,1.992C106.036,196.861,103.04,196.999,100.071,197z M120.653,194.787l-0.426-1.953
			c7.539-1.646,14.866-4.232,21.779-7.684l0.893,1.789C135.84,190.465,128.354,193.105,120.653,194.787z M129.023,107.048h-28.931
			v28.32c0,18.393,5.615,28.769,16.845,31.128v2.197c-11.557-0.977-18.839-1.465-21.849-1.465h-4.883V38.567h30.273
			c8.789,0,20.385-0.488,34.789-1.465c-0.082,2.117-0.121,4.883-0.121,8.301c0,1.953,0.121,5.615,0.365,10.986
			c0.244,5.941,0.367,9.033,0.367,9.277v3.174h-2.564c-2.279-14.648-9.197-21.973-20.752-21.973h-23.682
			c-2.686,0-5.086,0.366-7.201,1.099c-1.058,6.43-1.587,15.015-1.587,25.757v25.269h21.363c9.195,0,15.908-1.139,20.141-3.418
			c4.15-2.197,6.836-6.144,8.057-11.841h2.686c-0.57,8.789-0.854,14.853-0.854,18.188c0,2.035,0.121,5.493,0.365,10.376
			c0.324,4.639,0.488,7.977,0.488,10.01v4.028h-2.686C149.244,113.478,142.369,107.048,129.023,107.048z M153.122,181.021
			l-1.107-1.666c6.428-4.271,12.326-9.33,17.532-15.039l1.479,1.348C165.708,171.494,159.685,176.661,153.122,181.021z
			 M178.438,156.461l-1.631-1.156c4.475-6.313,8.156-13.157,10.942-20.347l1.865,0.723
			C186.77,143.023,183.009,150.015,178.438,156.461z M193.195,124.41l-1.939-0.486c1.867-7.452,2.814-15.165,2.814-22.924v-0.215h2
			V101C196.07,108.923,195.104,116.799,193.195,124.41z"/>
	</g>
</g>
</svg>
