<?xml version="1.0" encoding="utf-8"?>
<!-- Generator: Adobe Illustrator 16.0.0, SVG Export Plug-In . SVG Version: 6.00 Build 0)  -->
<!DOCTYPE svg PUBLIC "-//W3C//DTD SVG 1.1//EN" "http://www.w3.org/Graphics/SVG/1.1/DTD/svg11.dtd">
<svg version="1.1" id="Layer_1" xmlns="http://www.w3.org/2000/svg" xmlns:xlink="http://www.w3.org/1999/xlink" x="0px" y="0px"
	 width="75px" height="61px" viewBox="0 0 75 61" enable-background="new 0 0 75 61" xml:space="preserve">
<g>
	<path fill="#FFFFFF" d="M38.006,0.488C21.434,0.488,8,13.921,8,30.493C8,47.067,21.434,60.5,38.006,60.5
		c16.57,0,30.006-13.433,30.006-30.007C68.012,13.921,54.576,0.488,38.006,0.488z M65.117,19.922c0.873,2.224,1.465,4.556,1.76,6.93
		l-0.604,0.074c-0.29-2.322-0.868-4.605-1.718-6.782L65.117,19.922z M59.468,10.853c1.619,1.764,3.01,3.723,4.15,5.823l-0.537,0.289
		c-1.11-2.057-2.477-3.976-4.056-5.703L59.468,10.853z M50.936,4.417c2.131,1.065,4.142,2.39,5.958,3.947l-0.392,0.458
		c-1.783-1.521-3.744-2.821-5.838-3.86L50.936,4.417z M40.644,1.514c2.383,0.216,4.735,0.723,6.986,1.511l-0.203,0.572
		c-2.201-0.771-4.502-1.267-6.834-1.478L40.644,1.514z M37.062,1.413l0.019,0.605c-2.347,0.075-4.673,0.437-6.914,1.079
		l-0.167-0.582C32.29,1.859,34.667,1.487,37.062,1.413z M26.624,3.708l0.236,0.557c-2.149,0.915-4.186,2.096-6.054,3.512
		l-0.363-0.482C22.348,5.851,24.426,4.641,26.624,3.708z M17.727,9.628l0.421,0.436c-1.678,1.63-3.154,3.47-4.385,5.458l-0.517-0.32
		C14.503,13.175,16.009,11.297,17.727,9.628z M11.553,18.361l0.551,0.254c-0.978,2.124-1.688,4.373-2.113,6.676l-0.597-0.115
		C9.829,22.826,10.557,20.532,11.553,18.361z M9.406,35.868c-0.328-1.761-0.496-3.568-0.496-5.375c0-0.584,0.018-1.177,0.052-1.759
		l0.604,0.036c-0.032,0.571-0.051,1.151-0.051,1.724c0,1.77,0.163,3.54,0.488,5.263L9.406,35.868z M13.278,45.836
		c-1.264-2.034-2.272-4.219-3-6.492l0.581-0.187c0.707,2.226,1.697,4.365,2.933,6.355L13.278,45.836z M20.488,53.728
		c-1.905-1.442-3.634-3.119-5.138-4.979l0.474-0.38c1.471,1.824,3.161,3.46,5.03,4.875L20.488,53.728z M30.061,58.487
		c-2.297-0.649-4.514-1.581-6.586-2.781l0.303-0.53c2.03,1.18,4.196,2.099,6.448,2.731L30.061,58.487z M32.168,50.564
		c-2.172,0-4.76,0.152-7.77,0.447v-0.665c1.702-0.515,2.921-1.573,3.665-3.146c0.739-1.554,1.11-4.098,1.11-7.622V21.303
		c0-3.356-0.447-5.699-1.333-7.031c-0.916-1.308-2.058-2.121-3.441-2.442v-0.703c2.641,0.222,5.227,0.371,7.769,0.443v38.996H32.168
		z M38.006,59.584c-1.49,0-2.983-0.104-4.447-0.333l0.093-0.6c2.297,0.353,4.681,0.424,6.998,0.206l0.058,0.611
		C39.816,59.547,38.905,59.584,38.006,59.584z M44.242,58.918l-0.127-0.59c2.288-0.501,4.506-1.285,6.599-2.328l0.271,0.542
		C48.849,57.609,46.577,58.406,44.242,58.918z M46.779,32.328h-8.769v8.583c0,5.576,1.703,8.721,5.108,9.436v0.66
		c-3.504-0.299-5.714-0.442-6.623-0.442h-1.48V11.569h9.178c2.659,0,6.173-0.148,10.538-0.443c-0.024,0.641-0.035,1.48-0.035,2.516
		c0,0.594,0.035,1.702,0.111,3.33c0.076,1.801,0.11,2.739,0.11,2.81v0.962h-0.777c-0.691-4.439-2.79-6.66-6.287-6.66h-7.176
		c-0.818,0-1.544,0.114-2.184,0.334c-0.323,1.949-0.484,4.55-0.484,7.807v7.656h6.479c2.785,0,4.818-0.341,6.1-1.033
		c1.262-0.667,2.074-1.862,2.44-3.588h0.815c-0.169,2.663-0.256,4.5-0.256,5.511c0,0.618,0.036,1.665,0.107,3.146
		c0.103,1.408,0.148,2.416,0.148,3.032v1.224h-0.815C52.911,34.273,50.825,32.328,46.779,32.328z M54.083,54.747l-0.334-0.506
		c1.947-1.294,3.737-2.827,5.312-4.556l0.451,0.407C57.899,51.86,56.073,53.426,54.083,54.747z M61.752,47.303l-0.492-0.348
		c1.36-1.915,2.473-3.992,3.317-6.167l0.57,0.213C64.279,43.228,63.141,45.353,61.752,47.303z M66.226,37.589l-0.584-0.146
		c0.562-2.263,0.853-4.601,0.853-6.95v-0.068h0.606v0.068C67.101,32.895,66.808,35.282,66.226,37.589z"/>
</g>
</svg>
