<?xml version="1.0" encoding="utf-8"?>
<!-- Generator: Adobe Illustrator 16.0.0, SVG Export Plug-In . SVG Version: 6.00 Build 0)  -->
<!DOCTYPE svg PUBLIC "-//W3C//DTD SVG 1.1//EN" "http://www.w3.org/Graphics/SVG/1.1/DTD/svg11.dtd">
<svg version="1.1" id="Layer_1" xmlns="http://www.w3.org/2000/svg" xmlns:xlink="http://www.w3.org/1999/xlink" x="0px" y="0px"
	 width="442px" height="420px" viewBox="0 0 442 420" enable-background="new 0 0 442 420" xml:space="preserve">
<rect display="none" fill-rule="evenodd" clip-rule="evenodd" fill="#C2C2C2" width="442" height="604"/>
<circle fill-rule="evenodd" clip-rule="evenodd" fill="#E2DEDF" cx="221" cy="211.879" r="175"/>
<g>
	<g>
		<path fill-rule="evenodd" clip-rule="evenodd" fill="#A99B9E" d="M320.933,52.687c-2.918-8.814-12.574-17.975-24.328-19.859
			c-16.252-2.606-26.246,1.885-41.826,15.327c-10.42,11.558-11.955,15.469-15.984,24.344c-5.574,12.281-8.117,25.414-7.729,38.865
			c0.391,13.429,1.475,26.847,2.563,40.244c0.721,8.883,1.771,18.104,2.861,26.588c0.618,5.767,1.573,11.12,1.573,11.12
			s-8.843,5.452-11.745,7.13c-1.543,0.892-1.844,0.708-2.168-0.358c-1.75-5.75-1.375-4.625-4.125-12.125
			c-9-23-22.166-29.583-39.166-27.917c-23,2.667-38.09,23.382-45.59,35.882c-4.729,7.88-6.91,11.285-11.459,25.134
			c-4.02,12.243-5.258,25.501-6.202,39.151c-0.5,10.5,1,25.75,3.5,36.5c4.25,15.75,15.75,33,35.823,43.424
			c13.594,6.576,31.594,11.076,60.475-4.962c6.808-3.78,5.33-2.787,8.186,0.868c4.957,6.349,7.518,8.67,19.809,6.972
			c0.426-0.217,3.709-0.802,7.459-2.052c3-0.75,7.57-4.834,9.936-13.228c4.938-17.52,6.436-35.482,7.652-53.509
			c0.412-8.764,0.412-21.071,0.744-25.181c0.5-6.166,1.885-7.388,13.773-13.007c3.693-1.746,5.26-10.796,3.553-14.585
			c-1.158-2.574-1.826-2.408-4.979-1.582c-2.674,0.7-5.24,2.123-7.645,3.587c-3.271,1.993-4.785,5.504-5.41-2.505
			c-0.945-12.104-3.012-22.252-4.279-34.325c-0.787-5.167-0.454-5,2.498-7.714c11.424-9.774,21.537-20.738,30.154-33.014
			c8.805-12.542,18.109-24.836,21.963-40.155C324.937,85.372,326.384,69.141,320.933,52.687z M209.774,218.13
			c-1.166,0.916-2.084,1-2.451,0.857c-0.426-0.165-0.779-0.104-0.4-0.93c2.186-4.762,4.518-5.428,4.518-5.428
			S211.846,216.504,209.774,218.13z M235.47,242.153c-5.607,4.31-11.596,8.121-17.352,12.243c-2.98,2.134-2.415,5.127-0.648,7.479
			c1.754,2.335,3.195,4.986,7.635,3.62c3.086-0.95,5.035-1.697,7.455-2.789c1.465-0.661,3.799-2.327,5.299-3.161
			c0.037,1.433-1.209,9.755-1.5,11c-1.678,7.171-1.666,8.167-5.834,13.834c-10.25,13-30,18.166-37,19
			c-6.166,0.333-13.333,0.166-22.166-5.834c-11.669-6.717-16.436-17.941-18.334-32.164c-0.666-5-0.666-5.502-1-13.419
			c-0.033-15.78,6.476-45.334,19.476-61.334c11.11-13.674,24.19-9.583,29.024-3.582c5.334,5.833,9,12.166,9.5,17.666
			c-2.334,1.334-4.662,3.044-6.695,6.081c-3.215,4.801-4.566,10.009-3.771,15.982c0.57,4.283,2.572,8.299,5.976,8.859
			c3.011,0.496,7.261-1.991,9.761-4.211c10.563-9.378,10.554-22.082,10.73-24.462c0.25-3.375,7.614-7.453,11.226-9.084
			c2.584-1.167,1.583-1.667,1.983,8.459c0.125,12.75,0.5,19.827,1,29.75C240.329,237.987,237.169,240.849,235.47,242.153z
			 M281.173,150.494c-4.262,5.514-8.785,10.825-13.24,16.187c-0.605,0.729-1.913,2.023-2.683,2.615
			c-0.392-1.616-0.522-2.426-0.567-3.251c-0.391-7.296-0.688-14.597-1.012-21.896c0.068-0.004-0.885-15.295-0.924-22.94
			c-0.084-16.601,5.029-31.678,14.441-45.267c3.672-5.301,10.334-7.464,16.342-5.843c6.047,1.632,9.123,6.155,10.098,13.339
			C307.173,109.529,296.421,130.764,281.173,150.494z"/>
	</g>
</g>
<g display="none">
	<polygon display="inline" fill-rule="evenodd" clip-rule="evenodd" fill="#EDEDED" points="3,45 3.035,3.121 45,3 	"/>
	<polygon display="inline" fill-rule="evenodd" clip-rule="evenodd" fill="#EDEDED" points="45,601 3.121,600.965 3,559 	"/>
	<polygon display="inline" fill-rule="evenodd" clip-rule="evenodd" fill="#EDEDED" points="439,559 438.965,600.879 397,601 	"/>
	<polygon display="inline" fill-rule="evenodd" clip-rule="evenodd" fill="#EDEDED" points="397,3 438.879,3.035 439,45 	"/>
</g>
<g opacity="0.5">
	<g>
		<path fill="#EDEDED" d="M140,190.629c0,0,0.323-0.608,0.888-1.674c0.288-0.53,0.638-1.173,1.039-1.91
			c0.201-0.368,0.416-0.761,0.641-1.174c0.25-0.4,0.513-0.821,0.788-1.261c0.553-0.878,1.151-1.829,1.785-2.836
			c0.666-0.984,1.423-1.986,2.197-3.029c0.397-0.514,0.763-1.067,1.204-1.57c0.446-0.5,0.897-1.006,1.352-1.515
			c0.927-1.004,1.801-2.091,2.867-2.988c1.038-0.924,2.05-1.877,3.094-2.758c1.106-0.803,2.194-1.592,3.248-2.356
			c1.022-0.81,2.148-1.381,3.178-1.977c1.034-0.587,2.011-1.143,2.913-1.655c0.917-0.48,1.805-0.832,2.571-1.178
			c0.77-0.339,1.441-0.634,1.994-0.876c1.108-0.473,1.742-0.743,1.742-0.743s-0.604,0.334-1.659,0.919
			c-0.529,0.286-1.172,0.634-1.909,1.032c-0.73,0.409-1.577,0.828-2.468,1.339c-0.867,0.553-1.806,1.15-2.8,1.783
			c-0.988,0.639-2.062,1.262-3.054,2.076c-1.02,0.772-2.074,1.571-3.145,2.384c-1.018,0.874-2.002,1.82-3.015,2.733
			c-1.055,0.87-1.921,1.933-2.84,2.911c-0.457,0.492-0.91,0.981-1.357,1.465c-0.447,0.484-0.821,1.021-1.226,1.518
			c-0.779,1.017-1.587,1.961-2.292,2.903c-0.676,0.964-1.315,1.876-1.905,2.718c-0.596,0.838-1.137,1.614-1.585,2.325
			c-0.459,0.702-0.86,1.314-1.19,1.819C140.383,190.057,140,190.629,140,190.629z"/>
	</g>
	<g>
		<path fill="#EDEDED" d="M238,83.129c0,0,0.073-0.279,0.211-0.801c0.144-0.521,0.327-1.292,0.611-2.26
			c0.315-0.958,0.636-2.147,1.122-3.468c0.239-0.662,0.474-1.375,0.758-2.111c0.297-0.733,0.607-1.503,0.933-2.308
			c0.354-0.792,0.724-1.616,1.105-2.47c0.411-0.84,0.837-1.709,1.273-2.603c0.926-1.761,1.929-3.608,3.105-5.435
			c1.155-1.84,2.443-3.682,3.821-5.501c1.394-1.807,2.862-3.605,4.448-5.3c3.164-3.394,6.692-6.45,10.264-8.936
			c1.771-1.266,3.597-2.325,5.36-3.255c1.759-0.944,3.507-1.67,5.132-2.288c1.635-0.601,3.178-1.026,4.563-1.307
			c0.688-0.157,1.349-0.229,1.949-0.336c0.607-0.061,1.166-0.116,1.67-0.166c1.012-0.041,1.807-0.051,2.347-0.002
			c0.539,0.03,0.827,0.046,0.827,0.046s-0.288,0.003-0.828,0.008c-0.54-0.018-1.329,0.059-2.329,0.142
			c-0.496,0.074-1.045,0.156-1.644,0.245c-0.59,0.135-1.236,0.237-1.908,0.426c-1.353,0.347-2.849,0.841-4.445,1.469
			c-1.583,0.657-3.281,1.422-4.985,2.404c-1.71,0.968-3.467,2.072-5.209,3.323c-3.494,2.483-6.941,5.533-10.032,8.907
			c-1.58,1.656-3.047,3.417-4.441,5.188c-1.378,1.783-2.669,3.591-3.829,5.399c-1.166,1.804-2.227,3.591-3.193,5.309
			c-0.46,0.873-0.906,1.721-1.339,2.542c-0.404,0.835-0.794,1.643-1.169,2.417c-0.698,1.574-1.345,3.016-1.856,4.321
			c-0.548,1.292-0.922,2.454-1.283,3.395C238.366,82.036,238,83.129,238,83.129z"/>
	</g>
	<g>
		<path fill="#EDEDED" d="M239.5,182.629c0,0-0.113-0.667-0.312-1.834c-0.178-1.17-0.471-2.836-0.751-4.844
			c-0.279-2.008-0.637-4.347-0.962-6.859c-0.336-2.512-0.657-5.195-0.981-7.878c-0.164-1.341-0.298-2.687-0.399-4.015
			c-0.104-1.327-0.208-2.634-0.308-3.897c-0.197-2.529-0.324-4.895-0.463-6.918c-0.137-2.023-0.189-3.715-0.255-4.896
			c-0.044-1.183-0.069-1.858-0.069-1.858s0.096,0.67,0.264,1.842c0.146,1.174,0.396,2.847,0.621,4.861s0.521,4.358,0.778,6.877
			c0.127,1.259,0.258,2.56,0.391,3.882c0.112,1.323,0.26,2.666,0.433,4.007c0.303,2.686,0.609,5.37,0.861,7.892
			c0.263,2.521,0.455,4.879,0.646,6.896c0.19,2.019,0.289,3.708,0.387,4.887C239.457,181.954,239.5,182.629,239.5,182.629z"/>
	</g>
	<g>
		<path fill="#EDEDED" d="M202,217.129c0,0,0.031-0.223,0.086-0.611c0.033-0.192,0.074-0.427,0.12-0.695
			c0.026-0.133,0.054-0.275,0.083-0.425c0.055-0.146,0.112-0.299,0.172-0.459c0.121-0.321,0.255-0.673,0.413-1.042
			c0.164-0.363,0.389-0.706,0.609-1.075c0.219-0.369,0.45-0.75,0.75-1.083c0.288-0.344,0.564-0.709,0.871-1.044
			c0.327-0.314,0.654-0.629,0.976-0.938c0.308-0.325,0.683-0.561,1.007-0.83c0.335-0.258,0.652-0.518,0.984-0.717
			c0.323-0.212,0.636-0.401,0.924-0.575c0.568-0.359,1.092-0.577,1.442-0.753c0.358-0.16,0.563-0.252,0.563-0.252
			s-0.166,0.152-0.455,0.419c-0.287,0.268-0.726,0.605-1.216,1.053c-0.246,0.222-0.513,0.459-0.803,0.7
			c-0.295,0.234-0.563,0.53-0.872,0.798c-0.297,0.279-0.623,0.551-0.915,0.861c-0.299,0.304-0.604,0.611-0.908,0.919
			c-0.3,0.311-0.567,0.648-0.849,0.966c-0.29,0.313-0.548,0.638-0.774,0.971c-0.225,0.332-0.495,0.63-0.684,0.94
			c-0.177,0.315-0.359,0.61-0.53,0.887c-0.178,0.27-0.329,0.535-0.425,0.793c-0.114,0.247-0.213,0.463-0.295,0.641
			C202.1,216.928,202,217.129,202,217.129z"/>
	</g>
	<g>
		<path fill="#EDEDED" d="M214,298.629c0,0,0.489-0.28,1.346-0.771c0.858-0.482,2.085-1.171,3.557-1.998
			c0.735-0.41,1.518-0.876,2.331-1.39c0.818-0.504,1.649-1.084,2.512-1.671c0.422-0.308,0.851-0.62,1.285-0.937
			c0.427-0.325,0.837-0.681,1.267-1.018c0.436-0.333,0.845-0.701,1.246-1.08c0.397-0.383,0.832-0.732,1.203-1.143l1.145-1.201
			c0.385-0.396,0.701-0.847,1.052-1.263c0.716-0.825,1.276-1.741,1.874-2.591c0.53-0.891,1.031-1.765,1.48-2.606
			c0.383-0.873,0.787-1.687,1.087-2.466c0.262-0.794,0.521-1.518,0.755-2.16c0.223-0.646,0.328-1.234,0.461-1.708
			c0.254-0.954,0.399-1.499,0.399-1.499s-0.076,0.56-0.208,1.537c-0.086,0.486-0.134,1.092-0.292,1.764
			c-0.166,0.67-0.354,1.429-0.584,2.251c-0.257,0.813-0.617,1.667-0.956,2.589c-0.407,0.89-0.859,1.827-1.391,2.757
			c-0.594,0.892-1.128,1.875-1.868,2.73c-0.357,0.435-0.683,0.905-1.075,1.318l-1.171,1.253c-0.39,0.421-0.84,0.777-1.255,1.167
			c-0.418,0.387-0.843,0.762-1.293,1.099c-0.867,0.718-1.781,1.338-2.668,1.933c-0.892,0.583-1.779,1.109-2.638,1.57
			c-0.854,0.471-1.672,0.892-2.437,1.26c-1.521,0.753-2.832,1.276-3.733,1.675C214.521,298.412,214,298.629,214,298.629z"/>
	</g>
	<g>
		<path fill="#EDEDED" d="M283.167,217.796c0,0,0.083-0.085,0.234-0.22c0.15-0.137,0.37-0.316,0.679-0.497
			c0.302-0.187,0.68-0.364,1.157-0.462c0.244-0.037,0.517-0.057,0.809,0.01c0.29,0.082,0.573,0.232,0.787,0.44
			c0.406,0.431,0.593,0.909,0.703,1.332c0.118,0.428,0.173,0.822,0.201,1.163c0.063,0.679,0.013,1.15,0.013,1.15
			s-0.276-0.389-0.565-0.997c-0.151-0.301-0.308-0.655-0.475-1.012c-0.079-0.182-0.183-0.35-0.269-0.517
			c-0.093-0.16-0.197-0.303-0.306-0.404c-0.102-0.111-0.216-0.173-0.343-0.226c-0.075-0.008-0.145-0.029-0.219-0.052l-0.251-0.014
			c-0.174,0.017-0.354,0.007-0.53,0.04c-0.175,0.034-0.35,0.043-0.507,0.08c-0.331,0.059-0.607,0.108-0.801,0.143
			C283.285,217.786,283.167,217.796,283.167,217.796z"/>
	</g>
	<g>
		<path fill="#EDEDED" d="M279.5,154.129c0,0,0.482-0.592,1.328-1.628c0.427-0.513,0.945-1.137,1.541-1.853
			c0.564-0.736,1.202-1.566,1.897-2.474c0.697-0.902,1.472-1.862,2.2-2.951c0.75-1.071,1.531-2.206,2.372-3.356
			c0.772-1.197,1.571-2.434,2.383-3.691c0.838-1.24,1.578-2.567,2.316-3.895c0.741-1.324,1.577-2.6,2.235-3.942
			c0.669-1.337,1.327-2.653,1.964-3.927c0.669-1.26,1.172-2.542,1.699-3.737c0.519-1.201,1.009-2.335,1.461-3.383
			c0.441-1.053,0.736-2.058,1.067-2.925c0.313-0.875,0.585-1.638,0.81-2.266c0.462-1.256,0.726-1.973,0.726-1.973
			s-0.196,0.738-0.539,2.028c-0.178,0.645-0.394,1.428-0.642,2.327c-0.265,0.893-0.487,1.93-0.894,3.003
			c-0.407,1.074-0.849,2.237-1.315,3.468c-0.477,1.227-0.916,2.551-1.587,3.824c-0.624,1.295-1.268,2.633-1.923,3.993
			c-0.646,1.365-1.465,2.665-2.198,4.011c-0.766,1.329-1.531,2.656-2.396,3.895c-0.837,1.255-1.66,2.49-2.457,3.685
			c-0.85,1.158-1.703,2.255-2.503,3.299c-0.779,1.06-1.605,1.995-2.348,2.872c-0.743,0.877-1.429,1.676-2.055,2.363
			c-0.646,0.67-1.209,1.254-1.673,1.735C280.035,153.584,279.5,154.129,279.5,154.129z"/>
	</g>
	<g>
		<path fill="#EDEDED" d="M238.25,241.504c0,0,0.481-0.533,1.21-1.259c0.362-0.365,0.765-0.795,1.097-1.281
			c0.175-0.239,0.306-0.506,0.413-0.783c0.063-0.135,0.109-0.279,0.143-0.43c0.046-0.146,0.077-0.297,0.093-0.455
			c0.067-0.304,0.08-0.632,0.1-0.951c-0.005-0.324,0.025-0.645,0.006-0.963c-0.02-0.641-0.038-1.239-0.054-1.752
			c-0.037-1.037-0.007-1.751-0.007-1.751s0.3,0.646,0.575,1.665c0.144,0.508,0.282,1.109,0.363,1.775
			c0.097,0.66,0.117,1.395,0.002,2.146c-0.026,0.187-0.071,0.372-0.134,0.557c-0.05,0.186-0.114,0.366-0.2,0.54
			c-0.071,0.179-0.163,0.346-0.274,0.497c-0.098,0.16-0.207,0.308-0.327,0.438c-0.221,0.283-0.485,0.494-0.725,0.694
			c-0.243,0.196-0.484,0.362-0.712,0.499c-0.45,0.286-0.847,0.482-1.124,0.614C238.415,241.437,238.25,241.504,238.25,241.504z"/>
	</g>
</g>
</svg>
