<?xml version="1.0" encoding="utf-8"?>
<!-- Generator: Adobe Illustrator 16.0.0, SVG Export Plug-In . SVG Version: 6.00 Build 0)  -->
<!DOCTYPE svg PUBLIC "-//W3C//DTD SVG 1.1//EN" "http://www.w3.org/Graphics/SVG/1.1/DTD/svg11.dtd">
<svg version="1.1" id="Layer_1" xmlns="http://www.w3.org/2000/svg" xmlns:xlink="http://www.w3.org/1999/xlink" x="0px" y="0px"
	 width="44px" height="180px" viewBox="0 0 44 180" enable-background="new 0 0 44 180" xml:space="preserve">
<g>
	<path fill="#5B4947" d="M43.507,83.459v12.51c-2.874,0-5.769,0.813-8.688,2.433c-2.919,1.623-4.379,4.194-4.379,7.715v28.634
		c0,5.838-2.015,10.471-6.046,13.9c-4.031,3.427-7.947,5.143-11.746,5.143H0v-12.51h7.645c5.188,0,7.784-3.245,7.784-9.73v-27.104
		c0-8.153,4.817-13.019,14.456-14.595v-0.278c-9.639-0.925-14.456-6.068-14.456-15.429V47.875c0-6.485-2.596-9.729-7.784-9.729H0
		V25.635h12.648c3.799,0,7.715,1.716,11.746,5.144c4.031,3.43,6.046,8.062,6.046,13.899V72.2c0,3.985,1.46,6.858,4.379,8.618
		C37.738,82.579,40.633,83.459,43.507,83.459z"/>
</g>
</svg>
