<?xml version="1.0" encoding="utf-8"?>
<!-- Generator: Adobe Illustrator 16.0.0, SVG Export Plug-In . SVG Version: 6.00 Build 0)  -->
<!DOCTYPE svg PUBLIC "-//W3C//DTD SVG 1.1//EN" "http://www.w3.org/Graphics/SVG/1.1/DTD/svg11.dtd">
<svg version="1.1" id="Layer_1" xmlns="http://www.w3.org/2000/svg" xmlns:xlink="http://www.w3.org/1999/xlink" x="0px" y="0px"
	 width="442px" height="442px" viewBox="0 0 442 442" enable-background="new 0 0 442 442" xml:space="preserve">
<path display="none" fill-rule="evenodd" clip-rule="evenodd" fill="none" stroke="#5A4848" stroke-width="41" stroke-miterlimit="10" d="
	M173.436,391.768C80.424,365.502,26.318,268.804,52.588,175.793C78.855,82.78,175.55,28.675,268.563,54.944
	c93.012,26.266,147.116,122.964,120.849,215.977C363.145,363.929,266.447,418.036,173.436,391.768z"/>
<circle fill-rule="evenodd" clip-rule="evenodd" fill="none" stroke="#5A4848" stroke-width="11" stroke-miterlimit="10" cx="221" cy="223.354" r="209.942"/>
<circle display="none" fill-rule="evenodd" clip-rule="evenodd" fill="#E2DEDF" cx="221" cy="223.356" r="175"/>
<g display="none">
	<g display="inline">
		<path fill-rule="evenodd" clip-rule="evenodd" fill="#9A9191" d="M320.933,64.164c-2.918-8.814-12.574-17.975-24.328-19.859
			c-16.252-2.607-26.246,1.885-41.826,15.326c-10.42,11.559-11.955,15.47-15.984,24.345c-5.574,12.281-8.117,25.414-7.729,38.865
			c0.391,13.429,1.475,26.847,2.563,40.244c0.721,8.883,1.771,18.104,2.861,26.588c0.618,5.768,1.573,11.121,1.573,11.121
			s-8.843,5.451-11.745,7.129c-1.543,0.893-1.844,0.709-2.168-0.357c-1.75-5.75-1.375-4.625-4.125-12.125
			c-9-23.001-22.166-29.584-39.166-27.918c-23,2.667-38.09,23.383-45.59,35.883c-4.729,7.879-6.91,11.285-11.459,25.133
			c-4.021,12.244-5.258,25.502-6.202,39.152c-0.5,10.5,1,25.75,3.5,36.5c4.251,15.75,15.751,33,35.823,43.424
			c13.594,6.576,31.594,11.076,60.475-4.963c6.808-3.779,5.33-2.787,8.186,0.869c4.957,6.348,7.518,8.67,19.809,6.971
			c0.426-0.217,3.709-0.801,7.459-2.051c3-0.75,7.57-4.834,9.936-13.229c4.938-17.52,6.436-35.482,7.652-53.508
			c0.412-8.764,0.412-21.072,0.744-25.182c0.5-6.166,1.885-7.387,13.773-13.006c3.693-1.746,5.26-10.797,3.553-14.586
			c-1.158-2.574-1.826-2.408-4.979-1.582c-2.674,0.701-5.24,2.123-7.645,3.588c-3.271,1.992-4.785,5.504-5.41-2.506
			c-0.945-12.104-3.012-22.252-4.279-34.324c-0.787-5.168-0.454-5,2.498-7.715c11.424-9.774,21.537-20.738,30.154-33.014
			c8.805-12.542,18.109-24.836,21.963-40.155C324.937,96.849,326.384,80.617,320.933,64.164z M209.774,229.606
			c-1.166,0.916-2.084,1-2.451,0.857c-0.426-0.164-0.779-0.104-0.4-0.93c2.186-4.762,4.518-5.428,4.518-5.428
			S211.846,227.981,209.774,229.606z M235.47,253.63c-5.607,4.311-11.596,8.121-17.352,12.244c-2.98,2.133-2.415,5.127-0.648,7.479
			c1.754,2.336,3.195,4.986,7.635,3.621c3.086-0.951,5.035-1.697,7.455-2.789c1.465-0.662,3.799-2.328,5.299-3.162
			c0.037,1.434-1.209,9.756-1.5,11c-1.678,7.172-1.666,8.168-5.834,13.834c-10.25,13-30,18.166-37,19
			c-6.166,0.334-13.333,0.166-22.166-5.834c-11.669-6.717-16.436-17.941-18.334-32.164c-0.666-5-0.666-5.502-1-13.418
			c-0.033-15.781,6.476-45.334,19.476-61.334c11.109-13.674,24.19-9.584,29.024-3.582c5.334,5.832,9,12.166,9.5,17.666
			c-2.334,1.334-4.662,3.043-6.695,6.08c-3.215,4.801-4.566,10.01-3.771,15.982c0.57,4.283,2.572,8.299,5.976,8.859
			c3.011,0.496,7.261-1.99,9.761-4.211c10.563-9.377,10.554-22.082,10.73-24.461c0.25-3.375,7.614-7.453,11.226-9.084
			c2.584-1.168,1.583-1.668,1.983,8.459c0.125,12.75,0.5,19.826,1,29.75C240.329,249.464,237.169,252.325,235.47,253.63z
			 M281.173,161.971c-4.262,5.514-8.785,10.825-13.24,16.187c-0.605,0.729-1.913,2.023-2.683,2.615
			c-0.392-1.616-0.522-2.426-0.567-3.251c-0.391-7.296-0.688-14.597-1.012-21.896c0.068-0.004-0.885-15.295-0.924-22.94
			c-0.084-16.601,5.029-31.678,14.441-45.267c3.672-5.301,10.334-7.464,16.342-5.843c6.047,1.632,9.123,6.155,10.098,13.339
			C307.173,121.006,296.421,142.24,281.173,161.971z"/>
	</g>
</g>
<g display="none" opacity="0.5">
	<g display="inline">
		<path fill="#EDEDED" d="M140,202.106c0,0,0.323-0.609,0.889-1.674c0.287-0.531,0.638-1.174,1.039-1.91
			c0.201-0.369,0.415-0.762,0.641-1.174c0.25-0.4,0.514-0.822,0.787-1.262c0.553-0.877,1.152-1.828,1.785-2.836
			c0.666-0.984,1.423-1.986,2.197-3.029c0.397-0.514,0.764-1.066,1.204-1.57c0.446-0.5,0.897-1.006,1.353-1.514
			c0.926-1.004,1.801-2.092,2.866-2.988c1.038-0.925,2.05-1.878,3.094-2.759c1.106-0.803,2.194-1.592,3.248-2.356
			c1.022-0.81,2.147-1.381,3.178-1.977c1.034-0.587,2.011-1.143,2.913-1.655c0.917-0.48,1.805-0.832,2.57-1.178
			c0.771-0.339,1.441-0.634,1.994-0.876c1.109-0.473,1.742-0.743,1.742-0.743s-0.604,0.334-1.659,0.919
			c-0.529,0.286-1.172,0.634-1.909,1.032c-0.73,0.409-1.577,0.828-2.469,1.339c-0.867,0.553-1.806,1.15-2.799,1.783
			c-0.988,0.639-2.063,1.262-3.055,2.076c-1.02,0.772-2.074,1.571-3.145,2.384c-1.018,0.874-2.002,1.821-3.015,2.733
			c-1.055,0.871-1.921,1.934-2.841,2.912c-0.456,0.492-0.909,0.98-1.356,1.465c-0.446,0.484-0.821,1.021-1.226,1.518
			c-0.779,1.016-1.588,1.961-2.293,2.902c-0.676,0.965-1.314,1.877-1.904,2.719c-0.596,0.838-1.137,1.613-1.586,2.324
			c-0.459,0.703-0.859,1.314-1.189,1.82C140.383,201.534,140,202.106,140,202.106z"/>
	</g>
	<g display="inline">
		<path fill="#EDEDED" d="M238,94.605c0,0,0.073-0.279,0.211-0.801c0.144-0.521,0.327-1.293,0.611-2.261
			c0.315-0.958,0.636-2.147,1.122-3.468c0.239-0.662,0.474-1.375,0.758-2.111c0.297-0.732,0.607-1.504,0.933-2.308
			c0.354-0.792,0.724-1.616,1.105-2.47c0.411-0.841,0.837-1.71,1.273-2.604c0.926-1.76,1.929-3.607,3.105-5.434
			c1.155-1.841,2.443-3.682,3.821-5.502c1.394-1.807,2.862-3.604,4.448-5.299c3.164-3.395,6.692-6.45,10.264-8.937
			c1.771-1.267,3.597-2.325,5.36-3.255c1.759-0.943,3.507-1.67,5.132-2.288c1.635-0.601,3.178-1.026,4.563-1.307
			c0.688-0.157,1.349-0.229,1.949-0.336c0.607-0.061,1.166-0.116,1.67-0.166c1.012-0.041,1.807-0.052,2.347-0.003
			c0.539,0.031,0.827,0.047,0.827,0.047s-0.288,0.003-0.828,0.008c-0.54-0.018-1.329,0.059-2.329,0.143
			c-0.496,0.073-1.045,0.155-1.644,0.244c-0.59,0.136-1.236,0.238-1.908,0.427c-1.353,0.347-2.849,0.841-4.445,1.469
			c-1.583,0.657-3.281,1.423-4.985,2.404c-1.71,0.968-3.467,2.072-5.209,3.323c-3.494,2.482-6.941,5.533-10.032,8.906
			c-1.58,1.656-3.047,3.417-4.441,5.188c-1.378,1.783-2.669,3.592-3.829,5.399c-1.166,1.804-2.227,3.591-3.193,5.31
			c-0.46,0.872-0.906,1.721-1.339,2.541c-0.404,0.836-0.794,1.643-1.169,2.418c-0.698,1.574-1.345,3.016-1.856,4.32
			c-0.548,1.292-0.922,2.455-1.283,3.396C238.366,93.513,238,94.605,238,94.605z"/>
	</g>
	<g display="inline">
		<path fill="#EDEDED" d="M239.5,194.106c0,0-0.113-0.668-0.312-1.834c-0.178-1.17-0.471-2.836-0.751-4.844
			c-0.279-2.008-0.637-4.348-0.962-6.86c-0.336-2.512-0.657-5.195-0.981-7.878c-0.164-1.341-0.298-2.687-0.399-4.015
			c-0.104-1.327-0.208-2.634-0.308-3.897c-0.197-2.529-0.324-4.895-0.463-6.918c-0.137-2.023-0.189-3.715-0.255-4.896
			c-0.044-1.183-0.069-1.858-0.069-1.858s0.096,0.67,0.264,1.842c0.146,1.175,0.396,2.848,0.621,4.861s0.521,4.358,0.778,6.877
			c0.127,1.259,0.258,2.56,0.391,3.882c0.112,1.323,0.26,2.666,0.433,4.007c0.303,2.686,0.609,5.37,0.861,7.892
			c0.263,2.521,0.455,4.879,0.646,6.896c0.19,2.02,0.289,3.709,0.387,4.887C239.457,193.431,239.5,194.106,239.5,194.106z"/>
	</g>
	<g display="inline">
		<path fill="#EDEDED" d="M202,228.606c0,0,0.031-0.223,0.086-0.611c0.033-0.193,0.074-0.428,0.121-0.695
			c0.025-0.133,0.053-0.275,0.082-0.426c0.055-0.145,0.113-0.299,0.172-0.459c0.121-0.32,0.256-0.672,0.413-1.041
			c0.163-0.363,0.389-0.707,0.608-1.076s0.45-0.75,0.75-1.082c0.288-0.344,0.564-0.709,0.871-1.045
			c0.328-0.314,0.654-0.629,0.977-0.938c0.307-0.326,0.682-0.561,1.007-0.83c0.335-0.258,0.651-0.518,0.984-0.717
			c0.323-0.213,0.636-0.402,0.924-0.576c0.568-0.359,1.093-0.576,1.442-0.752c0.357-0.16,0.563-0.252,0.563-0.252
			s-0.166,0.152-0.455,0.418c-0.286,0.268-0.726,0.605-1.215,1.053c-0.246,0.223-0.514,0.459-0.803,0.701
			c-0.296,0.234-0.563,0.529-0.873,0.797c-0.297,0.279-0.622,0.551-0.914,0.861c-0.299,0.305-0.604,0.611-0.908,0.92
			c-0.299,0.311-0.566,0.648-0.849,0.965c-0.29,0.313-0.548,0.639-0.774,0.971c-0.225,0.332-0.494,0.631-0.684,0.941
			c-0.178,0.314-0.359,0.609-0.529,0.887c-0.179,0.27-0.329,0.535-0.426,0.793c-0.113,0.246-0.213,0.463-0.295,0.641
			C202.1,228.405,202,228.606,202,228.606z"/>
	</g>
	<g display="inline">
		<path fill="#EDEDED" d="M214,310.106c0,0,0.489-0.281,1.346-0.771c0.859-0.482,2.086-1.17,3.558-1.998
			c0.735-0.41,1.518-0.875,2.331-1.389c0.818-0.504,1.649-1.084,2.512-1.672c0.422-0.307,0.851-0.619,1.285-0.936
			c0.427-0.326,0.837-0.682,1.267-1.018c0.436-0.334,0.845-0.701,1.246-1.08c0.397-0.383,0.832-0.732,1.203-1.143l1.145-1.201
			c0.385-0.396,0.701-0.848,1.052-1.264c0.716-0.824,1.276-1.74,1.874-2.59c0.53-0.891,1.031-1.766,1.48-2.607
			c0.383-0.873,0.787-1.686,1.087-2.465c0.262-0.795,0.521-1.518,0.755-2.16c0.223-0.646,0.328-1.234,0.461-1.709
			c0.254-0.953,0.399-1.498,0.399-1.498s-0.076,0.559-0.208,1.537c-0.086,0.486-0.134,1.092-0.292,1.764
			c-0.166,0.67-0.354,1.428-0.584,2.25c-0.257,0.813-0.617,1.668-0.956,2.59c-0.407,0.889-0.859,1.826-1.391,2.756
			c-0.594,0.893-1.128,1.875-1.868,2.73c-0.357,0.436-0.683,0.906-1.075,1.318l-1.171,1.254c-0.39,0.42-0.84,0.777-1.255,1.166
			c-0.418,0.387-0.843,0.762-1.293,1.1c-0.867,0.717-1.781,1.338-2.668,1.932c-0.892,0.584-1.779,1.109-2.638,1.57
			c-0.854,0.471-1.672,0.893-2.437,1.26c-1.521,0.754-2.831,1.277-3.733,1.676C214.521,309.89,214,310.106,214,310.106z"/>
	</g>
	<g display="inline">
		<path fill="#EDEDED" d="M283.167,229.272c0,0,0.083-0.084,0.234-0.219c0.15-0.137,0.37-0.316,0.679-0.498
			c0.302-0.186,0.68-0.363,1.157-0.461c0.244-0.037,0.517-0.057,0.809,0.01c0.29,0.082,0.573,0.232,0.787,0.439
			c0.406,0.432,0.593,0.91,0.703,1.332c0.118,0.428,0.173,0.822,0.201,1.164c0.063,0.678,0.013,1.15,0.013,1.15
			s-0.276-0.389-0.565-0.998c-0.151-0.301-0.308-0.654-0.475-1.012c-0.079-0.182-0.183-0.35-0.269-0.516
			c-0.093-0.16-0.197-0.303-0.306-0.404c-0.102-0.111-0.216-0.174-0.343-0.227c-0.075-0.008-0.145-0.029-0.219-0.051l-0.251-0.014
			c-0.174,0.016-0.354,0.006-0.53,0.039c-0.175,0.035-0.35,0.043-0.507,0.08c-0.331,0.059-0.607,0.109-0.801,0.143
			C283.285,229.263,283.167,229.272,283.167,229.272z"/>
	</g>
	<g display="inline">
		<path fill="#EDEDED" d="M279.5,165.605c0,0,0.482-0.592,1.328-1.628c0.427-0.513,0.945-1.137,1.541-1.853
			c0.564-0.736,1.202-1.566,1.897-2.474c0.697-0.902,1.472-1.862,2.2-2.951c0.75-1.071,1.531-2.206,2.372-3.356
			c0.772-1.197,1.571-2.434,2.383-3.691c0.838-1.239,1.578-2.566,2.316-3.895c0.741-1.324,1.577-2.6,2.235-3.941
			c0.669-1.338,1.327-2.654,1.964-3.928c0.669-1.26,1.172-2.541,1.699-3.736c0.519-1.201,1.009-2.336,1.461-3.383
			c0.441-1.053,0.736-2.059,1.067-2.926c0.313-0.875,0.585-1.637,0.81-2.266c0.462-1.256,0.726-1.973,0.726-1.973
			s-0.196,0.738-0.539,2.028c-0.178,0.646-0.394,1.429-0.642,2.327c-0.265,0.893-0.487,1.93-0.894,3.002
			c-0.407,1.074-0.849,2.238-1.315,3.469c-0.477,1.227-0.916,2.551-1.587,3.824c-0.624,1.295-1.268,2.633-1.923,3.992
			c-0.646,1.365-1.465,2.664-2.198,4.011c-0.766,1.329-1.531,2.656-2.396,3.895c-0.837,1.255-1.66,2.489-2.457,3.685
			c-0.85,1.158-1.703,2.255-2.503,3.299c-0.779,1.06-1.605,1.995-2.348,2.872c-0.743,0.877-1.429,1.676-2.055,2.363
			c-0.646,0.67-1.209,1.254-1.673,1.735C280.035,165.061,279.5,165.605,279.5,165.605z"/>
	</g>
	<g display="inline">
		<path fill="#EDEDED" d="M238.25,252.981c0,0,0.481-0.533,1.21-1.26c0.362-0.365,0.765-0.795,1.097-1.281
			c0.175-0.238,0.306-0.506,0.413-0.783c0.063-0.135,0.109-0.279,0.143-0.43c0.046-0.145,0.077-0.297,0.093-0.455
			c0.067-0.303,0.08-0.631,0.1-0.951c-0.005-0.324,0.025-0.645,0.006-0.963c-0.02-0.641-0.038-1.238-0.054-1.752
			c-0.037-1.037-0.007-1.75-0.007-1.75s0.3,0.646,0.575,1.664c0.144,0.508,0.282,1.109,0.363,1.775
			c0.097,0.66,0.117,1.395,0.002,2.146c-0.026,0.186-0.071,0.371-0.134,0.557c-0.05,0.186-0.114,0.365-0.2,0.539
			c-0.071,0.18-0.163,0.346-0.274,0.498c-0.098,0.16-0.207,0.307-0.327,0.438c-0.221,0.283-0.485,0.494-0.725,0.695
			c-0.243,0.195-0.484,0.361-0.712,0.498c-0.45,0.287-0.847,0.482-1.124,0.615C238.415,252.913,238.25,252.981,238.25,252.981z"/>
	</g>
</g>
</svg>
