<?xml version="1.0" encoding="utf-8"?>
<!-- Generator: Adobe Illustrator 16.0.0, SVG Export Plug-In . SVG Version: 6.00 Build 0)  -->
<!DOCTYPE svg PUBLIC "-//W3C//DTD SVG 1.1//EN" "http://www.w3.org/Graphics/SVG/1.1/DTD/svg11.dtd">
<svg version="1.1" id="Layer_1" xmlns="http://www.w3.org/2000/svg" xmlns:xlink="http://www.w3.org/1999/xlink" x="0px" y="0px"
	 width="44px" height="180px" viewBox="0 0 44 180" enable-background="new 0 0 44 180" xml:space="preserve">
<g>
	<path fill="#5B4947" d="M0.493,95.969v-12.51c1.575,0,3.267-0.254,5.074-0.765c1.807-0.508,3.59-1.574,5.352-3.196
		c1.759-1.621,2.641-3.684,2.641-6.186V44.678c0-5.838,2.016-10.47,6.047-13.899c4.031-3.428,7.944-5.144,11.745-5.144H44v12.511
		h-7.645c-5.191,0-7.785,3.244-7.785,9.729V74.98c0,4.819-1.598,8.388-4.795,10.703c-3.197,2.317-6.418,3.613-9.661,3.892v0.278
		c9.637,0.927,14.456,6.07,14.456,15.429v26.271c0,6.485,2.594,9.73,7.785,9.73H44v12.51H31.351c-3.801,0-7.714-1.716-11.745-5.143
		c-4.031-3.43-6.047-8.063-6.047-13.9v-27.521c0-3.983-1.483-6.857-4.448-8.618C6.144,96.851,3.273,95.969,0.493,95.969z"/>
</g>
</svg>
