<svg id="Layer_1" data-name="Layer 1" xmlns="http://www.w3.org/2000/svg" viewBox="0 0 517 156"><defs><style>.cls-1{fill:#b3b3b3;}.cls-2{fill:#1a1a1a;}.cls-3{fill:#c69c6d;}.cls-4,.cls-5{fill:none;stroke-miterlimit:10;}.cls-4{stroke:#999;}.cls-5{stroke:#c69c6d;}</style></defs><title>FFlogobusinesscards</title><rect class="cls-1" x="261" width="124" height="156"/><rect class="cls-2" width="255" height="156"/><rect class="cls-2" x="385" width="132" height="156"/><path class="cls-1" d="M418.74,56.52v2.91h-.9V51.72H420a2.82,2.82,0,0,1,1.92.61,2.14,2.14,0,0,1,.68,1.69,2.37,2.37,0,0,1-.76,1.8,2.9,2.9,0,0,1-2,.7Zm0-4V55.7h.94a2.09,2.09,0,0,0,1.43-.43,1.48,1.48,0,0,0,.49-1.2q0-1.53-1.8-1.53Z" transform="translate(0 -0.29)"/><path class="cls-1" d="M430.51,59.43h-1l-.82-2.16h-3.26l-.77,2.16h-1l3-7.71h.93Zm-2.11-3-1.21-3.29a2.75,2.75,0,0,1-.12-.51h0a2.64,2.64,0,0,1-.13.51l-1.19,3.29Z" transform="translate(0 -0.29)"/><path class="cls-1" d="M437.83,56.31c0,2.16-1,3.25-2.93,3.25s-2.81-1-2.81-3.12V51.72H433v4.66c0,1.58.66,2.36,2,2.36s1.92-.76,1.92-2.28V51.72h.91Z" transform="translate(0 -0.29)"/><path class="cls-1" d="M444.29,59.43h-4V51.72h.9v6.89h3.09Z" transform="translate(0 -0.29)"/><path class="cls-1" d="M453.5,52.54h-3v2.67h2.78V56h-2.78v3.41h-.9V51.72h3.91Z" transform="translate(0 -0.29)"/><path class="cls-1" d="M458.62,59.56A3.39,3.39,0,0,1,456,58.48a4,4,0,0,1-1-2.81,4.25,4.25,0,0,1,1-3,3.49,3.49,0,0,1,2.73-1.1,3.28,3.28,0,0,1,2.57,1.07,4,4,0,0,1,1,2.81,4.23,4.23,0,0,1-1,3A3.45,3.45,0,0,1,458.62,59.56Zm.06-7.15a2.46,2.46,0,0,0-2,.88,3.36,3.36,0,0,0-.76,2.3,3.42,3.42,0,0,0,.74,2.29,2.39,2.39,0,0,0,1.93.86,2.51,2.51,0,0,0,2-.82,3.38,3.38,0,0,0,.73-2.32,3.52,3.52,0,0,0-.71-2.36A2.43,2.43,0,0,0,458.68,52.41Z" transform="translate(0 -0.29)"/><path class="cls-1" d="M464,59.12V58.05a2,2,0,0,0,.44.29,3.21,3.21,0,0,0,.54.22c.19.06.38.1.57.14a3.2,3.2,0,0,0,.52,0,2.08,2.08,0,0,0,1.24-.3,1.05,1.05,0,0,0,.42-.89,1.1,1.1,0,0,0-.14-.55,1.65,1.65,0,0,0-.38-.42,3.74,3.74,0,0,0-.57-.36l-.71-.37c-.27-.14-.52-.27-.76-.41a3.2,3.2,0,0,1-.6-.47,1.81,1.81,0,0,1-.41-.57,1.73,1.73,0,0,1-.15-.75,1.69,1.69,0,0,1,.24-.91,1.84,1.84,0,0,1,.6-.64,2.68,2.68,0,0,1,.86-.38,4,4,0,0,1,1-.12,3.81,3.81,0,0,1,1.66.27v1a3.06,3.06,0,0,0-1.75-.47,2.88,2.88,0,0,0-.59.06,1.78,1.78,0,0,0-.53.21,1.19,1.19,0,0,0-.38.36,1,1,0,0,0-.14.53,1.13,1.13,0,0,0,.11.51,1.08,1.08,0,0,0,.32.39,3.25,3.25,0,0,0,.53.35l.71.36c.28.14.54.28.78.43a3.38,3.38,0,0,1,.65.5,2.34,2.34,0,0,1,.45.61,1.7,1.7,0,0,1,.16.76,2,2,0,0,1-.22,1,1.93,1.93,0,0,1-.6.64,3,3,0,0,1-.88.36,5,5,0,0,1-1,.11l-.45,0-.55-.09a4.58,4.58,0,0,1-.53-.14A1.89,1.89,0,0,1,464,59.12Z" transform="translate(0 -0.29)"/><path class="cls-1" d="M475.3,52.54h-2.22v6.89h-.9V52.54H470v-.82h5.34Z" transform="translate(0 -0.29)"/><path class="cls-1" d="M481.14,59.43h-4.08V51.72H481v.82h-3V55.1h2.79v.81H478v2.7h3.18Z" transform="translate(0 -0.29)"/><path class="cls-1" d="M488.7,59.43h-1.08l-1.29-2.16a4.7,4.7,0,0,0-.34-.52,1.82,1.82,0,0,0-.34-.34,1.16,1.16,0,0,0-.38-.2,1.53,1.53,0,0,0-.45-.06h-.74v3.28h-.9V51.72h2.29a3.5,3.5,0,0,1,.94.13,2.25,2.25,0,0,1,.74.38,1.86,1.86,0,0,1,.49.65,2.06,2.06,0,0,1,.18.9,2.15,2.15,0,0,1-.12.73,1.79,1.79,0,0,1-.35.6,2,2,0,0,1-.54.45,2.45,2.45,0,0,1-.7.29v0a1.72,1.72,0,0,1,.6.46,2.34,2.34,0,0,1,.26.34c.08.13.18.27.28.44Zm-4.62-6.89v2.79h1.22a1.81,1.81,0,0,0,.63-.1,1.29,1.29,0,0,0,.82-.76,1.52,1.52,0,0,0,.12-.62,1.19,1.19,0,0,0-.4-1,1.73,1.73,0,0,0-1.16-.35Z" transform="translate(0 -0.29)"/><path class="cls-1" d="M127.5,23.36a44.26,44.26,0,1,0,44.26,44.26A44.27,44.27,0,0,0,127.5,23.36Zm40,28.67a42.37,42.37,0,0,1,2.59,10.22l-.89.11a42,42,0,0,0-2.53-10Zm-8.34-13.38a43.31,43.31,0,0,1,6.13,8.59l-.8.42a42.39,42.39,0,0,0-6-8.41Zm-12.58-9.49A43.11,43.11,0,0,1,155.36,35l-.58.68a41.76,41.76,0,0,0-8.61-5.7Zm-15.18-4.28a42.67,42.67,0,0,1,10.3,2.23l-.3.84a41.7,41.7,0,0,0-10.08-2.18Zm-5.28-.15,0,.89a41.65,41.65,0,0,0-10.19,1.59l-.25-.86A43,43,0,0,1,126.11,24.73Zm-15.4,3.38.35.82a42.16,42.16,0,0,0-8.93,5.18l-.53-.71A43,43,0,0,1,110.71,28.11ZM97.59,36.84l.62.65a42.55,42.55,0,0,0-6.47,8L91,45.07A44,44,0,0,1,97.59,36.84ZM88.48,49.72l.82.38A41.84,41.84,0,0,0,86.18,60l-.88-.17A43.3,43.3,0,0,1,88.48,49.72ZM85.32,75.55a42.93,42.93,0,0,1-.73-7.93c0-.87,0-1.74.07-2.6l.89.06c0,.84-.07,1.69-.07,2.54a41.88,41.88,0,0,0,.72,7.76ZM91,90.25a43.14,43.14,0,0,1-4.43-9.58l.86-.27a41.47,41.47,0,0,0,4.33,9.37Zm10.63,11.64a43.58,43.58,0,0,1-7.58-7.35l.7-.56a42.8,42.8,0,0,0,7.42,7.19Zm14.12,7a42.35,42.35,0,0,1-9.71-4.11l.44-.78a41,41,0,0,0,9.51,4Zm3.11-11.69c-3.2,0-7,.23-11.46.66v-1a8.41,8.41,0,0,0,5.4-4.64q1.64-3.44,1.64-11.24v-27q0-7.43-2-10.37a8.4,8.4,0,0,0-5.07-3.6v-1q5.83.5,11.46.66V97.22Zm8.61,13.3a42.24,42.24,0,0,1-6.56-.49l.14-.88a42.43,42.43,0,0,0,10.32.3l.08.9C130.17,110.47,128.83,110.52,127.5,110.52Zm9.2-1-.19-.87a41.86,41.86,0,0,0,9.73-3.43l.4.8A42.72,42.72,0,0,1,136.7,109.54Zm3.74-39.22H127.51V83q0,12.34,7.53,13.92v1c-5.17-.44-8.43-.65-9.77-.65h-2.18V39.71h13.54q5.88,0,15.54-.66c0,1,0,2.19,0,3.71,0,.88,0,2.51.16,4.91.11,2.66.16,4,.16,4.15v1.42H151.3q-1.53-9.83-9.27-9.82H131.44a9.68,9.68,0,0,0-3.22.49,73.12,73.12,0,0,0-.71,11.51v11.3h9.55q6.16,0,9-1.53a7.26,7.26,0,0,0,3.6-5.29h1.2q-.37,5.9-.38,8.13c0,.91.06,2.46.16,4.64s.22,3.56.22,4.47V79h-1.2Q149.39,70.31,140.44,70.32Zm10.77,33.07-.49-.75a42.21,42.21,0,0,0,7.83-6.72l.67.6A43,43,0,0,1,151.21,103.39Zm11.31-11-.73-.51a42.08,42.08,0,0,0,4.9-9.1l.84.32A43,43,0,0,1,162.52,92.41Zm6.6-14.33-.86-.21a42.56,42.56,0,0,0,1.26-10.25v-.1h.89v.1A42.69,42.69,0,0,1,169.12,78.08Z" transform="translate(0 -0.29)"/><path class="cls-1" d="M38,135.51H34.79v2.21h2.92v1.64H34.79v3.5h-2v-9H38Z" transform="translate(0 -0.29)"/><path class="cls-1" d="M48.4,143a4.18,4.18,0,0,1-3.15-1.26A4.53,4.53,0,0,1,44,138.48,4.84,4.84,0,0,1,45.27,135a4.31,4.31,0,0,1,3.28-1.31A4.08,4.08,0,0,1,51.66,135a4.62,4.62,0,0,1,1.19,3.33,4.78,4.78,0,0,1-1.23,3.42A4.23,4.23,0,0,1,48.4,143Zm.09-7.57a2.06,2.06,0,0,0-1.7.8,3.4,3.4,0,0,0-.62,2.12,3.34,3.34,0,0,0,.62,2.12,2.16,2.16,0,0,0,3.31,0,3.23,3.23,0,0,0,.62-2.1,3.51,3.51,0,0,0-.6-2.18A1.94,1.94,0,0,0,48.49,135.45Z" transform="translate(0 -0.29)"/><path class="cls-1" d="M59.08,142.52v-2a3.83,3.83,0,0,0,1.19.68,3.58,3.58,0,0,0,1.29.23,2.7,2.7,0,0,0,.67-.07,1.5,1.5,0,0,0,.48-.19.86.86,0,0,0,.28-.29.79.79,0,0,0-.06-.83,1.52,1.52,0,0,0-.41-.38,3.92,3.92,0,0,0-.62-.34c-.23-.11-.49-.22-.77-.33a3.92,3.92,0,0,1-1.57-1.08,2.31,2.31,0,0,1-.52-1.53,2.43,2.43,0,0,1,.28-1.21,2.54,2.54,0,0,1,.77-.83,3.39,3.39,0,0,1,1.13-.48,6,6,0,0,1,1.36-.15,7.75,7.75,0,0,1,1.24.08,4.71,4.71,0,0,1,1,.26v1.88a2.6,2.6,0,0,0-.49-.28,5.14,5.14,0,0,0-.55-.2,3.69,3.69,0,0,0-.56-.11,3.32,3.32,0,0,0-.53,0,2.48,2.48,0,0,0-.63.07,1.5,1.5,0,0,0-.48.18,1,1,0,0,0-.3.29.66.66,0,0,0-.1.37.81.81,0,0,0,.11.41,1.82,1.82,0,0,0,.34.34,4.31,4.31,0,0,0,.54.31c.21.1.44.21.71.32a8,8,0,0,1,1,.48,3.92,3.92,0,0,1,.74.57,2.34,2.34,0,0,1,.47.73,2.61,2.61,0,0,1,.16,1,2.49,2.49,0,0,1-.29,1.27,2.35,2.35,0,0,1-.77.83,3.4,3.4,0,0,1-1.14.45,6.7,6.7,0,0,1-1.37.14,7,7,0,0,1-1.41-.13A4.39,4.39,0,0,1,59.08,142.52Z" transform="translate(0 -0.29)"/><path class="cls-1" d="M78.17,135.51H75.6v7.35h-2v-7.35H71v-1.65h7.16Z" transform="translate(0 -0.29)"/><path class="cls-1" d="M89.93,142.86h-5.4v-9h5.19v1.65H86.55v2h3v1.65h-3v2.06h3.38Z" transform="translate(0 -0.29)"/><path class="cls-1" d="M104.07,142.86h-2.33l-1.4-2.32c-.1-.17-.2-.33-.3-.47a3.6,3.6,0,0,0-.29-.35,1.31,1.31,0,0,0-.31-.23.82.82,0,0,0-.35-.08h-.55v3.45h-2v-9h3.21c2.19,0,3.28.81,3.28,2.45a2.74,2.74,0,0,1-.14.87,2.56,2.56,0,0,1-1.05,1.27,3.65,3.65,0,0,1-.83.36v0a1.45,1.45,0,0,1,.39.2,3.6,3.6,0,0,1,.36.33,4.62,4.62,0,0,1,.34.41l.29.42Zm-5.53-7.48v2.5h.88a1.45,1.45,0,0,0,1-.37,1.27,1.27,0,0,0,.4-.95c0-.79-.47-1.18-1.41-1.18Z" transform="translate(0 -0.29)"/><path class="cls-1" d="M112.84,133.86v1.57h-.76v5.86h.76v1.57H109.3v-1.57h.76v-5.86h-.76v-1.57Z" transform="translate(0 -0.29)"/><path class="cls-1" d="M127.38,142.86h-2l-3.71-5.66a7.71,7.71,0,0,1-.45-.74h0c0,.31,0,.8,0,1.45v5h-1.91v-9h2.18l3.57,5.48c.17.25.32.49.46.73h0a10.29,10.29,0,0,1-.05-1.23v-5h1.92Z" transform="translate(0 -0.29)"/><path class="cls-1" d="M142,142.26a6.45,6.45,0,0,1-3.28.76,4.72,4.72,0,0,1-3.42-1.2A4.39,4.39,0,0,1,134,138.5a4.66,4.66,0,0,1,1.37-3.46,5,5,0,0,1,3.65-1.33,7.49,7.49,0,0,1,2.52.39V136a5,5,0,0,0-2.55-.6,2.77,2.77,0,0,0-2.06.82,3,3,0,0,0-.79,2.19,3.06,3.06,0,0,0,.71,2.15,2.55,2.55,0,0,0,1.93.76,2.62,2.62,0,0,0,1.15-.21v-1.76h-1.8v-1.62H142Z" transform="translate(0 -0.29)"/><path class="cls-1" d="M153.59,134.81h-3.52v3.12h3.26v.94h-3.26v4h-1v-9h4.57Z" transform="translate(0 -0.29)"/><path class="cls-1" d="M162.38,133.86v.9h-.88V142h.88v.9h-2.82V142h.88v-7.2h-.88v-.9Z" transform="translate(0 -0.29)"/><path class="cls-1" d="M174.33,134.81h-2.6v8.05h-1v-8.05h-2.6v-.95h6.25Z" transform="translate(0 -0.29)"/><path class="cls-1" d="M188.15,142.86h-1.29l-4.64-7.18a3,3,0,0,1-.29-.56h0a9.9,9.9,0,0,1,0,1.24v6.5h-1.06v-9h1.37l4.51,7.06a6.86,6.86,0,0,1,.36.6h0a9.37,9.37,0,0,1-.07-1.32v-6.34h1.06Z" transform="translate(0 -0.29)"/><path class="cls-1" d="M200.43,142.86h-4.77v-9h4.57v.95h-3.52v3H200v.95h-3.25v3.15h3.72Z" transform="translate(0 -0.29)"/><path class="cls-1" d="M206.88,142.5v-1.25a2.46,2.46,0,0,0,.52.34,4.26,4.26,0,0,0,.62.26,5,5,0,0,0,.67.16,3.34,3.34,0,0,0,.61.05,2.43,2.43,0,0,0,1.46-.36,1.21,1.21,0,0,0,.48-1,1.28,1.28,0,0,0-.16-.63,1.87,1.87,0,0,0-.45-.49,4.09,4.09,0,0,0-.67-.43c-.25-.14-.53-.28-.83-.43l-.88-.48a5.08,5.08,0,0,1-.71-.54,2.39,2.39,0,0,1-.47-.67,2.16,2.16,0,0,1-.17-.88,2,2,0,0,1,.27-1.07,2.31,2.31,0,0,1,.71-.75,3.14,3.14,0,0,1,1-.44,4.4,4.4,0,0,1,1.14-.14A4.27,4.27,0,0,1,212,134v1.18a3.56,3.56,0,0,0-2-.55,4,4,0,0,0-.69.07,2,2,0,0,0-.62.24,1.47,1.47,0,0,0-.44.42,1.14,1.14,0,0,0-.17.63,1.32,1.32,0,0,0,.13.59,1.48,1.48,0,0,0,.38.46,3.79,3.79,0,0,0,.61.4c.24.13.52.28.84.43s.62.33.91.5a4.15,4.15,0,0,1,.76.59,2.55,2.55,0,0,1,.52.71,1.94,1.94,0,0,1,.19.89,2.33,2.33,0,0,1-.26,1.13,2.28,2.28,0,0,1-.7.75,3.08,3.08,0,0,1-1,.41,5.37,5.37,0,0,1-1.22.13l-.53,0-.64-.1a5.61,5.61,0,0,1-.62-.17A1.88,1.88,0,0,1,206.88,142.5Z" transform="translate(0 -0.29)"/><path class="cls-1" d="M218.86,142.5v-1.25a2.16,2.16,0,0,0,.51.34,4.39,4.39,0,0,0,.63.26,5.28,5.28,0,0,0,.66.16,3.44,3.44,0,0,0,.62.05,2.4,2.4,0,0,0,1.45-.36,1.21,1.21,0,0,0,.48-1,1.18,1.18,0,0,0-.16-.63,1.67,1.67,0,0,0-.44-.49,4.57,4.57,0,0,0-.67-.43l-.83-.43c-.32-.16-.61-.32-.88-.48a4.55,4.55,0,0,1-.71-.54,2.2,2.2,0,0,1-.47-.67,2,2,0,0,1-.18-.88,2,2,0,0,1,.27-1.07,2.42,2.42,0,0,1,.71-.75,3.34,3.34,0,0,1,1-.44,4.47,4.47,0,0,1,1.15-.14,4.3,4.3,0,0,1,1.94.32v1.18a3.57,3.57,0,0,0-2.05-.55,4,4,0,0,0-.69.07,1.94,1.94,0,0,0-.61.24,1.36,1.36,0,0,0-.44.42,1.14,1.14,0,0,0-.17.63,1.2,1.2,0,0,0,.13.59,1.36,1.36,0,0,0,.38.46,3.39,3.39,0,0,0,.61.4c.24.13.52.28.83.43s.63.33.92.5a4.15,4.15,0,0,1,.76.59,2.55,2.55,0,0,1,.52.71,2.08,2.08,0,0,1,.19.89,2.09,2.09,0,0,1-1,1.88,2.91,2.91,0,0,1-1,.41,5.28,5.28,0,0,1-1.21.13l-.53,0-.64-.1a5.06,5.06,0,0,1-.62-.17A1.73,1.73,0,0,1,218.86,142.5Z" transform="translate(0 -0.29)"/><path class="cls-3" d="M429.18,65.11V67h-.57V62.06H430a1.73,1.73,0,0,1,1.21.39,1.35,1.35,0,0,1,.44,1.08,1.5,1.5,0,0,1-.48,1.14,1.88,1.88,0,0,1-1.3.44Zm0-2.53v2h.61a1.34,1.34,0,0,0,.9-.27,1,1,0,0,0,.32-.77c0-.64-.39-1-1.15-1Z" transform="translate(0 -0.29)"/><path class="cls-3" d="M435.27,65.36H432.8a1.26,1.26,0,0,0,.31.9,1.1,1.1,0,0,0,.83.32,1.71,1.71,0,0,0,1.08-.39v.52a2,2,0,0,1-1.22.34,1.47,1.47,0,0,1-1.16-.48,2,2,0,0,1-.43-1.34,1.89,1.89,0,0,1,.47-1.33,1.47,1.47,0,0,1,1.15-.52,1.3,1.3,0,0,1,1.06.45,1.85,1.85,0,0,1,.38,1.23Zm-.58-.48a1.19,1.19,0,0,0-.23-.76.81.81,0,0,0-.64-.27.92.92,0,0,0-.68.29,1.38,1.38,0,0,0-.34.74Z" transform="translate(0 -0.29)"/><path class="cls-3" d="M437.94,64a.72.72,0,0,0-.42-.11.71.71,0,0,0-.6.34,1.48,1.48,0,0,0-.25.92V67h-.56v-3.5h.56v.72h0a1.25,1.25,0,0,1,.36-.58.84.84,0,0,1,.55-.21,1,1,0,0,1,.34.05Z" transform="translate(0 -0.29)"/><path class="cls-3" d="M438.34,66.84v-.6a1.68,1.68,0,0,0,1,.34c.5,0,.74-.17.74-.5a.41.41,0,0,0-.06-.23.58.58,0,0,0-.17-.18,1.46,1.46,0,0,0-.25-.13l-.32-.13-.41-.18a2.43,2.43,0,0,1-.29-.21.8.8,0,0,1-.18-.27,1,1,0,0,1-.06-.36.8.8,0,0,1,.12-.43.91.91,0,0,1,.3-.32,1.3,1.3,0,0,1,.43-.19,1.61,1.61,0,0,1,.49-.07,2.1,2.1,0,0,1,.82.16v.57a1.6,1.6,0,0,0-.89-.26,1.27,1.27,0,0,0-.29,0,.68.68,0,0,0-.21.1.52.52,0,0,0-.14.16.33.33,0,0,0-.05.2.43.43,0,0,0,.05.23.52.52,0,0,0,.14.16,1.26,1.26,0,0,0,.23.13l.32.13.41.18a1.27,1.27,0,0,1,.32.21.8.8,0,0,1,.27.64.84.84,0,0,1-.12.45,1,1,0,0,1-.3.32,1.85,1.85,0,0,1-.45.19,2.12,2.12,0,0,1-.52.06A1.94,1.94,0,0,1,438.34,66.84Z" transform="translate(0 -0.29)"/><path class="cls-3" d="M443,67.05a1.65,1.65,0,0,1-1.24-.49,1.81,1.81,0,0,1-.46-1.3,1.9,1.9,0,0,1,.48-1.38,1.74,1.74,0,0,1,1.3-.5,1.58,1.58,0,0,1,1.23.49,1.9,1.9,0,0,1,.43,1.33,1.84,1.84,0,0,1-.47,1.34A1.64,1.64,0,0,1,443,67.05Zm0-3.2a1.07,1.07,0,0,0-.85.37,1.54,1.54,0,0,0-.32,1,1.44,1.44,0,0,0,.32,1,1.08,1.08,0,0,0,.85.36,1,1,0,0,0,.84-.36,1.53,1.53,0,0,0,.29-1,1.58,1.58,0,0,0-.29-1A1,1,0,0,0,443,63.85Z" transform="translate(0 -0.29)"/><path class="cls-3" d="M448.53,67H448V65c0-.74-.27-1.12-.81-1.12a.87.87,0,0,0-.69.32,1.15,1.15,0,0,0-.28.8v2h-.56v-3.5h.56v.58h0a1.26,1.26,0,0,1,1.15-.67,1.08,1.08,0,0,1,.88.37,1.69,1.69,0,0,1,.31,1.08Z" transform="translate(0 -0.29)"/><path class="cls-3" d="M452.09,67h-.56v-.55h0a1.16,1.16,0,0,1-1.07.63,1.12,1.12,0,0,1-.82-.28.94.94,0,0,1-.3-.73c0-.66.39-1,1.16-1.15l1-.14c0-.6-.24-.9-.73-.9a1.72,1.72,0,0,0-1.14.44v-.58a2.17,2.17,0,0,1,1.19-.33c.82,0,1.24.44,1.24,1.31Zm-.56-1.78-.85.12a1.51,1.51,0,0,0-.59.19.57.57,0,0,0-.19.49.52.52,0,0,0,.18.42.69.69,0,0,0,.49.17.88.88,0,0,0,.68-.3,1,1,0,0,0,.28-.74Z" transform="translate(0 -0.29)"/><path class="cls-3" d="M453.7,67h-.56V61.78h.56Z" transform="translate(0 -0.29)"/><path class="cls-3" d="M459.73,62.58h-1.42V67h-.57V62.58h-1.41v-.52h3.4Z" transform="translate(0 -0.29)"/><path class="cls-3" d="M462.25,64a.74.74,0,0,0-.43-.11.71.71,0,0,0-.6.34,1.55,1.55,0,0,0-.24.92V67h-.56v-3.5H461v.72h0a1.25,1.25,0,0,1,.36-.58.84.84,0,0,1,.55-.21,1,1,0,0,1,.34.05Z" transform="translate(0 -0.29)"/><path class="cls-3" d="M465.36,67h-.56v-.55h0a1.19,1.19,0,0,1-1.08.63,1.13,1.13,0,0,1-.82-.28,1,1,0,0,1-.29-.73c0-.66.38-1,1.15-1.15l1.05-.14q0-.9-.72-.9a1.72,1.72,0,0,0-1.14.44v-.58a2.15,2.15,0,0,1,1.19-.33c.82,0,1.23.44,1.23,1.31Zm-.56-1.78-.84.12a1.46,1.46,0,0,0-.59.19.58.58,0,0,0-.2.49.52.52,0,0,0,.18.42.73.73,0,0,0,.49.17.89.89,0,0,0,.69-.3,1,1,0,0,0,.27-.74Z" transform="translate(0 -0.29)"/><path class="cls-3" d="M466.71,62.58a.35.35,0,0,1-.26-.11.33.33,0,0,1-.11-.26.36.36,0,0,1,.11-.26.34.34,0,0,1,.26-.1.37.37,0,0,1,.26.1.39.39,0,0,1,0,.52A.38.38,0,0,1,466.71,62.58ZM467,67h-.56v-3.5H467Z" transform="translate(0 -0.29)"/><path class="cls-3" d="M471,67h-.56V65c0-.74-.27-1.12-.82-1.12a.87.87,0,0,0-.69.32,1.2,1.2,0,0,0-.28.8v2h-.56v-3.5h.56v.58h0a1.24,1.24,0,0,1,1.15-.67,1.07,1.07,0,0,1,.87.37,1.64,1.64,0,0,1,.31,1.08Z" transform="translate(0 -0.29)"/><path class="cls-3" d="M474.89,65.36h-2.47a1.3,1.3,0,0,0,.31.9,1.1,1.1,0,0,0,.83.32,1.73,1.73,0,0,0,1.09-.39v.52a2,2,0,0,1-1.22.34,1.47,1.47,0,0,1-1.17-.48,2,2,0,0,1-.42-1.34,1.89,1.89,0,0,1,.46-1.33,1.47,1.47,0,0,1,1.15-.52,1.3,1.3,0,0,1,1.06.45,1.85,1.85,0,0,1,.38,1.23Zm-.58-.48a1.19,1.19,0,0,0-.23-.76.8.8,0,0,0-.64-.27.88.88,0,0,0-.67.29,1.32,1.32,0,0,0-.35.74Z" transform="translate(0 -0.29)"/><path class="cls-3" d="M477.56,64a.72.72,0,0,0-.42-.11.71.71,0,0,0-.6.34,1.55,1.55,0,0,0-.24.92V67h-.56v-3.5h.56v.72h0a1.19,1.19,0,0,1,.37-.58.81.81,0,0,1,.55-.21,1,1,0,0,1,.33.05Z" transform="translate(0 -0.29)"/><path class="cls-1" d="M435.49,122.5a5.08,5.08,0,0,1-.11,1.09,2.53,2.53,0,0,1-.33.8,1.4,1.4,0,0,1-.51.49,1.37,1.37,0,0,1-.7.17,1.28,1.28,0,0,1-.65-.16,1.38,1.38,0,0,1-.49-.47,2.58,2.58,0,0,1-.3-.77,4.61,4.61,0,0,1-.11-1,5.48,5.48,0,0,1,.11-1.13,2.61,2.61,0,0,1,.32-.83A1.38,1.38,0,0,1,434,120C435,120,435.49,120.82,435.49,122.5Zm-.58,0c0-1.39-.33-2.09-1-2.09s-1.05.71-1.05,2.13.34,2,1,2S434.91,123.9,434.91,122.55Z" transform="translate(0 -0.29)"/><path class="cls-1" d="M438.68,120.06v3.24h.63v.51h-.63V125h-.55v-1.16h-2.31v-.48c.22-.24.43-.5.65-.77s.43-.56.63-.84.38-.57.55-.85a6.43,6.43,0,0,0,.43-.81Zm-2.23,3.24h1.68v-2.4c-.17.3-.34.57-.49.8s-.3.45-.43.64-.27.37-.4.52Z" transform="translate(0 -0.29)"/><path class="cls-1" d="M443,122.5a4.52,4.52,0,0,1-.11,1.09,2.53,2.53,0,0,1-.32.8,1.49,1.49,0,0,1-.51.49,1.37,1.37,0,0,1-.7.17,1.29,1.29,0,0,1-.66-.16,1.43,1.43,0,0,1-.48-.47,2.34,2.34,0,0,1-.31-.77,5.32,5.32,0,0,1-.1-1,5.48,5.48,0,0,1,.11-1.13,2.61,2.61,0,0,1,.32-.83,1.43,1.43,0,0,1,.51-.5,1.52,1.52,0,0,1,.71-.17C442.52,120,443,120.82,443,122.5Zm-.57,0c0-1.39-.33-2.09-1-2.09s-1.05.71-1.05,2.13.34,2,1,2S442.46,123.9,442.46,122.55Z" transform="translate(0 -0.29)"/><path class="cls-1" d="M446.81,122.5a5.08,5.08,0,0,1-.11,1.09,2.79,2.79,0,0,1-.32.8,1.51,1.51,0,0,1-.52.49,1.35,1.35,0,0,1-.7.17,1.28,1.28,0,0,1-.65-.16,1.38,1.38,0,0,1-.49-.47,2.58,2.58,0,0,1-.3-.77,4.65,4.65,0,0,1-.1-1,5.52,5.52,0,0,1,.1-1.13,2.61,2.61,0,0,1,.32-.83,1.38,1.38,0,0,1,1.23-.67C446.29,120,446.81,120.82,446.81,122.5Zm-.58,0c0-1.39-.33-2.09-1-2.09s-1.05.71-1.05,2.13.34,2,1,2S446.23,123.9,446.23,122.55Z" transform="translate(0 -0.29)"/><path class="cls-1" d="M452.5,122.5a5.08,5.08,0,0,1-.11,1.09,2.79,2.79,0,0,1-.32.8,1.51,1.51,0,0,1-.52.49,1.35,1.35,0,0,1-.7.17,1.28,1.28,0,0,1-.65-.16,1.38,1.38,0,0,1-.49-.47,2.58,2.58,0,0,1-.3-.77,4.65,4.65,0,0,1-.1-1,5.52,5.52,0,0,1,.1-1.13,2.88,2.88,0,0,1,.32-.83A1.38,1.38,0,0,1,451,120C452,120,452.5,120.82,452.5,122.5Zm-.58,0c0-1.39-.33-2.09-1-2.09s-1.05.71-1.05,2.13.34,2,1,2S451.92,123.9,451.92,122.55Z" transform="translate(0 -0.29)"/><path class="cls-1" d="M456.27,122.5a4.52,4.52,0,0,1-.11,1.09,2.53,2.53,0,0,1-.32.8,1.43,1.43,0,0,1-.52.49,1.31,1.31,0,0,1-.69.17,1.29,1.29,0,0,1-.66-.16,1.56,1.56,0,0,1-.49-.47,2.58,2.58,0,0,1-.3-.77,4.65,4.65,0,0,1-.1-1,5.48,5.48,0,0,1,.11-1.13,2.88,2.88,0,0,1,.31-.83,1.55,1.55,0,0,1,.52-.5,1.49,1.49,0,0,1,.71-.17C455.76,120,456.27,120.82,456.27,122.5Zm-.57,0c0-1.39-.33-2.09-1-2.09s-1.05.71-1.05,2.13.35,2,1,2S455.7,123.9,455.7,122.55Z" transform="translate(0 -0.29)"/><path class="cls-1" d="M460,122.22a4.85,4.85,0,0,1-.13,1.2,2.69,2.69,0,0,1-.39.89,1.66,1.66,0,0,1-.63.55,1.74,1.74,0,0,1-.84.19,2,2,0,0,1-.85-.17v-.54a1.67,1.67,0,0,0,.87.23,1.16,1.16,0,0,0,1-.53,2.16,2.16,0,0,0,.28-.65,3.75,3.75,0,0,0,.09-.87h0a1.11,1.11,0,0,1-1.09.63,1.54,1.54,0,0,1-.58-.11,1.36,1.36,0,0,1-.46-.32,1.43,1.43,0,0,1-.29-.48,1.84,1.84,0,0,1,0-1.28,1.54,1.54,0,0,1,.33-.52,1.35,1.35,0,0,1,.5-.34,1.61,1.61,0,0,1,.63-.12,1.38,1.38,0,0,1,.65.15,1.34,1.34,0,0,1,.48.44,2.14,2.14,0,0,1,.3.7A3.9,3.9,0,0,1,460,122.22Zm-.6-.5a1.72,1.72,0,0,0-.08-.52,1.2,1.2,0,0,0-.2-.39.85.85,0,0,0-.31-.26.86.86,0,0,0-.39-.09.81.81,0,0,0-.38.08,1.05,1.05,0,0,0-.3.22,1.1,1.1,0,0,0-.2.35,1.21,1.21,0,0,0-.07.43,1.37,1.37,0,0,0,.07.47.87.87,0,0,0,.2.35.85.85,0,0,0,.31.21,1,1,0,0,0,.4.08,1.11,1.11,0,0,0,.37-.07.93.93,0,0,0,.3-.2.88.88,0,0,0,.2-.3A.86.86,0,0,0,459.39,121.72Z" transform="translate(0 -0.29)"/><path class="cls-1" d="M464.89,121.35a.94.94,0,0,0-.07-.39.82.82,0,0,0-.19-.28.77.77,0,0,0-.29-.17,1.29,1.29,0,0,0-.35-.05,1.12,1.12,0,0,0-.32,0,1.2,1.2,0,0,0-.31.13,2.29,2.29,0,0,0-.29.18,2,2,0,0,0-.25.25v-.61a1.83,1.83,0,0,1,.52-.35,1.94,1.94,0,0,1,.72-.12,1.63,1.63,0,0,1,.55.09,1.41,1.41,0,0,1,.45.25,1.26,1.26,0,0,1,.29.42,1.4,1.4,0,0,1,.11.56,1.74,1.74,0,0,1-.07.53,1.46,1.46,0,0,1-.2.44,1.81,1.81,0,0,1-.34.4,4,4,0,0,1-.48.39l-.57.42a2.29,2.29,0,0,0-.35.33,1,1,0,0,0-.19.3,1.29,1.29,0,0,0-.05.35h2.44V125h-3v-.25a2.23,2.23,0,0,1,.07-.55,1.37,1.37,0,0,1,.23-.45,2.36,2.36,0,0,1,.41-.44l.62-.48a3.71,3.71,0,0,0,.45-.37,1.75,1.75,0,0,0,.29-.34,1.38,1.38,0,0,0,.15-.36A1.58,1.58,0,0,0,464.89,121.35Z" transform="translate(0 -0.29)"/><path class="cls-1" d="M469.52,123.41a1.76,1.76,0,0,1-.12.66,1.62,1.62,0,0,1-.32.52,1.39,1.39,0,0,1-.49.34,1.54,1.54,0,0,1-.61.12,1.33,1.33,0,0,1-1.16-.59,2.09,2.09,0,0,1-.31-.71,3.85,3.85,0,0,1-.11-.94,4.18,4.18,0,0,1,.15-1.16,2.51,2.51,0,0,1,.4-.89,1.71,1.71,0,0,1,.63-.57,1.64,1.64,0,0,1,.82-.21,2.09,2.09,0,0,1,.82.14v.53a1.74,1.74,0,0,0-.8-.19,1.25,1.25,0,0,0-.59.14,1.41,1.41,0,0,0-.46.42,2,2,0,0,0-.28.65,3.12,3.12,0,0,0-.1.84h0a1.17,1.17,0,0,1,1.12-.61,1.58,1.58,0,0,1,.58.11,1.35,1.35,0,0,1,.44.31,1.41,1.41,0,0,1,.28.48A2,2,0,0,1,469.52,123.41Zm-.58.07a1.65,1.65,0,0,0-.06-.46,1.17,1.17,0,0,0-.19-.35.84.84,0,0,0-.3-.22,1,1,0,0,0-.4-.07,1,1,0,0,0-.39.07,1.11,1.11,0,0,0-.3.22,1,1,0,0,0-.21.31,1,1,0,0,0-.07.38,1.51,1.51,0,0,0,.07.48,1.52,1.52,0,0,0,.2.38,1,1,0,0,0,.31.26.87.87,0,0,0,.4.09.85.85,0,0,0,.39-.08.89.89,0,0,0,.29-.22,1.05,1.05,0,0,0,.2-.34A1.63,1.63,0,0,0,468.94,123.48Z" transform="translate(0 -0.29)"/><path class="cls-1" d="M470.11,123.6a1.32,1.32,0,0,1,.06-.39,1.56,1.56,0,0,1,.17-.37,1.41,1.41,0,0,1,.29-.31,1.3,1.3,0,0,1,.38-.22,1.51,1.51,0,0,1-.51-.46,1.1,1.1,0,0,1-.18-.62,1.21,1.21,0,0,1,.1-.5,1.24,1.24,0,0,1,.29-.39,1.28,1.28,0,0,1,.44-.26,1.4,1.4,0,0,1,.54-.1,1.69,1.69,0,0,1,.56.1,1.34,1.34,0,0,1,.43.26,1.14,1.14,0,0,1,.29.4,1.16,1.16,0,0,1,.1.49,1,1,0,0,1-.19.62,1.44,1.44,0,0,1-.49.46,1.25,1.25,0,0,1,.37.22,1.41,1.41,0,0,1,.29.31,1.56,1.56,0,0,1,.17.37,1.32,1.32,0,0,1,.06.39,1.44,1.44,0,0,1-.11.59,1.35,1.35,0,0,1-.33.45,1.48,1.48,0,0,1-.5.3,1.93,1.93,0,0,1-.65.1,1.81,1.81,0,0,1-.63-.1,1.44,1.44,0,0,1-.51-.3,1.35,1.35,0,0,1-.33-.45A1.44,1.44,0,0,1,470.11,123.6Zm.6,0a1.3,1.3,0,0,0,.07.41,1,1,0,0,0,.2.32.92.92,0,0,0,.31.2,1.1,1.1,0,0,0,.41.07,1.23,1.23,0,0,0,.39-.07,1,1,0,0,0,.32-.2,1,1,0,0,0,.2-.32,1.07,1.07,0,0,0,.08-.41,1,1,0,0,0-.27-.7.89.89,0,0,0-.32-.21.87.87,0,0,0-.4-.08,1,1,0,0,0-.39.07,1,1,0,0,0-.52.52A1.06,1.06,0,0,0,470.71,123.55Zm.18-2.27a.87.87,0,0,0,.06.32.68.68,0,0,0,.18.26.88.88,0,0,0,.25.18.87.87,0,0,0,.32.06A.64.64,0,0,0,472,122a.78.78,0,0,0,.26-.17.93.93,0,0,0,.18-.26.87.87,0,0,0,.06-.32.88.88,0,0,0-.06-.33.78.78,0,0,0-.17-.26.9.9,0,0,0-.26-.17.79.79,0,0,0-.65,0,.68.68,0,0,0-.26.18.76.76,0,0,0-.16.26A.83.83,0,0,0,470.89,121.28Z" transform="translate(0 -0.29)"/><path class="cls-1" d="M408.29,132.86h0V135h-.56v-5.11h.56v.61h0a1.34,1.34,0,0,1,1.21-.7,1.3,1.3,0,0,1,1.06.47,2,2,0,0,1,.38,1.26,2.14,2.14,0,0,1-.43,1.41,1.42,1.42,0,0,1-1.17.53A1.19,1.19,0,0,1,408.29,132.86Zm0-1.41v.49a1,1,0,0,0,.28.73.92.92,0,0,0,.72.31,1,1,0,0,0,.8-.39,1.81,1.81,0,0,0,.28-1.09,1.39,1.39,0,0,0-.27-.91.89.89,0,0,0-.73-.33,1,1,0,0,0-.78.34A1.23,1.23,0,0,0,408.28,131.45Z" transform="translate(0 -0.29)"/><path class="cls-1" d="M414.34,133.37h-.56v-.55h0a1.16,1.16,0,0,1-1.07.63,1.13,1.13,0,0,1-.82-.28.94.94,0,0,1-.3-.73c0-.66.39-1,1.16-1.14l1-.15c0-.6-.24-.89-.72-.89a1.71,1.71,0,0,0-1.14.43v-.58a2.15,2.15,0,0,1,1.19-.33c.82,0,1.23.44,1.23,1.31Zm-.56-1.77-.85.11a1.27,1.27,0,0,0-.58.2.53.53,0,0,0-.2.49.51.51,0,0,0,.18.41.71.71,0,0,0,.49.17.91.91,0,0,0,.69-.29,1.08,1.08,0,0,0,.27-.75Z" transform="translate(0 -0.29)"/><path class="cls-1" d="M418.23,133.37h-.56v-.56h0a1.14,1.14,0,0,1-1.08.64c-.83,0-1.25-.5-1.25-1.49v-2.09h.56v2q0,1.11.84,1.11a.84.84,0,0,0,.68-.31,1.13,1.13,0,0,0,.27-.79v-2h.56Z" transform="translate(0 -0.29)"/><path class="cls-1" d="M419.92,133.37h-.56v-5.18h.56Z" transform="translate(0 -0.29)"/><path class="cls-1" d="M424.46,131.93h0a1,1,0,0,1-1,.81.93.93,0,0,1-.76-.34,1.41,1.41,0,0,1-.28-.93,2,2,0,0,1,.39-1.28,1.25,1.25,0,0,1,1-.51.83.83,0,0,1,.44.12.59.59,0,0,1,.25.32h0c0-.06,0-.19,0-.39H425c-.11,1.25-.16,1.89-.16,1.91,0,.48.14.71.41.71a.7.7,0,0,0,.61-.4,2,2,0,0,0,.25-1,2.08,2.08,0,0,0-.6-1.54,2.22,2.22,0,0,0-1.65-.59,2.2,2.2,0,0,0-1.68.71,2.49,2.49,0,0,0-.66,1.77,2.33,2.33,0,0,0,.63,1.7,2.27,2.27,0,0,0,1.7.64,3.35,3.35,0,0,0,1.45-.28v.43a3.78,3.78,0,0,1-1.48.25,2.75,2.75,0,0,1-2-.75,2.67,2.67,0,0,1-.76-2,2.88,2.88,0,0,1,.8-2.08,2.7,2.7,0,0,1,2-.82,2.74,2.74,0,0,1,1.92.69,2.31,2.31,0,0,1,.77,1.8,2.15,2.15,0,0,1-.4,1.33,1.2,1.2,0,0,1-1,.52C424.72,132.74,424.47,132.47,424.46,131.93Zm-.61-1.86a.78.78,0,0,0-.68.41,1.73,1.73,0,0,0-.26,1,1,1,0,0,0,.17.63.57.57,0,0,0,.47.24.76.76,0,0,0,.67-.43,2.14,2.14,0,0,0,.25-1.12C424.47,130.32,424.26,130.07,423.85,130.07Z" transform="translate(0 -0.29)"/><path class="cls-1" d="M429.47,128.68a.79.79,0,0,0-.38-.09c-.39,0-.58.24-.58.74v.54h.82v.48h-.82v3H428v-3h-.6v-.48h.6v-.57a1.18,1.18,0,0,1,.32-.87,1.07,1.07,0,0,1,.79-.32,1.15,1.15,0,0,1,.41.06Z" transform="translate(0 -0.29)"/><path class="cls-1" d="M431.39,133.45a1.63,1.63,0,0,1-1.24-.49,1.81,1.81,0,0,1-.46-1.3,1.9,1.9,0,0,1,.48-1.38,1.74,1.74,0,0,1,1.3-.5,1.56,1.56,0,0,1,1.23.49,1.9,1.9,0,0,1,.44,1.33,1.85,1.85,0,0,1-.48,1.34A1.64,1.64,0,0,1,431.39,133.45Zm0-3.19a1.07,1.07,0,0,0-.85.36,1.54,1.54,0,0,0-.32,1,1.44,1.44,0,0,0,.32,1,1.08,1.08,0,0,0,.85.36,1,1,0,0,0,.84-.36,1.53,1.53,0,0,0,.29-1,1.6,1.6,0,0,0-.29-1A1,1,0,0,0,431.43,130.26Z" transform="translate(0 -0.29)"/><path class="cls-1" d="M433.82,133.24v-.6a1.71,1.71,0,0,0,1,.34c.49,0,.74-.17.74-.5a.42.42,0,0,0-.07-.23.58.58,0,0,0-.17-.18,1.17,1.17,0,0,0-.25-.13l-.31-.13a3.31,3.31,0,0,1-.41-.18,1.14,1.14,0,0,1-.3-.21.87.87,0,0,1-.23-.62.8.8,0,0,1,.11-.44.91.91,0,0,1,.3-.32,1.52,1.52,0,0,1,.43-.19,2,2,0,0,1,1.31.09v.57a1.57,1.57,0,0,0-.89-.25,1.2,1.2,0,0,0-.28,0,.9.9,0,0,0-.22.1.52.52,0,0,0-.14.16.46.46,0,0,0-.05.2.45.45,0,0,0,.19.39,1.36,1.36,0,0,0,.24.13l.31.13.42.18a1.41,1.41,0,0,1,.31.21.86.86,0,0,1,.2.27.87.87,0,0,1,.07.37.94.94,0,0,1-.11.45,1,1,0,0,1-.31.32,1.46,1.46,0,0,1-.44.19,2.24,2.24,0,0,1-.52.06A2,2,0,0,1,433.82,133.24Z" transform="translate(0 -0.29)"/><path class="cls-1" d="M438.63,133.33a1,1,0,0,1-.53.11c-.61,0-.92-.34-.92-1v-2.07h-.6v-.48h.6V129l.56-.18v1h.89v.48h-.89v2a.82.82,0,0,0,.12.5.49.49,0,0,0,.4.15.61.61,0,0,0,.37-.12Z" transform="translate(0 -0.29)"/><path class="cls-1" d="M442.19,131.76h-2.47a1.26,1.26,0,0,0,.31.9,1.1,1.1,0,0,0,.83.32,1.71,1.71,0,0,0,1.08-.39v.52a2,2,0,0,1-1.22.34,1.47,1.47,0,0,1-1.16-.48,2,2,0,0,1-.43-1.34,1.91,1.91,0,0,1,.47-1.33,1.5,1.5,0,0,1,1.15-.52,1.3,1.3,0,0,1,1.06.45,1.85,1.85,0,0,1,.38,1.23Zm-.58-.48a1.14,1.14,0,0,0-.23-.75.81.81,0,0,0-.64-.27.91.91,0,0,0-.68.28,1.38,1.38,0,0,0-.34.74Z" transform="translate(0 -0.29)"/><path class="cls-1" d="M444.86,130.43a.72.72,0,0,0-.42-.11.71.71,0,0,0-.6.34,1.57,1.57,0,0,0-.24.92v1.79H443v-3.5h.56v.72h0A1.19,1.19,0,0,1,444,130a.8.8,0,0,1,.55-.2,1,1,0,0,1,.33,0Z" transform="translate(0 -0.29)"/><path class="cls-1" d="M445.76,129a.4.4,0,0,1-.26-.1.36.36,0,0,1-.11-.26.37.37,0,0,1,.11-.27.39.39,0,0,1,.52,0,.37.37,0,0,1,.11.27.34.34,0,0,1-.11.25A.36.36,0,0,1,445.76,129Zm.27,4.39h-.56v-3.5H446Z" transform="translate(0 -0.29)"/><path class="cls-1" d="M450.07,133.37h-.56v-2q0-1.11-.81-1.11a.88.88,0,0,0-.7.31,1.2,1.2,0,0,0-.28.8v2h-.56v-3.5h.56v.58h0a1.27,1.27,0,0,1,1.15-.67,1.05,1.05,0,0,1,.87.38,1.59,1.59,0,0,1,.31,1.07Z" transform="translate(0 -0.29)"/><path class="cls-1" d="M454.11,133.09c0,1.28-.61,1.92-1.84,1.92a2.55,2.55,0,0,1-1.14-.24v-.56a2.34,2.34,0,0,0,1.13.33q1.29,0,1.29-1.38v-.38h0a1.31,1.31,0,0,1-1.21.67,1.33,1.33,0,0,1-1.05-.47,1.89,1.89,0,0,1-.39-1.25,2.2,2.2,0,0,1,.42-1.42,1.45,1.45,0,0,1,1.18-.53,1.14,1.14,0,0,1,1.05.57h0v-.48h.56Zm-.56-1.31v-.51a1,1,0,0,0-.28-.72.91.91,0,0,0-.7-.29,1,1,0,0,0-.82.37,1.76,1.76,0,0,0-.29,1.06,1.46,1.46,0,0,0,.28.94.93.93,0,0,0,.75.35,1,1,0,0,0,.77-.34A1.28,1.28,0,0,0,453.55,131.78Z" transform="translate(0 -0.29)"/><path class="cls-1" d="M457,128.68a.79.79,0,0,0-.38-.09c-.39,0-.58.24-.58.74v.54h.82v.48H456v3h-.56v-3h-.6v-.48h.6v-.57a1.14,1.14,0,0,1,.32-.87,1.07,1.07,0,0,1,.79-.32,1.15,1.15,0,0,1,.41.06Z" transform="translate(0 -0.29)"/><path class="cls-1" d="M457.72,129a.37.37,0,0,1-.25-.1.36.36,0,0,1-.11-.26.37.37,0,0,1,.11-.27.33.33,0,0,1,.25-.1.38.38,0,0,1,.27.1.36.36,0,0,1,.1.27.33.33,0,0,1-.1.25A.39.39,0,0,1,457.72,129Zm.28,4.39h-.56v-3.5H458Z" transform="translate(0 -0.29)"/><path class="cls-1" d="M460.76,133.33a1,1,0,0,1-.53.11c-.61,0-.92-.34-.92-1v-2.07h-.6v-.48h.6V129l.56-.18v1h.89v.48h-.89v2a.82.82,0,0,0,.12.5.49.49,0,0,0,.4.15.61.61,0,0,0,.37-.12Z" transform="translate(0 -0.29)"/><path class="cls-1" d="M464.41,133.37h-.56v-2q0-1.11-.81-1.11a.88.88,0,0,0-.7.31,1.19,1.19,0,0,0-.27.8v2h-.57v-3.5h.57v.58h0a1.27,1.27,0,0,1,1.15-.67,1.09,1.09,0,0,1,.88.38,1.64,1.64,0,0,1,.3,1.07Z" transform="translate(0 -0.29)"/><path class="cls-1" d="M468.28,131.76h-2.47a1.3,1.3,0,0,0,.31.9,1.1,1.1,0,0,0,.83.32,1.73,1.73,0,0,0,1.09-.39v.52a2,2,0,0,1-1.22.34,1.47,1.47,0,0,1-1.17-.48,2,2,0,0,1-.42-1.34,1.91,1.91,0,0,1,.46-1.33,1.5,1.5,0,0,1,1.15-.52,1.3,1.3,0,0,1,1.06.45,1.85,1.85,0,0,1,.38,1.23Zm-.57-.48a1.14,1.14,0,0,0-.24-.75.8.8,0,0,0-.64-.27.89.89,0,0,0-.67.28,1.25,1.25,0,0,0-.34.74Z" transform="translate(0 -0.29)"/><path class="cls-1" d="M468.92,133.24v-.6a1.68,1.68,0,0,0,1,.34c.5,0,.74-.17.74-.5a.41.41,0,0,0-.06-.23.58.58,0,0,0-.17-.18,1.26,1.26,0,0,0-.26-.13l-.31-.13-.41-.18a1.27,1.27,0,0,1-.29-.21.8.8,0,0,1-.18-.27,1,1,0,0,1-.06-.35.9.9,0,0,1,.11-.44,1.14,1.14,0,0,1,.3-.32,1.52,1.52,0,0,1,.43-.19,2.08,2.08,0,0,1,.5-.07,2.14,2.14,0,0,1,.82.16v.57a1.59,1.59,0,0,0-.89-.25,1.29,1.29,0,0,0-.29,0,1,1,0,0,0-.21.1.52.52,0,0,0-.14.16.35.35,0,0,0-.05.2.41.41,0,0,0,.05.23.52.52,0,0,0,.14.16,1,1,0,0,0,.23.13l.31.13.42.18a1.48,1.48,0,0,1,.32.21.8.8,0,0,1,.27.64.84.84,0,0,1-.12.45,1.14,1.14,0,0,1-.3.32,1.53,1.53,0,0,1-.45.19,2.18,2.18,0,0,1-.52.06A1.94,1.94,0,0,1,468.92,133.24Z" transform="translate(0 -0.29)"/><path class="cls-1" d="M471.89,133.24v-.6a1.68,1.68,0,0,0,1,.34c.5,0,.74-.17.74-.5a.41.41,0,0,0-.06-.23.58.58,0,0,0-.17-.18,1.46,1.46,0,0,0-.25-.13l-.32-.13-.41-.18a1.27,1.27,0,0,1-.29-.21.8.8,0,0,1-.18-.27,1,1,0,0,1-.06-.35.9.9,0,0,1,.11-.44,1,1,0,0,1,.31-.32,1.3,1.3,0,0,1,.43-.19,2,2,0,0,1,.49-.07,2.1,2.1,0,0,1,.82.16v.57a1.59,1.59,0,0,0-.89-.25,1.29,1.29,0,0,0-.29,0,1,1,0,0,0-.21.1.52.52,0,0,0-.14.16.35.35,0,0,0,0,.2.41.41,0,0,0,0,.23.52.52,0,0,0,.14.16,1.26,1.26,0,0,0,.23.13l.32.13.41.18a1.27,1.27,0,0,1,.32.21.8.8,0,0,1,.27.64.84.84,0,0,1-.12.45,1,1,0,0,1-.3.32,1.53,1.53,0,0,1-.45.19,2.18,2.18,0,0,1-.52.06A1.94,1.94,0,0,1,471.89,133.24Z" transform="translate(0 -0.29)"/><path class="cls-1" d="M475.26,133.44a.36.36,0,0,1-.26-.11.37.37,0,0,1-.12-.27.34.34,0,0,1,.12-.27.34.34,0,0,1,.26-.12.38.38,0,0,1,.28.12.37.37,0,0,1,.11.27.4.4,0,0,1-.11.27A.41.41,0,0,1,475.26,133.44Z" transform="translate(0 -0.29)"/><path class="cls-1" d="M479,133.21a1.85,1.85,0,0,1-1,.24,1.55,1.55,0,0,1-1.2-.49,1.73,1.73,0,0,1-.46-1.26,1.94,1.94,0,0,1,.49-1.39,1.74,1.74,0,0,1,1.33-.53,1.79,1.79,0,0,1,.81.18v.57a1.45,1.45,0,0,0-.84-.27,1.12,1.12,0,0,0-.88.38,1.5,1.5,0,0,0-.34,1,1.42,1.42,0,0,0,.32,1,1.12,1.12,0,0,0,.87.36,1.36,1.36,0,0,0,.86-.31Z" transform="translate(0 -0.29)"/><path class="cls-1" d="M481.28,133.45A1.61,1.61,0,0,1,480,133a1.81,1.81,0,0,1-.46-1.3,1.9,1.9,0,0,1,.48-1.38,1.74,1.74,0,0,1,1.3-.5,1.56,1.56,0,0,1,1.23.49,1.9,1.9,0,0,1,.44,1.33,1.85,1.85,0,0,1-.48,1.34A1.64,1.64,0,0,1,481.28,133.45Zm0-3.19a1.07,1.07,0,0,0-.85.36,1.54,1.54,0,0,0-.32,1,1.44,1.44,0,0,0,.32,1,1.08,1.08,0,0,0,.85.36,1,1,0,0,0,.84-.36,1.53,1.53,0,0,0,.29-1,1.6,1.6,0,0,0-.29-1A1,1,0,0,0,481.32,130.26Z" transform="translate(0 -0.29)"/><path class="cls-1" d="M488.89,133.37h-.56v-2a1.5,1.5,0,0,0-.18-.84.66.66,0,0,0-.6-.26.75.75,0,0,0-.61.32,1.24,1.24,0,0,0-.25.79v2h-.56v-2.08c0-.69-.27-1-.8-1a.73.73,0,0,0-.61.31,1.25,1.25,0,0,0-.24.8v2h-.56v-3.5h.56v.55h0a1.19,1.19,0,0,1,1.08-.64,1.05,1.05,0,0,1,.63.2,1,1,0,0,1,.36.53,1.27,1.27,0,0,1,1.17-.73c.77,0,1.15.48,1.15,1.43Z" transform="translate(0 -0.29)"/><path class="cls-1" d="M490.14,133.44a.38.38,0,0,1-.37-.38.39.39,0,0,1,.37-.39.38.38,0,0,1,.28.12.37.37,0,0,1,.11.27.4.4,0,0,1-.11.27A.41.41,0,0,1,490.14,133.44Z" transform="translate(0 -0.29)"/><path class="cls-1" d="M494,133.37h-.56v-.55h0a1.17,1.17,0,0,1-1.08.63,1.13,1.13,0,0,1-.82-.28,1,1,0,0,1-.29-.73c0-.66.38-1,1.15-1.14l1.05-.15c0-.6-.24-.89-.72-.89a1.71,1.71,0,0,0-1.14.43v-.58a2.15,2.15,0,0,1,1.19-.33c.82,0,1.23.44,1.23,1.31Zm-.56-1.77-.84.11a1.31,1.31,0,0,0-.59.2.55.55,0,0,0-.2.49.51.51,0,0,0,.18.41.73.73,0,0,0,.49.17.91.91,0,0,0,.69-.29,1.08,1.08,0,0,0,.27-.75Z" transform="translate(0 -0.29)"/><path class="cls-1" d="M497.86,133.37h-.56v-.56h0a1.16,1.16,0,0,1-1.08.64c-.84,0-1.26-.5-1.26-1.49v-2.09h.56v2c0,.74.28,1.11.85,1.11a.82.82,0,0,0,.67-.31,1.13,1.13,0,0,0,.27-.79v-2h.56Z" transform="translate(0 -0.29)"/><path class="cls-2" d="M318.35,24.1V62.7q-3.23,0-7.69.44v-.66a5.63,5.63,0,0,0,3.62-3.11c.74-1.54,1.1-4,1.1-7.54V33.73q0-5-1.32-6.95a5.64,5.64,0,0,0-3.4-2.42v-.7Q314.57,24,318.35,24.1Zm4.28,38.6h-1.46V24.1h9.08c2.64,0,6.12-.14,10.44-.44,0,.64,0,1.47,0,2.49,0,.59,0,1.69.11,3.3.07,1.78.11,2.71.11,2.78v1h-.77q-1-6.6-6.22-6.6h-7.11a6.62,6.62,0,0,0-2.16.33,49.39,49.39,0,0,0-.48,7.73v7.58h6.41a13.39,13.39,0,0,0,6-1A4.89,4.89,0,0,0,339,37.65h.81c-.17,2.64-.26,4.46-.26,5.46,0,.61,0,1.65.11,3.11s.15,2.4.15,3v1.2H339q-.18-5.77-6.19-5.78h-8.68v8.49q0,8.28,5.06,9.34v.66C325.72,62.85,323.54,62.7,322.63,62.7Z" transform="translate(0 -0.29)"/><line class="cls-4" x1="368" y1="91.5" x2="281" y2="91.5"/><line class="cls-4" x1="368" y1="115.5" x2="281" y2="115.5"/><line class="cls-4" x1="368" y1="138.5" x2="281" y2="138.5"/><line class="cls-5" x1="496" y1="138.5" x2="409" y2="138.5"/><line class="cls-5" x1="474" y1="115.5" x2="431" y2="115.5"/></svg>