<?xml version="1.0" encoding="utf-8"?>
<!-- Generator: Adobe Illustrator 22.0.1, SVG Export Plug-In . SVG Version: 6.00 Build 0)  -->
<svg version="1.1" id="Layer_1" xmlns="http://www.w3.org/2000/svg" xmlns:xlink="http://www.w3.org/1999/xlink" x="0px" y="0px"
	 viewBox="0 0 1500 500" style="enable-background:new 0 0 1500 500;" xml:space="preserve">
<style type="text/css">
	.st0{fill:#288FEB;}
	.st1{fill:#FFFFFF;}
	.st2{fill:#F45E58;}
	.st3{fill:#278BD6;}
	.st4{opacity:0.13;fill:#278BD6;enable-background:new    ;}
	.st5{fill:#E05C5C;}
</style>
<title>logo-defencevpn-2</title>
<g id="Layer_2_1_">
	<rect class="st0" width="1500" height="500"/>
	<g>
		<path class="st1" d="M1040.5,143c0,0,128.2-32.1,210.4-32.1c82.5,0,206,29.5,206,29.5l-15.5,98.3c0,0-142.8-18.2-192-18.1
			c-48.5,0-188.9,18.1-188.9,18.1L1040.5,143z"/>
		<path class="st1" d="M1247.8,37.3l181.2,74.8c0,0-14.7,181.2-45.2,232c-22.5,37.4-136,110.6-136,110.6"/>
		<path class="st1" d="M1247.8,37.3l-181.2,74.8c0,0,14.7,181.2,45.2,232c22.5,37.4,136,110.6,136,110.6"/>
		<path class="st2" d="M1248.2,52.3l163.6,68.3c0,0-13.2,165.4-40.8,211.7c-20.3,34.2-122.8,100.9-122.8,100.9"/>
		<path class="st2" d="M1248.2,52.3l-163.6,68.3c0,0,13.2,165.4,40.8,211.7c20.3,34.2,122.8,100.9,122.8,100.9"/>
		<path d="M1249.8,68.9l146.2,61c0,0-11.8,147.7-36.4,189.1c-18.2,30.5-109.7,90.1-109.7,90.1"/>
		<path d="M1249.8,68.9l-146.2,61c0,0,11.8,147.7,36.4,189.1c18.1,30.5,109.7,90.1,109.7,90.1"/>
		<path class="st0" d="M1249.6,82.5l132.3,55.2c0,0-10.7,133.7-33,171.2c-16.4,27.6-99.3,81.6-99.3,81.6"/>
		<path class="st3" d="M1249.6,82.5l-132.3,55.2c0,0,10.7,133.7,33,171.2c16.4,27.6,99.3,81.6,99.3,81.6"/>
		<path class="st1" d="M1271.8,235.9c0,12.3-10,22.3-22.2,22.3c-12.3,0-22.3-10-22.3-22.2c0-12.3,10-22.3,22.2-22.3c0,0,0,0,0,0
			C1261.9,213.6,1271.8,223.6,1271.8,235.9L1271.8,235.9z"/>
		<polygon class="st1" points="1229.1,318.9 1270.1,318.9 1257.9,256.1 1241.4,256.6 		"/>
		<path class="st4" d="M1249.6,82.5l-132.3,55.2c0,0,10.7,133.7,33,171.2c16.4,27.6,99.3,81.6,99.3,81.6"/>
		<polygon class="st5" points="1422.1,216.9 1399.2,224.2 1400.6,215 		"/>
		<polygon class="st5" points="1075.2,218.8 1095.7,216.4 1097.4,223 		"/>
		<path class="st2" d="M1057.9,154.7c0,0,101-22.6,191.7-22.6c92.4,0,188.9,20.8,188.9,20.8l-10.4,66.3c0,0-134.7-16-179.9-16
			c-44.5,0-177.1,16-177.1,16L1057.9,154.7z"/>
	</g>
	<g>
		<path class="st1" d="M663.7,215.9c0,0,98.5-24.7,161.7-24.7c63.4,0,158.3,22.7,158.3,22.7l-11.9,75.5c0,0-109.7-14-147.5-13.9
			c-37.2,0-145.2,13.9-145.2,13.9L663.7,215.9z"/>
		<path class="st1" d="M823,134.7l139.3,57.5c0,0-11.3,139.3-34.7,178.3c-17.3,28.8-104.5,85-104.5,85"/>
		<path class="st1" d="M823,134.7l-139.3,57.5c0,0,11.3,139.3,34.7,178.3c17.3,28.8,104.5,85,104.5,85"/>
		<path class="st2" d="M823.3,146.2L949,198.6c0,0-10.2,127.1-31.3,162.7c-15.6,26.3-94.4,77.6-94.4,77.6"/>
		<path class="st2" d="M823.3,146.2l-125.7,52.5c0,0,10.2,127.1,31.4,162.7c15.6,26.3,94.4,77.6,94.4,77.6"/>
		<path d="M824.5,159l112.3,46.9c0,0-9.1,113.5-28,145.3c-13.9,23.4-84.3,69.3-84.3,69.3"/>
		<path d="M824.5,159l-112.3,46.9c0,0,9.1,113.5,28,145.3c13.9,23.4,84.3,69.3,84.3,69.3"/>
		<path class="st0" d="M824.4,169.4L926,211.8c0,0-8.2,102.8-25.4,131.5c-12.6,21.2-76.3,62.7-76.3,62.7"/>
		<path class="st3" d="M824.4,169.4l-101.7,42.4c0,0,8.2,102.8,25.4,131.5c12.6,21.2,76.3,62.7,76.3,62.7"/>
		<path class="st1" d="M841.5,287.3c0,9.4-7.6,17.1-17.1,17.1c-9.4,0-17.1-7.6-17.1-17.1c0-9.4,7.6-17.1,17.1-17.1c0,0,0,0,0,0
			C833.8,270.2,841.5,277.8,841.5,287.3L841.5,287.3z"/>
		<polygon class="st1" points="808.6,351.1 840.1,351.1 830.8,302.8 818.1,303.2 		"/>
		<path class="st4" d="M824.4,169.4l-101.7,42.4c0,0,8.2,102.8,25.4,131.5c12.6,21.2,76.3,62.7,76.3,62.7"/>
		<polygon class="st5" points="957,272.7 939.4,278.3 940.5,271.3 		"/>
		<polygon class="st5" points="690.4,274.1 706.1,272.3 707.4,277.4 		"/>
		<path class="st2" d="M677.1,224.9c0,0,77.6-17.3,147.3-17.3c71,0,145.1,16,145.1,16l-8,51c0,0-103.5-12.3-138.2-12.3
			c-34.2,0-136.1,12.3-136.1,12.3L677.1,224.9z"/>
	</g>
	<g>
		<path class="st1" d="M330.7,284.5c0,0,70.8-17.7,116.2-17.7c45.6,0,113.8,16.3,113.8,16.3l-8.6,54.3c0,0-78.8-10-106-10
			c-26.8,0-104.4,10-104.4,10L330.7,284.5z"/>
		<path class="st1" d="M445.2,226.2l100.1,41.3c0,0-8.1,100.1-25,128.1c-12.4,20.7-75.1,61.1-75.1,61.1"/>
		<path class="st1" d="M445.2,226.2l-100.1,41.3c0,0,8.1,100.1,25,128.1c12.4,20.7,75.1,61.1,75.1,61.1"/>
		<path class="st2" d="M445.4,234.4l90.4,37.7c0,0-7.3,91.3-22.5,116.9c-11.2,18.9-67.8,55.7-67.8,55.7"/>
		<path class="st2" d="M445.4,234.4L355,272.1c0,0,7.3,91.3,22.5,116.9c11.2,18.9,67.8,55.7,67.8,55.7"/>
		<path d="M446.3,243.6l80.7,33.7c0,0-6.5,81.6-20.1,104.5c-10,16.9-60.6,49.8-60.6,49.8"/>
		<path d="M446.3,243.6l-80.7,33.7c0,0,6.5,81.6,20.1,104.5c10,16.9,60.6,49.8,60.6,49.8"/>
		<path class="st0" d="M446.2,251.1l73.1,30.5c0,0-5.9,73.9-18.2,94.5c-9.1,15.3-54.8,45.1-54.8,45.1"/>
		<path class="st3" d="M446.2,251.1l-73.1,30.5c0,0,5.9,73.9,18.2,94.5c9.1,15.3,54.9,45.1,54.9,45.1"/>
		<path class="st1" d="M458.5,335.8c0,6.8-5.5,12.3-12.3,12.3c-6.8,0-12.3-5.5-12.3-12.3c0-6.8,5.5-12.3,12.3-12.3c0,0,0,0,0,0
			C453,323.5,458.5,329,458.5,335.8L458.5,335.8z"/>
		<polygon class="st1" points="434.8,381.7 457.5,381.7 450.8,347 441.6,347.3 		"/>
		<path class="st4" d="M446.2,251.1l-73.1,30.5c0,0,5.9,73.9,18.2,94.5c9.1,15.3,54.9,45.1,54.9,45.1"/>
		<polygon class="st5" points="541.5,325.4 528.8,329.4 529.6,324.3 		"/>
		<polygon class="st5" points="349.9,326.4 361.2,325.1 362.1,328.7 		"/>
		<path class="st2" d="M340.3,291c0,0,55.8-12.5,105.9-12.5c51,0,104.3,11.5,104.3,11.5l-5.8,36.6c0,0-74.4-8.8-99.3-8.8
			c-24.6,0-97.8,8.8-97.8,8.8L340.3,291z"/>
	</g>
	<g>
		<path class="st1" d="M74.7,344.6c0,0,46.2-11.6,75.8-11.6c29.7,0,74.2,10.6,74.2,10.6l-5.6,35.4c0,0-51.4-6.5-69.2-6.5
			c-17.5,0-68.1,6.5-68.1,6.5L74.7,344.6z"/>
		<path class="st1" d="M149.3,306.5l65.3,26.9c0,0-5.3,65.3-16.3,83.6c-8.1,13.5-49,39.8-49,39.8"/>
		<path class="st1" d="M149.3,306.5l-65.3,26.9c0,0,5.3,65.3,16.3,83.6c8.1,13.5,49,39.8,49,39.8"/>
		<path class="st2" d="M149.5,311.9l58.9,24.6c0,0-4.8,59.6-14.7,76.3c-7.3,12.3-44.2,36.4-44.2,36.4"/>
		<path class="st2" d="M149.5,311.9l-58.9,24.6c0,0,4.8,59.6,14.7,76.3c7.3,12.3,44.2,36.4,44.2,36.4"/>
		<path d="M150.1,317.9l52.7,22c0,0-4.3,53.2-13.1,68.1c-6.5,11-39.5,32.5-39.5,32.5"/>
		<path d="M150.1,317.9l-52.7,22c0,0,4.3,53.2,13.1,68.1c6.5,11,39.5,32.5,39.5,32.5"/>
		<path class="st0" d="M150,322.8l47.7,19.9c0,0-3.9,48.2-11.9,61.7c-5.9,9.9-35.8,29.4-35.8,29.4"/>
		<path class="st3" d="M150,322.8l-47.7,19.9c0,0,3.9,48.2,11.9,61.7c5.9,9.9,35.8,29.4,35.8,29.4"/>
		<path class="st1" d="M158,378c0,4.4-3.6,8-8,8s-8-3.6-8-8c0-4.4,3.6-8,8-8c0,0,0,0,0,0C154.4,370,158,373.6,158,378L158,378z"/>
		<polygon class="st1" points="142.6,408 157.4,408 153,385.3 147,385.5 		"/>
		<path class="st4" d="M150,322.8l-47.7,19.9c0,0,3.9,48.2,11.9,61.7c5.9,9.9,35.8,29.4,35.8,29.4"/>
		<polygon class="st5" points="212.2,371.2 203.9,373.8 204.4,370.5 		"/>
		<polygon class="st5" points="87.2,371.9 94.6,371 95.2,373.4 		"/>
		<path class="st2" d="M80.9,348.8c0,0,36.4-8.1,69-8.1c33.3,0,68,7.5,68,7.5l-3.8,23.9c0,0-48.5-5.8-64.8-5.8
			c-16,0-63.8,5.8-63.8,5.8L80.9,348.8z"/>
	</g>
</g>
</svg>
