<?xml version="1.0" encoding="utf-8"?>
<!-- Generator: Adobe Illustrator 22.0.1, SVG Export Plug-In . SVG Version: 6.00 Build 0)  -->
<svg version="1.1" xmlns="http://www.w3.org/2000/svg" xmlns:xlink="http://www.w3.org/1999/xlink" x="0px" y="0px"
	 viewBox="0 0 320 100" style="enable-background:new 0 0 320 100;" xml:space="preserve">
<style type="text/css">
	.st0{fill:none;stroke:#F45E58;stroke-miterlimit:10;}
	.st1{fill:none;stroke:#288FEB;stroke-miterlimit:10;}
	.st2{fill:#F45E58;}
	.st3{fill:#288FEB;}
	.st4{fill:none;stroke:#F0F0F0;stroke-width:3;stroke-miterlimit:10;}
	.st5{fill:#FFFFFF;}
	.st6{fill:#278BD6;}
	.st7{opacity:0.13;fill:#278BD6;enable-background:new    ;}
	.st8{fill:#E05C5C;}
	.st9{fill:#F4615B;}
	.st10{fill:#F0F0F0;}
	.st11{fill:#248CD0;}
	.st12{fill:#F0F0F0;stroke:#F0F0F0;stroke-width:0.75;stroke-miterlimit:10;}
	.st13{fill:#F0F0F0;stroke:#F0F0F0;stroke-width:1.5;stroke-miterlimit:10;}
	.st14{fill:none;stroke:#248CD0;stroke-miterlimit:10;}
	.st15{fill:none;stroke:#F0F0F0;stroke-linecap:round;stroke-miterlimit:10;}
	.st16{fill:none;stroke:#FFD18F;stroke-miterlimit:10;stroke-dasharray:12.5631,12.5631;}
	.st17{fill:none;stroke:#D3D3D3;stroke-miterlimit:10;}
	.st18{fill:#D3D3D3;}
	.st19{fill:#FFD18F;}
</style>
<g id="Layer_1">
	<path class="st0" d="M164.8-314.4c-3.8,3.6-15,13.2-16.4,13.2c-1.4,0-12.8-9.7-16.7-13.3c-2.8-2.6-5.4-5.3-6.1-13
		c-0.7-7.3-2.1-27.5-0.2-27.8c11.3-2.4,34.7-1.5,46.1,0.2c1.6,0.2,0.2,20.4-0.5,28C170.5-319.5,167.6-317,164.8-314.4z"/>
	<path class="st1" d="M313.5-304.6h-48c-1.1,0-2-0.9-2-2V-352c0-1.1,0.9-2,2-2h48c1.1,0,2,0.9,2,2v45.4
		C315.5-305.5,314.6-304.6,313.5-304.6z"/>
	<path class="st1" d="M303.3-314.8h-27.5c-1.1,0-2-0.9-2-1.9v-23.1c0-1.1,0.9-1.9,2-1.9h5.6v-1.9c0-0.5,0.5-1,1-1h14.3
		c0.6,0,1,0.4,1,1v1.9h5.6c1.1,0,2,0.9,2,1.9v23.1C305.3-315.7,304.4-314.8,303.3-314.8z"/>
	<line class="st1" x1="298.4" y1="-323.5" x2="298.4" y2="-314.8"/>
	<line class="st1" x1="280.6" y1="-323.5" x2="280.6" y2="-314.8"/>
	<line class="st1" x1="292.3" y1="-323.5" x2="292.3" y2="-314.8"/>
	<line class="st1" x1="286.7" y1="-323.5" x2="286.7" y2="-314.8"/>
	<g>
		<path class="st2" d="M124.9-276.6h-4v-10.9h4c1.6,0,2.8,0.5,3.7,1.5c0.8,1,1.2,2.3,1.2,3.9c0,1.1-0.2,2.1-0.6,2.9
			c-0.4,0.8-0.9,1.5-1.7,1.9C126.8-276.8,125.9-276.6,124.9-276.6z M125-285.9h-2.3v7.8h2.2c1,0,1.7-0.3,2.3-1s0.8-1.7,0.8-3
			c0-1.2-0.3-2.2-0.8-2.8C126.7-285.6,126-285.9,125-285.9z"/>
		<path class="st2" d="M138.1-280h-5.4c0.2,1.4,1,2.1,2.5,2.1c0.4,0,0.8-0.1,1.1-0.2c0.3-0.1,0.7-0.3,1.2-0.5l0.5,1.3
			c-0.9,0.6-1.8,0.9-2.9,0.9c-1.4,0-2.5-0.4-3.2-1.1c-0.7-0.7-1.1-1.7-1.1-3c0-0.8,0.2-1.5,0.5-2.1c0.3-0.6,0.7-1.1,1.3-1.4
			c0.6-0.3,1.2-0.5,2-0.5c1.1,0,2,0.4,2.6,1.1c0.6,0.8,0.9,1.7,0.9,2.9V-280z M132.8-281.2h3.6c-0.1-0.6-0.3-1.1-0.6-1.4
			c-0.3-0.3-0.7-0.5-1.2-0.5c-0.5,0-0.9,0.2-1.2,0.5C133.1-282.2,132.9-281.8,132.8-281.2z"/>
		<path class="st2" d="M138.8-282.9v-1.4h1.2v-0.8c0-0.8,0.2-1.5,0.7-2c0.5-0.5,1.2-0.7,2-0.7c0.2,0,0.5,0,0.8,0.1
			c0.3,0.1,0.5,0.2,0.6,0.3l-0.5,1.3c-0.3-0.1-0.6-0.2-0.8-0.2c-0.4,0-0.6,0.1-0.8,0.4c-0.2,0.2-0.3,0.6-0.3,1v0.6h1.4l0.6,1.4h-2
			v6.3H140v-6.3H138.8z"/>
		<path class="st2" d="M151.9-280h-5.4c0.2,1.4,1,2.1,2.5,2.1c0.4,0,0.8-0.1,1.1-0.2c0.3-0.1,0.7-0.3,1.2-0.5l0.5,1.3
			c-0.9,0.6-1.8,0.9-2.9,0.9c-1.4,0-2.5-0.4-3.2-1.1c-0.7-0.7-1.1-1.7-1.1-3c0-0.8,0.2-1.5,0.5-2.1c0.3-0.6,0.7-1.1,1.3-1.4
			c0.6-0.3,1.2-0.5,2-0.5c1.1,0,2,0.4,2.6,1.1c0.6,0.8,0.9,1.7,0.9,2.9V-280z M146.5-281.2h3.6c-0.1-0.6-0.3-1.1-0.6-1.4
			c-0.3-0.3-0.7-0.5-1.2-0.5c-0.5,0-0.9,0.2-1.2,0.5C146.8-282.2,146.6-281.8,146.5-281.2z"/>
		<path class="st2" d="M155-276.6h-1.8v-7.8h1.2l0.3,0.9c0.4-0.4,0.9-0.7,1.5-0.9s1-0.3,1.5-0.3c0.9,0,1.6,0.3,2,0.8
			c0.4,0.5,0.6,1.3,0.6,2.2v5h-1.8v-4.9c0-1.1-0.4-1.6-1.2-1.6c-0.7,0-1.4,0.4-2.3,1.1V-276.6z"/>
		<path class="st2" d="M167.7-278.5l0.5,1.3c-0.3,0.2-0.8,0.4-1.3,0.6c-0.5,0.1-1,0.2-1.4,0.2c-0.8,0-1.5-0.2-2.1-0.5
			c-0.6-0.3-1.1-0.8-1.4-1.4c-0.3-0.6-0.5-1.3-0.5-2.2c0-0.8,0.2-1.5,0.5-2.1c0.3-0.6,0.8-1.1,1.4-1.4c0.6-0.3,1.3-0.5,2.1-0.5
			c0.4,0,0.8,0.1,1.3,0.2c0.5,0.1,1,0.3,1.3,0.6l-0.5,1.3c-0.4-0.2-0.8-0.3-1.1-0.4c-0.3-0.1-0.7-0.1-1-0.1c-0.6,0-1.2,0.2-1.6,0.7
			c-0.4,0.5-0.6,1.1-0.6,1.8c0,0.8,0.2,1.4,0.6,1.8c0.4,0.5,0.9,0.7,1.6,0.7c0.4,0,0.8,0,1.1-0.1C167-278.2,167.3-278.3,167.7-278.5
			z"/>
		<path class="st2" d="M176.3-280H171c0.2,1.4,1,2.1,2.5,2.1c0.4,0,0.8-0.1,1.1-0.2c0.3-0.1,0.7-0.3,1.2-0.5l0.5,1.3
			c-0.9,0.6-1.8,0.9-2.9,0.9c-1.4,0-2.5-0.4-3.2-1.1c-0.7-0.7-1.1-1.7-1.1-3c0-0.8,0.2-1.5,0.5-2.1c0.3-0.6,0.7-1.1,1.3-1.4
			c0.6-0.3,1.2-0.5,2-0.5c1.1,0,2,0.4,2.6,1.1c0.6,0.8,0.9,1.7,0.9,2.9V-280z M171-281.2h3.6c-0.1-0.6-0.3-1.1-0.6-1.4
			c-0.3-0.3-0.7-0.5-1.2-0.5c-0.5,0-0.9,0.2-1.2,0.5C171.3-282.2,171.1-281.8,171-281.2z"/>
	</g>
	<g>
		<path class="st3" d="M278.7-279l3.1-8.4h1.8l-4.2,10.9h-1.6l-4.2-10.8l1.8-0.3L278.7-279z"/>
		<path class="st3" d="M287-276.6h-1.8v-10.9h3.2c1.3,0,2.3,0.3,3,0.8c0.8,0.6,1.2,1.4,1.2,2.6c0,0.8-0.2,1.4-0.6,2
			c-0.4,0.5-0.9,0.9-1.6,1.2c-0.7,0.3-1.4,0.4-2.2,0.4H287V-276.6z M288.4-286H287v4h1.4c0.7,0,1.3-0.2,1.7-0.5
			c0.4-0.3,0.6-0.8,0.7-1.5c0-0.7-0.2-1.3-0.6-1.6C289.7-285.8,289.2-286,288.4-286z"/>
		<path class="st3" d="M294.5-276.6v-10.9h1.7l5.3,7.7v-7.7h1.8v10.9h-1.7l-5.3-7.7v7.7H294.5z"/>
	</g>
	<line class="st4" x1="220" y1="-328" x2="220" y2="-315"/>
	<line class="st4" x1="226.5" y1="-321.5" x2="213.5" y2="-321.5"/>
	<line class="st4" x1="641" y1="-214" x2="641" y2="-201"/>
	<line class="st4" x1="647.5" y1="-207.5" x2="634.5" y2="-207.5"/>
	<line class="st4" x1="641" y1="-328" x2="641" y2="-315"/>
	<line class="st4" x1="647.5" y1="-321.5" x2="634.5" y2="-321.5"/>
	<g>
		<path class="st5" d="M132.1-202.6c0,0,54-13.5,88.6-13.5c34.8,0,86.8,12.4,86.8,12.4l-6.6,41.4c0,0-60.1-7.6-80.8-7.6
			c-20.4,0-79.6,7.6-79.6,7.6L132.1-202.6z"/>
		<path class="st5" d="M219.4-247L219.4-247l76.3,31.5c0,0-6.2,76.3-19.1,97.7c-9.5,15.8-57.3,46.6-57.3,46.6"/>
		<path class="st5" d="M220.2-71.8L219.5-247l-0.1,0l-0.1,0l-76.3,31.5c0,0,6.2,76.3,19.1,97.7c8.6,14.4,49.2,41.3,56.2,45.9
			c0.7,0.4,1,0.7,1,0.7L220.2-71.8z"/>
		<path class="st2" d="M219.6-240.7l68.9,28.7c0,0-5.6,69.6-17.2,89.1c-8.5,14.4-51.7,42.5-51.7,42.5"/>
		<path class="st2" d="M219.6-240.7L150.7-212c0,0,5.6,69.6,17.2,89.1c7.5,12.7,51.7,42.6,51.7,42.6l9.4-6.5l-0.2-150.1"/>
		<path d="M220.3-233.7l61.5,25.7c0,0-5,62.2-15.3,79.7c-7.6,12.9-46.2,38-46.2,38"/>
		<path d="M220.3-233.7L158.8-208c0,0,5,62.2,15.3,79.7c7.6,12.9,46.2,38,46.2,38"/>
		<path class="st3" d="M220.2-228l55.7,23.3c0,0-4.5,56.3-13.9,72c-6.9,11.7-41.8,34.4-41.8,34.4s-14.7-10.7-7.3-77.4"/>
		<path class="st6" d="M220.2-228l-55.7,23.3c0,0,4.5,56.3,13.9,72c6.9,11.7,41.9,34.4,41.9,34.4"/>
		<path class="st5" d="M229.6-163.4c0,5.2-4.2,9.4-9.4,9.4c-5.2,0-9.4-4.2-9.4-9.4s4.2-9.4,9.4-9.4l0,0
			C225.4-172.8,229.6-168.6,229.6-163.4L229.6-163.4z"/>
		<polygon class="st5" points="211.5,-128.5 228.8,-128.5 223.7,-154.9 216.7,-154.7 		"/>
		<path class="st7" d="M220.2-228L220.2-228l-55.7,23.3c0,0,4.5,56.3,13.9,72c6.9,11.7,41.9,34.4,41.9,34.4v-78.8"/>
		<polygon class="st8" points="292.9,-171.4 283.2,-168.3 283.8,-172.2 		"/>
		<polygon class="st8" points="146.8,-170.6 155.4,-171.6 156.1,-168.9 		"/>
		<path class="st2" d="M139.5-197.6c0,0,42.5-9.5,80.7-9.5c38.9,0,79.5,8.8,79.5,8.8l-4.4,27.9c0,0-56.7-6.7-75.7-6.7
			c-18.8,0-74.6,6.7-74.6,6.7L139.5-197.6z"/>
	</g>
	<g>
		<g>
			<path class="st2" d="M156.3-21.3c-0.3,0-0.6-0.1-0.8-0.3c-0.2-0.2-0.3-0.5-0.3-0.8v-14.2c0-0.3,0.1-0.6,0.3-0.8
				c0.2-0.2,0.5-0.4,0.8-0.4h4.7c1.8,0,3.3,0.4,4.6,1.2c1.3,0.8,2.2,1.8,2.8,3.1c0.6,1.3,1,2.6,1,4c0,1.4-0.3,2.7-1,4
				c-0.6,1.3-1.6,2.3-2.8,3.1c-1.3,0.8-2.8,1.2-4.6,1.2H156.3z M160.7-23.6c1.3,0,2.4-0.3,3.3-0.8c0.9-0.5,1.7-1.2,2.2-2.1
				c0.5-0.9,0.8-2,0.8-3.2c0-1.2-0.3-2.3-0.8-3.2c-0.5-0.9-1.3-1.6-2.2-2.1c-0.9-0.5-2.1-0.8-3.3-0.8h-3.2v12.1H160.7z"/>
			<path class="st2" d="M161-37.8c1.8,0,3.3,0.4,4.5,1.2c1.2,0.8,2.2,1.8,2.8,3.1c0.6,1.2,0.9,2.6,0.9,3.9c0,1.4-0.3,2.7-0.9,3.9
				c-0.6,1.2-1.6,2.3-2.8,3.1c-1.2,0.8-2.8,1.2-4.5,1.2h-4.7c-0.3,0-0.5-0.1-0.8-0.3c-0.2-0.2-0.3-0.5-0.3-0.8v-14.2
				c0-0.3,0.1-0.6,0.3-0.8c0.2-0.2,0.5-0.3,0.8-0.3H161 M157.3-23.4h3.4c1.3,0,2.4-0.3,3.4-0.8c1-0.5,1.7-1.2,2.2-2.2
				c0.5-0.9,0.8-2,0.8-3.2c0-1.2-0.3-2.3-0.8-3.2c-0.5-0.9-1.3-1.7-2.2-2.2c-1-0.5-2.1-0.8-3.4-0.8h-3.4V-23.4 M161-38h-4.7
				c-0.4,0-0.7,0.1-0.9,0.4c-0.2,0.3-0.4,0.6-0.4,0.9v14.2c0,0.4,0.1,0.7,0.4,0.9c0.2,0.3,0.6,0.4,0.9,0.4h4.7
				c1.8,0,3.4-0.4,4.7-1.2c1.3-0.8,2.2-1.9,2.9-3.2c0.6-1.3,1-2.6,1-4c0-1.4-0.3-2.8-1-4c-0.6-1.3-1.6-2.3-2.9-3.2
				C164.4-37.6,162.8-38,161-38L161-38z M157.6-35.6h3.1c1.2,0,2.3,0.3,3.3,0.8c0.9,0.5,1.6,1.2,2.2,2.1c0.5,0.9,0.8,1.9,0.8,3.1
				c0,1.2-0.3,2.2-0.8,3.1c-0.5,0.9-1.2,1.6-2.2,2.1c-0.9,0.5-2,0.8-3.3,0.8h-3.1V-35.6L157.6-35.6z"/>
		</g>
		<g>
			<path class="st2" d="M174.4-21.3c-0.3,0-0.6-0.1-0.8-0.3c-0.2-0.2-0.3-0.5-0.3-0.8v-14.2c0-0.3,0.1-0.6,0.3-0.8
				c0.2-0.2,0.5-0.4,0.8-0.4h9.4c0.3,0,0.6,0.1,0.8,0.3c0.2,0.2,0.3,0.5,0.3,0.8c0,0.3-0.1,0.6-0.3,0.8c-0.2,0.2-0.5,0.3-0.8,0.3
				h-8.2v4.9h7.3c0.3,0,0.6,0.1,0.8,0.3c0.2,0.2,0.3,0.5,0.3,0.8c0,0.3-0.1,0.6-0.3,0.8c-0.2,0.2-0.5,0.3-0.8,0.3h-7.3v5h8.2
				c0.3,0,0.6,0.1,0.8,0.3c0.2,0.2,0.3,0.5,0.3,0.8c0,0.3-0.1,0.6-0.3,0.8c-0.2,0.2-0.5,0.3-0.8,0.3H174.4z"/>
			<path class="st2" d="M183.8-37.8c0.3,0,0.5,0.1,0.7,0.3c0.2,0.2,0.3,0.4,0.3,0.7c0,0.3-0.1,0.5-0.3,0.7c-0.2,0.2-0.4,0.3-0.7,0.3
				h-8.3v5.2h7.5c0.3,0,0.5,0.1,0.7,0.3c0.2,0.2,0.3,0.4,0.3,0.7c0,0.3-0.1,0.5-0.3,0.7c-0.2,0.2-0.4,0.3-0.7,0.3h-7.5v5.2h8.3
				c0.3,0,0.5,0.1,0.7,0.3c0.2,0.2,0.3,0.4,0.3,0.7c0,0.3-0.1,0.5-0.3,0.7c-0.2,0.2-0.4,0.3-0.7,0.3h-9.4c-0.3,0-0.5-0.1-0.8-0.3
				c-0.2-0.2-0.3-0.5-0.3-0.8v-14.2c0-0.3,0.1-0.6,0.3-0.8c0.2-0.2,0.5-0.3,0.8-0.3H183.8 M183.8-38h-9.4c-0.4,0-0.7,0.1-0.9,0.4
				c-0.2,0.3-0.4,0.6-0.4,0.9v14.2c0,0.4,0.1,0.7,0.4,0.9c0.2,0.3,0.6,0.4,0.9,0.4h9.4c0.3,0,0.6-0.1,0.9-0.3
				c0.2-0.2,0.4-0.5,0.4-0.9c0-0.3-0.1-0.6-0.4-0.9c-0.2-0.2-0.5-0.4-0.9-0.4h-8.1v-4.7h7.2c0.3,0,0.6-0.1,0.9-0.3
				c0.2-0.2,0.4-0.5,0.4-0.9c0-0.3-0.1-0.6-0.4-0.9c-0.2-0.2-0.5-0.4-0.9-0.4h-7.2v-4.7h8.1c0.3,0,0.6-0.1,0.9-0.4
				c0.2-0.2,0.4-0.5,0.4-0.9c0-0.3-0.1-0.6-0.4-0.9C184.5-37.9,184.2-38,183.8-38L183.8-38z"/>
		</g>
		<g>
			<path class="st2" d="M190-21.2c-0.3,0-0.6-0.1-0.8-0.3c-0.2-0.2-0.3-0.5-0.3-0.8v-14.3c0-0.3,0.1-0.6,0.3-0.8
				c0.2-0.2,0.5-0.4,0.8-0.4h9.1c0.3,0,0.6,0.1,0.8,0.3c0.2,0.2,0.3,0.5,0.3,0.8c0,0.3-0.1,0.6-0.3,0.8c-0.2,0.2-0.5,0.3-0.8,0.3
				h-7.9v4.9h7.1c0.3,0,0.6,0.1,0.8,0.3c0.2,0.2,0.3,0.5,0.3,0.8c0,0.3-0.1,0.6-0.3,0.8c-0.2,0.2-0.5,0.3-0.8,0.3h-7.1v6.1
				c0,0.3-0.1,0.6-0.4,0.8C190.6-21.3,190.3-21.2,190-21.2z"/>
			<path class="st2" d="M199.1-37.8c0.3,0,0.5,0.1,0.7,0.3c0.2,0.2,0.3,0.4,0.3,0.7c0,0.3-0.1,0.5-0.3,0.7c-0.2,0.2-0.4,0.3-0.7,0.3
				h-8v5.2h7.2c0.3,0,0.5,0.1,0.7,0.3c0.2,0.2,0.3,0.4,0.3,0.7c0,0.3-0.1,0.5-0.3,0.7c-0.2,0.2-0.4,0.3-0.7,0.3H191v6.3
				c0,0.3-0.1,0.5-0.3,0.7c-0.2,0.2-0.5,0.3-0.8,0.3c-0.3,0-0.5-0.1-0.8-0.3c-0.2-0.2-0.3-0.5-0.3-0.7v-14.3c0-0.3,0.1-0.6,0.3-0.8
				c0.2-0.2,0.5-0.3,0.8-0.3H199.1 M199.1-38H190c-0.4,0-0.7,0.1-0.9,0.4c-0.2,0.3-0.4,0.6-0.4,0.9v14.3c0,0.4,0.1,0.7,0.4,0.9
				c0.2,0.3,0.6,0.4,0.9,0.4c0.4,0,0.7-0.1,0.9-0.4c0.3-0.2,0.4-0.6,0.4-0.9v-6h7c0.3,0,0.6-0.1,0.9-0.3c0.2-0.2,0.4-0.5,0.4-0.9
				c0-0.3-0.1-0.6-0.4-0.9c-0.2-0.2-0.5-0.4-0.9-0.4h-7v-4.7h7.8c0.3,0,0.6-0.1,0.9-0.4c0.2-0.2,0.4-0.5,0.4-0.9
				c0-0.3-0.1-0.6-0.4-0.9C199.7-37.9,199.4-38,199.1-38L199.1-38z"/>
		</g>
		<g>
			<path class="st2" d="M204.8-21.3c-0.3,0-0.6-0.1-0.8-0.3c-0.2-0.2-0.3-0.5-0.3-0.8v-14.2c0-0.3,0.1-0.6,0.3-0.8
				c0.2-0.2,0.5-0.4,0.8-0.4h9.4c0.3,0,0.6,0.1,0.8,0.3c0.2,0.2,0.3,0.5,0.3,0.8c0,0.3-0.1,0.6-0.3,0.8c-0.2,0.2-0.5,0.3-0.8,0.3
				H206v4.9h7.3c0.3,0,0.6,0.1,0.8,0.3c0.2,0.2,0.3,0.5,0.3,0.8c0,0.3-0.1,0.6-0.3,0.8c-0.2,0.2-0.5,0.3-0.8,0.3H206v5h8.2
				c0.3,0,0.6,0.1,0.8,0.3c0.2,0.2,0.3,0.5,0.3,0.8c0,0.3-0.1,0.6-0.3,0.8c-0.2,0.2-0.5,0.3-0.8,0.3H204.8z"/>
			<path class="st2" d="M214.2-37.8c0.3,0,0.5,0.1,0.7,0.3c0.2,0.2,0.3,0.4,0.3,0.7c0,0.3-0.1,0.5-0.3,0.7c-0.2,0.2-0.4,0.3-0.7,0.3
				h-8.3v5.2h7.5c0.3,0,0.5,0.1,0.7,0.3c0.2,0.2,0.3,0.4,0.3,0.7c0,0.3-0.1,0.5-0.3,0.7c-0.2,0.2-0.4,0.3-0.7,0.3h-7.5v5.2h8.3
				c0.3,0,0.5,0.1,0.7,0.3c0.2,0.2,0.3,0.4,0.3,0.7c0,0.3-0.1,0.5-0.3,0.7c-0.2,0.2-0.4,0.3-0.7,0.3h-9.4c-0.3,0-0.5-0.1-0.8-0.3
				c-0.2-0.2-0.3-0.5-0.3-0.8v-14.2c0-0.3,0.1-0.6,0.3-0.8c0.2-0.2,0.5-0.3,0.8-0.3H214.2 M214.2-38h-9.4c-0.4,0-0.7,0.1-0.9,0.4
				c-0.2,0.3-0.4,0.6-0.4,0.9v14.2c0,0.4,0.1,0.7,0.4,0.9c0.2,0.3,0.6,0.4,0.9,0.4h9.4c0.3,0,0.6-0.1,0.9-0.3
				c0.2-0.2,0.4-0.5,0.4-0.9c0-0.3-0.1-0.6-0.4-0.9c-0.2-0.2-0.5-0.4-0.9-0.4h-8.1v-4.7h7.2c0.3,0,0.6-0.1,0.9-0.3
				c0.2-0.2,0.4-0.5,0.4-0.9c0-0.3-0.1-0.6-0.4-0.9c-0.2-0.2-0.5-0.4-0.9-0.4h-7.2v-4.7h8.1c0.3,0,0.6-0.1,0.9-0.4
				c0.2-0.2,0.4-0.5,0.4-0.9c0-0.3-0.1-0.6-0.4-0.9C214.8-37.9,214.5-38,214.2-38L214.2-38z"/>
		</g>
		<g>
			<path class="st2" d="M231.7-21.2c-0.3,0-0.5-0.1-0.8-0.2c-0.2-0.1-0.4-0.3-0.6-0.5l-8.8-12.8v12.3c0,0.3-0.1,0.6-0.4,0.8
				c-0.2,0.2-0.5,0.3-0.8,0.3c-0.3,0-0.6-0.1-0.8-0.3c-0.2-0.2-0.3-0.5-0.3-0.8v-14c0-0.5,0.2-0.8,0.5-1.2c0.3-0.3,0.7-0.5,1.2-0.5
				h0.3c0.5,0,1,0.3,1.4,0.8l8.8,12.7v-12.3c0-0.3,0.1-0.6,0.3-0.8c0.2-0.2,0.5-0.4,0.8-0.4c0.3,0,0.6,0.1,0.9,0.4
				c0.2,0.2,0.4,0.5,0.4,0.8v14c0,0.5-0.2,0.8-0.5,1.2c-0.3,0.3-0.7,0.5-1.2,0.5H231.7z"/>
			<path class="st2" d="M232.5-37.9c0.3,0,0.6,0.1,0.8,0.3c0.2,0.2,0.3,0.5,0.3,0.8v14c0,0.4-0.2,0.8-0.5,1.1
				c-0.3,0.3-0.7,0.4-1.1,0.4h-0.3c-0.3,0-0.5-0.1-0.7-0.2c-0.2-0.1-0.4-0.3-0.5-0.5l-9.1-13.1v12.7c0,0.3-0.1,0.5-0.3,0.7
				c-0.2,0.2-0.5,0.3-0.8,0.3c-0.3,0-0.5-0.1-0.8-0.3c-0.2-0.2-0.3-0.5-0.3-0.7v-14c0-0.4,0.1-0.8,0.4-1.1c0.3-0.3,0.7-0.5,1.1-0.5
				h0.3c0.5,0,0.9,0.2,1.3,0.7l9,13v-12.7c0-0.3,0.1-0.6,0.3-0.8C231.9-37.8,232.2-37.9,232.5-37.9 M232.5-38.2
				c-0.4,0-0.7,0.1-0.9,0.4c-0.2,0.3-0.4,0.6-0.4,0.9V-25l-8.6-12.4c-0.4-0.5-0.9-0.8-1.5-0.8h-0.3c-0.5,0-0.9,0.2-1.3,0.5
				c-0.3,0.4-0.5,0.8-0.5,1.3v14c0,0.4,0.1,0.7,0.4,0.9c0.2,0.3,0.6,0.4,0.9,0.4c0.4,0,0.7-0.1,0.9-0.4c0.3-0.2,0.4-0.6,0.4-0.9
				v-11.9l8.6,12.4c0.2,0.2,0.4,0.4,0.6,0.5c0.3,0.1,0.5,0.2,0.8,0.2h0.3c0.5,0,0.9-0.2,1.3-0.5c0.4-0.3,0.5-0.8,0.5-1.3v-14
				c0-0.4-0.1-0.7-0.4-0.9C233.1-38,232.8-38.2,232.5-38.2L232.5-38.2z"/>
		</g>
		<g>
			<path class="st2" d="M245.9-21.1c-1.6,0-3-0.3-4.3-1c-1.3-0.7-2.3-1.7-3-3c-0.7-1.3-1.1-2.8-1.1-4.5s0.4-3.2,1.1-4.5
				c0.7-1.3,1.7-2.3,3-3c1.3-0.7,2.7-1,4.3-1c1.1,0,2,0.1,2.9,0.4c0.8,0.3,1.7,0.6,2.5,1.1c0.4,0.2,0.6,0.5,0.6,1
				c0,0.3-0.1,0.5-0.3,0.7c-0.2,0.2-0.5,0.3-0.8,0.3c-0.2,0-0.3,0-0.5-0.1c-0.7-0.4-1.4-0.6-2-0.8c-0.6-0.2-1.4-0.3-2.2-0.3
				c-1.3,0-2.4,0.3-3.4,0.8c-0.9,0.5-1.6,1.3-2.1,2.2c-0.5,0.9-0.7,2-0.7,3.2c0,1.2,0.2,2.3,0.7,3.2c0.5,0.9,1.2,1.7,2.1,2.2
				c0.9,0.5,2.1,0.8,3.4,0.8c0.8,0,1.6-0.1,2.2-0.3c0.6-0.2,1.3-0.5,2-0.8c0.1-0.1,0.3-0.1,0.5-0.1c0.3,0,0.6,0.1,0.8,0.3
				c0.2,0.2,0.3,0.4,0.3,0.7c0,0.5-0.2,0.8-0.6,1c-0.8,0.5-1.7,0.8-2.5,1.1C247.9-21.2,247-21.1,245.9-21.1z"/>
			<path class="st2" d="M245.9-38c1.1,0,2,0.1,2.8,0.4c0.8,0.3,1.7,0.6,2.5,1.1c0.3,0.2,0.5,0.5,0.5,0.9c0,0.2-0.1,0.4-0.3,0.6
				c-0.2,0.2-0.4,0.3-0.7,0.3c-0.2,0-0.3,0-0.4-0.1c-0.7-0.4-1.4-0.6-2-0.8c-0.7-0.2-1.4-0.3-2.3-0.3c-1.3,0-2.5,0.3-3.4,0.8
				c-0.9,0.6-1.7,1.3-2.1,2.3c-0.5,1-0.7,2-0.7,3.3c0,1.2,0.2,2.3,0.7,3.3c0.5,1,1.2,1.7,2.1,2.3c0.9,0.6,2.1,0.8,3.4,0.8
				c0.9,0,1.6-0.1,2.3-0.3c0.7-0.2,1.3-0.5,2-0.8c0.1-0.1,0.3-0.1,0.4-0.1c0.3,0,0.5,0.1,0.7,0.3c0.2,0.2,0.3,0.4,0.3,0.6
				c0,0.4-0.2,0.7-0.5,0.9c-0.8,0.5-1.7,0.8-2.5,1.1c-0.8,0.3-1.8,0.4-2.8,0.4c-1.6,0-3-0.3-4.2-1c-1.2-0.7-2.2-1.7-2.9-2.9
				c-0.7-1.3-1.1-2.8-1.1-4.5c0-1.7,0.4-3.2,1.1-4.5c0.7-1.3,1.7-2.2,2.9-2.9C242.9-37.7,244.3-38,245.9-38 M245.9-38.3
				c-1.6,0-3.1,0.4-4.3,1c-1.3,0.7-2.3,1.7-3,3c-0.7,1.3-1.1,2.8-1.1,4.6c0,1.7,0.4,3.3,1.1,4.6c0.7,1.3,1.7,2.3,3,3
				c1.3,0.7,2.7,1.1,4.3,1.1c1.1,0,2.1-0.1,2.9-0.4c0.8-0.3,1.7-0.6,2.5-1.1c0.4-0.2,0.6-0.6,0.6-1.1c0-0.3-0.1-0.6-0.3-0.8
				c-0.2-0.2-0.5-0.3-0.9-0.3c-0.2,0-0.4,0-0.5,0.1c-0.7,0.4-1.3,0.6-2,0.8c-0.6,0.2-1.4,0.3-2.2,0.3c-1.3,0-2.4-0.3-3.3-0.8
				c-0.9-0.5-1.6-1.3-2-2.2c-0.5-0.9-0.7-2-0.7-3.2c0-1.2,0.2-2.2,0.7-3.2c0.5-0.9,1.1-1.6,2-2.2c0.9-0.5,2-0.8,3.3-0.8
				c0.8,0,1.6,0.1,2.2,0.3c0.6,0.2,1.3,0.5,2,0.8c0.2,0.1,0.3,0.1,0.5,0.1c0.4,0,0.6-0.1,0.9-0.3c0.2-0.2,0.3-0.5,0.3-0.8
				c0-0.5-0.2-0.9-0.6-1.1c-0.8-0.5-1.7-0.8-2.5-1.1C247.9-38.2,247-38.3,245.9-38.3L245.9-38.3z"/>
		</g>
		<g>
			<path class="st2" d="M256.6-21.3c-0.3,0-0.6-0.1-0.8-0.3c-0.2-0.2-0.3-0.5-0.3-0.8v-14.2c0-0.3,0.1-0.6,0.3-0.8
				c0.2-0.2,0.5-0.4,0.8-0.4h9.4c0.3,0,0.6,0.1,0.8,0.3c0.2,0.2,0.3,0.5,0.3,0.8c0,0.3-0.1,0.6-0.3,0.8c-0.2,0.2-0.5,0.3-0.8,0.3
				h-8.2v4.9h7.3c0.3,0,0.6,0.1,0.8,0.3c0.2,0.2,0.3,0.5,0.3,0.8c0,0.3-0.1,0.6-0.3,0.8c-0.2,0.2-0.5,0.3-0.8,0.3h-7.3v5h8.2
				c0.3,0,0.6,0.1,0.8,0.3c0.2,0.2,0.3,0.5,0.3,0.8c0,0.3-0.1,0.6-0.3,0.8c-0.2,0.2-0.5,0.3-0.8,0.3H256.6z"/>
			<path class="st2" d="M266-37.8c0.3,0,0.5,0.1,0.7,0.3c0.2,0.2,0.3,0.4,0.3,0.7c0,0.3-0.1,0.5-0.3,0.7c-0.2,0.2-0.4,0.3-0.7,0.3
				h-8.3v5.2h7.5c0.3,0,0.5,0.1,0.7,0.3c0.2,0.2,0.3,0.4,0.3,0.7c0,0.3-0.1,0.5-0.3,0.7c-0.2,0.2-0.4,0.3-0.7,0.3h-7.5v5.2h8.3
				c0.3,0,0.5,0.1,0.7,0.3c0.2,0.2,0.3,0.4,0.3,0.7c0,0.3-0.1,0.5-0.3,0.7c-0.2,0.2-0.4,0.3-0.7,0.3h-9.4c-0.3,0-0.5-0.1-0.8-0.3
				c-0.2-0.2-0.3-0.5-0.3-0.8v-14.2c0-0.3,0.1-0.6,0.3-0.8c0.2-0.2,0.5-0.3,0.8-0.3H266 M266-38h-9.4c-0.4,0-0.7,0.1-0.9,0.4
				c-0.2,0.3-0.4,0.6-0.4,0.9v14.2c0,0.4,0.1,0.7,0.4,0.9c0.2,0.3,0.6,0.4,0.9,0.4h9.4c0.3,0,0.6-0.1,0.9-0.3
				c0.2-0.2,0.4-0.5,0.4-0.9c0-0.3-0.1-0.6-0.4-0.9c-0.2-0.2-0.5-0.4-0.9-0.4h-8.1v-4.7h7.2c0.3,0,0.6-0.1,0.9-0.3
				c0.2-0.2,0.4-0.5,0.4-0.9c0-0.3-0.1-0.6-0.4-0.9c-0.2-0.2-0.5-0.4-0.9-0.4h-7.2v-4.7h8.1c0.3,0,0.6-0.1,0.9-0.4
				c0.2-0.2,0.4-0.5,0.4-0.9c0-0.3-0.1-0.6-0.4-0.9C266.6-37.9,266.3-38,266-38L266-38z"/>
		</g>
		<g>
			<path class="st3" d="M276.7-21.2c-0.7,0-1.2-0.4-1.6-1.2l-5.8-14c-0.1-0.1-0.1-0.3-0.1-0.4c0-0.4,0.1-0.7,0.3-0.9
				c0.2-0.2,0.5-0.3,0.9-0.3c0.2,0,0.5,0.1,0.7,0.2c0.2,0.1,0.3,0.3,0.5,0.6l5.4,13.4l5.4-13.4c0.1-0.2,0.3-0.4,0.5-0.6
				c0.2-0.1,0.4-0.2,0.7-0.2c0.4,0,0.7,0.1,0.9,0.3c0.2,0.2,0.3,0.5,0.3,0.9c0,0.2,0,0.3-0.1,0.4l-5.8,14c-0.4,0.8-0.9,1.2-1.6,1.2
				H276.7z"/>
			<path class="st3" d="M283.4-37.9c0.3,0,0.6,0.1,0.8,0.3c0.2,0.2,0.3,0.5,0.3,0.8c0,0.1,0,0.3-0.1,0.4l-5.8,14
				c-0.3,0.7-0.8,1.1-1.5,1.1h-0.5c-0.6,0-1.1-0.4-1.5-1.1l-5.8-14c0-0.1-0.1-0.3-0.1-0.4c0-0.3,0.1-0.6,0.3-0.8
				c0.2-0.2,0.4-0.3,0.8-0.3c0.2,0,0.4,0.1,0.6,0.2c0.2,0.1,0.3,0.3,0.4,0.5l5.5,13.7l5.5-13.7c0.1-0.2,0.2-0.4,0.4-0.5
				C283-37.8,283.2-37.9,283.4-37.9 M283.4-38.2c-0.3,0-0.5,0.1-0.7,0.2c-0.2,0.2-0.4,0.4-0.5,0.6l-5.3,13.2l-5.3-13.1
				c-0.1-0.3-0.3-0.5-0.5-0.6c-0.2-0.2-0.5-0.2-0.7-0.2c-0.4,0-0.7,0.1-1,0.4c-0.2,0.2-0.4,0.6-0.4,1c0,0.2,0,0.3,0.1,0.5l5.8,14
				c0.4,0.8,0.9,1.2,1.7,1.2h0.5c0.7,0,1.3-0.4,1.7-1.2l5.8-14c0.1-0.2,0.1-0.3,0.1-0.5c0-0.4-0.1-0.7-0.4-1
				C284.2-38,283.8-38.2,283.4-38.2L283.4-38.2z"/>
		</g>
		<g>
			<path class="st3" d="M289-21.2c-0.3,0-0.6-0.1-0.8-0.3c-0.2-0.2-0.3-0.5-0.3-0.8v-14.3c0-0.3,0.1-0.6,0.3-0.8
				c0.2-0.2,0.5-0.4,0.8-0.4h5.3c1.5,0,2.7,0.3,3.7,0.8c1,0.5,1.7,1.2,2.1,2c0.4,0.8,0.6,1.7,0.6,2.6s-0.2,1.8-0.6,2.6
				c-0.4,0.8-1.1,1.5-2.1,2c-0.9,0.5-2.2,0.8-3.7,0.8h-4.1v4.9c0,0.3-0.1,0.6-0.4,0.8C289.6-21.3,289.3-21.2,289-21.2z M294.1-29.5
				c1.6,0,2.7-0.3,3.3-0.9c0.6-0.6,0.9-1.3,0.9-2.2c0-0.9-0.3-1.6-0.9-2.2c-0.6-0.6-1.7-0.9-3.3-0.9h-3.9v6.1H294.1z"/>
			<path class="st3" d="M294.3-37.8c1.5,0,2.7,0.2,3.6,0.7c0.9,0.5,1.6,1.1,2,1.9c0.4,0.8,0.6,1.6,0.6,2.5s-0.2,1.7-0.6,2.5
				c-0.4,0.8-1.1,1.4-2,1.9c-0.9,0.5-2.1,0.7-3.6,0.7H290v5c0,0.3-0.1,0.5-0.3,0.7c-0.2,0.2-0.5,0.3-0.8,0.3c-0.3,0-0.5-0.1-0.8-0.3
				c-0.2-0.2-0.3-0.5-0.3-0.7v-14.3c0-0.3,0.1-0.6,0.3-0.8c0.2-0.2,0.5-0.3,0.8-0.3H294.3 M290-29.4h4.1c1.6,0,2.7-0.3,3.4-0.9
				c0.6-0.6,1-1.4,1-2.3s-0.3-1.7-1-2.3c-0.6-0.6-1.8-0.9-3.4-0.9H290V-29.4 M294.3-38H289c-0.4,0-0.7,0.1-0.9,0.4
				c-0.2,0.3-0.4,0.6-0.4,0.9v14.3c0,0.4,0.1,0.7,0.4,0.9c0.2,0.3,0.6,0.4,0.9,0.4c0.4,0,0.7-0.1,0.9-0.4c0.3-0.2,0.4-0.6,0.4-0.9
				v-4.8h4c1.5,0,2.8-0.3,3.7-0.8c1-0.5,1.7-1.2,2.1-2c0.4-0.8,0.6-1.7,0.6-2.6c0-0.9-0.2-1.8-0.6-2.6c-0.4-0.8-1.1-1.5-2.1-2
				C297.1-37.8,295.8-38,294.3-38L294.3-38z M290.3-35.5h3.8c1.5,0,2.6,0.3,3.2,0.8c0.6,0.6,0.9,1.2,0.9,2.1c0,0.8-0.3,1.5-0.9,2.1
				c-0.6,0.6-1.7,0.8-3.2,0.8h-3.8V-35.5L290.3-35.5z"/>
		</g>
		<g>
			<path class="st3" d="M316.7-21.2c-0.3,0-0.5-0.1-0.8-0.2c-0.2-0.1-0.4-0.3-0.6-0.5l-8.8-12.8v12.3c0,0.3-0.1,0.6-0.4,0.8
				c-0.2,0.2-0.5,0.3-0.8,0.3c-0.3,0-0.6-0.1-0.8-0.3c-0.2-0.2-0.3-0.5-0.3-0.8v-14c0-0.5,0.2-0.8,0.5-1.2c0.3-0.3,0.7-0.5,1.2-0.5
				h0.3c0.5,0,1,0.3,1.4,0.8l8.8,12.7v-12.3c0-0.3,0.1-0.6,0.3-0.8c0.2-0.2,0.5-0.4,0.8-0.4c0.3,0,0.6,0.1,0.9,0.4
				c0.2,0.2,0.4,0.5,0.4,0.8v14c0,0.5-0.2,0.8-0.5,1.2c-0.3,0.3-0.7,0.5-1.2,0.5H316.7z"/>
			<path class="st3" d="M317.4-37.9c0.3,0,0.6,0.1,0.8,0.3c0.2,0.2,0.3,0.5,0.3,0.8v14c0,0.4-0.2,0.8-0.5,1.1
				c-0.3,0.3-0.7,0.4-1.1,0.4h-0.3c-0.3,0-0.5-0.1-0.7-0.2c-0.2-0.1-0.4-0.3-0.5-0.5l-9.1-13.1v12.7c0,0.3-0.1,0.5-0.3,0.7
				c-0.2,0.2-0.5,0.3-0.8,0.3c-0.3,0-0.5-0.1-0.8-0.3c-0.2-0.2-0.3-0.5-0.3-0.7v-14c0-0.4,0.1-0.8,0.4-1.1c0.3-0.3,0.7-0.5,1.1-0.5
				h0.3c0.5,0,0.9,0.2,1.3,0.7l9,13v-12.7c0-0.3,0.1-0.6,0.3-0.8C316.9-37.8,317.1-37.9,317.4-37.9 M317.4-38.2
				c-0.4,0-0.7,0.1-0.9,0.4c-0.2,0.3-0.4,0.6-0.4,0.9V-25l-8.6-12.4c-0.4-0.5-0.9-0.8-1.5-0.8h-0.3c-0.5,0-0.9,0.2-1.3,0.5
				c-0.3,0.4-0.5,0.8-0.5,1.3v14c0,0.4,0.1,0.7,0.4,0.9c0.2,0.3,0.6,0.4,0.9,0.4c0.4,0,0.7-0.1,0.9-0.4c0.3-0.2,0.4-0.6,0.4-0.9
				v-11.9l8.6,12.4c0.2,0.2,0.4,0.4,0.6,0.5c0.3,0.1,0.5,0.2,0.8,0.2h0.3c0.5,0,0.9-0.2,1.3-0.5c0.4-0.3,0.5-0.8,0.5-1.3v-14
				c0-0.4-0.1-0.7-0.4-0.9C318.1-38,317.8-38.2,317.4-38.2L317.4-38.2z"/>
		</g>
	</g>
	<g>
		<path class="st9" d="M121.1-27.8c0,0,2.2-3.1,5.2-4.5c0,0,0.7,3.2,2,6c1.2,2.6,2.8,4.6,3.5,5c0,0,0,0.1,0,0.1
			c-2,2.1-6.6,2.6-6.5,2.5c2.1-1,3.7-2.4,3.7-2.4c-4.2-5.2-4.3-8.8-4.3-8.8C122.4-29.2,121.1-27.8,121.1-27.8z"/>
		<path class="st9" d="M129.3-32.9c0,0-0.1,1.5,1.5,5.6c1.1,2.8,3.2,4.2,3.3,4.1c2.1-1.8,3.4-4.2,2.9-6.6
			C135.9-35,131.1-34.1,129.3-32.9z"/>
		<path class="st9" d="M132.8-18.6l1.4,0.8l-3.6,2.2c0,0,3.2-1.2,4.9-2.1c8.8-4.5,10.4-14.3,10-19c0,0,0-0.3,0-0.3s0,0-0.1,0
			c-3.3,0.2-9-1.8-10.4-4.4c0,0-0.2-0.1-0.2-0.1s-1.2,1.6-3.5,2.9c-2,1.1-5.4,0.3-5.4,0.3l2.5,0.9l-4.2,0.5l-0.1,2.1
			c-1.9,1.8-3,3.8-3,3.8s0,0,0.1-0.1c4.1-3.8,7.9-5.4,8.6-5.7c0.7-0.2,2.9-1.1,5.5-0.7c2.3,0.3,3.4,2,4.1,2.8
			c1.3,1.6,3.5,9.2-2.1,13.5C134.1-18.9,132.8-18.6,132.8-18.6z"/>
	</g>
	<g>
		<path class="st10" d="M349.1-326.1l-4.9-2.8v-24.2l4.9-2.8h12.3l4.9,2.8v24.2l-4.9,2.8l4.7,8.2h-4.7l-4.6-8.2H349.1z M348.4-329.9
			h13.7v-22.3h-13.7V-329.9z"/>
		<path class="st10" d="M374.5-347.3h4.1v17.6h9.7v-17.6h4.1v21.2h-3.1l-1-1.7l-3,1.7h-5.9l-4.9-2.8V-347.3z"/>
		<path class="st10" d="M399.3-328.9v-6.8l4.9-2.8h7.6v-5.1h-10.4v-3.7h9.6l4.9,2.8v18.4h-1.1l-3-1.7l-3,1.7h-4.7L399.3-328.9z
			 M403.3-329.8h8.4v-5.2h-8.4V-329.8z"/>
		<path class="st10" d="M441.5-326.3h-4.1v-17.6h-9.7v17.6h-4.1v-21.2h3.1l1,1.7l3-1.7h5.9l4.9,2.8V-326.3z"/>
		<path class="st10" d="M447.6-347.3h3.9v-3.5l4.1-2.4v5.9h5v3.7h-5v13.7h5v3.7h-4.2l-4.9-2.8v-14.5h-3.9V-347.3z"/>
		<path class="st10" d="M467.3-357h4.5v4.5h-4.5V-357z M471.5-326.3h-4.1v-21h4.1V-326.3z"/>
		<path class="st10" d="M483.4-330h11.7v3.7h-10.9l-4.9-2.8v-15.4l4.9-2.8h10.9v3.7h-11.7V-330z"/>
		<path class="st10" d="M515-326.1h-8.1l-4.9-2.8v-15.8l4.9-2.8h8.1l4.9,2.8v15.8L515-326.1z M506.1-329.8h9.7v-14.1h-9.7V-329.8z"
			/>
	</g>
	<g>
		<path class="st10" d="M348-215.5h13v3.4H344v-30.1h4.1V-215.5z"/>
		<path class="st10" d="M381.6-212H380c-0.4,0-0.7-0.1-0.9-0.2c-0.2-0.1-0.4-0.3-0.4-0.7l-0.4-2c-0.6,0.5-1.1,1-1.6,1.4
			c-0.5,0.4-1.1,0.7-1.7,1s-1.2,0.5-1.9,0.6c-0.7,0.1-1.4,0.2-2.2,0.2c-0.8,0-1.6-0.1-2.3-0.3c-0.7-0.2-1.3-0.6-1.9-1
			c-0.5-0.5-1-1.1-1.3-1.8c-0.3-0.7-0.5-1.5-0.5-2.5c0-0.8,0.2-1.7,0.7-2.4s1.2-1.5,2.2-2.1s2.4-1.1,4-1.5c1.7-0.4,3.7-0.6,6.1-0.6
			v-1.7c0-1.7-0.4-2.9-1.1-3.8s-1.8-1.3-3.1-1.3c-0.9,0-1.7,0.1-2.3,0.3c-0.6,0.2-1.2,0.5-1.6,0.8c-0.5,0.3-0.8,0.5-1.2,0.8
			s-0.7,0.3-1,0.3c-0.3,0-0.5-0.1-0.7-0.2c-0.2-0.1-0.3-0.3-0.5-0.5l-0.7-1.2c1.2-1.1,2.4-2,3.8-2.5c1.4-0.6,2.9-0.8,4.5-0.8
			c1.2,0,2.2,0.2,3.2,0.6c0.9,0.4,1.7,0.9,2.3,1.6s1.1,1.5,1.4,2.5s0.5,2.1,0.5,3.3V-212z M371.9-214.3c0.7,0,1.3-0.1,1.8-0.2
			c0.5-0.1,1.1-0.3,1.5-0.6c0.5-0.2,0.9-0.5,1.4-0.9c0.4-0.3,0.9-0.7,1.3-1.2v-4.4c-1.7,0-3.2,0.1-4.4,0.3c-1.2,0.2-2.2,0.5-2.9,0.9
			c-0.8,0.4-1.3,0.8-1.6,1.2c-0.3,0.5-0.5,1-0.5,1.6c0,0.6,0.1,1,0.3,1.5s0.4,0.7,0.7,1c0.3,0.3,0.7,0.5,1.1,0.6
			S371.4-214.3,371.9-214.3z"/>
		<path class="st10" d="M394.8-211.7c-1.7,0-3-0.5-3.9-1.4c-0.9-0.9-1.4-2.3-1.4-4.1v-13H387c-0.2,0-0.4-0.1-0.6-0.2
			c-0.2-0.1-0.2-0.3-0.2-0.6v-1.5l3.5-0.4l0.9-6.6c0-0.2,0.1-0.4,0.3-0.5c0.2-0.1,0.3-0.2,0.6-0.2h1.9v7.3h6.1v2.7h-6.1v12.8
			c0,0.9,0.2,1.6,0.7,2s1,0.7,1.7,0.7c0.4,0,0.7-0.1,1-0.2s0.5-0.2,0.7-0.3s0.4-0.2,0.5-0.3c0.1-0.1,0.3-0.2,0.4-0.2
			c0.2,0,0.4,0.1,0.5,0.4l1.1,1.8c-0.6,0.6-1.4,1.1-2.3,1.4C396.7-211.9,395.8-211.7,394.8-211.7z"/>
		<path class="st10" d="M413.7-233.7c1.6,0,3,0.3,4.2,0.8c1.3,0.5,2.3,1.3,3.2,2.2s1.5,2.1,2,3.5c0.5,1.4,0.7,2.9,0.7,4.5
			c0,1.7-0.2,3.2-0.7,4.5c-0.5,1.3-1.1,2.5-2,3.4c-0.9,1-1.9,1.7-3.2,2.2c-1.3,0.5-2.7,0.8-4.2,0.8c-1.6,0-3-0.3-4.2-0.8
			c-1.3-0.5-2.3-1.2-3.2-2.2c-0.9-1-1.6-2.1-2-3.4c-0.5-1.3-0.7-2.9-0.7-4.5c0-1.7,0.2-3.2,0.7-4.5c0.5-1.4,1.2-2.5,2-3.5
			s1.9-1.7,3.2-2.2C410.7-233.4,412.1-233.7,413.7-233.7z M413.7-214.7c2.1,0,3.7-0.7,4.7-2.1c1-1.4,1.6-3.4,1.6-5.9
			c0-2.5-0.5-4.5-1.6-5.9s-2.6-2.1-4.7-2.1c-1.1,0-2,0.2-2.8,0.5c-0.8,0.4-1.4,0.9-2,1.6s-0.9,1.5-1.2,2.5c-0.3,1-0.4,2.1-0.4,3.4
			c0,1.3,0.1,2.4,0.4,3.4c0.3,1,0.7,1.8,1.2,2.5s1.2,1.2,2,1.6C411.7-214.9,412.6-214.7,413.7-214.7z"/>
	</g>
	<g>
		<path class="st10" d="M344.7-99c0-0.1,0-0.3,0.1-0.6l10-27.6c0.2-0.4,0.7-0.7,1.7-0.7h1.2c1,0,1.6,0.2,1.7,0.7l10,27.6
			c0.1,0.2,0.1,0.4,0.1,0.5c0,0.5-0.6,0.7-1.8,0.7h-0.3c-1,0-1.5-0.2-1.7-0.7l-2.5-6.9h-12.3l-2.4,6.9c-0.1,0.4-0.7,0.7-1.7,0.7
			h-0.2C345.3-98.3,344.7-98.6,344.7-99z M362-109.1l-4.4-12.5c-0.1-0.4-0.3-1.3-0.5-2.4H357c-0.2,1.1-0.4,1.9-0.6,2.4l-4.4,12.5
			H362z"/>
		<path class="st10" d="M375.8-98.5c-1-0.3-1.8-0.7-2.4-1.1c-0.6-0.4-0.9-0.8-0.9-1.1c0-0.3,0.2-0.7,0.5-1.3
			c0.3-0.6,0.7-0.8,0.9-0.8c0.1,0,0.3,0.2,0.8,0.5c0.5,0.3,1.1,0.6,1.8,0.8c0.7,0.3,1.5,0.4,2.4,0.4c2.7,0,4.1-1.1,4.1-3.4
			c0-1-0.3-1.7-0.9-2.3c-0.6-0.6-1.7-1.1-3.3-1.5c-2.2-0.6-3.7-1.4-4.6-2.4c-0.8-1-1.3-2.3-1.3-3.9c0-1.2,0.3-2.2,0.9-3.2
			c0.6-0.9,1.4-1.6,2.5-2.2c1-0.5,2.2-0.8,3.6-0.8c1.4,0,2.7,0.2,3.8,0.5s1.7,0.8,1.7,1.3c0,0.4-0.2,0.8-0.5,1.4
			c-0.3,0.6-0.6,0.9-0.9,0.9c-0.1,0-0.5-0.2-1.1-0.6c-0.7-0.3-1.6-0.5-2.7-0.5c-1.1,0-2,0.2-2.7,0.7c-0.7,0.5-1.1,1.1-1.1,1.9
			c0,1,0.3,1.7,0.8,2.3c0.5,0.6,1.3,1,2.5,1.4c1.8,0.6,3.2,1.1,4.1,1.7c0.9,0.5,1.6,1.2,2,2c0.4,0.8,0.6,1.8,0.6,3.1
			c0,1.2-0.3,2.3-1,3.3c-0.7,1-1.6,1.8-2.7,2.4c-1.1,0.6-2.4,0.9-3.8,0.9C378-98,376.9-98.2,375.8-98.5z"/>
		<path class="st10" d="M393.5-99.8c-1.3-1.1-2-2.6-2-4.7c0-2.2,0.7-3.9,2-5c1.3-1.1,3-1.8,4.9-2.1c1.9-0.3,4.3-0.5,7.1-0.5v-2
			c0-1-0.4-1.9-1.1-2.5c-0.7-0.7-1.9-1-3.5-1c-1.2,0-2.3,0.1-3.2,0.4c-0.9,0.3-1.7,0.6-2.3,0.9c-0.6,0.3-1,0.4-1,0.4
			c-0.3,0-0.6-0.3-0.9-0.8c-0.4-0.6-0.5-1-0.5-1.3c0-0.4,0.4-0.8,1.1-1.2s1.7-0.8,3-1.1c1.2-0.3,2.5-0.4,3.8-0.4
			c2.6,0,4.6,0.6,6.1,1.7s2.2,2.8,2.2,4.9v9.4c0,1.8,0.1,3.2,0.3,4s0.3,1.2,0.3,1.3c0,0.3-0.3,0.6-0.8,0.7c-0.5,0.2-1,0.2-1.5,0.2
			c-0.4,0-0.7-0.2-0.9-0.7c-0.2-0.4-0.3-0.9-0.4-1.4c-0.1-0.5-0.2-0.8-0.2-0.9c-1.9,2.1-4.3,3.2-7.1,3.2
			C396.5-98.2,394.8-98.7,393.5-99.8z M402.4-102c1-0.5,2-1.2,3-2.1v-5c-2.1,0-3.8,0.1-5.1,0.3c-1.3,0.1-2.5,0.5-3.5,1.2
			c-1,0.6-1.5,1.6-1.5,3c0,1.1,0.3,2,0.9,2.6c0.6,0.6,1.5,0.9,2.7,0.9C400.2-101.2,401.4-101.5,402.4-102z"/>
		<path class="st10" d="M417-90.6V-114c0-1.8-0.1-3.2-0.3-4c-0.2-0.8-0.3-1.2-0.3-1.3c0-0.3,0.3-0.6,0.8-0.7c0.5-0.2,1-0.2,1.5-0.2
			c0.4,0,0.7,0.2,0.9,0.6c0.2,0.4,0.3,0.8,0.4,1.3c0.1,0.4,0.2,0.7,0.2,0.9c2-2.1,4.2-3.1,6.7-3.1c1.7,0,3.2,0.5,4.4,1.4
			c1.2,1,2.1,2.3,2.8,4c0.6,1.7,1,3.6,1,5.8c0,2.4-0.4,4.4-1.1,6.1c-0.7,1.7-1.7,3-3,3.8s-2.8,1.3-4.5,1.3c-1.2,0-2.3-0.2-3.3-0.5
			c-0.9-0.4-1.9-0.9-2.8-1.6v9.7c0,0.6-0.6,0.9-1.7,0.9h-0.2C417.5-89.7,417-90,417-90.6z M429.9-103.3c1-1.3,1.4-3.3,1.4-5.8
			c0-2.7-0.4-4.8-1.3-6.3c-0.9-1.5-2.2-2.2-3.8-2.2c-1,0-1.9,0.3-2.9,0.8s-1.9,1.2-2.8,2.1v11.5c1.5,1.3,3.2,1.9,5.2,1.9
			C427.6-101.3,429-101.9,429.9-103.3z"/>
	</g>
	
		<image style="overflow:visible;" width="400" height="392" xlink:href="../../../../../Portfolio 2018/img/brand-demos/logo-shred4less.png"  transform="matrix(0.48 0 0 0.48 543.5 -27)">
	</image>
	<g>
		<path class="st10" d="M556.7-162.5l0.4-1.6c0.4,0.2,0.9,0.4,1.5,0.6c0.6,0.2,1.1,0.3,1.6,0.3c0.8,0,1.4-0.1,1.8-0.4
			c0.4-0.3,0.6-0.7,0.6-1.1c0-0.3-0.1-0.6-0.3-0.9c-0.2-0.3-0.5-0.5-0.9-0.7c-0.4-0.2-0.9-0.5-1.5-0.8c-1.1-0.6-2-1.1-2.5-1.7
			c-0.6-0.6-0.9-1.3-0.9-2.1c0-0.6,0.2-1.2,0.5-1.6s0.8-0.9,1.4-1.2c0.6-0.3,1.3-0.4,2.2-0.4c0.6,0,1.1,0.1,1.7,0.2s1.1,0.4,1.6,0.6
			l-0.7,1.6c-0.5-0.2-0.9-0.4-1.3-0.5c-0.4-0.1-0.8-0.2-1.3-0.2c-0.6,0-1.1,0.1-1.5,0.4c-0.4,0.2-0.6,0.6-0.6,1.1
			c0,0.3,0.1,0.6,0.3,0.9s0.5,0.5,0.8,0.7s0.9,0.5,1.6,0.9c0.8,0.4,1.4,0.8,1.8,1.1c0.5,0.3,0.8,0.7,1.1,1.2s0.4,1,0.4,1.6
			c0,0.6-0.2,1.2-0.5,1.7c-0.3,0.5-0.9,0.9-1.5,1.2c-0.7,0.3-1.5,0.4-2.4,0.4c-0.5,0-1.2-0.1-1.9-0.3S557-162.3,556.7-162.5z"/>
		<path class="st10" d="M568.7-161.8h-2v-8.7h1.3l0.4,1c0.5-0.4,1.1-0.7,1.7-1c0.6-0.2,1.2-0.4,1.7-0.4c1,0,1.8,0.3,2.2,0.9
			c0.5,0.6,0.7,1.4,0.7,2.5v5.6h-2v-5.5c0-1.2-0.5-1.8-1.3-1.8c-0.7,0-1.6,0.4-2.6,1.2V-161.8z"/>
		<path class="st10" d="M585-163.8c-0.4,0.7-0.9,1.2-1.6,1.6c-0.7,0.4-1.5,0.6-2.4,0.6c-0.9,0-1.7-0.2-2.4-0.6
			c-0.7-0.4-1.2-0.9-1.6-1.6c-0.4-0.7-0.5-1.5-0.5-2.4c0-0.9,0.2-1.7,0.5-2.4c0.4-0.7,0.9-1.2,1.6-1.6s1.5-0.6,2.4-0.6
			c0.9,0,1.7,0.2,2.4,0.6c0.7,0.4,1.2,0.9,1.6,1.6c0.4,0.7,0.5,1.5,0.5,2.4S585.4-164.5,585-163.8z M582.8-164.1
			c0.5-0.5,0.7-1.2,0.7-2c0-0.9-0.2-1.5-0.7-2.1c-0.4-0.5-1-0.8-1.8-0.8c-0.7,0-1.3,0.3-1.8,0.8c-0.4,0.5-0.7,1.2-0.7,2.1
			c0,0.9,0.2,1.5,0.7,2.1c0.4,0.5,1,0.8,1.8,0.8C581.7-163.3,582.3-163.6,582.8-164.1z"/>
		<path class="st10" d="M594.5-161.8l-1.8-5.8l-1.7,5.8h-1.8l-2.6-8.4l2-0.6l1.6,5.9l1.5-5.6h2.2l1.6,5.6l1.5-5.6h2.1l-2.8,8.7
			H594.5z"/>
	</g>
	<g>
		<path class="st11" d="M691.8-162.5l0.4-1.6c0.4,0.2,0.9,0.4,1.5,0.6c0.6,0.2,1.1,0.3,1.6,0.3c0.8,0,1.4-0.1,1.8-0.4
			c0.4-0.3,0.6-0.7,0.6-1.1c0-0.3-0.1-0.6-0.3-0.9c-0.2-0.3-0.5-0.5-0.9-0.7c-0.4-0.2-0.9-0.5-1.5-0.8c-1.1-0.6-2-1.1-2.5-1.7
			c-0.6-0.6-0.9-1.3-0.9-2.1c0-0.6,0.2-1.2,0.5-1.6s0.8-0.9,1.4-1.2c0.6-0.3,1.3-0.4,2.2-0.4c0.6,0,1.1,0.1,1.7,0.2s1.1,0.4,1.6,0.6
			l-0.7,1.6c-0.5-0.2-0.9-0.4-1.3-0.5c-0.4-0.1-0.8-0.2-1.3-0.2c-0.6,0-1.1,0.1-1.5,0.4c-0.4,0.2-0.6,0.6-0.6,1.1
			c0,0.3,0.1,0.6,0.3,0.9s0.5,0.5,0.8,0.7s0.9,0.5,1.6,0.9c0.8,0.4,1.4,0.8,1.8,1.1c0.5,0.3,0.8,0.7,1.1,1.2s0.4,1,0.4,1.6
			c0,0.6-0.2,1.2-0.5,1.7c-0.3,0.5-0.9,0.9-1.5,1.2c-0.7,0.3-1.5,0.4-2.4,0.4c-0.5,0-1.2-0.1-1.9-0.3S692.1-162.3,691.8-162.5z"/>
		<path class="st11" d="M707.6-170.5h2v8.7h-1.4l-0.4-1c-0.5,0.4-1.1,0.7-1.7,1c-0.6,0.2-1.2,0.4-1.7,0.4c-1.9,0-2.9-1.1-2.9-3.4
			v-5.6h2v5.5c0,1.2,0.5,1.8,1.3,1.8c0.7,0,1.6-0.4,2.6-1.2V-170.5z"/>
		<path class="st11" d="M714.2-161.8h-2v-8.7h1.1l0.7,1.4c0.4-0.4,0.9-0.7,1.5-1c0.6-0.3,1-0.5,1.5-0.5l0.4,1.6
			c-0.4,0-0.9,0.2-1.5,0.5c-0.6,0.3-1.1,0.7-1.6,1.1V-161.8z"/>
		<path class="st11" d="M718.1-168.9v-1.5h1.3v-0.9c0-0.9,0.3-1.7,0.8-2.2c0.5-0.5,1.3-0.8,2.3-0.8c0.3,0,0.6,0,0.9,0.1
			c0.3,0.1,0.6,0.2,0.7,0.3l-0.6,1.5c-0.4-0.1-0.7-0.2-0.9-0.2c-0.4,0-0.7,0.1-0.9,0.4c-0.2,0.3-0.3,0.7-0.3,1.1v0.7h1.6l0.6,1.5
			h-2.3v7.1h-2v-7.1H718.1z"/>
	</g>
	<g>
		<path class="st5" d="M854.8-26c-33.4,0-60.5,27.1-60.5,60.5c0,33.4,27.1,60.5,60.5,60.5c33.4,0,60.5-27.1,60.5-60.5
			C915.3,1.1,888.2-26,854.8-26z M909.4,13.2c1.8,4.5,3,9.2,3.5,14l-1.2,0.1c-0.6-4.7-1.8-9.3-3.5-13.7L909.4,13.2z M898-5.1
			c3.3,3.6,6.1,7.5,8.4,11.7l-1.1,0.6c-2.2-4.1-5-8-8.2-11.5L898-5.1z M880.8-18.1c4.3,2.1,8.4,4.8,12,8L892-9.2
			c-3.6-3.1-7.5-5.7-11.8-7.8L880.8-18.1z M860.1-23.9c4.8,0.4,9.5,1.5,14.1,3l-0.4,1.2c-4.4-1.6-9.1-2.6-13.8-3L860.1-23.9z
			 M852.8-24.1l0,1.2c-4.7,0.2-9.4,0.9-13.9,2.2l-0.3-1.2C843.2-23.2,848-24,852.8-24.1z M831.8-19.5l0.5,1.1
			c-4.3,1.8-8.4,4.2-12.2,7.1l-0.7-1C823.2-15.2,827.4-17.6,831.8-19.5z M813.9-7.6l0.8,0.9c-3.4,3.3-6.4,7-8.8,11l-1-0.6
			C807.4-0.4,810.4-4.2,813.9-7.6z M801.4,10l1.1,0.5c-2,4.3-3.4,8.8-4.3,13.5l-1.2-0.2C797.9,19,799.4,14.4,801.4,10z M797.1,45.3
			c-0.7-3.6-1-7.2-1-10.8c0-1.2,0-2.4,0.1-3.5l1.2,0.1c-0.1,1.2-0.1,2.3-0.1,3.5c0,3.6,0.3,7.1,1,10.6L797.1,45.3z M804.9,65.4
			c-2.5-4.1-4.6-8.5-6-13.1L800,52c1.4,4.5,3.4,8.8,5.9,12.8L804.9,65.4z M819.4,81.3c-3.8-2.9-7.3-6.3-10.4-10l1-0.8
			c3,3.7,6.4,7,10.1,9.8L819.4,81.3z M838.7,90.9c-4.6-1.3-9.1-3.2-13.3-5.6l0.6-1.1c4.1,2.4,8.5,4.2,13,5.5L838.7,90.9z M843,75
			c-4.4,0-9.6,0.3-15.7,0.9v-1.3c3.4-1,5.9-3.2,7.4-6.3c1.5-3.1,2.2-8.3,2.2-15.4V16c0-6.8-0.9-11.5-2.7-14.2
			c-1.8-2.6-4.1-4.3-6.9-4.9v-1.4c5.3,0.4,10.5,0.7,15.7,0.9V75L843,75L843,75z M854.8,93.2c-3,0-6-0.2-9-0.7l0.2-1.2
			c4.6,0.7,9.4,0.9,14.1,0.4l0.1,1.2C858.4,93.1,856.6,93.2,854.8,93.2z M867.3,91.8l-0.3-1.2c4.6-1,9.1-2.6,13.3-4.7l0.5,1.1
			C876.6,89.2,872,90.8,867.3,91.8z M872.4,38.2h-17.7v17.3c0,11.2,3.4,17.6,10.3,19v1.3c-7.1-0.6-11.5-0.9-13.4-0.9h-3V-3.7h18.5
			c5.4,0,12.4-0.3,21.2-0.9c0,1.3-0.1,3-0.1,5.1c0,1.2,0.1,3.4,0.2,6.7c0.2,3.6,0.2,5.5,0.2,5.7v1.9h-1.6c-1.4-9-5.6-13.4-12.7-13.4
			h-14.5c-1.6,0-3.1,0.2-4.4,0.7c-0.7,3.9-1,9.2-1,15.7v15.4h13.1c5.6,0,9.7-0.7,12.3-2.1c2.5-1.3,4.2-3.8,4.9-7.2h1.6
			c-0.3,5.4-0.5,9.1-0.5,11.1c0,1.2,0.1,3.4,0.2,6.3c0.2,2.8,0.3,4.9,0.3,6.1V50H885C884.8,42.1,880.6,38.2,872.4,38.2z M887.2,83.4
			l-0.7-1c3.9-2.6,7.5-5.7,10.7-9.2l0.9,0.8C894.9,77.6,891.2,80.7,887.2,83.4z M902.6,68.4l-1-0.7c2.7-3.9,5-8,6.7-12.4l1.1,0.4
			C907.7,60.2,905.4,64.5,902.6,68.4z M911.7,48.8l-1.2-0.3c1.1-4.6,1.7-9.3,1.7-14v-0.1h1.2v0.1C913.4,39.3,912.8,44.1,911.7,48.8z
			"/>
	</g>
	<g>
		<path class="st5" d="M791.3,139.3v-10.8c0-0.2,0.1-0.4,0.2-0.5c0.1-0.1,0.3-0.1,0.5-0.1h5.5c0.2,0,0.3,0.1,0.3,0.2
			c0.1,0.1,0.1,0.3,0.1,0.6v0.4c0,0.3,0,0.4-0.1,0.6c-0.1,0.1-0.2,0.2-0.3,0.2h-3.9v3h3.7c0.2,0,0.3,0.1,0.3,0.2
			c0.1,0.1,0.1,0.3,0.1,0.6v0.4c0,0.3,0,0.4-0.1,0.6c-0.1,0.1-0.2,0.2-0.3,0.2h-3.7v4.7c0,0.2-0.1,0.3-0.2,0.4
			c-0.1,0.1-0.4,0.1-0.7,0.1h-0.4C791.6,139.8,791.3,139.7,791.3,139.3z"/>
		<path class="st5" d="M805.8,138.4c-0.9-1-1.4-2.5-1.4-4.5c0-2,0.5-3.5,1.4-4.5c0.9-1,2.3-1.6,4-1.6c1.7,0,3.1,0.5,4,1.5
			c0.9,1,1.4,2.5,1.4,4.5c0,2-0.5,3.5-1.4,4.5c-0.9,1-2.3,1.6-4,1.6C808,139.9,806.7,139.4,805.8,138.4z M812,136.9
			c0.5-0.7,0.8-1.8,0.8-3.1c0-1.4-0.3-2.4-0.8-3.1c-0.5-0.7-1.3-1.1-2.3-1.1s-1.8,0.4-2.3,1.1c-0.5,0.7-0.8,1.7-0.8,3.1
			c0,1.4,0.3,2.4,0.8,3.1c0.5,0.7,1.3,1.1,2.3,1.1C810.8,138,811.5,137.7,812,136.9z"/>
		<path class="st5" d="M823.3,139.7c-0.6-0.2-1.1-0.4-1.4-0.6c-0.3-0.2-0.4-0.4-0.4-0.6c0-0.2,0.1-0.5,0.3-0.8s0.4-0.5,0.6-0.5
			c0.1,0,0.2,0.1,0.4,0.2c0.4,0.2,0.7,0.3,1,0.4s0.7,0.2,1.2,0.2c0.5,0,0.9-0.1,1.3-0.4c0.3-0.2,0.5-0.6,0.5-1.1
			c0-0.3-0.1-0.6-0.3-0.8s-0.4-0.4-0.7-0.5c-0.3-0.1-0.6-0.3-1.1-0.5l-0.6-0.3c-0.5-0.2-1-0.5-1.3-0.7c-0.4-0.3-0.6-0.6-0.9-1
			s-0.3-1-0.3-1.6c0-0.7,0.2-1.3,0.5-1.8c0.4-0.5,0.8-0.9,1.4-1.1c0.6-0.3,1.3-0.4,2-0.4c0.5,0,1,0.1,1.5,0.2
			c0.5,0.1,0.8,0.3,1.1,0.5c0.2,0.2,0.4,0.3,0.4,0.5c0,0.2-0.1,0.5-0.3,0.8c-0.2,0.3-0.4,0.5-0.5,0.5c-0.1,0-0.1,0-0.3-0.1
			c-0.1-0.1-0.2-0.1-0.3-0.1c-0.5-0.2-0.9-0.3-1.4-0.3c-0.6,0-1.1,0.1-1.4,0.4c-0.3,0.2-0.4,0.6-0.4,0.9c0,0.3,0.1,0.6,0.3,0.8
			c0.2,0.2,0.4,0.4,0.6,0.5s0.6,0.3,1.1,0.5c0.6,0.3,1.2,0.5,1.6,0.8c0.4,0.3,0.8,0.6,1.1,1.1c0.3,0.5,0.5,1,0.5,1.8
			c0,1.2-0.4,2.1-1.1,2.7c-0.7,0.6-1.6,0.9-2.7,0.9C824.6,139.9,823.9,139.8,823.3,139.7z"/>
		<path class="st5" d="M838.2,139.3v-9.5h-2.9c-0.2,0-0.3-0.1-0.3-0.2c-0.1-0.1-0.1-0.3-0.1-0.6v-0.4c0-0.3,0-0.4,0.1-0.6
			c0.1-0.1,0.2-0.2,0.3-0.2h8c0.2,0,0.3,0.1,0.3,0.2c0.1,0.1,0.1,0.3,0.1,0.6v0.4c0,0.3,0,0.4-0.1,0.6c-0.1,0.1-0.2,0.2-0.3,0.2
			h-2.9v9.5c0,0.3-0.3,0.5-0.9,0.5h-0.4C838.5,139.8,838.2,139.7,838.2,139.3z"/>
		<path class="st5" d="M850.7,139.6c-0.1-0.1-0.2-0.3-0.2-0.5v-10.6c0-0.2,0.1-0.4,0.2-0.5c0.1-0.1,0.3-0.1,0.5-0.1h6
			c0.2,0,0.3,0.1,0.3,0.2c0.1,0.1,0.1,0.3,0.1,0.6v0.4c0,0.3,0,0.4-0.1,0.6c-0.1,0.1-0.2,0.2-0.3,0.2h-4.4v3h3.9
			c0.2,0,0.3,0.1,0.3,0.2c0.1,0.1,0.1,0.3,0.1,0.6v0.4c0,0.3,0,0.4-0.1,0.6c-0.1,0.1-0.2,0.2-0.3,0.2h-3.9v3.2h4.4
			c0.2,0,0.3,0.1,0.3,0.2c0.1,0.1,0.1,0.3,0.1,0.6v0.4c0,0.3,0,0.4-0.1,0.6c-0.1,0.1-0.2,0.2-0.3,0.2h-6
			C850.9,139.8,850.8,139.8,850.7,139.6z"/>
		<path class="st5" d="M864.8,139.3v-10.8c0-0.2,0-0.4,0.1-0.5c0.1-0.1,0.3-0.2,0.5-0.2h3.2c1.4,0,2.5,0.3,3.2,0.8
			c0.7,0.5,1,1.3,1,2.3c0,0.7-0.2,1.2-0.5,1.7c-0.4,0.5-0.8,0.8-1.4,1.1v0.1c0.2,0.1,0.5,0.3,0.7,0.6s0.4,0.7,0.6,1.1l1.4,3.6
			c0,0.2,0.1,0.3,0.1,0.3c0,0.2-0.3,0.3-0.9,0.3h-0.5c-0.5,0-0.8-0.1-0.9-0.3l-1.3-3.3c-0.2-0.5-0.4-0.8-0.7-1
			c-0.3-0.2-0.7-0.3-1.3-0.3h-1v4.4c0,0.3-0.3,0.5-0.9,0.5h-0.4C865.1,139.8,864.8,139.7,864.8,139.3z M868.9,133
			c0.4,0,0.8-0.2,1.1-0.5c0.3-0.3,0.5-0.7,0.5-1.2c0-0.5-0.2-0.9-0.5-1.1c-0.3-0.3-0.7-0.4-1.3-0.4h-1.7v3.2H868.9z"/>
		<path class="st5" d="M880.2,139.3v-11c0-0.3,0.3-0.5,0.9-0.5h0.4c0.6,0,0.9,0.2,0.9,0.5v11c0,0.3-0.3,0.5-0.9,0.5h-0.4
			C880.5,139.9,880.2,139.7,880.2,139.3z"/>
		<path class="st5" d="M890.2,139.3v-11c0-0.3,0.3-0.5,0.9-0.5h0.6c0.2,0,0.5,0,0.6,0.1c0.2,0.1,0.3,0.2,0.4,0.3l4.4,6.6
			c0.2,0.3,0.4,0.7,0.6,1l0.1,0c0-0.3,0-0.6,0-1.2v-6.4c0-0.3,0.3-0.5,0.9-0.5h0.4c0.6,0,0.9,0.2,0.9,0.5v11c0,0.3-0.3,0.5-0.9,0.5
			h-0.5c-0.2,0-0.4,0-0.6-0.1s-0.3-0.2-0.4-0.3l-4.5-6.8c-0.2-0.4-0.4-0.7-0.6-1l-0.1,0c0,0.3,0,0.6,0,1.2v6.5
			c0,0.3-0.3,0.5-0.9,0.5h-0.4C890.5,139.8,890.2,139.7,890.2,139.3z"/>
		<path class="st5" d="M916.3,133.5c0.1,0.1,0.2,0.3,0.2,0.5v4.7c0,0.5-0.4,0.8-1.2,1c-0.8,0.2-1.7,0.3-2.7,0.3
			c-1.8,0-3.2-0.5-4.1-1.5c-0.9-1-1.4-2.5-1.4-4.6c0-4.1,1.9-6.1,5.6-6.1c0.5,0,1.1,0.1,1.6,0.2c0.5,0.1,1,0.2,1.4,0.4
			c0.4,0.2,0.5,0.4,0.5,0.6c0,0.1-0.1,0.3-0.2,0.5c-0.1,0.2-0.2,0.4-0.4,0.6s-0.3,0.3-0.4,0.3c0,0-0.2-0.1-0.4-0.2s-0.5-0.2-0.9-0.3
			s-0.8-0.1-1.3-0.1c-1.1,0-2,0.3-2.5,1c-0.5,0.7-0.8,1.7-0.8,3.1c0,2.8,1.1,4.2,3.2,4.2c0.6,0,1.1-0.1,1.6-0.2v-2.6h-1.7
			c-0.2,0-0.3-0.1-0.3-0.2c-0.1-0.1-0.1-0.3-0.1-0.6v-0.4c0-0.3,0-0.4,0.1-0.6c0.1-0.1,0.2-0.2,0.3-0.2h3.3
			C916,133.4,916.1,133.4,916.3,133.5z"/>
		<path class="st5" d="M809.5,164.5v-11c0-0.2,0-0.3,0.1-0.4c0.1-0.1,0.2-0.1,0.4-0.1h5.4c0.1,0,0.2,0,0.3,0.1
			c0.1,0.1,0.1,0.2,0.1,0.4v0.3c0,0.2,0,0.3-0.1,0.4c-0.1,0.1-0.1,0.1-0.3,0.1H811v3.9h4.1c0.1,0,0.2,0,0.3,0.1
			c0.1,0.1,0.1,0.2,0.1,0.4v0.3c0,0.2,0,0.3-0.1,0.4s-0.1,0.1-0.3,0.1H811v5.1c0,0.2-0.2,0.4-0.7,0.4h-0.1
			C809.7,164.8,809.5,164.7,809.5,164.5z"/>
		<path class="st5" d="M823.2,164.5v-11.2c0-0.3,0.2-0.4,0.7-0.4h0.1c0.5,0,0.7,0.1,0.7,0.4v11.2c0,0.2-0.2,0.4-0.7,0.4h-0.1
			C823.4,164.8,823.2,164.7,823.2,164.5z"/>
		<path class="st5" d="M835.4,164.5v-10.3h-3.3c-0.1,0-0.2,0-0.3-0.1c-0.1-0.1-0.1-0.2-0.1-0.4v-0.3c0-0.2,0-0.3,0.1-0.4
			c0.1-0.1,0.1-0.1,0.3-0.1h8c0.1,0,0.2,0,0.3,0.1c0.1,0.1,0.1,0.2,0.1,0.4v0.3c0,0.2,0,0.3-0.1,0.4c-0.1,0.1-0.1,0.1-0.3,0.1h-3.2
			v10.3c0,0.2-0.2,0.4-0.7,0.4H836C835.6,164.8,835.4,164.7,835.4,164.5z"/>
		<path class="st5" d="M847.4,164.5v-11.2c0-0.3,0.2-0.4,0.7-0.4h0.4c0.2,0,0.3,0,0.4,0.1c0.1,0,0.2,0.1,0.3,0.3l5.3,8.1
			c0.2,0.3,0.4,0.6,0.6,1l0.1,0c0-0.3,0-0.6,0-1.2v-7.9c0-0.3,0.2-0.4,0.7-0.4h0.1c0.5,0,0.7,0.1,0.7,0.4v11.2
			c0,0.2-0.2,0.4-0.7,0.4h-0.3c-0.3,0-0.5-0.1-0.6-0.2l-5.5-8.3c-0.2-0.3-0.4-0.6-0.6-1l-0.1,0c0,0.3,0,0.6,0,1.2v8
			c0,0.2-0.2,0.4-0.7,0.4h-0.1C847.6,164.8,847.4,164.7,847.4,164.5z"/>
		<path class="st5" d="M864.9,164.7c-0.1-0.1-0.1-0.2-0.1-0.4v-10.9c0-0.2,0-0.3,0.1-0.4c0.1-0.1,0.2-0.1,0.4-0.1h5.9
			c0.1,0,0.2,0,0.3,0.1c0.1,0.1,0.1,0.2,0.1,0.4v0.3c0,0.2,0,0.3-0.1,0.4c-0.1,0.1-0.1,0.1-0.3,0.1h-4.9v3.9h4.4
			c0.1,0,0.2,0,0.3,0.1c0.1,0.1,0.1,0.2,0.1,0.4v0.3c0,0.2,0,0.3-0.1,0.4s-0.1,0.1-0.3,0.1h-4.4v4.1h5c0.1,0,0.2,0,0.3,0.1
			c0.1,0.1,0.1,0.2,0.1,0.4v0.3c0,0.2,0,0.3-0.1,0.4c-0.1,0.1-0.1,0.1-0.3,0.1h-6C865.1,164.8,865,164.8,864.9,164.7z"/>
		<path class="st5" d="M879.8,164.7c-0.6-0.2-1-0.4-1.3-0.6c-0.2-0.2-0.3-0.3-0.3-0.4c0-0.1,0.1-0.3,0.2-0.6s0.3-0.4,0.4-0.4
			c0,0,0.2,0.1,0.4,0.2c0.4,0.2,0.7,0.4,1.1,0.5c0.4,0.1,0.9,0.2,1.4,0.2c0.7,0,1.2-0.2,1.6-0.6c0.4-0.4,0.6-0.9,0.6-1.5
			c0-0.4-0.1-0.8-0.3-1c-0.2-0.3-0.5-0.5-0.8-0.7c-0.3-0.2-0.8-0.4-1.4-0.6c-0.7-0.3-1.2-0.5-1.6-0.7c-0.4-0.2-0.7-0.5-1-1
			c-0.3-0.4-0.4-1-0.4-1.7c0-0.6,0.2-1.2,0.5-1.6c0.3-0.5,0.8-0.8,1.3-1.1s1.2-0.4,2-0.4c0.4,0,0.8,0.1,1.3,0.2
			c0.5,0.1,0.8,0.3,1.1,0.4c0.2,0.1,0.3,0.3,0.3,0.4c0,0.1-0.1,0.3-0.2,0.5s-0.3,0.4-0.3,0.4c-0.1,0-0.1,0-0.2-0.1
			c-0.1-0.1-0.2-0.1-0.2-0.1c-0.6-0.3-1.2-0.4-1.8-0.4c-0.7,0-1.2,0.2-1.6,0.5c-0.4,0.3-0.6,0.8-0.6,1.4c0,0.4,0.1,0.7,0.3,0.9
			c0.2,0.2,0.4,0.4,0.7,0.5c0.3,0.1,0.7,0.3,1.3,0.6c0.7,0.3,1.2,0.5,1.7,0.8c0.4,0.2,0.8,0.6,1.1,1.1c0.3,0.5,0.5,1,0.5,1.8
			c0,1-0.3,1.8-1,2.4c-0.7,0.6-1.6,0.9-2.8,0.9C881,164.9,880.4,164.8,879.8,164.7z"/>
		<path class="st5" d="M893.4,164.7c-0.6-0.2-1-0.4-1.3-0.6c-0.2-0.2-0.3-0.3-0.3-0.4c0-0.1,0.1-0.3,0.2-0.6s0.3-0.4,0.4-0.4
			c0,0,0.2,0.1,0.4,0.2c0.4,0.2,0.7,0.4,1.1,0.5c0.4,0.1,0.9,0.2,1.4,0.2c0.7,0,1.2-0.2,1.6-0.6c0.4-0.4,0.6-0.9,0.6-1.5
			c0-0.4-0.1-0.8-0.3-1c-0.2-0.3-0.5-0.5-0.8-0.7c-0.3-0.2-0.8-0.4-1.4-0.6c-0.7-0.3-1.2-0.5-1.6-0.7c-0.4-0.2-0.7-0.5-1-1
			c-0.3-0.4-0.4-1-0.4-1.7c0-0.6,0.2-1.2,0.5-1.6c0.3-0.5,0.8-0.8,1.3-1.1s1.2-0.4,2-0.4c0.4,0,0.8,0.1,1.3,0.2
			c0.5,0.1,0.8,0.3,1.1,0.4c0.2,0.1,0.3,0.3,0.3,0.4c0,0.1-0.1,0.3-0.2,0.5s-0.3,0.4-0.3,0.4c-0.1,0-0.1,0-0.2-0.1
			c-0.1-0.1-0.2-0.1-0.2-0.1c-0.6-0.3-1.2-0.4-1.8-0.4c-0.7,0-1.2,0.2-1.6,0.5c-0.4,0.3-0.6,0.8-0.6,1.4c0,0.4,0.1,0.7,0.3,0.9
			c0.2,0.2,0.4,0.4,0.7,0.5c0.3,0.1,0.7,0.3,1.3,0.6c0.7,0.3,1.2,0.5,1.7,0.8c0.4,0.2,0.8,0.6,1.1,1.1c0.3,0.5,0.5,1,0.5,1.8
			c0,1-0.3,1.8-1,2.4c-0.7,0.6-1.6,0.9-2.8,0.9C894.6,164.9,894,164.8,893.4,164.7z"/>
	</g>
	<rect x="344.8" y="-21" style="fill:none;" width="174.7" height="77.7"/>
	<text transform="matrix(1 0 0 1 355.4473 8.3994)"><tspan x="0" y="0" class="st10" style="font-family:'VarelaRound-Regular'; font-size:40px;">Gotham</tspan><tspan x="-10.6" y="43" class="st10" style="font-family:'VarelaRound-Regular'; font-size:40px;">Rounded</tspan></text>
	<g>
		<path class="st10" d="M347,112.5c-0.2-0.2-0.3-0.4-0.3-0.6V99.7c0-0.3,0.1-0.5,0.3-0.7c0.2-0.2,0.4-0.3,0.6-0.3h4.7
			c1.8,0,3.2,0.4,4.1,1.1c0.9,0.7,1.4,1.7,1.4,2.9c0,0.8-0.2,1.5-0.7,2.2s-1.1,1.1-1.9,1.4c1,0.3,1.6,0.9,2,1.8
			c0.4,0.9,0.5,1.9,0.5,2.8v0.9c0,0.3-0.1,0.5-0.3,0.6c-0.2,0.2-0.4,0.3-0.6,0.3c-0.3,0-0.5-0.1-0.7-0.3c-0.2-0.2-0.3-0.4-0.3-0.6
			v-0.6c0-0.7-0.1-1.3-0.2-1.8c-0.1-0.6-0.4-1.1-0.9-1.5c-0.5-0.4-1.1-0.7-2.1-0.7h-4.1v4.6c0,0.3-0.1,0.5-0.3,0.6
			c-0.2,0.2-0.4,0.3-0.7,0.3C347.4,112.8,347.2,112.7,347,112.5z M352.2,105.5c1.1,0,2.1-0.2,2.7-0.7s1-1.1,1-1.9
			c0-0.8-0.3-1.4-0.9-1.8s-1.6-0.6-3-0.6h-3.5v5.1H352.2z"/>
		<path class="st10" d="M361.4,111.5c-0.9-0.9-1.4-2.2-1.4-3.9c0-0.9,0.2-1.8,0.5-2.6c0.3-0.8,0.9-1.4,1.6-1.9s1.6-0.7,2.7-0.7
			c1,0,1.8,0.2,2.6,0.7s1.3,1.1,1.6,1.8c0.4,0.8,0.6,1.6,0.6,2.5c0,0.3-0.1,0.5-0.3,0.6c-0.2,0.2-0.4,0.3-0.7,0.3h-6.8
			c0.1,0.9,0.5,1.7,1,2.2c0.6,0.5,1.4,0.8,2.5,0.8c0.6,0,1-0.1,1.5-0.2c0.4-0.1,0.8-0.3,1.2-0.5c0.1-0.1,0.2-0.1,0.4-0.1
			c0.2,0,0.4,0.1,0.6,0.2c0.2,0.1,0.2,0.3,0.2,0.6c0,0.3-0.2,0.5-0.5,0.7c-0.5,0.3-1,0.5-1.5,0.7c-0.5,0.1-1.2,0.2-2,0.2
			C363.6,112.9,362.3,112.4,361.4,111.5z M367.8,106.8c0-0.7-0.2-1.2-0.5-1.6c-0.3-0.4-0.7-0.8-1.1-1c-0.4-0.2-0.9-0.3-1.3-0.3
			c-0.5,0-0.9,0.1-1.3,0.3c-0.4,0.2-0.8,0.5-1.1,1c-0.3,0.4-0.5,1-0.5,1.6H367.8z"/>
		<path class="st10" d="M374.4,117.2c-0.8-0.2-1.4-0.4-1.9-0.7c-0.2-0.1-0.4-0.4-0.4-0.7c0-0.2,0.1-0.4,0.2-0.6
			c0.2-0.2,0.3-0.3,0.6-0.3c0.1,0,0.2,0,0.4,0.1c1,0.5,2.1,0.8,3.3,0.8c2,0,3.1-1.1,3.1-3.3v-1.3c-0.9,1-2.1,1.5-3.4,1.5
			c-0.8,0-1.5-0.2-2.3-0.6s-1.3-1-1.8-1.8c-0.5-0.8-0.7-1.7-0.7-2.9s0.2-2.1,0.7-2.8c0.5-0.8,1.1-1.4,1.8-1.8
			c0.7-0.4,1.5-0.6,2.3-0.6c1.3,0,2.5,0.5,3.4,1.5v-0.5c0-0.3,0.1-0.5,0.3-0.7c0.2-0.2,0.4-0.3,0.6-0.3c0.3,0,0.5,0.1,0.6,0.3
			c0.2,0.2,0.3,0.4,0.3,0.7v8.9c0,1.7-0.4,3-1.2,3.9c-0.8,0.9-2,1.4-3.5,1.4C376,117.5,375.2,117.4,374.4,117.2z M378.2,110.6
			c0.5-0.3,0.9-0.6,1.4-1.1v-4.1c-0.4-0.5-0.9-0.8-1.4-1.1c-0.5-0.3-1-0.4-1.7-0.4c-1,0-1.8,0.3-2.4,0.9c-0.6,0.6-1,1.5-1,2.6
			c0,1.1,0.3,2,1,2.6c0.6,0.6,1.4,0.9,2.4,0.9C377.2,111,377.8,110.9,378.2,110.6z"/>
		<path class="st10" d="M386.2,112.4c-0.5-0.3-1-0.8-1.2-1.4c-0.3-0.6-0.4-1.3-0.4-2v-5.7c0-0.3,0.1-0.5,0.3-0.6
			c0.2-0.2,0.4-0.3,0.7-0.3c0.3,0,0.5,0.1,0.6,0.3c0.2,0.2,0.3,0.4,0.3,0.6v5.5c0,1.6,0.7,2.4,2.2,2.4c0.7,0,1.3-0.2,1.8-0.5
			c0.5-0.3,1-0.8,1.5-1.4v-6c0-0.3,0.1-0.5,0.3-0.6c0.2-0.2,0.4-0.3,0.7-0.3c0.3,0,0.5,0.1,0.6,0.3c0.2,0.2,0.3,0.4,0.3,0.6v8.6
			c0,0.3-0.1,0.5-0.3,0.7s-0.4,0.3-0.6,0.3c-0.3,0-0.5-0.1-0.7-0.3c-0.2-0.2-0.3-0.4-0.3-0.7v-0.8c-0.5,0.6-1.1,1-1.6,1.3
			s-1.3,0.5-2.1,0.5C387.3,112.9,386.7,112.7,386.2,112.4z"/>
		<path class="st10" d="M397,112.5c-0.2-0.2-0.3-0.4-0.3-0.6v-13c0-0.3,0.1-0.5,0.3-0.6c0.2-0.2,0.4-0.3,0.6-0.3
			c0.3,0,0.5,0.1,0.7,0.3c0.2,0.2,0.3,0.4,0.3,0.7v13c0,0.3-0.1,0.5-0.3,0.6s-0.4,0.3-0.6,0.3C397.4,112.8,397.2,112.7,397,112.5z"
			/>
		<path class="st10" d="M402.7,112.5c-0.5-0.2-0.9-0.6-1.2-1c-0.3-0.5-0.4-1-0.4-1.6c0-1,0.4-1.8,1.2-2.4c0.8-0.6,1.9-0.9,3.4-0.9
			h2.4v-0.2c0-0.9-0.2-1.5-0.7-1.9c-0.4-0.4-1.1-0.6-2-0.6c-0.5,0-1,0-1.3,0.1c-0.4,0.1-0.8,0.2-1.3,0.4c-0.1,0-0.2,0-0.3,0
			c-0.2,0-0.4-0.1-0.5-0.2c-0.1-0.1-0.2-0.3-0.2-0.5c0-0.4,0.2-0.6,0.5-0.8c1.1-0.5,2.3-0.7,3.5-0.7c0.9,0,1.7,0.2,2.3,0.6
			c0.6,0.4,1.1,0.9,1.4,1.5c0.3,0.6,0.5,1.2,0.5,1.9v5.7c0,0.3-0.1,0.5-0.3,0.6c-0.2,0.2-0.4,0.3-0.7,0.3s-0.5-0.1-0.6-0.3
			c-0.2-0.2-0.3-0.4-0.3-0.6v-0.5c-1,1-2.2,1.5-3.8,1.5C403.8,112.9,403.2,112.8,402.7,112.5z M406.7,110.9c0.5-0.3,1-0.6,1.4-1.1
			v-1.7h-2.2c-2,0-3,0.5-3,1.6c0,0.5,0.2,0.9,0.5,1.2c0.3,0.3,0.9,0.4,1.6,0.4C405.6,111.3,406.2,111.2,406.7,110.9z"/>
		<path class="st10" d="M413.3,112.5c-0.2-0.2-0.3-0.4-0.3-0.6v-8.6c0-0.3,0.1-0.5,0.3-0.7c0.2-0.2,0.4-0.3,0.6-0.3
			c0.3,0,0.5,0.1,0.6,0.3c0.2,0.2,0.3,0.4,0.3,0.7v0.9c0.9-1.3,2-1.9,3.1-1.9h0.1c0.3,0,0.5,0.1,0.6,0.3c0.2,0.2,0.3,0.4,0.3,0.6
			c0,0.3-0.1,0.5-0.3,0.6c-0.2,0.2-0.4,0.2-0.7,0.2h-0.1c-0.6,0-1.2,0.2-1.8,0.5s-1,0.7-1.3,1.3v6.1c0,0.3-0.1,0.5-0.3,0.6
			s-0.4,0.3-0.6,0.3C413.6,112.8,413.4,112.7,413.3,112.5z"/>
		<path class="st12" d="M346.4,137.9c-0.2-0.1-0.3-0.2-0.4-0.3c-0.1-0.2-0.2-0.3-0.2-0.5c0-0.2,0.1-0.4,0.2-0.6
			c0.2-0.2,0.3-0.3,0.6-0.3c0.1,0,0.3,0,0.4,0.1c1.2,0.5,2.5,0.8,3.9,0.8c2.3,0,3.5-0.8,3.5-2.3c0-0.4-0.2-0.7-0.5-1
			c-0.3-0.3-0.7-0.5-1.1-0.6s-1.1-0.3-1.9-0.5c-1.1-0.3-2-0.5-2.6-0.8c-0.7-0.3-1.2-0.7-1.7-1.2c-0.5-0.5-0.7-1.2-0.7-2.1
			c0-0.8,0.2-1.5,0.6-2.1s1-1.1,1.8-1.5c0.8-0.4,1.7-0.5,2.8-0.5c1.5,0,2.8,0.2,4,0.7c0.4,0.1,0.6,0.4,0.6,0.8
			c0,0.2-0.1,0.4-0.2,0.6c-0.1,0.2-0.3,0.3-0.6,0.3c-0.1,0-0.2,0-0.3-0.1c-1-0.4-2.1-0.5-3.2-0.5c-1.1,0-1.9,0.2-2.6,0.6
			c-0.7,0.4-1,1-1,1.7c0,0.5,0.2,0.9,0.5,1.2s0.7,0.5,1.2,0.7c0.5,0.2,1.1,0.3,1.9,0.5c1.1,0.3,1.9,0.5,2.6,0.8
			c0.6,0.3,1.2,0.6,1.7,1.2c0.5,0.5,0.7,1.3,0.7,2.2c0,0.7-0.2,1.4-0.6,2c-0.4,0.6-1,1.1-1.8,1.4s-1.7,0.5-2.7,0.5
			C349.5,138.9,347.9,138.6,346.4,137.9z"/>
		<path class="st12" d="M359.5,137.5c-0.9-0.9-1.4-2.2-1.4-3.9c0-0.9,0.2-1.8,0.5-2.6c0.3-0.8,0.9-1.4,1.6-1.9s1.6-0.7,2.7-0.7
			c1,0,1.8,0.2,2.6,0.7s1.3,1.1,1.6,1.8c0.4,0.8,0.6,1.6,0.6,2.5c0,0.3-0.1,0.5-0.3,0.6c-0.2,0.2-0.4,0.3-0.7,0.3H360
			c0.1,0.9,0.5,1.7,1,2.2c0.6,0.5,1.4,0.8,2.5,0.8c0.6,0,1-0.1,1.5-0.2c0.4-0.1,0.8-0.3,1.2-0.5c0.1-0.1,0.2-0.1,0.4-0.1
			c0.2,0,0.4,0.1,0.6,0.2c0.2,0.1,0.2,0.3,0.2,0.6c0,0.3-0.2,0.5-0.5,0.7c-0.5,0.3-1,0.5-1.5,0.7c-0.5,0.1-1.2,0.2-2,0.2
			C361.7,138.9,360.4,138.4,359.5,137.5z M365.9,132.8c0-0.7-0.2-1.2-0.5-1.6c-0.3-0.4-0.7-0.8-1.1-1c-0.4-0.2-0.9-0.3-1.3-0.3
			c-0.5,0-0.9,0.1-1.3,0.3c-0.4,0.2-0.8,0.5-1.1,1c-0.3,0.4-0.5,1-0.5,1.6H365.9z"/>
		<path class="st12" d="M370.3,138.5c-0.2-0.2-0.3-0.4-0.3-0.6v-8.6c0-0.3,0.1-0.5,0.3-0.7c0.2-0.2,0.4-0.3,0.6-0.3
			c0.3,0,0.5,0.1,0.6,0.3c0.2,0.2,0.3,0.4,0.3,0.7v0.8c0.4-0.5,0.8-1,1.3-1.3c0.5-0.3,1.2-0.5,2-0.5c0.7,0,1.4,0.2,1.9,0.6
			c0.5,0.4,0.9,0.9,1.1,1.5c0.8-1.4,2.1-2.1,3.7-2.1c0.7,0,1.4,0.2,1.9,0.6s0.9,0.9,1.1,1.4c0.2,0.6,0.4,1.2,0.4,1.8v5.8
			c0,0.3-0.1,0.5-0.3,0.6c-0.2,0.2-0.4,0.3-0.7,0.3s-0.5-0.1-0.6-0.3c-0.2-0.2-0.3-0.4-0.3-0.6v-5.4c0-0.9-0.2-1.5-0.5-1.9
			c-0.3-0.4-0.8-0.6-1.6-0.6c-0.7,0-1.2,0.2-1.7,0.5c-0.4,0.4-0.8,0.8-1.2,1.4v6c0,0.3-0.1,0.5-0.3,0.6s-0.4,0.3-0.7,0.3
			s-0.5-0.1-0.6-0.3c-0.2-0.2-0.3-0.4-0.3-0.6v-5.4c0-0.9-0.2-1.5-0.5-1.9c-0.3-0.4-0.8-0.6-1.6-0.6c-0.7,0-1.2,0.2-1.7,0.5
			c-0.4,0.4-0.8,0.8-1.2,1.4v6c0,0.3-0.1,0.5-0.3,0.6s-0.4,0.3-0.6,0.3C370.7,138.8,370.5,138.7,370.3,138.5z"/>
		<path class="st12" d="M388.6,126.1c-0.2-0.2-0.3-0.4-0.3-0.7v-0.1c0-0.3,0.1-0.5,0.3-0.7c0.2-0.2,0.4-0.3,0.7-0.3h0.1
			c0.3,0,0.5,0.1,0.7,0.3c0.2,0.2,0.3,0.4,0.3,0.7v0.1c0,0.3-0.1,0.5-0.3,0.7s-0.4,0.3-0.7,0.3h-0.1
			C389,126.4,388.8,126.3,388.6,126.1z M388.7,138.5c-0.2-0.2-0.3-0.4-0.3-0.6v-8.6c0-0.3,0.1-0.5,0.3-0.7c0.2-0.2,0.4-0.3,0.6-0.3
			c0.3,0,0.5,0.1,0.7,0.3c0.2,0.2,0.3,0.4,0.3,0.7v8.6c0,0.3-0.1,0.5-0.3,0.6s-0.4,0.3-0.6,0.3C389.1,138.8,388.8,138.7,388.7,138.5
			z"/>
		<path class="st12" d="M395.2,137.4v0.5c0,0.3-0.1,0.5-0.3,0.6s-0.4,0.3-0.6,0.3c-0.3,0-0.5-0.1-0.6-0.3s-0.3-0.4-0.3-0.6v-13
			c0-0.3,0.1-0.5,0.3-0.6c0.2-0.2,0.4-0.3,0.6-0.3c0.3,0,0.5,0.1,0.7,0.3c0.2,0.2,0.3,0.4,0.3,0.7v4.9c1-1,2.1-1.5,3.4-1.5
			c0.8,0,1.6,0.2,2.3,0.6c0.7,0.4,1.3,1,1.8,1.8s0.7,1.8,0.7,2.8s-0.2,2-0.7,2.8s-1.1,1.4-1.8,1.8s-1.5,0.6-2.3,0.6
			C397.3,138.9,396.2,138.4,395.2,137.4z M400.8,136.3c0.6-0.6,0.9-1.5,0.9-2.7s-0.3-2-0.9-2.7c-0.6-0.6-1.4-0.9-2.4-0.9
			c-0.6,0-1.2,0.1-1.7,0.4s-1,0.6-1.4,1.1v4.2c0.4,0.5,0.9,0.8,1.4,1.1s1.1,0.4,1.7,0.4C399.4,137.2,400.2,136.9,400.8,136.3z"/>
		<path class="st12" d="M407.8,138.2c-0.8-0.4-1.4-1.1-1.8-1.9s-0.6-1.7-0.6-2.8s0.2-2,0.6-2.8s1-1.4,1.8-1.9
			c0.8-0.4,1.7-0.7,2.7-0.7c1,0,1.9,0.2,2.7,0.7c0.8,0.4,1.4,1.1,1.8,1.9s0.6,1.7,0.6,2.8s-0.2,2-0.6,2.8s-1,1.4-1.8,1.9
			s-1.7,0.7-2.7,0.7C409.5,138.9,408.6,138.7,407.8,138.2z M412.1,136.9c0.5-0.3,0.9-0.7,1.2-1.2c0.3-0.5,0.5-1.2,0.5-2.1
			c0-0.8-0.2-1.5-0.5-2.1c-0.3-0.5-0.7-0.9-1.2-1.2c-0.5-0.2-1-0.4-1.6-0.4c-0.6,0-1.1,0.1-1.6,0.4c-0.5,0.2-0.9,0.6-1.2,1.2
			c-0.3,0.5-0.5,1.2-0.5,2.1c0,0.8,0.2,1.5,0.5,2.1c0.3,0.5,0.7,0.9,1.2,1.2s1,0.4,1.6,0.4C411.1,137.2,411.6,137.1,412.1,136.9z"/>
		<path class="st12" d="M418.4,138.5c-0.2-0.2-0.3-0.4-0.3-0.6v-13c0-0.3,0.1-0.5,0.3-0.6c0.2-0.2,0.4-0.3,0.6-0.3
			c0.3,0,0.5,0.1,0.7,0.3c0.2,0.2,0.3,0.4,0.3,0.7v13c0,0.3-0.1,0.5-0.3,0.6s-0.4,0.3-0.6,0.3C418.8,138.8,418.6,138.7,418.4,138.5z
			"/>
		<path class="st12" d="M425,138.3c-0.7-0.4-1.3-1-1.8-1.8s-0.7-1.8-0.7-2.8s0.2-2,0.7-2.8s1.1-1.4,1.8-1.8c0.7-0.4,1.5-0.6,2.3-0.6
			c1.3,0,2.4,0.5,3.4,1.5v-4.9c0-0.3,0.1-0.5,0.3-0.7c0.2-0.2,0.4-0.3,0.6-0.3c0.3,0,0.5,0.1,0.6,0.3c0.2,0.2,0.3,0.4,0.3,0.6v13
			c0,0.3-0.1,0.5-0.3,0.6c-0.2,0.2-0.4,0.3-0.6,0.3c-0.3,0-0.5-0.1-0.6-0.3c-0.2-0.2-0.3-0.4-0.3-0.6v-0.5c-1,1-2.1,1.5-3.4,1.5
			C426.5,138.9,425.8,138.7,425,138.3z M429.4,136.8c0.5-0.3,1-0.6,1.4-1.1v-4.2c-0.4-0.5-0.9-0.8-1.4-1.1s-1.1-0.4-1.7-0.4
			c-1,0-1.8,0.3-2.4,0.9c-0.6,0.6-0.9,1.5-0.9,2.7s0.3,2,0.9,2.7c0.6,0.6,1.4,0.9,2.4,0.9C428.2,137.2,428.8,137.1,429.4,136.8z"/>
		<path class="st13" d="M347,164.4c-0.2-0.2-0.3-0.4-0.3-0.6v-12.1c0-0.3,0.1-0.5,0.3-0.7c0.2-0.2,0.4-0.3,0.6-0.3h4.7
			c1.4,0,2.5,0.3,3.3,1c0.8,0.7,1.2,1.5,1.2,2.6c0,0.8-0.2,1.4-0.5,1.9c-0.4,0.5-0.8,0.9-1.4,1.2c0.8,0.3,1.5,0.7,2,1.2
			s0.8,1.3,0.8,2.1c0,1.2-0.4,2.2-1.2,2.9c-0.8,0.7-2.1,1-3.9,1h-4.8C347.4,164.7,347.2,164.6,347,164.4z M351.9,156.8
			c1.2,0,2-0.2,2.5-0.6c0.5-0.4,0.7-1,0.7-1.7c0-0.6-0.3-1.1-0.8-1.5c-0.5-0.4-1.2-0.6-2.1-0.6h-3.7v4.3H351.9z M352.3,163
			c1.3,0,2.2-0.2,2.8-0.6c0.5-0.4,0.8-1,0.8-1.7c0-1.5-1.2-2.3-3.5-2.3h-3.8v4.6H352.3z"/>
		<path class="st13" d="M362,164.2c-0.8-0.4-1.4-1.1-1.8-1.9s-0.6-1.7-0.6-2.8s0.2-2,0.6-2.8s1-1.4,1.8-1.9c0.8-0.4,1.7-0.7,2.7-0.7
			c1,0,1.9,0.2,2.7,0.7c0.8,0.4,1.4,1.1,1.8,1.9s0.6,1.7,0.6,2.8s-0.2,2-0.6,2.8s-1,1.4-1.8,1.9s-1.7,0.7-2.7,0.7
			C363.6,164.9,362.7,164.7,362,164.2z M366.2,162.9c0.5-0.3,0.9-0.7,1.2-1.2c0.3-0.5,0.5-1.2,0.5-2.1c0-0.8-0.2-1.5-0.5-2.1
			c-0.3-0.5-0.7-0.9-1.2-1.2c-0.5-0.2-1-0.4-1.6-0.4c-0.6,0-1.1,0.1-1.6,0.4c-0.5,0.2-0.9,0.6-1.2,1.2c-0.3,0.5-0.5,1.2-0.5,2.1
			c0,0.8,0.2,1.5,0.5,2.1c0.3,0.5,0.7,0.9,1.2,1.2s1,0.4,1.6,0.4C365.2,163.2,365.7,163.1,366.2,162.9z"/>
		<path class="st13" d="M372.6,164.5c-0.2-0.2-0.3-0.4-0.3-0.6v-13c0-0.3,0.1-0.5,0.3-0.6c0.2-0.2,0.4-0.3,0.6-0.3
			c0.3,0,0.5,0.1,0.7,0.3c0.2,0.2,0.3,0.4,0.3,0.7v13c0,0.3-0.1,0.5-0.3,0.6s-0.4,0.3-0.6,0.3C373,164.8,372.8,164.7,372.6,164.5z"
			/>
		<path class="st13" d="M379.2,164.3c-0.7-0.4-1.3-1-1.8-1.8s-0.7-1.8-0.7-2.8s0.2-2,0.7-2.8s1.1-1.4,1.8-1.8
			c0.7-0.4,1.5-0.6,2.3-0.6c1.3,0,2.4,0.5,3.4,1.5v-4.9c0-0.3,0.1-0.5,0.3-0.7c0.2-0.2,0.4-0.3,0.6-0.3c0.3,0,0.5,0.1,0.6,0.3
			c0.2,0.2,0.3,0.4,0.3,0.6v13c0,0.3-0.1,0.5-0.3,0.6c-0.2,0.2-0.4,0.3-0.6,0.3c-0.3,0-0.5-0.1-0.6-0.3c-0.2-0.2-0.3-0.4-0.3-0.6
			v-0.5c-1,1-2.1,1.5-3.4,1.5C380.7,164.9,379.9,164.7,379.2,164.3z M383.5,162.8c0.5-0.3,1-0.6,1.4-1.1v-4.2
			c-0.4-0.5-0.9-0.8-1.4-1.1s-1.1-0.4-1.7-0.4c-1,0-1.8,0.3-2.4,0.9c-0.6,0.6-0.9,1.5-0.9,2.7s0.3,2,0.9,2.7
			c0.6,0.6,1.4,0.9,2.4,0.9C382.4,163.2,383,163.1,383.5,162.8z"/>
	</g>
	<g>
		<path class="st10" d="M345.3-289v5.6h-2v-14h7.2l2.3,1.3v5.7l-2.3,1.3l3.2,5.6h-2.2l-3.2-5.6H345.3z M345.3-290.8h5.5v-4.8h-5.5
			V-290.8z"/>
		<path class="st10" d="M364.1-283.4h-5.6l-2.3-1.3v-7.4l2.3-1.3h3.3l2.3,1.3v4.4h-6v2.6h6V-283.4z M358.1-289.5h4v-2.3h-4V-289.5z"
			/>
		<path class="st10" d="M367.3-284.5v-1.8l1.4-0.8l-1.4-0.8v-4.1l2.3-1.3h6.4v0.7l-1.8,1.1l1.2,0.7v2.8l-2.3,1.3h-3.8v1.7h4.4
			l2.3,1.3v3.2l-2.3,1.3h-4.5l-2.3-1.3v-1.2l1.9-1.1v2h5.2v-2.4h-4.8L367.3-284.5z M369.2-288.5h4.2v-3.2h-4.2V-288.5z"/>
		<path class="st10" d="M378.8-293.4h1.9v8.4h4.6v-8.4h1.9v10.1h-1.5l-0.5-0.8l-1.4,0.8h-2.8l-2.3-1.3V-293.4z"/>
		<path class="st10" d="M390.5-284.7V-298h1.9v12.9h2.4v1.7h-2L390.5-284.7z"/>
		<path class="st10" d="M396.4-284.6v-3.3l2.3-1.3h3.6v-2.4h-5v-1.7h4.6l2.3,1.3v8.8h-0.5l-1.4-0.8l-1.4,0.8h-2.2L396.4-284.6z
			 M398.4-285h4v-2.5h-4V-285z"/>
		<path class="st10" d="M409.5-291.7v8.3h-1.9v-10h1.5l0.5,0.8l1.4-0.8h2.2v1.7H409.5z"/>
		<path class="st10" d="M438-290.7L438-290.7l1.7,1v4.9l-2.3,1.3h-7.6v-14h7.6l2.3,1.3v4.4L438-290.7z M432.6-291.8h4.3v-3.2h-4.3
			V-291.8z M432.6-285.8h4.3v-3.6h-4.3V-285.8z"/>
		<path class="st10" d="M449.5-283.3h-4.3l-2.3-1.3v-7.5l2.3-1.3h4.3l2.3,1.3v7.5L449.5-283.3z M445.7-285.6h3.4v-5.5h-3.4V-285.6z"
			/>
		<path class="st10" d="M454.8-284.7V-298h2.7v12.3h2v2.3h-2.4L454.8-284.7z"/>
		<path class="st10" d="M466.3-293.5l1.4,0.8v-5.3h2.7v14.7h-2.3l-0.5-0.8l-1.4,0.8h-2.6l-2.3-1.3v-7.5l2.3-1.3H466.3z M467.7-291.2
			h-3.6v5.5h3.6V-291.2z"/>
	</g>
	<g>
		<path class="st10" d="M343.4-57.3v-13c0-0.2,0-0.4,0.1-0.5c0.1-0.1,0.2-0.1,0.5-0.1h3.4c1.6,0,2.8,0.3,3.6,0.8
			c0.8,0.6,1.2,1.5,1.2,2.7c0,0.8-0.2,1.5-0.6,2.1c-0.4,0.6-1,1-1.7,1.3v0.1c0.4,0.1,0.7,0.4,1,0.8c0.3,0.4,0.5,1,0.8,1.7l1.6,3.9
			c0,0.1,0.1,0.2,0.1,0.3c0,0.2-0.3,0.3-0.8,0.3h-0.2c-0.2,0-0.4,0-0.5-0.1c-0.1-0.1-0.2-0.1-0.3-0.2l-1.5-3.9
			c-0.3-0.8-0.7-1.3-1.1-1.5c-0.4-0.3-1.1-0.4-1.9-0.4h-1.8v5.8c0,0.3-0.3,0.4-0.8,0.4h-0.2C343.7-56.9,343.4-57,343.4-57.3z
			 M347.8-64.6c0.5,0,0.9-0.1,1.3-0.3s0.7-0.5,0.9-0.9s0.3-0.8,0.3-1.2c0-0.8-0.2-1.4-0.7-1.8c-0.5-0.4-1.1-0.6-2-0.6h-2.5v4.8
			H347.8z"/>
		<path class="st10" d="M356-58.1c-0.8-0.9-1.2-2.2-1.2-4c0-1.8,0.4-3.1,1.2-4c0.8-0.9,1.9-1.4,3.5-1.4c1.4,0,2.4,0.4,3.1,1.3
			s1,2.2,1,3.9c0,0.1-0.1,0.3-0.2,0.5c-0.2,0.2-0.3,0.3-0.4,0.3h-6.3c0.1,1.1,0.4,1.9,0.9,2.4c0.5,0.5,1.2,0.8,2.2,0.8
			c0.6,0,1-0.1,1.4-0.2c0.4-0.1,0.7-0.3,1-0.4c0.3-0.1,0.4-0.2,0.5-0.2c0.1,0,0.3,0.1,0.4,0.4c0.2,0.3,0.3,0.5,0.3,0.6
			c0,0.2-0.2,0.3-0.5,0.6c-0.3,0.2-0.8,0.4-1.3,0.5c-0.6,0.1-1.1,0.2-1.8,0.2C358-56.8,356.8-57.2,356-58.1z M361.8-62.9
			c0-2.1-0.8-3.2-2.4-3.2c-1.7,0-2.7,1.1-2.8,3.2H361.8z"/>
		<path class="st10" d="M366.5-53.3c-0.7-0.4-1.1-1-1.1-1.9c0-0.6,0.2-1.1,0.5-1.5c0.3-0.4,0.8-0.8,1.3-1l0,0
			c-0.5-0.4-0.8-1-0.8-1.6c0-0.9,0.4-1.6,1.1-2.1c-0.6-0.3-1-0.7-1.3-1.2c-0.3-0.5-0.4-1-0.4-1.7c0-0.9,0.3-1.7,1-2.3
			c0.7-0.6,1.7-0.9,2.9-0.9c0.4,0,0.8,0,1.2,0.1h3.6c0.1,0,0.3,0,0.3,0.1c0.1,0.1,0.1,0.2,0.1,0.5v0.2c0,0.2,0,0.4-0.1,0.5
			c-0.1,0.1-0.2,0.1-0.3,0.1c-0.5,0-1,0-1.4-0.1l0,0c0.3,0.5,0.5,1.1,0.5,1.7c0,1-0.3,1.7-1,2.4c-0.7,0.6-1.7,0.9-2.9,0.9
			c-0.6,0-1.1,0.1-1.4,0.3c-0.3,0.2-0.5,0.6-0.5,1c0,0.3,0.1,0.6,0.3,0.8c0.2,0.2,0.5,0.3,0.8,0.4s0.8,0.2,1.4,0.2
			c0.3,0,0.5,0.1,0.7,0.1c1,0.1,1.7,0.3,2.2,0.7c0.5,0.3,0.8,0.9,0.8,1.7c0,1-0.4,1.7-1.2,2.2s-1.9,0.8-3.4,0.8
			C368.3-52.7,367.2-52.9,366.5-53.3z M371.8-54.4c0.4-0.2,0.7-0.6,0.7-1.1c0-0.5-0.2-0.8-0.7-0.9c-0.4-0.2-1.1-0.3-2-0.4
			c-0.8-0.1-1.3-0.2-1.6-0.3c-0.9,0.4-1.3,0.9-1.3,1.6c0,1,1,1.4,2.9,1.4C370.7-54,371.4-54.2,371.8-54.4z M371.5-62.8
			c0.4-0.3,0.6-0.8,0.6-1.5c0-1.3-0.8-1.9-2.4-1.9c-1.6,0-2.4,0.6-2.4,1.9c0,1.3,0.8,1.9,2.4,1.9C370.5-62.3,371.1-62.4,371.5-62.8z
			"/>
		<path class="st10" d="M377.8-57.7c-0.6-0.6-0.9-1.4-0.9-2.4V-67c0-0.3,0.3-0.4,0.8-0.4h0.1c0.5,0,0.8,0.1,0.8,0.4v6.8
			c0,0.6,0.2,1.1,0.5,1.4s0.9,0.5,1.5,0.5c0.5,0,0.9-0.1,1.4-0.4c0.4-0.3,0.8-0.6,1.2-1V-67c0-0.3,0.3-0.4,0.8-0.4h0.1
			c0.5,0,0.8,0.1,0.8,0.4v7.1c0,0.9,0,1.5,0.1,1.9c0.1,0.4,0.1,0.6,0.1,0.6c0,0.2-0.1,0.3-0.4,0.3c-0.3,0.1-0.5,0.1-0.7,0.1
			c-0.2,0-0.3-0.1-0.4-0.3c-0.1-0.2-0.2-0.4-0.2-0.6s-0.1-0.4-0.1-0.4c-0.4,0.5-0.9,0.8-1.5,1.1c-0.5,0.3-1.1,0.4-1.7,0.4
			C379.1-56.8,378.3-57.1,377.8-57.7z"/>
		<path class="st10" d="M389-57.4c-0.5-0.4-0.8-1.1-0.8-2.2v-12c0-0.3,0.3-0.4,0.8-0.4h0.1c0.5,0,0.8,0.1,0.8,0.4v11.8
			c0,0.6,0.1,0.9,0.3,1.2c0.2,0.2,0.5,0.3,0.8,0.3c0.3,0,0.4,0,0.6,0c0.1,0,0.2,0,0.3,0c0.1,0,0.2,0.1,0.3,0.4
			c0.1,0.2,0.1,0.4,0.1,0.6c0,0.4-0.5,0.6-1.5,0.6C390.1-56.8,389.5-57,389-57.4z"/>
		<path class="st10" d="M394.4-57.6c-0.6-0.5-0.9-1.3-0.9-2.2c0-1.1,0.3-1.8,0.9-2.4c0.6-0.5,1.4-0.9,2.3-1c0.9-0.2,2-0.2,3.4-0.3
			v-0.9c0-0.5-0.2-0.9-0.5-1.2c-0.3-0.3-0.9-0.5-1.7-0.5c-0.6,0-1.1,0.1-1.5,0.2c-0.4,0.1-0.8,0.3-1.1,0.4c-0.3,0.1-0.5,0.2-0.5,0.2
			c-0.1,0-0.3-0.1-0.5-0.4c-0.2-0.3-0.3-0.5-0.3-0.6c0-0.2,0.2-0.4,0.5-0.6c0.4-0.2,0.8-0.4,1.4-0.5s1.2-0.2,1.8-0.2
			c1.2,0,2.2,0.3,2.9,0.8s1,1.3,1,2.3v4.5c0,0.9,0,1.5,0.1,1.9c0.1,0.4,0.1,0.6,0.1,0.6c0,0.2-0.1,0.3-0.4,0.3
			c-0.3,0.1-0.5,0.1-0.7,0.1c-0.2,0-0.3-0.1-0.4-0.3c-0.1-0.2-0.2-0.4-0.2-0.6s-0.1-0.4-0.1-0.4c-0.9,1-2,1.5-3.4,1.5
			C395.9-56.8,395-57.1,394.4-57.6z M398.6-58.6c0.5-0.2,1-0.6,1.5-1V-62c-1,0-1.8,0.1-2.5,0.1c-0.6,0.1-1.2,0.3-1.7,0.6
			s-0.7,0.8-0.7,1.4c0,0.5,0.1,0.9,0.4,1.2c0.3,0.3,0.7,0.4,1.3,0.4C397.6-58.3,398.2-58.4,398.6-58.6z"/>
		<path class="st10" d="M405.2-57.3v-7c0-0.9,0-1.5-0.1-1.9c-0.1-0.4-0.1-0.6-0.1-0.6c0-0.2,0.1-0.3,0.4-0.4
			c0.3-0.1,0.5-0.1,0.7-0.1c0.2,0,0.3,0.1,0.4,0.3s0.2,0.4,0.2,0.6s0.1,0.4,0.1,0.4c0.7-1,1.5-1.5,2.3-1.5c0.4,0,0.7,0.1,0.9,0.2
			c0.2,0.1,0.3,0.3,0.3,0.6s0,0.5-0.1,0.7s-0.2,0.4-0.3,0.4c-0.1,0-0.2,0-0.4-0.1c-0.2-0.1-0.4-0.1-0.7-0.1c-0.3,0-0.6,0.1-0.9,0.3
			c-0.3,0.2-0.5,0.4-0.7,0.6s-0.3,0.3-0.3,0.4v7.3c0,0.3-0.3,0.4-0.8,0.4H406C405.4-56.9,405.2-57,405.2-57.3z"/>
		<path class="st10" d="M431.6-57.1c-0.1-0.1-0.2-0.3-0.2-0.6v-12.4c0-0.3,0.1-0.5,0.2-0.6c0.1-0.1,0.3-0.2,0.6-0.2h4
			c1.6,0,2.8,0.3,3.6,0.9c0.8,0.6,1.1,1.5,1.1,2.6c0,0.7-0.2,1.3-0.6,1.8c-0.4,0.6-0.9,1-1.5,1.2l0,0.1c0.8,0.2,1.4,0.6,1.9,1.2
			s0.8,1.3,0.8,2.1c0,1.3-0.4,2.3-1.3,3c-0.8,0.7-2.1,1-3.8,1h-4.2C431.9-56.9,431.7-57,431.6-57.1z M435.9-65.3
			c0.6,0,1-0.1,1.4-0.4c0.3-0.3,0.5-0.6,0.5-1.1c0-1-0.6-1.5-1.8-1.5h-1.4v3H435.9z M436.5-59.5c0.6,0,1-0.1,1.4-0.4
			s0.5-0.7,0.5-1.2s-0.2-0.9-0.6-1.2s-0.9-0.4-1.6-0.4h-1.6v3.2H436.5z"/>
		<path class="st10" d="M443.8-58.2c-0.8-0.9-1.2-2.3-1.2-4c0-1.7,0.4-3.1,1.2-4c0.8-0.9,2-1.4,3.6-1.4c1.6,0,2.8,0.5,3.6,1.4
			c0.8,0.9,1.2,2.3,1.2,4c0,1.7-0.4,3.1-1.2,4c-0.8,0.9-2,1.4-3.6,1.4C445.9-56.8,444.7-57.2,443.8-58.2z M448.8-59.9
			c0.3-0.5,0.5-1.3,0.5-2.3c0-1-0.2-1.8-0.5-2.3c-0.3-0.5-0.8-0.8-1.4-0.8c-0.6,0-1.1,0.3-1.4,0.8c-0.3,0.5-0.5,1.3-0.5,2.3
			c0,2,0.6,3.1,1.9,3.1C448.1-59.1,448.5-59.4,448.8-59.9z"/>
		<path class="st10" d="M454.4-60v-11.4c0-0.4,0.4-0.6,1.2-0.6h0.6c0.8,0,1.2,0.2,1.2,0.6V-60c0,0.3,0.1,0.5,0.2,0.7
			s0.3,0.2,0.6,0.2c0.1,0,0.2,0,0.3,0c0.1,0,0.2,0,0.3,0c0.1,0,0.2,0.1,0.3,0.3c0.1,0.2,0.2,0.4,0.2,0.7c0.1,0.2,0.1,0.4,0.1,0.5
			c0,0.7-0.6,1-1.9,1C455.4-56.8,454.4-57.8,454.4-60z"/>
		<path class="st10" d="M461.7-57.4c-0.6-0.4-1-1-1.3-1.8c-0.3-0.8-0.5-1.8-0.5-2.9c0-1.7,0.4-3,1.1-3.9s1.8-1.5,3.1-1.5
			c0.8,0,1.5,0.2,2,0.6v-4.4c0-0.4,0.4-0.6,1.2-0.6h0.6c0.8,0,1.2,0.2,1.2,0.6v10.9c0,0.6,0,1.1,0.1,1.4c0,0.3,0.1,0.7,0.1,1.1
			c0,0.2,0.1,0.3,0.1,0.4c0,0.2-0.3,0.4-0.8,0.5c-0.5,0.1-1,0.2-1.4,0.2c-0.2,0-0.4-0.1-0.5-0.3c-0.1-0.2-0.2-0.4-0.2-0.6
			c0-0.2-0.1-0.4-0.1-0.4c-0.2,0.4-0.6,0.8-1.1,1.1c-0.5,0.3-1,0.4-1.6,0.4C462.9-56.8,462.3-57,461.7-57.4z M466.2-60.4v-4.5
			c-0.5-0.3-0.9-0.4-1.4-0.4c-1.2,0-1.9,1-1.9,3c0,2,0.5,3,1.6,3C465.2-59.2,465.7-59.6,466.2-60.4z"/>
	</g>
	<g>
		<path class="st10" d="M344.6-171h6.7v0.9h-7.7v-14.1h1V-171z"/>
		<path class="st10" d="M355-183.5c0,0.1,0,0.2-0.1,0.3c-0.1,0.1-0.1,0.2-0.2,0.3s-0.2,0.1-0.3,0.2c-0.1,0-0.2,0.1-0.3,0.1
			s-0.2,0-0.3-0.1c-0.1,0-0.2-0.1-0.3-0.2s-0.1-0.2-0.2-0.3c0-0.1-0.1-0.2-0.1-0.3s0-0.2,0.1-0.3c0-0.1,0.1-0.2,0.2-0.3
			c0.1-0.1,0.2-0.1,0.3-0.2c0.1,0,0.2-0.1,0.3-0.1s0.2,0,0.3,0.1c0.1,0,0.2,0.1,0.3,0.2c0.1,0.1,0.1,0.2,0.2,0.3
			C355-183.8,355-183.6,355-183.5z M354.6-180.1v10h-0.9v-10H354.6z"/>
		<path class="st10" d="M361.4-180.3c0.4,0,0.8,0.1,1.2,0.2c0.4,0.1,0.7,0.3,1,0.5h2.6v0.3c0,0.2-0.1,0.3-0.3,0.3l-1.5,0.1
			c0.2,0.3,0.3,0.5,0.4,0.9c0.1,0.3,0.2,0.7,0.2,1c0,0.5-0.1,0.9-0.3,1.3c-0.2,0.4-0.4,0.7-0.7,1c-0.3,0.3-0.7,0.5-1.1,0.6
			s-0.9,0.2-1.4,0.2c-0.6,0-1.1-0.1-1.6-0.3c-0.3,0.2-0.5,0.3-0.7,0.6c-0.2,0.2-0.2,0.4-0.2,0.6c0,0.3,0.1,0.5,0.3,0.7
			c0.2,0.2,0.5,0.3,0.8,0.3c0.3,0.1,0.7,0.1,1.1,0.1c0.4,0,0.9,0,1.3,0.1s0.9,0.1,1.3,0.1c0.4,0.1,0.8,0.2,1.1,0.3s0.6,0.4,0.8,0.6
			s0.3,0.6,0.3,1.1c0,0.4-0.1,0.8-0.3,1.2c-0.2,0.4-0.5,0.7-0.9,1c-0.4,0.3-0.9,0.5-1.4,0.7c-0.6,0.2-1.2,0.3-1.9,0.3
			c-0.7,0-1.3-0.1-1.8-0.2c-0.5-0.1-1-0.3-1.3-0.6c-0.4-0.2-0.6-0.5-0.8-0.8c-0.2-0.3-0.3-0.7-0.3-1c0-0.5,0.2-1,0.5-1.4
			s0.8-0.7,1.4-0.9c-0.3-0.1-0.6-0.3-0.8-0.5c-0.2-0.2-0.3-0.5-0.3-0.9c0-0.1,0-0.3,0.1-0.4c0.1-0.2,0.1-0.3,0.2-0.5
			c0.1-0.2,0.2-0.3,0.4-0.4c0.1-0.1,0.3-0.3,0.5-0.4c-0.5-0.3-0.8-0.6-1.1-1.1c-0.3-0.5-0.4-1-0.4-1.6c0-0.5,0.1-0.9,0.3-1.3
			c0.2-0.4,0.4-0.7,0.7-1c0.3-0.3,0.7-0.5,1.1-0.6C360.4-180.2,360.8-180.3,361.4-180.3z M365.1-169.5c0-0.3-0.1-0.6-0.2-0.8
			s-0.4-0.3-0.7-0.4c-0.3-0.1-0.6-0.2-0.9-0.2s-0.7-0.1-1.1-0.1s-0.8,0-1.2-0.1s-0.8-0.1-1.1-0.1c-0.3,0.1-0.5,0.2-0.7,0.3
			c-0.2,0.1-0.4,0.3-0.6,0.4c-0.2,0.2-0.3,0.3-0.4,0.5c-0.1,0.2-0.1,0.4-0.1,0.6c0,0.3,0.1,0.6,0.2,0.8c0.1,0.3,0.4,0.5,0.7,0.6
			c0.3,0.2,0.6,0.3,1.1,0.4c0.4,0.1,0.9,0.2,1.5,0.2c0.5,0,1-0.1,1.4-0.2s0.8-0.3,1.1-0.5c0.3-0.2,0.6-0.5,0.8-0.7
			C365-168.8,365.1-169.1,365.1-169.5z M361.4-174.5c0.4,0,0.8-0.1,1.1-0.2s0.6-0.3,0.8-0.5c0.2-0.2,0.4-0.5,0.5-0.8
			c0.1-0.3,0.2-0.6,0.2-1c0-0.4-0.1-0.7-0.2-1s-0.3-0.6-0.5-0.8c-0.2-0.2-0.5-0.4-0.8-0.5c-0.3-0.1-0.7-0.2-1.1-0.2
			s-0.8,0.1-1.1,0.2c-0.3,0.1-0.6,0.3-0.8,0.5c-0.2,0.2-0.4,0.5-0.5,0.8c-0.1,0.3-0.2,0.7-0.2,1c0,0.4,0.1,0.7,0.2,1
			c0.1,0.3,0.3,0.6,0.5,0.8c0.2,0.2,0.5,0.4,0.8,0.5C360.6-174.6,361-174.5,361.4-174.5z"/>
		<path class="st10" d="M368.2-170.1v-14.5h1v6.3c0.5-0.6,1-1,1.6-1.4c0.6-0.3,1.3-0.5,2-0.5c0.5,0,1,0.1,1.4,0.3
			c0.4,0.2,0.8,0.4,1,0.8c0.3,0.3,0.5,0.7,0.6,1.2c0.1,0.5,0.2,1,0.2,1.6v6.4h-1v-6.4c0-0.9-0.2-1.7-0.6-2.2c-0.4-0.5-1.1-0.8-2-0.8
			c-0.7,0-1.3,0.2-1.8,0.5c-0.6,0.3-1.1,0.8-1.5,1.4v7.5H368.2z"/>
		<path class="st10" d="M381.7-170c-0.7,0-1.2-0.2-1.6-0.6s-0.6-1-0.6-1.7v-6.8h-1.4c-0.1,0-0.1,0-0.2-0.1c0,0-0.1-0.1-0.1-0.2v-0.4
			l1.7-0.1l0.2-3.6c0-0.1,0-0.1,0.1-0.2c0,0,0.1-0.1,0.2-0.1h0.4v3.8h3.1v0.7h-3.1v6.8c0,0.3,0,0.5,0.1,0.7c0.1,0.2,0.2,0.4,0.3,0.5
			c0.1,0.1,0.3,0.2,0.4,0.3c0.2,0.1,0.3,0.1,0.5,0.1c0.2,0,0.4,0,0.6-0.1c0.2-0.1,0.3-0.1,0.5-0.2c0.1-0.1,0.2-0.2,0.3-0.2
			s0.1-0.1,0.2-0.1c0.1,0,0.1,0,0.2,0.1l0.3,0.4c-0.3,0.3-0.6,0.5-1,0.7C382.5-170.1,382.1-170,381.7-170z"/>
		<path class="st10" d="M400-176.1v6H398v-14.3h4c0.9,0,1.7,0.1,2.3,0.3c0.7,0.2,1.2,0.4,1.6,0.8c0.4,0.3,0.7,0.8,1,1.3
			c0.2,0.5,0.3,1,0.3,1.6c0,0.5-0.1,1-0.2,1.4s-0.4,0.8-0.7,1.2c-0.3,0.4-0.7,0.6-1.1,0.9c-0.4,0.2-0.9,0.4-1.5,0.6
			c0.2,0.1,0.5,0.3,0.6,0.6l4.2,5.7h-1.7c-0.4,0-0.6-0.1-0.8-0.4l-3.7-5.1c-0.1-0.2-0.2-0.3-0.4-0.3c-0.1-0.1-0.3-0.1-0.6-0.1H400z
			 M400-177.5h2c0.6,0,1.1-0.1,1.5-0.2c0.4-0.1,0.8-0.3,1.1-0.6s0.5-0.5,0.7-0.9s0.2-0.7,0.2-1.2c0-0.9-0.3-1.5-0.8-1.9
			c-0.6-0.4-1.4-0.6-2.5-0.6H400V-177.5z"/>
		<path class="st10" d="M414.4-180.4c0.6,0,1.2,0.1,1.7,0.3c0.5,0.2,1,0.5,1.3,0.9c0.4,0.4,0.7,0.9,0.9,1.4c0.2,0.6,0.3,1.2,0.3,1.9
			c0,0.3,0,0.5-0.1,0.6c-0.1,0.1-0.2,0.1-0.3,0.1h-6.7c0,0.6,0.1,1.2,0.3,1.7c0.2,0.5,0.4,0.9,0.7,1.2c0.3,0.3,0.6,0.6,1,0.7
			c0.4,0.2,0.8,0.2,1.3,0.2c0.4,0,0.8-0.1,1.2-0.2c0.3-0.1,0.6-0.2,0.8-0.3s0.4-0.2,0.6-0.3s0.3-0.2,0.4-0.2c0.1,0,0.3,0.1,0.3,0.2
			l0.5,0.6c-0.2,0.3-0.5,0.5-0.8,0.7c-0.3,0.2-0.6,0.4-1,0.5c-0.3,0.1-0.7,0.2-1.1,0.3c-0.4,0.1-0.7,0.1-1.1,0.1
			c-0.7,0-1.3-0.1-1.9-0.4c-0.6-0.2-1.1-0.6-1.5-1c-0.4-0.5-0.8-1-1-1.7c-0.2-0.7-0.4-1.4-0.4-2.3c0-0.7,0.1-1.4,0.3-2
			c0.2-0.6,0.5-1.1,0.9-1.6c0.4-0.4,0.9-0.8,1.5-1.1C413.1-180.3,413.7-180.4,414.4-180.4z M414.5-179.1c-0.9,0-1.5,0.2-2,0.7
			c-0.5,0.5-0.8,1.2-0.9,2.1h5.5c0-0.4-0.1-0.8-0.2-1.1c-0.1-0.3-0.3-0.6-0.5-0.9c-0.2-0.3-0.5-0.4-0.8-0.6S414.9-179.1,414.5-179.1
			z"/>
		<path class="st10" d="M424.3-180.4c0.4,0,0.9,0,1.2,0.1c0.4,0.1,0.7,0.2,1,0.4h2.8v0.7c0,0.2-0.1,0.4-0.4,0.4l-1.2,0.2
			c0.2,0.4,0.3,0.9,0.3,1.5c0,0.5-0.1,0.9-0.3,1.3c-0.2,0.4-0.5,0.7-0.8,1c-0.3,0.3-0.7,0.5-1.2,0.7c-0.5,0.2-1,0.2-1.5,0.2
			c-0.5,0-0.9-0.1-1.3-0.2c-0.2,0.1-0.4,0.3-0.5,0.4c-0.1,0.2-0.2,0.3-0.2,0.5c0,0.2,0.1,0.4,0.3,0.6s0.5,0.2,0.8,0.3
			c0.3,0.1,0.7,0.1,1.1,0.1c0.4,0,0.8,0,1.2,0c0.4,0,0.8,0,1.2,0.1c0.4,0.1,0.8,0.2,1.1,0.4c0.3,0.2,0.6,0.4,0.8,0.7
			s0.3,0.7,0.3,1.2c0,0.4-0.1,0.9-0.3,1.3s-0.5,0.8-0.9,1.1c-0.4,0.3-0.9,0.6-1.5,0.8s-1.3,0.3-2,0.3c-0.7,0-1.4-0.1-1.9-0.2
			s-1-0.3-1.4-0.6c-0.4-0.2-0.6-0.5-0.8-0.9c-0.2-0.3-0.3-0.7-0.3-1c0-0.5,0.2-0.9,0.5-1.3c0.3-0.4,0.8-0.6,1.3-0.8
			c-0.3-0.1-0.5-0.3-0.7-0.5c-0.2-0.2-0.3-0.5-0.3-0.9c0-0.1,0-0.3,0.1-0.5c0.1-0.2,0.1-0.3,0.2-0.5s0.2-0.3,0.4-0.4
			s0.3-0.3,0.6-0.4c-0.5-0.3-0.9-0.7-1.2-1.1s-0.4-1-0.4-1.6c0-0.5,0.1-0.9,0.3-1.3c0.2-0.4,0.5-0.7,0.8-1c0.3-0.3,0.7-0.5,1.2-0.7
			S423.8-180.4,424.3-180.4z M427.5-169.6c0-0.3-0.1-0.5-0.2-0.6c-0.1-0.2-0.3-0.3-0.6-0.4s-0.5-0.1-0.8-0.2c-0.3,0-0.6-0.1-1-0.1
			s-0.7,0-1.1,0s-0.7,0-1-0.1c-0.4,0.2-0.7,0.4-0.9,0.7s-0.4,0.6-0.4,0.9c0,0.2,0.1,0.4,0.2,0.6c0.1,0.2,0.3,0.4,0.5,0.5
			c0.2,0.1,0.5,0.3,0.9,0.3s0.8,0.1,1.3,0.1c0.5,0,0.9,0,1.3-0.1s0.7-0.2,1-0.4c0.3-0.2,0.5-0.4,0.6-0.6
			C427.4-169.1,427.5-169.4,427.5-169.6z M424.3-175.1c0.4,0,0.7,0,1-0.1c0.3-0.1,0.5-0.2,0.7-0.4c0.2-0.2,0.3-0.4,0.4-0.6
			c0.1-0.3,0.1-0.5,0.1-0.8c0-0.6-0.2-1.1-0.6-1.5c-0.4-0.4-0.9-0.5-1.6-0.5c-0.7,0-1.3,0.2-1.6,0.5c-0.4,0.4-0.6,0.9-0.6,1.5
			c0,0.3,0,0.6,0.1,0.8c0.1,0.3,0.2,0.5,0.4,0.6s0.4,0.3,0.7,0.4S424-175.1,424.3-175.1z"/>
		<path class="st10" d="M432.7-180.3v6.5c0,0.8,0.2,1.4,0.5,1.8c0.4,0.4,0.9,0.6,1.6,0.6c0.5,0,1-0.1,1.5-0.4s0.9-0.6,1.3-1v-7.5
			h1.8v10.1h-1.1c-0.3,0-0.4-0.1-0.5-0.4l-0.1-1.1c-0.4,0.5-0.9,0.9-1.5,1.2c-0.5,0.3-1.2,0.4-1.9,0.4c-0.6,0-1-0.1-1.5-0.3
			c-0.4-0.2-0.8-0.4-1.1-0.8c-0.3-0.3-0.5-0.7-0.6-1.2c-0.1-0.5-0.2-1-0.2-1.6v-6.5H432.7z"/>
		<path class="st10" d="M444.2-184.9v14.7h-1.8v-14.7H444.2z"/>
		<path class="st10" d="M454.8-170.1H454c-0.2,0-0.3,0-0.4-0.1c-0.1-0.1-0.2-0.2-0.2-0.3l-0.2-0.9c-0.3,0.2-0.5,0.5-0.8,0.6
			c-0.3,0.2-0.5,0.3-0.8,0.5c-0.3,0.1-0.6,0.2-0.9,0.3s-0.7,0.1-1.1,0.1c-0.4,0-0.8-0.1-1.1-0.2c-0.3-0.1-0.6-0.3-0.9-0.5
			c-0.3-0.2-0.5-0.5-0.6-0.8c-0.1-0.3-0.2-0.7-0.2-1.2c0-0.4,0.1-0.8,0.3-1.2c0.2-0.4,0.6-0.7,1.1-1c0.5-0.3,1.1-0.5,1.9-0.7
			c0.8-0.2,1.8-0.3,2.9-0.3v-0.8c0-0.8-0.2-1.4-0.5-1.8c-0.3-0.4-0.8-0.6-1.5-0.6c-0.4,0-0.8,0.1-1.1,0.2s-0.6,0.2-0.8,0.4
			s-0.4,0.3-0.6,0.4c-0.2,0.1-0.3,0.2-0.5,0.2c-0.1,0-0.2,0-0.3-0.1s-0.2-0.1-0.2-0.2l-0.3-0.6c0.6-0.5,1.2-0.9,1.8-1.2
			c0.6-0.3,1.4-0.4,2.2-0.4c0.6,0,1.1,0.1,1.5,0.3c0.4,0.2,0.8,0.4,1.1,0.8s0.5,0.7,0.7,1.2c0.2,0.5,0.2,1,0.2,1.6V-170.1z
			 M450.2-171.2c0.3,0,0.6,0,0.9-0.1c0.3-0.1,0.5-0.2,0.7-0.3s0.5-0.3,0.7-0.4s0.4-0.4,0.6-0.6v-2.1c-0.8,0-1.5,0.1-2.1,0.2
			c-0.6,0.1-1,0.2-1.4,0.4c-0.4,0.2-0.6,0.4-0.8,0.6s-0.2,0.5-0.2,0.8c0,0.3,0,0.5,0.1,0.7s0.2,0.4,0.4,0.5c0.1,0.1,0.3,0.2,0.5,0.3
			C449.7-171.3,450-171.2,450.2-171.2z"/>
		<path class="st10" d="M457.5-170.1v-10.1h1c0.2,0,0.3,0,0.4,0.1s0.1,0.2,0.2,0.4l0.1,1.6c0.3-0.7,0.8-1.3,1.3-1.7
			c0.5-0.4,1.1-0.6,1.8-0.6c0.3,0,0.5,0,0.8,0.1s0.4,0.2,0.6,0.3l-0.2,1.3c0,0.2-0.1,0.3-0.3,0.3c-0.1,0-0.2,0-0.4-0.1
			s-0.5-0.1-0.8-0.1c-0.6,0-1.1,0.2-1.6,0.5c-0.4,0.4-0.8,0.9-1,1.6v6.5H457.5z"/>
		<path class="st10" d="M481-170.1v-14.5h5c0.9,0,1.8,0.1,2.4,0.3s1.2,0.4,1.7,0.8c0.4,0.3,0.7,0.7,0.9,1.2c0.2,0.5,0.3,1,0.3,1.6
			c0,0.3,0,0.7-0.1,1c-0.1,0.3-0.3,0.6-0.5,0.9s-0.5,0.5-0.8,0.7c-0.3,0.2-0.7,0.4-1.2,0.6c2,0.4,3,1.5,3,3.2c0,0.6-0.1,1.2-0.3,1.7
			s-0.6,1-1,1.3c-0.4,0.4-1,0.7-1.6,0.9s-1.4,0.3-2.2,0.3H481z M483.7-178.3h2.1c0.9,0,1.6-0.2,2.1-0.5c0.5-0.3,0.7-0.9,0.7-1.6
			c0-0.8-0.2-1.3-0.6-1.6c-0.4-0.3-1.1-0.5-2-0.5h-2.3V-178.3z M483.7-176.5v4.2h2.7c0.5,0,0.9-0.1,1.3-0.2c0.3-0.1,0.6-0.3,0.8-0.5
			c0.2-0.2,0.3-0.4,0.4-0.7s0.1-0.5,0.1-0.9c0-0.3,0-0.6-0.1-0.8c-0.1-0.3-0.3-0.5-0.5-0.6c-0.2-0.2-0.5-0.3-0.8-0.4
			c-0.3-0.1-0.7-0.1-1.2-0.1H483.7z"/>
		<path class="st10" d="M498.3-180.6c0.8,0,1.5,0.1,2.1,0.4c0.6,0.2,1.2,0.6,1.6,1c0.4,0.5,0.8,1,1,1.7c0.2,0.7,0.4,1.4,0.4,2.2
			c0,0.8-0.1,1.5-0.4,2.2c-0.2,0.7-0.6,1.2-1,1.7c-0.4,0.5-1,0.8-1.6,1.1c-0.6,0.2-1.3,0.4-2.1,0.4s-1.5-0.1-2.1-0.4
			c-0.6-0.2-1.2-0.6-1.6-1.1c-0.4-0.5-0.8-1-1-1.7c-0.2-0.7-0.4-1.4-0.4-2.2c0-0.8,0.1-1.5,0.4-2.2c0.2-0.7,0.6-1.2,1-1.7
			c0.4-0.5,1-0.8,1.6-1C496.8-180.4,497.5-180.6,498.3-180.6z M498.3-171.9c0.9,0,1.5-0.3,1.9-0.9s0.6-1.4,0.6-2.5s-0.2-2-0.6-2.5
			s-1-0.9-1.9-0.9c-0.9,0-1.5,0.3-1.9,0.9c-0.4,0.6-0.6,1.4-0.6,2.5s0.2,1.9,0.6,2.5C496.8-172.2,497.4-171.9,498.3-171.9z"/>
		<path class="st10" d="M507.9-185v14.9h-2.5V-185H507.9z"/>
		<path class="st10" d="M517.9-170.1c-0.3,0-0.5-0.1-0.6-0.5l-0.2-1c-0.2,0.2-0.4,0.5-0.7,0.6s-0.5,0.4-0.8,0.5
			c-0.3,0.1-0.6,0.2-0.9,0.3c-0.3,0.1-0.6,0.1-1,0.1c-0.6,0-1.1-0.1-1.5-0.4c-0.5-0.2-0.9-0.6-1.2-1s-0.6-1-0.8-1.6
			s-0.3-1.4-0.3-2.2c0-0.8,0.1-1.5,0.3-2.1c0.2-0.7,0.5-1.2,0.9-1.7s0.9-0.9,1.4-1.1s1.1-0.4,1.8-0.4c0.6,0,1.1,0.1,1.5,0.3
			c0.4,0.2,0.8,0.4,1.1,0.7v-5.4h2.5v14.9H517.9z M514.6-172c0.5,0,1-0.1,1.3-0.3c0.4-0.2,0.7-0.5,1-0.9v-4.6
			c-0.3-0.3-0.6-0.6-0.9-0.7c-0.3-0.1-0.7-0.2-1.1-0.2c-0.4,0-0.7,0.1-1,0.2c-0.3,0.1-0.6,0.4-0.8,0.6c-0.2,0.3-0.4,0.6-0.5,1.1
			s-0.2,1-0.2,1.5c0,0.6,0,1.1,0.1,1.5c0.1,0.4,0.2,0.8,0.4,1c0.2,0.3,0.4,0.5,0.7,0.6S514.3-172,514.6-172z"/>
	</g>
	<g>
		<path class="st10" d="M9.6,44.3c-2.1-1.2-3.7-2.8-4.8-5c-1.1-2.1-1.7-4.5-1.7-7.2c0-2.8,0.6-5.2,1.8-7.3c1.2-2.1,2.8-3.8,4.9-5
			c2.1-1.2,4.4-1.8,6.9-1.8c2,0,3.8,0.2,5.3,0.7c1.5,0.5,3,1.2,4.4,2.1c0.2,0.1,0.4,0.3,0.5,0.5c0.2,0.3,0.2,0.5,0.2,0.9
			c0,0.4-0.2,0.8-0.4,1.1c-0.3,0.3-0.7,0.5-1.2,0.5c-0.3,0-0.6-0.1-0.8-0.2c-1.2-0.7-2.4-1.3-3.7-1.6s-2.5-0.5-4-0.5
			c-2,0-3.8,0.4-5.3,1.2s-2.8,2-3.7,3.6c-0.9,1.6-1.3,3.5-1.3,5.7c0,2,0.4,3.8,1.3,5.4c0.8,1.6,2.1,2.9,3.7,3.8s3.5,1.4,5.7,1.4
			c2.4,0,4.7-0.6,6.8-1.7v-7.1h-6.4c-0.4,0-0.8-0.2-1.1-0.5c-0.3-0.3-0.5-0.7-0.5-1.1s0.2-0.8,0.5-1.1c0.3-0.3,0.7-0.5,1.1-0.5h7.7
			c0.5,0,1,0.2,1.3,0.5c0.4,0.4,0.5,0.8,0.5,1.3v8.9c0,0.5-0.1,1-0.4,1.5c-0.3,0.4-0.6,0.7-1.1,1c-2.9,1.5-5.9,2.2-8.9,2.2
			C14.1,46.1,11.7,45.5,9.6,44.3z"/>
		<path class="st10" d="M37,44.8c-1.5-0.9-2.7-2.1-3.5-3.6c-0.8-1.6-1.2-3.4-1.2-5.4c0-2,0.4-3.8,1.2-5.4c0.8-1.6,2-2.8,3.5-3.6
			c1.5-0.9,3.3-1.3,5.3-1.3c2,0,3.7,0.4,5.2,1.3c1.5,0.9,2.7,2.1,3.5,3.6c0.8,1.6,1.2,3.4,1.2,5.4c0,2-0.4,3.8-1.2,5.4
			c-0.8,1.6-2,2.8-3.5,3.6c-1.5,0.9-3.3,1.3-5.2,1.3C40.3,46.1,38.5,45.6,37,44.8z M45.4,42.1c1-0.5,1.8-1.3,2.4-2.3
			c0.6-1.1,1-2.4,1-4.1c0-1.6-0.3-3-1-4c-0.6-1.1-1.4-1.8-2.4-2.3c-1-0.5-2-0.7-3.1-0.7c-1.1,0-2.1,0.2-3.1,0.7
			c-1,0.5-1.8,1.3-2.4,2.3c-0.6,1.1-0.9,2.4-0.9,4c0,1.6,0.3,3,0.9,4.1s1.4,1.8,2.4,2.3c1,0.5,2,0.7,3.1,0.7
			C43.4,42.8,44.4,42.6,45.4,42.1z"/>
		<path class="st10" d="M58.2,40.9V28.8h-2.8c-0.2,0-0.4-0.1-0.5-0.2c-0.1-0.1-0.2-0.3-0.2-0.5c0-0.3,0.1-0.5,0.4-0.7l5.3-5.2
			c0.2-0.2,0.5-0.4,0.7-0.4s0.4,0.1,0.5,0.2c0.1,0.2,0.2,0.3,0.2,0.5v3.1h4.4c0.4,0,0.8,0.1,1.1,0.4s0.4,0.7,0.4,1.1
			c0,0.4-0.1,0.8-0.4,1.1c-0.3,0.3-0.7,0.4-1.1,0.4h-4.4v11.8c0,1,0.2,1.7,0.7,1.9c0.5,0.3,1.1,0.4,1.8,0.4c0.5,0,1-0.1,1.6-0.2
			c0.1,0,0.2-0.1,0.3-0.1c0.1,0,0.3,0,0.4,0c0.4,0,0.7,0.1,1,0.4c0.3,0.3,0.4,0.6,0.4,1c0,0.6-0.3,1.1-0.9,1.4
			c-1,0.5-2.1,0.7-3.2,0.7C60.1,46.1,58.2,44.3,58.2,40.9z"/>
		<path class="st10" d="M72.5,45.4C72.1,45,72,44.6,72,44.1V18.8c0-0.5,0.2-0.9,0.5-1.3c0.3-0.4,0.8-0.5,1.2-0.5s0.9,0.2,1.3,0.5
			c0.4,0.4,0.5,0.8,0.5,1.3V29c1-1.1,2.1-2,3.2-2.6c1.1-0.7,2.5-1,4.1-1c1.4,0,2.7,0.3,3.7,1s1.9,1.6,2.4,2.8
			c0.6,1.2,0.8,2.5,0.8,3.9v11.1c0,0.5-0.2,0.9-0.5,1.2c-0.4,0.3-0.8,0.5-1.3,0.5c-0.5,0-0.9-0.2-1.2-0.5c-0.3-0.3-0.5-0.8-0.5-1.2
			V33.4c0-3.2-1.4-4.8-4.3-4.8c-1.3,0-2.5,0.3-3.5,1c-1,0.7-2,1.6-2.9,2.7v11.7c0,0.5-0.2,0.9-0.5,1.2c-0.4,0.3-0.8,0.5-1.3,0.5
			S72.8,45.7,72.5,45.4z"/>
		<path class="st10" d="M97.6,45.4c-1-0.5-1.7-1.2-2.3-2c-0.6-0.9-0.9-1.9-0.9-3.1c0-1.9,0.8-3.5,2.3-4.6c1.5-1.1,3.8-1.7,6.7-1.7
			h4.7v-0.3c0-1.7-0.4-3-1.3-3.7c-0.8-0.8-2.2-1.1-4-1.1c-1,0-1.9,0.1-2.6,0.2c-0.8,0.2-1.6,0.4-2.6,0.7c-0.2,0.1-0.4,0.1-0.5,0.1
			c-0.4,0-0.7-0.1-1-0.4s-0.4-0.6-0.4-1.1c0-0.7,0.3-1.2,1-1.5c2.2-0.9,4.5-1.4,6.7-1.4c1.8,0,3.3,0.4,4.5,1.1
			c1.2,0.7,2.1,1.7,2.7,2.8s0.9,2.4,0.9,3.8v11c0,0.5-0.2,0.9-0.5,1.2c-0.4,0.3-0.8,0.5-1.3,0.5c-0.5,0-0.9-0.2-1.2-0.5
			c-0.3-0.3-0.5-0.8-0.5-1.2v-1c-1.9,2-4.4,3-7.3,3C99.6,46.1,98.6,45.8,97.6,45.4z M105.4,42.1c1.1-0.6,2-1.3,2.7-2.1v-3.3h-4.3
			c-3.9,0-5.9,1-5.9,3.1c0,0.9,0.3,1.7,1,2.3c0.6,0.6,1.7,0.9,3.2,0.9C103.3,42.9,104.4,42.7,105.4,42.1z"/>
		<path class="st10" d="M118.1,45.4c-0.3-0.3-0.5-0.8-0.5-1.2V27.4c0-0.5,0.2-0.9,0.5-1.3c0.3-0.4,0.8-0.5,1.2-0.5s0.9,0.2,1.3,0.5
			c0.4,0.4,0.5,0.8,0.5,1.3V29c0.7-1,1.6-1.9,2.6-2.6c1-0.7,2.4-1,4-1c1.5,0,2.7,0.4,3.7,1.2c1,0.8,1.8,1.7,2.2,2.8
			c1.6-2.7,4-4,7.2-4c1.5,0,2.7,0.4,3.6,1.1c1,0.7,1.7,1.7,2.2,2.8c0.5,1.1,0.7,2.3,0.7,3.6v11.2c0,0.5-0.2,0.9-0.5,1.2
			c-0.4,0.3-0.8,0.5-1.3,0.5c-0.5,0-0.9-0.2-1.2-0.5c-0.3-0.3-0.5-0.8-0.5-1.2V33.6c0-1.7-0.3-2.9-0.9-3.7s-1.6-1.2-3.1-1.2
			c-1.3,0-2.4,0.3-3.3,1c-0.9,0.7-1.6,1.6-2.3,2.7v11.7c0,0.5-0.2,0.9-0.5,1.2c-0.4,0.3-0.8,0.5-1.3,0.5s-0.9-0.2-1.2-0.5
			c-0.3-0.3-0.5-0.8-0.5-1.2V33.6c0-1.7-0.3-2.9-0.9-3.7c-0.6-0.8-1.6-1.2-3.1-1.2c-1.3,0-2.4,0.3-3.3,1c-0.9,0.7-1.6,1.6-2.3,2.7
			v11.7c0,0.5-0.2,0.9-0.5,1.2c-0.4,0.3-0.8,0.5-1.3,0.5S118.5,45.7,118.1,45.4z"/>
		<path class="st10" d="M154.1,45.4c-0.3-0.3-0.5-0.8-0.5-1.2V20.2c0-0.5,0.2-0.9,0.5-1.3c0.3-0.4,0.8-0.5,1.2-0.5h9.1
			c3.5,0,6.2,0.7,8,2.2c1.8,1.5,2.7,3.4,2.7,5.7c0,1.6-0.4,3-1.3,4.3c-0.9,1.3-2.1,2.2-3.8,2.8c1.9,0.5,3.2,1.7,3.8,3.5
			c0.7,1.8,1,3.6,1,5.4v1.8c0,0.5-0.2,0.9-0.5,1.2c-0.3,0.3-0.8,0.5-1.2,0.5c-0.5,0-1-0.2-1.3-0.5c-0.3-0.3-0.5-0.7-0.5-1.3v-1.2
			c0-1.3-0.1-2.5-0.4-3.6c-0.2-1.1-0.8-2.1-1.7-3c-0.9-0.9-2.2-1.3-4-1.3h-8.1v9c0,0.5-0.2,0.9-0.5,1.2c-0.4,0.3-0.8,0.5-1.3,0.5
			C154.9,45.9,154.4,45.7,154.1,45.4z M164.2,31.7c2.2,0,4-0.4,5.3-1.3c1.3-0.9,2-2.1,2-3.7c0-1.6-0.6-2.8-1.7-3.6
			c-1.1-0.8-3.1-1.2-5.8-1.2h-6.9v9.9H164.2z"/>
		<path class="st10" d="M184.2,44.8c-1.5-0.9-2.7-2.1-3.5-3.6c-0.8-1.6-1.2-3.4-1.2-5.4c0-2,0.4-3.8,1.2-5.4c0.8-1.6,2-2.8,3.5-3.6
			c1.5-0.9,3.3-1.3,5.3-1.3c2,0,3.7,0.4,5.2,1.3c1.5,0.9,2.7,2.1,3.5,3.6c0.8,1.6,1.2,3.4,1.2,5.4c0,2-0.4,3.8-1.2,5.4
			c-0.8,1.6-2,2.8-3.5,3.6c-1.5,0.9-3.3,1.3-5.2,1.3C187.4,46.1,185.7,45.6,184.2,44.8z M192.5,42.1c1-0.5,1.8-1.3,2.4-2.3
			c0.6-1.1,1-2.4,1-4.1c0-1.6-0.3-3-1-4c-0.6-1.1-1.4-1.8-2.4-2.3c-1-0.5-2-0.7-3.1-0.7c-1.1,0-2.1,0.2-3.1,0.7
			c-1,0.5-1.8,1.3-2.4,2.3c-0.6,1.1-0.9,2.4-0.9,4c0,1.6,0.3,3,0.9,4.1s1.4,1.8,2.4,2.3c1,0.5,2,0.7,3.1,0.7
			C190.5,42.8,191.5,42.6,192.5,42.1z"/>
		<path class="st10" d="M207.4,45c-1.1-0.7-1.9-1.6-2.4-2.8c-0.6-1.2-0.8-2.5-0.8-3.9V27.3c0-0.5,0.2-0.9,0.5-1.2
			c0.4-0.3,0.8-0.5,1.3-0.5s0.9,0.2,1.2,0.5s0.5,0.8,0.5,1.2V38c0,3.2,1.4,4.8,4.3,4.8c1.3,0,2.5-0.3,3.5-1c1-0.7,2-1.6,2.9-2.7
			V27.3c0-0.5,0.2-0.9,0.5-1.2s0.8-0.5,1.3-0.5c0.5,0,0.9,0.2,1.2,0.5s0.5,0.8,0.5,1.2v16.7c0,0.5-0.2,0.9-0.5,1.3
			c-0.3,0.4-0.8,0.5-1.2,0.5c-0.5,0-0.9-0.2-1.3-0.5c-0.4-0.4-0.5-0.8-0.5-1.3v-1.6c-1,1.1-2.1,2-3.2,2.6c-1.1,0.6-2.5,1-4.1,1
			C209.7,46.1,208.5,45.7,207.4,45z"/>
		<path class="st10" d="M228.6,45.4c-0.3-0.3-0.5-0.8-0.5-1.2V27.4c0-0.5,0.2-0.9,0.5-1.3c0.3-0.4,0.8-0.5,1.2-0.5s0.9,0.2,1.3,0.5
			c0.4,0.4,0.5,0.8,0.5,1.3V29c1-1.1,2.1-2,3.2-2.6c1.1-0.7,2.5-1,4.1-1c1.4,0,2.7,0.3,3.7,1s1.9,1.6,2.4,2.8
			c0.6,1.2,0.8,2.5,0.8,3.9v11.1c0,0.5-0.2,0.9-0.5,1.2c-0.4,0.3-0.8,0.5-1.3,0.5c-0.5,0-0.9-0.2-1.2-0.5c-0.3-0.3-0.5-0.8-0.5-1.2
			V33.4c0-3.2-1.4-4.8-4.3-4.8c-1.3,0-2.5,0.3-3.5,1c-1,0.7-2,1.6-2.9,2.7v11.7c0,0.5-0.2,0.9-0.5,1.2c-0.4,0.3-0.8,0.5-1.3,0.5
			S229,45.7,228.6,45.4z"/>
		<path class="st10" d="M255.5,44.8c-1.4-0.8-2.6-2-3.5-3.6c-0.9-1.6-1.3-3.4-1.3-5.5c0-2.1,0.4-3.9,1.3-5.5
			c0.9-1.6,2.1-2.8,3.5-3.6c1.4-0.8,3-1.2,4.6-1.2c2.5,0,4.8,1,6.7,3v-9.6c0-0.5,0.2-0.9,0.5-1.3c0.4-0.3,0.8-0.5,1.3-0.5
			c0.5,0,0.9,0.2,1.2,0.5c0.3,0.4,0.5,0.8,0.5,1.3v25.3c0,0.5-0.2,0.9-0.5,1.2c-0.3,0.3-0.8,0.5-1.2,0.5c-0.5,0-0.9-0.2-1.3-0.5
			c-0.4-0.3-0.5-0.8-0.5-1.2v-1c-1.9,2-4.1,3-6.7,3C258.5,46.1,257,45.6,255.5,44.8z M264,41.9c1.1-0.5,2-1.2,2.8-2.1v-8.2
			c-0.8-0.9-1.7-1.6-2.8-2.1s-2.2-0.8-3.4-0.8c-1.9,0-3.5,0.6-4.6,1.8c-1.2,1.2-1.8,3-1.8,5.2c0,2.2,0.6,4,1.8,5.2
			c1.2,1.2,2.7,1.8,4.6,1.8C261.8,42.7,262.9,42.5,264,41.9z"/>
		<path class="st10" d="M277.9,43.3c-1.8-1.8-2.7-4.3-2.7-7.6c0-1.8,0.3-3.5,1-5.1c0.7-1.6,1.7-2.8,3.1-3.8s3.1-1.4,5.2-1.4
			c1.9,0,3.6,0.4,5,1.3c1.4,0.9,2.5,2.1,3.2,3.6c0.7,1.5,1.1,3.1,1.1,4.9c0,0.5-0.2,0.9-0.5,1.2s-0.8,0.5-1.3,0.5h-13.2
			c0.2,1.8,0.9,3.2,2,4.3c1.1,1,2.7,1.5,4.8,1.5c1.1,0,2-0.1,2.9-0.3c0.8-0.2,1.6-0.5,2.4-0.9c0.2-0.1,0.4-0.2,0.7-0.2
			c0.4,0,0.8,0.1,1.1,0.4c0.3,0.3,0.5,0.7,0.5,1.1c0,0.6-0.3,1.1-1,1.4c-1,0.6-2,1-3,1.3s-2.3,0.4-3.8,0.4
			C282.2,46.1,279.7,45.2,277.9,43.3z M290.4,34.1c-0.1-1.3-0.4-2.3-1-3.2c-0.6-0.9-1.3-1.5-2.2-1.9c-0.9-0.4-1.7-0.6-2.6-0.6
			c-0.9,0-1.8,0.2-2.6,0.6c-0.9,0.4-1.6,1-2.1,1.9c-0.6,0.9-0.9,1.9-1,3.2H290.4z"/>
		<path class="st10" d="M302.2,44.8c-1.4-0.8-2.6-2-3.5-3.6c-0.9-1.6-1.3-3.4-1.3-5.5c0-2.1,0.4-3.9,1.3-5.5
			c0.9-1.6,2.1-2.8,3.5-3.6c1.4-0.8,3-1.2,4.6-1.2c2.5,0,4.8,1,6.7,3v-9.6c0-0.5,0.2-0.9,0.5-1.3c0.4-0.3,0.8-0.5,1.3-0.5
			c0.5,0,0.9,0.2,1.2,0.5c0.3,0.4,0.5,0.8,0.5,1.3v25.3c0,0.5-0.2,0.9-0.5,1.2c-0.3,0.3-0.8,0.5-1.2,0.5c-0.5,0-0.9-0.2-1.3-0.5
			c-0.4-0.3-0.5-0.8-0.5-1.2v-1c-1.9,2-4.1,3-6.7,3C305.2,46.1,303.7,45.6,302.2,44.8z M310.7,41.9c1.1-0.5,2-1.2,2.8-2.1v-8.2
			c-0.8-0.9-1.7-1.6-2.8-2.1s-2.2-0.8-3.4-0.8c-1.9,0-3.5,0.6-4.6,1.8c-1.2,1.2-1.8,3-1.8,5.2c0,2.2,0.6,4,1.8,5.2
			c1.2,1.2,2.7,1.8,4.6,1.8C308.5,42.7,309.6,42.5,310.7,41.9z"/>
	</g>
	<g>
		<path class="st10" d="M7.1,84.5c-0.2-0.2-0.3-0.4-0.3-0.6V71.7c0-0.3,0.1-0.5,0.3-0.7c0.2-0.2,0.4-0.3,0.6-0.3h4.7
			c1.8,0,3.2,0.4,4.1,1.1c0.9,0.7,1.4,1.7,1.4,2.9c0,0.8-0.2,1.5-0.7,2.2c-0.4,0.7-1.1,1.1-1.9,1.4c1,0.3,1.6,0.9,2,1.8
			c0.4,0.9,0.5,1.9,0.5,2.8v0.9c0,0.3-0.1,0.5-0.3,0.6c-0.2,0.2-0.4,0.3-0.6,0.3c-0.3,0-0.5-0.1-0.7-0.3c-0.2-0.2-0.3-0.4-0.3-0.6
			v-0.6c0-0.7-0.1-1.3-0.2-1.8s-0.4-1.1-0.9-1.5c-0.5-0.4-1.1-0.7-2.1-0.7H8.7v4.6c0,0.3-0.1,0.5-0.3,0.6c-0.2,0.2-0.4,0.3-0.7,0.3
			S7.3,84.7,7.1,84.5z M12.3,77.5c1.1,0,2.1-0.2,2.7-0.7c0.7-0.5,1-1.1,1-1.9c0-0.8-0.3-1.4-0.9-1.8s-1.6-0.6-3-0.6H8.7v5.1H12.3z"
			/>
		<path class="st10" d="M21.5,83.5c-0.9-0.9-1.4-2.2-1.4-3.9c0-0.9,0.2-1.8,0.5-2.6c0.3-0.8,0.9-1.4,1.6-1.9s1.6-0.7,2.7-0.7
			c1,0,1.8,0.2,2.6,0.7s1.3,1.1,1.6,1.8c0.4,0.8,0.6,1.6,0.6,2.5c0,0.3-0.1,0.5-0.3,0.6c-0.2,0.2-0.4,0.3-0.7,0.3H22
			c0.1,0.9,0.5,1.7,1,2.2c0.6,0.5,1.4,0.8,2.5,0.8c0.6,0,1-0.1,1.5-0.2c0.4-0.1,0.8-0.3,1.2-0.5c0.1-0.1,0.2-0.1,0.4-0.1
			c0.2,0,0.4,0.1,0.6,0.2c0.2,0.1,0.2,0.3,0.2,0.6c0,0.3-0.2,0.5-0.5,0.7c-0.5,0.3-1,0.5-1.5,0.7c-0.5,0.1-1.2,0.2-2,0.2
			C23.7,84.9,22.4,84.4,21.5,83.5z M27.9,78.8c0-0.7-0.2-1.2-0.5-1.6c-0.3-0.4-0.7-0.8-1.1-1c-0.4-0.2-0.9-0.3-1.3-0.3
			c-0.5,0-0.9,0.1-1.3,0.3c-0.4,0.2-0.8,0.5-1.1,1c-0.3,0.4-0.5,1-0.5,1.6H27.9z"/>
		<path class="st10" d="M34.5,89.2c-0.8-0.2-1.4-0.4-1.9-0.7c-0.2-0.1-0.4-0.4-0.4-0.7c0-0.2,0.1-0.4,0.2-0.6
			c0.2-0.2,0.3-0.3,0.6-0.3c0.1,0,0.2,0,0.4,0.1c1,0.5,2.1,0.8,3.3,0.8c2,0,3.1-1.1,3.1-3.3v-1.3c-0.9,1-2.1,1.5-3.4,1.5
			c-0.8,0-1.5-0.2-2.3-0.6s-1.3-1-1.8-1.8c-0.5-0.8-0.7-1.7-0.7-2.9s0.2-2.1,0.7-2.8c0.5-0.8,1.1-1.4,1.8-1.8
			c0.7-0.4,1.5-0.6,2.3-0.6c1.3,0,2.5,0.5,3.4,1.5v-0.5c0-0.3,0.1-0.5,0.3-0.7c0.2-0.2,0.4-0.3,0.6-0.3c0.3,0,0.5,0.1,0.6,0.3
			c0.2,0.2,0.3,0.4,0.3,0.7v8.9c0,1.7-0.4,3-1.2,3.9c-0.8,0.9-2,1.4-3.5,1.4C36.1,89.5,35.3,89.4,34.5,89.2z M38.3,82.6
			c0.5-0.3,0.9-0.6,1.4-1.1v-4.1c-0.4-0.5-0.9-0.8-1.4-1.1c-0.5-0.3-1-0.4-1.7-0.4c-1,0-1.8,0.3-2.4,0.9c-0.6,0.6-1,1.5-1,2.6
			c0,1.1,0.3,2,1,2.6c0.6,0.6,1.4,0.9,2.4,0.9C37.3,83,37.9,82.9,38.3,82.6z"/>
		<path class="st10" d="M46.3,84.4c-0.5-0.3-1-0.8-1.2-1.4c-0.3-0.6-0.4-1.3-0.4-2v-5.7c0-0.3,0.1-0.5,0.3-0.6
			c0.2-0.2,0.4-0.3,0.7-0.3c0.3,0,0.5,0.1,0.6,0.3c0.2,0.2,0.3,0.4,0.3,0.6v5.5c0,1.6,0.7,2.4,2.2,2.4c0.7,0,1.3-0.2,1.8-0.5
			c0.5-0.3,1-0.8,1.5-1.4v-6c0-0.3,0.1-0.5,0.3-0.6c0.2-0.2,0.4-0.3,0.7-0.3c0.3,0,0.5,0.1,0.6,0.3c0.2,0.2,0.3,0.4,0.3,0.6v8.6
			c0,0.3-0.1,0.5-0.3,0.7s-0.4,0.3-0.6,0.3c-0.3,0-0.5-0.1-0.7-0.3c-0.2-0.2-0.3-0.4-0.3-0.7v-0.8c-0.5,0.6-1.1,1-1.6,1.3
			s-1.3,0.5-2.1,0.5C47.4,84.9,46.8,84.7,46.3,84.4z"/>
		<path class="st10" d="M57.1,84.5c-0.2-0.2-0.3-0.4-0.3-0.6v-13c0-0.3,0.1-0.5,0.3-0.6c0.2-0.2,0.4-0.3,0.6-0.3
			c0.3,0,0.5,0.1,0.7,0.3c0.2,0.2,0.3,0.4,0.3,0.7v13c0,0.3-0.1,0.5-0.3,0.6s-0.4,0.3-0.6,0.3C57.5,84.8,57.3,84.7,57.1,84.5z"/>
		<path class="st10" d="M62.8,84.5c-0.5-0.2-0.9-0.6-1.2-1c-0.3-0.5-0.4-1-0.4-1.6c0-1,0.4-1.8,1.2-2.4c0.8-0.6,1.9-0.9,3.4-0.9h2.4
			v-0.2c0-0.9-0.2-1.5-0.7-1.9c-0.4-0.4-1.1-0.6-2-0.6c-0.5,0-1,0-1.3,0.1c-0.4,0.1-0.8,0.2-1.3,0.4c-0.1,0-0.2,0-0.3,0
			c-0.2,0-0.4-0.1-0.5-0.2c-0.1-0.1-0.2-0.3-0.2-0.5c0-0.4,0.2-0.6,0.5-0.8c1.1-0.5,2.3-0.7,3.5-0.7c0.9,0,1.7,0.2,2.3,0.6
			c0.6,0.4,1.1,0.9,1.4,1.5c0.3,0.6,0.5,1.2,0.5,1.9v5.7c0,0.3-0.1,0.5-0.3,0.6c-0.2,0.2-0.4,0.3-0.7,0.3s-0.5-0.1-0.6-0.3
			c-0.2-0.2-0.3-0.4-0.3-0.6v-0.5c-1,1-2.2,1.5-3.8,1.5C63.9,84.9,63.3,84.8,62.8,84.5z M66.8,82.9c0.5-0.3,1-0.6,1.4-1.1v-1.7H66
			c-2,0-3,0.5-3,1.6c0,0.5,0.2,0.9,0.5,1.2c0.3,0.3,0.9,0.4,1.6,0.4C65.7,83.3,66.3,83.2,66.8,82.9z"/>
		<path class="st10" d="M73.4,84.5c-0.2-0.2-0.3-0.4-0.3-0.6v-8.6c0-0.3,0.1-0.5,0.3-0.7c0.2-0.2,0.4-0.3,0.6-0.3
			c0.3,0,0.5,0.1,0.6,0.3c0.2,0.2,0.3,0.4,0.3,0.7v0.9c0.9-1.3,2-1.9,3.1-1.9h0.1c0.3,0,0.5,0.1,0.6,0.3c0.2,0.2,0.3,0.4,0.3,0.6
			c0,0.3-0.1,0.5-0.3,0.6c-0.2,0.2-0.4,0.2-0.7,0.2H78c-0.6,0-1.2,0.2-1.8,0.5s-1,0.7-1.3,1.3v6.1c0,0.3-0.1,0.5-0.3,0.6
			s-0.4,0.3-0.6,0.3C73.7,84.8,73.5,84.7,73.4,84.5z"/>
		<path class="st12" d="M122.4,83.9c-0.2-0.1-0.3-0.2-0.4-0.3s-0.2-0.3-0.2-0.5c0-0.2,0.1-0.4,0.2-0.6s0.3-0.3,0.6-0.3
			c0.1,0,0.3,0,0.4,0.1c1.2,0.5,2.5,0.8,3.9,0.8c2.3,0,3.5-0.8,3.5-2.3c0-0.4-0.2-0.7-0.5-1c-0.3-0.3-0.7-0.5-1.1-0.6
			c-0.4-0.2-1.1-0.3-1.9-0.5c-1.1-0.3-2-0.5-2.6-0.8c-0.7-0.3-1.2-0.7-1.7-1.2c-0.5-0.5-0.7-1.2-0.7-2.1c0-0.8,0.2-1.5,0.6-2.1
			c0.4-0.6,1-1.1,1.8-1.5c0.8-0.4,1.7-0.5,2.8-0.5c1.5,0,2.8,0.2,4,0.7c0.4,0.1,0.6,0.4,0.6,0.8c0,0.2-0.1,0.4-0.2,0.6
			c-0.1,0.2-0.3,0.3-0.6,0.3c-0.1,0-0.2,0-0.3-0.1c-1-0.4-2.1-0.5-3.2-0.5c-1.1,0-1.9,0.2-2.6,0.6c-0.7,0.4-1,1-1,1.7
			c0,0.5,0.2,0.9,0.5,1.2c0.3,0.3,0.7,0.5,1.2,0.7c0.5,0.2,1.1,0.3,1.9,0.5c1.1,0.3,1.9,0.5,2.6,0.8c0.6,0.3,1.2,0.6,1.7,1.2
			c0.5,0.5,0.7,1.3,0.7,2.2c0,0.7-0.2,1.4-0.6,2c-0.4,0.6-1,1.1-1.8,1.4s-1.7,0.5-2.7,0.5C125.4,84.9,123.8,84.6,122.4,83.9z"/>
		<path class="st12" d="M135.4,83.5c-0.9-0.9-1.4-2.2-1.4-3.9c0-0.9,0.2-1.8,0.5-2.6c0.3-0.8,0.9-1.4,1.6-1.9s1.6-0.7,2.7-0.7
			c1,0,1.8,0.2,2.6,0.7s1.3,1.1,1.6,1.8c0.4,0.8,0.6,1.6,0.6,2.5c0,0.3-0.1,0.5-0.3,0.6c-0.2,0.2-0.4,0.3-0.7,0.3h-6.8
			c0.1,0.9,0.5,1.7,1,2.2c0.6,0.5,1.4,0.8,2.5,0.8c0.6,0,1-0.1,1.5-0.2c0.4-0.1,0.8-0.3,1.2-0.5c0.1-0.1,0.2-0.1,0.4-0.1
			c0.2,0,0.4,0.1,0.6,0.2c0.2,0.1,0.2,0.3,0.2,0.6c0,0.3-0.2,0.5-0.5,0.7c-0.5,0.3-1,0.5-1.5,0.7c-0.5,0.1-1.2,0.2-2,0.2
			C137.6,84.9,136.3,84.4,135.4,83.5z M141.8,78.8c0-0.7-0.2-1.2-0.5-1.6c-0.3-0.4-0.7-0.8-1.1-1c-0.4-0.2-0.9-0.3-1.3-0.3
			c-0.5,0-0.9,0.1-1.3,0.3c-0.4,0.2-0.8,0.5-1.1,1c-0.3,0.4-0.5,1-0.5,1.6H141.8z"/>
		<path class="st12" d="M146.3,84.5c-0.2-0.2-0.3-0.4-0.3-0.6v-8.6c0-0.3,0.1-0.5,0.3-0.7c0.2-0.2,0.4-0.3,0.6-0.3
			c0.3,0,0.5,0.1,0.6,0.3c0.2,0.2,0.3,0.4,0.3,0.7v0.8c0.4-0.5,0.8-1,1.3-1.3c0.5-0.3,1.2-0.5,2-0.5c0.7,0,1.4,0.2,1.9,0.6
			c0.5,0.4,0.9,0.9,1.1,1.5c0.8-1.4,2.1-2.1,3.7-2.1c0.7,0,1.4,0.2,1.9,0.6s0.9,0.9,1.1,1.4c0.2,0.6,0.4,1.2,0.4,1.8v5.8
			c0,0.3-0.1,0.5-0.3,0.6c-0.2,0.2-0.4,0.3-0.7,0.3s-0.5-0.1-0.6-0.3c-0.2-0.2-0.3-0.4-0.3-0.6v-5.4c0-0.9-0.2-1.5-0.5-1.9
			c-0.3-0.4-0.8-0.6-1.6-0.6c-0.7,0-1.2,0.2-1.7,0.5c-0.4,0.4-0.8,0.8-1.2,1.4v6c0,0.3-0.1,0.5-0.3,0.6s-0.4,0.3-0.7,0.3
			s-0.5-0.1-0.6-0.3c-0.2-0.2-0.3-0.4-0.3-0.6v-5.4c0-0.9-0.2-1.5-0.5-1.9c-0.3-0.4-0.8-0.6-1.6-0.6c-0.7,0-1.2,0.2-1.7,0.5
			c-0.4,0.4-0.8,0.8-1.2,1.4v6c0,0.3-0.1,0.5-0.3,0.6s-0.4,0.3-0.6,0.3C146.7,84.8,146.4,84.7,146.3,84.5z"/>
		<path class="st12" d="M164.5,72.1c-0.2-0.2-0.3-0.4-0.3-0.7v-0.1c0-0.3,0.1-0.5,0.3-0.7c0.2-0.2,0.4-0.3,0.7-0.3h0.1
			c0.3,0,0.5,0.1,0.7,0.3c0.2,0.2,0.3,0.4,0.3,0.7v0.1c0,0.3-0.1,0.5-0.3,0.7s-0.4,0.3-0.7,0.3h-0.1
			C164.9,72.4,164.7,72.3,164.5,72.1z M164.6,84.5c-0.2-0.2-0.3-0.4-0.3-0.6v-8.6c0-0.3,0.1-0.5,0.3-0.7c0.2-0.2,0.4-0.3,0.6-0.3
			c0.3,0,0.5,0.1,0.7,0.3c0.2,0.2,0.3,0.4,0.3,0.7v8.6c0,0.3-0.1,0.5-0.3,0.6s-0.4,0.3-0.6,0.3C165,84.8,164.8,84.7,164.6,84.5z"/>
		<path class="st12" d="M171.2,83.4v0.5c0,0.3-0.1,0.5-0.3,0.6s-0.4,0.3-0.6,0.3c-0.3,0-0.5-0.1-0.6-0.3s-0.3-0.4-0.3-0.6v-13
			c0-0.3,0.1-0.5,0.3-0.6c0.2-0.2,0.4-0.3,0.6-0.3c0.3,0,0.5,0.1,0.7,0.3c0.2,0.2,0.3,0.4,0.3,0.7v4.9c1-1,2.1-1.5,3.4-1.5
			c0.8,0,1.6,0.2,2.3,0.6c0.7,0.4,1.3,1,1.8,1.8s0.7,1.8,0.7,2.8s-0.2,2-0.7,2.8s-1.1,1.4-1.8,1.8s-1.5,0.6-2.3,0.6
			C173.3,84.9,172.1,84.4,171.2,83.4z M176.7,82.3c0.6-0.6,0.9-1.5,0.9-2.7s-0.3-2-0.9-2.7c-0.6-0.6-1.4-0.9-2.4-0.9
			c-0.6,0-1.2,0.1-1.7,0.4s-1,0.6-1.4,1.1v4.2c0.4,0.5,0.9,0.8,1.4,1.1s1.1,0.4,1.7,0.4C175.3,83.2,176.1,82.9,176.7,82.3z"/>
		<path class="st12" d="M183.8,84.2c-0.8-0.4-1.4-1.1-1.8-1.9s-0.6-1.7-0.6-2.8s0.2-2,0.6-2.8s1-1.4,1.8-1.9
			c0.8-0.4,1.7-0.7,2.7-0.7c1,0,1.9,0.2,2.7,0.7c0.8,0.4,1.4,1.1,1.8,1.9s0.6,1.7,0.6,2.8s-0.2,2-0.6,2.8s-1,1.4-1.8,1.9
			s-1.7,0.7-2.7,0.7C185.4,84.9,184.5,84.7,183.8,84.2z M188,82.9c0.5-0.3,0.9-0.7,1.2-1.2c0.3-0.5,0.5-1.2,0.5-2.1
			c0-0.8-0.2-1.5-0.5-2.1c-0.3-0.5-0.7-0.9-1.2-1.2c-0.5-0.2-1-0.4-1.6-0.4c-0.6,0-1.1,0.1-1.6,0.4c-0.5,0.2-0.9,0.6-1.2,1.2
			c-0.3,0.5-0.5,1.2-0.5,2.1c0,0.8,0.2,1.5,0.5,2.1c0.3,0.5,0.7,0.9,1.2,1.2s1,0.4,1.6,0.4C187,83.2,187.5,83.1,188,82.9z"/>
		<path class="st12" d="M194.4,84.5c-0.2-0.2-0.3-0.4-0.3-0.6v-13c0-0.3,0.1-0.5,0.3-0.6c0.2-0.2,0.4-0.3,0.6-0.3
			c0.3,0,0.5,0.1,0.7,0.3c0.2,0.2,0.3,0.4,0.3,0.7v13c0,0.3-0.1,0.5-0.3,0.6s-0.4,0.3-0.6,0.3C194.8,84.8,194.6,84.7,194.4,84.5z"/>
		<path class="st12" d="M201,84.3c-0.7-0.4-1.3-1-1.8-1.8s-0.7-1.8-0.7-2.8s0.2-2,0.7-2.8s1.1-1.4,1.8-1.8c0.7-0.4,1.5-0.6,2.3-0.6
			c1.3,0,2.4,0.5,3.4,1.5v-4.9c0-0.3,0.1-0.5,0.3-0.7c0.2-0.2,0.4-0.3,0.6-0.3c0.3,0,0.5,0.1,0.6,0.3c0.2,0.2,0.3,0.4,0.3,0.6v13
			c0,0.3-0.1,0.5-0.3,0.6c-0.2,0.2-0.4,0.3-0.6,0.3c-0.3,0-0.5-0.1-0.6-0.3c-0.2-0.2-0.3-0.4-0.3-0.6v-0.5c-1,1-2.1,1.5-3.4,1.5
			C202.5,84.9,201.7,84.7,201,84.3z M205.3,82.8c0.5-0.3,1-0.6,1.4-1.1v-4.2c-0.4-0.5-0.9-0.8-1.4-1.1s-1.1-0.4-1.7-0.4
			c-1,0-1.8,0.3-2.4,0.9c-0.6,0.6-0.9,1.5-0.9,2.7s0.3,2,0.9,2.7c0.6,0.6,1.4,0.9,2.4,0.9C204.2,83.2,204.8,83.1,205.3,82.8z"/>
		<path class="st13" d="M274.7,84.4c-0.2-0.2-0.3-0.4-0.3-0.6V71.7c0-0.3,0.1-0.5,0.3-0.7c0.2-0.2,0.4-0.3,0.6-0.3h4.7
			c1.4,0,2.5,0.3,3.3,1c0.8,0.7,1.2,1.5,1.2,2.6c0,0.8-0.2,1.4-0.5,1.9c-0.4,0.5-0.8,0.9-1.4,1.2c0.8,0.3,1.5,0.7,2,1.2
			s0.8,1.3,0.8,2.1c0,1.2-0.4,2.2-1.2,2.9c-0.8,0.7-2.1,1-3.9,1h-4.8C275.1,84.7,274.9,84.6,274.7,84.4z M279.6,76.8
			c1.2,0,2-0.2,2.5-0.6c0.5-0.4,0.7-1,0.7-1.7c0-0.6-0.3-1.1-0.8-1.5c-0.5-0.4-1.2-0.6-2.1-0.6h-3.7v4.3H279.6z M280,83
			c1.3,0,2.2-0.2,2.8-0.6c0.5-0.4,0.8-1,0.8-1.7c0-1.5-1.2-2.3-3.5-2.3h-3.8V83H280z"/>
		<path class="st13" d="M289.7,84.2c-0.8-0.4-1.4-1.1-1.8-1.9s-0.6-1.7-0.6-2.8s0.2-2,0.6-2.8s1-1.4,1.8-1.9
			c0.8-0.4,1.7-0.7,2.7-0.7c1,0,1.9,0.2,2.7,0.7c0.8,0.4,1.4,1.1,1.8,1.9s0.6,1.7,0.6,2.8s-0.2,2-0.6,2.8s-1,1.4-1.8,1.9
			s-1.7,0.7-2.7,0.7C291.4,84.9,290.5,84.7,289.7,84.2z M294,82.9c0.5-0.3,0.9-0.7,1.2-1.2c0.3-0.5,0.5-1.2,0.5-2.1
			c0-0.8-0.2-1.5-0.5-2.1c-0.3-0.5-0.7-0.9-1.2-1.2c-0.5-0.2-1-0.4-1.6-0.4c-0.6,0-1.1,0.1-1.6,0.4c-0.5,0.2-0.9,0.6-1.2,1.2
			c-0.3,0.5-0.5,1.2-0.5,2.1c0,0.8,0.2,1.5,0.5,2.1c0.3,0.5,0.7,0.9,1.2,1.2s1,0.4,1.6,0.4C292.9,83.2,293.5,83.1,294,82.9z"/>
		<path class="st13" d="M300.3,84.5c-0.2-0.2-0.3-0.4-0.3-0.6v-13c0-0.3,0.1-0.5,0.3-0.6c0.2-0.2,0.4-0.3,0.6-0.3
			c0.3,0,0.5,0.1,0.7,0.3c0.2,0.2,0.3,0.4,0.3,0.7v13c0,0.3-0.1,0.5-0.3,0.6s-0.4,0.3-0.6,0.3C300.7,84.8,300.5,84.7,300.3,84.5z"/>
		<path class="st13" d="M306.9,84.3c-0.7-0.4-1.3-1-1.8-1.8s-0.7-1.8-0.7-2.8s0.2-2,0.7-2.8s1.1-1.4,1.8-1.8
			c0.7-0.4,1.5-0.6,2.3-0.6c1.3,0,2.4,0.5,3.4,1.5v-4.9c0-0.3,0.1-0.5,0.3-0.7c0.2-0.2,0.4-0.3,0.6-0.3c0.3,0,0.5,0.1,0.6,0.3
			c0.2,0.2,0.3,0.4,0.3,0.6v13c0,0.3-0.1,0.5-0.3,0.6c-0.2,0.2-0.4,0.3-0.6,0.3c-0.3,0-0.5-0.1-0.6-0.3c-0.2-0.2-0.3-0.4-0.3-0.6
			v-0.5c-1,1-2.1,1.5-3.4,1.5C308.4,84.9,307.6,84.7,306.9,84.3z M311.2,82.8c0.5-0.3,1-0.6,1.4-1.1v-4.2c-0.4-0.5-0.9-0.8-1.4-1.1
			s-1.1-0.4-1.7-0.4c-1,0-1.8,0.3-2.4,0.9c-0.6,0.6-0.9,1.5-0.9,2.7s0.3,2,0.9,2.7c0.6,0.6,1.4,0.9,2.4,0.9
			C310.1,83.2,310.7,83.1,311.2,82.8z"/>
	</g>
</g>
<g id="Layer_2">
	<g>
		<path class="st14" d="M736.2-248c0,0-4.2,0.6-5.4,0.9c-35.6,8.8-48.6,45.7-48.6,45.7l5.5,1.9l1.5,5.2c0,0,37.3-13.5,46-48.3
			C735.6-243.8,736.2-248,736.2-248z"/>
		<line class="st14" x1="724.3" y1="-236" x2="687.4" y2="-199.1"/>
	</g>
</g>
<g id="Layer_3">
	<path class="st15" d="M602.6-249.1l2.9,2.9c3.1,3.1,3.7,8.4,0.4,10.8c-0.6,0.4-2.7,1.9-3.3,2.3c-11.4,9-26,24.4-35.7,34.8
		c-0.5,0.5-5.1,6.9-5.8,7.8c-2.6,3.1-7.7,2.6-10.8-0.4l-2.9-2.9c-3.1-3.1-3.5-8.2-0.4-10.8c0.8-0.7,7.6-5.7,8-6.1
		c10.3-9.8,25.3-24,34.4-35.4c0.5-0.6,2-2.8,2.4-3.4C594.3-252.7,599.5-252.2,602.6-249.1z"/>
	<g>
		<circle class="st16" cx="708" cy="-334.5" r="28"/>
	</g>
	<path class="st17" d="M600.5-312h-4c-1.7,0-3-1.4-3-3v-38.5c0-1.6,1.3-3,3-3h4c1.7,0,3,1.4,3,3v38.5
		C603.5-313.4,602.2-312,600.5-312z"/>
	<path class="st17" d="M557.5-312h-4c-1.7,0-3-1.4-3-3v-38.5c0-1.6,1.3-3,3-3h4c1.7,0,3,1.4,3,3v38.5
		C560.5-313.4,559.2-312,557.5-312z"/>
	<rect x="560.5" y="-338.1" class="st17" width="33" height="7.3"/>
	<rect x="603.5" y="-338.1" class="st17" width="6" height="7.3"/>
	<rect x="544.5" y="-338.1" class="st17" width="6" height="7.3"/>
	<g>
		<path class="st18" d="M543.6-278.5l0.4-1.6c0.4,0.2,0.9,0.4,1.5,0.6c0.6,0.2,1.1,0.3,1.6,0.3c0.8,0,1.4-0.1,1.8-0.4
			s0.6-0.7,0.6-1.1c0-0.3-0.1-0.6-0.3-0.9c-0.2-0.3-0.5-0.5-0.9-0.7c-0.4-0.2-0.9-0.5-1.5-0.8c-1.1-0.6-2-1.1-2.5-1.7
			c-0.6-0.6-0.9-1.3-0.9-2.1c0-0.6,0.2-1.2,0.5-1.6c0.3-0.5,0.8-0.9,1.4-1.2c0.6-0.3,1.3-0.4,2.2-0.4c0.6,0,1.1,0.1,1.7,0.2
			c0.6,0.2,1.1,0.4,1.6,0.6l-0.7,1.6c-0.5-0.2-0.9-0.4-1.3-0.5c-0.4-0.1-0.8-0.2-1.3-0.2c-0.6,0-1.1,0.1-1.5,0.4
			c-0.4,0.2-0.6,0.6-0.6,1.1c0,0.3,0.1,0.6,0.3,0.9c0.2,0.3,0.5,0.5,0.8,0.7c0.3,0.2,0.9,0.5,1.6,0.9c0.8,0.4,1.4,0.8,1.8,1.1
			c0.5,0.3,0.8,0.7,1.1,1.2c0.3,0.4,0.4,1,0.4,1.6c0,0.6-0.2,1.2-0.5,1.7c-0.3,0.5-0.9,0.9-1.5,1.2s-1.5,0.4-2.4,0.4
			c-0.5,0-1.2-0.1-1.9-0.3S543.9-278.3,543.6-278.5z"/>
		<path class="st18" d="M557.6-286.5l0.6,1.5H556v4.2c0,0.5,0.1,0.8,0.3,1.1c0.2,0.3,0.5,0.4,0.9,0.4c0.3,0,0.6-0.1,0.9-0.2l0.6,1.5
			c-0.2,0.1-0.4,0.2-0.7,0.3c-0.3,0.1-0.6,0.1-0.9,0.1c-1,0-1.7-0.3-2.3-0.8s-0.8-1.2-0.8-2.2v-4.5h-1.2v-1.5h1.2v-2.1l2-0.4v2.5
			H557.6z"/>
		<path class="st18" d="M562.6-277.8h-2v-8.7h1.1l0.7,1.4c0.4-0.4,0.9-0.7,1.5-1c0.6-0.3,1-0.5,1.5-0.5l0.4,1.6
			c-0.4,0-0.9,0.1-1.5,0.4c-0.6,0.3-1.1,0.7-1.6,1.1V-277.8z"/>
		<path class="st18" d="M575-281.6h-6c0.2,1.6,1.1,2.3,2.8,2.3c0.5,0,0.9-0.1,1.3-0.2s0.8-0.3,1.3-0.6l0.6,1.5c-1,0.7-2,1-3.2,1
			c-1.6,0-2.8-0.4-3.6-1.2c-0.8-0.8-1.3-1.9-1.3-3.4c0-0.9,0.2-1.7,0.5-2.4c0.3-0.7,0.8-1.2,1.5-1.6c0.6-0.4,1.4-0.6,2.3-0.6
			c1.3,0,2.3,0.4,2.9,1.3c0.7,0.9,1,1.9,1,3.3V-281.6z M568.9-283h4.1c-0.1-0.7-0.3-1.2-0.7-1.5c-0.3-0.3-0.8-0.5-1.4-0.5
			c-0.6,0-1,0.2-1.4,0.5C569.2-284.1,569-283.6,568.9-283z"/>
		<path class="st18" d="M579-277.8h-2v-8.7h1.3l0.4,1c0.5-0.4,1.1-0.7,1.7-1c0.6-0.2,1.2-0.4,1.7-0.4c1,0,1.8,0.3,2.2,0.9
			c0.5,0.6,0.7,1.4,0.7,2.5v5.6h-2v-5.5c0-1.2-0.5-1.8-1.3-1.8c-0.7,0-1.6,0.4-2.6,1.2V-277.8z"/>
		<path class="st18" d="M595.1-286.5v9.3c0,1.1-0.4,2-1.2,2.6c-0.8,0.6-1.9,1-3.2,1c-0.4,0-1-0.1-1.7-0.3c-0.7-0.2-1.2-0.4-1.6-0.7
			l0.6-1.5c0.5,0.3,1,0.4,1.4,0.6c0.4,0.1,0.8,0.2,1.3,0.2c0.7,0,1.3-0.2,1.8-0.5c0.4-0.3,0.7-0.8,0.7-1.4v-0.9
			c-0.3,0.2-0.6,0.3-1,0.4c-0.3,0.1-0.7,0.2-1,0.2c-0.9,0-1.7-0.2-2.3-0.6c-0.7-0.4-1.2-0.9-1.5-1.6c-0.4-0.7-0.5-1.5-0.5-2.4
			c0-0.9,0.2-1.7,0.5-2.4c0.4-0.7,0.9-1.2,1.5-1.6s1.4-0.6,2.3-0.6c0.4,0,0.8,0.1,1.2,0.3c0.4,0.2,0.8,0.4,1.2,0.7l0.4-0.7H595.1z
			 M592.2-279.5c0.3-0.1,0.6-0.3,0.9-0.5v-4.3c-0.3-0.3-0.6-0.4-0.9-0.5c-0.3-0.1-0.6-0.2-1-0.2c-0.7,0-1.3,0.3-1.7,0.8
			s-0.6,1.2-0.6,2c0,0.9,0.2,1.6,0.6,2.1c0.4,0.5,1,0.8,1.7,0.8C591.6-279.3,591.9-279.4,592.2-279.5z"/>
		<path class="st18" d="M601.8-286.5l0.6,1.5h-2.2v4.2c0,0.5,0.1,0.8,0.3,1.1c0.2,0.3,0.5,0.4,0.9,0.4c0.3,0,0.6-0.1,0.9-0.2
			l0.6,1.5c-0.2,0.1-0.4,0.2-0.7,0.3c-0.3,0.1-0.6,0.1-0.9,0.1c-1,0-1.7-0.3-2.3-0.8s-0.8-1.2-0.8-2.2v-4.5H597v-1.5h1.2v-2.1l2-0.4
			v2.5H601.8z"/>
		<path class="st18" d="M612.8-283.4v5.6h-2v-5.5c0-1.2-0.5-1.8-1.4-1.8c-0.7,0-1.6,0.4-2.5,1.2v6.1h-2v-12.5l2-0.2v4.8
			c0.5-0.3,1-0.6,1.5-0.8c0.5-0.2,1-0.3,1.5-0.3C611.8-286.8,612.8-285.7,612.8-283.4z"/>
	</g>
	<g>
		<path class="st19" d="M686.3-281.1l-3.2-4.3v8.1h-2v-12.2h1.3l4.2,5.9l3.9-5.9h1.2v12.2h-2.1v-7.8l-2.7,3.9L686.3-281.1z"/>
		<path class="st19" d="M702.7-279.3c-0.4,0.7-0.9,1.2-1.6,1.6c-0.7,0.4-1.5,0.6-2.4,0.6c-0.9,0-1.7-0.2-2.4-0.6
			c-0.7-0.4-1.2-0.9-1.6-1.6c-0.4-0.7-0.5-1.5-0.5-2.4c0-0.9,0.2-1.7,0.5-2.4s0.9-1.2,1.6-1.6c0.7-0.4,1.5-0.6,2.4-0.6
			c0.9,0,1.7,0.2,2.4,0.6c0.7,0.4,1.2,0.9,1.6,1.6c0.4,0.7,0.5,1.5,0.5,2.4C703.3-280.8,703.1-280,702.7-279.3z M700.5-279.6
			c0.5-0.5,0.7-1.2,0.7-2c0-0.9-0.2-1.5-0.7-2.1c-0.4-0.5-1-0.8-1.8-0.8c-0.7,0-1.3,0.3-1.8,0.8c-0.4,0.5-0.7,1.2-0.7,2.1
			c0,0.9,0.2,1.5,0.7,2.1c0.4,0.5,1,0.8,1.8,0.8C699.5-278.8,700.1-279.1,700.5-279.6z"/>
		<path class="st19" d="M709.3-286l0.6,1.5h-2.2v4.2c0,0.5,0.1,0.8,0.3,1.1c0.2,0.3,0.5,0.4,0.9,0.4c0.3,0,0.6-0.1,0.9-0.2l0.6,1.5
			c-0.2,0.1-0.4,0.2-0.7,0.3c-0.3,0.1-0.6,0.1-0.9,0.1c-1,0-1.7-0.3-2.3-0.8s-0.8-1.2-0.8-2.2v-4.5h-1.2v-1.5h1.2v-2.1l2-0.4v2.5
			H709.3z"/>
		<path class="st19" d="M713.2-287.4c-0.3,0-0.6-0.1-0.8-0.4c-0.2-0.2-0.3-0.5-0.3-0.9c0-0.3,0.1-0.6,0.3-0.8
			c0.2-0.2,0.5-0.4,0.8-0.4c0.3,0,0.6,0.1,0.9,0.4c0.2,0.2,0.4,0.5,0.4,0.8c0,0.3-0.1,0.6-0.4,0.9
			C713.8-287.6,713.5-287.4,713.2-287.4z M712.2-277.3v-8.7h2v8.7H712.2z"/>
		<path class="st19" d="M724.7-279.3c-0.4,0.7-0.9,1.2-1.6,1.6c-0.7,0.4-1.5,0.6-2.4,0.6c-0.9,0-1.7-0.2-2.4-0.6
			c-0.7-0.4-1.2-0.9-1.6-1.6c-0.4-0.7-0.5-1.5-0.5-2.4c0-0.9,0.2-1.7,0.5-2.4s0.9-1.2,1.6-1.6c0.7-0.4,1.5-0.6,2.4-0.6
			c0.9,0,1.7,0.2,2.4,0.6c0.7,0.4,1.2,0.9,1.6,1.6c0.4,0.7,0.5,1.5,0.5,2.4C725.2-280.8,725-280,724.7-279.3z M722.5-279.6
			c0.5-0.5,0.7-1.2,0.7-2c0-0.9-0.2-1.5-0.7-2.1c-0.4-0.5-1-0.8-1.8-0.8c-0.7,0-1.3,0.3-1.8,0.8c-0.4,0.5-0.7,1.2-0.7,2.1
			c0,0.9,0.2,1.5,0.7,2.1c0.4,0.5,1,0.8,1.8,0.8C721.4-278.8,722-279.1,722.5-279.6z"/>
		<path class="st19" d="M729.2-277.3h-2v-8.7h1.3l0.4,1c0.5-0.4,1.1-0.7,1.7-1c0.6-0.2,1.2-0.4,1.7-0.4c1,0,1.8,0.3,2.2,0.9
			c0.5,0.6,0.7,1.4,0.7,2.5v5.6h-2v-5.5c0-1.2-0.5-1.8-1.3-1.8c-0.7,0-1.6,0.4-2.6,1.2V-277.3z"/>
	</g>
</g>
</svg>
