<?xml version="1.0" encoding="utf-8"?>
<!-- Generator: Adobe Illustrator 22.0.1, SVG Export Plug-In . SVG Version: 6.00 Build 0)  -->
<svg version="1.1" xmlns="http://www.w3.org/2000/svg" xmlns:xlink="http://www.w3.org/1999/xlink" x="0px" y="0px"
	 viewBox="0 0 200 100" style="enable-background:new 0 0 200 100;" xml:space="preserve">
<style type="text/css">
	.st0{fill:none;stroke:#F45E58;stroke-miterlimit:10;}
	.st1{fill:none;stroke:#288FEB;stroke-miterlimit:10;}
	.st2{fill:#F45E58;}
	.st3{fill:#288FEB;}
	.st4{fill:none;stroke:#F0F0F0;stroke-width:3;stroke-miterlimit:10;}
	.st5{fill:#FFFFFF;}
	.st6{fill:#278BD6;}
	.st7{opacity:0.13;fill:#278BD6;enable-background:new    ;}
	.st8{fill:#E05C5C;}
	.st9{fill:#F4615B;}
	.st10{fill:#F0F0F0;}
	.st11{fill:#248CD0;}
	.st12{fill:#F0F0F0;stroke:#F0F0F0;stroke-width:0.75;stroke-miterlimit:10;}
	.st13{fill:#F0F0F0;stroke:#F0F0F0;stroke-width:1.5;stroke-miterlimit:10;}
	.st14{fill:none;stroke:#248CD0;stroke-miterlimit:10;}
	.st15{fill:none;stroke:#F0F0F0;stroke-linecap:round;stroke-miterlimit:10;}
	.st16{fill:none;stroke:#FFD18F;stroke-miterlimit:10;stroke-dasharray:12.5631,12.5631;}
	.st17{fill:none;stroke:#D3D3D3;stroke-miterlimit:10;}
	.st18{fill:#D3D3D3;}
	.st19{fill:#FFD18F;}
</style>
<g id="Layer_1">
	<path class="st0" d="M-166.7-56.4c-3.8,3.6-15,13.2-16.4,13.2c-1.4,0-12.8-9.7-16.7-13.3c-2.8-2.6-5.4-5.3-6.1-13
		c-0.7-7.3-2.1-27.5-0.2-27.8c11.3-2.4,34.7-1.5,46.1,0.2c1.6,0.2,0.2,20.4-0.5,28C-161-61.5-163.9-59-166.7-56.4z"/>
	<path class="st1" d="M-18-46.6h-48c-1.1,0-2-0.9-2-2V-94c0-1.1,0.9-2,2-2h48c1.1,0,2,0.9,2,2v45.4C-16-47.5-16.9-46.6-18-46.6z"/>
	<path class="st1" d="M-28.2-56.8h-27.5c-1.1,0-2-0.9-2-1.9v-23.1c0-1.1,0.9-1.9,2-1.9h5.6v-1.9c0-0.5,0.5-1,1-1h14.3
		c0.6,0,1,0.4,1,1v1.9h5.6c1.1,0,2,0.9,2,1.9v23.1C-26.2-57.7-27.1-56.8-28.2-56.8z"/>
	<line class="st1" x1="-33.1" y1="-65.5" x2="-33.1" y2="-56.8"/>
	<line class="st1" x1="-50.9" y1="-65.5" x2="-50.9" y2="-56.8"/>
	<line class="st1" x1="-39.2" y1="-65.5" x2="-39.2" y2="-56.8"/>
	<line class="st1" x1="-44.8" y1="-65.5" x2="-44.8" y2="-56.8"/>
	<g>
		<path class="st2" d="M-206.6-18.6h-4v-10.9h4c1.6,0,2.8,0.5,3.7,1.5c0.8,1,1.2,2.3,1.2,3.9c0,1.1-0.2,2.1-0.6,2.9
			c-0.4,0.8-0.9,1.5-1.7,1.9C-204.7-18.8-205.6-18.6-206.6-18.6z M-206.5-27.9h-2.3v7.8h2.2c1,0,1.7-0.3,2.3-1s0.8-1.7,0.8-3
			c0-1.2-0.3-2.2-0.8-2.8C-204.8-27.6-205.5-27.9-206.5-27.9z"/>
		<path class="st2" d="M-193.4-22h-5.4c0.2,1.4,1,2.1,2.5,2.1c0.4,0,0.8-0.1,1.1-0.2c0.3-0.1,0.7-0.3,1.2-0.5l0.5,1.3
			c-0.9,0.6-1.8,0.9-2.9,0.9c-1.4,0-2.5-0.4-3.2-1.1c-0.7-0.7-1.1-1.7-1.1-3c0-0.8,0.2-1.5,0.5-2.1c0.3-0.6,0.7-1.1,1.3-1.4
			c0.6-0.3,1.2-0.5,2-0.5c1.1,0,2,0.4,2.6,1.1c0.6,0.8,0.9,1.7,0.9,2.9V-22z M-198.7-23.2h3.6c-0.1-0.6-0.3-1.1-0.6-1.4
			c-0.3-0.3-0.7-0.5-1.2-0.5c-0.5,0-0.9,0.2-1.2,0.5C-198.4-24.2-198.6-23.8-198.7-23.2z"/>
		<path class="st2" d="M-192.7-24.9v-1.4h1.2v-0.8c0-0.8,0.2-1.5,0.7-2c0.5-0.5,1.2-0.7,2-0.7c0.2,0,0.5,0,0.8,0.1
			c0.3,0.1,0.5,0.2,0.6,0.3l-0.5,1.3c-0.3-0.1-0.6-0.2-0.8-0.2c-0.4,0-0.6,0.1-0.8,0.4c-0.2,0.2-0.3,0.6-0.3,1v0.6h1.4l0.6,1.4h-2
			v6.3h-1.8v-6.3H-192.7z"/>
		<path class="st2" d="M-179.6-22h-5.4c0.2,1.4,1,2.1,2.5,2.1c0.4,0,0.8-0.1,1.1-0.2c0.3-0.1,0.7-0.3,1.2-0.5l0.5,1.3
			c-0.9,0.6-1.8,0.9-2.9,0.9c-1.4,0-2.5-0.4-3.2-1.1c-0.7-0.7-1.1-1.7-1.1-3c0-0.8,0.2-1.5,0.5-2.1c0.3-0.6,0.7-1.1,1.3-1.4
			c0.6-0.3,1.2-0.5,2-0.5c1.1,0,2,0.4,2.6,1.1c0.6,0.8,0.9,1.7,0.9,2.9V-22z M-185-23.2h3.6c-0.1-0.6-0.3-1.1-0.6-1.4
			c-0.3-0.3-0.7-0.5-1.2-0.5c-0.5,0-0.9,0.2-1.2,0.5C-184.7-24.2-184.9-23.8-185-23.2z"/>
		<path class="st2" d="M-176.5-18.6h-1.8v-7.8h1.2l0.3,0.9c0.4-0.4,0.9-0.7,1.5-0.9s1-0.3,1.5-0.3c0.9,0,1.6,0.3,2,0.8
			c0.4,0.5,0.6,1.3,0.6,2.2v5h-1.8v-4.9c0-1.1-0.4-1.6-1.2-1.6c-0.7,0-1.4,0.4-2.3,1.1V-18.6z"/>
		<path class="st2" d="M-163.8-20.5l0.5,1.3c-0.3,0.2-0.8,0.4-1.3,0.6c-0.5,0.1-1,0.2-1.4,0.2c-0.8,0-1.5-0.2-2.1-0.5
			c-0.6-0.3-1.1-0.8-1.4-1.4c-0.3-0.6-0.5-1.3-0.5-2.2c0-0.8,0.2-1.5,0.5-2.1c0.3-0.6,0.8-1.1,1.4-1.4c0.6-0.3,1.3-0.5,2.1-0.5
			c0.4,0,0.8,0.1,1.3,0.2c0.5,0.1,1,0.3,1.3,0.6l-0.5,1.3c-0.4-0.2-0.8-0.3-1.1-0.4c-0.3-0.1-0.7-0.1-1-0.1c-0.6,0-1.2,0.2-1.6,0.7
			c-0.4,0.5-0.6,1.1-0.6,1.8c0,0.8,0.2,1.4,0.6,1.8c0.4,0.5,0.9,0.7,1.6,0.7c0.4,0,0.8,0,1.1-0.1C-164.5-20.2-164.2-20.3-163.8-20.5
			z"/>
		<path class="st2" d="M-155.2-22h-5.4c0.2,1.4,1,2.1,2.5,2.1c0.4,0,0.8-0.1,1.1-0.2c0.3-0.1,0.7-0.3,1.2-0.5l0.5,1.3
			c-0.9,0.6-1.8,0.9-2.9,0.9c-1.4,0-2.5-0.4-3.2-1.1c-0.7-0.7-1.1-1.7-1.1-3c0-0.8,0.2-1.5,0.5-2.1c0.3-0.6,0.7-1.1,1.3-1.4
			c0.6-0.3,1.2-0.5,2-0.5c1.1,0,2,0.4,2.6,1.1c0.6,0.8,0.9,1.7,0.9,2.9V-22z M-160.5-23.2h3.6c-0.1-0.6-0.3-1.1-0.6-1.4
			c-0.3-0.3-0.7-0.5-1.2-0.5c-0.5,0-0.9,0.2-1.2,0.5C-160.2-24.2-160.4-23.8-160.5-23.2z"/>
	</g>
	<g>
		<path class="st3" d="M-52.8-21l3.1-8.4h1.8l-4.2,10.9h-1.6l-4.2-10.8l1.8-0.3L-52.8-21z"/>
		<path class="st3" d="M-44.5-18.6h-1.8v-10.9h3.2c1.3,0,2.3,0.3,3,0.8c0.8,0.6,1.2,1.4,1.2,2.6c0,0.8-0.2,1.4-0.6,2
			c-0.4,0.5-0.9,0.9-1.6,1.2c-0.7,0.3-1.4,0.4-2.2,0.4h-1.3V-18.6z M-43.1-28h-1.4v4h1.4c0.7,0,1.3-0.2,1.7-0.5
			c0.4-0.3,0.6-0.8,0.7-1.5c0-0.7-0.2-1.3-0.6-1.6C-41.8-27.8-42.3-28-43.1-28z"/>
		<path class="st3" d="M-37-18.6v-10.9h1.7l5.3,7.7v-7.7h1.8v10.9h-1.7l-5.3-7.7v7.7H-37z"/>
	</g>
	<line class="st4" x1="-111.5" y1="-70" x2="-111.5" y2="-57"/>
	<line class="st4" x1="-105" y1="-63.5" x2="-118" y2="-63.5"/>
	<line class="st4" x1="309.5" y1="44" x2="309.5" y2="57"/>
	<line class="st4" x1="316" y1="50.5" x2="303" y2="50.5"/>
	<line class="st4" x1="309.5" y1="-70" x2="309.5" y2="-57"/>
	<line class="st4" x1="316" y1="-63.5" x2="303" y2="-63.5"/>
	<g>
		<path class="st5" d="M-199.4,55.4c0,0,54-13.5,88.6-13.5C-76,42-24,54.4-24,54.4l-6.6,41.4c0,0-60.1-7.6-80.8-7.6
			c-20.4,0-79.6,7.6-79.6,7.6L-199.4,55.4z"/>
		<path class="st5" d="M-112.1,11L-112.1,11l76.3,31.5c0,0-6.2,76.3-19.1,97.7c-9.5,15.8-57.3,46.6-57.3,46.6"/>
		<path class="st5" d="M-111.3,186.2L-112,11l-0.1,0l-0.1,0l-76.3,31.5c0,0,6.2,76.3,19.1,97.7c8.6,14.4,49.2,41.3,56.2,45.9
			c0.7,0.4,1,0.7,1,0.7L-111.3,186.2z"/>
		<path class="st2" d="M-111.9,17.3L-43,46c0,0-5.6,69.6-17.2,89.1c-8.5,14.4-51.7,42.5-51.7,42.5"/>
		<path class="st2" d="M-111.9,17.3L-180.8,46c0,0,5.6,69.6,17.2,89.1c7.5,12.7,51.7,42.6,51.7,42.6l9.4-6.5l-0.2-150.1"/>
		<path d="M-111.2,24.3L-49.7,50c0,0-5,62.2-15.3,79.7c-7.6,12.9-46.2,38-46.2,38"/>
		<path d="M-111.2,24.3L-172.7,50c0,0,5,62.2,15.3,79.7c7.6,12.9,46.2,38,46.2,38"/>
		<path class="st3" d="M-111.3,30l55.7,23.3c0,0-4.5,56.3-13.9,72c-6.9,11.7-41.8,34.4-41.8,34.4s-14.7-10.7-7.3-77.4"/>
		<path class="st6" d="M-111.3,30L-167,53.2c0,0,4.5,56.3,13.9,72c6.9,11.7,41.9,34.4,41.9,34.4"/>
		<path class="st5" d="M-101.9,94.6c0,5.2-4.2,9.4-9.4,9.4s-9.4-4.2-9.4-9.4c0-5.2,4.2-9.4,9.4-9.4l0,0
			C-106.1,85.2-101.9,89.4-101.9,94.6L-101.9,94.6z"/>
		<polygon class="st5" points="-120,129.5 -102.7,129.5 -107.8,103.1 -114.8,103.3 		"/>
		<path class="st7" d="M-111.3,30L-111.3,30L-167,53.2c0,0,4.5,56.3,13.9,72c6.9,11.7,41.9,34.4,41.9,34.4V80.8"/>
		<polygon class="st8" points="-38.6,86.6 -48.3,89.7 -47.7,85.8 		"/>
		<polygon class="st8" points="-184.7,87.4 -176.1,86.4 -175.4,89.1 		"/>
		<path class="st2" d="M-192,60.4c0,0,42.5-9.5,80.7-9.5c38.9,0,79.5,8.8,79.5,8.8l-4.4,27.9c0,0-56.7-6.7-75.7-6.7
			c-18.8,0-74.6,6.7-74.6,6.7L-192,60.4z"/>
	</g>
	<g>
		<g>
			<path class="st2" d="M-175.2,236.7c-0.3,0-0.6-0.1-0.8-0.3c-0.2-0.2-0.3-0.5-0.3-0.8v-14.2c0-0.3,0.1-0.6,0.3-0.8
				c0.2-0.2,0.5-0.4,0.8-0.4h4.7c1.8,0,3.3,0.4,4.6,1.2c1.3,0.8,2.2,1.8,2.8,3.1c0.6,1.3,1,2.6,1,4c0,1.4-0.3,2.7-1,4
				c-0.6,1.3-1.6,2.3-2.8,3.1c-1.3,0.8-2.8,1.2-4.6,1.2H-175.2z M-170.8,234.4c1.3,0,2.4-0.3,3.3-0.8c0.9-0.5,1.7-1.2,2.2-2.1
				c0.5-0.9,0.8-2,0.8-3.2c0-1.2-0.3-2.3-0.8-3.2c-0.5-0.9-1.3-1.6-2.2-2.1c-0.9-0.5-2.1-0.8-3.3-0.8h-3.2v12.1H-170.8z"/>
			<path class="st2" d="M-170.5,220.2c1.8,0,3.3,0.4,4.5,1.2c1.2,0.8,2.2,1.8,2.8,3.1c0.6,1.2,0.9,2.6,0.9,3.9
				c0,1.4-0.3,2.7-0.9,3.9c-0.6,1.2-1.6,2.3-2.8,3.1c-1.2,0.8-2.8,1.2-4.5,1.2h-4.7c-0.3,0-0.5-0.1-0.8-0.3
				c-0.2-0.2-0.3-0.5-0.3-0.8v-14.2c0-0.3,0.1-0.6,0.3-0.8c0.2-0.2,0.5-0.3,0.8-0.3H-170.5 M-174.2,234.6h3.4c1.3,0,2.4-0.3,3.4-0.8
				c1-0.5,1.7-1.2,2.2-2.2c0.5-0.9,0.8-2,0.8-3.2c0-1.2-0.3-2.3-0.8-3.2c-0.5-0.9-1.3-1.7-2.2-2.2c-1-0.5-2.1-0.8-3.4-0.8h-3.4
				V234.6 M-170.5,220h-4.7c-0.4,0-0.7,0.1-0.9,0.4c-0.2,0.3-0.4,0.6-0.4,0.9v14.2c0,0.4,0.1,0.7,0.4,0.9c0.2,0.3,0.6,0.4,0.9,0.4
				h4.7c1.8,0,3.4-0.4,4.7-1.2c1.3-0.8,2.2-1.9,2.9-3.2c0.6-1.3,1-2.6,1-4c0-1.4-0.3-2.8-1-4c-0.6-1.3-1.6-2.3-2.9-3.2
				C-167.1,220.4-168.7,220-170.5,220L-170.5,220z M-173.9,222.4h3.1c1.2,0,2.3,0.3,3.3,0.8c0.9,0.5,1.6,1.2,2.2,2.1
				c0.5,0.9,0.8,1.9,0.8,3.1c0,1.2-0.3,2.2-0.8,3.1c-0.5,0.9-1.2,1.6-2.2,2.1c-0.9,0.5-2,0.8-3.3,0.8h-3.1V222.4L-173.9,222.4z"/>
		</g>
		<g>
			<path class="st2" d="M-157.1,236.7c-0.3,0-0.6-0.1-0.8-0.3c-0.2-0.2-0.3-0.5-0.3-0.8v-14.2c0-0.3,0.1-0.6,0.3-0.8
				c0.2-0.2,0.5-0.4,0.8-0.4h9.4c0.3,0,0.6,0.1,0.8,0.3c0.2,0.2,0.3,0.5,0.3,0.8c0,0.3-0.1,0.6-0.3,0.8c-0.2,0.2-0.5,0.3-0.8,0.3
				h-8.2v4.9h7.3c0.3,0,0.6,0.1,0.8,0.3c0.2,0.2,0.3,0.5,0.3,0.8c0,0.3-0.1,0.6-0.3,0.8c-0.2,0.2-0.5,0.3-0.8,0.3h-7.3v5h8.2
				c0.3,0,0.6,0.1,0.8,0.3c0.2,0.2,0.3,0.5,0.3,0.8c0,0.3-0.1,0.6-0.3,0.8c-0.2,0.2-0.5,0.3-0.8,0.3H-157.1z"/>
			<path class="st2" d="M-147.7,220.2c0.3,0,0.5,0.1,0.7,0.3c0.2,0.2,0.3,0.4,0.3,0.7c0,0.3-0.1,0.5-0.3,0.7
				c-0.2,0.2-0.4,0.3-0.7,0.3h-8.3v5.2h7.5c0.3,0,0.5,0.1,0.7,0.3c0.2,0.2,0.3,0.4,0.3,0.7c0,0.3-0.1,0.5-0.3,0.7
				c-0.2,0.2-0.4,0.3-0.7,0.3h-7.5v5.2h8.3c0.3,0,0.5,0.1,0.7,0.3c0.2,0.2,0.3,0.4,0.3,0.7c0,0.3-0.1,0.5-0.3,0.7
				c-0.2,0.2-0.4,0.3-0.7,0.3h-9.4c-0.3,0-0.5-0.1-0.8-0.3c-0.2-0.2-0.3-0.5-0.3-0.8v-14.2c0-0.3,0.1-0.6,0.3-0.8
				c0.2-0.2,0.5-0.3,0.8-0.3H-147.7 M-147.7,220h-9.4c-0.4,0-0.7,0.1-0.9,0.4c-0.2,0.3-0.4,0.6-0.4,0.9v14.2c0,0.4,0.1,0.7,0.4,0.9
				c0.2,0.3,0.6,0.4,0.9,0.4h9.4c0.3,0,0.6-0.1,0.9-0.3c0.2-0.2,0.4-0.5,0.4-0.9c0-0.3-0.1-0.6-0.4-0.9c-0.2-0.2-0.5-0.4-0.9-0.4
				h-8.1v-4.7h7.2c0.3,0,0.6-0.1,0.9-0.3c0.2-0.2,0.4-0.5,0.4-0.9c0-0.3-0.1-0.6-0.4-0.9c-0.2-0.2-0.5-0.4-0.9-0.4h-7.2v-4.7h8.1
				c0.3,0,0.6-0.1,0.9-0.4c0.2-0.2,0.4-0.5,0.4-0.9c0-0.3-0.1-0.6-0.4-0.9C-147,220.1-147.3,220-147.7,220L-147.7,220z"/>
		</g>
		<g>
			<path class="st2" d="M-141.5,236.8c-0.3,0-0.6-0.1-0.8-0.3c-0.2-0.2-0.3-0.5-0.3-0.8v-14.3c0-0.3,0.1-0.6,0.3-0.8
				c0.2-0.2,0.5-0.4,0.8-0.4h9.1c0.3,0,0.6,0.1,0.8,0.3c0.2,0.2,0.3,0.5,0.3,0.8c0,0.3-0.1,0.6-0.3,0.8c-0.2,0.2-0.5,0.3-0.8,0.3
				h-7.9v4.9h7.1c0.3,0,0.6,0.1,0.8,0.3c0.2,0.2,0.3,0.5,0.3,0.8c0,0.3-0.1,0.6-0.3,0.8c-0.2,0.2-0.5,0.3-0.8,0.3h-7.1v6.1
				c0,0.3-0.1,0.6-0.4,0.8C-140.9,236.7-141.2,236.8-141.5,236.8z"/>
			<path class="st2" d="M-132.4,220.2c0.3,0,0.5,0.1,0.7,0.3c0.2,0.2,0.3,0.4,0.3,0.7c0,0.3-0.1,0.5-0.3,0.7
				c-0.2,0.2-0.4,0.3-0.7,0.3h-8v5.2h7.2c0.3,0,0.5,0.1,0.7,0.3c0.2,0.2,0.3,0.4,0.3,0.7c0,0.3-0.1,0.5-0.3,0.7
				c-0.2,0.2-0.4,0.3-0.7,0.3h-7.2v6.3c0,0.3-0.1,0.5-0.3,0.7c-0.2,0.2-0.5,0.3-0.8,0.3c-0.3,0-0.5-0.1-0.8-0.3
				c-0.2-0.2-0.3-0.5-0.3-0.7v-14.3c0-0.3,0.1-0.6,0.3-0.8c0.2-0.2,0.5-0.3,0.8-0.3H-132.4 M-132.4,220h-9.1c-0.4,0-0.7,0.1-0.9,0.4
				c-0.2,0.3-0.4,0.6-0.4,0.9v14.3c0,0.4,0.1,0.7,0.4,0.9c0.2,0.3,0.6,0.4,0.9,0.4c0.4,0,0.7-0.1,0.9-0.4c0.3-0.2,0.4-0.6,0.4-0.9
				v-6h7c0.3,0,0.6-0.1,0.9-0.3c0.2-0.2,0.4-0.5,0.4-0.9c0-0.3-0.1-0.6-0.4-0.9c-0.2-0.2-0.5-0.4-0.9-0.4h-7v-4.7h7.8
				c0.3,0,0.6-0.1,0.9-0.4c0.2-0.2,0.4-0.5,0.4-0.9c0-0.3-0.1-0.6-0.4-0.9C-131.8,220.1-132.1,220-132.4,220L-132.4,220z"/>
		</g>
		<g>
			<path class="st2" d="M-126.7,236.7c-0.3,0-0.6-0.1-0.8-0.3c-0.2-0.2-0.3-0.5-0.3-0.8v-14.2c0-0.3,0.1-0.6,0.3-0.8
				c0.2-0.2,0.5-0.4,0.8-0.4h9.4c0.3,0,0.6,0.1,0.8,0.3c0.2,0.2,0.3,0.5,0.3,0.8c0,0.3-0.1,0.6-0.3,0.8c-0.2,0.2-0.5,0.3-0.8,0.3
				h-8.2v4.9h7.3c0.3,0,0.6,0.1,0.8,0.3c0.2,0.2,0.3,0.5,0.3,0.8c0,0.3-0.1,0.6-0.3,0.8c-0.2,0.2-0.5,0.3-0.8,0.3h-7.3v5h8.2
				c0.3,0,0.6,0.1,0.8,0.3c0.2,0.2,0.3,0.5,0.3,0.8c0,0.3-0.1,0.6-0.3,0.8c-0.2,0.2-0.5,0.3-0.8,0.3H-126.7z"/>
			<path class="st2" d="M-117.3,220.2c0.3,0,0.5,0.1,0.7,0.3c0.2,0.2,0.3,0.4,0.3,0.7c0,0.3-0.1,0.5-0.3,0.7
				c-0.2,0.2-0.4,0.3-0.7,0.3h-8.3v5.2h7.5c0.3,0,0.5,0.1,0.7,0.3c0.2,0.2,0.3,0.4,0.3,0.7c0,0.3-0.1,0.5-0.3,0.7
				c-0.2,0.2-0.4,0.3-0.7,0.3h-7.5v5.2h8.3c0.3,0,0.5,0.1,0.7,0.3c0.2,0.2,0.3,0.4,0.3,0.7c0,0.3-0.1,0.5-0.3,0.7
				c-0.2,0.2-0.4,0.3-0.7,0.3h-9.4c-0.3,0-0.5-0.1-0.8-0.3c-0.2-0.2-0.3-0.5-0.3-0.8v-14.2c0-0.3,0.1-0.6,0.3-0.8
				c0.2-0.2,0.5-0.3,0.8-0.3H-117.3 M-117.3,220h-9.4c-0.4,0-0.7,0.1-0.9,0.4c-0.2,0.3-0.4,0.6-0.4,0.9v14.2c0,0.4,0.1,0.7,0.4,0.9
				c0.2,0.3,0.6,0.4,0.9,0.4h9.4c0.3,0,0.6-0.1,0.9-0.3c0.2-0.2,0.4-0.5,0.4-0.9c0-0.3-0.1-0.6-0.4-0.9c-0.2-0.2-0.5-0.4-0.9-0.4
				h-8.1v-4.7h7.2c0.3,0,0.6-0.1,0.9-0.3c0.2-0.2,0.4-0.5,0.4-0.9c0-0.3-0.1-0.6-0.4-0.9c-0.2-0.2-0.5-0.4-0.9-0.4h-7.2v-4.7h8.1
				c0.3,0,0.6-0.1,0.9-0.4c0.2-0.2,0.4-0.5,0.4-0.9c0-0.3-0.1-0.6-0.4-0.9C-116.7,220.1-117,220-117.3,220L-117.3,220z"/>
		</g>
		<g>
			<path class="st2" d="M-99.8,236.8c-0.3,0-0.5-0.1-0.8-0.2c-0.2-0.1-0.4-0.3-0.6-0.5l-8.8-12.8v12.3c0,0.3-0.1,0.6-0.4,0.8
				c-0.2,0.2-0.5,0.3-0.8,0.3c-0.3,0-0.6-0.1-0.8-0.3c-0.2-0.2-0.3-0.5-0.3-0.8v-14c0-0.5,0.2-0.8,0.5-1.2c0.3-0.3,0.7-0.5,1.2-0.5
				h0.3c0.5,0,1,0.3,1.4,0.8l8.8,12.7v-12.3c0-0.3,0.1-0.6,0.3-0.8c0.2-0.2,0.5-0.4,0.8-0.4c0.3,0,0.6,0.1,0.9,0.4
				c0.2,0.2,0.4,0.5,0.4,0.8v14c0,0.5-0.2,0.8-0.5,1.2c-0.3,0.3-0.7,0.5-1.2,0.5H-99.8z"/>
			<path class="st2" d="M-99,220.1c0.3,0,0.6,0.1,0.8,0.3c0.2,0.2,0.3,0.5,0.3,0.8v14c0,0.4-0.2,0.8-0.5,1.1
				c-0.3,0.3-0.7,0.4-1.1,0.4h-0.3c-0.3,0-0.5-0.1-0.7-0.2c-0.2-0.1-0.4-0.3-0.5-0.5l-9.1-13.1v12.7c0,0.3-0.1,0.5-0.3,0.7
				c-0.2,0.2-0.5,0.3-0.8,0.3c-0.3,0-0.5-0.1-0.8-0.3c-0.2-0.2-0.3-0.5-0.3-0.7v-14c0-0.4,0.1-0.8,0.4-1.1c0.3-0.3,0.7-0.5,1.1-0.5
				h0.3c0.5,0,0.9,0.2,1.3,0.7l9,13v-12.7c0-0.3,0.1-0.6,0.3-0.8C-99.6,220.2-99.3,220.1-99,220.1 M-99,219.8
				c-0.4,0-0.7,0.1-0.9,0.4c-0.2,0.3-0.4,0.6-0.4,0.9V233l-8.6-12.4c-0.4-0.5-0.9-0.8-1.5-0.8h-0.3c-0.5,0-0.9,0.2-1.3,0.5
				c-0.3,0.4-0.5,0.8-0.5,1.3v14c0,0.4,0.1,0.7,0.4,0.9c0.2,0.3,0.6,0.4,0.9,0.4c0.4,0,0.7-0.1,0.9-0.4c0.3-0.2,0.4-0.6,0.4-0.9
				v-11.9l8.6,12.4c0.2,0.2,0.4,0.4,0.6,0.5c0.3,0.1,0.5,0.2,0.8,0.2h0.3c0.5,0,0.9-0.2,1.3-0.5c0.4-0.3,0.5-0.8,0.5-1.3v-14
				c0-0.4-0.1-0.7-0.4-0.9C-98.4,220-98.7,219.8-99,219.8L-99,219.8z"/>
		</g>
		<g>
			<path class="st2" d="M-85.6,236.9c-1.6,0-3-0.3-4.3-1c-1.3-0.7-2.3-1.7-3-3c-0.7-1.3-1.1-2.8-1.1-4.5s0.4-3.2,1.1-4.5
				c0.7-1.3,1.7-2.3,3-3c1.3-0.7,2.7-1,4.3-1c1.1,0,2,0.1,2.9,0.4c0.8,0.3,1.7,0.6,2.5,1.1c0.4,0.2,0.6,0.5,0.6,1
				c0,0.3-0.1,0.5-0.3,0.7c-0.2,0.2-0.5,0.3-0.8,0.3c-0.2,0-0.3,0-0.5-0.1c-0.7-0.4-1.4-0.6-2-0.8c-0.6-0.2-1.4-0.3-2.2-0.3
				c-1.3,0-2.4,0.3-3.4,0.8c-0.9,0.5-1.6,1.3-2.1,2.2c-0.5,0.9-0.7,2-0.7,3.2c0,1.2,0.2,2.3,0.7,3.2c0.5,0.9,1.2,1.7,2.1,2.2
				c0.9,0.5,2.1,0.8,3.4,0.8c0.8,0,1.6-0.1,2.2-0.3c0.6-0.2,1.3-0.5,2-0.8c0.1-0.1,0.3-0.1,0.5-0.1c0.3,0,0.6,0.1,0.8,0.3
				c0.2,0.2,0.3,0.4,0.3,0.7c0,0.5-0.2,0.8-0.6,1c-0.8,0.5-1.7,0.8-2.5,1.1C-83.6,236.8-84.5,236.9-85.6,236.9z"/>
			<path class="st2" d="M-85.6,220c1.1,0,2,0.1,2.8,0.4c0.8,0.3,1.7,0.6,2.5,1.1c0.3,0.2,0.5,0.5,0.5,0.9c0,0.2-0.1,0.4-0.3,0.6
				c-0.2,0.2-0.4,0.3-0.7,0.3c-0.2,0-0.3,0-0.4-0.1c-0.7-0.4-1.4-0.6-2-0.8c-0.7-0.2-1.4-0.3-2.3-0.3c-1.3,0-2.5,0.3-3.4,0.8
				c-0.9,0.6-1.7,1.3-2.1,2.3c-0.5,1-0.7,2-0.7,3.3c0,1.2,0.2,2.3,0.7,3.3c0.5,1,1.2,1.7,2.1,2.3c0.9,0.6,2.1,0.8,3.4,0.8
				c0.9,0,1.6-0.1,2.3-0.3c0.7-0.2,1.3-0.5,2-0.8c0.1-0.1,0.3-0.1,0.4-0.1c0.3,0,0.5,0.1,0.7,0.3c0.2,0.2,0.3,0.4,0.3,0.6
				c0,0.4-0.2,0.7-0.5,0.9c-0.8,0.5-1.7,0.8-2.5,1.1c-0.8,0.3-1.8,0.4-2.8,0.4c-1.6,0-3-0.3-4.2-1c-1.2-0.7-2.2-1.7-2.9-2.9
				c-0.7-1.3-1.1-2.8-1.1-4.5c0-1.7,0.4-3.2,1.1-4.5c0.7-1.3,1.7-2.2,2.9-2.9C-88.6,220.3-87.2,220-85.6,220 M-85.6,219.7
				c-1.6,0-3.1,0.4-4.3,1c-1.3,0.7-2.3,1.7-3,3c-0.7,1.3-1.1,2.8-1.1,4.6c0,1.7,0.4,3.3,1.1,4.6c0.7,1.3,1.7,2.3,3,3
				c1.3,0.7,2.7,1.1,4.3,1.1c1.1,0,2.1-0.1,2.9-0.4c0.8-0.3,1.7-0.6,2.5-1.1c0.4-0.2,0.6-0.6,0.6-1.1c0-0.3-0.1-0.6-0.3-0.8
				c-0.2-0.2-0.5-0.3-0.9-0.3c-0.2,0-0.4,0-0.5,0.1c-0.7,0.4-1.3,0.6-2,0.8c-0.6,0.2-1.4,0.3-2.2,0.3c-1.3,0-2.4-0.3-3.3-0.8
				c-0.9-0.5-1.6-1.3-2-2.2c-0.5-0.9-0.7-2-0.7-3.2c0-1.2,0.2-2.2,0.7-3.2c0.5-0.9,1.1-1.6,2-2.2c0.9-0.5,2-0.8,3.3-0.8
				c0.8,0,1.6,0.1,2.2,0.3c0.6,0.2,1.3,0.5,2,0.8c0.2,0.1,0.3,0.1,0.5,0.1c0.4,0,0.6-0.1,0.9-0.3c0.2-0.2,0.3-0.5,0.3-0.8
				c0-0.5-0.2-0.9-0.6-1.1c-0.8-0.5-1.7-0.8-2.5-1.1C-83.6,219.8-84.5,219.7-85.6,219.7L-85.6,219.7z"/>
		</g>
		<g>
			<path class="st2" d="M-74.9,236.7c-0.3,0-0.6-0.1-0.8-0.3c-0.2-0.2-0.3-0.5-0.3-0.8v-14.2c0-0.3,0.1-0.6,0.3-0.8
				c0.2-0.2,0.5-0.4,0.8-0.4h9.4c0.3,0,0.6,0.1,0.8,0.3c0.2,0.2,0.3,0.5,0.3,0.8c0,0.3-0.1,0.6-0.3,0.8c-0.2,0.2-0.5,0.3-0.8,0.3
				h-8.2v4.9h7.3c0.3,0,0.6,0.1,0.8,0.3c0.2,0.2,0.3,0.5,0.3,0.8c0,0.3-0.1,0.6-0.3,0.8c-0.2,0.2-0.5,0.3-0.8,0.3h-7.3v5h8.2
				c0.3,0,0.6,0.1,0.8,0.3c0.2,0.2,0.3,0.5,0.3,0.8c0,0.3-0.1,0.6-0.3,0.8c-0.2,0.2-0.5,0.3-0.8,0.3H-74.9z"/>
			<path class="st2" d="M-65.5,220.2c0.3,0,0.5,0.1,0.7,0.3c0.2,0.2,0.3,0.4,0.3,0.7c0,0.3-0.1,0.5-0.3,0.7
				c-0.2,0.2-0.4,0.3-0.7,0.3h-8.3v5.2h7.5c0.3,0,0.5,0.1,0.7,0.3c0.2,0.2,0.3,0.4,0.3,0.7c0,0.3-0.1,0.5-0.3,0.7
				c-0.2,0.2-0.4,0.3-0.7,0.3h-7.5v5.2h8.3c0.3,0,0.5,0.1,0.7,0.3c0.2,0.2,0.3,0.4,0.3,0.7c0,0.3-0.1,0.5-0.3,0.7
				c-0.2,0.2-0.4,0.3-0.7,0.3h-9.4c-0.3,0-0.5-0.1-0.8-0.3c-0.2-0.2-0.3-0.5-0.3-0.8v-14.2c0-0.3,0.1-0.6,0.3-0.8
				c0.2-0.2,0.5-0.3,0.8-0.3H-65.5 M-65.5,220h-9.4c-0.4,0-0.7,0.1-0.9,0.4c-0.2,0.3-0.4,0.6-0.4,0.9v14.2c0,0.4,0.1,0.7,0.4,0.9
				c0.2,0.3,0.6,0.4,0.9,0.4h9.4c0.3,0,0.6-0.1,0.9-0.3c0.2-0.2,0.4-0.5,0.4-0.9c0-0.3-0.1-0.6-0.4-0.9c-0.2-0.2-0.5-0.4-0.9-0.4
				h-8.1v-4.7h7.2c0.3,0,0.6-0.1,0.9-0.3c0.2-0.2,0.4-0.5,0.4-0.9c0-0.3-0.1-0.6-0.4-0.9c-0.2-0.2-0.5-0.4-0.9-0.4h-7.2v-4.7h8.1
				c0.3,0,0.6-0.1,0.9-0.4c0.2-0.2,0.4-0.5,0.4-0.9c0-0.3-0.1-0.6-0.4-0.9C-64.9,220.1-65.2,220-65.5,220L-65.5,220z"/>
		</g>
		<g>
			<path class="st3" d="M-54.8,236.8c-0.7,0-1.2-0.4-1.6-1.2l-5.8-14c-0.1-0.1-0.1-0.3-0.1-0.4c0-0.4,0.1-0.7,0.3-0.9
				c0.2-0.2,0.5-0.3,0.9-0.3c0.2,0,0.5,0.1,0.7,0.2c0.2,0.1,0.3,0.3,0.5,0.6l5.4,13.4l5.4-13.4c0.1-0.2,0.3-0.4,0.5-0.6
				c0.2-0.1,0.4-0.2,0.7-0.2c0.4,0,0.7,0.1,0.9,0.3c0.2,0.2,0.3,0.5,0.3,0.9c0,0.2,0,0.3-0.1,0.4l-5.8,14c-0.4,0.8-0.9,1.2-1.6,1.2
				H-54.8z"/>
			<path class="st3" d="M-48.1,220.1c0.3,0,0.6,0.1,0.8,0.3c0.2,0.2,0.3,0.5,0.3,0.8c0,0.1,0,0.3-0.1,0.4l-5.8,14
				c-0.3,0.7-0.8,1.1-1.5,1.1h-0.5c-0.6,0-1.1-0.4-1.5-1.1l-5.8-14c0-0.1-0.1-0.3-0.1-0.4c0-0.3,0.1-0.6,0.3-0.8
				c0.2-0.2,0.4-0.3,0.8-0.3c0.2,0,0.4,0.1,0.6,0.2c0.2,0.1,0.3,0.3,0.4,0.5l5.5,13.7l5.5-13.7c0.1-0.2,0.2-0.4,0.4-0.5
				C-48.5,220.2-48.3,220.1-48.1,220.1 M-48.1,219.8c-0.3,0-0.5,0.1-0.7,0.2c-0.2,0.2-0.4,0.4-0.5,0.6l-5.3,13.2l-5.3-13.1
				c-0.1-0.3-0.3-0.5-0.5-0.6c-0.2-0.2-0.5-0.2-0.7-0.2c-0.4,0-0.7,0.1-1,0.4c-0.2,0.2-0.4,0.6-0.4,1c0,0.2,0,0.3,0.1,0.5l5.8,14
				c0.4,0.8,0.9,1.2,1.7,1.2h0.5c0.7,0,1.3-0.4,1.7-1.2l5.8-14c0.1-0.2,0.1-0.3,0.1-0.5c0-0.4-0.1-0.7-0.4-1
				C-47.3,220-47.7,219.8-48.1,219.8L-48.1,219.8z"/>
		</g>
		<g>
			<path class="st3" d="M-42.5,236.8c-0.3,0-0.6-0.1-0.8-0.3c-0.2-0.2-0.3-0.5-0.3-0.8v-14.3c0-0.3,0.1-0.6,0.3-0.8
				c0.2-0.2,0.5-0.4,0.8-0.4h5.3c1.5,0,2.7,0.3,3.7,0.8c1,0.5,1.7,1.2,2.1,2c0.4,0.8,0.6,1.7,0.6,2.6s-0.2,1.8-0.6,2.6
				c-0.4,0.8-1.1,1.5-2.1,2c-0.9,0.5-2.2,0.8-3.7,0.8h-4.1v4.9c0,0.3-0.1,0.6-0.4,0.8C-41.9,236.7-42.2,236.8-42.5,236.8z
				 M-37.4,228.5c1.6,0,2.7-0.3,3.3-0.9c0.6-0.6,0.9-1.3,0.9-2.2c0-0.9-0.3-1.6-0.9-2.2c-0.6-0.6-1.7-0.9-3.3-0.9h-3.9v6.1H-37.4z"
				/>
			<path class="st3" d="M-37.2,220.2c1.5,0,2.7,0.2,3.6,0.7c0.9,0.5,1.6,1.1,2,1.9c0.4,0.8,0.6,1.6,0.6,2.5s-0.2,1.7-0.6,2.5
				c-0.4,0.8-1.1,1.4-2,1.9c-0.9,0.5-2.1,0.7-3.6,0.7h-4.3v5c0,0.3-0.1,0.5-0.3,0.7c-0.2,0.2-0.5,0.3-0.8,0.3
				c-0.3,0-0.5-0.1-0.8-0.3c-0.2-0.2-0.3-0.5-0.3-0.7v-14.3c0-0.3,0.1-0.6,0.3-0.8c0.2-0.2,0.5-0.3,0.8-0.3H-37.2 M-41.5,228.6h4.1
				c1.6,0,2.7-0.3,3.4-0.9c0.6-0.6,1-1.4,1-2.3s-0.3-1.7-1-2.3c-0.6-0.6-1.8-0.9-3.4-0.9h-4.1V228.6 M-37.2,220h-5.3
				c-0.4,0-0.7,0.1-0.9,0.4c-0.2,0.3-0.4,0.6-0.4,0.9v14.3c0,0.4,0.1,0.7,0.4,0.9c0.2,0.3,0.6,0.4,0.9,0.4c0.4,0,0.7-0.1,0.9-0.4
				c0.3-0.2,0.4-0.6,0.4-0.9v-4.8h4c1.5,0,2.8-0.3,3.7-0.8c1-0.5,1.7-1.2,2.1-2c0.4-0.8,0.6-1.7,0.6-2.6c0-0.9-0.2-1.8-0.6-2.6
				c-0.4-0.8-1.1-1.5-2.1-2C-34.4,220.2-35.7,220-37.2,220L-37.2,220z M-41.2,222.5h3.8c1.5,0,2.6,0.3,3.2,0.8
				c0.6,0.6,0.9,1.2,0.9,2.1c0,0.8-0.3,1.5-0.9,2.1c-0.6,0.6-1.7,0.8-3.2,0.8h-3.8V222.5L-41.2,222.5z"/>
		</g>
		<g>
			<path class="st3" d="M-14.8,236.8c-0.3,0-0.5-0.1-0.8-0.2c-0.2-0.1-0.4-0.3-0.6-0.5l-8.8-12.8v12.3c0,0.3-0.1,0.6-0.4,0.8
				c-0.2,0.2-0.5,0.3-0.8,0.3c-0.3,0-0.6-0.1-0.8-0.3c-0.2-0.2-0.3-0.5-0.3-0.8v-14c0-0.5,0.2-0.8,0.5-1.2c0.3-0.3,0.7-0.5,1.2-0.5
				h0.3c0.5,0,1,0.3,1.4,0.8l8.8,12.7v-12.3c0-0.3,0.1-0.6,0.3-0.8c0.2-0.2,0.5-0.4,0.8-0.4c0.3,0,0.6,0.1,0.9,0.4
				c0.2,0.2,0.4,0.5,0.4,0.8v14c0,0.5-0.2,0.8-0.5,1.2c-0.3,0.3-0.7,0.5-1.2,0.5H-14.8z"/>
			<path class="st3" d="M-14.1,220.1c0.3,0,0.6,0.1,0.8,0.3c0.2,0.2,0.3,0.5,0.3,0.8v14c0,0.4-0.2,0.8-0.5,1.1
				c-0.3,0.3-0.7,0.4-1.1,0.4h-0.3c-0.3,0-0.5-0.1-0.7-0.2c-0.2-0.1-0.4-0.3-0.5-0.5l-9.1-13.1v12.7c0,0.3-0.1,0.5-0.3,0.7
				c-0.2,0.2-0.5,0.3-0.8,0.3c-0.3,0-0.5-0.1-0.8-0.3c-0.2-0.2-0.3-0.5-0.3-0.7v-14c0-0.4,0.1-0.8,0.4-1.1c0.3-0.3,0.7-0.5,1.1-0.5
				h0.3c0.5,0,0.9,0.2,1.3,0.7l9,13v-12.7c0-0.3,0.1-0.6,0.3-0.8C-14.6,220.2-14.4,220.1-14.1,220.1 M-14.1,219.8
				c-0.4,0-0.7,0.1-0.9,0.4c-0.2,0.3-0.4,0.6-0.4,0.9V233l-8.6-12.4c-0.4-0.5-0.9-0.8-1.5-0.8h-0.3c-0.5,0-0.9,0.2-1.3,0.5
				c-0.3,0.4-0.5,0.8-0.5,1.3v14c0,0.4,0.1,0.7,0.4,0.9c0.2,0.3,0.6,0.4,0.9,0.4c0.4,0,0.7-0.1,0.9-0.4c0.3-0.2,0.4-0.6,0.4-0.9
				v-11.9l8.6,12.4c0.2,0.2,0.4,0.4,0.6,0.5c0.3,0.1,0.5,0.2,0.8,0.2h0.3c0.5,0,0.9-0.2,1.3-0.5c0.4-0.3,0.5-0.8,0.5-1.3v-14
				c0-0.4-0.1-0.7-0.4-0.9C-13.4,220-13.7,219.8-14.1,219.8L-14.1,219.8z"/>
		</g>
	</g>
	<g>
		<path class="st9" d="M-210.4,230.2c0,0,2.2-3.1,5.2-4.5c0,0,0.7,3.2,2,6c1.2,2.6,2.8,4.6,3.5,5c0,0,0,0.1,0,0.1
			c-2,2.1-6.6,2.6-6.5,2.5c2.1-1,3.7-2.4,3.7-2.4c-4.2-5.2-4.3-8.8-4.3-8.8C-209.1,228.8-210.4,230.2-210.4,230.2z"/>
		<path class="st9" d="M-202.2,225.1c0,0-0.1,1.5,1.5,5.6c1.1,2.8,3.2,4.2,3.3,4.1c2.1-1.8,3.4-4.2,2.9-6.6
			C-195.6,223-200.4,223.9-202.2,225.1z"/>
		<path class="st9" d="M-198.7,239.4l1.4,0.8l-3.6,2.2c0,0,3.2-1.2,4.9-2.1c8.8-4.5,10.4-14.3,10-19c0,0,0-0.3,0-0.3s0,0-0.1,0
			c-3.3,0.2-9-1.8-10.4-4.4c0,0-0.2-0.1-0.2-0.1s-1.2,1.6-3.5,2.9c-2,1.1-5.4,0.3-5.4,0.3l2.5,0.9l-4.2,0.5l-0.1,2.1
			c-1.9,1.8-3,3.8-3,3.8s0,0,0.1-0.1c4.1-3.8,7.9-5.4,8.6-5.7c0.7-0.2,2.9-1.1,5.5-0.7c2.3,0.3,3.4,2,4.1,2.8
			c1.3,1.6,3.5,9.2-2.1,13.5C-197.4,239.1-198.7,239.4-198.7,239.4z"/>
	</g>
	<g>
		<path class="st10" d="M17.6-68.1l-4.9-2.8v-24.2l4.9-2.8h12.3l4.9,2.8v24.2l-4.9,2.8l4.7,8.2H30l-4.6-8.2H17.6z M16.9-71.9h13.7
			v-22.3H16.9V-71.9z"/>
		<path class="st10" d="M43-89.3h4.1v17.6h9.7v-17.6h4.1v21.2h-3.1l-1-1.7l-3,1.7h-5.9L43-70.9V-89.3z"/>
		<path class="st10" d="M67.8-70.9v-6.8l4.9-2.8h7.6v-5.1H69.9v-3.7h9.6l4.9,2.8v18.4h-1.1l-3-1.7l-3,1.7h-4.7L67.8-70.9z
			 M71.8-71.8h8.4V-77h-8.4V-71.8z"/>
		<path class="st10" d="M110-68.3h-4.1v-17.6h-9.7v17.6h-4.1v-21.2h3.1l1,1.7l3-1.7h5.9l4.9,2.8V-68.3z"/>
		<path class="st10" d="M116.1-89.3h3.9v-3.5l4.1-2.4v5.9h5v3.7h-5V-72h5v3.7h-4.2l-4.9-2.8v-14.5h-3.9V-89.3z"/>
		<path class="st10" d="M135.8-99h4.5v4.5h-4.5V-99z M140-68.3H136v-21h4.1V-68.3z"/>
		<path class="st10" d="M151.9-72h11.7v3.7h-10.9l-4.9-2.8v-15.4l4.9-2.8h10.9v3.7h-11.7V-72z"/>
		<path class="st10" d="M183.5-68.1h-8.1l-4.9-2.8v-15.8l4.9-2.8h8.1l4.9,2.8v15.8L183.5-68.1z M174.6-71.8h9.7v-14.1h-9.7V-71.8z"
			/>
	</g>
	<g>
		<path class="st10" d="M16.5,42.5h13V46H12.5V15.9h4.1V42.5z"/>
		<path class="st10" d="M50.1,46h-1.7c-0.4,0-0.7-0.1-0.9-0.2c-0.2-0.1-0.4-0.3-0.4-0.7l-0.4-2c-0.6,0.5-1.1,1-1.6,1.4
			c-0.5,0.4-1.1,0.7-1.7,1s-1.2,0.5-1.9,0.6c-0.7,0.1-1.4,0.2-2.2,0.2c-0.8,0-1.6-0.1-2.3-0.3c-0.7-0.2-1.3-0.6-1.9-1
			c-0.5-0.5-1-1.1-1.3-1.8c-0.3-0.7-0.5-1.5-0.5-2.5c0-0.8,0.2-1.7,0.7-2.4s1.2-1.5,2.2-2.1s2.4-1.1,4-1.5c1.7-0.4,3.7-0.6,6.1-0.6
			v-1.7c0-1.7-0.4-2.9-1.1-3.8s-1.8-1.3-3.1-1.3c-0.9,0-1.7,0.1-2.3,0.3c-0.6,0.2-1.2,0.5-1.6,0.8c-0.5,0.3-0.8,0.5-1.2,0.8
			s-0.7,0.3-1,0.3c-0.3,0-0.5-0.1-0.7-0.2c-0.2-0.1-0.3-0.3-0.5-0.5l-0.7-1.2c1.2-1.1,2.4-2,3.8-2.5c1.4-0.6,2.9-0.8,4.5-0.8
			c1.2,0,2.2,0.2,3.2,0.6c0.9,0.4,1.7,0.9,2.3,1.6s1.1,1.5,1.4,2.5s0.5,2.1,0.5,3.3V46z M40.4,43.7c0.7,0,1.3-0.1,1.8-0.2
			c0.5-0.1,1.1-0.3,1.5-0.6c0.5-0.2,0.9-0.5,1.4-0.9c0.4-0.3,0.9-0.7,1.3-1.2v-4.4c-1.7,0-3.2,0.1-4.4,0.3c-1.2,0.2-2.2,0.5-2.9,0.9
			c-0.8,0.4-1.3,0.8-1.6,1.2c-0.3,0.5-0.5,1-0.5,1.6c0,0.6,0.1,1,0.3,1.5s0.4,0.7,0.7,1c0.3,0.3,0.7,0.5,1.1,0.6
			S39.9,43.7,40.4,43.7z"/>
		<path class="st10" d="M63.3,46.3c-1.7,0-3-0.5-3.9-1.4c-0.9-0.9-1.4-2.3-1.4-4.1v-13h-2.6c-0.2,0-0.4-0.1-0.6-0.2
			c-0.2-0.1-0.2-0.3-0.2-0.6v-1.5l3.5-0.4l0.9-6.6c0-0.2,0.1-0.4,0.3-0.5c0.2-0.1,0.3-0.2,0.6-0.2h1.9v7.3h6.1v2.7h-6.1v12.8
			c0,0.9,0.2,1.6,0.7,2s1,0.7,1.7,0.7c0.4,0,0.7-0.1,1-0.2s0.5-0.2,0.7-0.3s0.4-0.2,0.5-0.3c0.1-0.1,0.3-0.2,0.4-0.2
			c0.2,0,0.4,0.1,0.5,0.4l1.1,1.8c-0.6,0.6-1.4,1.1-2.3,1.4C65.2,46.1,64.3,46.3,63.3,46.3z"/>
		<path class="st10" d="M82.2,24.3c1.6,0,3,0.3,4.2,0.8c1.3,0.5,2.3,1.3,3.2,2.2s1.5,2.1,2,3.5c0.5,1.4,0.7,2.9,0.7,4.5
			c0,1.7-0.2,3.2-0.7,4.5c-0.5,1.3-1.1,2.5-2,3.4c-0.9,1-1.9,1.7-3.2,2.2c-1.3,0.5-2.7,0.8-4.2,0.8c-1.6,0-3-0.3-4.2-0.8
			c-1.3-0.5-2.3-1.2-3.2-2.2c-0.9-1-1.6-2.1-2-3.4C72.3,38.5,72,37,72,35.3c0-1.7,0.2-3.2,0.7-4.5c0.5-1.4,1.2-2.5,2-3.5
			s1.9-1.7,3.2-2.2C79.2,24.6,80.6,24.3,82.2,24.3z M82.2,43.3c2.1,0,3.7-0.7,4.7-2.1c1-1.4,1.6-3.4,1.6-5.9c0-2.5-0.5-4.5-1.6-5.9
			s-2.6-2.1-4.7-2.1c-1.1,0-2,0.2-2.8,0.5c-0.8,0.4-1.4,0.9-2,1.6s-0.9,1.5-1.2,2.5c-0.3,1-0.4,2.1-0.4,3.4c0,1.3,0.1,2.4,0.4,3.4
			c0.3,1,0.7,1.8,1.2,2.5s1.2,1.2,2,1.6C80.2,43.1,81.1,43.3,82.2,43.3z"/>
	</g>
	<g>
		<path class="st10" d="M13.2,159c0-0.1,0-0.3,0.1-0.6l10-27.6c0.2-0.4,0.7-0.7,1.7-0.7h1.2c1,0,1.6,0.2,1.7,0.7l10,27.6
			c0.1,0.2,0.1,0.4,0.1,0.5c0,0.5-0.6,0.7-1.8,0.7h-0.3c-1,0-1.5-0.2-1.7-0.7l-2.5-6.9H19.3l-2.4,6.9c-0.1,0.4-0.7,0.7-1.7,0.7H15
			C13.8,159.7,13.2,159.4,13.2,159z M30.5,148.9l-4.4-12.5c-0.1-0.4-0.3-1.3-0.5-2.4h-0.1c-0.2,1.1-0.4,1.9-0.6,2.4l-4.4,12.5H30.5z
			"/>
		<path class="st10" d="M44.3,159.5c-1-0.3-1.8-0.7-2.4-1.1c-0.6-0.4-0.9-0.8-0.9-1.1c0-0.3,0.2-0.7,0.5-1.3
			c0.3-0.6,0.7-0.8,0.9-0.8c0.1,0,0.3,0.2,0.8,0.5c0.5,0.3,1.1,0.6,1.8,0.8c0.7,0.3,1.5,0.4,2.4,0.4c2.7,0,4.1-1.1,4.1-3.4
			c0-1-0.3-1.7-0.9-2.3c-0.6-0.6-1.7-1.1-3.3-1.5c-2.2-0.6-3.7-1.4-4.6-2.4c-0.8-1-1.3-2.3-1.3-3.9c0-1.2,0.3-2.2,0.9-3.2
			c0.6-0.9,1.4-1.6,2.5-2.2c1-0.5,2.2-0.8,3.6-0.8c1.4,0,2.7,0.2,3.8,0.5s1.7,0.8,1.7,1.3c0,0.4-0.2,0.8-0.5,1.4
			c-0.3,0.6-0.6,0.9-0.9,0.9c-0.1,0-0.5-0.2-1.1-0.6c-0.7-0.3-1.6-0.5-2.7-0.5c-1.1,0-2,0.2-2.7,0.7c-0.7,0.5-1.1,1.1-1.1,1.9
			c0,1,0.3,1.7,0.8,2.3c0.5,0.6,1.3,1,2.5,1.4c1.8,0.6,3.2,1.1,4.1,1.7c0.9,0.5,1.6,1.2,2,2c0.4,0.8,0.6,1.8,0.6,3.1
			c0,1.2-0.3,2.3-1,3.3c-0.7,1-1.6,1.8-2.7,2.4c-1.1,0.6-2.4,0.9-3.8,0.9C46.5,160,45.4,159.8,44.3,159.5z"/>
		<path class="st10" d="M62,158.2c-1.3-1.1-2-2.6-2-4.7c0-2.2,0.7-3.9,2-5c1.3-1.1,3-1.8,4.9-2.1c1.9-0.3,4.3-0.5,7.1-0.5v-2
			c0-1-0.4-1.9-1.1-2.5c-0.7-0.7-1.9-1-3.5-1c-1.2,0-2.3,0.1-3.2,0.4c-0.9,0.3-1.7,0.6-2.3,0.9c-0.6,0.3-1,0.4-1,0.4
			c-0.3,0-0.6-0.3-0.9-0.8c-0.4-0.6-0.5-1-0.5-1.3c0-0.4,0.4-0.8,1.1-1.2s1.7-0.8,3-1.1c1.2-0.3,2.5-0.4,3.8-0.4
			c2.6,0,4.6,0.6,6.1,1.7s2.2,2.8,2.2,4.9v9.4c0,1.8,0.1,3.2,0.3,4s0.3,1.2,0.3,1.3c0,0.3-0.3,0.6-0.8,0.7c-0.5,0.2-1,0.2-1.5,0.2
			c-0.4,0-0.7-0.2-0.9-0.7c-0.2-0.4-0.3-0.9-0.4-1.4c-0.1-0.5-0.2-0.8-0.2-0.9c-1.9,2.1-4.3,3.2-7.1,3.2
			C65,159.8,63.3,159.3,62,158.2z M70.9,156c1-0.5,2-1.2,3-2.1v-5c-2.1,0-3.8,0.1-5.1,0.3c-1.3,0.1-2.5,0.5-3.5,1.2
			c-1,0.6-1.5,1.6-1.5,3c0,1.1,0.3,2,0.9,2.6c0.6,0.6,1.5,0.9,2.7,0.9C68.7,156.8,69.9,156.5,70.9,156z"/>
		<path class="st10" d="M85.5,167.4V144c0-1.8-0.1-3.2-0.3-4c-0.2-0.8-0.3-1.2-0.3-1.3c0-0.3,0.3-0.6,0.8-0.7c0.5-0.2,1-0.2,1.5-0.2
			c0.4,0,0.7,0.2,0.9,0.6c0.2,0.4,0.3,0.8,0.4,1.3c0.1,0.4,0.2,0.7,0.2,0.9c2-2.1,4.2-3.1,6.7-3.1c1.7,0,3.2,0.5,4.4,1.4
			c1.2,1,2.1,2.3,2.8,4c0.6,1.7,1,3.6,1,5.8c0,2.4-0.4,4.4-1.1,6.1c-0.7,1.7-1.7,3-3,3.8s-2.8,1.3-4.5,1.3c-1.2,0-2.3-0.2-3.3-0.5
			c-0.9-0.4-1.9-0.9-2.8-1.6v9.7c0,0.6-0.6,0.9-1.7,0.9h-0.2C86,168.3,85.5,168,85.5,167.4z M98.4,154.7c1-1.3,1.4-3.3,1.4-5.8
			c0-2.7-0.4-4.8-1.3-6.3c-0.9-1.5-2.2-2.2-3.8-2.2c-1,0-1.9,0.3-2.9,0.8s-1.9,1.2-2.8,2.1v11.5c1.5,1.3,3.2,1.9,5.2,1.9
			C96.1,156.7,97.5,156.1,98.4,154.7z"/>
	</g>
	
		<image style="overflow:visible;" width="400" height="392" xlink:href="../../../../../Portfolio 2018/img/brand-demos/logo-shred4less.png"  transform="matrix(0.48 0 0 0.48 212 231)">
	</image>
	<g>
		<path class="st10" d="M225.2,95.5l0.4-1.6c0.4,0.2,0.9,0.4,1.5,0.6c0.6,0.2,1.1,0.3,1.6,0.3c0.8,0,1.4-0.1,1.8-0.4
			c0.4-0.3,0.6-0.7,0.6-1.1c0-0.3-0.1-0.6-0.3-0.9c-0.2-0.3-0.5-0.5-0.9-0.7c-0.4-0.2-0.9-0.5-1.5-0.8c-1.1-0.6-2-1.1-2.5-1.7
			c-0.6-0.6-0.9-1.3-0.9-2.1c0-0.6,0.2-1.2,0.5-1.6s0.8-0.9,1.4-1.2c0.6-0.3,1.3-0.4,2.2-0.4c0.6,0,1.1,0.1,1.7,0.2s1.1,0.4,1.6,0.6
			l-0.7,1.6c-0.5-0.2-0.9-0.4-1.3-0.5c-0.4-0.1-0.8-0.2-1.3-0.2c-0.6,0-1.1,0.1-1.5,0.4c-0.4,0.2-0.6,0.6-0.6,1.1
			c0,0.3,0.1,0.6,0.3,0.9s0.5,0.5,0.8,0.7s0.9,0.5,1.6,0.9c0.8,0.4,1.4,0.8,1.8,1.1c0.5,0.3,0.8,0.7,1.1,1.2s0.4,1,0.4,1.6
			c0,0.6-0.2,1.2-0.5,1.7c-0.3,0.5-0.9,0.9-1.5,1.2c-0.7,0.3-1.5,0.4-2.4,0.4c-0.5,0-1.2-0.1-1.9-0.3S225.5,95.7,225.2,95.5z"/>
		<path class="st10" d="M237.2,96.2h-2v-8.7h1.3l0.4,1c0.5-0.4,1.1-0.7,1.7-1c0.6-0.2,1.2-0.4,1.7-0.4c1,0,1.8,0.3,2.2,0.9
			c0.5,0.6,0.7,1.4,0.7,2.5v5.6h-2v-5.5c0-1.2-0.5-1.8-1.3-1.8c-0.7,0-1.6,0.4-2.6,1.2V96.2z"/>
		<path class="st10" d="M253.5,94.2c-0.4,0.7-0.9,1.2-1.6,1.6c-0.7,0.4-1.5,0.6-2.4,0.6c-0.9,0-1.7-0.2-2.4-0.6
			c-0.7-0.4-1.2-0.9-1.6-1.6c-0.4-0.7-0.5-1.5-0.5-2.4c0-0.9,0.2-1.7,0.5-2.4c0.4-0.7,0.9-1.2,1.6-1.6s1.5-0.6,2.4-0.6
			c0.9,0,1.7,0.2,2.4,0.6c0.7,0.4,1.2,0.9,1.6,1.6c0.4,0.7,0.5,1.5,0.5,2.4S253.9,93.5,253.5,94.2z M251.3,93.9
			c0.5-0.5,0.7-1.2,0.7-2c0-0.9-0.2-1.5-0.7-2.1c-0.4-0.5-1-0.8-1.8-0.8c-0.7,0-1.3,0.3-1.8,0.8c-0.4,0.5-0.7,1.2-0.7,2.1
			c0,0.9,0.2,1.5,0.7,2.1c0.4,0.5,1,0.8,1.8,0.8C250.2,94.7,250.8,94.4,251.3,93.9z"/>
		<path class="st10" d="M263,96.2l-1.8-5.8l-1.7,5.8h-1.8l-2.6-8.4l2-0.6l1.6,5.9l1.5-5.6h2.2l1.6,5.6l1.5-5.6h2.1l-2.8,8.7H263z"/>
	</g>
	<g>
		<path class="st11" d="M360.3,95.5l0.4-1.6c0.4,0.2,0.9,0.4,1.5,0.6c0.6,0.2,1.1,0.3,1.6,0.3c0.8,0,1.4-0.1,1.8-0.4
			c0.4-0.3,0.6-0.7,0.6-1.1c0-0.3-0.1-0.6-0.3-0.9c-0.2-0.3-0.5-0.5-0.9-0.7c-0.4-0.2-0.9-0.5-1.5-0.8c-1.1-0.6-2-1.1-2.5-1.7
			c-0.6-0.6-0.9-1.3-0.9-2.1c0-0.6,0.2-1.2,0.5-1.6s0.8-0.9,1.4-1.2c0.6-0.3,1.3-0.4,2.2-0.4c0.6,0,1.1,0.1,1.7,0.2s1.1,0.4,1.6,0.6
			l-0.7,1.6c-0.5-0.2-0.9-0.4-1.3-0.5c-0.4-0.1-0.8-0.2-1.3-0.2c-0.6,0-1.1,0.1-1.5,0.4c-0.4,0.2-0.6,0.6-0.6,1.1
			c0,0.3,0.1,0.6,0.3,0.9s0.5,0.5,0.8,0.7s0.9,0.5,1.6,0.9c0.8,0.4,1.4,0.8,1.8,1.1c0.5,0.3,0.8,0.7,1.1,1.2s0.4,1,0.4,1.6
			c0,0.6-0.2,1.2-0.5,1.7c-0.3,0.5-0.9,0.9-1.5,1.2c-0.7,0.3-1.5,0.4-2.4,0.4c-0.5,0-1.2-0.1-1.9-0.3S360.6,95.7,360.3,95.5z"/>
		<path class="st11" d="M376.1,87.5h2v8.7h-1.4l-0.4-1c-0.5,0.4-1.1,0.7-1.7,1c-0.6,0.2-1.2,0.4-1.7,0.4c-1.9,0-2.9-1.1-2.9-3.4
			v-5.6h2v5.5c0,1.2,0.5,1.8,1.3,1.8c0.7,0,1.6-0.4,2.6-1.2V87.5z"/>
		<path class="st11" d="M382.7,96.2h-2v-8.7h1.1l0.7,1.4c0.4-0.4,0.9-0.7,1.5-1c0.6-0.3,1-0.5,1.5-0.5l0.4,1.6
			c-0.4,0-0.9,0.2-1.5,0.5c-0.6,0.3-1.1,0.7-1.6,1.1V96.2z"/>
		<path class="st11" d="M386.6,89.1v-1.5h1.3v-0.9c0-0.9,0.3-1.7,0.8-2.2c0.5-0.5,1.3-0.8,2.3-0.8c0.3,0,0.6,0,0.9,0.1
			c0.3,0.1,0.6,0.2,0.7,0.3l-0.6,1.5c-0.4-0.1-0.7-0.2-0.9-0.2c-0.4,0-0.7,0.1-0.9,0.4c-0.2,0.3-0.3,0.7-0.3,1.1v0.7h1.6l0.6,1.5
			H390v7.1h-2v-7.1H386.6z"/>
	</g>
	<g>
		<path class="st5" d="M523.3,232c-33.4,0-60.5,27.1-60.5,60.5c0,33.4,27.1,60.5,60.5,60.5c33.4,0,60.5-27.1,60.5-60.5
			C583.8,259.1,556.7,232,523.3,232z M577.9,271.2c1.8,4.5,3,9.2,3.5,14l-1.2,0.1c-0.6-4.7-1.8-9.3-3.5-13.7L577.9,271.2z
			 M566.5,252.9c3.3,3.6,6.1,7.5,8.4,11.7l-1.1,0.6c-2.2-4.1-5-8-8.2-11.5L566.5,252.9z M549.3,239.9c4.3,2.1,8.4,4.8,12,8l-0.8,0.9
			c-3.6-3.1-7.5-5.7-11.8-7.8L549.3,239.9z M528.6,234.1c4.8,0.4,9.5,1.5,14.1,3l-0.4,1.2c-4.4-1.6-9.1-2.6-13.8-3L528.6,234.1z
			 M521.3,233.9l0,1.2c-4.7,0.2-9.4,0.9-13.9,2.2l-0.3-1.2C511.7,234.8,516.5,234,521.3,233.9z M500.3,238.5l0.5,1.1
			c-4.3,1.8-8.4,4.2-12.2,7.1l-0.7-1C491.7,242.8,495.9,240.4,500.3,238.5z M482.4,250.4l0.8,0.9c-3.4,3.3-6.4,7-8.8,11l-1-0.6
			C475.9,257.6,478.9,253.8,482.4,250.4z M469.9,268l1.1,0.5c-2,4.3-3.4,8.8-4.3,13.5l-1.2-0.2C466.4,277,467.9,272.4,469.9,268z
			 M465.6,303.3c-0.7-3.6-1-7.2-1-10.8c0-1.2,0-2.4,0.1-3.5l1.2,0.1c-0.1,1.2-0.1,2.3-0.1,3.5c0,3.6,0.3,7.1,1,10.6L465.6,303.3z
			 M473.4,323.4c-2.5-4.1-4.6-8.5-6-13.1l1.2-0.4c1.4,4.5,3.4,8.8,5.9,12.8L473.4,323.4z M487.9,339.3c-3.8-2.9-7.3-6.3-10.4-10
			l1-0.8c3,3.7,6.4,7,10.1,9.8L487.9,339.3z M507.2,348.9c-4.6-1.3-9.1-3.2-13.3-5.6l0.6-1.1c4.1,2.4,8.5,4.2,13,5.5L507.2,348.9z
			 M511.5,333c-4.4,0-9.6,0.3-15.7,0.9v-1.3c3.4-1,5.9-3.2,7.4-6.3c1.5-3.1,2.2-8.3,2.2-15.4V274c0-6.8-0.9-11.5-2.7-14.2
			c-1.8-2.6-4.1-4.3-6.9-4.9v-1.4c5.3,0.4,10.5,0.7,15.7,0.9V333L511.5,333L511.5,333z M523.3,351.2c-3,0-6-0.2-9-0.7l0.2-1.2
			c4.6,0.7,9.4,0.9,14.1,0.4l0.1,1.2C526.9,351.1,525.1,351.2,523.3,351.2z M535.8,349.8l-0.3-1.2c4.6-1,9.1-2.6,13.3-4.7l0.5,1.1
			C545.1,347.2,540.5,348.8,535.8,349.8z M540.9,296.2h-17.7v17.3c0,11.2,3.4,17.6,10.3,19v1.3c-7.1-0.6-11.5-0.9-13.4-0.9h-3v-78.6
			h18.5c5.4,0,12.4-0.3,21.2-0.9c0,1.3-0.1,3-0.1,5.1c0,1.2,0.1,3.4,0.2,6.7c0.2,3.6,0.2,5.5,0.2,5.7v1.9h-1.6
			c-1.4-9-5.6-13.4-12.7-13.4h-14.5c-1.6,0-3.1,0.2-4.4,0.7c-0.7,3.9-1,9.2-1,15.7v15.4h13.1c5.6,0,9.7-0.7,12.3-2.1
			c2.5-1.3,4.2-3.8,4.9-7.2h1.6c-0.3,5.4-0.5,9.1-0.5,11.1c0,1.2,0.1,3.4,0.2,6.3c0.2,2.8,0.3,4.9,0.3,6.1v2.5h-1.6
			C553.3,300.1,549.1,296.2,540.9,296.2z M555.7,341.4l-0.7-1c3.9-2.6,7.5-5.7,10.7-9.2l0.9,0.8
			C563.4,335.6,559.7,338.7,555.7,341.4z M571.1,326.4l-1-0.7c2.7-3.9,5-8,6.7-12.4l1.1,0.4C576.2,318.2,573.9,322.5,571.1,326.4z
			 M580.2,306.8l-1.2-0.3c1.1-4.6,1.7-9.3,1.7-14v-0.1h1.2v0.1C581.9,297.3,581.3,302.1,580.2,306.8z"/>
	</g>
	<g>
		<path class="st5" d="M459.8,397.3v-10.8c0-0.2,0.1-0.4,0.2-0.5c0.1-0.1,0.3-0.1,0.5-0.1h5.5c0.2,0,0.3,0.1,0.3,0.2
			c0.1,0.1,0.1,0.3,0.1,0.6v0.4c0,0.3,0,0.4-0.1,0.6c-0.1,0.1-0.2,0.2-0.3,0.2H462v3h3.7c0.2,0,0.3,0.1,0.3,0.2
			c0.1,0.1,0.1,0.3,0.1,0.6v0.4c0,0.3,0,0.4-0.1,0.6c-0.1,0.1-0.2,0.2-0.3,0.2H462v4.7c0,0.2-0.1,0.3-0.2,0.4
			c-0.1,0.1-0.4,0.1-0.7,0.1h-0.4C460.1,397.8,459.8,397.7,459.8,397.3z"/>
		<path class="st5" d="M474.3,396.4c-0.9-1-1.4-2.5-1.4-4.5c0-2,0.5-3.5,1.4-4.5c0.9-1,2.3-1.6,4-1.6c1.7,0,3.1,0.5,4,1.5
			c0.9,1,1.4,2.5,1.4,4.5c0,2-0.5,3.5-1.4,4.5c-0.9,1-2.3,1.6-4,1.6C476.5,397.9,475.2,397.4,474.3,396.4z M480.5,394.9
			c0.5-0.7,0.8-1.8,0.8-3.1c0-1.4-0.3-2.4-0.8-3.1c-0.5-0.7-1.3-1.1-2.3-1.1s-1.8,0.4-2.3,1.1c-0.5,0.7-0.8,1.7-0.8,3.1
			c0,1.4,0.3,2.4,0.8,3.1c0.5,0.7,1.3,1.1,2.3,1.1C479.3,396,480,395.7,480.5,394.9z"/>
		<path class="st5" d="M491.8,397.7c-0.6-0.2-1.1-0.4-1.4-0.6c-0.3-0.2-0.4-0.4-0.4-0.6c0-0.2,0.1-0.5,0.3-0.8s0.4-0.5,0.6-0.5
			c0.1,0,0.2,0.1,0.4,0.2c0.4,0.2,0.7,0.3,1,0.4s0.7,0.2,1.2,0.2c0.5,0,0.9-0.1,1.3-0.4c0.3-0.2,0.5-0.6,0.5-1.1
			c0-0.3-0.1-0.6-0.3-0.8s-0.4-0.4-0.7-0.5c-0.3-0.1-0.6-0.3-1.1-0.5l-0.6-0.3c-0.5-0.2-1-0.5-1.3-0.7c-0.4-0.3-0.6-0.6-0.9-1
			s-0.3-1-0.3-1.6c0-0.7,0.2-1.3,0.5-1.8c0.4-0.5,0.8-0.9,1.4-1.1c0.6-0.3,1.3-0.4,2-0.4c0.5,0,1,0.1,1.5,0.2
			c0.5,0.1,0.8,0.3,1.1,0.5c0.2,0.2,0.4,0.3,0.4,0.5c0,0.2-0.1,0.5-0.3,0.8c-0.2,0.3-0.4,0.5-0.5,0.5c-0.1,0-0.1,0-0.3-0.1
			c-0.1-0.1-0.2-0.1-0.3-0.1c-0.5-0.2-0.9-0.3-1.4-0.3c-0.6,0-1.1,0.1-1.4,0.4c-0.3,0.2-0.4,0.6-0.4,0.9c0,0.3,0.1,0.6,0.3,0.8
			c0.2,0.2,0.4,0.4,0.6,0.5s0.6,0.3,1.1,0.5c0.6,0.3,1.2,0.5,1.6,0.8c0.4,0.3,0.8,0.6,1.1,1.1c0.3,0.5,0.5,1,0.5,1.8
			c0,1.2-0.4,2.1-1.1,2.7c-0.7,0.6-1.6,0.9-2.7,0.9C493.1,397.9,492.4,397.8,491.8,397.7z"/>
		<path class="st5" d="M506.7,397.3v-9.5h-2.9c-0.2,0-0.3-0.1-0.3-0.2c-0.1-0.1-0.1-0.3-0.1-0.6v-0.4c0-0.3,0-0.4,0.1-0.6
			c0.1-0.1,0.2-0.2,0.3-0.2h8c0.2,0,0.3,0.1,0.3,0.2c0.1,0.1,0.1,0.3,0.1,0.6v0.4c0,0.3,0,0.4-0.1,0.6c-0.1,0.1-0.2,0.2-0.3,0.2H509
			v9.5c0,0.3-0.3,0.5-0.9,0.5h-0.4C507,397.8,506.7,397.7,506.7,397.3z"/>
		<path class="st5" d="M519.2,397.6c-0.1-0.1-0.2-0.3-0.2-0.5v-10.6c0-0.2,0.1-0.4,0.2-0.5c0.1-0.1,0.3-0.1,0.5-0.1h6
			c0.2,0,0.3,0.1,0.3,0.2c0.1,0.1,0.1,0.3,0.1,0.6v0.4c0,0.3,0,0.4-0.1,0.6c-0.1,0.1-0.2,0.2-0.3,0.2h-4.4v3h3.9
			c0.2,0,0.3,0.1,0.3,0.2c0.1,0.1,0.1,0.3,0.1,0.6v0.4c0,0.3,0,0.4-0.1,0.6c-0.1,0.1-0.2,0.2-0.3,0.2h-3.9v3.2h4.4
			c0.2,0,0.3,0.1,0.3,0.2c0.1,0.1,0.1,0.3,0.1,0.6v0.4c0,0.3,0,0.4-0.1,0.6c-0.1,0.1-0.2,0.2-0.3,0.2h-6
			C519.4,397.8,519.3,397.8,519.2,397.6z"/>
		<path class="st5" d="M533.3,397.3v-10.8c0-0.2,0-0.4,0.1-0.5c0.1-0.1,0.3-0.2,0.5-0.2h3.2c1.4,0,2.5,0.3,3.2,0.8
			c0.7,0.5,1,1.3,1,2.3c0,0.7-0.2,1.2-0.5,1.7c-0.4,0.5-0.8,0.8-1.4,1.1v0.1c0.2,0.1,0.5,0.3,0.7,0.6s0.4,0.7,0.6,1.1l1.4,3.6
			c0,0.2,0.1,0.3,0.1,0.3c0,0.2-0.3,0.3-0.9,0.3h-0.5c-0.5,0-0.8-0.1-0.9-0.3l-1.3-3.3c-0.2-0.5-0.4-0.8-0.7-1
			c-0.3-0.2-0.7-0.3-1.3-0.3h-1v4.4c0,0.3-0.3,0.5-0.9,0.5h-0.4C533.6,397.8,533.3,397.7,533.3,397.3z M537.4,391
			c0.4,0,0.8-0.2,1.1-0.5c0.3-0.3,0.5-0.7,0.5-1.2c0-0.5-0.2-0.9-0.5-1.1c-0.3-0.3-0.7-0.4-1.3-0.4h-1.7v3.2H537.4z"/>
		<path class="st5" d="M548.7,397.3v-11c0-0.3,0.3-0.5,0.9-0.5h0.4c0.6,0,0.9,0.2,0.9,0.5v11c0,0.3-0.3,0.5-0.9,0.5h-0.4
			C549,397.9,548.7,397.7,548.7,397.3z"/>
		<path class="st5" d="M558.7,397.3v-11c0-0.3,0.3-0.5,0.9-0.5h0.6c0.2,0,0.5,0,0.6,0.1c0.2,0.1,0.3,0.2,0.4,0.3l4.4,6.6
			c0.2,0.3,0.4,0.7,0.6,1l0.1,0c0-0.3,0-0.6,0-1.2v-6.4c0-0.3,0.3-0.5,0.9-0.5h0.4c0.6,0,0.9,0.2,0.9,0.5v11c0,0.3-0.3,0.5-0.9,0.5
			h-0.5c-0.2,0-0.4,0-0.6-0.1s-0.3-0.2-0.4-0.3l-4.5-6.8c-0.2-0.4-0.4-0.7-0.6-1l-0.1,0c0,0.3,0,0.6,0,1.2v6.5
			c0,0.3-0.3,0.5-0.9,0.5h-0.4C559,397.8,558.7,397.7,558.7,397.3z"/>
		<path class="st5" d="M584.8,391.5c0.1,0.1,0.2,0.3,0.2,0.5v4.7c0,0.5-0.4,0.8-1.2,1c-0.8,0.2-1.7,0.3-2.7,0.3
			c-1.8,0-3.2-0.5-4.1-1.5c-0.9-1-1.4-2.5-1.4-4.6c0-4.1,1.9-6.1,5.6-6.1c0.5,0,1.1,0.1,1.6,0.2c0.5,0.1,1,0.2,1.4,0.4
			c0.4,0.2,0.5,0.4,0.5,0.6c0,0.1-0.1,0.3-0.2,0.5c-0.1,0.2-0.2,0.4-0.4,0.6s-0.3,0.3-0.4,0.3c0,0-0.2-0.1-0.4-0.2s-0.5-0.2-0.9-0.3
			s-0.8-0.1-1.3-0.1c-1.1,0-2,0.3-2.5,1c-0.5,0.7-0.8,1.7-0.8,3.1c0,2.8,1.1,4.2,3.2,4.2c0.6,0,1.1-0.1,1.6-0.2v-2.6H581
			c-0.2,0-0.3-0.1-0.3-0.2c-0.1-0.1-0.1-0.3-0.1-0.6v-0.4c0-0.3,0-0.4,0.1-0.6c0.1-0.1,0.2-0.2,0.3-0.2h3.3
			C584.5,391.4,584.6,391.4,584.8,391.5z"/>
		<path class="st5" d="M478,422.5v-11c0-0.2,0-0.3,0.1-0.4c0.1-0.1,0.2-0.1,0.4-0.1h5.4c0.1,0,0.2,0,0.3,0.1
			c0.1,0.1,0.1,0.2,0.1,0.4v0.3c0,0.2,0,0.3-0.1,0.4c-0.1,0.1-0.1,0.1-0.3,0.1h-4.4v3.9h4.1c0.1,0,0.2,0,0.3,0.1
			c0.1,0.1,0.1,0.2,0.1,0.4v0.3c0,0.2,0,0.3-0.1,0.4s-0.1,0.1-0.3,0.1h-4.1v5.1c0,0.2-0.2,0.4-0.7,0.4h-0.1
			C478.2,422.8,478,422.7,478,422.5z"/>
		<path class="st5" d="M491.7,422.5v-11.2c0-0.3,0.2-0.4,0.7-0.4h0.1c0.5,0,0.7,0.1,0.7,0.4v11.2c0,0.2-0.2,0.4-0.7,0.4h-0.1
			C491.9,422.8,491.7,422.7,491.7,422.5z"/>
		<path class="st5" d="M503.9,422.5v-10.3h-3.3c-0.1,0-0.2,0-0.3-0.1c-0.1-0.1-0.1-0.2-0.1-0.4v-0.3c0-0.2,0-0.3,0.1-0.4
			c0.1-0.1,0.1-0.1,0.3-0.1h8c0.1,0,0.2,0,0.3,0.1c0.1,0.1,0.1,0.2,0.1,0.4v0.3c0,0.2,0,0.3-0.1,0.4c-0.1,0.1-0.1,0.1-0.3,0.1h-3.2
			v10.3c0,0.2-0.2,0.4-0.7,0.4h-0.1C504.1,422.8,503.9,422.7,503.9,422.5z"/>
		<path class="st5" d="M515.9,422.5v-11.2c0-0.3,0.2-0.4,0.7-0.4h0.4c0.2,0,0.3,0,0.4,0.1c0.1,0,0.2,0.1,0.3,0.3l5.3,8.1
			c0.2,0.3,0.4,0.6,0.6,1l0.1,0c0-0.3,0-0.6,0-1.2v-7.9c0-0.3,0.2-0.4,0.7-0.4h0.1c0.5,0,0.7,0.1,0.7,0.4v11.2
			c0,0.2-0.2,0.4-0.7,0.4H524c-0.3,0-0.5-0.1-0.6-0.2l-5.5-8.3c-0.2-0.3-0.4-0.6-0.6-1l-0.1,0c0,0.3,0,0.6,0,1.2v8
			c0,0.2-0.2,0.4-0.7,0.4h-0.1C516.1,422.8,515.9,422.7,515.9,422.5z"/>
		<path class="st5" d="M533.4,422.7c-0.1-0.1-0.1-0.2-0.1-0.4v-10.9c0-0.2,0-0.3,0.1-0.4c0.1-0.1,0.2-0.1,0.4-0.1h5.9
			c0.1,0,0.2,0,0.3,0.1c0.1,0.1,0.1,0.2,0.1,0.4v0.3c0,0.2,0,0.3-0.1,0.4c-0.1,0.1-0.1,0.1-0.3,0.1h-4.9v3.9h4.4
			c0.1,0,0.2,0,0.3,0.1c0.1,0.1,0.1,0.2,0.1,0.4v0.3c0,0.2,0,0.3-0.1,0.4s-0.1,0.1-0.3,0.1h-4.4v4.1h5c0.1,0,0.2,0,0.3,0.1
			c0.1,0.1,0.1,0.2,0.1,0.4v0.3c0,0.2,0,0.3-0.1,0.4c-0.1,0.1-0.1,0.1-0.3,0.1h-6C533.6,422.8,533.5,422.8,533.4,422.7z"/>
		<path class="st5" d="M548.3,422.7c-0.6-0.2-1-0.4-1.3-0.6c-0.2-0.2-0.3-0.3-0.3-0.4c0-0.1,0.1-0.3,0.2-0.6s0.3-0.4,0.4-0.4
			c0,0,0.2,0.1,0.4,0.2c0.4,0.2,0.7,0.4,1.1,0.5c0.4,0.1,0.9,0.2,1.4,0.2c0.7,0,1.2-0.2,1.6-0.6c0.4-0.4,0.6-0.9,0.6-1.5
			c0-0.4-0.1-0.8-0.3-1c-0.2-0.3-0.5-0.5-0.8-0.7c-0.3-0.2-0.8-0.4-1.4-0.6c-0.7-0.3-1.2-0.5-1.6-0.7c-0.4-0.2-0.7-0.5-1-1
			c-0.3-0.4-0.4-1-0.4-1.7c0-0.6,0.2-1.2,0.5-1.6c0.3-0.5,0.8-0.8,1.3-1.1s1.2-0.4,2-0.4c0.4,0,0.8,0.1,1.3,0.2
			c0.5,0.1,0.8,0.3,1.1,0.4c0.2,0.1,0.3,0.3,0.3,0.4c0,0.1-0.1,0.3-0.2,0.5s-0.3,0.4-0.3,0.4c-0.1,0-0.1,0-0.2-0.1
			c-0.1-0.1-0.2-0.1-0.2-0.1c-0.6-0.3-1.2-0.4-1.8-0.4c-0.7,0-1.2,0.2-1.6,0.5c-0.4,0.3-0.6,0.8-0.6,1.4c0,0.4,0.1,0.7,0.3,0.9
			c0.2,0.2,0.4,0.4,0.7,0.5c0.3,0.1,0.7,0.3,1.3,0.6c0.7,0.3,1.2,0.5,1.7,0.8c0.4,0.2,0.8,0.6,1.1,1.1c0.3,0.5,0.5,1,0.5,1.8
			c0,1-0.3,1.8-1,2.4c-0.7,0.6-1.6,0.9-2.8,0.9C549.5,422.9,548.9,422.8,548.3,422.7z"/>
		<path class="st5" d="M561.9,422.7c-0.6-0.2-1-0.4-1.3-0.6c-0.2-0.2-0.3-0.3-0.3-0.4c0-0.1,0.1-0.3,0.2-0.6s0.3-0.4,0.4-0.4
			c0,0,0.2,0.1,0.4,0.2c0.4,0.2,0.7,0.4,1.1,0.5c0.4,0.1,0.9,0.2,1.4,0.2c0.7,0,1.2-0.2,1.6-0.6c0.4-0.4,0.6-0.9,0.6-1.5
			c0-0.4-0.1-0.8-0.3-1c-0.2-0.3-0.5-0.5-0.8-0.7c-0.3-0.2-0.8-0.4-1.4-0.6c-0.7-0.3-1.2-0.5-1.6-0.7c-0.4-0.2-0.7-0.5-1-1
			c-0.3-0.4-0.4-1-0.4-1.7c0-0.6,0.2-1.2,0.5-1.6c0.3-0.5,0.8-0.8,1.3-1.1s1.2-0.4,2-0.4c0.4,0,0.8,0.1,1.3,0.2
			c0.5,0.1,0.8,0.3,1.1,0.4c0.2,0.1,0.3,0.3,0.3,0.4c0,0.1-0.1,0.3-0.2,0.5s-0.3,0.4-0.3,0.4c-0.1,0-0.1,0-0.2-0.1
			c-0.1-0.1-0.2-0.1-0.2-0.1c-0.6-0.3-1.2-0.4-1.8-0.4c-0.7,0-1.2,0.2-1.6,0.5c-0.4,0.3-0.6,0.8-0.6,1.4c0,0.4,0.1,0.7,0.3,0.9
			c0.2,0.2,0.4,0.4,0.7,0.5c0.3,0.1,0.7,0.3,1.3,0.6c0.7,0.3,1.2,0.5,1.7,0.8c0.4,0.2,0.8,0.6,1.1,1.1c0.3,0.5,0.5,1,0.5,1.8
			c0,1-0.3,1.8-1,2.4c-0.7,0.6-1.6,0.9-2.8,0.9C563.1,422.9,562.5,422.8,561.9,422.7z"/>
	</g>
	<rect x="13.3" y="237" style="fill:none;" width="174.7" height="77.7"/>
	<text transform="matrix(1 0 0 1 23.9473 266.3994)"><tspan x="0" y="0" class="st10" style="font-family:'VarelaRound-Regular'; font-size:40px;">Gotham</tspan><tspan x="-10.6" y="43" class="st10" style="font-family:'VarelaRound-Regular'; font-size:40px;">Rounded</tspan></text>
	<g>
		<path class="st10" d="M15.5,370.5c-0.2-0.2-0.3-0.4-0.3-0.6v-12.2c0-0.3,0.1-0.5,0.3-0.7c0.2-0.2,0.4-0.3,0.6-0.3h4.7
			c1.8,0,3.2,0.4,4.1,1.1c0.9,0.7,1.4,1.7,1.4,2.9c0,0.8-0.2,1.5-0.7,2.2s-1.1,1.1-1.9,1.4c1,0.3,1.6,0.9,2,1.8
			c0.4,0.9,0.5,1.9,0.5,2.8v0.9c0,0.3-0.1,0.5-0.3,0.6c-0.2,0.2-0.4,0.3-0.6,0.3c-0.3,0-0.5-0.1-0.7-0.3c-0.2-0.2-0.3-0.4-0.3-0.6
			v-0.6c0-0.7-0.1-1.3-0.2-1.8c-0.1-0.6-0.4-1.1-0.9-1.5c-0.5-0.4-1.1-0.7-2.1-0.7h-4.1v4.6c0,0.3-0.1,0.5-0.3,0.6
			c-0.2,0.2-0.4,0.3-0.7,0.3C15.9,370.8,15.7,370.7,15.5,370.5z M20.7,363.5c1.1,0,2.1-0.2,2.7-0.7s1-1.1,1-1.9
			c0-0.8-0.3-1.4-0.9-1.8s-1.6-0.6-3-0.6h-3.5v5.1H20.7z"/>
		<path class="st10" d="M29.9,369.5c-0.9-0.9-1.4-2.2-1.4-3.9c0-0.9,0.2-1.8,0.5-2.6c0.3-0.8,0.9-1.4,1.6-1.9s1.6-0.7,2.7-0.7
			c1,0,1.8,0.2,2.6,0.7s1.3,1.1,1.6,1.8c0.4,0.8,0.6,1.6,0.6,2.5c0,0.3-0.1,0.5-0.3,0.6c-0.2,0.2-0.4,0.3-0.7,0.3h-6.8
			c0.1,0.9,0.5,1.7,1,2.2c0.6,0.5,1.4,0.8,2.5,0.8c0.6,0,1-0.1,1.5-0.2c0.4-0.1,0.8-0.3,1.2-0.5c0.1-0.1,0.2-0.1,0.4-0.1
			c0.2,0,0.4,0.1,0.6,0.2c0.2,0.1,0.2,0.3,0.2,0.6c0,0.3-0.2,0.5-0.5,0.7c-0.5,0.3-1,0.5-1.5,0.7c-0.5,0.1-1.2,0.2-2,0.2
			C32.1,370.9,30.8,370.4,29.9,369.5z M36.3,364.8c0-0.7-0.2-1.2-0.5-1.6c-0.3-0.4-0.7-0.8-1.1-1c-0.4-0.2-0.9-0.3-1.3-0.3
			c-0.5,0-0.9,0.1-1.3,0.3c-0.4,0.2-0.8,0.5-1.1,1c-0.3,0.4-0.5,1-0.5,1.6H36.3z"/>
		<path class="st10" d="M42.9,375.2c-0.8-0.2-1.4-0.4-1.9-0.7c-0.2-0.1-0.4-0.4-0.4-0.7c0-0.2,0.1-0.4,0.2-0.6
			c0.2-0.2,0.3-0.3,0.6-0.3c0.1,0,0.2,0,0.4,0.1c1,0.5,2.1,0.8,3.3,0.8c2,0,3.1-1.1,3.1-3.3v-1.3c-0.9,1-2.1,1.5-3.4,1.5
			c-0.8,0-1.5-0.2-2.3-0.6s-1.3-1-1.8-1.8c-0.5-0.8-0.7-1.7-0.7-2.9s0.2-2.1,0.7-2.8c0.5-0.8,1.1-1.4,1.8-1.8
			c0.7-0.4,1.5-0.6,2.3-0.6c1.3,0,2.5,0.5,3.4,1.5v-0.5c0-0.3,0.1-0.5,0.3-0.7c0.2-0.2,0.4-0.3,0.6-0.3c0.3,0,0.5,0.1,0.6,0.3
			c0.2,0.2,0.3,0.4,0.3,0.7v8.9c0,1.7-0.4,3-1.2,3.9c-0.8,0.9-2,1.4-3.5,1.4C44.5,375.5,43.7,375.4,42.9,375.2z M46.7,368.6
			c0.5-0.3,0.9-0.6,1.4-1.1v-4.1c-0.4-0.5-0.9-0.8-1.4-1.1c-0.5-0.3-1-0.4-1.7-0.4c-1,0-1.8,0.3-2.4,0.9c-0.6,0.6-1,1.5-1,2.6
			c0,1.1,0.3,2,1,2.6c0.6,0.6,1.4,0.9,2.4,0.9C45.7,369,46.3,368.9,46.7,368.6z"/>
		<path class="st10" d="M54.7,370.4c-0.5-0.3-1-0.8-1.2-1.4c-0.3-0.6-0.4-1.3-0.4-2v-5.7c0-0.3,0.1-0.5,0.3-0.6
			c0.2-0.2,0.4-0.3,0.7-0.3c0.3,0,0.5,0.1,0.6,0.3c0.2,0.2,0.3,0.4,0.3,0.6v5.5c0,1.6,0.7,2.4,2.2,2.4c0.7,0,1.3-0.2,1.8-0.5
			c0.5-0.3,1-0.8,1.5-1.4v-6c0-0.3,0.1-0.5,0.3-0.6c0.2-0.2,0.4-0.3,0.7-0.3c0.3,0,0.5,0.1,0.6,0.3c0.2,0.2,0.3,0.4,0.3,0.6v8.6
			c0,0.3-0.1,0.5-0.3,0.7s-0.4,0.3-0.6,0.3c-0.3,0-0.5-0.1-0.7-0.3c-0.2-0.2-0.3-0.4-0.3-0.7v-0.8c-0.5,0.6-1.1,1-1.6,1.3
			s-1.3,0.5-2.1,0.5C55.8,370.9,55.2,370.7,54.7,370.4z"/>
		<path class="st10" d="M65.5,370.5c-0.2-0.2-0.3-0.4-0.3-0.6v-13c0-0.3,0.1-0.5,0.3-0.6c0.2-0.2,0.4-0.3,0.6-0.3
			c0.3,0,0.5,0.1,0.7,0.3c0.2,0.2,0.3,0.4,0.3,0.7v13c0,0.3-0.1,0.5-0.3,0.6s-0.4,0.3-0.6,0.3C65.9,370.8,65.7,370.7,65.5,370.5z"/>
		<path class="st10" d="M71.2,370.5c-0.5-0.2-0.9-0.6-1.2-1c-0.3-0.5-0.4-1-0.4-1.6c0-1,0.4-1.8,1.2-2.4c0.8-0.6,1.9-0.9,3.4-0.9
			h2.4v-0.2c0-0.9-0.2-1.5-0.7-1.9c-0.4-0.4-1.1-0.6-2-0.6c-0.5,0-1,0-1.3,0.1c-0.4,0.1-0.8,0.2-1.3,0.4c-0.1,0-0.2,0-0.3,0
			c-0.2,0-0.4-0.1-0.5-0.2c-0.1-0.1-0.2-0.3-0.2-0.5c0-0.4,0.2-0.6,0.5-0.8c1.1-0.5,2.3-0.7,3.5-0.7c0.9,0,1.7,0.2,2.3,0.6
			c0.6,0.4,1.1,0.9,1.4,1.5c0.3,0.6,0.5,1.2,0.5,1.9v5.7c0,0.3-0.1,0.5-0.3,0.6c-0.2,0.2-0.4,0.3-0.7,0.3s-0.5-0.1-0.6-0.3
			c-0.2-0.2-0.3-0.4-0.3-0.6v-0.5c-1,1-2.2,1.5-3.8,1.5C72.3,370.9,71.7,370.8,71.2,370.5z M75.2,368.9c0.5-0.3,1-0.6,1.4-1.1v-1.7
			h-2.2c-2,0-3,0.5-3,1.6c0,0.5,0.2,0.9,0.5,1.2c0.3,0.3,0.9,0.4,1.6,0.4C74.1,369.3,74.7,369.2,75.2,368.9z"/>
		<path class="st10" d="M81.8,370.5c-0.2-0.2-0.3-0.4-0.3-0.6v-8.6c0-0.3,0.1-0.5,0.3-0.7c0.2-0.2,0.4-0.3,0.6-0.3
			c0.3,0,0.5,0.1,0.6,0.3c0.2,0.2,0.3,0.4,0.3,0.7v0.9c0.9-1.3,2-1.9,3.1-1.9h0.1c0.3,0,0.5,0.1,0.6,0.3c0.2,0.2,0.3,0.4,0.3,0.6
			c0,0.3-0.1,0.5-0.3,0.6c-0.2,0.2-0.4,0.2-0.7,0.2h-0.1c-0.6,0-1.2,0.2-1.8,0.5s-1,0.7-1.3,1.3v6.1c0,0.3-0.1,0.5-0.3,0.6
			s-0.4,0.3-0.6,0.3C82.1,370.8,81.9,370.7,81.8,370.5z"/>
		<path class="st12" d="M14.9,395.9c-0.2-0.1-0.3-0.2-0.4-0.3c-0.1-0.2-0.2-0.3-0.2-0.5c0-0.2,0.1-0.4,0.2-0.6
			c0.2-0.2,0.3-0.3,0.6-0.3c0.1,0,0.3,0,0.4,0.1c1.2,0.5,2.5,0.8,3.9,0.8c2.3,0,3.5-0.8,3.5-2.3c0-0.4-0.2-0.7-0.5-1
			c-0.3-0.3-0.7-0.5-1.1-0.6s-1.1-0.3-1.9-0.5c-1.1-0.3-2-0.5-2.6-0.8c-0.7-0.3-1.2-0.7-1.7-1.2c-0.5-0.5-0.7-1.2-0.7-2.1
			c0-0.8,0.2-1.5,0.6-2.1s1-1.1,1.8-1.5c0.8-0.4,1.7-0.5,2.8-0.5c1.5,0,2.8,0.2,4,0.7c0.4,0.1,0.6,0.4,0.6,0.8
			c0,0.2-0.1,0.4-0.2,0.6c-0.1,0.2-0.3,0.3-0.6,0.3c-0.1,0-0.2,0-0.3-0.1c-1-0.4-2.1-0.5-3.2-0.5c-1.1,0-1.9,0.2-2.6,0.6
			c-0.7,0.4-1,1-1,1.7c0,0.5,0.2,0.9,0.5,1.2s0.7,0.5,1.2,0.7c0.5,0.2,1.1,0.3,1.9,0.5c1.1,0.3,1.9,0.5,2.6,0.8
			c0.6,0.3,1.2,0.6,1.7,1.2c0.5,0.5,0.7,1.3,0.7,2.2c0,0.7-0.2,1.4-0.6,2c-0.4,0.6-1,1.1-1.8,1.4s-1.7,0.5-2.7,0.5
			C18,396.9,16.4,396.6,14.9,395.9z"/>
		<path class="st12" d="M28,395.5c-0.9-0.9-1.4-2.2-1.4-3.9c0-0.9,0.2-1.8,0.5-2.6c0.3-0.8,0.9-1.4,1.6-1.9s1.6-0.7,2.7-0.7
			c1,0,1.8,0.2,2.6,0.7s1.3,1.1,1.6,1.8c0.4,0.8,0.6,1.6,0.6,2.5c0,0.3-0.1,0.5-0.3,0.6c-0.2,0.2-0.4,0.3-0.7,0.3h-6.8
			c0.1,0.9,0.5,1.7,1,2.2c0.6,0.5,1.4,0.8,2.5,0.8c0.6,0,1-0.1,1.5-0.2c0.4-0.1,0.8-0.3,1.2-0.5c0.1-0.1,0.2-0.1,0.4-0.1
			c0.2,0,0.4,0.1,0.6,0.2c0.2,0.1,0.2,0.3,0.2,0.6c0,0.3-0.2,0.5-0.5,0.7c-0.5,0.3-1,0.5-1.5,0.7c-0.5,0.1-1.2,0.2-2,0.2
			C30.2,396.9,28.9,396.4,28,395.5z M34.4,390.8c0-0.7-0.2-1.2-0.5-1.6c-0.3-0.4-0.7-0.8-1.1-1c-0.4-0.2-0.9-0.3-1.3-0.3
			c-0.5,0-0.9,0.1-1.3,0.3c-0.4,0.2-0.8,0.5-1.1,1c-0.3,0.4-0.5,1-0.5,1.6H34.4z"/>
		<path class="st12" d="M38.8,396.5c-0.2-0.2-0.3-0.4-0.3-0.6v-8.6c0-0.3,0.1-0.5,0.3-0.7c0.2-0.2,0.4-0.3,0.6-0.3
			c0.3,0,0.5,0.1,0.6,0.3c0.2,0.2,0.3,0.4,0.3,0.7v0.8c0.4-0.5,0.8-1,1.3-1.3c0.5-0.3,1.2-0.5,2-0.5c0.7,0,1.4,0.2,1.9,0.6
			c0.5,0.4,0.9,0.9,1.1,1.5c0.8-1.4,2.1-2.1,3.7-2.1c0.7,0,1.4,0.2,1.9,0.6s0.9,0.9,1.1,1.4c0.2,0.6,0.4,1.2,0.4,1.8v5.8
			c0,0.3-0.1,0.5-0.3,0.6c-0.2,0.2-0.4,0.3-0.7,0.3s-0.5-0.1-0.6-0.3c-0.2-0.2-0.3-0.4-0.3-0.6v-5.4c0-0.9-0.2-1.5-0.5-1.9
			c-0.3-0.4-0.8-0.6-1.6-0.6c-0.7,0-1.2,0.2-1.7,0.5c-0.4,0.4-0.8,0.8-1.2,1.4v6c0,0.3-0.1,0.5-0.3,0.6s-0.4,0.3-0.7,0.3
			s-0.5-0.1-0.6-0.3c-0.2-0.2-0.3-0.4-0.3-0.6v-5.4c0-0.9-0.2-1.5-0.5-1.9c-0.3-0.4-0.8-0.6-1.6-0.6c-0.7,0-1.2,0.2-1.7,0.5
			c-0.4,0.4-0.8,0.8-1.2,1.4v6c0,0.3-0.1,0.5-0.3,0.6s-0.4,0.3-0.6,0.3C39.2,396.8,39,396.7,38.8,396.5z"/>
		<path class="st12" d="M57.1,384.1c-0.2-0.2-0.3-0.4-0.3-0.7v-0.1c0-0.3,0.1-0.5,0.3-0.7c0.2-0.2,0.4-0.3,0.7-0.3h0.1
			c0.3,0,0.5,0.1,0.7,0.3c0.2,0.2,0.3,0.4,0.3,0.7v0.1c0,0.3-0.1,0.5-0.3,0.7s-0.4,0.3-0.7,0.3h-0.1
			C57.5,384.4,57.3,384.3,57.1,384.1z M57.2,396.5c-0.2-0.2-0.3-0.4-0.3-0.6v-8.6c0-0.3,0.1-0.5,0.3-0.7c0.2-0.2,0.4-0.3,0.6-0.3
			c0.3,0,0.5,0.1,0.7,0.3c0.2,0.2,0.3,0.4,0.3,0.7v8.6c0,0.3-0.1,0.5-0.3,0.6s-0.4,0.3-0.6,0.3C57.6,396.8,57.3,396.7,57.2,396.5z"
			/>
		<path class="st12" d="M63.7,395.4v0.5c0,0.3-0.1,0.5-0.3,0.6s-0.4,0.3-0.6,0.3c-0.3,0-0.5-0.1-0.6-0.3s-0.3-0.4-0.3-0.6v-13
			c0-0.3,0.1-0.5,0.3-0.6c0.2-0.2,0.4-0.3,0.6-0.3c0.3,0,0.5,0.1,0.7,0.3c0.2,0.2,0.3,0.4,0.3,0.7v4.9c1-1,2.1-1.5,3.4-1.5
			c0.8,0,1.6,0.2,2.3,0.6c0.7,0.4,1.3,1,1.8,1.8s0.7,1.8,0.7,2.8s-0.2,2-0.7,2.8s-1.1,1.4-1.8,1.8s-1.5,0.6-2.3,0.6
			C65.8,396.9,64.7,396.4,63.7,395.4z M69.3,394.3c0.6-0.6,0.9-1.5,0.9-2.7s-0.3-2-0.9-2.7c-0.6-0.6-1.4-0.9-2.4-0.9
			c-0.6,0-1.2,0.1-1.7,0.4s-1,0.6-1.4,1.1v4.2c0.4,0.5,0.9,0.8,1.4,1.1s1.1,0.4,1.7,0.4C67.9,395.2,68.7,394.9,69.3,394.3z"/>
		<path class="st12" d="M76.3,396.2c-0.8-0.4-1.4-1.1-1.8-1.9s-0.6-1.7-0.6-2.8s0.2-2,0.6-2.8s1-1.4,1.8-1.9
			c0.8-0.4,1.7-0.7,2.7-0.7c1,0,1.9,0.2,2.7,0.7c0.8,0.4,1.4,1.1,1.8,1.9s0.6,1.7,0.6,2.8s-0.2,2-0.6,2.8s-1,1.4-1.8,1.9
			s-1.7,0.7-2.7,0.7C78,396.9,77.1,396.7,76.3,396.2z M80.6,394.9c0.5-0.3,0.9-0.7,1.2-1.2c0.3-0.5,0.5-1.2,0.5-2.1
			c0-0.8-0.2-1.5-0.5-2.1c-0.3-0.5-0.7-0.9-1.2-1.2c-0.5-0.2-1-0.4-1.6-0.4c-0.6,0-1.1,0.1-1.6,0.4c-0.5,0.2-0.9,0.6-1.2,1.2
			c-0.3,0.5-0.5,1.2-0.5,2.1c0,0.8,0.2,1.5,0.5,2.1c0.3,0.5,0.7,0.9,1.2,1.2s1,0.4,1.6,0.4C79.6,395.2,80.1,395.1,80.6,394.9z"/>
		<path class="st12" d="M86.9,396.5c-0.2-0.2-0.3-0.4-0.3-0.6v-13c0-0.3,0.1-0.5,0.3-0.6c0.2-0.2,0.4-0.3,0.6-0.3
			c0.3,0,0.5,0.1,0.7,0.3c0.2,0.2,0.3,0.4,0.3,0.7v13c0,0.3-0.1,0.5-0.3,0.6s-0.4,0.3-0.6,0.3C87.3,396.8,87.1,396.7,86.9,396.5z"/>
		<path class="st12" d="M93.5,396.3c-0.7-0.4-1.3-1-1.8-1.8s-0.7-1.8-0.7-2.8s0.2-2,0.7-2.8s1.1-1.4,1.8-1.8
			c0.7-0.4,1.5-0.6,2.3-0.6c1.3,0,2.4,0.5,3.4,1.5v-4.9c0-0.3,0.1-0.5,0.3-0.7c0.2-0.2,0.4-0.3,0.6-0.3c0.3,0,0.5,0.1,0.6,0.3
			c0.2,0.2,0.3,0.4,0.3,0.6v13c0,0.3-0.1,0.5-0.3,0.6c-0.2,0.2-0.4,0.3-0.6,0.3c-0.3,0-0.5-0.1-0.6-0.3c-0.2-0.2-0.3-0.4-0.3-0.6
			v-0.5c-1,1-2.1,1.5-3.4,1.5C95,396.9,94.3,396.7,93.5,396.3z M97.9,394.8c0.5-0.3,1-0.6,1.4-1.1v-4.2c-0.4-0.5-0.9-0.8-1.4-1.1
			s-1.1-0.4-1.7-0.4c-1,0-1.8,0.3-2.4,0.9c-0.6,0.6-0.9,1.5-0.9,2.7s0.3,2,0.9,2.7c0.6,0.6,1.4,0.9,2.4,0.9
			C96.7,395.2,97.3,395.1,97.9,394.8z"/>
		<path class="st13" d="M15.5,422.4c-0.2-0.2-0.3-0.4-0.3-0.6v-12.1c0-0.3,0.1-0.5,0.3-0.7c0.2-0.2,0.4-0.3,0.6-0.3h4.7
			c1.4,0,2.5,0.3,3.3,1c0.8,0.7,1.2,1.5,1.2,2.6c0,0.8-0.2,1.4-0.5,1.9c-0.4,0.5-0.8,0.9-1.4,1.2c0.8,0.3,1.5,0.7,2,1.2
			s0.8,1.3,0.8,2.1c0,1.2-0.4,2.2-1.2,2.9c-0.8,0.7-2.1,1-3.9,1h-4.8C15.9,422.7,15.7,422.6,15.5,422.4z M20.4,414.8
			c1.2,0,2-0.2,2.5-0.6c0.5-0.4,0.7-1,0.7-1.7c0-0.6-0.3-1.1-0.8-1.5c-0.5-0.4-1.2-0.6-2.1-0.6h-3.7v4.3H20.4z M20.8,421
			c1.3,0,2.2-0.2,2.8-0.6c0.5-0.4,0.8-1,0.8-1.7c0-1.5-1.2-2.3-3.5-2.3h-3.8v4.6H20.8z"/>
		<path class="st13" d="M30.5,422.2c-0.8-0.4-1.4-1.1-1.8-1.9s-0.6-1.7-0.6-2.8s0.2-2,0.6-2.8s1-1.4,1.8-1.9
			c0.8-0.4,1.7-0.7,2.7-0.7c1,0,1.9,0.2,2.7,0.7c0.8,0.4,1.4,1.1,1.8,1.9s0.6,1.7,0.6,2.8s-0.2,2-0.6,2.8s-1,1.4-1.8,1.9
			s-1.7,0.7-2.7,0.7C32.1,422.9,31.2,422.7,30.5,422.2z M34.7,420.9c0.5-0.3,0.9-0.7,1.2-1.2c0.3-0.5,0.5-1.2,0.5-2.1
			c0-0.8-0.2-1.5-0.5-2.1c-0.3-0.5-0.7-0.9-1.2-1.2c-0.5-0.2-1-0.4-1.6-0.4c-0.6,0-1.1,0.1-1.6,0.4c-0.5,0.2-0.9,0.6-1.2,1.2
			c-0.3,0.5-0.5,1.2-0.5,2.1c0,0.8,0.2,1.5,0.5,2.1c0.3,0.5,0.7,0.9,1.2,1.2s1,0.4,1.6,0.4C33.7,421.2,34.2,421.1,34.7,420.9z"/>
		<path class="st13" d="M41.1,422.5c-0.2-0.2-0.3-0.4-0.3-0.6v-13c0-0.3,0.1-0.5,0.3-0.6c0.2-0.2,0.4-0.3,0.6-0.3
			c0.3,0,0.5,0.1,0.7,0.3c0.2,0.2,0.3,0.4,0.3,0.7v13c0,0.3-0.1,0.5-0.3,0.6s-0.4,0.3-0.6,0.3C41.5,422.8,41.3,422.7,41.1,422.5z"/>
		<path class="st13" d="M47.7,422.3c-0.7-0.4-1.3-1-1.8-1.8s-0.7-1.8-0.7-2.8s0.2-2,0.7-2.8s1.1-1.4,1.8-1.8
			c0.7-0.4,1.5-0.6,2.3-0.6c1.3,0,2.4,0.5,3.4,1.5v-4.9c0-0.3,0.1-0.5,0.3-0.7c0.2-0.2,0.4-0.3,0.6-0.3c0.3,0,0.5,0.1,0.6,0.3
			c0.2,0.2,0.3,0.4,0.3,0.6v13c0,0.3-0.1,0.5-0.3,0.6c-0.2,0.2-0.4,0.3-0.6,0.3c-0.3,0-0.5-0.1-0.6-0.3c-0.2-0.2-0.3-0.4-0.3-0.6
			v-0.5c-1,1-2.1,1.5-3.4,1.5C49.2,422.9,48.4,422.7,47.7,422.3z M52,420.8c0.5-0.3,1-0.6,1.4-1.1v-4.2c-0.4-0.5-0.9-0.8-1.4-1.1
			s-1.1-0.4-1.7-0.4c-1,0-1.8,0.3-2.4,0.9c-0.6,0.6-0.9,1.5-0.9,2.7s0.3,2,0.9,2.7c0.6,0.6,1.4,0.9,2.4,0.9
			C50.9,421.2,51.5,421.1,52,420.8z"/>
	</g>
	<g>
		<path class="st10" d="M13.8-31v5.6h-2v-14H19l2.3,1.3v5.7L19-31l3.2,5.6H20L16.8-31H13.8z M13.8-32.8h5.5v-4.8h-5.5V-32.8z"/>
		<path class="st10" d="M32.6-25.4H27l-2.3-1.3v-7.4l2.3-1.3h3.3l2.3,1.3v4.4h-6v2.6h6V-25.4z M26.6-31.5h4v-2.3h-4V-31.5z"/>
		<path class="st10" d="M35.8-26.5v-1.8l1.4-0.8L35.8-30v-4.1l2.3-1.3h6.4v0.7l-1.8,1.1l1.2,0.7v2.8l-2.3,1.3h-3.8v1.7h4.4l2.3,1.3
			v3.2l-2.3,1.3h-4.5l-2.3-1.3v-1.2l1.9-1.1v2h5.2v-2.4h-4.8L35.8-26.5z M37.7-30.5H42v-3.2h-4.2V-30.5z"/>
		<path class="st10" d="M47.3-35.4h1.9v8.4h4.6v-8.4h1.9v10.1h-1.5l-0.5-0.8l-1.4,0.8h-2.8l-2.3-1.3V-35.4z"/>
		<path class="st10" d="M59-26.7V-40h1.9v12.9h2.4v1.7h-2L59-26.7z"/>
		<path class="st10" d="M64.9-26.6v-3.3l2.3-1.3h3.6v-2.4h-5v-1.7h4.6l2.3,1.3v8.8h-0.5l-1.4-0.8l-1.4,0.8h-2.2L64.9-26.6z M66.9-27
			h4v-2.5h-4V-27z"/>
		<path class="st10" d="M78-33.7v8.3H76v-10h1.5l0.5,0.8l1.4-0.8h2.2v1.7H78z"/>
		<path class="st10" d="M106.5-32.7L106.5-32.7l1.7,1v4.9l-2.3,1.3h-7.6v-14h7.6l2.3,1.3v4.4L106.5-32.7z M101.1-33.8h4.3V-37h-4.3
			V-33.8z M101.1-27.8h4.3v-3.6h-4.3V-27.8z"/>
		<path class="st10" d="M118-25.3h-4.3l-2.3-1.3v-7.5l2.3-1.3h4.3l2.3,1.3v7.5L118-25.3z M114.2-27.6h3.4v-5.5h-3.4V-27.6z"/>
		<path class="st10" d="M123.3-26.7V-40h2.7v12.3h2v2.3h-2.4L123.3-26.7z"/>
		<path class="st10" d="M134.8-35.5l1.4,0.8V-40h2.7v14.7h-2.3l-0.5-0.8l-1.4,0.8h-2.6l-2.3-1.3v-7.5l2.3-1.3H134.8z M136.2-33.2
			h-3.6v5.5h3.6V-33.2z"/>
	</g>
	<g>
		<path class="st10" d="M11.9,200.7v-13c0-0.2,0-0.4,0.1-0.5c0.1-0.1,0.2-0.1,0.5-0.1h3.4c1.6,0,2.8,0.3,3.6,0.8
			c0.8,0.6,1.2,1.5,1.2,2.7c0,0.8-0.2,1.5-0.6,2.1c-0.4,0.6-1,1-1.7,1.3v0.1c0.4,0.1,0.7,0.4,1,0.8c0.3,0.4,0.5,1,0.8,1.7l1.6,3.9
			c0,0.1,0.1,0.2,0.1,0.3c0,0.2-0.3,0.3-0.8,0.3h-0.2c-0.2,0-0.4,0-0.5-0.1c-0.1-0.1-0.2-0.1-0.3-0.2l-1.5-3.9
			c-0.3-0.8-0.7-1.3-1.1-1.5c-0.4-0.3-1.1-0.4-1.9-0.4h-1.8v5.8c0,0.3-0.3,0.4-0.8,0.4h-0.2C12.2,201.1,11.9,201,11.9,200.7z
			 M16.3,193.4c0.5,0,0.9-0.1,1.3-0.3s0.7-0.5,0.9-0.9s0.3-0.8,0.3-1.2c0-0.8-0.2-1.4-0.7-1.8c-0.5-0.4-1.1-0.6-2-0.6h-2.5v4.8H16.3
			z"/>
		<path class="st10" d="M24.5,199.9c-0.8-0.9-1.2-2.2-1.2-4c0-1.8,0.4-3.1,1.2-4c0.8-0.9,1.9-1.4,3.5-1.4c1.4,0,2.4,0.4,3.1,1.3
			s1,2.2,1,3.9c0,0.1-0.1,0.3-0.2,0.5c-0.2,0.2-0.3,0.3-0.4,0.3h-6.3c0.1,1.1,0.4,1.9,0.9,2.4c0.5,0.5,1.2,0.8,2.2,0.8
			c0.6,0,1-0.1,1.4-0.2c0.4-0.1,0.7-0.3,1-0.4c0.3-0.1,0.4-0.2,0.5-0.2c0.1,0,0.3,0.1,0.4,0.4c0.2,0.3,0.3,0.5,0.3,0.6
			c0,0.2-0.2,0.3-0.5,0.6c-0.3,0.2-0.8,0.4-1.3,0.5c-0.6,0.1-1.1,0.2-1.8,0.2C26.5,201.2,25.3,200.8,24.5,199.9z M30.3,195.1
			c0-2.1-0.8-3.2-2.4-3.2c-1.7,0-2.7,1.1-2.8,3.2H30.3z"/>
		<path class="st10" d="M35,204.7c-0.7-0.4-1.1-1-1.1-1.9c0-0.6,0.2-1.1,0.5-1.5c0.3-0.4,0.8-0.8,1.3-1l0,0c-0.5-0.4-0.8-1-0.8-1.6
			c0-0.9,0.4-1.6,1.1-2.1c-0.6-0.3-1-0.7-1.3-1.2c-0.3-0.5-0.4-1-0.4-1.7c0-0.9,0.3-1.7,1-2.3c0.7-0.6,1.7-0.9,2.9-0.9
			c0.4,0,0.8,0,1.2,0.1h3.6c0.1,0,0.3,0,0.3,0.1c0.1,0.1,0.1,0.2,0.1,0.5v0.2c0,0.2,0,0.4-0.1,0.5c-0.1,0.1-0.2,0.1-0.3,0.1
			c-0.5,0-1,0-1.4-0.1l0,0c0.3,0.5,0.5,1.1,0.5,1.7c0,1-0.3,1.7-1,2.4c-0.7,0.6-1.7,0.9-2.9,0.9c-0.6,0-1.1,0.1-1.4,0.3
			c-0.3,0.2-0.5,0.6-0.5,1c0,0.3,0.1,0.6,0.3,0.8c0.2,0.2,0.5,0.3,0.8,0.4s0.8,0.2,1.4,0.2c0.3,0,0.5,0.1,0.7,0.1
			c1,0.1,1.7,0.3,2.2,0.7c0.5,0.3,0.8,0.9,0.8,1.7c0,1-0.4,1.7-1.2,2.2s-1.9,0.8-3.4,0.8C36.8,205.3,35.7,205.1,35,204.7z
			 M40.3,203.6c0.4-0.2,0.7-0.6,0.7-1.1c0-0.5-0.2-0.8-0.7-0.9c-0.4-0.2-1.1-0.3-2-0.4c-0.8-0.1-1.3-0.2-1.6-0.3
			c-0.9,0.4-1.3,0.9-1.3,1.6c0,1,1,1.4,2.9,1.4C39.2,204,39.9,203.8,40.3,203.6z M40,195.3c0.4-0.3,0.6-0.8,0.6-1.5
			c0-1.3-0.8-1.9-2.4-1.9c-1.6,0-2.4,0.6-2.4,1.9c0,1.3,0.8,1.9,2.4,1.9C39,195.7,39.6,195.6,40,195.3z"/>
		<path class="st10" d="M46.3,200.3c-0.6-0.6-0.9-1.4-0.9-2.4V191c0-0.3,0.3-0.4,0.8-0.4h0.1c0.5,0,0.8,0.1,0.8,0.4v6.8
			c0,0.6,0.2,1.1,0.5,1.4s0.9,0.5,1.5,0.5c0.5,0,0.9-0.1,1.4-0.4c0.4-0.3,0.8-0.6,1.2-1V191c0-0.3,0.3-0.4,0.8-0.4h0.1
			c0.5,0,0.8,0.1,0.8,0.4v7.1c0,0.9,0,1.5,0.1,1.9c0.1,0.4,0.1,0.6,0.1,0.6c0,0.2-0.1,0.3-0.4,0.3c-0.3,0.1-0.5,0.1-0.7,0.1
			c-0.2,0-0.3-0.1-0.4-0.3c-0.1-0.2-0.2-0.4-0.2-0.6s-0.1-0.4-0.1-0.4c-0.4,0.5-0.9,0.8-1.5,1.1c-0.5,0.3-1.1,0.4-1.7,0.4
			C47.6,201.2,46.8,200.9,46.3,200.3z"/>
		<path class="st10" d="M57.5,200.6c-0.5-0.4-0.8-1.1-0.8-2.2v-12c0-0.3,0.3-0.4,0.8-0.4h0.1c0.5,0,0.8,0.1,0.8,0.4v11.8
			c0,0.6,0.1,0.9,0.3,1.2c0.2,0.2,0.5,0.3,0.8,0.3c0.3,0,0.4,0,0.6,0c0.1,0,0.2,0,0.3,0c0.1,0,0.2,0.1,0.3,0.4
			c0.1,0.2,0.1,0.4,0.1,0.6c0,0.4-0.5,0.6-1.5,0.6C58.6,201.2,58,201,57.5,200.6z"/>
		<path class="st10" d="M62.9,200.4c-0.6-0.5-0.9-1.3-0.9-2.2c0-1.1,0.3-1.8,0.9-2.4c0.6-0.5,1.4-0.9,2.3-1c0.9-0.2,2-0.2,3.4-0.3
			v-0.9c0-0.5-0.2-0.9-0.5-1.2c-0.3-0.3-0.9-0.5-1.7-0.5c-0.6,0-1.1,0.1-1.5,0.2c-0.4,0.1-0.8,0.3-1.1,0.4c-0.3,0.1-0.5,0.2-0.5,0.2
			c-0.1,0-0.3-0.1-0.5-0.4c-0.2-0.3-0.3-0.5-0.3-0.6c0-0.2,0.2-0.4,0.5-0.6c0.4-0.2,0.8-0.4,1.4-0.5s1.2-0.2,1.8-0.2
			c1.2,0,2.2,0.3,2.9,0.8s1,1.3,1,2.3v4.5c0,0.9,0,1.5,0.1,1.9c0.1,0.4,0.1,0.6,0.1,0.6c0,0.2-0.1,0.3-0.4,0.3
			c-0.3,0.1-0.5,0.1-0.7,0.1c-0.2,0-0.3-0.1-0.4-0.3c-0.1-0.2-0.2-0.4-0.2-0.6s-0.1-0.4-0.1-0.4c-0.9,1-2,1.5-3.4,1.5
			C64.4,201.2,63.5,200.9,62.9,200.4z M67.1,199.4c0.5-0.2,1-0.6,1.5-1V196c-1,0-1.8,0.1-2.5,0.1c-0.6,0.1-1.2,0.3-1.7,0.6
			s-0.7,0.8-0.7,1.4c0,0.5,0.1,0.9,0.4,1.2c0.3,0.3,0.7,0.4,1.3,0.4C66.1,199.7,66.7,199.6,67.1,199.4z"/>
		<path class="st10" d="M73.7,200.7v-7c0-0.9,0-1.5-0.1-1.9c-0.1-0.4-0.1-0.6-0.1-0.6c0-0.2,0.1-0.3,0.4-0.4
			c0.3-0.1,0.5-0.1,0.7-0.1c0.2,0,0.3,0.1,0.4,0.3s0.2,0.4,0.2,0.6s0.1,0.4,0.1,0.4c0.7-1,1.5-1.5,2.3-1.5c0.4,0,0.7,0.1,0.9,0.2
			c0.2,0.1,0.3,0.3,0.3,0.6s0,0.5-0.1,0.7s-0.2,0.4-0.3,0.4c-0.1,0-0.2,0-0.4-0.1c-0.2-0.1-0.4-0.1-0.7-0.1c-0.3,0-0.6,0.1-0.9,0.3
			c-0.3,0.2-0.5,0.4-0.7,0.6s-0.3,0.3-0.3,0.4v7.3c0,0.3-0.3,0.4-0.8,0.4h-0.1C73.9,201.1,73.7,201,73.7,200.7z"/>
		<path class="st10" d="M100.1,200.9c-0.1-0.1-0.2-0.3-0.2-0.6v-12.4c0-0.3,0.1-0.5,0.2-0.6c0.1-0.1,0.3-0.2,0.6-0.2h4
			c1.6,0,2.8,0.3,3.6,0.9c0.8,0.6,1.1,1.5,1.1,2.6c0,0.7-0.2,1.3-0.6,1.8c-0.4,0.6-0.9,1-1.5,1.2l0,0.1c0.8,0.2,1.4,0.6,1.9,1.2
			s0.8,1.3,0.8,2.1c0,1.3-0.4,2.3-1.3,3c-0.8,0.7-2.1,1-3.8,1h-4.2C100.4,201.1,100.2,201,100.1,200.9z M104.4,192.7
			c0.6,0,1-0.1,1.4-0.4c0.3-0.3,0.5-0.6,0.5-1.1c0-1-0.6-1.5-1.8-1.5H103v3H104.4z M105,198.5c0.6,0,1-0.1,1.4-0.4s0.5-0.7,0.5-1.2
			s-0.2-0.9-0.6-1.2s-0.9-0.4-1.6-0.4H103v3.2H105z"/>
		<path class="st10" d="M112.3,199.8c-0.8-0.9-1.2-2.3-1.2-4c0-1.7,0.4-3.1,1.2-4c0.8-0.9,2-1.4,3.6-1.4c1.6,0,2.8,0.5,3.6,1.4
			c0.8,0.9,1.2,2.3,1.2,4c0,1.7-0.4,3.1-1.2,4c-0.8,0.9-2,1.4-3.6,1.4C114.4,201.2,113.2,200.8,112.3,199.8z M117.3,198.1
			c0.3-0.5,0.5-1.3,0.5-2.3c0-1-0.2-1.8-0.5-2.3c-0.3-0.5-0.8-0.8-1.4-0.8c-0.6,0-1.1,0.3-1.4,0.8c-0.3,0.5-0.5,1.3-0.5,2.3
			c0,2,0.6,3.1,1.9,3.1C116.6,198.9,117,198.6,117.3,198.1z"/>
		<path class="st10" d="M122.9,198v-11.4c0-0.4,0.4-0.6,1.2-0.6h0.6c0.8,0,1.2,0.2,1.2,0.6V198c0,0.3,0.1,0.5,0.2,0.7
			s0.3,0.2,0.6,0.2c0.1,0,0.2,0,0.3,0c0.1,0,0.2,0,0.3,0c0.1,0,0.2,0.1,0.3,0.3c0.1,0.2,0.2,0.4,0.2,0.7c0.1,0.2,0.1,0.4,0.1,0.5
			c0,0.7-0.6,1-1.9,1C123.9,201.2,122.9,200.2,122.9,198z"/>
		<path class="st10" d="M130.2,200.6c-0.6-0.4-1-1-1.3-1.8c-0.3-0.8-0.5-1.8-0.5-2.9c0-1.7,0.4-3,1.1-3.9s1.8-1.5,3.1-1.5
			c0.8,0,1.5,0.2,2,0.6v-4.4c0-0.4,0.4-0.6,1.2-0.6h0.6c0.8,0,1.2,0.2,1.2,0.6v10.9c0,0.6,0,1.1,0.1,1.4c0,0.3,0.1,0.7,0.1,1.1
			c0,0.2,0.1,0.3,0.1,0.4c0,0.2-0.3,0.4-0.8,0.5c-0.5,0.1-1,0.2-1.4,0.2c-0.2,0-0.4-0.1-0.5-0.3c-0.1-0.2-0.2-0.4-0.2-0.6
			c0-0.2-0.1-0.4-0.1-0.4c-0.2,0.4-0.6,0.8-1.1,1.1c-0.5,0.3-1,0.4-1.6,0.4C131.4,201.2,130.8,201,130.2,200.6z M134.7,197.6v-4.5
			c-0.5-0.3-0.9-0.4-1.4-0.4c-1.2,0-1.9,1-1.9,3c0,2,0.5,3,1.6,3C133.7,198.8,134.2,198.4,134.7,197.6z"/>
	</g>
	<g>
		<path class="st10" d="M13.1,87h6.7v0.9h-7.7V73.7h1V87z"/>
		<path class="st10" d="M23.5,74.5c0,0.1,0,0.2-0.1,0.3c-0.1,0.1-0.1,0.2-0.2,0.3s-0.2,0.1-0.3,0.2c-0.1,0-0.2,0.1-0.3,0.1
			s-0.2,0-0.3-0.1c-0.1,0-0.2-0.1-0.3-0.2s-0.1-0.2-0.2-0.3c0-0.1-0.1-0.2-0.1-0.3s0-0.2,0.1-0.3c0-0.1,0.1-0.2,0.2-0.3
			c0.1-0.1,0.2-0.1,0.3-0.2c0.1,0,0.2-0.1,0.3-0.1s0.2,0,0.3,0.1c0.1,0,0.2,0.1,0.3,0.2c0.1,0.1,0.1,0.2,0.2,0.3
			C23.5,74.2,23.5,74.4,23.5,74.5z M23.1,77.9v10h-0.9v-10H23.1z"/>
		<path class="st10" d="M29.9,77.7c0.4,0,0.8,0.1,1.2,0.2c0.4,0.1,0.7,0.3,1,0.5h2.6v0.3c0,0.2-0.1,0.3-0.3,0.3l-1.5,0.1
			c0.2,0.3,0.3,0.5,0.4,0.9c0.1,0.3,0.2,0.7,0.2,1c0,0.5-0.1,0.9-0.3,1.3c-0.2,0.4-0.4,0.7-0.7,1c-0.3,0.3-0.7,0.5-1.1,0.6
			s-0.9,0.2-1.4,0.2c-0.6,0-1.1-0.1-1.6-0.3c-0.3,0.2-0.5,0.3-0.7,0.6c-0.2,0.2-0.2,0.4-0.2,0.6c0,0.3,0.1,0.5,0.3,0.7
			c0.2,0.2,0.5,0.3,0.8,0.3c0.3,0.1,0.7,0.1,1.1,0.1c0.4,0,0.9,0,1.3,0.1s0.9,0.1,1.3,0.1c0.4,0.1,0.8,0.2,1.1,0.3s0.6,0.4,0.8,0.6
			s0.3,0.6,0.3,1.1c0,0.4-0.1,0.8-0.3,1.2c-0.2,0.4-0.5,0.7-0.9,1c-0.4,0.3-0.9,0.5-1.4,0.7c-0.6,0.2-1.2,0.3-1.9,0.3
			c-0.7,0-1.3-0.1-1.8-0.2c-0.5-0.1-1-0.3-1.3-0.6c-0.4-0.2-0.6-0.5-0.8-0.8c-0.2-0.3-0.3-0.7-0.3-1c0-0.5,0.2-1,0.5-1.4
			s0.8-0.7,1.4-0.9c-0.3-0.1-0.6-0.3-0.8-0.5c-0.2-0.2-0.3-0.5-0.3-0.9c0-0.1,0-0.3,0.1-0.4c0.1-0.2,0.1-0.3,0.2-0.5
			c0.1-0.2,0.2-0.3,0.4-0.4c0.1-0.1,0.3-0.3,0.5-0.4c-0.5-0.3-0.8-0.6-1.1-1.1c-0.3-0.5-0.4-1-0.4-1.6c0-0.5,0.1-0.9,0.3-1.3
			c0.2-0.4,0.4-0.7,0.7-1c0.3-0.3,0.7-0.5,1.1-0.6C28.9,77.8,29.3,77.7,29.9,77.7z M33.6,88.5c0-0.3-0.1-0.6-0.2-0.8
			s-0.4-0.3-0.7-0.4c-0.3-0.1-0.6-0.2-0.9-0.2S31,87,30.6,87s-0.8,0-1.2-0.1s-0.8-0.1-1.1-0.1c-0.3,0.1-0.5,0.2-0.7,0.3
			c-0.2,0.1-0.4,0.3-0.6,0.4c-0.2,0.2-0.3,0.3-0.4,0.5c-0.1,0.2-0.1,0.4-0.1,0.6c0,0.3,0.1,0.6,0.2,0.8c0.1,0.3,0.4,0.5,0.7,0.6
			c0.3,0.2,0.6,0.3,1.1,0.4c0.4,0.1,0.9,0.2,1.5,0.2c0.5,0,1-0.1,1.4-0.2s0.8-0.3,1.1-0.5c0.3-0.2,0.6-0.5,0.8-0.7
			C33.5,89.2,33.6,88.9,33.6,88.5z M29.9,83.5c0.4,0,0.8-0.1,1.1-0.2s0.6-0.3,0.8-0.5c0.2-0.2,0.4-0.5,0.5-0.8
			c0.1-0.3,0.2-0.6,0.2-1c0-0.4-0.1-0.7-0.2-1s-0.3-0.6-0.5-0.8c-0.2-0.2-0.5-0.4-0.8-0.5c-0.3-0.1-0.7-0.2-1.1-0.2
			s-0.8,0.1-1.1,0.2c-0.3,0.1-0.6,0.3-0.8,0.5c-0.2,0.2-0.4,0.5-0.5,0.8c-0.1,0.3-0.2,0.7-0.2,1c0,0.4,0.1,0.7,0.2,1
			c0.1,0.3,0.3,0.6,0.5,0.8c0.2,0.2,0.5,0.4,0.8,0.5C29.1,83.4,29.5,83.5,29.9,83.5z"/>
		<path class="st10" d="M36.7,87.9V73.3h1v6.3c0.5-0.6,1-1,1.6-1.4c0.6-0.3,1.3-0.5,2-0.5c0.5,0,1,0.1,1.4,0.3
			c0.4,0.2,0.8,0.4,1,0.8c0.3,0.3,0.5,0.7,0.6,1.2c0.1,0.5,0.2,1,0.2,1.6v6.4h-1v-6.4c0-0.9-0.2-1.7-0.6-2.2c-0.4-0.5-1.1-0.8-2-0.8
			c-0.7,0-1.3,0.2-1.8,0.5c-0.6,0.3-1.1,0.8-1.5,1.4v7.5H36.7z"/>
		<path class="st10" d="M50.2,88c-0.7,0-1.2-0.2-1.6-0.6s-0.6-1-0.6-1.7v-6.8h-1.4c-0.1,0-0.1,0-0.2-0.1c0,0-0.1-0.1-0.1-0.2v-0.4
			l1.7-0.1l0.2-3.6c0-0.1,0-0.1,0.1-0.2c0,0,0.1-0.1,0.2-0.1H49v3.8h3.1v0.7H49v6.8c0,0.3,0,0.5,0.1,0.7c0.1,0.2,0.2,0.4,0.3,0.5
			c0.1,0.1,0.3,0.2,0.4,0.3c0.2,0.1,0.3,0.1,0.5,0.1c0.2,0,0.4,0,0.6-0.1c0.2-0.1,0.3-0.1,0.5-0.2c0.1-0.1,0.2-0.2,0.3-0.2
			s0.1-0.1,0.2-0.1c0.1,0,0.1,0,0.2,0.1l0.3,0.4c-0.3,0.3-0.6,0.5-1,0.7C51,87.9,50.6,88,50.2,88z"/>
		<path class="st10" d="M68.5,81.9v6h-1.9V73.5h4c0.9,0,1.7,0.1,2.3,0.3c0.7,0.2,1.2,0.4,1.6,0.8c0.4,0.3,0.7,0.8,1,1.3
			c0.2,0.5,0.3,1,0.3,1.6c0,0.5-0.1,1-0.2,1.4s-0.4,0.8-0.7,1.2c-0.3,0.4-0.7,0.6-1.1,0.9c-0.4,0.2-0.9,0.4-1.5,0.6
			c0.2,0.1,0.5,0.3,0.6,0.6l4.2,5.7h-1.7c-0.4,0-0.6-0.1-0.8-0.4l-3.7-5.1c-0.1-0.2-0.2-0.3-0.4-0.3c-0.1-0.1-0.3-0.1-0.6-0.1H68.5z
			 M68.5,80.5h2c0.6,0,1.1-0.1,1.5-0.2c0.4-0.1,0.8-0.3,1.1-0.6s0.5-0.5,0.7-0.9s0.2-0.7,0.2-1.2c0-0.9-0.3-1.5-0.8-1.9
			c-0.6-0.4-1.4-0.6-2.5-0.6h-2.1V80.5z"/>
		<path class="st10" d="M82.9,77.6c0.6,0,1.2,0.1,1.7,0.3c0.5,0.2,1,0.5,1.3,0.9c0.4,0.4,0.7,0.9,0.9,1.4c0.2,0.6,0.3,1.2,0.3,1.9
			c0,0.3,0,0.5-0.1,0.6c-0.1,0.1-0.2,0.1-0.3,0.1H80c0,0.6,0.1,1.2,0.3,1.7c0.2,0.5,0.4,0.9,0.7,1.2c0.3,0.3,0.6,0.6,1,0.7
			c0.4,0.2,0.8,0.2,1.3,0.2c0.4,0,0.8-0.1,1.2-0.2c0.3-0.1,0.6-0.2,0.8-0.3s0.4-0.2,0.6-0.3s0.3-0.2,0.4-0.2c0.1,0,0.3,0.1,0.3,0.2
			l0.5,0.6c-0.2,0.3-0.5,0.5-0.8,0.7c-0.3,0.2-0.6,0.4-1,0.5c-0.3,0.1-0.7,0.2-1.1,0.3C83.8,88,83.4,88,83,88
			c-0.7,0-1.3-0.1-1.9-0.4c-0.6-0.2-1.1-0.6-1.5-1c-0.4-0.5-0.8-1-1-1.7c-0.2-0.7-0.4-1.4-0.4-2.3c0-0.7,0.1-1.4,0.3-2
			c0.2-0.6,0.5-1.1,0.9-1.6c0.4-0.4,0.9-0.8,1.5-1.1C81.6,77.7,82.2,77.6,82.9,77.6z M83,78.9c-0.9,0-1.5,0.2-2,0.7
			c-0.5,0.5-0.8,1.2-0.9,2.1h5.5c0-0.4-0.1-0.8-0.2-1.1c-0.1-0.3-0.3-0.6-0.5-0.9c-0.2-0.3-0.5-0.4-0.8-0.6S83.4,78.9,83,78.9z"/>
		<path class="st10" d="M92.8,77.6c0.4,0,0.9,0,1.2,0.1c0.4,0.1,0.7,0.2,1,0.4h2.8v0.7c0,0.2-0.1,0.4-0.4,0.4l-1.2,0.2
			c0.2,0.4,0.3,0.9,0.3,1.5c0,0.5-0.1,0.9-0.3,1.3c-0.2,0.4-0.5,0.7-0.8,1c-0.3,0.3-0.7,0.5-1.2,0.7c-0.5,0.2-1,0.2-1.5,0.2
			c-0.5,0-0.9-0.1-1.3-0.2c-0.2,0.1-0.4,0.3-0.5,0.4c-0.1,0.2-0.2,0.3-0.2,0.5c0,0.2,0.1,0.4,0.3,0.6s0.5,0.2,0.8,0.3
			c0.3,0.1,0.7,0.1,1.1,0.1c0.4,0,0.8,0,1.2,0c0.4,0,0.8,0,1.2,0.1c0.4,0.1,0.8,0.2,1.1,0.4c0.3,0.2,0.6,0.4,0.8,0.7
			s0.3,0.7,0.3,1.2c0,0.4-0.1,0.9-0.3,1.3s-0.5,0.8-0.9,1.1c-0.4,0.3-0.9,0.6-1.5,0.8s-1.3,0.3-2,0.3c-0.7,0-1.4-0.1-1.9-0.2
			s-1-0.3-1.4-0.6c-0.4-0.2-0.6-0.5-0.8-0.9c-0.2-0.3-0.3-0.7-0.3-1c0-0.5,0.2-0.9,0.5-1.3c0.3-0.4,0.8-0.6,1.3-0.8
			c-0.3-0.1-0.5-0.3-0.7-0.5c-0.2-0.2-0.3-0.5-0.3-0.9c0-0.1,0-0.3,0.1-0.5c0.1-0.2,0.1-0.3,0.2-0.5s0.2-0.3,0.4-0.4
			s0.3-0.3,0.6-0.4c-0.5-0.3-0.9-0.7-1.2-1.1s-0.4-1-0.4-1.6c0-0.5,0.1-0.9,0.3-1.3c0.2-0.4,0.5-0.7,0.8-1c0.3-0.3,0.7-0.5,1.2-0.7
			S92.3,77.6,92.8,77.6z M96,88.4c0-0.3-0.1-0.5-0.2-0.6c-0.1-0.2-0.3-0.3-0.6-0.4s-0.5-0.1-0.8-0.2c-0.3,0-0.6-0.1-1-0.1
			s-0.7,0-1.1,0s-0.7,0-1-0.1c-0.4,0.2-0.7,0.4-0.9,0.7S90,88.2,90,88.6c0,0.2,0.1,0.4,0.2,0.6c0.1,0.2,0.3,0.4,0.5,0.5
			c0.2,0.1,0.5,0.3,0.9,0.3s0.8,0.1,1.3,0.1c0.5,0,0.9,0,1.3-0.1s0.7-0.2,1-0.4c0.3-0.2,0.5-0.4,0.6-0.6C95.9,88.9,96,88.6,96,88.4z
			 M92.8,82.9c0.4,0,0.7,0,1-0.1c0.3-0.1,0.5-0.2,0.7-0.4c0.2-0.2,0.3-0.4,0.4-0.6c0.1-0.3,0.1-0.5,0.1-0.8c0-0.6-0.2-1.1-0.6-1.5
			c-0.4-0.4-0.9-0.5-1.6-0.5c-0.7,0-1.3,0.2-1.6,0.5c-0.4,0.4-0.6,0.9-0.6,1.5c0,0.3,0,0.6,0.1,0.8c0.1,0.3,0.2,0.5,0.4,0.6
			s0.4,0.3,0.7,0.4S92.5,82.9,92.8,82.9z"/>
		<path class="st10" d="M101.2,77.7v6.5c0,0.8,0.2,1.4,0.5,1.8c0.4,0.4,0.9,0.6,1.6,0.6c0.5,0,1-0.1,1.5-0.4s0.9-0.6,1.3-1v-7.5h1.8
			v10.1h-1.1c-0.3,0-0.4-0.1-0.5-0.4l-0.1-1.1c-0.4,0.5-0.9,0.9-1.5,1.2c-0.5,0.3-1.2,0.4-1.9,0.4c-0.6,0-1-0.1-1.5-0.3
			c-0.4-0.2-0.8-0.4-1.1-0.8c-0.3-0.3-0.5-0.7-0.6-1.2c-0.1-0.5-0.2-1-0.2-1.6v-6.5H101.2z"/>
		<path class="st10" d="M112.7,73.1v14.7H111V73.1H112.7z"/>
		<path class="st10" d="M123.3,87.9h-0.8c-0.2,0-0.3,0-0.4-0.1c-0.1-0.1-0.2-0.2-0.2-0.3l-0.2-0.9c-0.3,0.2-0.5,0.5-0.8,0.6
			c-0.3,0.2-0.5,0.3-0.8,0.5c-0.3,0.1-0.6,0.2-0.9,0.3s-0.7,0.1-1.1,0.1c-0.4,0-0.8-0.1-1.1-0.2c-0.3-0.1-0.6-0.3-0.9-0.5
			c-0.3-0.2-0.5-0.5-0.6-0.8c-0.1-0.3-0.2-0.7-0.2-1.2c0-0.4,0.1-0.8,0.3-1.2c0.2-0.4,0.6-0.7,1.1-1c0.5-0.3,1.1-0.5,1.9-0.7
			c0.8-0.2,1.8-0.3,2.9-0.3v-0.8c0-0.8-0.2-1.4-0.5-1.8c-0.3-0.4-0.8-0.6-1.5-0.6c-0.4,0-0.8,0.1-1.1,0.2s-0.6,0.2-0.8,0.4
			s-0.4,0.3-0.6,0.4c-0.2,0.1-0.3,0.2-0.5,0.2c-0.1,0-0.2,0-0.3-0.1s-0.2-0.1-0.2-0.2l-0.3-0.6c0.6-0.5,1.2-0.9,1.8-1.2
			c0.6-0.3,1.4-0.4,2.2-0.4c0.6,0,1.1,0.1,1.5,0.3c0.4,0.2,0.8,0.4,1.1,0.8s0.5,0.7,0.7,1.2c0.2,0.5,0.2,1,0.2,1.6V87.9z
			 M118.7,86.8c0.3,0,0.6,0,0.9-0.1c0.3-0.1,0.5-0.2,0.7-0.3s0.5-0.3,0.7-0.4s0.4-0.4,0.6-0.6v-2.1c-0.8,0-1.5,0.1-2.1,0.2
			c-0.6,0.1-1,0.2-1.4,0.4c-0.4,0.2-0.6,0.4-0.8,0.6S117,85,117,85.2c0,0.3,0,0.5,0.1,0.7s0.2,0.4,0.4,0.5c0.1,0.1,0.3,0.2,0.5,0.3
			C118.2,86.7,118.5,86.8,118.7,86.8z"/>
		<path class="st10" d="M126,87.9V77.7h1c0.2,0,0.3,0,0.4,0.1s0.1,0.2,0.2,0.4l0.1,1.6c0.3-0.7,0.8-1.3,1.3-1.7
			c0.5-0.4,1.1-0.6,1.8-0.6c0.3,0,0.5,0,0.8,0.1s0.4,0.2,0.6,0.3l-0.2,1.3c0,0.2-0.1,0.3-0.3,0.3c-0.1,0-0.2,0-0.4-0.1
			s-0.5-0.1-0.8-0.1c-0.6,0-1.1,0.2-1.6,0.5c-0.4,0.4-0.8,0.9-1,1.6v6.5H126z"/>
		<path class="st10" d="M149.5,87.9V73.4h5c0.9,0,1.8,0.1,2.4,0.3s1.2,0.4,1.7,0.8c0.4,0.3,0.7,0.7,0.9,1.2c0.2,0.5,0.3,1,0.3,1.6
			c0,0.3,0,0.7-0.1,1c-0.1,0.3-0.3,0.6-0.5,0.9s-0.5,0.5-0.8,0.7c-0.3,0.2-0.7,0.4-1.2,0.6c2,0.4,3,1.5,3,3.2c0,0.6-0.1,1.2-0.3,1.7
			s-0.6,1-1,1.3c-0.4,0.4-1,0.7-1.6,0.9s-1.4,0.3-2.2,0.3H149.5z M152.2,79.7h2.1c0.9,0,1.6-0.2,2.1-0.5c0.5-0.3,0.7-0.9,0.7-1.6
			c0-0.8-0.2-1.3-0.6-1.6c-0.4-0.3-1.1-0.5-2-0.5h-2.3V79.7z M152.2,81.5v4.2h2.7c0.5,0,0.9-0.1,1.3-0.2c0.3-0.1,0.6-0.3,0.8-0.5
			c0.2-0.2,0.3-0.4,0.4-0.7s0.1-0.5,0.1-0.9c0-0.3,0-0.6-0.1-0.8c-0.1-0.3-0.3-0.5-0.5-0.6c-0.2-0.2-0.5-0.3-0.8-0.4
			c-0.3-0.1-0.7-0.1-1.2-0.1H152.2z"/>
		<path class="st10" d="M166.8,77.4c0.8,0,1.5,0.1,2.1,0.4c0.6,0.2,1.2,0.6,1.6,1c0.4,0.5,0.8,1,1,1.7c0.2,0.7,0.4,1.4,0.4,2.2
			c0,0.8-0.1,1.5-0.4,2.2c-0.2,0.7-0.6,1.2-1,1.7c-0.4,0.5-1,0.8-1.6,1.1c-0.6,0.2-1.3,0.4-2.1,0.4s-1.5-0.1-2.1-0.4
			c-0.6-0.2-1.2-0.6-1.6-1.1c-0.4-0.5-0.8-1-1-1.7c-0.2-0.7-0.4-1.4-0.4-2.2c0-0.8,0.1-1.5,0.4-2.2c0.2-0.7,0.6-1.2,1-1.7
			c0.4-0.5,1-0.8,1.6-1C165.3,77.6,166,77.4,166.8,77.4z M166.8,86.1c0.9,0,1.5-0.3,1.9-0.9s0.6-1.4,0.6-2.5s-0.2-2-0.6-2.5
			s-1-0.9-1.9-0.9c-0.9,0-1.5,0.3-1.9,0.9c-0.4,0.6-0.6,1.4-0.6,2.5s0.2,1.9,0.6,2.5C165.3,85.8,165.9,86.1,166.8,86.1z"/>
		<path class="st10" d="M176.4,73v14.9h-2.5V73H176.4z"/>
		<path class="st10" d="M186.4,87.9c-0.3,0-0.5-0.1-0.6-0.5l-0.2-1c-0.2,0.2-0.4,0.5-0.7,0.6s-0.5,0.4-0.8,0.5
			c-0.3,0.1-0.6,0.2-0.9,0.3c-0.3,0.1-0.6,0.1-1,0.1c-0.6,0-1.1-0.1-1.5-0.4c-0.5-0.2-0.9-0.6-1.2-1s-0.6-1-0.8-1.6
			s-0.3-1.4-0.3-2.2c0-0.8,0.1-1.5,0.3-2.1c0.2-0.7,0.5-1.2,0.9-1.7s0.9-0.9,1.4-1.1s1.1-0.4,1.8-0.4c0.6,0,1.1,0.1,1.5,0.3
			c0.4,0.2,0.8,0.4,1.1,0.7V73h2.5v14.9H186.4z M183.1,86c0.5,0,1-0.1,1.3-0.3c0.4-0.2,0.7-0.5,1-0.9v-4.6c-0.3-0.3-0.6-0.6-0.9-0.7
			c-0.3-0.1-0.7-0.2-1.1-0.2c-0.4,0-0.7,0.1-1,0.2c-0.3,0.1-0.6,0.4-0.8,0.6c-0.2,0.3-0.4,0.6-0.5,1.1s-0.2,1-0.2,1.5
			c0,0.6,0,1.1,0.1,1.5c0.1,0.4,0.2,0.8,0.4,1c0.2,0.3,0.4,0.5,0.7,0.6S182.8,86,183.1,86z"/>
	</g>
</g>
<g id="Layer_2">
	<g>
		<path class="st14" d="M404.7,10c0,0-4.2,0.6-5.4,0.9c-35.6,8.8-48.6,45.7-48.6,45.7l5.5,1.9l1.5,5.2c0,0,37.3-13.5,46-48.3
			C404.1,14.2,404.7,10,404.7,10z"/>
		<line class="st14" x1="392.8" y1="22" x2="355.9" y2="58.9"/>
	</g>
</g>
<g id="Layer_3">
	<path class="st15" d="M271.1,8.9l2.9,2.9c3.1,3.1,3.7,8.4,0.4,10.8c-0.6,0.4-2.7,1.9-3.3,2.3c-11.4,9-26,24.4-35.7,34.8
		c-0.5,0.5-5.1,6.9-5.8,7.8c-2.6,3.1-7.7,2.6-10.8-0.4l-2.9-2.9c-3.1-3.1-3.5-8.2-0.4-10.8c0.8-0.7,7.6-5.7,8-6.1
		c10.3-9.8,25.3-24,34.4-35.4c0.5-0.6,2-2.8,2.4-3.4C262.8,5.3,268,5.8,271.1,8.9z"/>
	<g>
		<circle class="st16" cx="376.5" cy="-76.5" r="28"/>
	</g>
	<path class="st17" d="M269-54h-4c-1.6,0-3-1.3-3-3v-38.5c0-1.7,1.4-3,3-3h4c1.7,0,3,1.3,3,3V-57C272-55.3,270.7-54,269-54z"/>
	<path class="st17" d="M226-54h-4c-1.6,0-3-1.3-3-3v-38.5c0-1.7,1.4-3,3-3h4c1.6,0,3,1.3,3,3V-57C229-55.3,227.7-54,226-54z"/>
	<rect x="229" y="-80.1" class="st17" width="33" height="7.3"/>
	<rect x="272" y="-80.1" class="st17" width="6" height="7.3"/>
	<rect x="213" y="-80.1" class="st17" width="6" height="7.3"/>
	<g>
		<path class="st18" d="M212.1-20.5l0.4-1.6c0.4,0.2,0.9,0.4,1.5,0.6c0.6,0.2,1.1,0.3,1.6,0.3c0.8,0,1.4-0.1,1.8-0.4
			s0.6-0.7,0.6-1.1c0-0.3-0.1-0.6-0.3-0.9c-0.2-0.3-0.5-0.5-0.9-0.7c-0.4-0.2-0.9-0.5-1.5-0.8c-1.1-0.6-2-1.1-2.5-1.7
			c-0.6-0.6-0.9-1.3-0.9-2.1c0-0.6,0.2-1.2,0.5-1.6c0.3-0.5,0.8-0.9,1.4-1.2c0.6-0.3,1.3-0.4,2.2-0.4c0.6,0,1.1,0.1,1.7,0.2
			c0.6,0.2,1.1,0.4,1.6,0.6l-0.7,1.6c-0.5-0.2-0.9-0.4-1.3-0.5c-0.4-0.1-0.8-0.2-1.3-0.2c-0.6,0-1.1,0.1-1.5,0.4
			c-0.4,0.2-0.6,0.6-0.6,1.1c0,0.3,0.1,0.6,0.3,0.9c0.2,0.3,0.5,0.5,0.8,0.7c0.3,0.2,0.9,0.5,1.6,0.9c0.8,0.4,1.4,0.8,1.8,1.1
			c0.5,0.3,0.8,0.7,1.1,1.2c0.3,0.4,0.4,1,0.4,1.6c0,0.6-0.2,1.2-0.5,1.7c-0.3,0.5-0.9,0.9-1.5,1.2s-1.5,0.4-2.4,0.4
			c-0.5,0-1.2-0.1-1.9-0.3S212.4-20.3,212.1-20.5z"/>
		<path class="st18" d="M226.1-28.5l0.6,1.5h-2.2v4.2c0,0.5,0.1,0.8,0.3,1.1c0.2,0.3,0.5,0.4,0.9,0.4c0.3,0,0.6-0.1,0.9-0.2l0.6,1.5
			c-0.2,0.1-0.4,0.2-0.7,0.3c-0.3,0.1-0.6,0.1-0.9,0.1c-1,0-1.7-0.3-2.3-0.8s-0.8-1.2-0.8-2.2v-4.5h-1.2v-1.5h1.2v-2.1l2-0.4v2.5
			H226.1z"/>
		<path class="st18" d="M231.1-19.8h-2v-8.7h1.1l0.7,1.4c0.4-0.4,0.9-0.7,1.5-1c0.6-0.3,1-0.5,1.5-0.5l0.4,1.6
			c-0.4,0-0.9,0.1-1.5,0.4c-0.6,0.3-1.1,0.7-1.6,1.1V-19.8z"/>
		<path class="st18" d="M243.5-23.6h-6c0.2,1.6,1.1,2.3,2.8,2.3c0.5,0,0.9-0.1,1.3-0.2s0.8-0.3,1.3-0.6l0.6,1.5c-1,0.7-2,1-3.2,1
			c-1.6,0-2.8-0.4-3.6-1.2c-0.8-0.8-1.3-1.9-1.3-3.4c0-0.9,0.2-1.7,0.5-2.4c0.3-0.7,0.8-1.2,1.5-1.6c0.6-0.4,1.4-0.6,2.3-0.6
			c1.3,0,2.3,0.4,2.9,1.3c0.7,0.9,1,1.9,1,3.3V-23.6z M237.4-25h4.1c-0.1-0.7-0.3-1.2-0.7-1.5c-0.3-0.3-0.8-0.5-1.4-0.5
			c-0.6,0-1,0.2-1.4,0.5C237.7-26.1,237.5-25.6,237.4-25z"/>
		<path class="st18" d="M247.5-19.8h-2v-8.7h1.3l0.4,1c0.5-0.4,1.1-0.7,1.7-1c0.6-0.2,1.2-0.4,1.7-0.4c1,0,1.8,0.3,2.2,0.9
			c0.5,0.6,0.7,1.4,0.7,2.5v5.6h-2v-5.5c0-1.2-0.5-1.8-1.3-1.8c-0.7,0-1.6,0.4-2.6,1.2V-19.8z"/>
		<path class="st18" d="M263.6-28.5v9.3c0,1.1-0.4,2-1.2,2.6c-0.8,0.6-1.9,1-3.2,1c-0.4,0-1-0.1-1.7-0.3c-0.7-0.2-1.2-0.4-1.6-0.7
			l0.6-1.5c0.5,0.3,1,0.4,1.4,0.6c0.4,0.1,0.8,0.2,1.3,0.2c0.7,0,1.3-0.2,1.8-0.5c0.4-0.3,0.7-0.8,0.7-1.4v-0.9
			c-0.3,0.2-0.6,0.3-1,0.4c-0.3,0.1-0.7,0.2-1,0.2c-0.9,0-1.7-0.2-2.3-0.6c-0.7-0.4-1.2-0.9-1.5-1.6c-0.4-0.7-0.5-1.5-0.5-2.4
			c0-0.9,0.2-1.7,0.5-2.4c0.4-0.7,0.9-1.2,1.5-1.6s1.4-0.6,2.3-0.6c0.4,0,0.8,0.1,1.2,0.3c0.4,0.2,0.8,0.4,1.2,0.7l0.4-0.7H263.6z
			 M260.7-21.5c0.3-0.1,0.6-0.3,0.9-0.5v-4.3c-0.3-0.3-0.6-0.4-0.9-0.5c-0.3-0.1-0.6-0.2-1-0.2c-0.7,0-1.3,0.3-1.7,0.8
			s-0.6,1.2-0.6,2c0,0.9,0.2,1.6,0.6,2.1c0.4,0.5,1,0.8,1.7,0.8C260.1-21.3,260.4-21.4,260.7-21.5z"/>
		<path class="st18" d="M270.3-28.5l0.6,1.5h-2.2v4.2c0,0.5,0.1,0.8,0.3,1.1c0.2,0.3,0.5,0.4,0.9,0.4c0.3,0,0.6-0.1,0.9-0.2l0.6,1.5
			c-0.2,0.1-0.4,0.2-0.7,0.3c-0.3,0.1-0.6,0.1-0.9,0.1c-1,0-1.7-0.3-2.3-0.8s-0.8-1.2-0.8-2.2v-4.5h-1.2v-1.5h1.2v-2.1l2-0.4v2.5
			H270.3z"/>
		<path class="st18" d="M281.3-25.4v5.6h-2v-5.5c0-1.2-0.5-1.8-1.4-1.8c-0.7,0-1.6,0.4-2.5,1.2v6.1h-2v-12.5l2-0.2v4.8
			c0.5-0.3,1-0.6,1.5-0.8c0.5-0.2,1-0.3,1.5-0.3C280.3-28.8,281.3-27.7,281.3-25.4z"/>
	</g>
	<g>
		<path class="st19" d="M354.8-23.1l-3.2-4.3v8.1h-2v-12.2h1.3l4.2,5.9l3.9-5.9h1.2v12.2h-2.1v-7.8l-2.7,3.9L354.8-23.1z"/>
		<path class="st19" d="M371.2-21.3c-0.4,0.7-0.9,1.2-1.6,1.6c-0.7,0.4-1.5,0.6-2.4,0.6c-0.9,0-1.7-0.2-2.4-0.6
			c-0.7-0.4-1.2-0.9-1.6-1.6c-0.4-0.7-0.5-1.5-0.5-2.4c0-0.9,0.2-1.7,0.5-2.4s0.9-1.2,1.6-1.6c0.7-0.4,1.5-0.6,2.4-0.6
			c0.9,0,1.7,0.2,2.4,0.6c0.7,0.4,1.2,0.9,1.6,1.6c0.4,0.7,0.5,1.5,0.5,2.4C371.8-22.8,371.6-22,371.2-21.3z M369-21.6
			c0.5-0.5,0.7-1.2,0.7-2c0-0.9-0.2-1.5-0.7-2.1c-0.4-0.5-1-0.8-1.8-0.8c-0.7,0-1.3,0.3-1.8,0.8c-0.4,0.5-0.7,1.2-0.7,2.1
			c0,0.9,0.2,1.5,0.7,2.1c0.4,0.5,1,0.8,1.8,0.8C368-20.8,368.6-21.1,369-21.6z"/>
		<path class="st19" d="M377.8-28l0.6,1.5h-2.2v4.2c0,0.5,0.1,0.8,0.3,1.1c0.2,0.3,0.5,0.4,0.9,0.4c0.3,0,0.6-0.1,0.9-0.2l0.6,1.5
			c-0.2,0.1-0.4,0.2-0.7,0.3c-0.3,0.1-0.6,0.1-0.9,0.1c-1,0-1.7-0.3-2.3-0.8s-0.8-1.2-0.8-2.2v-4.5H373V-28h1.2v-2.1l2-0.4v2.5
			H377.8z"/>
		<path class="st19" d="M381.7-29.4c-0.3,0-0.6-0.1-0.8-0.4c-0.2-0.2-0.3-0.5-0.3-0.9c0-0.3,0.1-0.6,0.3-0.8
			c0.2-0.2,0.5-0.4,0.8-0.4c0.3,0,0.6,0.1,0.9,0.4c0.2,0.2,0.4,0.5,0.4,0.8c0,0.3-0.1,0.6-0.4,0.9C382.3-29.6,382-29.4,381.7-29.4z
			 M380.7-19.3V-28h2v8.7H380.7z"/>
		<path class="st19" d="M393.2-21.3c-0.4,0.7-0.9,1.2-1.6,1.6c-0.7,0.4-1.5,0.6-2.4,0.6c-0.9,0-1.7-0.2-2.4-0.6
			c-0.7-0.4-1.2-0.9-1.6-1.6c-0.4-0.7-0.5-1.5-0.5-2.4c0-0.9,0.2-1.7,0.5-2.4s0.9-1.2,1.6-1.6c0.7-0.4,1.5-0.6,2.4-0.6
			c0.9,0,1.7,0.2,2.4,0.6c0.7,0.4,1.2,0.9,1.6,1.6c0.4,0.7,0.5,1.5,0.5,2.4C393.7-22.8,393.5-22,393.2-21.3z M391-21.6
			c0.5-0.5,0.7-1.2,0.7-2c0-0.9-0.2-1.5-0.7-2.1c-0.4-0.5-1-0.8-1.8-0.8c-0.7,0-1.3,0.3-1.8,0.8c-0.4,0.5-0.7,1.2-0.7,2.1
			c0,0.9,0.2,1.5,0.7,2.1c0.4,0.5,1,0.8,1.8,0.8C389.9-20.8,390.5-21.1,391-21.6z"/>
		<path class="st19" d="M397.7-19.3h-2V-28h1.3l0.4,1c0.5-0.4,1.1-0.7,1.7-1c0.6-0.2,1.2-0.4,1.7-0.4c1,0,1.8,0.3,2.2,0.9
			c0.5,0.6,0.7,1.4,0.7,2.5v5.6h-2v-5.5c0-1.2-0.5-1.8-1.3-1.8c-0.7,0-1.6,0.4-2.6,1.2V-19.3z"/>
	</g>
</g>
</svg>
