<svg id="Layer_1" data-name="Layer 1" xmlns="http://www.w3.org/2000/svg" viewBox="0 0 152.67 63.22"><defs><style>.cls-1{fill:#f0f0f0;}</style></defs><title>Quantico-demo</title><path class="cls-1" d="M15.48,52.76l-4.17-2.41V29.62l4.17-2.42H26l4.17,2.42V50.35L26,52.76l4.06,7h-4l-4-7Zm-.57-3.24H26.6V30.44H14.91Z" transform="translate(-9.15 -26.3)"/><path class="cls-1" d="M37.22,34.58h3.5V49.63H49V34.58h3.49V52.76H49.89L49,51.28l-2.55,1.48H41.4l-4.18-2.41Z" transform="translate(-9.15 -26.3)"/><path class="cls-1" d="M58.46,50.35V44.48l4.18-2.41h6.55V37.71H60.26V34.58h8.25L72.68,37V52.76h-.93l-2.56-1.48-2.56,1.48h-4Zm3.5-.72h7.23V45.2H62Z" transform="translate(-9.15 -26.3)"/><path class="cls-1" d="M94.64,52.58H91.15v-15H82.84v15h-3.5V34.4H82l.87,1.48,2.55-1.48h5.08l4.17,2.41Z" transform="translate(-9.15 -26.3)"/><path class="cls-1" d="M99.86,34.58h3.32v-3l3.49-2v5H111v3.13h-4.32V49.45H111v3.13h-3.64l-4.17-2.41V37.71H99.86Z" transform="translate(-9.15 -26.3)"/><path class="cls-1" d="M116.75,26.3h3.85v3.86h-3.85Zm3.67,26.28h-3.49v-18h3.49Z" transform="translate(-9.15 -26.3)"/><path class="cls-1" d="M130.57,49.45h10v3.13h-9.33l-4.17-2.41V37l4.17-2.41h9.33v3.13h-10Z" transform="translate(-9.15 -26.3)"/><path class="cls-1" d="M157.64,52.76h-6.95l-4.17-2.41V36.81l4.17-2.41h6.95l4.18,2.41V50.35ZM150,49.63h8.32V37.53H150Z" transform="translate(-9.15 -26.3)"/><path class="cls-1" d="M10.34,83.71v3.35H9.15V78.67h4.3l1.39.8v3.44l-1.39.8,1.93,3.35H14.05l-1.89-3.35Zm0-1.08h3.3V79.74h-3.3Z" transform="translate(-9.15 -26.3)"/><path class="cls-1" d="M21.92,87.06H18.58l-1.4-.8V81.81l1.4-.81h2l1.39.81v2.66H18.35V86h3.57Zm-3.57-3.63h2.41V82.05H18.35Z" transform="translate(-9.15 -26.3)"/><path class="cls-1" d="M24.14,86.39V85.31l.86-.49-.86-.49V81.87l1.4-.81h3.82v.41l-1.09.64.73.43v1.65L27.61,85h-2.3v1H28l1.39.8v1.9l-1.39.8H25.3l-1.39-.8V88l1.16-.67v1.2H28.2V87.06H25.31ZM25.31,84h2.53v-1.9H25.31Z" transform="translate(-9.15 -26.3)"/><path class="cls-1" d="M31.34,81.06h1.17v5h2.77v-5h1.16v6.06h-.87l-.29-.49-.85.49H32.74l-1.4-.8Z" transform="translate(-9.15 -26.3)"/><path class="cls-1" d="M38.66,86.26v-8h1.17V86h1.44v1H40.06Z" transform="translate(-9.15 -26.3)"/><path class="cls-1" d="M42.53,86.32v-2l1.39-.8H46.1V82.11h-3v-1h2.74l1.4.81v5.25H47l-.85-.49-.85.49H43.92Zm1.16-.24H46.1V84.6H43.69Z" transform="translate(-9.15 -26.3)"/><path class="cls-1" d="M50.65,82.11v5H49.49v-6h.87l.29.5.85-.5h1.33v1Z" transform="translate(-9.15 -26.3)"/><path class="cls-1" d="M69.67,82.71v0l1,.6v2.93l-1.39.8H64.78V78.67h4.54l1.39.8v2.64ZM66.46,82H69V80.1H66.46Zm0,3.62H69V83.44H66.46Z" transform="translate(-9.15 -26.3)"/><path class="cls-1" d="M76.88,87.12H74.33l-1.39-.8V81.81L74.33,81h2.55l1.39.81v4.51Zm-2.3-1.4h2V82.41h-2Z" transform="translate(-9.15 -26.3)"/><path class="cls-1" d="M80.38,86.26v-8H82v7.35h1.2v1.4H81.77Z" transform="translate(-9.15 -26.3)"/><path class="cls-1" d="M87.56,81l.85.5V78.31h1.65v8.81H88.7l-.29-.49-.85.49H86l-1.39-.8V81.81L86,81Zm.85,1.41H86.24v3.31h2.17Z" transform="translate(-9.15 -26.3)"/></svg>