<?xml version="1.0" encoding="utf-8"?>
<!-- Generator: Adobe Illustrator 22.0.1, SVG Export Plug-In . SVG Version: 6.00 Build 0)  -->
<svg version="1.1" id="Layer_1" xmlns="http://www.w3.org/2000/svg" xmlns:xlink="http://www.w3.org/1999/xlink" x="0px" y="0px"
	 viewBox="0 0 442 442" style="enable-background:new 0 0 442 442;" xml:space="preserve">
<style type="text/css">
	.st0{fill:none;stroke:#F0F0F0;stroke-width:41;stroke-miterlimit:10;}
	.st1{fill:none;stroke:#F0F0F0;stroke-width:11;stroke-miterlimit:10;}
	.st2{fill:#252525;}
	.st3{fill:#F0F0F0;}
	.st4{opacity:0.5;}
</style>
<path class="st0" d="M173.4,391.8c-93-26.3-147.1-123-120.8-216c26.3-93,123-147.1,216-120.8c93,26.3,147.1,123,120.8,216
	C363.1,363.9,266.4,418,173.4,391.8z"/>
<circle class="st1" cx="221" cy="223.4" r="209.9"/>
<circle class="st2" cx="221" cy="223.4" r="175"/>
<g>
	<g>
		<path class="st3" d="M320.9,64.2c-2.9-8.8-12.6-18-24.3-19.9c-16.3-2.6-26.2,1.9-41.8,15.3c-10.4,11.6-12,15.5-16,24.3
			c-5.6,12.3-8.1,25.4-7.7,38.9c0.4,13.4,1.5,26.8,2.6,40.2c0.7,8.9,1.8,18.1,2.9,26.6c0.6,5.8,1.6,11.1,1.6,11.1s-8.8,5.5-11.7,7.1
			c-1.5,0.9-1.8,0.7-2.2-0.4c-1.8-5.8-1.4-4.6-4.1-12.1c-9-23-22.2-29.6-39.2-27.9c-23,2.7-38.1,23.4-45.6,35.9
			c-4.7,7.9-6.9,11.3-11.5,25.1c-4,12.2-5.3,25.5-6.2,39.2c-0.5,10.5,1,25.8,3.5,36.5c4.3,15.8,15.8,33,35.8,43.4
			c13.6,6.6,31.6,11.1,60.5-5c6.8-3.8,5.3-2.8,8.2,0.9c5,6.3,7.5,8.7,19.8,7c0.4-0.2,3.7-0.8,7.5-2.1c3-0.8,7.6-4.8,9.9-13.2
			c4.9-17.5,6.4-35.5,7.7-53.5c0.4-8.8,0.4-21.1,0.7-25.2c0.5-6.2,1.9-7.4,13.8-13c3.7-1.7,5.3-10.8,3.6-14.6
			c-1.2-2.6-1.8-2.4-5-1.6c-2.7,0.7-5.2,2.1-7.6,3.6c-3.3,2-4.8,5.5-5.4-2.5c-0.9-12.1-3-22.3-4.3-34.3c-0.8-5.2-0.5-5,2.5-7.7
			c11.4-9.8,21.5-20.7,30.2-33c8.8-12.5,18.1-24.8,22-40.2C324.9,96.8,326.4,80.6,320.9,64.2z M209.8,229.6c-1.2,0.9-2.1,1-2.5,0.9
			c-0.4-0.2-0.8-0.1-0.4-0.9c2.2-4.8,4.5-5.4,4.5-5.4S211.8,228,209.8,229.6z M235.5,253.6c-5.6,4.3-11.6,8.1-17.4,12.2
			c-3,2.1-2.4,5.1-0.6,7.5c1.8,2.3,3.2,5,7.6,3.6c3.1-1,5-1.7,7.5-2.8c1.5-0.7,3.8-2.3,5.3-3.2c0,1.4-1.2,9.8-1.5,11
			c-1.7,7.2-1.7,8.2-5.8,13.8c-10.3,13-30,18.2-37,19c-6.2,0.3-13.3,0.2-22.2-5.8c-11.7-6.7-16.4-17.9-18.3-32.2
			c-0.7-5-0.7-5.5-1-13.4c0-15.8,6.5-45.3,19.5-61.3c11.1-13.7,24.2-9.6,29-3.6c5.3,5.8,9,12.2,9.5,17.7c-2.3,1.3-4.7,3-6.7,6.1
			c-3.2,4.8-4.6,10-3.8,16c0.6,4.3,2.6,8.3,6,8.9c3,0.5,7.3-2,9.8-4.2c10.6-9.4,10.6-22.1,10.7-24.5c0.3-3.4,7.6-7.5,11.2-9.1
			c2.6-1.2,1.6-1.7,2,8.5c0.1,12.8,0.5,19.8,1,29.8C240.3,249.5,237.2,252.3,235.5,253.6z M281.2,162c-4.3,5.5-8.8,10.8-13.2,16.2
			c-0.6,0.7-1.9,2-2.7,2.6c-0.4-1.6-0.5-2.4-0.6-3.3c-0.4-7.3-0.7-14.6-1-21.9c0.1,0-0.9-15.3-0.9-22.9c-0.1-16.6,5-31.7,14.4-45.3
			c3.7-5.3,10.3-7.5,16.3-5.8c6,1.6,9.1,6.2,10.1,13.3C307.2,121,296.4,142.2,281.2,162z"/>
	</g>
</g>
<g class="st4">
	<g>
		<path class="st2" d="M140,202.1c0,0,0.3-0.6,0.9-1.7c0.3-0.5,0.6-1.2,1-1.9c0.2-0.4,0.4-0.8,0.6-1.2c0.3-0.4,0.5-0.8,0.8-1.3
			c0.6-0.9,1.2-1.8,1.8-2.8c0.7-1,1.4-2,2.2-3c0.4-0.5,0.8-1.1,1.2-1.6c0.4-0.5,0.9-1,1.4-1.5c0.9-1,1.8-2.1,2.9-3
			c1-0.9,2.1-1.9,3.1-2.8c1.1-0.8,2.2-1.6,3.2-2.4c1-0.8,2.1-1.4,3.2-2c1-0.6,2-1.1,2.9-1.7c0.9-0.5,1.8-0.8,2.6-1.2
			c0.8-0.3,1.4-0.6,2-0.9c1.1-0.5,1.7-0.7,1.7-0.7s-0.6,0.3-1.7,0.9c-0.5,0.3-1.2,0.6-1.9,1c-0.7,0.4-1.6,0.8-2.5,1.3
			c-0.9,0.6-1.8,1.1-2.8,1.8c-1,0.6-2.1,1.3-3.1,2.1c-1,0.8-2.1,1.6-3.1,2.4c-1,0.9-2,1.8-3,2.7c-1.1,0.9-1.9,1.9-2.8,2.9
			c-0.5,0.5-0.9,1-1.4,1.5c-0.4,0.5-0.8,1-1.2,1.5c-0.8,1-1.6,2-2.3,2.9c-0.7,1-1.3,1.9-1.9,2.7c-0.6,0.8-1.1,1.6-1.6,2.3
			c-0.5,0.7-0.9,1.3-1.2,1.8C140.4,201.5,140,202.1,140,202.1z"/>
	</g>
	<g>
		<path class="st2" d="M238,94.6c0,0,0.1-0.3,0.2-0.8c0.1-0.5,0.3-1.3,0.6-2.3c0.3-1,0.6-2.1,1.1-3.5c0.2-0.7,0.5-1.4,0.8-2.1
			c0.3-0.7,0.6-1.5,0.9-2.3c0.4-0.8,0.7-1.6,1.1-2.5c0.4-0.8,0.8-1.7,1.3-2.6c0.9-1.8,1.9-3.6,3.1-5.4c1.2-1.8,2.4-3.7,3.8-5.5
			c1.4-1.8,2.9-3.6,4.4-5.3c3.2-3.4,6.7-6.5,10.3-8.9c1.8-1.3,3.6-2.3,5.4-3.3c1.8-0.9,3.5-1.7,5.1-2.3c1.6-0.6,3.2-1,4.6-1.3
			c0.7-0.2,1.3-0.2,1.9-0.3c0.6-0.1,1.2-0.1,1.7-0.2c1,0,1.8-0.1,2.3,0c0.5,0,0.8,0,0.8,0s-0.3,0-0.8,0c-0.5,0-1.3,0.1-2.3,0.1
			c-0.5,0.1-1,0.2-1.6,0.2c-0.6,0.1-1.2,0.2-1.9,0.4c-1.4,0.3-2.8,0.8-4.4,1.5c-1.6,0.7-3.3,1.4-5,2.4c-1.7,1-3.5,2.1-5.2,3.3
			c-3.5,2.5-6.9,5.5-10,8.9c-1.6,1.7-3,3.4-4.4,5.2c-1.4,1.8-2.7,3.6-3.8,5.4c-1.2,1.8-2.2,3.6-3.2,5.3c-0.5,0.9-0.9,1.7-1.3,2.5
			c-0.4,0.8-0.8,1.6-1.2,2.4c-0.7,1.6-1.3,3-1.9,4.3c-0.5,1.3-0.9,2.5-1.3,3.4C238.4,93.5,238,94.6,238,94.6z"/>
	</g>
	<g>
		<path class="st2" d="M239.5,194.1c0,0-0.1-0.7-0.3-1.8c-0.2-1.2-0.5-2.8-0.8-4.8c-0.3-2-0.6-4.3-1-6.9c-0.3-2.5-0.7-5.2-1-7.9
			c-0.2-1.3-0.3-2.7-0.4-4c-0.1-1.3-0.2-2.6-0.3-3.9c-0.2-2.5-0.3-4.9-0.5-6.9c-0.1-2-0.2-3.7-0.3-4.9c0-1.2-0.1-1.9-0.1-1.9
			s0.1,0.7,0.3,1.8c0.1,1.2,0.4,2.8,0.6,4.9s0.5,4.4,0.8,6.9c0.1,1.3,0.3,2.6,0.4,3.9c0.1,1.3,0.3,2.7,0.4,4
			c0.3,2.7,0.6,5.4,0.9,7.9c0.3,2.5,0.5,4.9,0.6,6.9c0.2,2,0.3,3.7,0.4,4.9C239.5,193.4,239.5,194.1,239.5,194.1z"/>
	</g>
	<g>
		<path class="st2" d="M202,228.6c0,0,0-0.2,0.1-0.6c0-0.2,0.1-0.4,0.1-0.7c0-0.1,0.1-0.3,0.1-0.4c0.1-0.1,0.1-0.3,0.2-0.5
			c0.1-0.3,0.3-0.7,0.4-1c0.2-0.4,0.4-0.7,0.6-1.1s0.4-0.8,0.8-1.1c0.3-0.3,0.6-0.7,0.9-1c0.3-0.3,0.7-0.6,1-0.9
			c0.3-0.3,0.7-0.6,1-0.8c0.3-0.3,0.7-0.5,1-0.7c0.3-0.2,0.6-0.4,0.9-0.6c0.6-0.4,1.1-0.6,1.4-0.8c0.4-0.2,0.6-0.3,0.6-0.3
			s-0.2,0.2-0.5,0.4c-0.3,0.3-0.7,0.6-1.2,1.1c-0.2,0.2-0.5,0.5-0.8,0.7c-0.3,0.2-0.6,0.5-0.9,0.8c-0.3,0.3-0.6,0.6-0.9,0.9
			c-0.3,0.3-0.6,0.6-0.9,0.9c-0.3,0.3-0.6,0.6-0.8,1c-0.3,0.3-0.5,0.6-0.8,1c-0.2,0.3-0.5,0.6-0.7,0.9c-0.2,0.3-0.4,0.6-0.5,0.9
			c-0.2,0.3-0.3,0.5-0.4,0.8c-0.1,0.2-0.2,0.5-0.3,0.6C202.1,228.4,202,228.6,202,228.6z"/>
	</g>
	<g>
		<path class="st2" d="M214,310.1c0,0,0.5-0.3,1.3-0.8c0.9-0.5,2.1-1.2,3.6-2c0.7-0.4,1.5-0.9,2.3-1.4c0.8-0.5,1.6-1.1,2.5-1.7
			c0.4-0.3,0.9-0.6,1.3-0.9c0.4-0.3,0.8-0.7,1.3-1c0.4-0.3,0.8-0.7,1.2-1.1c0.4-0.4,0.8-0.7,1.2-1.1l1.1-1.2
			c0.4-0.4,0.7-0.8,1.1-1.3c0.7-0.8,1.3-1.7,1.9-2.6c0.5-0.9,1-1.8,1.5-2.6c0.4-0.9,0.8-1.7,1.1-2.5c0.3-0.8,0.5-1.5,0.8-2.2
			c0.2-0.6,0.3-1.2,0.5-1.7c0.3-1,0.4-1.5,0.4-1.5s-0.1,0.6-0.2,1.5c-0.1,0.5-0.1,1.1-0.3,1.8c-0.2,0.7-0.4,1.4-0.6,2.3
			c-0.3,0.8-0.6,1.7-1,2.6c-0.4,0.9-0.9,1.8-1.4,2.8c-0.6,0.9-1.1,1.9-1.9,2.7c-0.4,0.4-0.7,0.9-1.1,1.3l-1.2,1.3
			c-0.4,0.4-0.8,0.8-1.3,1.2c-0.4,0.4-0.8,0.8-1.3,1.1c-0.9,0.7-1.8,1.3-2.7,1.9c-0.9,0.6-1.8,1.1-2.6,1.6c-0.9,0.5-1.7,0.9-2.4,1.3
			c-1.5,0.8-2.8,1.3-3.7,1.7C214.5,309.9,214,310.1,214,310.1z"/>
	</g>
	<g>
		<path class="st2" d="M283.2,229.3c0,0,0.1-0.1,0.2-0.2c0.1-0.1,0.4-0.3,0.7-0.5c0.3-0.2,0.7-0.4,1.2-0.5c0.2,0,0.5-0.1,0.8,0
			c0.3,0.1,0.6,0.2,0.8,0.4c0.4,0.4,0.6,0.9,0.7,1.3c0.1,0.4,0.2,0.8,0.2,1.2c0.1,0.7,0,1.1,0,1.1s-0.3-0.4-0.6-1
			c-0.2-0.3-0.3-0.7-0.5-1c-0.1-0.2-0.2-0.4-0.3-0.5c-0.1-0.2-0.2-0.3-0.3-0.4c-0.1-0.1-0.2-0.2-0.3-0.2c-0.1,0-0.1,0-0.2-0.1
			l-0.3,0c-0.2,0-0.4,0-0.5,0c-0.2,0-0.4,0-0.5,0.1c-0.3,0.1-0.6,0.1-0.8,0.1C283.3,229.3,283.2,229.3,283.2,229.3z"/>
	</g>
	<g>
		<path class="st2" d="M279.5,165.6c0,0,0.5-0.6,1.3-1.6c0.4-0.5,0.9-1.1,1.5-1.9c0.6-0.7,1.2-1.6,1.9-2.5c0.7-0.9,1.5-1.9,2.2-3
			c0.8-1.1,1.5-2.2,2.4-3.4c0.8-1.2,1.6-2.4,2.4-3.7c0.8-1.2,1.6-2.6,2.3-3.9c0.7-1.3,1.6-2.6,2.2-3.9c0.7-1.3,1.3-2.7,2-3.9
			c0.7-1.3,1.2-2.5,1.7-3.7c0.5-1.2,1-2.3,1.5-3.4c0.4-1.1,0.7-2.1,1.1-2.9c0.3-0.9,0.6-1.6,0.8-2.3c0.5-1.3,0.7-2,0.7-2
			s-0.2,0.7-0.5,2c-0.2,0.6-0.4,1.4-0.6,2.3c-0.3,0.9-0.5,1.9-0.9,3c-0.4,1.1-0.8,2.2-1.3,3.5c-0.5,1.2-0.9,2.6-1.6,3.8
			c-0.6,1.3-1.3,2.6-1.9,4c-0.6,1.4-1.5,2.7-2.2,4c-0.8,1.3-1.5,2.7-2.4,3.9c-0.8,1.3-1.7,2.5-2.5,3.7c-0.9,1.2-1.7,2.3-2.5,3.3
			c-0.8,1.1-1.6,2-2.3,2.9c-0.7,0.9-1.4,1.7-2.1,2.4c-0.6,0.7-1.2,1.3-1.7,1.7C280,165.1,279.5,165.6,279.5,165.6z"/>
	</g>
	<g>
		<path class="st2" d="M238.3,253c0,0,0.5-0.5,1.2-1.3c0.4-0.4,0.8-0.8,1.1-1.3c0.2-0.2,0.3-0.5,0.4-0.8c0.1-0.1,0.1-0.3,0.1-0.4
			c0-0.1,0.1-0.3,0.1-0.5c0.1-0.3,0.1-0.6,0.1-1c0-0.3,0-0.6,0-1c0-0.6,0-1.2-0.1-1.8c0-1,0-1.8,0-1.8s0.3,0.6,0.6,1.7
			c0.1,0.5,0.3,1.1,0.4,1.8c0.1,0.7,0.1,1.4,0,2.1c0,0.2-0.1,0.4-0.1,0.6c-0.1,0.2-0.1,0.4-0.2,0.5c-0.1,0.2-0.2,0.3-0.3,0.5
			c-0.1,0.2-0.2,0.3-0.3,0.4c-0.2,0.3-0.5,0.5-0.7,0.7c-0.2,0.2-0.5,0.4-0.7,0.5c-0.4,0.3-0.8,0.5-1.1,0.6
			C238.4,252.9,238.3,253,238.3,253z"/>
	</g>
</g>
</svg>
