<svg xmlns="http://www.w3.org/2000/svg" viewBox="0 0 790.79 475.98"><defs><style>.cls-1{fill:gray;stroke:gray;}.cls-1,.cls-2{stroke-linecap:round;stroke-linejoin:bevel;}.cls-2{fill:#f2f2f2;stroke:#f2f2f2;}</style></defs><title>festable-demo-logo</title><g id="Layer_6" data-name="Layer 6"><polygon class="cls-1" points="593.34 431.48 401.9 361.38 409.55 353.69 576.34 415.48 497.86 264.99 504.34 259.48 593.34 431.48"/><polygon class="cls-1" points="575.34 59.48 781.34 475.48 588.18 400.08 583.08 390.09 767.34 462.48 567.86 67 575.34 59.48"/><path class="cls-1" d="M144.5,504.5l-144-70,430-405,145,43Zm-1-12,418-416-129-38-417,393Z" transform="translate(-0.16 -29.02)"/><polygon class="cls-1" points="175.84 458.98 283.34 458.48 492.34 245.48 405.9 228.98 411.84 222.98 506.34 240.48 287.34 465.48 169.34 465.48 175.84 458.98"/></g><g id="Layer_5" data-name="Layer 5"><polygon class="cls-2" points="604.34 431.48 506.34 240.48 285.34 464.48 169.34 465.48 575.34 59.48 781.34 475.48 790.34 475.48 575.34 43.48 144.34 475.48 288.34 475.48 504.34 258.48 593.34 431.48 604.34 431.48"/></g></svg>