<svg id="Layer_1" data-name="Layer 1" xmlns="http://www.w3.org/2000/svg" viewBox="0 0 132.18 63.11"><defs><style>.cls-1{fill:#f0f0f0;}</style></defs><title>arial-demo</title><path class="cls-1" d="M8,52.08l9.9-25.77h3.67L32.13,52.08H28.25l-3-7.81H14.46l-2.83,7.81Zm7.44-10.59h8.73L21.5,34.36Q20.27,31.1,19.67,29a32.68,32.68,0,0,1-1.39,4.93Z" transform="translate(-8.01 -26.31)"/><path class="cls-1" d="M35.32,52.08V33.41h2.84v2.83a7.63,7.63,0,0,1,2-2.62,3.51,3.51,0,0,1,2-.63,6.18,6.18,0,0,1,3.25,1l-1.09,2.93a4.52,4.52,0,0,0-2.32-.68,3,3,0,0,0-1.87.62A3.35,3.35,0,0,0,39,38.61a12.42,12.42,0,0,0-.53,3.69v9.78Z" transform="translate(-8.01 -26.31)"/><path class="cls-1" d="M48.26,30V26.31h3.16V30Zm0,22.13V33.41h3.16V52.08Z" transform="translate(-8.01 -26.31)"/><path class="cls-1" d="M69.32,49.77a11.62,11.62,0,0,1-3.39,2.11,9.73,9.73,0,0,1-3.48.62A6.78,6.78,0,0,1,57.72,51a5,5,0,0,1-1.66-3.85,5.07,5.07,0,0,1,.63-2.5,5.13,5.13,0,0,1,1.63-1.82,7.9,7.9,0,0,1,2.28-1,23.17,23.17,0,0,1,2.81-.47,29.24,29.24,0,0,0,5.64-1.09c0-.43,0-.71,0-.83a3.51,3.51,0,0,0-.89-2.72,5.28,5.28,0,0,0-3.61-1.07,5.58,5.58,0,0,0-3.29.78,4.76,4.76,0,0,0-1.58,2.77l-3.09-.43A7.55,7.55,0,0,1,58,35.53a6,6,0,0,1,2.79-1.88A12.46,12.46,0,0,1,65,33a11.06,11.06,0,0,1,3.88.56A5.14,5.14,0,0,1,71.11,35a5,5,0,0,1,1,2.16A18.78,18.78,0,0,1,72.25,40v4.21a43.21,43.21,0,0,0,.21,5.59,7,7,0,0,0,.8,2.24H70A6.64,6.64,0,0,1,69.32,49.77Zm-.27-7.06a23.19,23.19,0,0,1-5.16,1.19,11.73,11.73,0,0,0-2.76.64,2.7,2.7,0,0,0-1.25,1,2.75,2.75,0,0,0-.44,1.51,2.71,2.71,0,0,0,1,2.11,4.13,4.13,0,0,0,2.8.84,6.55,6.55,0,0,0,3.25-.8A4.93,4.93,0,0,0,68.55,47a7.81,7.81,0,0,0,.5-3.16Z" transform="translate(-8.01 -26.31)"/><path class="cls-1" d="M78,52.08V26.31h3.16V52.08Z" transform="translate(-8.01 -26.31)"/><path class="cls-1" d="M9,86.89V78.3h3.81a5.13,5.13,0,0,1,1.74.23,2,2,0,0,1,1,.82,2.42,2.42,0,0,1,.36,1.3,2.14,2.14,0,0,1-.6,1.54,2.94,2.94,0,0,1-1.82.79,3,3,0,0,1,.68.43,6.52,6.52,0,0,1,.95,1.14l1.49,2.34H15.15L14,85.11c-.33-.52-.6-.91-.82-1.19a2.52,2.52,0,0,0-.57-.57,1.69,1.69,0,0,0-.52-.23,3.26,3.26,0,0,0-.64,0H10.15v3.81Zm1.14-4.8h2.44a3.64,3.64,0,0,0,1.22-.16,1.33,1.33,0,0,0,.67-.51,1.43,1.43,0,0,0,.22-.77,1.28,1.28,0,0,0-.44-1,2.07,2.07,0,0,0-1.4-.39H10.15Z" transform="translate(-8.01 -26.31)"/><path class="cls-1" d="M22.08,84.89l1.09.13a2.71,2.71,0,0,1-1,1.49,2.89,2.89,0,0,1-1.78.52,2.85,2.85,0,0,1-2.17-.84,3.29,3.29,0,0,1-.8-2.36,3.41,3.41,0,0,1,.81-2.43,2.74,2.74,0,0,1,2.1-.87,2.66,2.66,0,0,1,2,.85,3.41,3.41,0,0,1,.79,2.39c0,.06,0,.16,0,.28H18.56a2.38,2.38,0,0,0,.58,1.57,1.74,1.74,0,0,0,1.3.55,1.62,1.62,0,0,0,1-.31A2,2,0,0,0,22.08,84.89Zm-3.46-1.71h3.47A2.1,2.1,0,0,0,21.7,82a1.63,1.63,0,0,0-1.31-.61,1.67,1.67,0,0,0-1.22.48A1.92,1.92,0,0,0,18.62,83.18Z" transform="translate(-8.01 -26.31)"/><path class="cls-1" d="M24.6,87.41l1,.15a.93.93,0,0,0,.36.69,1.72,1.72,0,0,0,1.07.3,1.85,1.85,0,0,0,1.13-.3,1.49,1.49,0,0,0,.54-.82,6.7,6.7,0,0,0,.07-1.35,2.16,2.16,0,0,1-1.72.81,2.35,2.35,0,0,1-2-.92,3.57,3.57,0,0,1-.71-2.22,4.22,4.22,0,0,1,.32-1.65,2.59,2.59,0,0,1,.94-1.16,2.56,2.56,0,0,1,1.44-.41,2.23,2.23,0,0,1,1.81.89v-.75h1v5.38a5.06,5.06,0,0,1-.3,2.06,2.23,2.23,0,0,1-.94,1,3.27,3.27,0,0,1-1.58.35,3,3,0,0,1-1.79-.5A1.72,1.72,0,0,1,24.6,87.41Zm.88-3.74A2.74,2.74,0,0,0,26,85.46a1.61,1.61,0,0,0,2.44,0,3.31,3.31,0,0,0,0-3.48,1.6,1.6,0,0,0-1.23-.58A1.53,1.53,0,0,0,26,82,2.54,2.54,0,0,0,25.48,83.67Z" transform="translate(-8.01 -26.31)"/><path class="cls-1" d="M35.85,86.89V86a2.29,2.29,0,0,1-2,1,2.48,2.48,0,0,1-1-.21,1.68,1.68,0,0,1-.71-.53,1.84,1.84,0,0,1-.33-.78,5.78,5.78,0,0,1-.06-1V80.67h1v3.45a5.37,5.37,0,0,0,.07,1.11,1.06,1.06,0,0,0,.42.66,1.28,1.28,0,0,0,.79.24,1.79,1.79,0,0,0,.9-.25,1.33,1.33,0,0,0,.58-.66A3.2,3.2,0,0,0,35.74,84V80.67h1v6.22Z" transform="translate(-8.01 -26.31)"/><path class="cls-1" d="M38.72,86.89V78.3h1.06v8.59Z" transform="translate(-8.01 -26.31)"/><path class="cls-1" d="M45.77,86.13a4,4,0,0,1-1.13.7,3.41,3.41,0,0,1-1.16.2,2.25,2.25,0,0,1-1.58-.5,1.76,1.76,0,0,1-.34-2.11,1.71,1.71,0,0,1,.55-.61,2.59,2.59,0,0,1,.75-.35,8.89,8.89,0,0,1,.94-.15,9.45,9.45,0,0,0,1.88-.37c0-.14,0-.23,0-.27a1.17,1.17,0,0,0-.3-.91,1.76,1.76,0,0,0-1.2-.36,1.9,1.9,0,0,0-1.1.26,1.57,1.57,0,0,0-.52.93l-1-.14A2.52,2.52,0,0,1,42,81.38a2,2,0,0,1,.93-.63,4.09,4.09,0,0,1,1.41-.22,3.68,3.68,0,0,1,1.3.19,1.68,1.68,0,0,1,.73.47,1.84,1.84,0,0,1,.33.72,6.67,6.67,0,0,1,0,1v1.41a13.75,13.75,0,0,0,.07,1.86,2.26,2.26,0,0,0,.26.74H46A2.18,2.18,0,0,1,45.77,86.13Zm-.09-2.36a7.43,7.43,0,0,1-1.72.4,3.82,3.82,0,0,0-.92.21,1,1,0,0,0-.42.34,1,1,0,0,0-.14.5.9.9,0,0,0,.32.71,1.4,1.4,0,0,0,.93.28,2.18,2.18,0,0,0,1.09-.27,1.67,1.67,0,0,0,.69-.73,2.44,2.44,0,0,0,.17-1Z" transform="translate(-8.01 -26.31)"/><path class="cls-1" d="M48.67,86.89V80.67h.95v.94a2.6,2.6,0,0,1,.67-.87,1.19,1.19,0,0,1,.68-.21,2,2,0,0,1,1.08.34l-.36,1a1.55,1.55,0,0,0-.77-.23,1,1,0,0,0-.62.21,1.12,1.12,0,0,0-.4.57,4.4,4.4,0,0,0-.17,1.23v3.26Z" transform="translate(-8.01 -26.31)"/><path class="cls-1" d="M64,78.3H67.4a9.33,9.33,0,0,1,1.52.09,2.1,2.1,0,0,1,.9.35,2.3,2.3,0,0,1,.66.72,1.89,1.89,0,0,1,.26,1,2,2,0,0,1-1.2,1.87,2.22,2.22,0,0,1,1.2.78,2.07,2.07,0,0,1,.43,1.29,2.59,2.59,0,0,1-.28,1.14,2.32,2.32,0,0,1-.74.89,2.47,2.47,0,0,1-1.16.4c-.29,0-1,0-2.1.06H64Zm1.73,1.43v2h1.14q1,0,1.26,0a1.17,1.17,0,0,0,.7-.31.9.9,0,0,0,.26-.67,1,1,0,0,0-.22-.65,1.07,1.07,0,0,0-.66-.3c-.17,0-.66,0-1.48,0Zm0,3.42v2.3h1.61a7,7,0,0,0,1.19-.06,1,1,0,0,0,.63-.34,1.05,1.05,0,0,0,.24-.73,1.09,1.09,0,0,0-.19-.66,1,1,0,0,0-.54-.39,6,6,0,0,0-1.54-.12Z" transform="translate(-8.01 -26.31)"/><path class="cls-1" d="M72.54,83.69a3.34,3.34,0,0,1,.4-1.58,2.73,2.73,0,0,1,1.15-1.18,3.36,3.36,0,0,1,1.65-.4,3.13,3.13,0,0,1,2.32.92,3.44,3.44,0,0,1,0,4.65,3.08,3.08,0,0,1-2.3.93,3.71,3.71,0,0,1-1.63-.38,2.66,2.66,0,0,1-1.18-1.14A3.77,3.77,0,0,1,72.54,83.69Zm1.68.09a2.08,2.08,0,0,0,.44,1.42,1.41,1.41,0,0,0,1.09.49,1.38,1.38,0,0,0,1.08-.49,2.11,2.11,0,0,0,.44-1.43,2.07,2.07,0,0,0-.44-1.41,1.41,1.41,0,0,0-1.08-.49,1.44,1.44,0,0,0-1.09.49A2.08,2.08,0,0,0,74.22,83.78Z" transform="translate(-8.01 -26.31)"/><path class="cls-1" d="M80.55,86.89V78.3H82.2v8.59Z" transform="translate(-8.01 -26.31)"/><path class="cls-1" d="M89.89,86.89H88.36V86a2.41,2.41,0,0,1-.9.79,2.23,2.23,0,0,1-1,.26,2.35,2.35,0,0,1-1.83-.86,3.52,3.52,0,0,1-.77-2.41,3.46,3.46,0,0,1,.75-2.41,2.41,2.41,0,0,1,1.88-.82,2.31,2.31,0,0,1,1.8.87V78.3h1.65Zm-4.4-3.24a2.89,2.89,0,0,0,.28,1.44,1.25,1.25,0,0,0,1.11.64,1.23,1.23,0,0,0,1-.48,2.2,2.2,0,0,0,.4-1.45,2.43,2.43,0,0,0-.39-1.54,1.24,1.24,0,0,0-1-.47,1.23,1.23,0,0,0-1,.46A2.16,2.16,0,0,0,85.49,83.65Z" transform="translate(-8.01 -26.31)"/><path class="cls-1" d="M102.74,78.3h5a2.7,2.7,0,0,1,1.9.62,2,2,0,0,1,.67,1.52,1.93,1.93,0,0,1-.48,1.31,2.13,2.13,0,0,1-.92.57,2.41,2.41,0,0,1,1.36.77,2.09,2.09,0,0,1,.44,1.36,2.41,2.41,0,0,1-.31,1.2,2.21,2.21,0,0,1-.85.84,2.85,2.85,0,0,1-1,.29c-.6.07-1,.11-1.19.11h-4.58Zm2.68,3.37h1.15a1.33,1.33,0,0,0,.86-.21.76.76,0,0,0,.25-.62.72.72,0,0,0-.25-.59,1.29,1.29,0,0,0-.84-.21h-1.17Zm0,3.38h1.35a1.45,1.45,0,0,0,1-.25.84.84,0,0,0,.28-.65.77.77,0,0,0-.28-.61,1.53,1.53,0,0,0-1-.23h-1.34Z" transform="translate(-8.01 -26.31)"/><path class="cls-1" d="M112.29,78.3h2.39v8.59h-2.39Z" transform="translate(-8.01 -26.31)"/><path class="cls-1" d="M118.68,82.69l-2.28-.24a2.55,2.55,0,0,1,.37-1,2.19,2.19,0,0,1,.7-.59,3.09,3.09,0,0,1,.9-.28,7,7,0,0,1,1.25-.1,9.94,9.94,0,0,1,1.72.12,2.25,2.25,0,0,1,1.08.5,1.68,1.68,0,0,1,.48.75,2.63,2.63,0,0,1,.18.92v2.75a4.07,4.07,0,0,0,0,.69,3.22,3.22,0,0,0,.25.63h-2.24a2.92,2.92,0,0,1-.18-.36c0-.09,0-.22-.08-.4a3.09,3.09,0,0,1-.93.65,3.9,3.9,0,0,1-1.47.25,2.47,2.47,0,0,1-1.69-.51,1.75,1.75,0,0,1-.16-2.44,2.84,2.84,0,0,1,1.53-.68c.9-.18,1.48-.31,1.74-.38a7,7,0,0,0,.85-.28.82.82,0,0,0-.19-.62.93.93,0,0,0-.63-.17,1.7,1.7,0,0,0-.88.18A1,1,0,0,0,118.68,82.69Zm2.07,1.25a10.32,10.32,0,0,1-1,.31,2.52,2.52,0,0,0-.92.38.62.62,0,0,0-.2.44.6.6,0,0,0,.2.46.82.82,0,0,0,.58.18,1.6,1.6,0,0,0,.74-.19,1.17,1.17,0,0,0,.48-.48,1.48,1.48,0,0,0,.15-.72Z" transform="translate(-8.01 -26.31)"/><path class="cls-1" d="M129.45,84.46l2.27.25a3.18,3.18,0,0,1-.62,1.23,2.89,2.89,0,0,1-1.09.81,4.36,4.36,0,0,1-1.69.28,6.39,6.39,0,0,1-1.65-.18,2.84,2.84,0,0,1-1.14-.6,3.06,3.06,0,0,1-.74-1,3.39,3.39,0,0,1-.27-1.47,3.45,3.45,0,0,1,.33-1.6,2.92,2.92,0,0,1,.66-.84,2.87,2.87,0,0,1,.85-.55,4.79,4.79,0,0,1,1.79-.29,4.14,4.14,0,0,1,2.32.54,2.9,2.9,0,0,1,1.12,1.6l-2.24.3a1,1,0,0,0-.38-.6,1.23,1.23,0,0,0-.75-.21,1.21,1.21,0,0,0-1,.43,1.94,1.94,0,0,0-.37,1.28,1.66,1.66,0,0,0,.37,1.17,1.2,1.2,0,0,0,.92.39,1.26,1.26,0,0,0,.79-.24A1.46,1.46,0,0,0,129.45,84.46Z" transform="translate(-8.01 -26.31)"/><path class="cls-1" d="M132.91,78.3h2.43v4.44l1.79-2.07h2.93l-2.23,2.18,2.36,4H137.5l-1.26-2.49-.9.88v1.61h-2.43Z" transform="translate(-8.01 -26.31)"/></svg>