<svg id="Layer_1" data-name="Layer 1" xmlns="http://www.w3.org/2000/svg" viewBox="0 0 139.36 61.79"><defs><style>.cls-1{fill:#f0f0f0;}</style></defs><title>asap-demo</title><path class="cls-1" d="M8.5,52.83a1.46,1.46,0,0,1,.11-.5l8.53-23.65c.14-.39.62-.58,1.44-.58h1c.87,0,1.35.19,1.44.58l8.53,23.68a1.1,1.1,0,0,1,.11.47c0,.41-.51.61-1.55.61h-.28q-1.26,0-1.44-.57L24.3,47H13.72l-2.05,5.91q-.18.57-1.44.57h-.18C9,53.44,8.5,53.24,8.5,52.83Zm14.83-8.6L19.55,33.5a18.53,18.53,0,0,1-.43-2.09h-.07a16,16,0,0,1-.54,2.09L14.73,44.23Z" transform="translate(-8.5 -28.1)"/><path class="cls-1" d="M35.16,53.32a6.94,6.94,0,0,1-2.09-.92c-.52-.36-.78-.68-.78-1a2.39,2.39,0,0,1,.45-1.08q.45-.72.81-.72a3.53,3.53,0,0,1,.69.39,6.83,6.83,0,0,0,1.53.72,6,6,0,0,0,2,.33q3.53,0,3.53-2.92a2.49,2.49,0,0,0-.79-1.94,7.44,7.44,0,0,0-2.81-1.3,8.16,8.16,0,0,1-3.92-2.07,4.9,4.9,0,0,1-1.08-3.33,4.79,4.79,0,0,1,.77-2.7A5.23,5.23,0,0,1,35.62,35a6.8,6.8,0,0,1,3.08-.67,10.87,10.87,0,0,1,3.3.47c1,.31,1.45.67,1.45,1.08A2.6,2.6,0,0,1,43,37.05c-.28.49-.52.73-.74.73-.07,0-.39-.18-.95-.48A5,5,0,0,0,39,36.85a4,4,0,0,0-2.29.61,1.91,1.91,0,0,0-.92,1.66,2.81,2.81,0,0,0,.65,1.94,4.73,4.73,0,0,0,2.16,1.19,17.53,17.53,0,0,1,3.51,1.42,4.29,4.29,0,0,1,1.73,1.73,5.89,5.89,0,0,1,.52,2.68,5,5,0,0,1-.85,2.86,5.8,5.8,0,0,1-2.3,2A7.06,7.06,0,0,1,38,53.7,10.36,10.36,0,0,1,35.16,53.32Z" transform="translate(-8.5 -28.1)"/><path class="cls-1" d="M50.26,52.22a4.87,4.87,0,0,1-1.69-4,5.21,5.21,0,0,1,1.71-4.27,8.49,8.49,0,0,1,4.19-1.83,39,39,0,0,1,6.05-.45v-1.7a2.81,2.81,0,0,0-.94-2.17,4.39,4.39,0,0,0-3-.85,9.3,9.3,0,0,0-2.78.38,16.12,16.12,0,0,0-2,.75,5,5,0,0,1-.86.38q-.36,0-.81-.72a2.39,2.39,0,0,1-.45-1.08c0-.31.32-.65,1-1a10,10,0,0,1,2.54-.91,13.69,13.69,0,0,1,3.28-.38,8.21,8.21,0,0,1,5.22,1.49A5,5,0,0,1,63.54,40V48a18.07,18.07,0,0,0,.22,3.41c.14.68.21,1.06.21,1.13,0,.29-.23.5-.68.63a4.69,4.69,0,0,1-1.26.2.78.78,0,0,1-.74-.56,5.68,5.68,0,0,1-.36-1.17c-.08-.41-.14-.67-.16-.79a7.84,7.84,0,0,1-6.05,2.7A6.87,6.87,0,0,1,50.26,52.22Zm7.65-1.91a12.47,12.47,0,0,0,2.61-1.83V44.23q-2.7,0-4.41.21a7,7,0,0,0-3,1A2.84,2.84,0,0,0,51.8,48a2.9,2.9,0,0,0,.78,2.19,3.11,3.11,0,0,0,2.28.76A6.73,6.73,0,0,0,57.91,50.31Z" transform="translate(-8.5 -28.1)"/><path class="cls-1" d="M70.42,60.07V40a18.07,18.07,0,0,0-.22-3.41c-.14-.68-.21-1.06-.21-1.13,0-.29.22-.5.68-.63a4.69,4.69,0,0,1,1.26-.2.79.79,0,0,1,.74.52,6.74,6.74,0,0,1,.36,1.1c.08.39.14.64.16.76a7.82,7.82,0,0,1,5.72-2.7,5.88,5.88,0,0,1,3.77,1.24A7.8,7.8,0,0,1,85.07,39a14,14,0,0,1,.83,5A13.36,13.36,0,0,1,85,49.2a7.19,7.19,0,0,1-2.57,3.27,6.65,6.65,0,0,1-3.82,1.12,7.69,7.69,0,0,1-2.79-.47,9.38,9.38,0,0,1-2.36-1.37v8.32c0,.53-.48.79-1.44.79h-.14C70.9,60.86,70.42,60.6,70.42,60.07ZM81.51,49.2a8.6,8.6,0,0,0,1.22-5,10.37,10.37,0,0,0-1.15-5.38A3.64,3.64,0,0,0,78.3,37a5.53,5.53,0,0,0-2.5.64,8.45,8.45,0,0,0-2.36,1.84V49.3a6.8,6.8,0,0,0,4.47,1.62A4.14,4.14,0,0,0,81.51,49.2Z" transform="translate(-8.5 -28.1)"/><path class="cls-1" d="M9.23,87.11v-7.8A.3.3,0,0,1,9.59,79h2a3.74,3.74,0,0,1,2.16.51,1.82,1.82,0,0,1,.73,1.61,2.13,2.13,0,0,1-.36,1.26,2.24,2.24,0,0,1-1,.77v.05a1.13,1.13,0,0,1,.58.47,5.21,5.21,0,0,1,.5,1L15.13,87a.45.45,0,0,1,0,.17c0,.13-.17.19-.5.19h-.12a1,1,0,0,1-.32-.05c-.08,0-.14-.08-.16-.14l-.92-2.35a1.72,1.72,0,0,0-.66-.93,2.07,2.07,0,0,0-1.12-.25H10.29v3.46c0,.17-.16.26-.48.26h-.1C9.39,87.37,9.23,87.28,9.23,87.11Zm2.64-4.37a1.55,1.55,0,0,0,.77-.2A1.53,1.53,0,0,0,13.2,82a1.38,1.38,0,0,0,.21-.74A1.26,1.26,0,0,0,13,80.21a1.82,1.82,0,0,0-1.18-.35h-1.5v2.88Z" transform="translate(-8.5 -28.1)"/><path class="cls-1" d="M17.07,86.64a3.43,3.43,0,0,1-.72-2.39,3.64,3.64,0,0,1,.7-2.42A2.62,2.62,0,0,1,19.14,81a2.21,2.21,0,0,1,1.85.8,3.7,3.7,0,0,1,.62,2.33.55.55,0,0,1-.14.3c-.1.13-.18.19-.25.19H17.43a2.31,2.31,0,0,0,.51,1.47,1.77,1.77,0,0,0,1.33.47,2.75,2.75,0,0,0,.87-.13,4.21,4.21,0,0,0,.61-.25,1,1,0,0,1,.28-.13q.12,0,.27.24a.8.8,0,0,1,.15.36c0,.1-.11.21-.3.33a2.62,2.62,0,0,1-.8.31,4.05,4.05,0,0,1-1.06.13A2.88,2.88,0,0,1,17.07,86.64Zm3.48-2.88c0-1.26-.48-1.9-1.44-1.9s-1.6.64-1.68,1.9Z" transform="translate(-8.5 -28.1)"/><path class="cls-1" d="M23.67,89.53A1.19,1.19,0,0,1,23,88.4a1.44,1.44,0,0,1,.3-.91,2,2,0,0,1,.79-.59v0a1.2,1.2,0,0,1-.48-1,1.44,1.44,0,0,1,.67-1.25,1.87,1.87,0,0,1-.77-.7,2,2,0,0,1-.26-1,1.82,1.82,0,0,1,.62-1.41A2.54,2.54,0,0,1,25.63,81a3.11,3.11,0,0,1,.71.07h2.19a.19.19,0,0,1,.18.09.45.45,0,0,1,.06.27v.15a.47.47,0,0,1-.06.27.19.19,0,0,1-.18.09c-.33,0-.61,0-.84,0l0,0A1.78,1.78,0,0,1,28,83a1.82,1.82,0,0,1-.62,1.41,2.53,2.53,0,0,1-1.75.55,1.52,1.52,0,0,0-.85.2.71.71,0,0,0-.29.63.6.6,0,0,0,.2.48,1.36,1.36,0,0,0,.5.23,6.88,6.88,0,0,0,.84.13l.39,0a3.38,3.38,0,0,1,1.34.4,1.12,1.12,0,0,1,.48,1,1.53,1.53,0,0,1-.7,1.34,3.6,3.6,0,0,1-2,.47A3.87,3.87,0,0,1,23.67,89.53Zm3.19-.67a.71.71,0,0,0,.41-.67.57.57,0,0,0-.4-.57,5.4,5.4,0,0,0-1.19-.22,5.22,5.22,0,0,1-1-.16,1.06,1.06,0,0,0-.79,1q0,.87,1.71.87A2.74,2.74,0,0,0,26.86,88.86Zm-.19-5a1,1,0,0,0,.39-.88q0-1.17-1.44-1.17c-.95,0-1.43.39-1.43,1.17s.48,1.15,1.43,1.15A1.82,1.82,0,0,0,26.67,83.85Z" transform="translate(-8.5 -28.1)"/><path class="cls-1" d="M30.73,86.9a1.9,1.9,0,0,1-.53-1.42V81.31c0-.17.16-.26.48-.26h.05c.32,0,.48.09.48.26v4.07a1.15,1.15,0,0,0,.32.86,1.26,1.26,0,0,0,.91.3,1.65,1.65,0,0,0,.81-.22,2.56,2.56,0,0,0,.7-.62V81.31c0-.17.16-.26.48-.26h0c.32,0,.48.09.48.26v4.26A6.14,6.14,0,0,0,35,86.71a3.29,3.29,0,0,1,.07.37c0,.1-.08.17-.23.21a1.32,1.32,0,0,1-.42.07.25.25,0,0,1-.24-.19,1.61,1.61,0,0,1-.12-.39L34,86.52a2.79,2.79,0,0,1-.87.66,2.26,2.26,0,0,1-1,.24A1.9,1.9,0,0,1,30.73,86.9Z" transform="translate(-8.5 -28.1)"/><path class="cls-1" d="M37.75,87.05a1.52,1.52,0,0,1-.48-1.29V78.59q0-.27.48-.27h0q.48,0,.48.27v7.08a1,1,0,0,0,.18.69.59.59,0,0,0,.47.2,1.4,1.4,0,0,0,.34,0l.18,0c.07,0,.13.07.18.22a1.56,1.56,0,0,1,.07.34c0,.24-.29.36-.88.36A1.66,1.66,0,0,1,37.75,87.05Z" transform="translate(-8.5 -28.1)"/><path class="cls-1" d="M41.3,87a1.63,1.63,0,0,1-.56-1.34,1.73,1.73,0,0,1,.57-1.42,2.84,2.84,0,0,1,1.4-.61,11.45,11.45,0,0,1,2-.15v-.57a.91.91,0,0,0-.31-.72,1.46,1.46,0,0,0-1-.29,3.16,3.16,0,0,0-.93.13,5.83,5.83,0,0,0-.66.25l-.29.13q-.12,0-.27-.24a.8.8,0,0,1-.15-.36c0-.11.11-.22.32-.34a3.2,3.2,0,0,1,.85-.3A4.34,4.34,0,0,1,43.37,81a2.75,2.75,0,0,1,1.74.5,1.65,1.65,0,0,1,.62,1.38v2.69a7.19,7.19,0,0,0,.07,1.14c.05.22.08.35.08.37s-.08.17-.23.21a1.32,1.32,0,0,1-.42.07.26.26,0,0,1-.25-.19,2.22,2.22,0,0,1-.12-.39c0-.13,0-.22,0-.26a2.63,2.63,0,0,1-2,.9A2.29,2.29,0,0,1,41.3,87Zm2.56-.63a4.42,4.42,0,0,0,.86-.61V84.3c-.59,0-1.09,0-1.46.07a2.25,2.25,0,0,0-1,.34,1,1,0,0,0-.43.85,1,1,0,0,0,.26.73,1,1,0,0,0,.76.25A2.32,2.32,0,0,0,43.86,86.33Z" transform="translate(-8.5 -28.1)"/><path class="cls-1" d="M48.07,87.11V82.9A6.14,6.14,0,0,0,48,81.76a3.24,3.24,0,0,1-.07-.38c0-.09.07-.16.23-.21a1.64,1.64,0,0,1,.42-.06.25.25,0,0,1,.24.17,2.29,2.29,0,0,1,.12.37l.06.25a1.74,1.74,0,0,1,1.39-.9,1,1,0,0,1,.52.13.4.4,0,0,1,.17.34,1.23,1.23,0,0,1-.07.42c0,.15-.1.23-.17.23a1.19,1.19,0,0,1-.23-.07,1.33,1.33,0,0,0-.43-.07,1,1,0,0,0-.52.17,1.76,1.76,0,0,0-.41.35,1.08,1.08,0,0,0-.17.22v4.39c0,.17-.16.26-.48.26h-.05C48.23,87.37,48.07,87.28,48.07,87.11Z" transform="translate(-8.5 -28.1)"/><path class="cls-1" d="M62.83,87.26a2.91,2.91,0,0,1-1-.42c-.2-.15-.3-.28-.3-.4a1,1,0,0,1,.24-.57c.16-.23.29-.35.39-.35a.86.86,0,0,1,.3.14,6.5,6.5,0,0,0,.74.31,2.66,2.66,0,0,0,.84.12,1.52,1.52,0,0,0,.9-.26.87.87,0,0,0,.37-.77.8.8,0,0,0-.19-.55,1.53,1.53,0,0,0-.46-.37c-.18-.1-.44-.22-.77-.36l-.42-.18a4.87,4.87,0,0,1-.92-.51,2.06,2.06,0,0,1-.61-.72,2.48,2.48,0,0,1-.24-1.15,2.16,2.16,0,0,1,.37-1.29,2.25,2.25,0,0,1,1-.8,3.52,3.52,0,0,1,1.39-.27,4.42,4.42,0,0,1,1,.12,2,2,0,0,1,.78.33c.17.12.26.24.26.36a1.18,1.18,0,0,1-.21.56c-.13.22-.25.34-.36.34a.55.55,0,0,1-.19-.06,1.21,1.21,0,0,1-.2-.1,2.69,2.69,0,0,0-1-.2,1.49,1.49,0,0,0-1,.26.82.82,0,0,0-.3.65.88.88,0,0,0,.18.57A1.16,1.16,0,0,0,64,82c.18.09.44.2.78.34a8.66,8.66,0,0,1,1.13.54,2.47,2.47,0,0,1,.76.75A2.24,2.24,0,0,1,67,84.91a2.31,2.31,0,0,1-.77,1.89,2.92,2.92,0,0,1-1.92.63A5.19,5.19,0,0,1,62.83,87.26Z" transform="translate(-8.5 -28.1)"/><path class="cls-1" d="M68.84,86.61a3.38,3.38,0,0,1-.75-2.36,3.52,3.52,0,0,1,.75-2.46A2.77,2.77,0,0,1,71,81a2.25,2.25,0,0,1,1.92.84,3.69,3.69,0,0,1,.63,2.27.71.71,0,0,1-.21.37c-.15.17-.26.25-.33.25H69.66a1.72,1.72,0,0,0,.44,1.15,1.58,1.58,0,0,0,1.1.35,2.88,2.88,0,0,0,1.32-.34.9.9,0,0,1,.24-.08c.1,0,.22.11.35.32a1.08,1.08,0,0,1,.2.48c0,.16-.12.3-.35.42a3,3,0,0,1-.86.3,4.14,4.14,0,0,1-.95.11A3,3,0,0,1,68.84,86.61Zm3.17-3a1.86,1.86,0,0,0-.27-1.07.92.92,0,0,0-.8-.38c-.74,0-1.17.48-1.28,1.45Z" transform="translate(-8.5 -28.1)"/><path class="cls-1" d="M83.64,82.93V87c0,.24-.21.35-.64.35h-.24c-.42,0-.63-.11-.63-.35V83.14a.78.78,0,0,0-.87-.89,1.07,1.07,0,0,0-.67.23,2.12,2.12,0,0,0-.45.51v4c0,.24-.22.35-.64.35h-.23a1.12,1.12,0,0,1-.48-.08.29.29,0,0,1-.15-.27V83.14a.78.78,0,0,0-.87-.89,1,1,0,0,0-.71.26,1.75,1.75,0,0,0-.42.48v4c0,.24-.21.35-.63.35h-.24c-.43,0-.64-.11-.64-.35V83.09a6.73,6.73,0,0,0-.07-1.18,3.28,3.28,0,0,1-.07-.45c0-.12.13-.2.39-.26a3.28,3.28,0,0,1,.71-.09.28.28,0,0,1,.28.17,1.45,1.45,0,0,1,.12.35l.06.26a2.58,2.58,0,0,1,.78-.64,2,2,0,0,1,1-.26,1.54,1.54,0,0,1,1.62.93,2.71,2.71,0,0,1,.82-.66,2.16,2.16,0,0,1,1-.27C83,81,83.64,81.64,83.64,82.93Z" transform="translate(-8.5 -28.1)"/><path class="cls-1" d="M85.6,79.78V79c0-.27.26-.4.78-.4s.75.13.75.4v.78a.33.33,0,0,1-.18.3,1.51,1.51,0,0,1-.6.09Q85.6,80.17,85.6,79.78Zm0,7.24V81.4c0-.24.21-.35.63-.35h.24c.43,0,.64.11.64.35V87c0,.24-.21.35-.64.35h-.24C85.82,87.37,85.61,87.26,85.61,87Z" transform="translate(-8.5 -28.1)"/><path class="cls-1" d="M89.35,87.24a.46.46,0,0,1-.11-.34V79.39a.46.46,0,0,1,.11-.34.48.48,0,0,1,.34-.1H92a3.22,3.22,0,0,1,2.09.57,1.91,1.91,0,0,1,.69,1.55,1.83,1.83,0,0,1-.37,1.11,2.14,2.14,0,0,1-.93.72v0a1.87,1.87,0,0,1,.73.33,2.16,2.16,0,0,1,.65.69,1.82,1.82,0,0,1,.26,1,2.16,2.16,0,0,1-.77,1.81,3.58,3.58,0,0,1-2.28.62H89.69A.48.48,0,0,1,89.35,87.24Zm2.5-4.85a1.41,1.41,0,0,0,.94-.3,1,1,0,0,0,.35-.78c0-.69-.43-1-1.29-1h-1v2.11ZM92.2,86a1.42,1.42,0,0,0,1-.3,1.15,1.15,0,0,0,.33-.87,1,1,0,0,0-.38-.81A1.86,1.86,0,0,0,92,83.74H90.82V86Z" transform="translate(-8.5 -28.1)"/><path class="cls-1" d="M97,86.6a3.46,3.46,0,0,1-.73-2.38,3.5,3.5,0,0,1,.73-2.4A2.68,2.68,0,0,1,99.1,81a2.63,2.63,0,0,1,2.11.83,4.29,4.29,0,0,1,0,4.79,3.15,3.15,0,0,1-4.25,0Zm3.11-.88a2.8,2.8,0,0,0,.32-1.52,2.74,2.74,0,0,0-.32-1.5,1.09,1.09,0,0,0-1-.5,1.1,1.1,0,0,0-1,.5,2.73,2.73,0,0,0-.33,1.5,2.79,2.79,0,0,0,.33,1.52,1.1,1.1,0,0,0,1,.5A1.09,1.09,0,0,0,100.07,85.72Z" transform="translate(-8.5 -28.1)"/><path class="cls-1" d="M104.09,87a1.82,1.82,0,0,1-.46-1.39V78.65c0-.23.21-.34.64-.34h.23c.42,0,.63.11.63.34v6.92a.81.81,0,0,0,.13.5.5.5,0,0,0,.39.15l.23,0,.15,0c.1,0,.18.1.24.31a1.48,1.48,0,0,1,.1.45c0,.33-.35.5-1.06.5A1.65,1.65,0,0,1,104.09,87Z" transform="translate(-8.5 -28.1)"/><path class="cls-1" d="M108.29,87a2.55,2.55,0,0,1-.81-1.11,4.75,4.75,0,0,1-.28-1.73,3.69,3.69,0,0,1,.67-2.35A2.19,2.19,0,0,1,109.7,81a2.26,2.26,0,0,1,1.4.45V78.65c0-.23.21-.34.63-.34H112c.43,0,.64.11.64.34v6.71a6.86,6.86,0,0,0,.07,1.19,3.33,3.33,0,0,1,.07.46c0,.12-.13.2-.39.26a3.28,3.28,0,0,1-.71.09.3.3,0,0,1-.28-.17,1.68,1.68,0,0,1-.12-.38l-.06-.28a2,2,0,0,1-.74.66,2,2,0,0,1-1,.24A1.91,1.91,0,0,1,108.29,87Zm2.81-1.61V82.55a1.78,1.78,0,0,0-1.06-.34c-.86,0-1.3.66-1.3,2a3.09,3.09,0,0,0,.29,1.49.93.93,0,0,0,.87.51A1.5,1.5,0,0,0,111.1,85.43Z" transform="translate(-8.5 -28.1)"/><path class="cls-1" d="M124.3,87.23a.46.46,0,0,1-.11-.36V79.43a.5.5,0,0,1,.11-.37.54.54,0,0,1,.37-.11H127a3.38,3.38,0,0,1,2.15.56,1.92,1.92,0,0,1,.69,1.56,1.84,1.84,0,0,1-.37,1.1,2.22,2.22,0,0,1-.93.73v0a2,2,0,0,1,1.17.71,2,2,0,0,1,.45,1.26,2.23,2.23,0,0,1-.75,1.81,3.43,3.43,0,0,1-2.25.63h-2.54A.5.5,0,0,1,124.3,87.23Zm2.56-4.93a1.23,1.23,0,0,0,.83-.26.81.81,0,0,0,.29-.64c0-.6-.37-.89-1.09-.89H126V82.3Zm.35,3.48a1.2,1.2,0,0,0,.82-.26.89.89,0,0,0,.29-.72.81.81,0,0,0-.34-.7,1.72,1.72,0,0,0-1-.23h-1v1.91Z" transform="translate(-8.5 -28.1)"/><path class="cls-1" d="M131.94,86.61a4.23,4.23,0,0,1,0-4.81,3.28,3.28,0,0,1,4.34,0,4.33,4.33,0,0,1,0,4.81,3.25,3.25,0,0,1-4.34,0Zm3-1a2.81,2.81,0,0,0,.27-1.38,2.72,2.72,0,0,0-.27-1.36.88.88,0,0,0-.83-.46.9.9,0,0,0-.84.46A2.71,2.71,0,0,0,133,84.2c0,1.23.38,1.84,1.12,1.84A.88.88,0,0,0,134.94,85.58Z" transform="translate(-8.5 -28.1)"/><path class="cls-1" d="M138.57,85.5V78.68c0-.25.24-.38.72-.38h.34c.48,0,.72.13.72.38v6.84a.6.6,0,0,0,.1.4.42.42,0,0,0,.33.12l.16,0,.17,0c.07,0,.13.06.19.18a2.09,2.09,0,0,1,.13.4,1.91,1.91,0,0,1,0,.29c0,.39-.39.58-1.15.58C139.16,87.44,138.57,86.8,138.57,85.5Z" transform="translate(-8.5 -28.1)"/><path class="cls-1" d="M143.27,87.07a2.61,2.61,0,0,1-.8-1.11,4.89,4.89,0,0,1-.28-1.76,3.79,3.79,0,0,1,.66-2.35,2.23,2.23,0,0,1,1.87-.87,2,2,0,0,1,1.22.37V78.68c0-.25.24-.38.72-.38H147c.48,0,.72.13.72.38v6.56q0,.54,0,.84c0,.19,0,.4.08.63a1.48,1.48,0,0,1,0,.27c0,.12-.16.22-.48.28a4.13,4.13,0,0,1-.86.1.3.3,0,0,1-.3-.17,1.55,1.55,0,0,1-.13-.38c0-.13,0-.22-.05-.27a1.73,1.73,0,0,1-.64.65,1.87,1.87,0,0,1-1,.25A1.91,1.91,0,0,1,143.27,87.07Zm2.67-1.79V82.61a1.71,1.71,0,0,0-.84-.23c-.74,0-1.11.61-1.11,1.82s.32,1.79,1,1.79A1.15,1.15,0,0,0,145.94,85.28Z" transform="translate(-8.5 -28.1)"/></svg>