<svg id="Layer_1" data-name="Layer 1" xmlns="http://www.w3.org/2000/svg" viewBox="0 0 109.48 62.4"><defs><style>.cls-1{fill:#f0f0f0;}</style></defs><title>lato-demo</title><path class="cls-1" d="M14.69,49.9H25.85v2.93H11.2V27h3.49Z" transform="translate(-9.33 -27.04)"/><path class="cls-1" d="M43.49,52.83H42.07a1.81,1.81,0,0,1-.76-.14.81.81,0,0,1-.38-.61l-.36-1.7c-.48.44-.94.82-1.4,1.17a8.18,8.18,0,0,1-1.44.86,7.6,7.6,0,0,1-1.61.53,9.22,9.22,0,0,1-1.9.18,6.43,6.43,0,0,1-2-.3,4.51,4.51,0,0,1-1.61-.89,4.22,4.22,0,0,1-1.09-1.51,5.3,5.3,0,0,1-.4-2.16,4,4,0,0,1,.59-2.08,5.13,5.13,0,0,1,1.92-1.78,12.26,12.26,0,0,1,3.46-1.28,23.74,23.74,0,0,1,5.24-.49V41.2A5,5,0,0,0,39.43,38a3.29,3.29,0,0,0-2.69-1.09,5.89,5.89,0,0,0-2,.29,7.2,7.2,0,0,0-1.39.67l-1,.67a1.49,1.49,0,0,1-.83.29.92.92,0,0,1-.57-.17,1.31,1.31,0,0,1-.39-.42l-.57-1A10.42,10.42,0,0,1,33.27,35a10,10,0,0,1,3.87-.72,6.79,6.79,0,0,1,2.71.51,5.43,5.43,0,0,1,2,1.4,6,6,0,0,1,1.23,2.18,9.26,9.26,0,0,1,.41,2.81Zm-8.32-2a6.75,6.75,0,0,0,1.55-.17A5.79,5.79,0,0,0,38,50.21a6.84,6.84,0,0,0,1.19-.76,9.61,9.61,0,0,0,1.11-1V44.66a21.14,21.14,0,0,0-3.76.28,10.8,10.8,0,0,0-2.52.73,3.65,3.65,0,0,0-1.42,1.07,2.34,2.34,0,0,0-.44,1.38,3,3,0,0,0,.24,1.25,2.29,2.29,0,0,0,.63.86,2.58,2.58,0,0,0,.93.49A4.36,4.36,0,0,0,35.17,50.87Z" transform="translate(-9.33 -27.04)"/><path class="cls-1" d="M54.77,53.12a4.38,4.38,0,0,1-3.32-1.21,4.82,4.82,0,0,1-1.16-3.47V37.28H48.1a.73.73,0,0,1-.49-.17.66.66,0,0,1-.2-.53V35.3l3-.38.74-5.63a.66.66,0,0,1,.23-.44.72.72,0,0,1,.51-.17H53.5V35h5.22v2.32H53.5V48.22a2.33,2.33,0,0,0,.55,1.71,1.94,1.94,0,0,0,1.44.56,2.59,2.59,0,0,0,.88-.13,3.82,3.82,0,0,0,.64-.3l.46-.3a.56.56,0,0,1,.33-.13.55.55,0,0,1,.45.3l.93,1.53a5.8,5.8,0,0,1-2,1.22A6.91,6.91,0,0,1,54.77,53.12Z" transform="translate(-9.33 -27.04)"/><path class="cls-1" d="M71,34.31a9.29,9.29,0,0,1,3.61.67,7.52,7.52,0,0,1,2.73,1.89,8.27,8.27,0,0,1,1.73,3,12.85,12.85,0,0,1,0,7.76,8.35,8.35,0,0,1-1.73,3,7.62,7.62,0,0,1-2.73,1.88,10.35,10.35,0,0,1-7.22,0,7.7,7.7,0,0,1-2.75-1.88,8.37,8.37,0,0,1-1.74-3,12.45,12.45,0,0,1,0-7.76,8.29,8.29,0,0,1,1.74-3A7.6,7.6,0,0,1,67.35,35,9.22,9.22,0,0,1,71,34.31Zm0,16.27a4.67,4.67,0,0,0,4-1.81,8.35,8.35,0,0,0,1.33-5.05A8.42,8.42,0,0,0,75,38.65a4.68,4.68,0,0,0-4-1.82,5.61,5.61,0,0,0-2.38.47,4.42,4.42,0,0,0-1.68,1.35,6,6,0,0,0-1,2.17,12.91,12.91,0,0,0,0,5.8,5.87,5.87,0,0,0,1,2.15,4.39,4.39,0,0,0,1.68,1.34A5.46,5.46,0,0,0,71,50.58Z" transform="translate(-9.33 -27.04)"/><path class="cls-1" d="M9.94,86.69h4v.53H9.33V78.73h.61Z" transform="translate(-9.33 -27.04)"/><path class="cls-1" d="M16.47,79.19a.46.46,0,0,1,0,.2.48.48,0,0,1-.12.16.43.43,0,0,1-.17.12.52.52,0,0,1-.4,0,.52.52,0,0,1-.17-.12.36.36,0,0,1-.11-.16.46.46,0,0,1,0-.2.54.54,0,0,1,0-.21.45.45,0,0,1,.11-.17.39.39,0,0,1,.17-.11.42.42,0,0,1,.4,0,.34.34,0,0,1,.17.11.66.66,0,0,1,.12.17A.54.54,0,0,1,16.47,79.19Zm-.26,2.06v6h-.57v-6Z" transform="translate(-9.33 -27.04)"/><path class="cls-1" d="M20.59,81.15a2.86,2.86,0,0,1,.73.09,2.13,2.13,0,0,1,.59.27h1.53v.2c0,.1-.05.15-.16.16l-.91.07a1.75,1.75,0,0,1,.26.51,2,2,0,0,1,.09.61,1.78,1.78,0,0,1-.16.78,1.65,1.65,0,0,1-.43.6,1.94,1.94,0,0,1-.67.39,2.65,2.65,0,0,1-.87.14,2.52,2.52,0,0,1-.93-.16,1.36,1.36,0,0,0-.4.34.69.69,0,0,0-.14.39.46.46,0,0,0,.18.39,1.19,1.19,0,0,0,.47.2,3.43,3.43,0,0,0,.68.08l.78,0c.26,0,.52,0,.77.08a2.34,2.34,0,0,1,.68.19,1.2,1.2,0,0,1,.48.38,1,1,0,0,1,.18.64,1.48,1.48,0,0,1-.19.71,1.82,1.82,0,0,1-.54.61,2.6,2.6,0,0,1-.85.42,3.5,3.5,0,0,1-1.11.16,4.13,4.13,0,0,1-1.11-.13,2.61,2.61,0,0,1-.79-.34,1.57,1.57,0,0,1-.49-.51,1.32,1.32,0,0,1-.16-.61,1.17,1.17,0,0,1,.32-.82,2,2,0,0,1,.85-.53,1,1,0,0,1-.47-.29.77.77,0,0,1-.18-.54.63.63,0,0,1,.05-.26,1.16,1.16,0,0,1,.14-.27,1.86,1.86,0,0,1,.23-.26,1.48,1.48,0,0,1,.32-.21,1.84,1.84,0,0,1-.67-.66,2.09,2.09,0,0,1-.08-1.73,1.78,1.78,0,0,1,.43-.61,2.05,2.05,0,0,1,.68-.39A2.65,2.65,0,0,1,20.59,81.15Zm2.22,6.47a.64.64,0,0,0-.15-.45.91.91,0,0,0-.39-.27,3,3,0,0,0-.57-.14L21,86.71l-.71,0c-.23,0-.45,0-.66-.07a2.74,2.74,0,0,0-.42.21,1.23,1.23,0,0,0-.33.26,1.31,1.31,0,0,0-.22.32,1,1,0,0,0-.08.39.93.93,0,0,0,.14.49,1.21,1.21,0,0,0,.39.39,2.2,2.2,0,0,0,.64.26,3.75,3.75,0,0,0,1.72,0,2.7,2.7,0,0,0,.69-.29,1.61,1.61,0,0,0,.45-.45A1,1,0,0,0,22.81,87.62Zm-2.22-3a2.08,2.08,0,0,0,.69-.11,1.47,1.47,0,0,0,.5-.31,1.28,1.28,0,0,0,.31-.48,1.66,1.66,0,0,0,.11-.61,1.7,1.7,0,0,0-.11-.61,1.35,1.35,0,0,0-.32-.48,1.41,1.41,0,0,0-.5-.31,2.07,2.07,0,0,0-.68-.1,2,2,0,0,0-.67.1,1.45,1.45,0,0,0-.51.31,1.35,1.35,0,0,0-.32.48,1.7,1.7,0,0,0-.1.61,1.66,1.66,0,0,0,.1.61,1.44,1.44,0,0,0,.32.48,1.62,1.62,0,0,0,.51.31A2,2,0,0,0,20.59,84.58Z" transform="translate(-9.33 -27.04)"/><path class="cls-1" d="M25,87.22V78.49h.57v3.78a3.47,3.47,0,0,1,.94-.82,2.39,2.39,0,0,1,1.19-.3,2.14,2.14,0,0,1,.87.16,1.49,1.49,0,0,1,.62.45,1.81,1.81,0,0,1,.37.7,3.05,3.05,0,0,1,.13.94v3.82H29.1V83.4a2.09,2.09,0,0,0-.38-1.32,1.45,1.45,0,0,0-1.18-.47,2.08,2.08,0,0,0-1.09.3,3.07,3.07,0,0,0-.9.83v4.48Z" transform="translate(-9.33 -27.04)"/><path class="cls-1" d="M33.4,87.31a1.31,1.31,0,0,1-.95-.33,1.44,1.44,0,0,1-.33-1V81.86h-.86a.15.15,0,0,1-.11,0,.12.12,0,0,1,0-.1V81.5l1-.07.14-2.14a.19.19,0,0,1,0-.1.15.15,0,0,1,.1,0h.27v2.28h1.88v.43H32.69v4a1.33,1.33,0,0,0,.06.42.75.75,0,0,0,.44.46.83.83,0,0,0,.32,0,1,1,0,0,0,.37-.06,1.13,1.13,0,0,0,.27-.14l.19-.13c0-.05.08-.07.11-.07a.14.14,0,0,1,.1.06l.15.25a1.61,1.61,0,0,1-.57.41A1.87,1.87,0,0,1,33.4,87.31Z" transform="translate(-9.33 -27.04)"/><path class="cls-1" d="M45.55,83.63v3.59H44.39v-8.6h2.43a5.37,5.37,0,0,1,1.41.16,2.72,2.72,0,0,1,1,.48,1.88,1.88,0,0,1,.57.75A2.46,2.46,0,0,1,50,81a2.37,2.37,0,0,1-.15.85,2.1,2.1,0,0,1-.41.71,2.74,2.74,0,0,1-.67.54,3.36,3.36,0,0,1-.89.34,1.17,1.17,0,0,1,.38.36l2.51,3.42h-1a.53.53,0,0,1-.47-.25L47,83.9a.62.62,0,0,0-.22-.21.84.84,0,0,0-.36-.06Zm0-.85h1.21a3.06,3.06,0,0,0,.9-.12,1.84,1.84,0,0,0,.65-.35,1.5,1.5,0,0,0,.39-.54,1.65,1.65,0,0,0,.13-.68,1.38,1.38,0,0,0-.5-1.16,2.45,2.45,0,0,0-1.51-.39H45.55Z" transform="translate(-9.33 -27.04)"/><path class="cls-1" d="M54.53,81a2.56,2.56,0,0,1,1,.19,2.17,2.17,0,0,1,.8.52,2.39,2.39,0,0,1,.52.86,3.15,3.15,0,0,1,.19,1.15.68.68,0,0,1,0,.34.23.23,0,0,1-.2.08h-4a3.22,3.22,0,0,0,.16,1,2,2,0,0,0,.39.71,1.58,1.58,0,0,0,.6.43,2.21,2.21,0,0,0,.78.14,2.43,2.43,0,0,0,.7-.09,3.46,3.46,0,0,0,.5-.2l.35-.2a.4.4,0,0,1,.24-.1.27.27,0,0,1,.21.1l.3.39a2.16,2.16,0,0,1-.48.42,2.49,2.49,0,0,1-.59.29,3,3,0,0,1-.65.17,3.79,3.79,0,0,1-.67.06,3.15,3.15,0,0,1-1.16-.21,2.52,2.52,0,0,1-.92-.63,3,3,0,0,1-.6-1,4.29,4.29,0,0,1-.21-1.4,3.48,3.48,0,0,1,.19-1.18,2.86,2.86,0,0,1,.56-1,2.68,2.68,0,0,1,.9-.64A3,3,0,0,1,54.53,81Zm0,.79a1.64,1.64,0,0,0-1.22.45,2,2,0,0,0-.55,1.23h3.3a2.15,2.15,0,0,0-.1-.68,1.62,1.62,0,0,0-.3-.53,1.3,1.3,0,0,0-.48-.35A1.67,1.67,0,0,0,54.56,81.83Z" transform="translate(-9.33 -27.04)"/><path class="cls-1" d="M60.76,81a3.43,3.43,0,0,1,.74.08,2.53,2.53,0,0,1,.63.26h1.65v.39c0,.14-.08.22-.25.26l-.69.09a2,2,0,0,1,0,1.68,1.79,1.79,0,0,1-.47.62,2.52,2.52,0,0,1-.72.4,3,3,0,0,1-.92.13,3,3,0,0,1-.8-.1,1,1,0,0,0-.29.27.46.46,0,0,0-.1.28.4.4,0,0,0,.17.34,1.3,1.3,0,0,0,.46.16,4.33,4.33,0,0,0,.66,0h.74a3.67,3.67,0,0,1,.75.07,2.23,2.23,0,0,1,.66.22,1.24,1.24,0,0,1,.46.42,1.26,1.26,0,0,1,.17.69,1.59,1.59,0,0,1-.19.76,2.06,2.06,0,0,1-.56.66,2.93,2.93,0,0,1-.9.46,3.67,3.67,0,0,1-1.19.18,4.46,4.46,0,0,1-1.17-.14,2.53,2.53,0,0,1-.83-.35,1.61,1.61,0,0,1-.5-.51,1.24,1.24,0,0,1-.16-.61,1.11,1.11,0,0,1,.28-.77,2,2,0,0,1,.79-.5,1.11,1.11,0,0,1-.41-.32.81.81,0,0,1-.16-.54.91.91,0,0,1,0-.27,1,1,0,0,1,.15-.28,1.45,1.45,0,0,1,.24-.26,1.33,1.33,0,0,1,.34-.22,1.91,1.91,0,0,1-.71-.67,1.86,1.86,0,0,1-.25-1,1.77,1.77,0,0,1,.17-.8,1.62,1.62,0,0,1,.48-.62,2.28,2.28,0,0,1,.72-.4A3.12,3.12,0,0,1,60.76,81Zm1.9,6.49a.53.53,0,0,0-.13-.38,1,1,0,0,0-.34-.22,2.88,2.88,0,0,0-.5-.11,5.47,5.47,0,0,0-.59,0h-.64a2.15,2.15,0,0,1-.62-.08,1.78,1.78,0,0,0-.55.4.81.81,0,0,0-.21.56.72.72,0,0,0,.1.38,1,1,0,0,0,.32.31,2.26,2.26,0,0,0,.54.2,3.53,3.53,0,0,0,.78.08,3.64,3.64,0,0,0,.77-.08,2.06,2.06,0,0,0,.58-.23,1,1,0,0,0,.36-.35A.76.76,0,0,0,62.66,87.53Zm-1.9-3.28a1.62,1.62,0,0,0,.57-.09,1.11,1.11,0,0,0,.42-.26.9.9,0,0,0,.25-.38,1.35,1.35,0,0,0,.09-.5,1.23,1.23,0,0,0-.34-.89,1.42,1.42,0,0,0-1-.33,1.4,1.4,0,0,0-1,.33,1.19,1.19,0,0,0-.34.89,1.35,1.35,0,0,0,.09.5,1,1,0,0,0,.25.38,1.19,1.19,0,0,0,.42.26A1.6,1.6,0,0,0,60.76,84.25Z" transform="translate(-9.33 -27.04)"/><path class="cls-1" d="M66.07,81.14V85a1.63,1.63,0,0,0,.32,1.07,1.16,1.16,0,0,0,1,.38,1.8,1.8,0,0,0,.88-.22,2.76,2.76,0,0,0,.76-.62V81.14h1.07v6.08h-.63a.27.27,0,0,1-.29-.23l-.09-.65a3.48,3.48,0,0,1-.88.71,2.44,2.44,0,0,1-1.13.26,2.19,2.19,0,0,1-.88-.16,1.69,1.69,0,0,1-.64-.47,2.08,2.08,0,0,1-.39-.72A3.52,3.52,0,0,1,65,85V81.14Z" transform="translate(-9.33 -27.04)"/><path class="cls-1" d="M73.31,78.38v8.84H72.24V78.38Z" transform="translate(-9.33 -27.04)"/><path class="cls-1" d="M80,87.22h-.47a.58.58,0,0,1-.25,0A.25.25,0,0,1,79.1,87L79,86.4a5.39,5.39,0,0,1-.47.39,2.92,2.92,0,0,1-.48.29,2.74,2.74,0,0,1-.53.17,3.1,3.1,0,0,1-.64.06,2.07,2.07,0,0,1-.66-.1,1.57,1.57,0,0,1-.54-.29,1.47,1.47,0,0,1-.36-.51,1.75,1.75,0,0,1-.13-.72,1.33,1.33,0,0,1,.19-.69,2,2,0,0,1,.64-.6A4.3,4.3,0,0,1,77.16,84a7.91,7.91,0,0,1,1.75-.16v-.48a1.66,1.66,0,0,0-.31-1.08,1.1,1.1,0,0,0-.9-.36,2.08,2.08,0,0,0-.65.09,2.19,2.19,0,0,0-.46.23c-.13.08-.25.15-.34.22a.53.53,0,0,1-.28.1.33.33,0,0,1-.19-.06.44.44,0,0,1-.13-.14L75.46,82a3.42,3.42,0,0,1,1.09-.73A3.3,3.3,0,0,1,77.84,81a2.29,2.29,0,0,1,.9.17,1.8,1.8,0,0,1,.67.47,2.12,2.12,0,0,1,.41.72,3.14,3.14,0,0,1,.13.94Zm-2.77-.66a2.78,2.78,0,0,0,.52,0,2.11,2.11,0,0,0,.44-.17,2.42,2.42,0,0,0,.4-.25c.12-.1.24-.21.37-.34V84.49a6.42,6.42,0,0,0-1.26.1,3.55,3.55,0,0,0-.84.24,1.13,1.13,0,0,0-.47.36.75.75,0,0,0-.15.46,1,1,0,0,0,.08.41.78.78,0,0,0,.21.29.83.83,0,0,0,.31.16A1.23,1.23,0,0,0,77.18,86.56Z" transform="translate(-9.33 -27.04)"/><path class="cls-1" d="M81.87,87.22V81.14h.62a.38.38,0,0,1,.24.06.5.5,0,0,1,.09.23l.07.95a2.8,2.8,0,0,1,.77-1A1.69,1.69,0,0,1,84.74,81a1.58,1.58,0,0,1,.45.06,1.61,1.61,0,0,1,.38.16l-.14.8a.17.17,0,0,1-.18.14.77.77,0,0,1-.26,0,1.59,1.59,0,0,0-.49-.06,1.4,1.4,0,0,0-.93.32,2.54,2.54,0,0,0-.63.95v3.87Z" transform="translate(-9.33 -27.04)"/><path class="cls-1" d="M94.86,87.22V78.54h3a5.61,5.61,0,0,1,1.46.16,2.68,2.68,0,0,1,1,.47,1.7,1.7,0,0,1,.56.72,2.42,2.42,0,0,1,.18,1,2,2,0,0,1-.09.59,1.84,1.84,0,0,1-.27.52,2.27,2.27,0,0,1-.48.44,3,3,0,0,1-.7.33c1.19.27,1.79.92,1.79,1.94a2.48,2.48,0,0,1-.21,1,2.17,2.17,0,0,1-.61.8,2.76,2.76,0,0,1-1,.53,4.26,4.26,0,0,1-1.35.2Zm1.61-4.92h1.29A2.16,2.16,0,0,0,99,82a1.33,1.33,0,0,0,0-1.92,1.93,1.93,0,0,0-1.2-.29H96.47Zm0,1.11V86h1.64a2.28,2.28,0,0,0,.75-.11,1.23,1.23,0,0,0,.49-.29,1,1,0,0,0,.26-.42,1.44,1.44,0,0,0,.08-.51,1.36,1.36,0,0,0-.09-.51.94.94,0,0,0-.28-.38,1.18,1.18,0,0,0-.49-.24,2.55,2.55,0,0,0-.73-.09Z" transform="translate(-9.33 -27.04)"/><path class="cls-1" d="M105.52,81a3.31,3.31,0,0,1,1.25.23,2.66,2.66,0,0,1,1.57,1.62,3.93,3.93,0,0,1,.22,1.32,4,4,0,0,1-.22,1.32,2.89,2.89,0,0,1-.61,1,2.79,2.79,0,0,1-1,.64,3.66,3.66,0,0,1-2.5,0,2.83,2.83,0,0,1-1-.64,2.89,2.89,0,0,1-.61-1,3.73,3.73,0,0,1-.22-1.32,3.69,3.69,0,0,1,.22-1.32,2.76,2.76,0,0,1,.61-1,2.81,2.81,0,0,1,1-.63A3.31,3.31,0,0,1,105.52,81Zm0,5.21a1.33,1.33,0,0,0,1.14-.52,2.63,2.63,0,0,0,.37-1.51,2.68,2.68,0,0,0-.37-1.52,1.52,1.52,0,0,0-2.29,0,2.61,2.61,0,0,0-.37,1.52,2.57,2.57,0,0,0,.37,1.51A1.34,1.34,0,0,0,105.52,86.17Z" transform="translate(-9.33 -27.04)"/><path class="cls-1" d="M111.59,78.3v8.92h-1.48V78.3Z" transform="translate(-9.33 -27.04)"/><path class="cls-1" d="M117.9,87.22a.37.37,0,0,1-.38-.27l-.12-.6a2.92,2.92,0,0,1-.4.39,2.21,2.21,0,0,1-.45.3,2.41,2.41,0,0,1-.53.2,2.74,2.74,0,0,1-.6.07,2,2,0,0,1-.92-.21,2.23,2.23,0,0,1-.73-.61,3.25,3.25,0,0,1-.47-1,5.41,5.41,0,0,1-.16-1.34,4.09,4.09,0,0,1,.19-1.28,3.09,3.09,0,0,1,.53-1,2.56,2.56,0,0,1,.83-.67,2.47,2.47,0,0,1,1.1-.24,2.16,2.16,0,0,1,.88.16,2.4,2.4,0,0,1,.65.44V78.3h1.48v8.92Zm-2-1.09a1.52,1.52,0,0,0,.79-.19,2.22,2.22,0,0,0,.61-.55V82.63a1.45,1.45,0,0,0-.55-.43,1.7,1.7,0,0,0-.64-.13,1.47,1.47,0,0,0-.6.13,1.15,1.15,0,0,0-.47.38,2.06,2.06,0,0,0-.29.65,3.63,3.63,0,0,0-.1.93,3.94,3.94,0,0,0,.09.91,1.72,1.72,0,0,0,.25.61.93.93,0,0,0,.39.35A1.27,1.27,0,0,0,115.92,86.13Z" transform="translate(-9.33 -27.04)"/></svg>