<svg id="Layer_1" data-name="Layer 1" xmlns="http://www.w3.org/2000/svg" viewBox="0 0 90.85 62.91"><defs><style>.cls-1{fill:#f0f0f0;}</style></defs><title>times-demo</title><path class="cls-1" d="M28.9,27.48l.26,5.59h-.67A6.67,6.67,0,0,0,28,31a3.51,3.51,0,0,0-1.45-1.5A5.05,5.05,0,0,0,24.13,29H20.77V47.19a4.83,4.83,0,0,0,.48,2.74,2.64,2.64,0,0,0,2.06.74h.82v.65H14v-.65h.85A2.4,2.4,0,0,0,17,49.76a5.31,5.31,0,0,0,.39-2.57V29H14.53a8.18,8.18,0,0,0-2.37.24,3.3,3.3,0,0,0-1.56,1.29,5.2,5.2,0,0,0-.78,2.56H9.16l.28-5.59Z" transform="translate(-8.27 -26.32)"/><path class="cls-1" d="M36.37,34.74V47.68a5.79,5.79,0,0,0,.22,2,1.51,1.51,0,0,0,.65.75,3.39,3.39,0,0,0,1.57.25v.63H31v-.63a3.65,3.65,0,0,0,1.58-.23,1.53,1.53,0,0,0,.64-.76,5.59,5.59,0,0,0,.24-2v-6.2a21.39,21.39,0,0,0-.16-3.4,1.42,1.42,0,0,0-.38-.78,1.14,1.14,0,0,0-.72-.22,3.47,3.47,0,0,0-1.2.27l-.25-.64,4.86-2Zm-1.46-8.42a1.78,1.78,0,0,1,1.78,1.78,1.79,1.79,0,0,1-.52,1.27,1.79,1.79,0,0,1-2.53-2.53A1.74,1.74,0,0,1,34.91,26.32Z" transform="translate(-8.27 -26.32)"/><path class="cls-1" d="M46.5,38.17c1.17-1.17,1.86-1.84,2.07-2a6.59,6.59,0,0,1,1.71-1,4.92,4.92,0,0,1,1.81-.37,4,4,0,0,1,2.6.88,4.38,4.38,0,0,1,1.46,2.55,12.17,12.17,0,0,1,3.06-2.77,5.39,5.39,0,0,1,2.56-.66,4,4,0,0,1,2.28.66,4.35,4.35,0,0,1,1.57,2.16,9.6,9.6,0,0,1,.39,3.2v6.92a6.41,6.41,0,0,0,.23,2.08,1.57,1.57,0,0,0,.65.66,3.3,3.3,0,0,0,1.55.27v.63H60.49v-.63h.33a2.79,2.79,0,0,0,1.62-.41,1.54,1.54,0,0,0,.58-.89,10.92,10.92,0,0,0,.07-1.71V40.76A6,6,0,0,0,62.62,38a2.39,2.39,0,0,0-2.2-1.13,4.21,4.21,0,0,0-1.87.47,10.16,10.16,0,0,0-2.28,1.73l0,.19,0,.76v7.68a6.38,6.38,0,0,0,.19,2.06,1.51,1.51,0,0,0,.69.68,4,4,0,0,0,1.74.27v.63H50.75v-.63a3.74,3.74,0,0,0,1.84-.32,1.66,1.66,0,0,0,.69-.95,9.15,9.15,0,0,0,.09-1.74V40.76a5.18,5.18,0,0,0-.58-2.83,2.48,2.48,0,0,0-2.16-1.13,3.88,3.88,0,0,0-1.88.51,7.44,7.44,0,0,0-2.25,1.74v8.63a5.9,5.9,0,0,0,.22,2.06,1.5,1.5,0,0,0,.65.71,4.16,4.16,0,0,0,1.75.24v.63h-8v-.63a3.51,3.51,0,0,0,1.55-.24,1.52,1.52,0,0,0,.67-.76,5.79,5.79,0,0,0,.23-2V41.53a21.69,21.69,0,0,0-.16-3.43,1.36,1.36,0,0,0-.39-.8,1.1,1.1,0,0,0-.72-.22,3.33,3.33,0,0,0-1.18.27l-.26-.64,4.85-2h.76Z" transform="translate(-8.27 -26.32)"/><path class="cls-1" d="M73.33,41.28a8.2,8.2,0,0,0,1.74,5.63,5.3,5.3,0,0,0,4.13,2A4.49,4.49,0,0,0,82,48.08a6.47,6.47,0,0,0,2-3l.54.35a8.39,8.39,0,0,1-2.14,4.39,5.75,5.75,0,0,1-4.45,2,6.46,6.46,0,0,1-5-2.26,8.63,8.63,0,0,1-2.07-6.07A9.19,9.19,0,0,1,73,37a6.9,6.9,0,0,1,5.32-2.31,5.93,5.93,0,0,1,4.44,1.78,6.54,6.54,0,0,1,1.74,4.77Zm0-1h7.45a6.91,6.91,0,0,0-.37-2.18,3.46,3.46,0,0,0-1.31-1.54A3.28,3.28,0,0,0,77.28,36a3.62,3.62,0,0,0-2.61,1.14A4.9,4.9,0,0,0,73.33,40.26Z" transform="translate(-8.27 -26.32)"/><path class="cls-1" d="M97.9,34.74v5.49h-.58a7.08,7.08,0,0,0-1.71-3.52A3.85,3.85,0,0,0,93,35.78a3,3,0,0,0-2,.65,1.92,1.92,0,0,0-.76,1.44,2.6,2.6,0,0,0,.57,1.69A6.24,6.24,0,0,0,93,41.09l2.57,1.25q3.57,1.74,3.57,4.59a4.36,4.36,0,0,1-1.66,3.54,5.8,5.8,0,0,1-3.72,1.34,12.84,12.84,0,0,1-3.38-.52,3.3,3.3,0,0,0-1-.18.69.69,0,0,0-.63.46H88.2V45.82h.58a6.59,6.59,0,0,0,1.88,3.71,4.55,4.55,0,0,0,3.11,1.25,2.77,2.77,0,0,0,2-.72,2.24,2.24,0,0,0,.77-1.71,2.73,2.73,0,0,0-.86-2,14.8,14.8,0,0,0-3.4-2.09,10,10,0,0,1-3.34-2.29,3.92,3.92,0,0,1-.79-2.53,4.46,4.46,0,0,1,1.36-3.32A4.84,4.84,0,0,1,93,34.74a8.29,8.29,0,0,1,2.3.41,5.77,5.77,0,0,0,1.2.26.69.69,0,0,0,.43-.12,1.53,1.53,0,0,0,.37-.55Z" transform="translate(-8.27 -26.32)"/><path class="cls-1" d="M16.18,86.64H14.05l-2.69-3.71h-.83v2.3a1.63,1.63,0,0,0,.17.94.82.82,0,0,0,.66.25h.32v.22H8.27v-.22h.3a.8.8,0,0,0,.72-.32,1.94,1.94,0,0,0,.12-.87V80.1a1.62,1.62,0,0,0-.16-.93.87.87,0,0,0-.68-.26h-.3V78.7h2.9a7,7,0,0,1,1.86.18,2.12,2.12,0,0,1,1,.68,1.76,1.76,0,0,1,.42,1.18A1.84,1.84,0,0,1,14,82a2.64,2.64,0,0,1-1.48.76l1.64,2.28a4.25,4.25,0,0,0,1,1,2.37,2.37,0,0,0,1.06.32Zm-5.65-4.08h.33a2.55,2.55,0,0,0,1.71-.49,1.57,1.57,0,0,0,.58-1.25,1.63,1.63,0,0,0-.46-1.21,1.69,1.69,0,0,0-1.24-.47,5.69,5.69,0,0,0-.92.11Z" transform="translate(-8.27 -26.32)"/><path class="cls-1" d="M17.65,83.3a2.72,2.72,0,0,0,.58,1.87,1.78,1.78,0,0,0,1.37.68,1.51,1.51,0,0,0,.92-.29,2.06,2.06,0,0,0,.65-1l.19.11a2.83,2.83,0,0,1-.72,1.47,1.89,1.89,0,0,1-1.48.65,2.17,2.17,0,0,1-1.66-.75,2.86,2.86,0,0,1-.69-2,3.06,3.06,0,0,1,.71-2.15,2.31,2.31,0,0,1,1.77-.77,2,2,0,0,1,1.49.59,2.23,2.23,0,0,1,.58,1.6Zm0-.34h2.48a2.39,2.39,0,0,0-.12-.73,1.24,1.24,0,0,0-.44-.52,1.11,1.11,0,0,0-.6-.18,1.23,1.23,0,0,0-.88.37A1.69,1.69,0,0,0,17.65,83Z" transform="translate(-8.27 -26.32)"/><path class="cls-1" d="M23.81,84.68a1.78,1.78,0,0,1-.76-.67,1.72,1.72,0,0,1-.26-1,1.83,1.83,0,0,1,.6-1.37,2.14,2.14,0,0,1,1.54-.57,2.35,2.35,0,0,1,1.33.37h1.43l0,0a.32.32,0,0,1,0,.19.51.51,0,0,1,0,.21.1.1,0,0,1-.06,0,1.38,1.38,0,0,1-.3,0H26.7A1.75,1.75,0,0,1,27,83.1a1.69,1.69,0,0,1-.57,1.28,2.2,2.2,0,0,1-1.54.53,3.36,3.36,0,0,1-.82-.11,1.65,1.65,0,0,0-.35.38.67.67,0,0,0-.09.29.28.28,0,0,0,.1.19.77.77,0,0,0,.38.14c.11,0,.38,0,.82,0a15.32,15.32,0,0,1,1.56.08,1.47,1.47,0,0,1,.87.4,1.1,1.1,0,0,1,.33.81,1.73,1.73,0,0,1-.62,1.25,3.36,3.36,0,0,1-2.39.85,3.42,3.42,0,0,1-1.91-.51.79.79,0,0,1-.44-.61.58.58,0,0,1,.07-.28,2.77,2.77,0,0,1,.41-.6s.22-.25.6-.64a2.09,2.09,0,0,1-.44-.32.52.52,0,0,1-.12-.33.93.93,0,0,1,.17-.48A3.79,3.79,0,0,1,23.81,84.68Zm-.06,2a3,3,0,0,0-.42.56,1,1,0,0,0-.14.47.58.58,0,0,0,.34.49,3.16,3.16,0,0,0,1.69.37,2.67,2.67,0,0,0,1.56-.37,1,1,0,0,0,.5-.8.44.44,0,0,0-.3-.43,3.59,3.59,0,0,0-1.2-.15A19.82,19.82,0,0,1,23.75,86.64Zm1.08-5.24a.91.91,0,0,0-.73.34,1.6,1.6,0,0,0-.29,1.06,2.33,2.33,0,0,0,.39,1.44,1,1,0,0,0,.78.39.93.93,0,0,0,.73-.34A1.59,1.59,0,0,0,26,83.24a2.35,2.35,0,0,0-.41-1.46A.93.93,0,0,0,24.83,81.4Z" transform="translate(-8.27 -26.32)"/><path class="cls-1" d="M33.38,81.27v3.26a8.36,8.36,0,0,0,0,1.14.6.6,0,0,0,.14.29.36.36,0,0,0,.23.08,1.21,1.21,0,0,0,.41-.1l.08.2-1.61.66h-.26V85.67a4.67,4.67,0,0,1-1.06.94,1.56,1.56,0,0,1-.76.19,1.23,1.23,0,0,1-.79-.26,1.33,1.33,0,0,1-.46-.67,4.32,4.32,0,0,1-.12-1.16V82.32a1.09,1.09,0,0,0-.09-.53.54.54,0,0,0-.24-.23,1.57,1.57,0,0,0-.58-.07v-.22h1.88v3.6a1.35,1.35,0,0,0,.26,1,.88.88,0,0,0,.63.23,1.35,1.35,0,0,0,.57-.15,3.18,3.18,0,0,0,.76-.61v-3a.88.88,0,0,0-.17-.62,1.13,1.13,0,0,0-.69-.17v-.22Z" transform="translate(-8.27 -26.32)"/><path class="cls-1" d="M36.82,78.31v7.12a2,2,0,0,0,.07.67.45.45,0,0,0,.23.24,1.21,1.21,0,0,0,.56.09v.21H35.05v-.21a1.16,1.16,0,0,0,.51-.08.48.48,0,0,0,.21-.25,2,2,0,0,0,.07-.67V80.55a8,8,0,0,0,0-1.11.46.46,0,0,0-.13-.29.35.35,0,0,0-.23-.07,1.17,1.17,0,0,0-.39.09L35,79l1.6-.65Z" transform="translate(-8.27 -26.32)"/><path class="cls-1" d="M41.65,85.87a11.7,11.7,0,0,1-1,.74,1.72,1.72,0,0,1-.68.14,1.17,1.17,0,0,1-.91-.38,1.39,1.39,0,0,1-.36-1,1.34,1.34,0,0,1,.17-.68,2.24,2.24,0,0,1,.84-.75,13.14,13.14,0,0,1,2-.86v-.21a1.75,1.75,0,0,0-.26-1.1.92.92,0,0,0-.74-.3.86.86,0,0,0-.59.2.63.63,0,0,0-.22.46v.34a.56.56,0,0,1-.13.41.5.5,0,0,1-.37.15.45.45,0,0,1-.35-.15.61.61,0,0,1-.14-.42,1.18,1.18,0,0,1,.52-.92,2.22,2.22,0,0,1,1.45-.42,2.54,2.54,0,0,1,1.17.24,1.12,1.12,0,0,1,.51.56,3.34,3.34,0,0,1,.1,1v1.82a8.22,8.22,0,0,0,0,.94.38.38,0,0,0,.1.23.22.22,0,0,0,.15.06.43.43,0,0,0,.17,0,4,4,0,0,0,.47-.43v.33c-.44.58-.85.88-1.25.88a.58.58,0,0,1-.46-.2A1.09,1.09,0,0,1,41.65,85.87Zm0-.38v-2c-.59.24-1,.4-1.15.5a1.87,1.87,0,0,0-.66.54,1.06,1.06,0,0,0-.2.61,1,1,0,0,0,.25.7.77.77,0,0,0,.58.28A2.14,2.14,0,0,0,41.65,85.49Z" transform="translate(-8.27 -26.32)"/><path class="cls-1" d="M45.8,81.12v1.2q.68-1.2,1.38-1.2a.76.76,0,0,1,.54.19.6.6,0,0,1,.21.46.52.52,0,0,1-.15.38.5.5,0,0,1-.37.16.82.82,0,0,1-.46-.2.69.69,0,0,0-.38-.2.35.35,0,0,0-.22.11,2.88,2.88,0,0,0-.55.79v2.58a1.66,1.66,0,0,0,.11.67.57.57,0,0,0,.27.26,1.21,1.21,0,0,0,.56.11v.21H44v-.21a1.11,1.11,0,0,0,.61-.13.44.44,0,0,0,.2-.3,2.86,2.86,0,0,0,0-.57V83.35a10.88,10.88,0,0,0,0-1.11.49.49,0,0,0-.14-.26.39.39,0,0,0-.26-.09A1.13,1.13,0,0,0,44,82l-.06-.21,1.62-.65Z" transform="translate(-8.27 -26.32)"/><path class="cls-1" d="M63.39,82.43a4,4,0,0,1,1.59.64,1.67,1.67,0,0,1,.65,1.38,1.82,1.82,0,0,1-.72,1.48,4,4,0,0,1-2.57.71h-4v-.22a1.81,1.81,0,0,0,.75-.1.67.67,0,0,0,.28-.27,2.39,2.39,0,0,0,.08-.8V80.09a2.51,2.51,0,0,0-.08-.81.67.67,0,0,0-.28-.27,2,2,0,0,0-.75-.1V78.7h3.81a5.52,5.52,0,0,1,1.94.24,1.94,1.94,0,0,1,.89.73,1.77,1.77,0,0,1,.33,1,1.46,1.46,0,0,1-.42,1A3,3,0,0,1,63.39,82.43Zm-2.13.3v2.84a.65.65,0,0,0,.16.48.69.69,0,0,0,.48.16,1.79,1.79,0,0,0,.86-.21,1.41,1.41,0,0,0,.61-.6,2,2,0,0,0,0-1.89,1.32,1.32,0,0,0-.71-.61A3.62,3.62,0,0,0,61.26,82.73Zm0-.46a2.89,2.89,0,0,0,1.22-.19,1.32,1.32,0,0,0,.61-.53,1.59,1.59,0,0,0,.21-.86,1.65,1.65,0,0,0-.21-.87,1.29,1.29,0,0,0-.59-.51,3.18,3.18,0,0,0-1.24-.17Z" transform="translate(-8.27 -26.32)"/><path class="cls-1" d="M69.34,81a2.5,2.5,0,0,1,1.33.37,2.29,2.29,0,0,1,.94,1,3.48,3.48,0,0,1,.32,1.48,3.21,3.21,0,0,1-.59,2,2.35,2.35,0,0,1-2,.94,2.24,2.24,0,0,1-1.9-.86,3.18,3.18,0,0,1-.67-2,3.29,3.29,0,0,1,.68-2.06A2.26,2.26,0,0,1,69.34,81Zm0,.41a.71.71,0,0,0-.52.23,1.65,1.65,0,0,0-.28.89c0,.44-.06,1.06-.06,1.85a7.17,7.17,0,0,0,.08,1.17,1.08,1.08,0,0,0,.27.63.67.67,0,0,0,.92.07.91.91,0,0,0,.31-.55,13.2,13.2,0,0,0,.12-2.25,5.17,5.17,0,0,0-.12-1.37,1,1,0,0,0-.32-.54A.66.66,0,0,0,69.37,81.41Z" transform="translate(-8.27 -26.32)"/><path class="cls-1" d="M75.2,78.7v6.8a1.33,1.33,0,0,0,.14.75.8.8,0,0,0,.53.18v.21h-3v-.21a.74.74,0,0,0,.54-.21,1.33,1.33,0,0,0,.11-.72V79.83a1.27,1.27,0,0,0-.13-.73.72.72,0,0,0-.52-.19V78.7Z" transform="translate(-8.27 -26.32)"/><path class="cls-1" d="M82,78.7V85a3.53,3.53,0,0,0,0,.76.5.5,0,0,0,.17.28,1,1,0,0,0,.46.12v.19l-2.31.45v-.86a2.92,2.92,0,0,1-.74.68,1.5,1.5,0,0,1-.74.18,1.9,1.9,0,0,1-1.66-.93A3.45,3.45,0,0,1,76.75,84a3.86,3.86,0,0,1,.31-1.59,2.34,2.34,0,0,1,.83-1A2,2,0,0,1,79,81a1.57,1.57,0,0,1,.7.15,2.4,2.4,0,0,1,.65.53V80a3.19,3.19,0,0,0,0-.75.55.55,0,0,0-.21-.26,1.26,1.26,0,0,0-.53-.08V78.7Zm-1.64,3.71c-.29-.55-.64-.83-1.06-.83a.54.54,0,0,0-.36.12,1.32,1.32,0,0,0-.35.63,5.36,5.36,0,0,0-.14,1.4,5.74,5.74,0,0,0,.15,1.54A1.46,1.46,0,0,0,79,86a.58.58,0,0,0,.37.11c.34,0,.66-.27,1-.81Z" transform="translate(-8.27 -26.32)"/></svg>