<svg id="Layer_1" data-name="Layer 1" xmlns="http://www.w3.org/2000/svg" viewBox="0 0 555.4 163.79"><defs><style>.cls-1{fill:#d3d3d3;}</style></defs><title>fostering-fitness-logo</title><path class="cls-1" d="M311.22,53.93a64,64,0,1,0,64,64A64,64,0,0,0,311.22,53.93Zm57.83,41.45a61.1,61.1,0,0,1,3.75,14.78l-1.29.16a60,60,0,0,0-3.66-14.47ZM357,76a62.62,62.62,0,0,1,8.85,12.42l-1.14.62a60.8,60.8,0,0,0-8.66-12.16ZM338.8,62.31a62.13,62.13,0,0,1,12.71,8.41l-.84,1a60.66,60.66,0,0,0-12.45-8.23Zm-21.95-6.2a62.62,62.62,0,0,1,14.9,3.23l-.43,1.22a60.55,60.55,0,0,0-14.58-3.16Zm-7.64-.21,0,1.29a60.58,60.58,0,0,0-14.75,2.3l-.35-1.24A61.67,61.67,0,0,1,309.21,55.9ZM287,60.79l.5,1.19a60.77,60.77,0,0,0-12.91,7.49l-.78-1A62,62,0,0,1,287,60.79ZM268,73.42l.9.93A61.36,61.36,0,0,0,259.51,86l-1.1-.68A62.81,62.81,0,0,1,268,73.42ZM254.8,92.05l1.18.54a60.23,60.23,0,0,0-4.51,14.24l-1.27-.25A61.75,61.75,0,0,1,254.8,92.05Zm-4.58,37.34a62.76,62.76,0,0,1-1.06-11.47c0-1.24,0-2.51.11-3.75l1.29.08c-.07,1.22-.11,2.45-.11,3.68a60.91,60.91,0,0,0,1,11.22Zm8.26,21.26a61.92,61.92,0,0,1-6.4-13.85l1.24-.4A60.41,60.41,0,0,0,259.58,150Zm15.38,16.83a63,63,0,0,1-11-10.62l1-.81a61.42,61.42,0,0,0,10.73,10.4Zm20.42,10.15a61.1,61.1,0,0,1-14-5.93l.65-1.13a59.21,59.21,0,0,0,13.75,5.83Zm4.49-16.9c-4.63,0-10.15.33-16.57,1v-1.42a12.23,12.23,0,0,0,7.82-6.71q2.36-5,2.36-16.26v-39q0-10.74-2.84-15a12.16,12.16,0,0,0-7.34-5.21v-1.5q8.44.7,16.57.94v83.18h0ZM311.22,180a61.18,61.18,0,0,1-9.48-.71l.2-1.28a60.58,60.58,0,0,0,14.92.44l.13,1.3C315.08,179.89,313.14,180,311.22,180Zm13.3-1.42-.27-1.26a61.07,61.07,0,0,0,14.08-5l.58,1.15A61.72,61.72,0,0,1,324.52,178.55Zm5.41-56.71h-18.7v18.3q0,17.85,10.9,20.13v1.41c-7.48-.64-12.19-.94-14.13-.94h-3.16V77.56h19.58q8.5,0,22.48-.94c-.06,1.36-.08,3.15-.08,5.36,0,1.27.08,3.63.24,7.1.16,3.85.23,5.85.23,6v2h-1.65q-2.22-14.2-13.41-14.2H316.92a14.3,14.3,0,0,0-4.66.71,106.18,106.18,0,0,0-1,16.65v16.33h13.82q8.91,0,13-2.2t5.2-7.66H345q-.54,8.52-.54,11.76,0,2,.22,6.71c.22,3,.32,5.15.32,6.46v2.61h-1.74Q342.89,121.83,329.93,121.84Zm15.58,47.82-.71-1.08a61.1,61.1,0,0,0,11.33-9.72l1,.87A62.37,62.37,0,0,1,345.51,169.66Zm16.36-15.88-1.05-.74a60.78,60.78,0,0,0,7.08-13.16l1.21.46A62,62,0,0,1,361.87,153.78Zm9.54-20.72-1.24-.31A61.57,61.57,0,0,0,372,117.92v-.14h1.29v.14A62,62,0,0,1,371.41,133.06Z" transform="translate(-25.1 -18.49)"/><path class="cls-1" d="M167.18,86.12a48,48,0,1,0,48,48A48,48,0,0,0,167.18,86.12Zm43.37,31.08a45.62,45.62,0,0,1,2.82,11.09l-1,.12a45,45,0,0,0-2.75-10.85Zm-9-14.5a46.93,46.93,0,0,1,6.64,9.31l-.86.46a46.06,46.06,0,0,0-6.49-9.12ZM187.87,92.4a46.76,46.76,0,0,1,9.53,6.31l-.63.74a45.3,45.3,0,0,0-9.34-6.18ZM171.4,87.76a46.28,46.28,0,0,1,11.18,2.41l-.32.92a46,46,0,0,0-10.94-2.37Zm-5.73-.17,0,1a45.39,45.39,0,0,0-11.06,1.73l-.26-.93A46.24,46.24,0,0,1,165.67,87.59ZM149,91.27l.37.89a45.5,45.5,0,0,0-9.68,5.62l-.58-.78A46.25,46.25,0,0,1,149,91.27Zm-14.24,9.47.68.69a45.73,45.73,0,0,0-7,8.73l-.82-.51A47.2,47.2,0,0,1,134.74,100.74Zm-9.87,14,.88.4a45.47,45.47,0,0,0-3.38,10.68l-1-.18A46.28,46.28,0,0,1,124.87,114.71Zm-3.44,28a47.52,47.52,0,0,1-.79-8.6c0-.93,0-1.88.08-2.81l1,.06c0,.91-.08,1.84-.08,2.76a45.38,45.38,0,0,0,.78,8.41Zm6.2,15.95a46.62,46.62,0,0,1-4.8-10.39l.93-.3a45.08,45.08,0,0,0,4.69,10.17Zm11.53,12.62a47.28,47.28,0,0,1-8.22-8l.76-.61a46.08,46.08,0,0,0,8.05,7.8Zm15.32,7.62a45.88,45.88,0,0,1-10.54-4.45l.48-.85A44.4,44.4,0,0,0,154.74,178Zm3.37-12.68q-5.22,0-12.43.72v-1.07a9.12,9.12,0,0,0,5.86-5q1.77-3.74,1.77-12.19V119.41q0-8.05-2.13-11.24a9.09,9.09,0,0,0-5.5-3.91v-1.13q6.33.54,12.43.71v62.38Zm9.33,14.43a46.88,46.88,0,0,1-7.11-.53l.15-1a46.05,46.05,0,0,0,11.19.33l.1,1C170.08,180.59,168.62,180.65,167.18,180.65Zm10-1.07-.2-.94a45.18,45.18,0,0,0,10.55-3.72l.44.86A45.85,45.85,0,0,1,177.16,179.58Zm4.06-42.53h-14v13.73q0,13.38,8.17,15.09v1.06c-5.6-.48-9.14-.71-10.59-.71H162.4V103.84h14.68q6.39,0,16.86-.71c0,1-.06,2.37-.06,4,0,1,.06,2.72.18,5.32q.18,4.33.18,4.5v1.54H193q-1.65-10.65-10.05-10.66H171.46a10.81,10.81,0,0,0-3.5.54,80.74,80.74,0,0,0-.77,12.49v12.24h10.36c4.46,0,7.71-.54,9.76-1.65a7.85,7.85,0,0,0,3.9-5.74h1.31q-.41,6.39-.41,8.82c0,1,.06,2.66.17,5s.24,3.87.24,4.85v2h-1.31Q190.94,137,181.22,137.05Zm11.68,35.86-.53-.81a45.83,45.83,0,0,0,8.5-7.29l.72.66A46.78,46.78,0,0,1,192.9,172.91ZM205.17,161l-.79-.55a45.43,45.43,0,0,0,5.31-9.87l.91.34A46.46,46.46,0,0,1,205.17,161Zm7.16-15.53-.94-.24a46.13,46.13,0,0,0,1.37-11.12V134h1v.11A46.57,46.57,0,0,1,212.33,145.47Z" transform="translate(-25.1 -18.49)"/><path class="cls-1" d="M499,18.49A81.51,81.51,0,1,0,580.51,100,81.51,81.51,0,0,0,499,18.49Zm73.64,52.79a77.84,77.84,0,0,1,4.78,18.83l-1.64.2a77.33,77.33,0,0,0-4.66-18.42ZM557.3,46.65a79.26,79.26,0,0,1,11.27,15.82l-1.46.78a77.28,77.28,0,0,0-11-15.49ZM534.12,29.17a79.51,79.51,0,0,1,16.19,10.72l-1.07,1.24a77.43,77.43,0,0,0-15.86-10.48Zm-27.95-7.89a78.75,78.75,0,0,1,19,4.11l-.55,1.55a77.37,77.37,0,0,0-18.56-4ZM496.44,21l.05,1.64a77.1,77.1,0,0,0-18.78,2.93L477.25,24A78.6,78.6,0,0,1,496.44,21Zm-28.36,6.23.64,1.51a78,78,0,0,0-16.44,9.54l-1-1.31A78.86,78.86,0,0,1,468.08,27.24ZM443.92,43.32l1.14,1.19a77.29,77.29,0,0,0-11.91,14.82l-1.41-.87A79.85,79.85,0,0,1,443.92,43.32ZM427.15,67l1.49.69a77.23,77.23,0,0,0-5.74,18.14l-1.62-.32A78.69,78.69,0,0,1,427.15,67Zm-5.84,47.56A80,80,0,0,1,420,100c0-1.59,0-3.2.14-4.78l1.64.1c-.09,1.55-.14,3.12-.14,4.68a77.56,77.56,0,0,0,1.32,14.3Zm10.52,27.07A79.44,79.44,0,0,1,423.68,124l1.58-.51a76.55,76.55,0,0,0,8,17.26Zm19.59,21.44a80.13,80.13,0,0,1-14-13.52l1.29-1a77.89,77.89,0,0,0,13.66,13.25Zm26,12.93a78,78,0,0,1-17.89-7.56l.82-1.44a75,75,0,0,0,17.52,7.42Zm5.72-21.52q-8.85,0-21.1,1.21v-1.81a15.5,15.5,0,0,0,9.95-8.54q3-6.33,3-20.7V75c0-9.11-1.22-15.48-3.62-19.09A15.5,15.5,0,0,0,462,49.3V47.39q10.75.91,21.1,1.21V154.52ZM499,179a77.34,77.34,0,0,1-12.08-.91l.25-1.63a77.54,77.54,0,0,0,19,.56l.16,1.66C503.92,178.92,501.44,179,499,179Zm16.94-1.81-.35-1.6a77,77,0,0,0,17.93-6.33l.74,1.47A78.9,78.9,0,0,1,515.94,177.21ZM522.83,105H499V128.3q0,22.71,13.88,25.63v1.79c-9.52-.81-15.53-1.2-18-1.2h-4V48.59h24.93q10.83,0,28.62-1.2-.09,2.61-.09,6.83c0,1.62.09,4.63.3,9.05.2,4.89.3,7.44.3,7.63v2.62h-2.11Q540,55.43,525.75,55.43H506.26a18.13,18.13,0,0,0-5.94.9A136.57,136.57,0,0,0,499,77.54V98.33h17.6c7.56,0,13.08-.92,16.57-2.8s5.63-5.06,6.62-9.75H542q-.69,10.86-.7,15,0,2.52.29,8.55c.28,3.82.41,6.56.41,8.23v3.33H539.8Q539.34,105,522.83,105Zm19.84,60.9-.91-1.38a77.44,77.44,0,0,0,14.43-12.37l1.23,1.1A79.13,79.13,0,0,1,542.67,165.88Zm20.83-20.22-1.33-.95a77.56,77.56,0,0,0,9-16.75l1.54.58A78.79,78.79,0,0,1,563.5,145.66Zm12.15-26.39-1.58-.39A78.78,78.78,0,0,0,576.39,100v-.19H578V100A78.36,78.36,0,0,1,575.65,119.27Z" transform="translate(-25.1 -18.49)"/><path class="cls-1" d="M57.1,118.28a32,32,0,1,0,32,32A32,32,0,0,0,57.1,118.28ZM86,139a30.37,30.37,0,0,1,1.87,7.39l-.64.08a30.65,30.65,0,0,0-1.83-7.24Zm-6-9.67a31.19,31.19,0,0,1,4.43,6.21l-.58.3a30.5,30.5,0,0,0-4.32-6.08Zm-9.1-6.87a31.33,31.33,0,0,1,6.36,4.21l-.42.49a30.45,30.45,0,0,0-6.23-4.12Zm-11-3.09A31.06,31.06,0,0,1,67.37,121l-.22.61A30.71,30.71,0,0,0,59.86,120Zm-3.82-.11,0,.64a30.06,30.06,0,0,0-7.38,1.16l-.17-.63A30.79,30.79,0,0,1,56.1,119.27ZM45,121.72l.26.59a30.41,30.41,0,0,0-6.46,3.75l-.39-.52A30.75,30.75,0,0,1,45,121.72ZM35.48,128l.45.47a30.18,30.18,0,0,0-4.68,5.82L30.7,134A31,31,0,0,1,35.48,128Zm-6.59,9.31.59.27a30.25,30.25,0,0,0-2.25,7.12l-.64-.12A31.06,31.06,0,0,1,28.89,137.34ZM26.6,156a31.24,31.24,0,0,1-.53-5.73c0-.62,0-1.25.06-1.87l.64,0c0,.61-.05,1.23-.05,1.84a30.14,30.14,0,0,0,.52,5.62Zm4.13,10.63a31,31,0,0,1-3.2-6.92l.62-.2a30.22,30.22,0,0,0,3.13,6.78Zm7.69,8.42a32,32,0,0,1-5.48-5.31l.51-.4a30.62,30.62,0,0,0,5.36,5.19Zm10.21,5.08a31,31,0,0,1-7-3l.32-.57a29.6,29.6,0,0,0,6.88,2.92Zm2.25-8.45q-3.48,0-8.29.47v-.71a6.07,6.07,0,0,0,3.91-3.35q1.19-2.49,1.18-8.13V140.48q0-5.37-1.42-7.5a6.09,6.09,0,0,0-3.67-2.6v-.75c2.82.24,5.58.39,8.29.47v41.59Zm6.22,9.62a31.22,31.22,0,0,1-4.74-.36l.1-.64a30.54,30.54,0,0,0,7.46.22l.06.65C59,181.27,58.06,181.31,57.1,181.31Zm6.65-.71-.13-.63a30.41,30.41,0,0,0,7-2.49l.28.58A30.9,30.9,0,0,1,63.75,180.6Zm2.71-28.36H57.11v9.15q0,8.93,5.44,10.07v.7c-3.73-.32-6.09-.47-7.06-.47H53.91V130.1H63.7c2.84,0,6.58-.16,11.24-.47,0,.68,0,1.58,0,2.68,0,.63,0,1.82.12,3.55q.12,2.88.12,3v1h-.83q-1.11-7.09-6.71-7.1H60a7,7,0,0,0-2.33.36,53.83,53.83,0,0,0-.51,8.32v8.17H64c3,0,5.13-.36,6.5-1.1a5.25,5.25,0,0,0,2.6-3.83H74q-.27,4.26-.27,5.88c0,.66,0,1.77.11,3.35s.16,2.58.16,3.24v1.3h-.87C73,154.31,70.77,152.24,66.46,152.24Zm7.79,23.91-.36-.54a30.61,30.61,0,0,0,5.67-4.86l.48.43A31.18,31.18,0,0,1,74.25,176.15Zm8.18-7.94-.53-.37a30.28,30.28,0,0,0,3.54-6.58l.61.23A31.35,31.35,0,0,1,82.43,168.21Zm4.77-10.36-.62-.16a30.69,30.69,0,0,0,.91-7.41v-.07h.64v.07A31,31,0,0,1,87.2,157.85Z" transform="translate(-25.1 -18.49)"/></svg>