<svg id="Layer_1" data-name="Layer 1" xmlns="http://www.w3.org/2000/svg" viewBox="0 0 1500 500"><defs><style>.cls-1{fill:#fefefe;}.cls-2{fill:#f96c66;}.cls-3{fill:#f4615b;}.cls-4{fill:#f35e58;}.cls-5{fill:#f66660;}.cls-6{fill:#fa706a;}.cls-7{fill:#fd7772;}.cls-8{fill:#fc746e;}.cls-9{fill:#f5645e;}.cls-10{fill:#f86b65;}.cls-11{fill:#f86a64;}.cls-12{fill:#f76862;}.cls-13{fill:#fa6f6a;}.cls-14{fill:#fc7570;}.cls-15{fill:#fb726c;}.cls-16{fill:#f4605a;}.cls-17{fill:#f5635d;}.cls-18{fill:#f6655f;}.cls-19{fill:#f8a39f;}.cls-20{fill:#f79591;}.cls-21{fill:#fabbb9;}</style></defs><title>logo-defencevpn</title><rect class="cls-1" width="1500" height="500"/><path class="cls-2" d="M1242.6,77.94c3.47-3,7-5.84,10.26-9a123.31,123.31,0,0,0,15.93-18.51h1a82.7,82.7,0,0,0,6.77,8.81c.84,1,1.71,2,2.57,3,.1.52-.29.8-.56,1.12a87.86,87.86,0,0,0-19.71,44.74,1.74,1.74,0,0,1-.35,1.12c-3.43,0-6.87,0-10.29.13-4,.16-8,.52-11.92,1a5.72,5.72,0,0,1-.83,0,2.08,2.08,0,0,1-.29-1.71,108.84,108.84,0,0,1,6.6-28A21.12,21.12,0,0,1,1242.6,77.94Z"/><path class="cls-3" d="M1303.59,263.78a66.24,66.24,0,0,1-3.1,11.42c-5.19,14.8-13.49,27.74-23.74,39.51a141.39,141.39,0,0,1-16.16,15.84,1.56,1.56,0,0,1-2.17.14,106.13,106.13,0,0,1-24.15-21c-12.59-14.63-21.71-31.34-29.06-49.08a309.15,309.15,0,0,1-17.1-56.9c-1.36-6.65-2.55-13.33-3.44-20.06-.08-.6,0-.92.57-1.22a153.07,153.07,0,0,1,20.43-8.81,2.54,2.54,0,0,1,.47-.07c.78,0,.79.7,1,1.17a149.21,149.21,0,0,0,6.55,14.4,149.89,149.89,0,0,0,46.52,53.06,148.48,148.48,0,0,0,42.5,20.73C1303.11,263,1303.87,262.92,1303.59,263.78Z"/><path class="cls-4" d="M1059.08,260.73c2.74-3.88,5.66-7.62,8.71-11.27a238.51,238.51,0,0,1,47.67-43.89,194.75,194.75,0,0,1,23.29-13.79c1.45-.72,1.46-.72,1.79.81a504.06,504.06,0,0,0,24.37,79.23c7.63,19,16.55,37.4,27.92,54.51a153.32,153.32,0,0,0,23,27.59,75.35,75.35,0,0,0,6.76,5.74c1,.7.77,1.07.08,1.77a80.94,80.94,0,0,1-14.25,11.3c-13.17,8.42-27.51,14.17-42.48,18.46A246.91,246.91,0,0,1,1126.6,399a13.85,13.85,0,0,1-2.46.2c.19-.49.65-.58,1-.77,14.34-8,28.55-16.24,42.2-25.41a119,119,0,0,0,13.47-10.19c.75-.68.89-1.09.14-2a344.62,344.62,0,0,1-32.19-44.57,284.94,284.94,0,0,1-21.13-41.49,185.06,185.06,0,0,1-11.41-39.61c-.37-2.25-.67-4.51-.88-6.77-.1-1.08-.49-1-1.32-.75a154.67,154.67,0,0,0-22.41,10,145.45,145.45,0,0,0-30.78,21.91l-1.53,1.44Z"/><path class="cls-4" d="M1205.2,447.15c18.18-10.55,36.21-21.36,54.08-32.79A232.32,232.32,0,0,1,1238,402.49c2.16-1,4.08-1.8,6-2.67,19-8.59,37.1-18.7,53.71-31.36,16.35-12.46,30.61-26.9,41.78-44.25a142.72,142.72,0,0,0,15.64-32.79,5.15,5.15,0,0,1,.23-.54,6.23,6.23,0,0,1,2.91-.53,161.73,161.73,0,0,0,30.69-4.92c4.33-1.1,8.61-2.41,12.85-3.84.69-.23,1.42-.65,2.14,0-1.94,4.63-4.16,9.13-6.43,13.61a316.55,316.55,0,0,1-22,36.24,221.68,221.68,0,0,1-20.7,26.08,290.91,290.91,0,0,1-56,46,418.22,418.22,0,0,1-75.28,37.44c-6,2.3-12,4.51-18.14,6.52C1205.19,447.48,1205.14,447.37,1205.2,447.15Z"/><path class="cls-5" d="M1303.59,263.78c0-.42-.35-.43-.67-.52a147.21,147.21,0,0,1-19.54-7.41,144.83,144.83,0,0,1-21.24-12,155.82,155.82,0,0,1-13.08-10,143.42,143.42,0,0,1-11.81-11.18,150.69,150.69,0,0,1-14-17.32,152.45,152.45,0,0,1-12.15-20.86q-2.28-4.74-4.18-9.65a3.2,3.2,0,0,0-.74-1.35,81.3,81.3,0,0,1,13.1-3.56,67.67,67.67,0,0,1,12.78-1.49,32.4,32.4,0,0,1,3.94-.1c.65,0,.75.51.94.93a125.62,125.62,0,0,0,6.77,12.83,119.8,119.8,0,0,0,37,38.2,120.57,120.57,0,0,0,21.6,11.14c.59.24,1.28.17,1.79.62a73.89,73.89,0,0,1,1.33,11.39,83.23,83.23,0,0,1-1.58,19.86A1.82,1.82,0,0,1,1303.59,263.78Z"/><path class="cls-6" d="M1358.53,209.57c-1-4-1.93-8-3-11.93-1.15-4.48-2.66-8.85-4-13.27-.35-.91.28-1,.91-1.07,2-.28,4-.52,5.93-.92a64.48,64.48,0,0,0,30.33-15.11,63.65,63.65,0,0,0,17.36-25.93,67,67,0,0,0,3.67-17c.15-1.46.1-3,.29-4.42,0-.39,0-.8.32-1.11,6,.54,12,.86,18,1,.91,0,1.83,0,2.75-.06.61,0,.82.19.85.82.35,7.86.38,15.73.34,23.6,0,1.44-.12,2.87-.19,4.31a4,4,0,0,0-1,1.75,88.26,88.26,0,0,1-15.61,27.22,92,92,0,0,1-23,19.78,88.3,88.3,0,0,1-26.5,10.6,62,62,0,0,1-6.36,1.2A6.67,6.67,0,0,0,1358.53,209.57Z"/><path class="cls-7" d="M1339.55,156.31a67.85,67.85,0,0,0-7.39-10.72,115,115,0,0,0-13.68-14.06c-4.19-11.1-2.76-21.38,4.57-30.75a23.56,23.56,0,0,1,3.82-3.78c2.55,1.11,5.1,2.24,7.65,3.33a236.88,236.88,0,0,0,46.34,14.15c.66.14,1.31.32,2,.47.83,8.6-.49,16.79-5.16,24.17a36.39,36.39,0,0,1-27.24,17.41A48.81,48.81,0,0,1,1339.55,156.31Z"/><path class="cls-8" d="M1339.55,156.31a.74.74,0,0,1,.86-.28c1.52.36,3.09.1,4.62.38a18.56,18.56,0,0,0,5.47-.24,35,35,0,0,0,13-4.08,37.5,37.5,0,0,0,7-5,35.18,35.18,0,0,0,8.87-11.87,36.55,36.55,0,0,0,3.25-13c.12-2-.15-4-.07-6.06,0-.42-.15-.89.27-1.23l10.37,1.72c5.71,1,11.46,1.55,17.2,2.19a70.24,70.24,0,0,1-3.32,20.75,67,67,0,0,1-11.68,21.25,61.15,61.15,0,0,1-16.06,13.76,63.53,63.53,0,0,1-21.78,8.26c-1.76.3-3.53.52-5.3.72-.54.06-.68.31-.67.77-1.64-4.23-3.14-8.52-4.9-12.7-2-4.88-4.32-9.66-6.71-14.38C1339.81,157,1339.69,156.64,1339.55,156.31Z"/><path class="cls-4" d="M1058.79,209.79a42.19,42.19,0,0,1,4.12-7.13,193.45,193.45,0,0,1,20.49-25.61,304.53,304.53,0,0,1,22.22-21.49,1.67,1.67,0,0,0,.6-1.54c-.15-3.27-.24-6.55-.29-9.82-.11-7.23,0-14.46.23-21.69.06-2.29.06-2.24,2.32-2.3,8.62-.22,17.22-.77,25.79-1.79,9.25-1.1,18.42-2.59,27.51-4.59.61-.13,1.23-.21,1.85-.32.87.25.65,1,.65,1.57,0,3.11.07,6.23,0,9.35,0,2.44.26,4.87.29,7.3a2,2,0,0,1-.18,1.28,321.54,321.54,0,0,0-42.14,24.53c-15,10.21-29.78,20.83-43.53,32.77a191.62,191.62,0,0,0-19,18.62C1059.47,209.25,1059.25,209.67,1058.79,209.79Z"/><path class="cls-9" d="M1404,281.55a3.87,3.87,0,0,0-1.87.3,162.81,162.81,0,0,1-16.5,4.77,155.14,155.14,0,0,1-15.31,2.86c-4,.5-8,1-12.06,1.21a27.09,27.09,0,0,1-2.85.19c1.2-4.29,2.46-8.57,3.42-12.93A156,156,0,0,0,1362,255.6c-.07-1.06.39-1.46,1.49-1.6a137.74,137.74,0,0,0,27.23-6.43,131.3,131.3,0,0,0,27.66-13.33,7.36,7.36,0,0,1,1.8-.94c.21-.06.57-.27.57.24-1,3.5-2,7-2.93,10.48a241.4,241.4,0,0,1-7.88,23.43C1408.08,272.22,1406.21,277,1404,281.55Z"/><path class="cls-10" d="M1358.53,209.57c.08-.55.5-.68,1-.74a87.61,87.61,0,0,0,24-7,89,89,0,0,0,18.87-11.62,90.94,90.94,0,0,0,10.37-9.73A88.24,88.24,0,0,0,1424,165.11a92.33,92.33,0,0,0,7.21-15.73c.19-.53.4-.86,1-.8l0,1.94c-.18,1.19.11,2.41-.16,3.6l-.06,2.87c-.23.87.1,1.78-.18,2.65l-.06,2.15c-.23.71.1,1.46-.18,2.17,0,3.94-.46,7.87-.81,11.79-.54,6.11-1.21,12.2-2.09,18.27-.22,1.58-.49,3.14-.74,4.72A134.63,134.63,0,0,1,1414,210.88a112.79,112.79,0,0,1-35.06,17.61,101.87,101.87,0,0,1-15.3,3.44c-1.12.16-1.38.89-1.75,1.65q-.35-3.2-.68-6.41a156.35,156.35,0,0,0-2.56-16.41A11.69,11.69,0,0,1,1358.53,209.57Z"/><path class="cls-11" d="M1304,232.1c-1.92.05-3.51-1-5.17-1.69a120.71,120.71,0,0,1-20.93-11.51,123.81,123.81,0,0,1-12.43-9.85c-2.65-2.37-5.2-4.85-7.6-7.46a117.3,117.3,0,0,1-13.78-18.12,126,126,0,0,1-7.52-14.15,1.21,1.21,0,0,0-1.34-.84c-1.08.05-2.16,0-3.24,0a38,38,0,0,1,8.59.05,62.25,62.25,0,0,1,24,6.6,67.77,67.77,0,0,1,24,20.73,91.09,91.09,0,0,1,15.5,36A.66.66,0,0,1,1304,232.1Z"/><path class="cls-12" d="M1361.89,233.58c.06-1.67.13-1.75,1.69-2a95,95,0,0,0,14-3,111.72,111.72,0,0,0,20.63-8.17,113.12,113.12,0,0,0,18.77-12.25,106,106,0,0,0,9.82-8.89,1.29,1.29,0,0,1,1.13-.55c-.73,5.52-1.77,11-2.86,16.46-1.19,5.93-2.52,11.83-4,17.68a5.32,5.32,0,0,1-.26.66c-1.47.07-2.46,1.15-3.6,1.86a130.17,130.17,0,0,1-23.93,11.6,140.72,140.72,0,0,1-22.15,6.16c-2.68.51-5.39.93-8.11,1.21-1,.1-.59.88-1,1.23.11-3.23.33-6.46.32-9.69,0-3.75-.25-7.5-.38-11.25C1361.89,234.3,1361.89,233.94,1361.89,233.58Z"/><path class="cls-13" d="M1258.47,109.2a62.36,62.36,0,0,1,2.32-12.49,87.8,87.8,0,0,1,7-17.87,85.36,85.36,0,0,1,9.8-14.78c.51-.61,1-1.23,1.51-1.84q6.09,6.48,12.78,12.33c.3.55-.1.9-.39,1.26a69.52,69.52,0,0,0-14.73,33.72,7,7,0,0,1-.29,1.28c-.12.32-.32.57-.72.33-3.07-.4-6.11-1-9.2-1.29-2.25-.21-4.51-.39-6.77-.48C1259.33,109.35,1258.9,109.26,1258.47,109.2Z"/><path class="cls-14" d="M1326.87,97c-.46,1.17-1.52,1.82-2.35,2.66a27.47,27.47,0,0,0-6.66,11.33,30.08,30.08,0,0,0,.43,19.23c.14.41.58.81.19,1.31a98,98,0,0,0-16.72-11.24c-2.49-1.26-5-2.42-7.54-3.63a18.54,18.54,0,0,1,.44-4.27,52.92,52.92,0,0,1,11.69-26,3.35,3.35,0,0,1,.6-.59c4.39,2.78,8.88,5.4,13.42,7.94C1322.49,94.87,1324.7,95.9,1326.87,97Z"/><path class="cls-15" d="M1307,85.75c-.58,1.62-1.92,2.7-2.86,4.06a52.59,52.59,0,0,0-8.65,20c-.41,2.1-.65,4.22-1,6.33a2,2,0,0,1-.24.52c-3.67-1.3-7.29-2.74-11.07-3.7-2.47-.63-4.94-1.22-7.41-1.82.83-.33.61-1.15.69-1.73A68.36,68.36,0,0,1,1281.85,91a76.21,76.21,0,0,1,8.8-14.7c.42-.56,1.16-.9,1.22-1.72,4.25,3.53,8.74,6.76,13.2,10C1305.66,85,1306.32,85.36,1307,85.75Z"/><path class="cls-16" d="M1164.39,133a28.5,28.5,0,0,1-.44-5.45c-.13-4.23,0-8.47,0-12.71,0-.45.19-1-.27-1.34l5.82-1.51L1133.2,99.59q-.09-.07-.06-.15s0-.08,0-.08c4.11,1,8.2,2,12.37,2.75a123.85,123.85,0,0,0,33.73,1.62l3.81-.31a1.66,1.66,0,0,1,.37,1.47,183.68,183.68,0,0,0-.71,18.91,1.58,1.58,0,0,1-.37,1.23,19.73,19.73,0,0,1-3.68,1.68c-4.32,1.85-8.63,3.74-12.88,5.75A3.72,3.72,0,0,1,1164.39,133Z"/><path class="cls-12" d="M1242.6,77.94a5,5,0,0,1-.48,2.68A102.86,102.86,0,0,0,1237,98.5a75.57,75.57,0,0,0-1.56,11.9c-3.68.64-7.36,1.24-11,1.93-2.58.48-5.13,1.08-7.69,1.63a2.06,2.06,0,0,1-.34-1.71,141.28,141.28,0,0,1,1.84-15.35c.25-1.33.44-2.68.63-4a154.63,154.63,0,0,0,13.9-7.88q4.88-3.21,9.44-6.87A1.46,1.46,0,0,1,1242.6,77.94Z"/><path class="cls-17" d="M1182.39,125c0-2.84-.06-5.67,0-8.51.09-3.38.25-6.76.5-10.13a29.23,29.23,0,0,0,.19-3c3-.51,5.89-1,8.83-1.54,4-.74,7.9-1.92,11.82-3a1.44,1.44,0,0,1,.32,1.34c-.78,5.47-1,11-1.39,16.47,0,.52,0,1.06-.6,1.35-6.44,2.13-12.83,4.36-19.11,6.92A2.2,2.2,0,0,1,1182.39,125Z"/><path class="cls-18" d="M1202.08,118.05a11.27,11.27,0,0,0,.44-3.4,112.7,112.7,0,0,1,1.2-14.21,13.32,13.32,0,0,0,0-1.55c3.77-1.41,7.6-2.68,11.27-4.34,1.27-.57,2.55-1.11,3.82-1.67.71,1,.1,2-.07,3-.72,3.88-1.27,7.78-1.6,11.72-.17,2.13-.47,4.25-.46,6.39Q1209.34,115.84,1202.08,118.05Z"/><path class="cls-6" d="M1432,154.12a14.46,14.46,0,0,1,.16-3.6A14,14,0,0,1,1432,154.12Z"/><path class="cls-6" d="M1431.76,159.64c.08-.89-.23-1.79.18-2.65A8.45,8.45,0,0,1,1431.76,159.64Z"/><path class="cls-6" d="M1431.52,164c.06-.73-.21-1.48.18-2.17A5.49,5.49,0,0,1,1431.52,164Z"/><path class="cls-19" d="M1205.2,447.15l.24.25a1.42,1.42,0,0,1-1.27.27Z"/><path class="cls-20" d="M1133.19,99.36c0,.08,0,.15,0,.23l-1.67-.48c-.08,0-.11-.11-.09-.16s0-.09.07-.09A3.46,3.46,0,0,1,1133.19,99.36Z"/><path class="cls-21" d="M1131.51,98.86l0,.25-1.71-.6A2,2,0,0,1,1131.51,98.86Z"/><path class="cls-2" d="M822.47,134.55c2.93-2.49,5.9-4.92,8.66-7.61a104.38,104.38,0,0,0,13.45-15.63h.81a68.67,68.67,0,0,0,5.72,7.44c.7.86,1.44,1.69,2.16,2.53.09.44-.24.67-.47,1A74.25,74.25,0,0,0,836.16,160a1.42,1.42,0,0,1-.3.95c-2.89,0-5.79,0-8.69.11-3.36.13-6.71.44-10,.89-.24,0-.47,0-.71,0a1.78,1.78,0,0,1-.25-1.45,92.06,92.06,0,0,1,5.58-23.66A16.75,16.75,0,0,1,822.47,134.55Z"/><path class="cls-3" d="M874,291.47a55.29,55.29,0,0,1-2.62,9.63c-4.38,12.5-11.39,23.43-20,33.36a119,119,0,0,1-13.65,13.38,1.31,1.31,0,0,1-1.83.11,89.26,89.26,0,0,1-20.38-17.74c-10.64-12.36-18.34-26.47-24.54-41.44a260.54,260.54,0,0,1-14.44-48c-1.15-5.62-2.15-11.25-2.9-16.94-.07-.51,0-.77.47-1a130.33,130.33,0,0,1,17.26-7.44,2.44,2.44,0,0,1,.39-.06c.66,0,.67.6.83,1a126,126,0,0,0,44.8,56.95,125,125,0,0,0,35.89,17.51C873.55,290.81,874.19,290.73,874,291.47Z"/><path class="cls-4" d="M667.51,288.89c2.32-3.28,4.79-6.44,7.36-9.52a201.45,201.45,0,0,1,40.25-37.05,164,164,0,0,1,19.67-11.65c1.22-.61,1.22-.6,1.51.68a424.58,424.58,0,0,0,20.57,66.9c6.44,16.06,14,31.58,23.58,46a128.78,128.78,0,0,0,19.39,23.3,61.34,61.34,0,0,0,5.71,4.84c.81.6.65.91.07,1.5a68.37,68.37,0,0,1-12,9.54c-11.12,7.11-23.23,12-35.86,15.59a209.41,209.41,0,0,1-33.2,6.55,12.48,12.48,0,0,1-2.07.17c.16-.41.54-.49.84-.65,12.1-6.77,24.1-13.71,35.62-21.45a101.32,101.32,0,0,0,11.37-8.61c.64-.58.76-.92.12-1.66a290.19,290.19,0,0,1-27.17-37.63,239.87,239.87,0,0,1-17.84-35,156.49,156.49,0,0,1-9.64-33.45c-.31-1.9-.56-3.8-.74-5.72-.08-.91-.42-.87-1.11-.63A131.17,131.17,0,0,0,695,269.35a122.72,122.72,0,0,0-26,18.5l-1.29,1.22Z"/><path class="cls-4" d="M790.89,446.28c15.35-8.91,30.57-18,45.66-27.68a193.91,193.91,0,0,1-17.94-10c1.82-.81,3.45-1.53,5.06-2.26A231.48,231.48,0,0,0,869,379.84c13.81-10.51,25.85-22.71,35.28-37.35a120.56,120.56,0,0,0,13.2-27.69c0-.16.13-.31.19-.46a5.12,5.12,0,0,1,2.46-.44,136.8,136.8,0,0,0,25.91-4.16c3.66-.93,7.27-2,10.85-3.24.58-.2,1.2-.55,1.81,0-1.64,3.91-3.51,7.71-5.43,11.48a265.47,265.47,0,0,1-18.55,30.61,186.38,186.38,0,0,1-17.48,22A245.27,245.27,0,0,1,870,409.38,352.81,352.81,0,0,1,806.41,441c-5.07,1.94-10.16,3.81-15.32,5.5C790.88,446.56,790.84,446.47,790.89,446.28Z"/><path class="cls-5" d="M874,291.47c0-.37-.3-.37-.56-.45a124.46,124.46,0,0,1-16.51-6.25A122.29,122.29,0,0,1,839,274.66a128.88,128.88,0,0,1-11.05-8.43,122,122,0,0,1-10-9.45,126.23,126.23,0,0,1-11.86-14.62,129,129,0,0,1-10.26-17.61c-1.28-2.67-2.45-5.39-3.53-8.15a2.65,2.65,0,0,0-.62-1.14,68.21,68.21,0,0,1,11.06-3A56.76,56.76,0,0,1,813.53,211a26.46,26.46,0,0,1,3.33-.09c.55,0,.63.44.79.79a107.47,107.47,0,0,0,5.71,10.83,101.44,101.44,0,0,0,31.22,32.26,102.14,102.14,0,0,0,18.24,9.4c.5.2,1.08.15,1.52.52a63.56,63.56,0,0,1,1.11,9.62,69.9,69.9,0,0,1-1.33,16.77A1.34,1.34,0,0,1,874,291.47Z"/><path class="cls-6" d="M920.35,245.7c-.83-3.36-1.63-6.73-2.49-10.08-1-3.78-2.25-7.47-3.38-11.2-.29-.78.24-.84.77-.91,1.67-.23,3.35-.44,5-.78A54.37,54.37,0,0,0,945.86,210a53.72,53.72,0,0,0,14.66-21.9,56.57,56.57,0,0,0,3.1-14.3c.12-1.24.08-2.49.24-3.73,0-.34,0-.69.27-1,5.07.46,10.15.73,15.24.89.77,0,1.55,0,2.32-.05.52,0,.7.16.72.69.3,6.64.32,13.29.29,19.93,0,1.21-.11,2.42-.16,3.63a3.46,3.46,0,0,0-.83,1.48,74.55,74.55,0,0,1-13.18,23,77.75,77.75,0,0,1-19.4,16.71,74.32,74.32,0,0,1-22.37,8.94,51.84,51.84,0,0,1-5.37,1A5.39,5.39,0,0,0,920.35,245.7Z"/><path class="cls-7" d="M904.32,200.73a56.73,56.73,0,0,0-6.24-9.06,96.66,96.66,0,0,0-11.55-11.87c-3.53-9.37-2.33-18.05,3.86-26a20.24,20.24,0,0,1,3.22-3.19l6.47,2.81a200.89,200.89,0,0,0,39.12,11.95c.56.11,1.1.26,1.66.4.7,7.26-.42,14.16-4.36,20.4a30.76,30.76,0,0,1-23,14.7A41.46,41.46,0,0,1,904.32,200.73Z"/><path class="cls-8" d="M904.32,200.73a.64.64,0,0,1,.73-.25c1.28.31,2.61.1,3.9.33a16.27,16.27,0,0,0,4.62-.2,29.82,29.82,0,0,0,11-3.45,31.22,31.22,0,0,0,5.88-4.21,29.67,29.67,0,0,0,7.49-10,31,31,0,0,0,2.75-11c.1-1.72-.13-3.41-.06-5.11,0-.36-.13-.76.23-1l8.75,1.45c4.82.8,9.67,1.3,14.52,1.84a59.49,59.49,0,0,1-2.8,17.52,56.32,56.32,0,0,1-9.86,17.94,51.3,51.3,0,0,1-13.56,11.62,53.71,53.71,0,0,1-18.39,7c-1.48.25-3,.44-4.48.61-.45,0-.57.26-.56.65-1.39-3.58-2.65-7.19-4.14-10.73-1.73-4.12-3.64-8.15-5.66-12.14C904.55,201.28,904.44,201,904.32,200.73Z"/><path class="cls-4" d="M667.27,245.88a35.68,35.68,0,0,1,3.48-6,162.8,162.8,0,0,1,17.3-21.62,255.05,255.05,0,0,1,18.76-18.15,1.44,1.44,0,0,0,.51-1.3c-.13-2.76-.21-5.53-.25-8.29-.09-6.11,0-12.21.2-18.31.05-1.93.05-1.9,2-1.94,7.28-.19,14.55-.66,21.78-1.52,7.81-.93,15.55-2.18,23.22-3.87.52-.11,1-.18,1.57-.27.73.2.55.84.55,1.32,0,2.63.06,5.27,0,7.9,0,2.06.22,4.11.24,6.16a1.61,1.61,0,0,1-.15,1.08,271.38,271.38,0,0,0-35.57,20.71,386.36,386.36,0,0,0-36.76,27.67,162.83,162.83,0,0,0-16,15.72C667.85,245.43,667.66,245.77,667.27,245.88Z"/><path class="cls-9" d="M958.72,306.47a3.18,3.18,0,0,0-1.58.25,140.28,140.28,0,0,1-13.93,4,131.18,131.18,0,0,1-12.92,2.41c-3.39.42-6.77.88-10.19,1-.8,0-1.6.21-2.41.16,1-3.62,2.09-7.23,2.89-10.91a132.06,132.06,0,0,0,2.66-18.87c-.06-.9.33-1.24,1.26-1.36a115.6,115.6,0,0,0,23-5.42,110.77,110.77,0,0,0,23.36-11.26,5.89,5.89,0,0,1,1.51-.79c.19-.06.49-.23.49.2-.83,2.95-1.68,5.9-2.48,8.85a203.43,203.43,0,0,1-6.65,19.79C962.18,298.58,960.6,302.59,958.72,306.47Z"/><path class="cls-10" d="M920.35,245.7c.06-.47.42-.58.8-.64a74,74,0,0,0,20.22-5.93,75.78,75.78,0,0,0,15.93-9.81,77.46,77.46,0,0,0,8.76-8.22,74,74,0,0,0,9.55-12.95,77.35,77.35,0,0,0,6.09-13.28c.16-.44.34-.72.84-.68l0,1.64c-.16,1,.09,2-.14,3l0,2.43c-.2.73.08,1.5-.16,2.23l0,1.82c-.19.6.08,1.24-.16,1.83,0,3.33-.38,6.65-.68,10-.46,5.15-1,10.3-1.76,15.42-.19,1.33-.42,2.66-.63,4a113.11,113.11,0,0,1-11.72,10.26,95.38,95.38,0,0,1-29.6,14.87,86.76,86.76,0,0,1-12.92,2.9c-.95.13-1.16.75-1.48,1.4l-.57-5.42a134.69,134.69,0,0,0-2.16-13.85A8.47,8.47,0,0,1,920.35,245.7Z"/><path class="cls-11" d="M874.34,264.71c-1.63.05-3-.82-4.37-1.42a101.91,101.91,0,0,1-17.67-9.72,107.6,107.6,0,0,1-10.5-8.31c-2.24-2-4.39-4.11-6.42-6.31a98.4,98.4,0,0,1-11.63-15.3,105.75,105.75,0,0,1-6.35-11.94,1,1,0,0,0-1.13-.71c-.91,0-1.83,0-2.74,0a32,32,0,0,1,7.25,0A52.59,52.59,0,0,1,841,216.61a57.22,57.22,0,0,1,20.24,17.51,76.84,76.84,0,0,1,13.09,30.39A1.33,1.33,0,0,1,874.34,264.71Z"/><path class="cls-12" d="M923.18,266c.05-1.42.11-1.49,1.43-1.66a79.26,79.26,0,0,0,11.78-2.55,94,94,0,0,0,17.42-6.9,96,96,0,0,0,15.84-10.34A90.86,90.86,0,0,0,978,237a1.1,1.1,0,0,1,.95-.47c-.62,4.67-1.5,9.29-2.42,13.9-1,5-2.12,10-3.42,14.94a5.2,5.2,0,0,1-.21.55c-1.25.06-2.08,1-3,1.57a110.55,110.55,0,0,1-20.21,9.8,118.89,118.89,0,0,1-18.7,5.19c-2.27.44-4.55.79-6.85,1-.83.09-.49.74-.81,1,.1-2.73.28-5.46.27-8.18,0-3.17-.2-6.34-.32-9.5C923.18,266.57,923.19,266.27,923.18,266Z"/><path class="cls-13" d="M835.86,161a53.18,53.18,0,0,1,2-10.55,75.13,75.13,0,0,1,5.9-15.09A73.65,73.65,0,0,1,852,122.83c.43-.51.85-1,1.27-1.55q5.15,5.48,10.79,10.41c.26.47-.08.76-.33,1.07a58.71,58.71,0,0,0-12.43,28.46,5.75,5.75,0,0,1-.25,1.09c-.1.27-.27.48-.6.27-2.6-.33-5.16-.84-7.77-1.08-1.9-.18-3.81-.34-5.72-.41A10.34,10.34,0,0,1,835.86,161Z"/><path class="cls-14" d="M893.61,150.65c-.38,1-1.28,1.53-2,2.24a23.33,23.33,0,0,0-5.63,9.57,25.44,25.44,0,0,0,.37,16.24c.12.34.49.68.16,1.1a81.88,81.88,0,0,0-14.12-9.49c-2.1-1.07-4.24-2-6.36-3.06a16.15,16.15,0,0,1,.37-3.61,44.7,44.7,0,0,1,9.87-22,2.9,2.9,0,0,1,.5-.49c3.71,2.35,7.51,4.55,11.33,6.7C889.92,148.85,891.78,149.72,893.61,150.65Z"/><path class="cls-15" d="M876.79,141.15c-.48,1.37-1.61,2.28-2.41,3.43a44.44,44.44,0,0,0-7.3,16.89c-.34,1.76-.55,3.56-.83,5.34a1.72,1.72,0,0,1-.2.44c-3.1-1.1-6.16-2.32-9.35-3.13-2.08-.53-4.17-1-6.25-1.54.7-.27.51-1,.58-1.45a57.66,57.66,0,0,1,4.57-15.58A65,65,0,0,1,863,133.14c.36-.47,1-.75,1-1.45,3.6,3,7.38,5.71,11.15,8.47C875.71,140.52,876.26,140.82,876.79,141.15Z"/><path class="cls-16" d="M756.43,181.05a23.67,23.67,0,0,1-.37-4.6c-.11-3.57,0-7.15,0-10.73,0-.38.15-.82-.23-1.13l4.91-1.28-30.6-10.48q-.08-.06-.06-.12c0-.05,0-.07.05-.07,3.47.81,6.93,1.69,10.44,2.32A104.59,104.59,0,0,0,769,156.33c1.07-.1,2.15-.17,3.22-.26a1.39,1.39,0,0,1,.31,1.23,155,155,0,0,0-.59,16,1.42,1.42,0,0,1-.32,1,16.76,16.76,0,0,1-3.11,1.41c-3.65,1.56-7.28,3.16-10.87,4.86A3.28,3.28,0,0,1,756.43,181.05Z"/><path class="cls-12" d="M822.47,134.55a4.18,4.18,0,0,1-.41,2.26,87.34,87.34,0,0,0-4.33,15.1A64.13,64.13,0,0,0,816.41,162c-3.1.53-6.22,1-9.31,1.62-2.18.41-4.33.91-6.49,1.38a1.72,1.72,0,0,1-.29-1.45,122.82,122.82,0,0,1,1.55-13c.22-1.12.37-2.26.54-3.39a130.47,130.47,0,0,0,11.73-6.66,98.17,98.17,0,0,0,8-5.8A2,2,0,0,1,822.47,134.55Z"/><path class="cls-17" d="M771.63,174.32c0-2.4,0-4.8,0-7.19.08-2.85.22-5.71.43-8.55.06-.84.17-1.67.16-2.51,2.49-.43,5-.84,7.45-1.3,3.38-.63,6.67-1.63,10-2.53a1.26,1.26,0,0,1,.28,1.14c-.67,4.61-.86,9.26-1.18,13.9,0,.44,0,.9-.51,1.14-5.43,1.8-10.83,3.68-16.13,5.84A2,2,0,0,1,771.63,174.32Z"/><path class="cls-18" d="M788.25,168.42a9.68,9.68,0,0,0,.38-2.87,94.59,94.59,0,0,1,1-12,9.52,9.52,0,0,0,0-1.31c3.19-1.19,6.42-2.26,9.52-3.66,1.07-.48,2.15-.94,3.23-1.41.6.84.08,1.71-.07,2.5-.6,3.29-1.07,6.58-1.34,9.91-.15,1.79-.4,3.58-.39,5.39C796.46,166,792.35,167.18,788.25,168.42Z"/><path class="cls-6" d="M982.38,198.87a11.91,11.91,0,0,1,.14-3A12.36,12.36,0,0,1,982.38,198.87Z"/><path class="cls-6" d="M982.17,203.53c.07-.74-.19-1.51.16-2.23A7,7,0,0,1,982.17,203.53Z"/><path class="cls-6" d="M982,207.18c.06-.61-.17-1.25.16-1.83A4.92,4.92,0,0,1,982,207.18Z"/><path class="cls-19" d="M790.89,446.28l.2.21a1.16,1.16,0,0,1-1.07.23Z"/><path class="cls-20" d="M730.09,152.64c0,.06,0,.13,0,.19l-1.41-.4c-.07-.05-.09-.09-.08-.14s0-.07.06-.07A2.86,2.86,0,0,1,730.09,152.64Z"/><path class="cls-21" d="M728.67,152.22l0,.21-1.45-.51A1.7,1.7,0,0,1,728.67,152.22Z"/><path class="cls-2" d="M442.78,223.43c2.11-1.79,4.25-3.54,6.23-5.47a74.94,74.94,0,0,0,9.66-11.23h.59a48.26,48.26,0,0,0,4.11,5.34c.5.62,1,1.22,1.55,1.82.07.32-.17.49-.34.69a53.44,53.44,0,0,0-12,27.14,1,1,0,0,1-.21.68c-2.08,0-4.17,0-6.25.08-2.41.1-4.82.32-7.22.64a4.34,4.34,0,0,1-.51,0,1.24,1.24,0,0,1-.18-1,66.21,66.21,0,0,1,4-17A12.27,12.27,0,0,1,442.78,223.43Z"/><path class="cls-3" d="M479.8,336.21a41.28,41.28,0,0,1-1.89,6.93,73.54,73.54,0,0,1-14.4,24,86.44,86.44,0,0,1-9.81,9.61.94.94,0,0,1-1.32.08,64.2,64.2,0,0,1-14.65-12.75c-7.65-8.88-13.18-19-17.64-29.78a187.55,187.55,0,0,1-10.38-34.53c-.82-4-1.54-8.09-2.08-12.18a.59.59,0,0,1,.34-.74,94.42,94.42,0,0,1,12.4-5.35,2.54,2.54,0,0,1,.29,0c.47,0,.48.43.59.71a90.44,90.44,0,0,0,4,8.74A91.69,91.69,0,0,0,434,304.47a91,91,0,0,0,19.5,18.62,88.69,88.69,0,0,0,12.72,7.48,87.29,87.29,0,0,0,13.08,5.1C479.5,335.74,480,335.69,479.8,336.21Z"/><path class="cls-4" d="M331.41,334.36c1.66-2.36,3.44-4.63,5.29-6.84a144.3,144.3,0,0,1,28.93-26.63,117.42,117.42,0,0,1,14.13-8.37c.88-.44.88-.44,1.09.49a305.6,305.6,0,0,0,14.78,48.08,181.13,181.13,0,0,0,16.95,33.08,92.73,92.73,0,0,0,13.94,16.74,43.82,43.82,0,0,0,4.1,3.48c.59.43.47.66.05,1.08a49.33,49.33,0,0,1-8.65,6.86,96.75,96.75,0,0,1-25.78,11.2,149.85,149.85,0,0,1-23.86,4.71,8.82,8.82,0,0,1-1.49.12c.12-.3.4-.35.61-.47,8.7-4.86,17.32-9.85,25.6-15.42a71,71,0,0,0,8.18-6.18c.45-.42.54-.66.08-1.19a209.91,209.91,0,0,1-19.53-27.05A171.29,171.29,0,0,1,373,342.87a112.29,112.29,0,0,1-6.93-24c-.22-1.36-.4-2.74-.53-4.11-.06-.65-.3-.63-.8-.45a92.81,92.81,0,0,0-13.6,6.05,88,88,0,0,0-18.68,13.3l-.93.87Z"/><path class="cls-4" d="M420.09,447.49c11-6.41,22-13,32.82-19.9a142,142,0,0,1-12.9-7.2l3.64-1.62a166.63,166.63,0,0,0,32.59-19,105.84,105.84,0,0,0,25.36-26.85,86.81,86.81,0,0,0,9.49-19.9,1.83,1.83,0,0,1,.14-.32,3.71,3.71,0,0,1,1.76-.33,97.89,97.89,0,0,0,18.63-3c2.63-.67,5.22-1.47,7.79-2.33.42-.14.87-.4,1.3,0-1.17,2.81-2.52,5.54-3.9,8.25a190.75,190.75,0,0,1-13.33,22,135,135,0,0,1-12.56,15.82,176.17,176.17,0,0,1-34,27.89,253.91,253.91,0,0,1-45.68,22.72c-3.64,1.4-7.3,2.74-11,4C420.08,447.69,420.05,447.62,420.09,447.49Z"/><path class="cls-5" d="M479.8,336.21c0-.26-.22-.26-.41-.32a89.74,89.74,0,0,1-11.86-4.49,87.75,87.75,0,0,1-12.89-7.27,93,93,0,0,1-7.94-6.06,88.38,88.38,0,0,1-7.17-6.78,92.05,92.05,0,0,1-15.89-23.17c-.92-1.92-1.76-3.88-2.54-5.86a2,2,0,0,0-.44-.82,49.57,49.57,0,0,1,7.94-2.16,40.49,40.49,0,0,1,7.76-.9,17.35,17.35,0,0,1,2.39-.06c.4,0,.46.31.57.56a77.18,77.18,0,0,0,4.11,7.79,72.89,72.89,0,0,0,22.43,23.18A73.9,73.9,0,0,0,479,316.61c.36.14.78.1,1.09.37a44.58,44.58,0,0,1,.8,6.92,50.74,50.74,0,0,1-.95,12.05A2,2,0,0,1,479.8,336.21Z"/><path class="cls-6" d="M513.13,303.32c-.59-2.42-1.17-4.84-1.79-7.25-.69-2.72-1.61-5.37-2.43-8.05-.21-.55.18-.6.56-.65,1.2-.17,2.4-.32,3.59-.56a39,39,0,0,0,18.41-9.17A38.49,38.49,0,0,0,542,261.9a40.25,40.25,0,0,0,2.22-10.28c.09-.88.07-1.79.18-2.68,0-.24,0-.49.2-.68,3.64.33,7.29.53,10.95.64.55,0,1.11,0,1.67,0,.37,0,.49.11.51.49.22,4.78.23,9.55.21,14.33,0,.87-.08,1.74-.12,2.61a2.66,2.66,0,0,0-.6,1.06,53.44,53.44,0,0,1-9.47,16.52,55.84,55.84,0,0,1-13.94,12,53.55,53.55,0,0,1-16.08,6.43c-1.28.28-2.55.57-3.86.73A3.55,3.55,0,0,0,513.13,303.32Z"/><path class="cls-7" d="M501.62,271a41.31,41.31,0,0,0-4.49-6.5,69,69,0,0,0-8.3-8.53c-2.54-6.74-1.68-13,2.77-18.67a14.36,14.36,0,0,1,2.32-2.29c1.55.67,3.09,1.36,4.65,2a143.75,143.75,0,0,0,28.11,8.59c.4.08.8.19,1.19.28a22.57,22.57,0,0,1-3.13,14.67,22.09,22.09,0,0,1-16.53,10.57A29.64,29.64,0,0,1,501.62,271Z"/><path class="cls-8" d="M501.62,271a.46.46,0,0,1,.52-.17c.92.22,1.87.07,2.8.24a11.54,11.54,0,0,0,3.32-.15,21.37,21.37,0,0,0,7.91-2.48,23.13,23.13,0,0,0,4.23-3,21.47,21.47,0,0,0,5.38-7.2,22.14,22.14,0,0,0,2-7.89c.08-1.24-.09-2.45,0-3.68,0-.25-.09-.54.16-.75l6.3,1.05c3.46.57,7,.94,10.44,1.32a43.06,43.06,0,0,1-2,12.6,40.55,40.55,0,0,1-7.09,12.89,36.72,36.72,0,0,1-9.74,8.35,38.47,38.47,0,0,1-13.22,5c-1.07.18-2.14.31-3.22.43-.33,0-.41.19-.41.47-1-2.57-1.9-5.17-3-7.71-1.24-3-2.62-5.86-4.07-8.72C501.78,271.39,501.7,271.19,501.62,271Z"/><path class="cls-4" d="M331.23,303.45a26.2,26.2,0,0,1,2.5-4.33,117.67,117.67,0,0,1,12.44-15.54,184.32,184.32,0,0,1,13.48-13,1,1,0,0,0,.37-.94c-.1-2-.15-4-.18-6-.06-4.39,0-8.77.14-13.16,0-1.39,0-1.36,1.41-1.39,5.23-.14,10.45-.47,15.65-1.09,5.61-.67,11.18-1.57,16.69-2.79.37-.08.75-.13,1.13-.19.52.15.39.6.39.95,0,1.89.05,3.78,0,5.68,0,1.48.16,2.95.18,4.43a1.21,1.21,0,0,1-.11.77,195.86,195.86,0,0,0-25.57,14.89,276.31,276.31,0,0,0-26.42,19.88,116.94,116.94,0,0,0-11.51,11.3C331.65,303.12,331.52,303.37,331.23,303.45Z"/><path class="cls-9" d="M540.71,347a2.44,2.44,0,0,0-1.13.17,97,97,0,0,1-10,2.9c-3.08.7-6.16,1.35-9.29,1.74-2.44.3-4.87.63-7.33.73-.57,0-1.14.15-1.72.12.72-2.61,1.49-5.2,2.07-7.85a94,94,0,0,0,1.91-13.56c0-.65.24-.89.91-1a82.88,82.88,0,0,0,16.52-3.9,79.65,79.65,0,0,0,16.79-8.08,4.24,4.24,0,0,1,1.09-.58c.13,0,.35-.16.35.15-.59,2.12-1.21,4.24-1.78,6.36a147.44,147.44,0,0,1-4.78,14.22C543.2,341.33,542.07,344.21,540.71,347Z"/><path class="cls-10" d="M513.13,303.32c0-.34.3-.42.58-.46a53,53,0,0,0,14.53-4.27,54.42,54.42,0,0,0,11.46-7,56.6,56.6,0,0,0,6.29-5.9,53.67,53.67,0,0,0,6.87-9.31,56.26,56.26,0,0,0,4.37-9.54c.12-.32.24-.52.6-.49v1.18c-.12.72.06,1.46-.1,2.18l0,1.74c-.14.53.06,1.08-.11,1.61l0,1.31c-.14.43.06.89-.11,1.31,0,2.4-.28,4.78-.49,7.16-.33,3.71-.74,7.4-1.27,11.09-.14.95-.3,1.9-.45,2.86a82,82,0,0,1-8.42,7.37,68.35,68.35,0,0,1-21.28,10.68,61.74,61.74,0,0,1-9.29,2.09c-.68.1-.83.54-1.06,1-.14-1.3-.28-2.6-.41-3.9a96.29,96.29,0,0,0-1.55-10C513.16,303.8,513.16,303.56,513.13,303.32Z"/><path class="cls-11" d="M480.06,317a7.46,7.46,0,0,1-3.14-1,74.32,74.32,0,0,1-12.7-7,77.28,77.28,0,0,1-7.54-6c-1.61-1.44-3.16-2.95-4.61-4.53a71.08,71.08,0,0,1-8.37-11,74.9,74.9,0,0,1-4.56-8.58.72.72,0,0,0-.81-.51c-.66,0-1.31,0-2,0a22.14,22.14,0,0,1,5.21,0,37.84,37.84,0,0,1,14.54,4A41.22,41.22,0,0,1,470.66,295a55.42,55.42,0,0,1,9.41,21.85A.71.71,0,0,1,480.06,317Z"/><path class="cls-12" d="M515.17,317.89c0-1,.08-1.07,1-1.19a58.25,58.25,0,0,0,8.46-1.84,67.57,67.57,0,0,0,12.52-5,68.34,68.34,0,0,0,11.39-7.43,64.84,64.84,0,0,0,6-5.39.79.79,0,0,1,.69-.34c-.44,3.35-1.08,6.67-1.74,10-.72,3.6-1.53,7.18-2.46,10.73a2.74,2.74,0,0,1-.15.4c-.9,0-1.5.7-2.19,1.13a79.43,79.43,0,0,1-14.52,7,84.74,84.74,0,0,1-13.44,3.73c-1.63.32-3.27.57-4.92.74-.6.06-.36.53-.59.75.07-2,.21-3.92.2-5.88,0-2.28-.15-4.55-.23-6.83C515.17,318.32,515.17,318.1,515.17,317.89Z"/><path class="cls-13" d="M452.41,242.4a37.52,37.52,0,0,1,1.41-7.58A53.37,53.37,0,0,1,458.06,224a52.1,52.1,0,0,1,5.95-9c.31-.37.61-.75.91-1.12q3.7,3.93,7.76,7.49c.18.33-.06.54-.24.76a42.26,42.26,0,0,0-8.94,20.46,4,4,0,0,1-.17.78c-.08.2-.19.35-.44.2-1.86-.24-3.71-.6-5.58-.78-1.37-.13-2.74-.24-4.11-.29A6.83,6.83,0,0,1,452.41,242.4Z"/><path class="cls-14" d="M493.92,235a5.13,5.13,0,0,1-1.43,1.61,16.87,16.87,0,0,0-4,6.88,18.29,18.29,0,0,0,.26,11.67c.09.25.36.49.12.8a58.75,58.75,0,0,0-10.15-6.83c-1.51-.76-3.05-1.47-4.57-2.2a11.27,11.27,0,0,1,.26-2.59,32.15,32.15,0,0,1,7.1-15.81,2,2,0,0,1,.36-.36c2.67,1.69,5.39,3.28,8.14,4.82C491.26,233.71,492.6,234.33,493.92,235Z"/><path class="cls-15" d="M481.83,228.17a11.14,11.14,0,0,1-1.74,2.47,32,32,0,0,0-5.24,12.13c-.25,1.28-.4,2.57-.6,3.85a1.23,1.23,0,0,1-.14.31c-2.23-.79-4.43-1.66-6.72-2.25l-4.5-1.1c.51-.2.37-.7.42-1.05a41.27,41.27,0,0,1,3.29-11.19,46,46,0,0,1,5.34-8.92c.25-.34.71-.55.74-1,2.58,2.14,5.3,4.1,8,6.08C481.05,227.72,481.45,227.94,481.83,228.17Z"/><path class="cls-16" d="M395.32,256.85a17.54,17.54,0,0,1-.27-3.31c-.08-2.56,0-5.14,0-7.71,0-.27.11-.59-.16-.81l3.53-.92-22-7.53s-.05-.06,0-.09,0,0,0,0c2.5.58,5,1.22,7.51,1.67a75.53,75.53,0,0,0,20.47,1c.77-.08,1.54-.13,2.32-.19a1,1,0,0,1,.22.88,110.12,110.12,0,0,0-.43,11.49,1,1,0,0,1-.23.74,11.51,11.51,0,0,1-2.23,1c-2.63,1.12-5.24,2.27-7.82,3.49A2.25,2.25,0,0,1,395.32,256.85Z"/><path class="cls-12" d="M442.78,223.43a3,3,0,0,1-.29,1.63,62.21,62.21,0,0,0-3.11,10.85,45,45,0,0,0-.95,7.22c-2.23.39-4.47.75-6.69,1.17-1.57.29-3.12.66-4.67,1a1.24,1.24,0,0,1-.2-1,86,86,0,0,1,1.11-9.31c.15-.81.27-1.63.38-2.44,2.87-1.49,5.73-3,8.44-4.78q3-2,5.72-4.17A1.51,1.51,0,0,1,442.78,223.43Z"/><path class="cls-17" d="M406.24,252c0-1.72,0-3.44,0-5.16q.09-3.07.31-6.15c0-.6.12-1.2.12-1.8,1.78-.31,3.57-.61,5.35-.94,2.43-.45,4.79-1.17,7.17-1.82a.9.9,0,0,1,.2.82c-.48,3.32-.61,6.66-.84,10,0,.31,0,.64-.37.81-3.9,1.29-7.79,2.65-11.6,4.2A1,1,0,0,1,406.24,252Z"/><path class="cls-18" d="M418.19,247.77a6.86,6.86,0,0,0,.27-2.06,67.27,67.27,0,0,1,.73-8.62,7.51,7.51,0,0,0,0-1c2.29-.85,4.61-1.62,6.84-2.62.77-.35,1.55-.68,2.32-1,.44.61.06,1.23,0,1.8a71.21,71.21,0,0,0-1,7.12c-.1,1.29-.29,2.57-.28,3.87Q422.6,246.43,418.19,247.77Z"/><path class="cls-6" d="M557.72,269.66a8.38,8.38,0,0,1,.1-2.18A8.38,8.38,0,0,1,557.72,269.66Z"/><path class="cls-6" d="M557.57,273c0-.53-.14-1.09.11-1.61A4.85,4.85,0,0,1,557.57,273Z"/><path class="cls-6" d="M557.43,275.63c0-.44-.13-.89.11-1.31A3.61,3.61,0,0,1,557.43,275.63Z"/><path class="cls-19" d="M420.09,447.49l.14.15a.85.85,0,0,1-.77.16Z"/><path class="cls-20" d="M376.38,236.43a.66.66,0,0,1,0,.14l-1-.29c-.05,0-.07-.06-.06-.1s0-.05,0-.05A2.13,2.13,0,0,1,376.38,236.43Z"/><path class="cls-21" d="M375.36,236.13l0,.15-1-.37A1.23,1.23,0,0,1,375.36,236.13Z"/><path class="cls-2" d="M149.41,299.09c1.37-1.17,2.77-2.31,4.06-3.57a48.87,48.87,0,0,0,6.3-7.32h.38a33.64,33.64,0,0,0,2.68,3.49c.33.4.68.79,1,1.18,0,.21-.12.32-.22.45a34.7,34.7,0,0,0-7.8,17.7.73.73,0,0,1-.14.45c-1.36,0-2.72,0-4.08,0-1.57.06-3.15.2-4.71.41a1.82,1.82,0,0,1-.33,0,.82.82,0,0,1-.12-.68,43.19,43.19,0,0,1,2.62-11.09A8.44,8.44,0,0,1,149.41,299.09Z"/><path class="cls-3" d="M173.55,372.65a26.17,26.17,0,0,1-1.23,4.51,48,48,0,0,1-9.4,15.64,54.84,54.84,0,0,1-6.39,6.27.61.61,0,0,1-.86.05,41.51,41.51,0,0,1-9.56-8.32,70.82,70.82,0,0,1-11.5-19.42,121.93,121.93,0,0,1-6.77-22.52c-.54-2.63-1-5.27-1.36-7.94,0-.23,0-.36.22-.48a61.47,61.47,0,0,1,8.09-3.49.62.62,0,0,1,.19,0c.31,0,.31.27.38.46a59.3,59.3,0,0,0,21,26.7,58.41,58.41,0,0,0,16.82,8.2C173.35,372.34,173.65,372.3,173.55,372.65Z"/><path class="cls-4" d="M76.77,371.44c1.09-1.54,2.25-3,3.45-4.47a94.27,94.27,0,0,1,18.87-17.36,75.74,75.74,0,0,1,9.22-5.46c.57-.29.57-.29.71.32a199,199,0,0,0,9.64,31.36,118,118,0,0,0,11.05,21.57,61,61,0,0,0,9.09,10.92,29,29,0,0,0,2.68,2.27c.38.28.3.42,0,.7a32,32,0,0,1-5.64,4.47,63.15,63.15,0,0,1-16.81,7.31,98.22,98.22,0,0,1-15.56,3.07,5.19,5.19,0,0,1-1,.08c.08-.19.26-.23.4-.31,5.67-3.17,11.3-6.42,16.7-10.05a46.37,46.37,0,0,0,5.33-4c.3-.26.35-.43,0-.77a136.87,136.87,0,0,1-12.73-17.64A112.72,112.72,0,0,1,103.9,377a73.22,73.22,0,0,1-4.51-15.68c-.15-.89-.27-1.79-.35-2.68,0-.43-.2-.41-.52-.3a60.67,60.67,0,0,0-8.87,3.95A57.43,57.43,0,0,0,77.46,371l-.6.57Z"/><path class="cls-4" d="M134.61,445.22c7.19-4.18,14.33-8.46,21.4-13a92.69,92.69,0,0,1-8.41-4.7l2.37-1.05a108.45,108.45,0,0,0,21.26-12.42,69,69,0,0,0,16.54-17.51,56.65,56.65,0,0,0,6.18-13l.1-.21a2.38,2.38,0,0,1,1.15-.21,64,64,0,0,0,12.14-2c1.72-.43,3.41-.95,5.09-1.52.27-.09.56-.25.85,0-.77,1.83-1.65,3.61-2.55,5.38A125.31,125.31,0,0,1,202,399.41a88.63,88.63,0,0,1-8.2,10.32,115,115,0,0,1-22.17,18.19,165.41,165.41,0,0,1-29.79,14.81c-2.37.91-4.76,1.79-7.18,2.58C134.6,445.35,134.58,445.3,134.61,445.22Z"/><path class="cls-5" d="M173.55,372.65c0-.17-.14-.18-.27-.21a57.71,57.71,0,0,1-7.73-2.94,56.45,56.45,0,0,1-8.41-4.73,61.68,61.68,0,0,1-5.18-4,57.39,57.39,0,0,1-4.67-4.42,60,60,0,0,1-10.37-15.11c-.6-1.25-1.15-2.53-1.65-3.82a1.2,1.2,0,0,0-.29-.53,31,31,0,0,1,5.18-1.41,26.09,26.09,0,0,1,5.06-.59,11.61,11.61,0,0,1,1.56,0c.26,0,.3.2.37.36a50.17,50.17,0,0,0,2.68,5.08A47.37,47.37,0,0,0,173,359.86c.24.09.51.07.71.24a28.59,28.59,0,0,1,.52,4.51,32.48,32.48,0,0,1-.62,7.87S173.57,372.59,173.55,372.65Z"/><path class="cls-6" d="M195.29,351.19c-.39-1.57-.77-3.15-1.17-4.72-.45-1.78-1.05-3.51-1.58-5.25-.14-.37.11-.39.36-.43.78-.11,1.57-.2,2.34-.36a25.53,25.53,0,0,0,12-6,25.15,25.15,0,0,0,6.87-10.27,26.47,26.47,0,0,0,1.45-6.7c.06-.58,0-1.17.12-1.75,0-.16,0-.32.12-.44,2.38.21,4.76.34,7.15.42.36,0,.72,0,1.09,0s.32.08.33.33c.14,3.11.15,6.22.14,9.34,0,.56-.05,1.13-.08,1.7a1.59,1.59,0,0,0-.39.69,34.72,34.72,0,0,1-6.18,10.77,36.49,36.49,0,0,1-9.09,7.84,35,35,0,0,1-10.49,4.19,23.64,23.64,0,0,1-2.51.48A2.58,2.58,0,0,0,195.29,351.19Z"/><path class="cls-7" d="M187.78,330.11a27.35,27.35,0,0,0-2.93-4.24,45.19,45.19,0,0,0-5.41-5.57,11.81,11.81,0,0,1,1.81-12.17,8.88,8.88,0,0,1,1.51-1.49l3,1.31a93.88,93.88,0,0,0,18.34,5.61c.26.05.51.12.77.18a14.67,14.67,0,0,1-2,9.56,14.42,14.42,0,0,1-10.78,6.9A20,20,0,0,1,187.78,330.11Z"/><path class="cls-8" d="M187.78,330.11a.29.29,0,0,1,.34-.11c.6.14,1.22,0,1.83.15a7.82,7.82,0,0,0,2.16-.09,13.89,13.89,0,0,0,5.16-1.62,15.24,15.24,0,0,0,2.76-2,14,14,0,0,0,3.51-4.7,14.46,14.46,0,0,0,1.28-5.14c.05-.81-.06-1.6,0-2.4,0-.17-.06-.35.1-.49l4.11.68c2.26.38,4.53.61,6.8.87a27.91,27.91,0,0,1-1.31,8.21,26.51,26.51,0,0,1-4.62,8.41,24.4,24.4,0,0,1-6.36,5.45,25.27,25.27,0,0,1-8.62,3.27c-.69.12-1.4.2-2.1.28-.21,0-.26.12-.26.31-.65-1.68-1.24-3.37-1.94-5-.81-1.93-1.71-3.82-2.65-5.69A3.29,3.29,0,0,1,187.78,330.11Z"/><path class="cls-4" d="M76.66,351.28a16.24,16.24,0,0,1,1.63-2.83,76,76,0,0,1,8.11-10.13,117.5,117.5,0,0,1,8.79-8.5.69.69,0,0,0,.24-.62c-.06-1.29-.1-2.59-.11-3.88,0-2.87,0-5.73.09-8.59,0-.9,0-.88.91-.91,3.42-.08,6.82-.3,10.21-.71,3.66-.43,7.29-1,10.89-1.81l.73-.13c.35.1.26.39.26.62,0,1.23,0,2.47,0,3.7,0,1,.1,1.93.11,2.89a.7.7,0,0,1-.07.51,127.28,127.28,0,0,0-16.67,9.71,181.17,181.17,0,0,0-17.23,13A75.85,75.85,0,0,0,77,350.94C76.93,351.06,76.84,351.23,76.66,351.28Z"/><path class="cls-9" d="M213.28,379.68a1.56,1.56,0,0,0-.74.11,62.36,62.36,0,0,1-6.53,1.89,59.81,59.81,0,0,1-6.06,1.13c-1.59.2-3.18.42-4.78.48a10.36,10.36,0,0,1-1.12.08c.47-1.7,1-3.39,1.35-5.12a61.48,61.48,0,0,0,1.25-8.84c0-.42.15-.58.59-.64A53.9,53.9,0,0,0,208,366.23,51.65,51.65,0,0,0,219,361a2.83,2.83,0,0,1,.71-.37c.09,0,.23-.11.23.1-.39,1.38-.79,2.76-1.16,4.14a94.49,94.49,0,0,1-3.12,9.28C214.9,376,214.16,377.86,213.28,379.68Z"/><path class="cls-10" d="M195.29,351.19c0-.22.2-.27.37-.3a34.45,34.45,0,0,0,9.48-2.78,35.16,35.16,0,0,0,7.47-4.6,36.51,36.51,0,0,0,4.11-3.85,35.24,35.24,0,0,0,4.48-6.07,36.76,36.76,0,0,0,2.85-6.22c.07-.21.16-.34.39-.32v.77c-.07.47,0,.95-.06,1.42l0,1.14c-.09.34,0,.7-.07,1.05l0,.85c-.09.28,0,.58-.07.86,0,1.56-.18,3.11-.32,4.66-.22,2.42-.48,4.83-.83,7.23-.09.63-.2,1.25-.3,1.87a53.54,53.54,0,0,1-5.49,4.81,44.79,44.79,0,0,1-13.87,7,40.52,40.52,0,0,1-6.06,1.36c-.44.06-.54.35-.69.65l-.27-2.54a62.06,62.06,0,0,0-1-6.49A2.42,2.42,0,0,1,195.29,351.19Z"/><path class="cls-11" d="M173.72,360.1a4.81,4.81,0,0,1-2.05-.66,47.2,47.2,0,0,1-13.2-8.46c-1.05-.94-2.06-1.92-3-3a46.25,46.25,0,0,1-5.45-7.17,50.06,50.06,0,0,1-3-5.6.47.47,0,0,0-.53-.33c-.42,0-.85,0-1.28,0a14.87,14.87,0,0,1,3.4,0,24.72,24.72,0,0,1,9.48,2.62,26.79,26.79,0,0,1,9.49,8.2A36,36,0,0,1,173.72,360,.27.27,0,0,1,173.72,360.1Z"/><path class="cls-12" d="M196.62,360.69c0-.66,0-.69.67-.77a38.51,38.51,0,0,0,5.52-1.2,43.89,43.89,0,0,0,15.59-8.08,41.88,41.88,0,0,0,3.89-3.52.5.5,0,0,1,.44-.22c-.28,2.19-.7,4.35-1.13,6.52-.47,2.34-1,4.68-1.6,7a2.77,2.77,0,0,1-.1.26c-.59,0-1,.45-1.43.73A51.09,51.09,0,0,1,209,366a55.52,55.52,0,0,1-8.76,2.44c-1.07.2-2.14.37-3.21.48-.4,0-.24.35-.38.49,0-1.28.13-2.56.12-3.84,0-1.48-.09-3-.15-4.45Z"/><path class="cls-13" d="M155.69,311.47a25.1,25.1,0,0,1,.91-5,35.19,35.19,0,0,1,2.77-7.07,34.13,34.13,0,0,1,3.88-5.85l.6-.73c1.6,1.71,3.29,3.33,5.06,4.88.11.22,0,.36-.16.5a27.59,27.59,0,0,0-5.83,13.34,2.1,2.1,0,0,1-.11.51c-.05.13-.13.23-.29.13-1.21-.15-2.41-.39-3.64-.51-.89-.08-1.78-.15-2.68-.19A4.43,4.43,0,0,1,155.69,311.47Z"/><path class="cls-14" d="M182.76,306.64a3.34,3.34,0,0,1-.93,1.05,10.86,10.86,0,0,0-2.64,4.48,11.94,11.94,0,0,0,.17,7.61c.06.17.23.33.08.52a38.92,38.92,0,0,0-6.62-4.45c-1-.5-2-1-3-1.43a7.35,7.35,0,0,1,.17-1.69,20.93,20.93,0,0,1,4.63-10.31,1.31,1.31,0,0,1,.23-.24c1.74,1.11,3.52,2.14,5.32,3.15C181,305.8,181.9,306.2,182.76,306.64Z"/><path class="cls-15" d="M174.87,302.18a6.88,6.88,0,0,1-1.13,1.61,21,21,0,0,0-3.42,7.92c-.16.83-.26,1.67-.39,2.5a.78.78,0,0,1-.09.21c-1.46-.51-2.89-1.09-4.39-1.47l-2.93-.72c.33-.13.24-.45.28-.68a27,27,0,0,1,2.14-7.3,30.6,30.6,0,0,1,3.48-5.82c.17-.22.46-.35.49-.68,1.68,1.4,3.45,2.68,5.22,4C174.37,301.89,174.63,302,174.87,302.18Z"/><path class="cls-16" d="M118.45,320.89a11.18,11.18,0,0,1-.17-2.16c0-1.67,0-3.35,0-5,0-.18.07-.38-.11-.53l2.3-.6-14.34-4.91a.09.09,0,0,1,0-.06s0,0,0,0c1.62.38,3.24.79,4.89,1.09a49.38,49.38,0,0,0,13.35.64l1.51-.12a.68.68,0,0,1,.15.58,69.17,69.17,0,0,0-.28,7.48.67.67,0,0,1-.15.49,7.35,7.35,0,0,1-1.46.66c-1.71.74-3.41,1.48-5.1,2.28A1.41,1.41,0,0,1,118.45,320.89Z"/><path class="cls-12" d="M149.41,299.09a1.93,1.93,0,0,1-.19,1.06,40.59,40.59,0,0,0-2,7.08,29.93,29.93,0,0,0-.62,4.71c-1.46.25-2.91.49-4.37.76-1,.19-2,.43-3,.65a.83.83,0,0,1-.13-.68,56.44,56.44,0,0,1,.72-6.07c.1-.53.18-1.06.25-1.59a59.42,59.42,0,0,0,5.5-3.12c1.29-.85,2.54-1.75,3.74-2.72A.89.89,0,0,1,149.41,299.09Z"/><path class="cls-17" d="M125.58,317.73c0-1.12,0-2.25,0-3.37,0-1.33.1-2.67.2-4a11.5,11.5,0,0,0,.08-1.17l3.49-.61c1.59-.29,3.13-.76,4.68-1.19a.57.57,0,0,1,.13.54c-.31,2.16-.4,4.34-.55,6.51,0,.21,0,.42-.24.54-2.55.84-5.08,1.72-7.56,2.74A1.79,1.79,0,0,1,125.58,317.73Z"/><path class="cls-18" d="M133.37,315a4.77,4.77,0,0,0,.18-1.35A44.07,44.07,0,0,1,134,308a4.26,4.26,0,0,0,0-.62c1.49-.55,3-1.05,4.46-1.71.5-.23,1-.44,1.51-.66.29.39,0,.8,0,1.17-.28,1.54-.5,3.08-.63,4.64-.06.84-.18,1.68-.18,2.53C137.22,313.84,135.29,314.39,133.37,315Z"/><path class="cls-6" d="M224.37,329.24a5.21,5.21,0,0,1,.06-1.42A5.64,5.64,0,0,1,224.37,329.24Z"/><path class="cls-6" d="M224.27,331.43a2.86,2.86,0,0,1,.07-1.05A3.11,3.11,0,0,1,224.27,331.43Z"/><path class="cls-6" d="M224.18,333.14c0-.29-.09-.59.07-.86A2.27,2.27,0,0,1,224.18,333.14Z"/><path class="cls-19" d="M134.61,445.22l.09.09a.54.54,0,0,1-.5.11Z"/><path class="cls-20" d="M106.11,307.57v.09l-.66-.19a.07.07,0,0,1,0-.06s0,0,0,0A1.49,1.49,0,0,1,106.11,307.57Z"/><path class="cls-21" d="M105.44,307.37v.1l-.68-.24A.8.8,0,0,1,105.44,307.37Z"/></svg>