<?xml version="1.0" encoding="utf-8"?>
<!-- Generator: Adobe Illustrator 22.0.1, SVG Export Plug-In . SVG Version: 6.00 Build 0)  -->
<svg version="1.1" id="Layer_2" xmlns="http://www.w3.org/2000/svg" xmlns:xlink="http://www.w3.org/1999/xlink" x="0px" y="0px"
	 viewBox="0 0 527.7 528.9" style="enable-background:new 0 0 527.7 528.9;" xml:space="preserve">
<style type="text/css">
	.st0{fill:#FFFFFF;}
	.st1{fill:none;stroke:#FFFFFF;stroke-miterlimit:10;}
</style>
<g>
	<path class="st0" d="M263,10.2l221.3,90.3l-2.6,26l-0.1,0.9l0.9,0.2l35.3,7.8L499,254l-32.9-4l-1-0.1l-0.1,1
		c-0.2,1.1-16.8,105.6-36.7,133.2c-39.1,54.1-154.7,129.4-163.5,135c-4.4-2.6-35.2-20.9-70-45.9c-34.5-24.7-80-61.2-101-94.5
		c-17.2-27.2-33.3-125.2-33.5-126.2l-0.2-0.9l-0.9,0.1L33.9,254L9.8,138.6l33.5-7.8l0.9-0.2l-0.1-0.9l-2.7-28.8L263,10.2 M263,9.1
		L40.3,100.3l2.8,29.5l-34.5,8l24.4,117.3l26.2-2.5c0,0,16.1,98.9,33.6,126.6c41,64.7,171.9,141,171.9,141s123.2-78.9,164.3-135.6
		C449.4,356.5,466,251,466,251l33.8,4.1L519,134.6l-36.3-8l2.6-26.8L263,9.1L263,9.1z"/>
</g>
<path class="st1" d="M262.4,26.7L62.7,110.2l3.3,35.1l-35.9,7.1l16,79.2l32.3,4.4c0,0,16.1,96.4,30.1,125.5
	c23.9,49.7,156.7,132.1,156.7,132.1s124-80.6,148.4-124c16.7-29.7,34.6-131.8,34.6-131.8l35.2-6.1l12.8-81.2l-35.8-6.8l3.2-33.4
	L262.4,26.7z"/>
<polygon class="st1" points="262.4,47 86.3,121.8 88.1,141.4 102.9,139 102.9,131.4 263.2,63.9 427.1,131.7 426.5,138.1 
	442.5,141.4 444.3,121.8 "/>
<path class="st1" d="M98.4,226.3c0,0,14.8,99.7,32.4,127.5c23.3,36.7,134.4,110.6,134.4,110.6s108.8-71,131.8-106.5
	c18.5-28.5,35-131.5,35-131.5s-125-14.3-166.8-14.3S98.4,226.3,98.4,226.3z"/>
<path class="st1" d="M265.3,443.6c0,0-99.1-66.9-120.1-99.8c-16.6-26-31.5-119.2-31.5-119.2s113.6-12.6,151.6-12.6
	c37.9,0,151.1,12.5,151.1,12.5s-9.3,90.5-33.7,122.5C359.7,377.3,265.3,443.6,265.3,443.6z"/>
<path class="st1" d="M102.9,139c0,0,87.9-14.3,159.5-14.3c87.7,0,164.2,13.3,164.2,13.3"/>
<path class="st1" d="M265,224.3c-25.3,0-27.3,23.6-27.3,25.7c0,24.4,17.1,27.2,17.1,27.2l-15.1,76.2H290l-15.2-76.1
	c0,0,17.6-6,17.6-25.8C292.3,249.4,292.3,224.3,265,224.3z"/>
</svg>
