<?xml version="1.0" encoding="utf-8"?>
<!-- Generator: Adobe Illustrator 22.0.1, SVG Export Plug-In . SVG Version: 6.00 Build 0)  -->
<svg version="1.1" id="Layer_3" xmlns="http://www.w3.org/2000/svg" xmlns:xlink="http://www.w3.org/1999/xlink" x="0px" y="0px"
	 viewBox="0 0 1178 1182" style="enable-background:new 0 0 1178 1182;" xml:space="preserve">
<style type="text/css">
	.st0{fill:#FFFFFF;}
</style>
<g>
	<g>
		<path class="st0" d="M1020.4,432.9v318.4l-46.6,28.4V517.6v-3.5l-3,1.7L715.7,663.4l-1,0.6l0,1.1l-1.8,294.1l0,3.5l3-1.7
			l227.5-130.3l-0.1,55.6l-274.6,158.2l-1.1-408.2L1020.4,432.9 M1022.4,429.5L665.5,635.2l1.1,412.8l278.6-160.5l0.1-60.2
			l-230.5,132l1.8-294.1l255.1-147.6v265.7l50.6-30.8V429.5L1022.4,429.5z"/>
	</g>
	<g>
		<path class="st0" d="M561.6,609l-1.3,408.5l-45.3,27l-1-408.1L561.6,609 M563.6,605.5L512,635.2l1,412.8l49.3-29.3L563.6,605.5
			L563.6,605.5z"/>
	</g>
	<g>
		<path class="st0" d="M943.3,300.7l0.1,52.9L590.6,557.9l0.6-54.2L943.3,300.7 M945.3,297.2l-356,205.3l-0.7,58.9l356.8-206.7
			L945.3,297.2L945.3,297.2z"/>
	</g>
	<g>
		<path class="st0" d="M459.1,757.1l0.7,52.8l-75.3,43.4l-45.8-26.6L459.1,757.1 M461,753.6l-126.5,73l49.8,29l77.4-44.6L461,753.6
			L461,753.6z"/>
	</g>
	<g>
		<path class="st0" d="M587.3,683.1v54.6l-22.1,11.7l-0.8-52.9L587.3,683.1 M589.3,679.6l-26.9,15.7l0.8,57.4l26.1-13.8V679.6
			L589.3,679.6z"/>
	</g>
	<g>
		<path class="st0" d="M209.1,522.6l46.3,26.7v145.1v3.5l3-1.7l126-72.9l47,27.3L208.2,779.3L209.1,522.6 M207.1,519.1l-0.9,263.6
			l229.2-132.2l-51-29.7l-127,73.4V548.1L207.1,519.1L207.1,519.1z"/>
	</g>
	<g>
		<path class="st0" d="M515,521.1l46.6,26.9v27.5l-23.8,12.7l-46.8-27l23-12.8l1-0.6v-1.2V521.1 M513,517.7v29.2l-26.1,14.5
			l50.9,29.3l25.8-13.8v-29.9L513,517.7L513,517.7z"/>
	</g>
	<g>
		<path class="st0" d="M559.9,168.4l1.7,256.3L515,397.9V252.3v-3.4l-3,1.7l-127.3,72.8l-43.8-25L559.9,168.4 M561.9,164.9
			L337,298.4l47.7,27.3L513,252.3v146.8l50.6,29.1L561.9,164.9L561.9,164.9z"/>
	</g>
	<g>
		<path class="st0" d="M715.3,490.3v26.2l-46.6,27.2v-26.3L715.3,490.3 M717.3,486.8l-50.6,29.3v30.9l50.6-29.5V486.8L717.3,486.8z"
			/>
	</g>
	<g>
		<path class="st0" d="M668.7,256.7l46.6,26.9v85.1l-46.6,26.6V256.7 M666.7,253.2v145.5l50.6-28.8v-87.4L666.7,253.2L666.7,253.2z"
			/>
	</g>
	<g>
		<path class="st0" d="M718.2,756.4l122.1,70.3L792.9,854l-75.1-44L718.2,756.4 M716.2,752.9l-0.4,58.3l77.1,45.1l51.3-29.7
			L716.2,752.9L716.2,752.9z"/>
	</g>
	<g>
		<path class="st0" d="M591.3,683l19.9,11.3V749l-19.9-11.3V683 M589.3,679.6v59.3l23.9,13.6v-59.2L589.3,679.6L589.3,679.6z"/>
	</g>
	<g>
		<path class="st0" d="M969.8,521.1v258.7L745.6,650.5l46.5-26.7l126.1,70.7l3,1.7v-3.4V548.9L969.8,521.1 M971.8,517.6l-52.6,30.2
			v145l-127.1-71.2l-50.5,29l230.2,132.7V517.6L971.8,517.6z"/>
	</g>
	<g>
		<path class="st0" d="M664.7,519.6v27.5v1.1l1,0.6l21.2,12.5l-46.9,26.9l-23-12.9v-27.9L664.7,519.6 M666.7,516.1l-51.8,30v30.3
			l25.1,14.1l50.9-29.1l-24.1-14.3V516.1L666.7,516.1z"/>
	</g>
	<g>
		<path class="st0" d="M616,169.5l222.6,129l-45.1,25.7l-125.8-72.7l-3-1.7v3.5v144.3l-47.8,27.2L616,169.5 M614,166l0.9,262.2
			l51.8-29.5V253.2l126.8,73.3l49.2-28L614,166L614,166z"/>
	</g>
	<g>
		<path class="st0" d="M511,255.7v139.9l-47.2-27v-85.8L511,255.7 M513,252.3l-51.2,29.3v88.1l51.2,29.3V252.3L513,252.3z"/>
	</g>
	<g>
		<path class="st0" d="M463.7,491.5l47.3,27.3v24.6l-47.5-27L463.7,491.5 M461.8,488.1l-0.3,29.5l51.6,29.3v-29.2L461.8,488.1
			L461.8,488.1z"/>
	</g>
	<g>
		<path class="st0" d="M666.2,136.3l275.1,160.8l-352,203l-354.5-203l277.9-160.1l45.4,27.7L336,296.7l-3,1.8l3,1.7l252.2,144.3
			l1,0.6l1-0.6l253.4-144.2l3-1.7l-3-1.7L617.9,165.9L666.2,136.3 M666.1,134L614,166l228.7,132.5L589.3,442.7L337,298.4
			l224.8-133.5l-49.2-30.1L230.7,297.2l358.6,205.3l356-205.3L666.1,134L666.1,134z"/>
	</g>
	<g>
		<path class="st0" d="M206.7,402.3l352.9,203.2L512,632.9L159.5,429.7L206.7,402.3 M206.7,400l-51.2,29.7L512,635.2l51.6-29.7
			L206.7,400L206.7,400z"/>
	</g>
	<g>
		<path class="st0" d="M972.5,402.3l46,27.1l-353,203.4l-48.3-27.1L972.5,402.3 M972.5,400L613.1,605.8l52.4,29.4l356.9-205.7
			L972.5,400L972.5,400z"/>
	</g>
	<g>
		<path class="st0" d="M333.2,591.9l47.3,28.9l-121.1,70v-54.5L333.2,591.9 M333.3,589.6l-75.8,45.6v59.1l127-73.4L333.3,589.6
			L333.3,589.6z"/>
	</g>
	<g>
		<path class="st0" d="M461.5,519.9l47.4,26.9l-22,12.2l-46-26.5L461.5,519.9 M461.5,517.6l-24.5,15l49.9,28.8l26.1-14.5
			L461.5,517.6L461.5,517.6z"/>
	</g>
	<g>
		<path class="st0" d="M844,593.8l73.2,42.5v53l-121.1-67.8L844,593.8 M844,591.5l-51.9,30l127.1,71.2v-57.6L844,591.5L844,591.5z"
			/>
	</g>
	<g>
		<path class="st0" d="M717.3,519.9l20.4,12.3L690.8,559l-20.2-11.9L717.3,519.9 M717.3,517.6l-50.6,29.5l24.1,14.3l50.9-29.1
			L717.3,517.6L717.3,517.6z"/>
	</g>
	<g>
		<path class="st0" d="M589.3,622.7l23.6,13.6v54.4l-22.6-12.9l-1-0.6l-1,0.6l-23.8,13.9l1.2-55.5L589.3,622.7 M589.3,620.4
			l-25.6,14.8l-1.3,60.2l26.9-15.7l25.6,14.6v-59L589.3,620.4L589.3,620.4z"/>
	</g>
	<g>
		<path class="st0" d="M459,698.8v53.7l-125.5,72.4l-3,1.7l3,1.7L459,901.3v55.5L236,827.8L459,698.8 M461,695.3L232,827.8
			l229,132.5v-60.1l-126.5-73.5l126.5-73V695.3L461,695.3z"/>
	</g>
	<g>
		<path class="st0" d="M718.5,697.8l222.9,129.5L716.9,955.8v-53.1l128.3-74.3l3-1.7l-3-1.7l-127-73.1L718.5,697.8 M716.5,694.3
			l-0.4,58.6l128,73.7l-129.3,74.9v57.7l230.5-132L716.5,694.3L716.5,694.3z"/>
	</g>
	<g>
		<path class="st0" d="M232.7,300.6l354.5,203l-0.6,54.3L232.7,353.4V300.6 M230.7,297.2v57.3l357.9,206.8l0.7-58.9L230.7,297.2
			L230.7,297.2z"/>
	</g>
	<g>
		<path class="st0" d="M157.6,433.2L510,636.3l1,408.2L234,885.3v-54.1L460,962l3,1.7v-3.5v-295v-1.2l-1-0.6L208.1,517.4l-3-1.7
			l0,3.4l-0.9,260.1l-46.6-27.6V433.2 M155.6,429.7v323.1l50.6,30l0.9-263.6L461,665.3v295L232,827.8v58.7L513,1048l-1-412.8
			L155.6,429.7L155.6,429.7z"/>
	</g>
	<g>
		<path class="st0" d="M615.1,609.2l48.4,27.1l1.1,408.1l-49.5-29.3V609.2 M613.1,605.8v410.5l53.5,31.7l-1.1-412.8L613.1,605.8
			L613.1,605.8z"/>
	</g>
</g>
</svg>
