<?xml version="1.0" encoding="utf-8"?>
<!-- Generator: Adobe Illustrator 22.0.1, SVG Export Plug-In . SVG Version: 6.00 Build 0)  -->
<svg version="1.1" xmlns="http://www.w3.org/2000/svg" xmlns:xlink="http://www.w3.org/1999/xlink" x="0px" y="0px"
	 viewBox="0 0 1178 1182" style="enable-background:new 0 0 1178 1182;" xml:space="preserve">
<style type="text/css">
	.st0{opacity:0.49;}
	.st1{fill:#FFFFFF;}
	.st2{fill:none;stroke:#FFFFFF;stroke-width:2;stroke-miterlimit:10;}
</style>
<g id="Layer_1" class="st0">
</g>
<g id="Layer_2">
	<g>
		<path class="st1" d="M589,145.2c60.2,0,118.6,11.8,173.5,35c53.1,22.5,100.8,54.6,141.7,95.5c40.9,40.9,73.1,88.6,95.5,141.7
			c23.2,55,35,113.3,35,173.5s-11.8,118.6-35,173.5c-22.5,53.1-54.6,100.8-95.5,141.7c-40.9,40.9-88.6,73.1-141.7,95.5
			c-55,23.2-113.3,35-173.5,35s-118.6-11.8-173.5-35c-53.1-22.5-100.8-54.6-141.7-95.5c-40.9-40.9-73.1-88.6-95.5-141.7
			c-23.2-55-35-113.3-35-173.5s11.8-118.6,35-173.5c22.5-53.1,54.6-100.8,95.5-141.7s88.6-73.1,141.7-95.5
			C470.4,157,528.8,145.2,589,145.2 M589,143.2c-247.3,0-447.8,200.5-447.8,447.8s200.5,447.8,447.8,447.8s447.8-200.5,447.8-447.8
			S836.3,143.2,589,143.2L589,143.2z"/>
	</g>
	<path class="st2" d="M329.5,248.2c27.9-21.1,58.5-39,91.1-52.9"/>
	<path class="st2" d="M223.1,365.1c18.5-29.9,40.6-57.3,65.6-81.7"/>
	<path class="st2" d="M166.1,512.6c6.5-35.4,17.4-69.2,32-101"/>
	<path class="st2" d="M166.3,670.9c-4.9-25.9-7.4-52.5-7.4-79.8c0-8.6,0.3-17.2,0.8-25.7"/>
	<path class="st2" d="M223.2,817.4c-18.5-29.8-33.4-61.9-44.2-96"/>
	<path class="st2" d="M329.4,934c-28.1-21.3-53.6-46.1-75.7-73.6"/>
	<path class="st2" d="M470.8,1004.7c-34.4-9.8-67.1-23.8-97.4-41.4"/>
	<path class="st2" d="M628.7,1019.4c-13.1,1.2-26.3,1.8-39.7,1.8c-22.5,0-44.5-1.7-66-5"/>
	<path class="st2" d="M780.1,976.5c-31.2,15.5-64.5,27.3-99.5,34.9"/>
	<path class="st2" d="M906.7,880.9C883,907,856,930.1,826.5,949.7"/>
	<path class="st2" d="M990,746.8c-12.9,33.2-29.8,64.5-50.2,93.1"/>
	<path class="st2" d="M1019,590.3c0,0.3,0,0.6,0,0.9c0,36.1-4.5,71.2-12.8,104.7"/>
	<path class="st2" d="M989.6,434.5c12.7,32.5,21.6,66.9,26.1,102.7"/>
	<path class="st2" d="M905.9,300.4c23.8,25.9,44.5,54.8,61.4,86"/>
	<path class="st2" d="M779.4,205.4c31.9,15.8,61.6,35.4,88.4,58.3"/>
	<path class="st2" d="M627.8,162.8c35.8,3.2,70.4,10.8,103.1,22.3"/>
	<path class="st2" d="M470.3,177.7c33-9.5,67.6-15.1,103.3-16.3"/>
	<path class="st2" d="M385.5,301.6l116.2,6.7V890l-116.2,6.7v-9.6c0,0,68.4-10.4,70.2-125.7l0.3-331.5
		C452.7,317.4,385.5,312,385.5,312V301.6z"/>
	<path class="st2" d="M543.1,308.3h182.5l111.4-6.7l2.2,143.6h-11.8c0,0-6.5-101.7-96.4-99.2c0,0-86-2.6-114.5,0.4
		c-5.9,0.6-23.1,4.8-23.1,4.8s-4.8,37.8-5.6,50.4c-2.7,44.9-1.8,179.8-1.8,179.8h121.1c103.3-4.5,103.1-68.8,103.1-68.8h11.8
		l-3.7,82.2l3.7,110.3h-11.8c0,0,8.7-93.6-102.3-86.6H588.3l0.7,151.1c7.7,111.5,75.5,117.6,75.5,117.6v9.6L543.1,890V308.3z"/>
</g>
</svg>
