<?xml version="1.0" encoding="utf-8"?>
<!-- Generator: Adobe Illustrator 22.0.1, SVG Export Plug-In . SVG Version: 6.00 Build 0)  -->
<svg version="1.1" id="Layer_1" xmlns="http://www.w3.org/2000/svg" xmlns:xlink="http://www.w3.org/1999/xlink" x="0px" y="0px"
	 viewBox="0 0 1178 1182" style="enable-background:new 0 0 1178 1182;" xml:space="preserve">
<style type="text/css">
	.st0{fill:none;stroke:#FFFFFF;stroke-width:2;stroke-linecap:round;stroke-linejoin:round;stroke-miterlimit:10;}
	.st1{fill:#FFFFFF;}
</style>
<path class="st0" d="M1140,1174H42c-16.5,0-30-13.5-30-30V46c0-16.5,13.5-30,30-30h1098c16.5,0,30,13.5,30,30v1098
	C1170,1160.5,1156.5,1174,1140,1174z"/>
<path class="st0" d="M140,272H44c-2.2,0-4-1.8-4-4v-96c0-2.2,1.8-4,4-4h96c2.2,0,4,1.8,4,4v96C144,270.2,142.2,272,140,272z"/>
<path class="st0" d="M264,272h-96c-2.2,0-4-1.8-4-4v-96c0-2.2,1.8-4,4-4h96c2.2,0,4,1.8,4,4v96C268,270.2,266.2,272,264,272z"/>
<path class="st0" d="M390,272h-96c-2.2,0-4-1.8-4-4v-96c0-2.2,1.8-4,4-4h96c2.2,0,4,1.8,4,4v96C394,270.2,392.2,272,390,272z"/>
<path class="st0" d="M514,272h-96c-2.2,0-4-1.8-4-4v-96c0-2.2,1.8-4,4-4h96c2.2,0,4,1.8,4,4v96C518,270.2,516.2,272,514,272z"/>
<path class="st0" d="M640,272h-96c-2.2,0-4-1.8-4-4v-96c0-2.2,1.8-4,4-4h96c2.2,0,4,1.8,4,4v96C644,270.2,642.2,272,640,272z"/>
<path class="st0" d="M764,272h-96c-2.2,0-4-1.8-4-4v-96c0-2.2,1.8-4,4-4h96c2.2,0,4,1.8,4,4v96C768,270.2,766.2,272,764,272z"/>
<path class="st0" d="M890,272h-96c-2.2,0-4-1.8-4-4v-96c0-2.2,1.8-4,4-4h96c2.2,0,4,1.8,4,4v96C894,270.2,892.2,272,890,272z"/>
<path class="st0" d="M1014,272h-96c-2.2,0-4-1.8-4-4v-96c0-2.2,1.8-4,4-4h96c2.2,0,4,1.8,4,4v96C1018,270.2,1016.2,272,1014,272z"/>
<path class="st0" d="M140,397H44c-2.2,0-4-1.8-4-4v-96c0-2.2,1.8-4,4-4h96c2.2,0,4,1.8,4,4v96C144,395.2,142.2,397,140,397z"/>
<path class="st0" d="M264,397h-96c-2.2,0-4-1.8-4-4v-96c0-2.2,1.8-4,4-4h96c2.2,0,4,1.8,4,4v96C268,395.2,266.2,397,264,397z"/>
<path class="st0" d="M390,397h-96c-2.2,0-4-1.8-4-4v-96c0-2.2,1.8-4,4-4h96c2.2,0,4,1.8,4,4v96C394,395.2,392.2,397,390,397z"/>
<path class="st0" d="M514,397h-96c-2.2,0-4-1.8-4-4v-96c0-2.2,1.8-4,4-4h96c2.2,0,4,1.8,4,4v96C518,395.2,516.2,397,514,397z"/>
<path class="st0" d="M640,397h-96c-2.2,0-4-1.8-4-4v-96c0-2.2,1.8-4,4-4h96c2.2,0,4,1.8,4,4v96C644,395.2,642.2,397,640,397z"/>
<path class="st0" d="M764,397h-96c-2.2,0-4-1.8-4-4v-96c0-2.2,1.8-4,4-4h96c2.2,0,4,1.8,4,4v96C768,395.2,766.2,397,764,397z"/>
<path class="st0" d="M890,397h-96c-2.2,0-4-1.8-4-4v-96c0-2.2,1.8-4,4-4h96c2.2,0,4,1.8,4,4v96C894,395.2,892.2,397,890,397z"/>
<path class="st0" d="M1014,397h-96c-2.2,0-4-1.8-4-4v-96c0-2.2,1.8-4,4-4h96c2.2,0,4,1.8,4,4v96C1018,395.2,1016.2,397,1014,397z"/>
<path class="st0" d="M140,521H44c-2.2,0-4-1.8-4-4v-96c0-2.2,1.8-4,4-4h96c2.2,0,4,1.8,4,4v96C144,519.2,142.2,521,140,521z"/>
<path class="st0" d="M264,521h-96c-2.2,0-4-1.8-4-4v-96c0-2.2,1.8-4,4-4h96c2.2,0,4,1.8,4,4v96C268,519.2,266.2,521,264,521z"/>
<path class="st0" d="M390,521h-96c-2.2,0-4-1.8-4-4v-96c0-2.2,1.8-4,4-4h96c2.2,0,4,1.8,4,4v96C394,519.2,392.2,521,390,521z"/>
<path class="st0" d="M514,521h-96c-2.2,0-4-1.8-4-4v-96c0-2.2,1.8-4,4-4h96c2.2,0,4,1.8,4,4v96C518,519.2,516.2,521,514,521z"/>
<path class="st0" d="M640,521h-96c-2.2,0-4-1.8-4-4v-96c0-2.2,1.8-4,4-4h96c2.2,0,4,1.8,4,4v96C644,519.2,642.2,521,640,521z"/>
<path class="st0" d="M764,521h-96c-2.2,0-4-1.8-4-4v-96c0-2.2,1.8-4,4-4h96c2.2,0,4,1.8,4,4v96C768,519.2,766.2,521,764,521z"/>
<path class="st0" d="M890,521h-96c-2.2,0-4-1.8-4-4v-96c0-2.2,1.8-4,4-4h96c2.2,0,4,1.8,4,4v96C894,519.2,892.2,521,890,521z"/>
<path class="st0" d="M1014,521h-96c-2.2,0-4-1.8-4-4v-96c0-2.2,1.8-4,4-4h96c2.2,0,4,1.8,4,4v96C1018,519.2,1016.2,521,1014,521z"/>
<path class="st0" d="M140,646H44c-2.2,0-4-1.8-4-4v-96c0-2.2,1.8-4,4-4h96c2.2,0,4,1.8,4,4v96C144,644.2,142.2,646,140,646z"/>
<path class="st0" d="M264,646h-96c-2.2,0-4-1.8-4-4v-96c0-2.2,1.8-4,4-4h96c2.2,0,4,1.8,4,4v96C268,644.2,266.2,646,264,646z"/>
<path class="st0" d="M390,646h-96c-2.2,0-4-1.8-4-4v-96c0-2.2,1.8-4,4-4h96c2.2,0,4,1.8,4,4v96C394,644.2,392.2,646,390,646z"/>
<path class="st0" d="M514,646h-96c-2.2,0-4-1.8-4-4v-96c0-2.2,1.8-4,4-4h96c2.2,0,4,1.8,4,4v96C518,644.2,516.2,646,514,646z"/>
<path class="st0" d="M640,646h-96c-2.2,0-4-1.8-4-4v-96c0-2.2,1.8-4,4-4h96c2.2,0,4,1.8,4,4v96C644,644.2,642.2,646,640,646z"/>
<path class="st0" d="M764,646h-96c-2.2,0-4-1.8-4-4v-96c0-2.2,1.8-4,4-4h96c2.2,0,4,1.8,4,4v96C768,644.2,766.2,646,764,646z"/>
<path class="st0" d="M890,646h-96c-2.2,0-4-1.8-4-4v-96c0-2.2,1.8-4,4-4h96c2.2,0,4,1.8,4,4v96C894,644.2,892.2,646,890,646z"/>
<path class="st0" d="M1014,646h-96c-2.2,0-4-1.8-4-4v-96c0-2.2,1.8-4,4-4h96c2.2,0,4,1.8,4,4v96C1018,644.2,1016.2,646,1014,646z"/>
<path class="st0" d="M140,772H44c-2.2,0-4-1.8-4-4v-96c0-2.2,1.8-4,4-4h96c2.2,0,4,1.8,4,4v96C144,770.2,142.2,772,140,772z"/>
<path class="st0" d="M264,772h-96c-2.2,0-4-1.8-4-4v-96c0-2.2,1.8-4,4-4h96c2.2,0,4,1.8,4,4v96C268,770.2,266.2,772,264,772z"/>
<path class="st0" d="M390,772h-96c-2.2,0-4-1.8-4-4v-96c0-2.2,1.8-4,4-4h96c2.2,0,4,1.8,4,4v96C394,770.2,392.2,772,390,772z"/>
<path class="st0" d="M514,772h-96c-2.2,0-4-1.8-4-4v-96c0-2.2,1.8-4,4-4h96c2.2,0,4,1.8,4,4v96C518,770.2,516.2,772,514,772z"/>
<path class="st0" d="M640,772h-96c-2.2,0-4-1.8-4-4v-96c0-2.2,1.8-4,4-4h96c2.2,0,4,1.8,4,4v96C644,770.2,642.2,772,640,772z"/>
<path class="st0" d="M764,772h-96c-2.2,0-4-1.8-4-4v-96c0-2.2,1.8-4,4-4h96c2.2,0,4,1.8,4,4v96C768,770.2,766.2,772,764,772z"/>
<path class="st0" d="M890,772h-96c-2.2,0-4-1.8-4-4v-96c0-2.2,1.8-4,4-4h96c2.2,0,4,1.8,4,4v96C894,770.2,892.2,772,890,772z"/>
<path class="st0" d="M1014,772h-96c-2.2,0-4-1.8-4-4v-96c0-2.2,1.8-4,4-4h96c2.2,0,4,1.8,4,4v96C1018,770.2,1016.2,772,1014,772z"/>
<path class="st0" d="M140,896H44c-2.2,0-4-1.8-4-4v-96c0-2.2,1.8-4,4-4h96c2.2,0,4,1.8,4,4v96C144,894.2,142.2,896,140,896z"/>
<path class="st0" d="M264,896h-96c-2.2,0-4-1.8-4-4v-96c0-2.2,1.8-4,4-4h96c2.2,0,4,1.8,4,4v96C268,894.2,266.2,896,264,896z"/>
<path class="st0" d="M390,896h-96c-2.2,0-4-1.8-4-4v-96c0-2.2,1.8-4,4-4h96c2.2,0,4,1.8,4,4v96C394,894.2,392.2,896,390,896z"/>
<path class="st0" d="M514,896h-96c-2.2,0-4-1.8-4-4v-96c0-2.2,1.8-4,4-4h96c2.2,0,4,1.8,4,4v96C518,894.2,516.2,896,514,896z"/>
<path class="st0" d="M640,896h-96c-2.2,0-4-1.8-4-4v-96c0-2.2,1.8-4,4-4h96c2.2,0,4,1.8,4,4v96C644,894.2,642.2,896,640,896z"/>
<path class="st0" d="M764,896h-96c-2.2,0-4-1.8-4-4v-96c0-2.2,1.8-4,4-4h96c2.2,0,4,1.8,4,4v96C768,894.2,766.2,896,764,896z"/>
<path class="st0" d="M890,896h-96c-2.2,0-4-1.8-4-4v-96c0-2.2,1.8-4,4-4h96c2.2,0,4,1.8,4,4v96C894,894.2,892.2,896,890,896z"/>
<path class="st0" d="M1014,896h-96c-2.2,0-4-1.8-4-4v-96c0-2.2,1.8-4,4-4h96c2.2,0,4,1.8,4,4v96C1018,894.2,1016.2,896,1014,896z"/>
<path class="st0" d="M140,1022H44c-2.2,0-4-1.8-4-4v-96c0-2.2,1.8-4,4-4h96c2.2,0,4,1.8,4,4v96C144,1020.2,142.2,1022,140,1022z"/>
<path class="st0" d="M264,1022h-96c-2.2,0-4-1.8-4-4v-96c0-2.2,1.8-4,4-4h96c2.2,0,4,1.8,4,4v96C268,1020.2,266.2,1022,264,1022z"/>
<path class="st0" d="M390,1022h-96c-2.2,0-4-1.8-4-4v-96c0-2.2,1.8-4,4-4h96c2.2,0,4,1.8,4,4v96C394,1020.2,392.2,1022,390,1022z"/>
<path class="st0" d="M514,1022h-96c-2.2,0-4-1.8-4-4v-96c0-2.2,1.8-4,4-4h96c2.2,0,4,1.8,4,4v96C518,1020.2,516.2,1022,514,1022z"/>
<path class="st0" d="M640,1022h-96c-2.2,0-4-1.8-4-4v-96c0-2.2,1.8-4,4-4h96c2.2,0,4,1.8,4,4v96C644,1020.2,642.2,1022,640,1022z"/>
<path class="st0" d="M764,1022h-96c-2.2,0-4-1.8-4-4v-96c0-2.2,1.8-4,4-4h96c2.2,0,4,1.8,4,4v96C768,1020.2,766.2,1022,764,1022z"/>
<path class="st0" d="M890,1022h-96c-2.2,0-4-1.8-4-4v-96c0-2.2,1.8-4,4-4h96c2.2,0,4,1.8,4,4v96C894,1020.2,892.2,1022,890,1022z"/>
<path class="st0" d="M1014,1022h-96c-2.2,0-4-1.8-4-4v-96c0-2.2,1.8-4,4-4h96c2.2,0,4,1.8,4,4v96C1018,1020.2,1016.2,1022,1014,1022
	z"/>
<path class="st0" d="M140,1146H44c-2.2,0-4-1.8-4-4v-96c0-2.2,1.8-4,4-4h96c2.2,0,4,1.8,4,4v96C144,1144.2,142.2,1146,140,1146z"/>
<path class="st0" d="M264,1146h-96c-2.2,0-4-1.8-4-4v-96c0-2.2,1.8-4,4-4h96c2.2,0,4,1.8,4,4v96C268,1144.2,266.2,1146,264,1146z"/>
<path class="st0" d="M390,1146h-96c-2.2,0-4-1.8-4-4v-96c0-2.2,1.8-4,4-4h96c2.2,0,4,1.8,4,4v96C394,1144.2,392.2,1146,390,1146z"/>
<path class="st0" d="M514,1146h-96c-2.2,0-4-1.8-4-4v-96c0-2.2,1.8-4,4-4h96c2.2,0,4,1.8,4,4v96C518,1144.2,516.2,1146,514,1146z"/>
<path class="st0" d="M640,1146h-96c-2.2,0-4-1.8-4-4v-96c0-2.2,1.8-4,4-4h96c2.2,0,4,1.8,4,4v96C644,1144.2,642.2,1146,640,1146z"/>
<path class="st0" d="M764,1146h-96c-2.2,0-4-1.8-4-4v-96c0-2.2,1.8-4,4-4h96c2.2,0,4,1.8,4,4v96C768,1144.2,766.2,1146,764,1146z"/>
<path class="st0" d="M890,1146h-96c-2.2,0-4-1.8-4-4v-96c0-2.2,1.8-4,4-4h96c2.2,0,4,1.8,4,4v96C894,1144.2,892.2,1146,890,1146z"/>
<path class="st0" d="M1014,1146h-96c-2.2,0-4-1.8-4-4v-96c0-2.2,1.8-4,4-4h96c2.2,0,4,1.8,4,4v96C1018,1144.2,1016.2,1146,1014,1146
	z"/>
<circle class="st0" cx="1091" cy="1094" r="47"/>
<circle class="st0" cx="1091" cy="969" r="47"/>
<circle class="st0" cx="1091" cy="844" r="47"/>
<circle class="st0" cx="1091" cy="719" r="47"/>
<circle class="st0" cx="1091" cy="594" r="47"/>
<circle class="st0" cx="1091" cy="469" r="47"/>
<circle class="st0" cx="1091" cy="344" r="47"/>
<circle class="st0" cx="1091" cy="219" r="47"/>
<g>
	<path class="st1" d="M1003.9,72.8h-6.7V75c0,6.1-1.9,12.3-10.2,16.1c-0.4-0.5-1.1-1.2-1.7-1.6c8.1-3.5,9.6-9.2,9.6-14.5v-2.2h-10.3
		v8h-2.3v-8h-6.3v-2.2h6.3v-6.9l3.1,0.2c0,0.3-0.3,0.6-0.8,0.7v6.1h10.3v-7.4l3.1,0.2c0,0.3-0.3,0.5-0.8,0.6v6.6h6.7V72.8z"/>
	<path class="st1" d="M1009.4,65.8c3.3,1.1,7.2,2.7,9.5,4.4l-1.2,2c-2.3-1.6-6.1-3.3-9.3-4.4L1009.4,65.8z M1009.2,88
		c11.4-3.5,18.9-9.9,22.8-18.8c0.7,0.5,1.4,1,2.1,1.3c-4,8.8-11.8,15.6-22.7,19.2c0,0.3-0.2,0.6-0.4,0.7L1009.2,88z"/>
	<path class="st1" d="M1038.2,67.1h20.4l0.2-0.1l2.2,1.7c-0.1,0.1-0.2,0.2-0.4,0.3c-2.6,12-8.2,18.3-18,22c-0.4-0.6-1-1.4-1.4-1.9
		c9.3-3.4,14.7-9.4,16.8-19.8h-19.7V67.1z M1062.6,61.4c1.9,0,3.5,1.6,3.5,3.5c0,1.9-1.6,3.5-3.5,3.5c-2,0-3.5-1.6-3.5-3.5
		C1059.1,62.9,1060.7,61.4,1062.6,61.4z M1065.1,64.9c0-1.4-1.1-2.5-2.4-2.5c-1.3,0-2.5,1.1-2.5,2.5c0,1.3,1.1,2.5,2.5,2.5
		C1064,67.4,1065.1,66.2,1065.1,64.9z"/>
	<path class="st1" d="M1092.5,73.6c-0.1,0.1-0.2,0.3-0.4,0.3c-2.6,9.7-8,14.4-17.5,17c-0.3-0.6-0.9-1.4-1.3-1.9
		c8.7-2.2,14.1-6.7,16.1-14.1h-21.2v-2.2h22.1l0.3-0.2L1092.5,73.6z M1089.5,66.8h-18.2v-2.1h18.2V66.8z"/>
	<path class="st1" d="M1097.1,75.5h26.7v2.3h-25.5c-0.2,0.3-0.6,0.5-1,0.6L1097.1,75.5z"/>
</g>
</svg>
