<?xml version="1.0" encoding="utf-8"?>
<!-- Generator: Adobe Illustrator 22.0.1, SVG Export Plug-In . SVG Version: 6.00 Build 0)  -->
<svg version="1.1" xmlns="http://www.w3.org/2000/svg" xmlns:xlink="http://www.w3.org/1999/xlink" x="0px" y="0px"
	 viewBox="0 0 1178 1182" style="enable-background:new 0 0 1178 1182;" xml:space="preserve">
<style type="text/css">
	.st0{display:none;}
	.st1{fill:none;stroke:#FFFFFF;stroke-width:2;stroke-miterlimit:10;}
	.st2{fill:#FFFFFF;}
	.st3{fill:none;stroke:#FFFFFF;stroke-width:2;stroke-miterlimit:10;stroke-dasharray:24.5342,1.8872;}
	.st4{fill:none;stroke:#FFFFFF;stroke-miterlimit:10;}
</style>
<g id="Layer_4" class="st0">
	
		<image style="display:inline;overflow:visible;opacity:0.44;" width="2711" height="2444" xlink:href="../../Portfolio 2018/styles/img/screens/sitemap-festable2016.png"  transform="matrix(0.694 0 0 0.694 -15.3728 -127.6568)">
	</image>
</g>
<g id="Layer_2">
	<path class="st1" d="M869.4,708.5C651.8,328.1,557.7,35.5,458.1,34.7c-0.7,0-2.2,0-2.9,0c-70.6,0-120.6,63.6-361.9,399.6L5,559.6
		v565.5c0,0,0.6-0.1,0.8-0.2C376,891.2,989.9,930.6,989.9,930.6l10.7,0.7l-108-180.6"/>
	<path class="st1" d="M863.4,713C644.4,331.9,569,55.7,454.5,49.2c-0.5,0-1.6,0-2.1,0c-69.4,0-130.8,86.3-276.3,283.6L5,578.5"/>
	<path class="st1" d="M51.2,512.2c0,0,226.2-295.6,254.7-289.1c16.3,3.8-4.7,94.6,10.3,95.5c25.7,1.6,65.1-118.7,85.8-118.1
		c17.9,0.5,20.6,60.1,38.5,60.4c22.7,0.4,28.9-75,51.7-74.8c15.1,0.1,18.9,53.7,33.5,50.1c19.3-4.7,7.8-73,22.9-76.1
		c19.6-4.1,172,284.2,172,284.2"/>
	<g>
		<path class="st2" d="M517.3,360.4c0.1,8.1-0.1,16.2-0.2,24.3c-0.1,8.1-0.4,16.2-0.8,24.3c-0.4,8.1-1,16.2-2,24.3
			c-0.5,4-1.1,8.1-2,12.1c-0.4,2-0.9,4-1.6,6c-0.3,1-0.7,2-1.2,2.9c-0.3,0.5-0.6,1-1,1.4c-0.4,0.4-1,1-1.9,1c-0.9,0-1.5-0.6-1.9-1
			c-0.4-0.5-0.7-0.9-0.9-1.4c-0.5-1-0.9-2-1.2-2.9c-0.6-2-1.1-4-1.5-6c-0.8-4-1.4-8-1.8-12.1c-0.5-4-0.9-8.1-1.2-12.1
			c-0.3-4-0.6-8.1-0.9-12.1c-0.9-16.2-1.5-32.4-1.7-48.7c-0.2-16.2,0.1-32.5,1.1-48.7c0.5-8.1,1.2-16.2,2.2-24.3
			c0.5-4,1.1-8.1,2-12.1c0.4-2,0.9-4,1.6-6c0.3-1,0.7-2,1.2-3c0.3-0.5,0.6-1,1-1.5c0.4-0.5,1.1-1,2.1-1.1c1,0,1.6,0.6,2.1,1.1
			c0.4,0.5,0.7,1,1,1.5c0.5,1,0.9,2,1.2,3c0.7,2,1.1,4,1.6,6c0.8,4,1.5,8,1.9,12.1c1,8.1,1.6,16.2,2,24.3c0.4,8.1,0.6,16.2,0.7,24.3
			C517.2,344.2,517.3,352.3,517.3,360.4z M517.1,360.4c-0.1-8.1-0.2-16.2-0.5-24.3c-0.4-8.1-0.8-16.2-1.5-24.3
			c-0.7-8.1-1.4-16.1-2.5-24.2c-0.6-4-1.2-8-2-11.9c-0.4-2-0.9-3.9-1.5-5.8c-0.3-0.9-0.7-1.8-1.1-2.6c-0.2-0.4-0.5-0.8-0.7-1.1
			c-0.3-0.3-0.5-0.4-0.5-0.4c0,0-0.3,0.1-0.5,0.4c-0.2,0.3-0.5,0.7-0.7,1.1c-0.4,0.8-0.8,1.7-1.1,2.7c-0.6,1.9-1.1,3.8-1.5,5.8
			c-0.8,3.9-1.4,7.9-2,11.9c-1.1,8-1.8,16.1-2.4,24.2c-1.1,16.2-1.7,32.4-1.9,48.6c-0.1,8.1-0.1,16.2,0.1,24.3
			c0.2,8.1,0.5,16.2,1.1,24.3c0.3,4,0.6,8.1,1,12.1c0.4,4,0.9,8.1,1.5,12.1c0.6,4,1.2,8,2.1,11.9c0.4,2,0.9,3.9,1.6,5.8
			c0.3,0.9,0.7,1.8,1.1,2.7c0.2,0.4,0.5,0.8,0.7,1.1c0.3,0.3,0.5,0.4,0.7,0.4c0.1,0,0.4-0.1,0.7-0.4c0.3-0.3,0.5-0.7,0.7-1.1
			c0.4-0.8,0.8-1.7,1.1-2.7c0.6-1.9,1.1-3.8,1.5-5.8c0.8-3.9,1.4-7.9,2-11.9c1.1-8,1.8-16.1,2.5-24.2c0.7-8.1,1.1-16.2,1.5-24.3
			C516.9,376.6,517,368.5,517.1,360.4z"/>
	</g>
	<g>
		<path class="st2" d="M603.9,360.4c0.1,8.1-0.1,16.2-0.2,24.3c-0.1,8.1-0.4,16.2-0.8,24.3c-0.4,8.1-1,16.2-2,24.3
			c-0.5,4-1.1,8.1-2,12.1c-0.4,2-0.9,4-1.6,6c-0.3,1-0.7,2-1.2,2.9c-0.3,0.5-0.6,1-1,1.4c-0.4,0.4-1,1-1.9,1c-0.9,0-1.5-0.6-1.9-1
			c-0.4-0.5-0.7-0.9-0.9-1.4c-0.5-1-0.9-2-1.2-2.9c-0.6-2-1.1-4-1.5-6c-0.8-4-1.4-8-1.8-12.1c-0.5-4-0.9-8.1-1.2-12.1
			c-0.3-4-0.6-8.1-0.9-12.1c-0.9-16.2-1.5-32.4-1.7-48.7c-0.2-16.2,0.1-32.5,1.1-48.7c0.5-8.1,1.2-16.2,2.2-24.3
			c0.5-4,1.1-8.1,2-12.1c0.4-2,0.9-4,1.6-6c0.3-1,0.7-2,1.2-3c0.3-0.5,0.6-1,1-1.5c0.4-0.5,1.1-1,2.1-1.1c1,0,1.6,0.6,2.1,1.1
			c0.4,0.5,0.7,1,1,1.5c0.5,1,0.9,2,1.2,3c0.7,2,1.1,4,1.6,6c0.8,4,1.5,8,1.9,12.1c1,8.1,1.6,16.2,2,24.3c0.4,8.1,0.6,16.2,0.7,24.3
			C603.8,344.2,603.9,352.3,603.9,360.4z M603.7,360.4c-0.1-8.1-0.2-16.2-0.5-24.3c-0.4-8.1-0.8-16.2-1.5-24.3
			c-0.7-8.1-1.4-16.1-2.5-24.2c-0.6-4-1.2-8-2-11.9c-0.4-2-0.9-3.9-1.5-5.8c-0.3-0.9-0.7-1.8-1.1-2.6c-0.2-0.4-0.5-0.8-0.7-1.1
			c-0.3-0.3-0.5-0.4-0.5-0.4c0,0-0.3,0.1-0.5,0.4c-0.2,0.3-0.5,0.7-0.7,1.1c-0.4,0.8-0.8,1.7-1.1,2.7c-0.6,1.9-1.1,3.8-1.5,5.8
			c-0.8,3.9-1.4,7.9-2,11.9c-1.1,8-1.8,16.1-2.4,24.2c-1.1,16.2-1.7,32.4-1.9,48.6c-0.1,8.1-0.1,16.2,0.1,24.3
			c0.2,8.1,0.5,16.2,1.1,24.3c0.3,4,0.6,8.1,1,12.1c0.4,4,0.9,8.1,1.5,12.1c0.6,4,1.2,8,2.1,11.9c0.4,2,0.9,3.9,1.6,5.8
			c0.3,0.9,0.7,1.8,1.1,2.7c0.2,0.4,0.5,0.8,0.7,1.1c0.3,0.3,0.5,0.4,0.7,0.4c0.1,0,0.4-0.1,0.7-0.4c0.3-0.3,0.5-0.7,0.7-1.1
			c0.4-0.8,0.8-1.7,1.1-2.7c0.6-1.9,1.1-3.8,1.5-5.8c0.8-3.9,1.4-7.9,2-11.9c1.1-8,1.8-16.1,2.5-24.2c0.7-8.1,1.1-16.2,1.5-24.3
			C603.5,376.6,603.6,368.5,603.7,360.4z"/>
	</g>
	<g>
		<g>
			<path class="st1" d="M503.3,269.8c2,0.3,3.6,4.5,5,11.5"/>
			<path class="st3" d="M508.7,283.2c6.1,33.8,6.4,122.2-0.1,157.1"/>
			<path class="st1" d="M508.4,441.3c-1.2,5.9-2.5,10.2-4.1,12.2"/>
		</g>
	</g>
	<g>
		<g>
			<path class="st1" d="M589.9,269.8c2,0.3,3.6,4.5,5,11.5"/>
			<path class="st3" d="M595.3,283.2c6.1,33.8,6.4,122.2-0.1,157.1"/>
			<path class="st1" d="M595,441.3c-1.2,5.9-2.5,10.2-4.1,12.2"/>
		</g>
	</g>
	<g>
		<path class="st2" d="M615.6,375.6c1.1,6.1,1.7,12.3,2.1,18.4c0.2,3.1,0.3,6.2,0.3,9.3c0,3.1,0,6.2-0.1,9.3
			c-0.1,3.1-0.3,6.2-0.5,9.3c-0.3,3.1-0.5,6.2-0.9,9.2c-0.7,6.2-1.8,12.3-3.2,18.3c0.6-6.2,1.3-12.3,1.7-18.4
			c0.4-6.1,0.8-12.3,0.9-18.4c0.2-6.1,0.2-12.3,0.2-18.5C616,387.9,615.9,381.7,615.6,375.6z"/>
	</g>
	<g>
		<path class="st2" d="M578.4,455.1c0.8,2.7,1.8,5.3,2.9,7.9c1.1,2.6,2.3,5.1,3.7,7.5c1.4,2.4,2.9,4.8,4.6,6.9
			c1.8,2.1,3.7,4.1,5.9,5.6l-1.2,1.6c-2.3-1.8-4.2-4-5.9-6.3c-1.7-2.3-3.1-4.8-4.3-7.4c-1.3-2.5-2.3-5.2-3.3-7.8
			C579.9,460.5,579,457.8,578.4,455.1z"/>
	</g>
	<g>
		<path class="st2" d="M580.9,559.9c0.5,1.8,0.8,3.7,1,5.5c0.2,1.9,0.3,3.7,0.3,5.6c-0.1,1.9-0.4,3.7-0.4,5.6
			c-0.1,1.9,0,3.7,0.2,5.6c0.2,1.9,0.2,3.7,0.2,5.6c-0.1,1.9-0.1,3.8-0.4,5.6c-0.2,1.9-0.6,3.7-1.1,5.6c-0.3,0.9-0.6,1.8-0.9,2.7
			c-0.4,0.9-0.8,1.7-1.3,2.6l-0.2-0.1c0.7-3.7,1-7.3,1.4-11l0.6-5.5c0.2-1.8,0.4-3.7,0.6-5.5c0.3-1.8,0.3-3.7,0.3-5.6
			c-0.1-1.9-0.4-3.7-0.6-5.6c-0.2-1.9-0.2-3.7-0.2-5.6c0-1.9,0.1-3.7,0.3-5.6L580.9,559.9z"/>
	</g>
	<g>
		<path class="st2" d="M585.6,486.1v2h0c16.4,0,27.8,3.3,29.6,8.5c2.3,6.6-2.4,20.3-11.2,32.5c-7.5,10.5-15.9,17.1-21.8,17.1
			c-0.2,0-0.4,0-0.5,0c-5.5-0.4-12.6-7.4-18.4-18.2c-7.5-13.8-10.5-29-7-35.4c1.4-1.6,13.5-4.5,29.4-4.5L585.6,486.1 M585.6,486.1
			c-14.8,0-29.5,2.7-31.1,5.5c-7.6,13.7,11.4,55.5,27,56.6c0.2,0,0.4,0,0.7,0c15.8,0,39.9-37.5,34.9-52.3
			C614.5,488.6,600,486.1,585.6,486.1L585.6,486.1z"/>
	</g>
	<g>
		<path class="st2" d="M566,498.9c4.2,0.7,8.5,1.2,12.8,1.5c4.3,0.4,8.5,0.5,12.8,0.5c4.3,0,8.5-0.4,12.7-0.7
			c4.2-0.3,8.4-0.8,12.7-1.4l0.1,0.2c-4,1.6-8.3,2.6-12.6,3.2c-4.3,0.5-8.7,0.4-13,0.3c-4.3-0.2-8.6-0.6-12.9-1.1
			c-4.3-0.6-8.5-1.3-12.7-2.3L566,498.9z"/>
	</g>
	<line class="st4" x1="887.1" y1="753.2" x2="990.6" y2="930.6"/>
	<g>
		<polygon class="st2" points="613.6,679.4 623.6,697 621.9,697.9 		"/>
	</g>
	<g>
		<polygon class="st2" points="581.7,738.3 602.2,735.2 602.4,737.2 		"/>
	</g>
	<g>
		<path class="st2" d="M613.6,704.9c1.8-2.3,3.8-4.3,6.1-6.1c2.3-1.7,4.9-3.2,7.8-4c1.4-0.4,3-0.5,4.5-0.4c0.8,0.1,1.5,0.2,2.2,0.4
			c0.7,0.2,1.4,0.5,2.1,0.8c2.8,1.2,5.2,3.2,6.8,5.8c1.6,2.6,2.5,5.5,2.9,8.4c0.4,2.9,0.3,5.9-0.1,8.8c-0.8,5.8-2.5,11.3-5.1,16.5
			c-2.6,5.2-6.2,9.9-10.7,13.6c-2.3,1.8-4.8,3.4-7.6,4.3c-2.8,0.9-5.8,1.2-8.7,0.7c-2.9-0.5-5.7-2-7.5-4.3c-1.9-2.3-2.9-5.1-3.5-7.9
			c-0.6-2.8-0.7-5.7-0.6-8.6c0.1-2.9,0.4-5.7,1-8.5l0.2,0c-0.5,2.8-0.8,5.6-0.8,8.5c0,2.8,0.2,5.7,0.8,8.4c0.6,2.7,1.7,5.4,3.5,7.5
			c1.8,2.1,4.4,3.4,7.1,3.9c2.7,0.5,5.5,0.2,8.1-0.8c2.6-0.9,5-2.4,7.1-4.2c4.3-3.6,7.6-8.3,10.1-13.3c2.4-5.1,4-10.6,4.6-16.1
			c0.3-2.8,0.4-5.6,0-8.3c-0.3-2.7-1.1-5.4-2.5-7.6c-1.4-2.3-3.4-4.1-5.9-5.3c-1.2-0.6-2.5-1.1-3.8-1.2c-1.3-0.2-2.7-0.1-4,0.2
			c-2.7,0.6-5.2,1.8-7.5,3.4c-2.3,1.6-4.5,3.4-6.5,5.5L613.6,704.9z"/>
	</g>
	<g>
		<path class="st2" d="M625.5,717.6l-0.4,0.9l1.7,0.9l1.6,0.8l0.1,0l0.1,0c1.7,0.7,2.3,2.7,2.4,3.9c0.4,2.2,0,4.9-1.1,7.4
			c-2,4.5-5.5,6.9-7.8,6.9c-0.5,0-0.9-0.1-1.3-0.3c-2.4-1.1-3.1-7.1-1.3-11.3C621.1,722.6,623.2,719.6,625.5,717.6 M636.3,711
			c-3.9,0-13.2,1.5-18.9,15c-2,4.6-1.6,12.2,2.3,13.9c0.7,0.3,1.4,0.4,2.2,0.4c3.5,0,7.5-3.2,9.7-8.1c2.6-6,1.6-12.2-2.3-13.9
			l-1.6-0.8c0.3-0.7,4.9-4.5,10.5-6.4C638.2,711.2,637.5,711,636.3,711L636.3,711z"/>
	</g>
	<g>
		<path class="st2" d="M878.9,707.9c8,0,16.5,5.2,20.2,12.4c2.6,5,4.2,13.3-3.2,23.9c-2.7,3.9-13,10.3-29.8,16
			c-18.7,6.3-40.2,9.8-60.5,9.8c-21.1,0-41.1-3.5-59.6-10.5c2.9,0.1,5.8,0.2,8.6,0.2c58.5,0,85.9-23.9,103.9-39.7
			c5.7-5,10.2-8.9,14.4-10.9C874.7,708.3,876.7,707.9,878.9,707.9 M878.9,705.9c-2.4,0-4.8,0.5-6.8,1.4
			c-17.8,8.3-40.7,50.4-117.5,50.4c-6.2,0-12.8-0.3-19.8-0.9l7,3.2c21.5,8.7,43.4,12,63.8,12c46.9,0,85.6-17.6,91.9-26.7
			C913.1,723.2,894,705.9,878.9,705.9L878.9,705.9z"/>
	</g>
	<g>
		<path class="st2" d="M727.6,788c11,5.6,21.4,23.1,25.2,37.4c2.3,8.8,2,15.6-0.8,18.8c-2.9,3.2-7.2,5-11.9,5
			c-4.4,0-8.6-1.7-11.1-4.4c-2.1-2.3-3-5.2-2.6-8.5c0.2-1.9,1.2-4.5,2.4-7.5C732.7,819,738.4,804.9,727.6,788 M722.3,784.2
			c19.5,23.8,3,42.6,2.1,51.8c-1,9.6,7.2,15.1,15.7,15.1c4.9,0,9.8-1.8,13.3-5.7c10.2-11.3-8.5-54.1-27.9-60.5L722.3,784.2
			L722.3,784.2z"/>
	</g>
	<path class="st1" d="M898.8,462.3l-9.3,60.8l-27.8-9.7l1.7-21.5l22.9,7.4l3.7-52.2c0-10,8.1-18.2,18.2-18.2s18.2,8.1,18.2,18.2
		s-8.1,18-18.2,18.2C904.3,465.3,898.8,462.3,898.8,462.3z"/>
</g>
</svg>
