<?xml version="1.0" encoding="utf-8"?>
<!-- Generator: Adobe Illustrator 22.0.1, SVG Export Plug-In . SVG Version: 6.00 Build 0)  -->
<svg version="1.1" xmlns="http://www.w3.org/2000/svg" xmlns:xlink="http://www.w3.org/1999/xlink" x="0px" y="0px"
	 viewBox="0 0 1178 1182" style="enable-background:new 0 0 1178 1182;" xml:space="preserve">
<style type="text/css">
	.st0{fill:#FFFFFF;}
	.st1{fill:none;stroke:#FFFFFF;stroke-width:2;stroke-miterlimit:10;}
</style>
<g id="Layer_1">
</g>
<g id="Layer_2">
	<g>
		<g>
			<path class="st0" d="M592.3,368c30.6,0,60.2,5.7,88.1,17.1c26.9,10.9,51.1,26.6,71.9,46.6c20.8,19.9,37.1,43.2,48.5,69
				c11.8,26.8,17.8,55.2,17.8,84.5s-6,57.7-17.8,84.5c-11.4,25.9-27.7,49.1-48.5,69c-20.8,20-45,35.6-71.9,46.6
				c-27.9,11.3-57.5,17.1-88.1,17.1c-30.6,0-60.2-5.7-88.1-17.1c-26.9-10.9-51.1-26.6-71.9-46.6c-20.8-19.9-37.1-43.2-48.5-69
				C372,642.9,366,614.5,366,585.2s6-57.7,17.8-84.5c11.4-25.9,27.7-49.1,48.5-69c20.8-20,45-35.6,71.9-46.6
				C532.1,373.7,561.7,368,592.3,368 M592.3,366C466.2,366,364,464.1,364,585.2s102.2,219.2,228.3,219.2s228.3-98.1,228.3-219.2
				S718.3,366,592.3,366L592.3,366z"/>
		</g>
		<g>
			<path class="st0" d="M592.3,394.7c26.8,0,52.8,5,77.3,15c23.6,9.6,44.9,23.3,63.1,40.8c18.2,17.5,32.5,37.9,42.5,60.5
				c10.3,23.5,15.6,48.4,15.6,74.1s-5.2,50.6-15.6,74.1c-10,22.7-24.3,43-42.5,60.5c-18.2,17.5-39.4,31.2-63.1,40.8
				c-24.5,9.9-50.5,15-77.3,15c-26.8,0-52.8-5-77.3-15c-23.6-9.6-44.9-23.3-63.1-40.8c-18.2-17.5-32.5-37.9-42.5-60.5
				c-10.3-23.5-15.6-48.4-15.6-74.1s5.2-50.6,15.6-74.1c10-22.7,24.3-43,42.5-60.5c18.2-17.5,39.4-31.2,63.1-40.8
				C539.5,399.8,565.5,394.7,592.3,394.7 M592.3,392.7c-110.7,0-200.4,86.2-200.4,192.4s89.7,192.4,200.4,192.4
				s200.4-86.2,200.4-192.4S703,392.7,592.3,392.7L592.3,392.7z"/>
		</g>
		<g>
			<path class="st0" d="M488.6,467.2l166.8,157.3l1.2,1.2l1.4-1l17.9-13.9l0.9-0.7l-0.1-1.1c0,0-0.3-4.5,2.5-7
				c1-0.9,2.2-1.3,3.6-1.3c2,0,4.2,1,5.9,2.7c0.4,0.4,0.8,1.7,0.8,3.5c-0.1,2.2-0.8,4.2-1.4,4.8c-1.5,1.3-5.4,2.2-7.5,2.4l-0.8,0.1
				l-0.5,0.6L660,636.6l-1.2,1.4l1.3,1.3l43.7,46.2l0.6,0.7l0.9,0l7-0.3c2.9,1,5.7,2.5,6.2,3.3c0.2,1.4-2.9,6.4-6.7,10.7
				c-3.9,3.4-10.6,8.2-13.4,8.2c-0.1,0-0.2,0-0.3,0c-0.7-0.4-2.1-3-3-5.6l0.8-6.7l0.1-1.1l-0.8-0.7l-48.9-42l-1.3-1.1l-1.3,1.1
				l-24.4,19.9l-0.9,0.8l0.3,1.2c0,0,0.7,3.5-1.3,5.2c-0.9,0.8-3,1.3-5.1,1.3c-2.1,0-4.1-0.5-4.8-1.4c-2.5-2.7-1.4-6.9,1-9.3
				c1.6-1.6,3.7-1.9,5.1-1.9c0.6,0,1,0.1,1,0.1c0,0,0,0,0,0l1.1,0.2l0.7-0.9l14.2-16.5l1.2-1.4l-1.4-1.3l-166.1-159v-21.6H488.6
				 M489.4,465.2h-27v24.4l166.7,159.6l-14.2,16.5c0,0-0.5-0.1-1.4-0.1c-1.6,0-4.4,0.4-6.5,2.5c-3.2,3.2-4.2,8.6-1.1,12
				c1.2,1.4,3.8,2,6.3,2c2.5,0,5-0.6,6.4-1.8c3-2.5,2-7.2,2-7.2l24.4-19.9l48.9,42l-0.8,7.2c0,0,2.2,6.7,4.4,7.3
				c0.3,0.1,0.5,0.1,0.9,0.1c4.9,0,14.8-8.8,14.8-8.8s8.2-9.1,7.2-12.7c-0.6-2.3-7.8-4.8-7.8-4.8l-7.4,0.3l-43.7-46.2l19.4-21.8
				c0,0,6.2-0.6,8.7-2.9c2.2-2,3-8.9,0.7-11.2c-2.2-2.2-4.8-3.3-7.3-3.3c-1.8,0-3.5,0.6-4.9,1.8c-3.7,3.2-3.2,8.7-3.2,8.7L656.8,623
				L489.4,465.2L489.4,465.2z"/>
		</g>
		<polygon class="st1" points="595.6,557 695.3,464.4 719.7,463.6 720.5,490.6 622.5,582.8 		"/>
		<path class="st1" d="M586.1,617l-33.6,31.6l14.4,17.5c0,0,5.4-0.6,8.7,3c3,3.3,2.4,8.5-1.1,12.3c-2.2,2.4-9.2,1.8-11.2-0.4
			c-2.3-2.4-3.1-8.6-3.1-8.6l-22.4-18.7l-49.3,40.8l0.6,7.4c0,0-2.2,7.3-4.5,8c-3.6,1-12.9-6.9-12.9-6.9s-10.3-10.9-9.1-15.4
			c0.6-2.2,7.2-4.6,7.2-4.6l7.2,0.6l44.4-44.9l-20.6-23.8c0,0-4.6,1.2-7.2-1.7c-2.4-2.7-2.8-10.2-0.1-12.7c3.4-3.2,8.7-2.5,12,0.7
			c3.4,3.2,2.7,7.8,2.7,7.8l16.9,13.7L559,591L586.1,617z"/>
		<g>
			<path class="st0" d="M1041,293c10.5,0,19,8.5,19,19v558c0,10.5-8.5,19-19,19H137c-10.5,0-19-8.5-19-19V312c0-10.5,8.5-19,19-19
				H1041 M1041,291H137c-11.5,0-21,9.5-21,21v558c0,11.5,9.5,21,21,21h904c11.6,0,21-9.5,21-21V312C1062,300.5,1052.6,291,1041,291
				L1041,291z"/>
		</g>
		<path class="st1" d="M629.2,368.9c4.1-22.7-22.8-73.9-36.9-73.9c-12.2,0-41.4,51.2-36.9,73.9"/>
		<path class="st1" d="M705.3,395.5c11.6-20,3.6-77.2-9.7-82c-11.5-4.1-56.3,34.2-59.8,57"/>
		<path class="st1" d="M766.2,363.6c4.2-22.7,2.7-48.5-5.4-53.3c-7.4-4.4-35.2,9-53.5,25"/>
		<path class="st1" d="M827.5,378.6c7-22,23.6-65,11.7-74.8c-10.6-8.8-50.8,14.6-71,28.1"/>
		<path class="st1" d="M833.5,432.8c12.8-19.2,21.6-43.5,16-51.1c-5.1-7-37.4-2.7-60.5,4.7"/>
		<path class="st1" d="M955.3,435.9c18.2-18.1,33.2-58.9,27.6-66.4c-5.1-7-56.9-2.1-85.4,12.4"/>
		<path class="st1" d="M887,467c15-17.5,46.3-50.8,37.5-63.6c-7.2-10.5-52.4-4.8-76.2-0.2"/>
		<path class="st1" d="M984.1,417.1c20.4-17.8,60.1-62,51.4-74.7c-7.2-10.5-68-7.1-93.2,3.7"/>
		<path class="st1" d="M887.9,397.3c12.8-19.2,34.5-57.1,26.6-66.7c-6.9-8.5-51.9,2.2-75,9.7"/>
		<path class="st1" d="M926.9,371.7c12.8-19.2,34.8-58.2,26.9-67.9c-6.9-8.5-51.9,2.2-75,9.7"/>
		<path class="st1" d="M874.1,524.7c18.4-13.9,37.3-38.4,34.5-47.4c-2.6-8.2-37.5-14.8-61.8-15.4"/>
		<path class="st1" d="M995,490.3c25.6-13.3,56.8-50.3,54-59.3c-2.6-8.2-52-15.2-80-13.7"/>
		<path class="st1" d="M912.4,568.5c25.6-12.6,61.3-40.6,59-49.7c-2.1-8.4-45.4-20.8-71.5-20.8"/>
		<path class="st1" d="M981.3,563.2c25.6-12.6,67.1-45.3,64.9-54.4c-2.1-8.4-60.9-23.1-86.9-23.1"/>
		<path class="st1" d="M935.8,503c24.6-14.4,54.3-45.8,51.3-54.7c-2.7-8.2-46.8-17.4-72.8-15.5"/>
		<path class="st1" d="M848.6,709.7c23.1-0.3,57.3-5,60.4-13.9c2.8-8.2-15.9-29.8-35.1-44.6"/>
		<path class="st1" d="M966.7,760c23.1-0.3,80.5-3.1,86.6-17.3c5.6-12.9-38-45.5-63.7-59.8"/>
		<path class="st1" d="M788.6,781c20.8,9.9,53.3,17.5,59.9,10.9c6.1-6.1-3.4-30.4-14-52.2"/>
		<path class="st1" d="M906.7,804.3c28.6,5.4,73.5,3.9,78.1-4.3c4.2-7.6-18-51.7-48-65.3"/>
		<path class="st1" d="M943.9,827.7c28.6,5.4,84.7,7.9,89.2-0.3c4.2-7.6-19.6-53.8-49.6-67.4"/>
		<path class="st1" d="M843.7,832.1c20.8,9.9,63.3,14.7,69.9,8.1c6.1-6.1-8.5-52.7-29-65.4"/>
		<path class="st1" d="M706.8,834.8c16.4,16.3,44.5,30.7,53,26.7c7.8-3.7,6.9-29.8,4-53.9"/>
		<path class="st1" d="M878.8,620.1c22-7,52.6-27.8,52.6-34.9c0-7-29.9-24.4-52.6-33"/>
		<path class="st1" d="M898.9,675.1c22.8-3.8,74.6-14,75.8-25.7c0.7-6.9-30.8-36.2-62.1-46.2"/>
		<path class="st1" d="M915.3,734.8c23.1,0.2,71.1-1,74.2-12.3c1.9-6.7-21.7-40-50.8-55.3"/>
		<path class="st1" d="M947.8,621.5c23.8-6.5,65.8-27.8,65.8-34.9c0-7-40.5-31-69.8-37.6"/>
		<path class="st1" d="M547.6,370.7c-3.9-22.7-46.6-61.7-59.9-56.9c-11.5,4.2-21.5,62.3-9.5,82.1"/>
		<path class="st1" d="M477.1,331.9c-19.7-15.1-45.6-27.5-53.2-22.3c-6,4.1-6.7,30.5-3.2,53.6"/>
		<path class="st1" d="M417,446.5c-17.2-15.3-74.9-19.1-82.3-7c-6.4,10.4,22.1,62.1,43.8,70"/>
		<path class="st1" d="M336.9,404.6c-24.1-8.2-74.1-11.9-80.1-3c-4,6,19.8,55.6,41.5,63.6"/>
		<path class="st1" d="M281.5,372.2c-24.1-8.2-76.9-11.2-82.9-2.3c-4,6,20.5,56.2,42.2,64.1"/>
		<path class="st1" d="M245.9,353.4c-31-21.1-92.8-18.8-99.2-10.2c-7.7,10.3,25.1,61.7,46.8,69.6"/>
		<path class="st1" d="M475.4,397.6c-11-20.3-64-43.4-75.1-34.5c-9.5,7.7-0.3,65.9,17.5,80.7"/>
		<path class="st1" d="M418.6,333.7c-13.2-15.8-68.9-35.5-75.1-29.9c-6.4,5.8-0.3,60.9,17.5,75.8"/>
		<path class="st1" d="M397,388.6c-24.2-8.9-56.6-13.1-61.4-8.7c-6.1,5.7,2,33.1,14.4,53.2"/>
		<path class="st1" d="M343.9,341.4c-24.2-8.9-63.8-18.7-71.6-12.5c-9.2,7.3,9.8,47.4,22.1,67.5"/>
		<path class="st1" d="M300.1,306.6c-24.2-8.9-62.6-16.9-71.6-12.5c-15.8,7.7,11.3,51.5,26,71.8"/>
		<path class="st1" d="M339.8,463.6c-25.6-2.6-61,3.5-64.5,8.9c-4.6,7,20.6,34.2,37.6,50.7"/>
		<path class="st1" d="M219.4,415.3c-39.9-7.7-78,4.1-81.6,9.6c-4.6,7,22,40.3,51.6,62.7"/>
		<path class="st1" d="M268.2,433.1c-25.6-2.6-67.6,9-71.2,14.4c-7,10.4,27.5,42.5,47,56.6"/>
		<path class="st1" d="M376.8,512.8c-21.7-7.9-76.7,9.8-79.1,23.8c-2.1,12,43.4,49.6,66.5,49"/>
		<path class="st1" d="M289.1,498.4c-25.9-2.4-74.2,12.4-76.3,24.8c-1.7,9.8,33.3,36.2,58.3,45"/>
		<path class="st1" d="M220.6,484.7c-25.9-2.4-72.2,12.4-74.3,24.8c-1.7,9.8,27.4,38.6,64,49.7"/>
		<path class="st1" d="M378.7,660.4c-22.2,8.3-53.2,59.1-45.7,71.7c6.5,10.8,67.1,9.7,84.8-6.3"/>
		<path class="st1" d="M197.8,756.3c-22.2,8.3-53.2,58.1-45.7,70.7c6.5,10.8,67.1,9.7,84.8-6.3"/>
		<path class="st1" d="M241.8,737c-22.2,8.3-51.3,59.4-43.8,72c6.5,10.8,61.5,10.6,79.1-5.4"/>
		<path class="st1" d="M309.9,650.5c-17.5,14.3-37.6,35.6-34.9,44.3c2.7,8.6,35.2,17.6,60.3,18"/>
		<path class="st1" d="M185.8,681.6c-28.4,10.3-54.8,46.4-52.1,55.1c2.7,8.6,54.4,23.9,86.4,18.4"/>
		<path class="st1" d="M241.8,665.9c-21,13.1-46.3,48.6-43.6,57.2c2.7,8.6,46.7,18.9,72.1,11.8"/>
		<path class="st1" d="M366,588.3c-24.2-0.1-72.7,35.5-70.4,49.5c2.1,12,60,31.8,82.8,23.3"/>
		<path class="st1" d="M273.1,603.1c-25.5,6.2-62.3,35-60.2,47.5c1.7,9.9,45.7,22.3,74,21.8"/>
		<path class="st1" d="M209.4,613.8c-25.5,6.2-66.5,28.6-66.4,49.5c0,10,48.8,22.4,77.1,21.8"/>
		<path class="st1" d="M241.8,553c-26.2,0.1-68.7,19.6-69.5,32.2c-0.7,10,35.2,31.3,62.9,37.4"/>
		<path class="st1" d="M307.3,553.2c-24.2,6.3-51,20.9-51.5,30.8c-0.4,8.7,26.1,27.4,50,36.2"/>
		<path class="st1" d="M417.6,726.6c-17.3,15.3-27.9,72.1-16.8,80.9c9.6,7.6,64.3-14.5,74.8-35.1"/>
		<path class="st1" d="M320,839.5c-10.1,8.9-16.5,30.7-19,50.2"/>
		<path class="st1" d="M463.4,844.8c-10.1,8.9-16.8,22.4-16.8,44.9"/>
		<path class="st1" d="M389.3,855.8c-8.4,10.6-8.3,14.4-9.7,33.9"/>
		<path class="st1" d="M358.9,792c-13.1,21.6-19.6,64.8-10,72.4c8.4,6.6,51.3-9.5,68.9-27.4"/>
		<path class="st1" d="M346,737.8c-9.7,20.6-14.6,47-10.5,51.9c3.7,4.4,37.6,2.4,61.1-6.1"/>
		<path class="st1" d="M299.3,771.6c-19.9,17.5-36.9,62.9-28.6,72.2c6.2,7,50.9-2.1,75.2-14"/>
		<path class="st1" d="M240.8,815.2c-17.3,20.1-30.2,65.3-20.7,73.4c7.1,6.1,67-16.8,89.4-31.9"/>
		<path class="st1" d="M296.2,706.7c-22.8,15.1-41.5,53.7-38.9,59.5c2.4,5.3,50,7.9,78,2.3"/>
		<path class="st1" d="M768.5,447.2c17.2-15.3,74.9-19.1,82.3-7c6.4,10.4-22.1,62.1-43.8,70"/>
		<path class="st1" d="M710.1,398.4c11-20.3,64-43.4,75.1-34.5c9.5,7.7,0.3,65.9-17.5,80.7"/>
		<path class="st1" d="M807.2,513.9c21.7-7.9,78.3,9.4,80.7,23.4c2.1,12-45.3,49.4-68.5,48.8"/>
		<path class="st1" d="M806.9,661.1c22.2,8.3,53.2,59.1,45.7,71.7c-6.5,10.8-67.1,9.7-84.8-6.3"/>
		<path class="st1" d="M886.4,705.9c22.5,12.9,45.2,48.5,37.7,61.1c-6.5,10.8-55.7,10.6-78.5-2"/>
		<path class="st1" d="M819.6,589c24.2-0.1,72.7,35.5,70.4,49.5c-2.1,12-60,31.8-82.8,23.3"/>
		<path class="st1" d="M975.4,611.6c27.3,5.5,69.9,35.6,67.6,49.5c-2.1,12-53.4,25.3-80,23.3"/>
		<path class="st1" d="M767.9,727.3c17.3,15.3,27.9,72.1,16.8,80.9c-9.6,7.6-64.3-14.5-74.8-35.1"/>
		<path class="st1" d="M826,793c17.3,15.3,25.7,67.7,14.6,76.5c-9.6,7.6-64.3-14.5-74.8-35.1"/>
		<path class="st1" d="M554.5,801.1c-4.1,22.7,22.8,73.9,36.9,73.9c12.2,0,41.4-51.2,36.9-73.9"/>
		<path class="st1" d="M554.5,889.7c6.9-7.6,14.3-18.3,19.8-29.2"/>
		<path class="st1" d="M509.6,846.3c2.8,15.1,9.5,32,16.7,42.9"/>
		<path class="st1" d="M478.3,774.4c-11.6,20-3.6,77.2,9.7,82c11.5,4.1,56.3-34.2,59.8-57"/>
		<path class="st1" d="M423.1,806c-6.7,23.2-8.8,50.8-0.6,55.4c7.6,4.3,35.7-10.2,53.6-26.8"/>
		<path class="st1" d="M636.1,799.3c3.9,22.7,46.6,61.7,59.9,56.9c11.5-4.2,21.5-62.3,9.5-82.1"/>
		<path class="st1" d="M736.1,889.2c1-11.3,0.7-23.8-1.2-34.2"/>
		<path class="st1" d="M666.3,878.6c2.4,3.9,4.5,7.1,8.2,11.1"/>
		<path class="st1" d="M661.4,889.7c5.5-10.8,10.5-27.2,12.3-41.9"/>
		<path class="st1" d="M607.6,860.6c5.7,10.3,13.7,20.8,21.6,28.6"/>
		<path class="st1" d="M520.6,879.2c0,0-5.9,8.7-8.9,10.5"/>
		<path class="st1" d="M802.6,862.1c0,0,13.8,24.5,11.2,27.6"/>
		<path class="st1" d="M860.9,838c0,0,28.4,26.9,24.6,51.6"/>
		<path class="st1" d="M929.6,807.6c0,0,37.1,47,37.1,74.7c0,19.4-83.5-11.2-83.5-11.2"/>
		<path class="st1" d="M971.8,831.3c0,0,36.6,28.7,43.7,58"/>
		<path class="st1" d="M1003.1,863.9c0,0,31,16.1,58.4,10.9"/>
		<path class="st1" d="M1015.9,783.4c0,0,33.3,12.9,45.5,51.4"/>
		<path class="st1" d="M1010.3,781.5c20.1,6.7,12.3,14.8,51.2,7"/>
		<path class="st1" d="M1061.4,722.9c0,0-16.9-13.2-33.8-14.2"/>
		<path class="st1" d="M1009.1,695c0,0,31-2.1,52.3-16"/>
		<path class="st1" d="M1024.7,621.1c0,0,10.2,1,36.3,18"/>
		<path class="st1" d="M1010.3,626.5c0,0,43.7-16,51.2-25.4"/>
		<path class="st1" d="M1005,549c0,0,23.8-2.5,56.5,26.5"/>
		<path class="st1" d="M1023.8,552.3c12.9-0.2,37.6-19,37.6-19"/>
		<path class="st1" d="M1010.3,480.2c0,0,30.7-1.4,51.2,10.5"/>
		<line class="st1" x1="1048.5" y1="435.9" x2="1061.4" y2="426.8"/>
		<path class="st1" d="M1023.8,373.7c0,0,19.3-3.5,37.6,3.6"/>
		<path class="st1" d="M984.1,336.5c0,0,25-22.9,25.1-45.5"/>
		<path class="st1" d="M1057.9,301.1c0,0-26.3-4.1-57.2,15.1"/>
		<path class="st1" d="M866.2,332.9c0,0,21.2-28.4,21-40.3"/>
		<path class="st1" d="M798.6,313.8c0,0,6.1-5.9,9.8-21.2"/>
		<path class="st1" d="M736.2,316.1c0,0,5.1-2.4,1.8-23.5"/>
		<path class="st1" d="M673.4,323c0,0,2.4-11.5-9.5-30.4"/>
		<path class="st1" d="M611.5,312.7c0,0,2.9-12.7,12.6-20.1"/>
		<line class="st1" x1="668.8" y1="301.8" x2="673.4" y2="292.6"/>
		<path class="st1" d="M510.2,322.7c0,0,2.2-22.3,10-30.1"/>
		<path class="st1" d="M574.8,311.2c0,0-3.3-9.4-12.4-19.6"/>
		<path class="st1" d="M447.8,314c0,0-2-13.9,0-22.4"/>
		<path class="st1" d="M382.5,312.2c0,0-2.8-10.9-2.7-20.6"/>
		<path class="st1" d="M319.9,333.8c0,0-19.5-14.1-23.5-42.2"/>
		<path class="st1" d="M169.4,392.7c0,0-37.2-9.7-52.4-2.8"/>
		<path class="st1" d="M199.8,338.2c0,0-31.4-39.4-25.5-46.6"/>
		<path class="st1" d="M180.5,310.8c0,0-42.9-13.2-61.5-7.9"/>
		<path class="st1" d="M117,358.2c0,0,7.3,17.4,32.8,30.6"/>
		<path class="st1" d="M178.3,478.5c0,0-35.8-11.4-61.3,9"/>
		<path class="st1" d="M117,440.1c0,0,15.3,24.3,47,35.2"/>
		<path class="st1" d="M181.6,546.4c0,0-46.1-1.8-64.6,26.4"/>
		<path class="st1" d="M151,550.4c0,0-20.4-4.9-34-15.1"/>
		<path class="st1" d="M178.3,625.7c0,0-34.5-0.1-61.3-22.6"/>
		<path class="st1" d="M156.8,622.6c0,0-26.8,8.5-39.8,20"/>
		<path class="st1" d="M164.7,693.8c0,0-35.2-1-47.7,12.8"/>
		<path class="st1" d="M117,687.9c0,0,20.1,5.8,29.2,7"/>
		<path class="st1" d="M182.8,766.6c0,0-31.8,5-65.8-8.9"/>
		<path class="st1" d="M172.3,834.1c0,0-35.3,26.5-38.2,55.1"/>
		<path class="st1" d="M149.9,766.3c0,0-23,10.4-32.9,34.8"/>
		<path class="st1" d="M164.7,840.4c0,0-32.6,15.8-48.7,5.8"/>
	</g>
</g>
</svg>
