<?xml version="1.0" encoding="utf-8"?>
<!-- Generator: Adobe Illustrator 22.0.1, SVG Export Plug-In . SVG Version: 6.00 Build 0)  -->
<svg version="1.1" id="Layer_1" xmlns="http://www.w3.org/2000/svg" xmlns:xlink="http://www.w3.org/1999/xlink" x="0px" y="0px"
	 viewBox="0 0 1178 1182" style="enable-background:new 0 0 1178 1182;" xml:space="preserve">
<style type="text/css">
	.st0{display:none;}
	.st1{fill:none;stroke:#FFFFFF;stroke-width:2;stroke-miterlimit:10;}
</style>
<g id="Layer_2_1_" class="st0">
	
		<image style="display:inline;overflow:visible;opacity:0.33;enable-background:new    ;" width="400" height="392" xlink:href="../../Portfolio 2018/styles/img/identity/Shred-identity02.png"  transform="matrix(2.885 0 0 2.885 12 25.54)">
	</image>
</g>
<g id="Layer_3">
	<path class="st1" d="M686.2,194.9c190.7,42.7,333.3,213,333.3,416.6c0,235.8-191.1,426.9-426.9,426.9S165.7,847.2,165.7,611.5
		c0-206.6,146.7-378.9,341.6-418.4l17.3-27c-214.6,34-378.7,219.8-378.7,444c0,248.3,201.3,449.5,449.5,449.5S1045,858.4,1045,610.1
		c0-223.4-163-408.8-376.5-443.6L686.2,194.9z"/>
	<path class="st1" d="M595.5,150.1c0,0-135.2,107.9-113.6,385.6l104.2,3.2l2.9-320.4c0,0,0-5.8,7.5-5.8c7.8,0,8.2,7,8.2,7l1,319.1
		l102.6-2.2C738.4,265.2,595.5,150.1,595.5,150.1z"/>
	<polygon class="st1" points="518.4,689.5 584.9,687.9 584.9,745.8 547.5,764 	"/>
	<polygon class="st1" points="606.8,687.9 673.3,687.9 645.2,764 606.8,745.8 	"/>
	<path class="st1" d="M728.3,534.7c30-283.4-132.8-410.6-132.8-410.6S434.2,253.9,462.7,531.6l-69.2-7.1V494c0,0-2.7-4.1-9.2-4.1
		c-6.2,0-9.2,4.1-9.2,4.1v27.5c0,0-8.8-0.1-11.7-0.5c-7-1-27.5-6.6-27.5-6.6v-10.1c-11.7-2.8-14.8,7.1-14.8,7.1s-27.2-2-36.1-0.5
		c-24.3,3.9-59.5,20.7-68.2,71.2c-2.2,13-1.4,45.9,0,61.1c2.7,29.2,25.7,58.9,59.5,69.2c13,4,35.2,2.7,46.8,1
		c21.2-3.1,36.2-6.9,47.3-9.7c38.7-9.6,126.7-12.2,126.7-12.2l39.2,94.1l59.5-25.9l58.5,25.9l41.2-97.6c0,0,72.9,3.1,105.3,10.6
		c13.3,3.1,39.1,12,52.4,14.8c16.1,3.3,41.3,6.6,57,2c24.9-7.2,55.7-29.8,63.1-70.2c2.3-12.8,3.2-39,2-51.9
		c-3.4-35.3-20.9-63-47.8-75.3c-7.5-3.4-20.7-9.5-42.7-7.6c-4,0.3-15.8,2.6-15.8,2.6s-3-11.7-15.2-10.7V515c0,0-7.3,1-9.7,1.5
		c-7.3,1.5-29,7.7-29,7.7l-0.5-30c0,0-2.5-4.1-8.1-4.1c-6.3,0-9.7,4.1-9.7,4.1l0.5,32.1C782.7,532.7,728.3,534.7,728.3,534.7z"/>
	<path class="st1" d="M383.7,352.3l-36.5,55.8h13.5l-30,47.8l19.5-2.5l-28.5,45.3c0,0,42.5-11.4,57-13c2.7-0.3,8.3-0.3,11,0
		c14.3,1.6,56.3,13,56.3,13l-28.3-45.8l19.5,3l-30.8-48.3h13.8L383.7,352.3z"/>
	<polygon class="st1" points="329.4,392.2 346.1,419.1 319.4,463.3 338,460.8 314.5,497.6 282,504.7 302.1,470 287,472.1 
		310.8,434.8 300.9,435 	"/>
	<path class="st1" d="M805.1,352.3l36.5,55.8h-13.5l30,47.8l-19.5-2.5l28.5,45.3c0,0-42.5-11.4-57-13c-2.7-0.3-8.3-0.3-11,0
		c-14.3,1.6-56.3,13-56.3,13l28.3-45.8l-19.5,3l30.8-48.3h-13.8L805.1,352.3z"/>
	<polygon class="st1" points="859.4,392.2 842.7,419.1 869.4,463.3 850.8,460.8 874.3,497.6 906.8,504.7 886.7,470 901.7,472.1 
		878,434.8 887.9,435 	"/>
	<path class="st1" d="M449.3,874.5c96.3,52.9,216.6,44.9,315.1,0l81.1,31.9c-109.4,110.8-366.1,116.8-487.5,0L449.3,874.5z"/>
	<path class="st1" d="M450.1,886.8c101.6,51.6,217,48.2,313.7,0l59.3,23.2c-112,91.3-339,85.3-441.7,0.4L450.1,886.8z"/>
	<path class="st1" d="M290.7,828.3l51.4,50.9L447,848.6c104.6,49.3,204.6,49.3,311.6,0l98.2,30.6l50.9-50.9
		c-99.2-7.8-147.5-40.5-147.5-40.5c-103.4,48.9-208.6,48.4-314.2,0C446,787.8,360.3,825.2,290.7,828.3z"/>
	<path class="st1" d="M311.7,835.7l30.4,29.5L447,834.5c104.6,49.3,204.6,49.3,311.6,0l98.2,30.6l30.9-29.5
		c-86.4-9.2-127.5-35.5-127.5-35.5c-103.4,48.9-208.6,48.4-314.2,0C446,800.2,381.3,828.3,311.7,835.7z"/>
	<path class="st1" d="M515.8,781.5l-18.7-48.6l-53.4-20c0,0-79.4,45.1-200,36.9l25.2,42.5c98,4.3,174.4-35.4,174.4-35.4L515.8,781.5
		z"/>
	<path class="st1" d="M497.8,765.7l-8.8-23.6l-45.1-17c0,0-74.6,42.5-181.5,35.9l12.8,20.5c90.7,1.9,168.3-36.4,168.3-36.4
		L497.8,765.7z"/>
	<path class="st1" d="M679.1,781.5l18.7-48.6l53.4-20c0,0,79.4,45.1,200,36.9L926,792.4c-98,4.3-174.4-35.4-174.4-35.4L679.1,781.5z
		"/>
	<path class="st1" d="M697.2,765.7l8.8-23.6l45.1-17c0,0,74.6,42.5,181.5,35.9l-12.8,20.5c-90.7,1.9-168.3-36.4-168.3-36.4
		L697.2,765.7z"/>
	<path class="st1" d="M359.6,533.3c120,23.8,343.9,25.1,471,0c17.4-3.4,52.6-11.9,70.1-9.4c56.4,8.1,63.2,61.7,63.3,88.9
		c0.1,27.5-10,79.5-63.3,90.2c-18.5,3.7-56.5-6.5-74.5-11.9c-89.6-26.9-367.7-23.2-466.6,0.6c-16.9,4.1-51.7,11.4-68.8,8.8
		c-57.1-8.8-62.5-60.2-62.7-87.1c-0.2-27.3,6.9-82,62.7-89.6C307.9,521.6,342.5,530,359.6,533.3z"/>
</g>
</svg>
