<?xml version="1.0" encoding="utf-8"?>
<!-- Generator: Adobe Illustrator 22.0.1, SVG Export Plug-In . SVG Version: 6.00 Build 0)  -->
<svg version="1.1" xmlns="http://www.w3.org/2000/svg" xmlns:xlink="http://www.w3.org/1999/xlink" x="0px" y="0px"
	 viewBox="0 0 791 600" style="enable-background:new 0 0 791 600;" xml:space="preserve">
<style type="text/css">
	.st0{display:none;}
	.st1{display:inline;fill:#333333;stroke:#000000;stroke-linecap:round;stroke-linejoin:bevel;stroke-miterlimit:10;}
	.st2{display:inline;fill:none;stroke:#000000;stroke-linecap:round;stroke-linejoin:bevel;stroke-miterlimit:10;}
	.st3{fill:#FFFFFF;stroke:#FFFFFF;stroke-linecap:round;stroke-linejoin:bevel;stroke-miterlimit:10;}
</style>
<g id="Layer_1">
	<g id="Layer_7" class="st0">
		<rect x="0.5" y="0.5" class="st1" width="790" height="600"/>
	</g>
</g>
<g id="Layer_2" class="st0">
	<polygon class="st2" points="575.5,72.5 144.5,504.5 288.5,504.5 504.5,287.5 593.5,460.5 604.5,460.5 506.5,269.5 285.5,493.5 
		171.5,494.5 575.5,88.5 	"/>
</g>
<g id="Layer_3" class="st0">
	<polygon class="st2" points="575.5,71.5 790.5,504.5 781.5,504.5 575.5,88.5 	"/>
</g>
<g id="Layer_4">
</g>
<g id="Layer_6">
	<g>
		<polygon class="st3" points="593.5,460.5 402.1,390.4 409.7,382.7 576.5,444.5 498,294 504.5,288.5 		"/>
		<polygon class="st3" points="575.5,88.5 781.5,504.5 588.3,429.1 583.2,419.1 767.5,491.5 568,96 		"/>
		<path class="st3" d="M144.5,504.5l-144-70l430-405l145,43L144.5,504.5z M143.5,492.5l418-416l-129-38l-417,393L143.5,492.5z"/>
		<polygon class="st3" points="176,488 283.5,487.5 492.5,274.5 406.1,258 412,252 506.5,269.5 287.5,494.5 169.5,494.5 		"/>
	</g>
</g>
<g id="Layer_5">
	<polygon class="st3" points="604.5,460.5 506.5,269.5 285.5,493.5 169.5,494.5 575.5,88.5 781.5,504.5 790.5,504.5 575.5,72.5 
		144.5,504.5 288.5,504.5 504.5,287.5 593.5,460.5 	"/>
</g>
</svg>
