<?xml version="1.0" encoding="utf-8"?>
<!-- Generator: Adobe Illustrator 22.0.1, SVG Export Plug-In . SVG Version: 6.00 Build 0)  -->
<svg version="1.1" id="Layer_1" xmlns="http://www.w3.org/2000/svg" xmlns:xlink="http://www.w3.org/1999/xlink" x="0px" y="0px"
	 viewBox="0 0 1178 1182" style="enable-background:new 0 0 1178 1182;" xml:space="preserve">
<style type="text/css">
	.st0{display:none;}
	.st1{fill:none;stroke:#FFFFFF;stroke-width:2;stroke-miterlimit:10;}
	.st2{fill:#FFFFFF;}
	.st3{fill:none;stroke:#FFFFFF;stroke-width:2;stroke-miterlimit:10;stroke-dasharray:24.5342,1.8872;}
	.st4{fill:none;stroke:#FFFFFF;stroke-miterlimit:10;}
</style>
<g id="Layer_4" class="st0">
	
		<image style="display:inline;overflow:visible;opacity:0.44;enable-background:new    ;" width="2711" height="2444" xlink:href="../../Portfolio 2018/styles/img/screens/sitemap-festable2016.png"  transform="matrix(0.694 0 0 0.694 -15.3728 -127.6568)">
	</image>
</g>
<g id="Layer_2_1_">
	<g>
		<path class="st1" d="M239.4,899.5c242.7-94.1,545.4-73.7,545.4-73.7l7.2,0.5l-72.3-120.9"/>
		<path class="st1" d="M704,677.1C558.4,422.4,495.4,226.6,428.7,226c-0.5,0-1.5,0-1.9,0c-47.3,0-80.7,42.6-242.3,267.5l-59.1,83.9
			v58.8"/>
		<path class="st1" d="M700,680.1C553.4,425,503,240.1,426.3,235.8c-0.3,0-1.1,0-1.4,0c-46.5,0-87.6,57.8-185,189.8L125.4,590.1"/>
		<path class="st1" d="M156.3,545.7c0,0,151.4-197.9,170.5-193.5c10.9,2.5-3.1,63.3,6.9,63.9c17.2,1.1,43.6-79.5,57.4-79.1
			c12,0.3,13.8,40.2,25.8,40.4c15.2,0.3,19.3-50.2,34.6-50.1c10.1,0.1,12.7,35.9,22.4,33.5c12.9-3.1,5.2-48.9,15.3-50.9
			c13.1-2.7,115.1,190.2,115.1,190.2"/>
		<g>
			<path class="st2" d="M468.4,444.1c0.1,5.4-0.1,10.8-0.1,16.3c-0.1,5.4-0.3,10.8-0.5,16.3c-0.3,5.4-0.7,10.8-1.3,16.3
				c-0.3,2.7-0.7,5.4-1.3,8.1c-0.3,1.3-0.6,2.7-1.1,4c-0.2,0.7-0.5,1.3-0.8,1.9c-0.2,0.3-0.4,0.7-0.7,0.9s-0.7,0.7-1.3,0.7
				s-1-0.4-1.3-0.7c-0.3-0.3-0.5-0.6-0.6-0.9c-0.3-0.7-0.6-1.3-0.8-1.9c-0.4-1.3-0.7-2.7-1-4c-0.5-2.7-0.9-5.4-1.2-8.1
				c-0.3-2.7-0.6-5.4-0.8-8.1c-0.2-2.7-0.4-5.4-0.6-8.1c-0.6-10.8-1-21.7-1.1-32.6c-0.1-10.8,0.1-21.8,0.7-32.6
				c0.3-5.4,0.8-10.8,1.5-16.3c0.3-2.7,0.7-5.4,1.3-8.1c0.3-1.3,0.6-2.7,1.1-4c0.2-0.7,0.5-1.3,0.8-2c0.2-0.3,0.4-0.7,0.7-1
				c0.3-0.3,0.7-0.7,1.4-0.7c0.7,0,1.1,0.4,1.4,0.7c0.3,0.3,0.5,0.7,0.7,1c0.3,0.7,0.6,1.3,0.8,2c0.5,1.3,0.7,2.7,1.1,4
				c0.5,2.7,1,5.4,1.3,8.1c0.7,5.4,1.1,10.8,1.3,16.3c0.3,5.4,0.4,10.8,0.5,16.3C468.3,433.2,468.4,438.6,468.4,444.1z M468.2,444.1
				c-0.1-5.4-0.1-10.8-0.3-16.3c-0.3-5.4-0.5-10.8-1-16.3c-0.5-5.4-0.9-10.8-1.7-16.2c-0.4-2.7-0.8-5.4-1.3-8
				c-0.3-1.3-0.6-2.6-1-3.9c-0.2-0.6-0.5-1.2-0.7-1.7c-0.1-0.3-0.3-0.5-0.5-0.7c-0.2-0.2-0.3-0.3-0.3-0.3s-0.2,0.1-0.3,0.3
				c-0.1,0.2-0.3,0.5-0.5,0.7c-0.3,0.5-0.5,1.1-0.7,1.8c-0.4,1.3-0.7,2.5-1,3.9c-0.5,2.6-0.9,5.3-1.3,8c-0.7,5.4-1.2,10.8-1.6,16.2
				c-0.7,10.8-1.1,21.7-1.3,32.5c-0.1,5.4-0.1,10.8,0.1,16.3c0.1,5.4,0.3,10.8,0.7,16.3c0.2,2.7,0.4,5.4,0.7,8.1
				c0.3,2.7,0.6,5.4,1,8.1s0.8,5.4,1.4,8c0.3,1.3,0.6,2.6,1.1,3.9c0.2,0.6,0.5,1.2,0.7,1.8c0.1,0.3,0.3,0.5,0.5,0.7
				c0.2,0.2,0.3,0.3,0.5,0.3c0.1,0,0.3-0.1,0.5-0.3c0.2-0.2,0.3-0.5,0.5-0.7c0.3-0.5,0.5-1.1,0.7-1.8c0.4-1.3,0.7-2.5,1-3.9
				c0.5-2.6,0.9-5.3,1.3-8c0.7-5.4,1.2-10.8,1.7-16.2c0.5-5.4,0.7-10.8,1-16.3C468.1,454.9,468.2,449.5,468.2,444.1z"/>
		</g>
		<g>
			<path class="st2" d="M526.3,444.1c0.1,5.4-0.1,10.8-0.1,16.3c-0.1,5.4-0.3,10.8-0.5,16.3c-0.3,5.4-0.7,10.8-1.3,16.3
				c-0.3,2.7-0.7,5.4-1.3,8.1c-0.3,1.3-0.6,2.7-1.1,4c-0.2,0.7-0.5,1.3-0.8,1.9c-0.2,0.3-0.4,0.7-0.7,0.9s-0.7,0.7-1.3,0.7
				s-1-0.4-1.3-0.7c-0.3-0.3-0.5-0.6-0.6-0.9c-0.3-0.7-0.6-1.3-0.8-1.9c-0.4-1.3-0.7-2.7-1-4c-0.5-2.7-0.9-5.4-1.2-8.1
				c-0.3-2.7-0.6-5.4-0.8-8.1s-0.4-5.4-0.6-8.1c-0.6-10.8-1-21.7-1.1-32.6c-0.1-10.8,0.1-21.8,0.7-32.6c0.3-5.4,0.8-10.8,1.5-16.3
				c0.3-2.7,0.7-5.4,1.3-8.1c0.3-1.3,0.6-2.7,1.1-4c0.2-0.7,0.5-1.3,0.8-2c0.2-0.3,0.4-0.7,0.7-1c0.3-0.3,0.7-0.7,1.4-0.7
				c0.7,0,1.1,0.4,1.4,0.7c0.3,0.3,0.5,0.7,0.7,1c0.3,0.7,0.6,1.3,0.8,2c0.5,1.3,0.7,2.7,1.1,4c0.5,2.7,1,5.4,1.3,8.1
				c0.7,5.4,1.1,10.8,1.3,16.3c0.3,5.4,0.4,10.8,0.5,16.3C526.3,433.2,526.3,438.6,526.3,444.1z M526.2,444.1
				c-0.1-5.4-0.1-10.8-0.3-16.3c-0.3-5.4-0.5-10.8-1-16.3c-0.5-5.4-0.9-10.8-1.7-16.2c-0.4-2.7-0.8-5.4-1.3-8
				c-0.3-1.3-0.6-2.6-1-3.9c-0.2-0.6-0.5-1.2-0.7-1.7c-0.1-0.3-0.3-0.5-0.5-0.7c-0.2-0.2-0.3-0.3-0.3-0.3s-0.2,0.1-0.3,0.3
				c-0.1,0.2-0.3,0.5-0.5,0.7c-0.3,0.5-0.5,1.1-0.7,1.8c-0.4,1.3-0.7,2.5-1,3.9c-0.5,2.6-0.9,5.3-1.3,8c-0.7,5.4-1.2,10.8-1.6,16.2
				c-0.7,10.8-1.1,21.7-1.3,32.5c-0.1,5.4-0.1,10.8,0.1,16.3c0.1,5.4,0.3,10.8,0.7,16.3c0.2,2.7,0.4,5.4,0.7,8.1
				c0.3,2.7,0.6,5.4,1,8.1s0.8,5.4,1.4,8c0.3,1.3,0.6,2.6,1.1,3.9c0.2,0.6,0.5,1.2,0.7,1.8c0.1,0.3,0.3,0.5,0.5,0.7
				c0.2,0.2,0.3,0.3,0.5,0.3c0.1,0,0.3-0.1,0.5-0.3c0.2-0.2,0.3-0.5,0.5-0.7c0.3-0.5,0.5-1.1,0.7-1.8c0.4-1.3,0.7-2.5,1-3.9
				c0.5-2.6,0.9-5.3,1.3-8c0.7-5.4,1.2-10.8,1.7-16.2c0.5-5.4,0.7-10.8,1-16.3C526.1,454.9,526.1,449.5,526.2,444.1z"/>
		</g>
		<g>
			<g>
				<path class="st1" d="M459,383.4c1.3,0.2,2.4,3,3.3,7.7"/>
				<path class="st3" d="M462.6,392.4c4.1,22.6,4.3,81.8-0.1,105.2"/>
				<path class="st1" d="M462.4,498.2c-0.8,3.9-1.7,6.8-2.7,8.2"/>
			</g>
		</g>
		<g>
			<g>
				<path class="st1" d="M517,383.4c1.3,0.2,2.4,3,3.3,7.7"/>
				<path class="st3" d="M520.6,392.4c4.1,22.6,4.3,81.8-0.1,105.2"/>
				<path class="st1" d="M520.4,498.2c-0.8,3.9-1.7,6.8-2.7,8.2"/>
			</g>
		</g>
		<g>
			<path class="st2" d="M534.2,454.2c0.7,4.1,1.1,8.2,1.4,12.3c0.1,2.1,0.2,4.2,0.2,6.2c0,2.1,0,4.2-0.1,6.2
				c-0.1,2.1-0.2,4.2-0.3,6.2c-0.2,2.1-0.3,4.2-0.6,6.2c-0.5,4.2-1.2,8.2-2.1,12.3c0.4-4.2,0.9-8.2,1.1-12.3
				c0.3-4.1,0.5-8.2,0.6-12.3c0.1-4.1,0.1-8.2,0.1-12.4C534.4,462.5,534.4,458.3,534.2,454.2z"/>
		</g>
		<g>
			<path class="st2" d="M509.3,507.5c0.5,1.8,1.2,3.5,1.9,5.3c0.7,1.7,1.5,3.4,2.5,5c0.9,1.6,1.9,3.2,3.1,4.6
				c1.2,1.4,2.5,2.7,3.9,3.7l-0.8,1.1c-1.5-1.2-2.8-2.7-3.9-4.2c-1.1-1.5-2.1-3.2-2.9-5c-0.9-1.7-1.5-3.5-2.2-5.2
				C510.3,511.1,509.7,509.3,509.3,507.5z"/>
		</g>
		<g>
			<path class="st2" d="M510.9,577.6c0.3,1.2,0.5,2.5,0.7,3.7c0.1,1.3,0.2,2.5,0.2,3.7c-0.1,1.3-0.3,2.5-0.3,3.7
				c-0.1,1.3,0,2.5,0.1,3.7c0.1,1.3,0.1,2.5,0.1,3.7c-0.1,1.3-0.1,2.5-0.3,3.7c-0.1,1.3-0.4,2.5-0.7,3.7c-0.2,0.6-0.4,1.2-0.6,1.8
				c-0.3,0.6-0.5,1.1-0.9,1.7l-0.1-0.1c0.5-2.5,0.7-4.9,0.9-7.4l0.4-3.7c0.1-1.2,0.3-2.5,0.4-3.7c0.2-1.2,0.2-2.5,0.2-3.7
				c-0.1-1.3-0.3-2.5-0.4-3.7c-0.1-1.3-0.1-2.5-0.1-3.7s0.1-2.5,0.2-3.7L510.9,577.6z"/>
		</g>
		<g>
			<path class="st2" d="M514.1,528.2v1.3l0,0c11,0,18.6,2.2,19.8,5.7c1.5,4.4-1.6,13.6-7.5,21.8c-5,7-10.6,11.4-14.6,11.4
				c-0.1,0-0.3,0-0.3,0c-3.7-0.3-8.4-5-12.3-12.2c-5-9.2-7-19.4-4.7-23.7c0.9-1.1,9-3,19.7-3L514.1,528.2 M514.1,528.2
				c-9.9,0-19.7,1.8-20.8,3.7c-5.1,9.2,7.6,37.2,18.1,37.9c0.1,0,0.3,0,0.5,0c10.6,0,26.7-25.1,23.4-35
				C533.4,529.9,523.7,528.2,514.1,528.2L514.1,528.2z"/>
		</g>
		<g>
			<path class="st2" d="M501,536.8c2.8,0.5,5.7,0.8,8.6,1c2.9,0.3,5.7,0.3,8.6,0.3c2.9,0,5.7-0.3,8.5-0.5c2.8-0.2,5.6-0.5,8.5-0.9
				l0.1,0.1c-2.7,1.1-5.6,1.7-8.4,2.1c-2.9,0.3-5.8,0.3-8.7,0.2c-2.9-0.1-5.8-0.4-8.6-0.7c-2.9-0.4-5.7-0.9-8.5-1.5L501,536.8z"/>
		</g>
		<line class="st4" x1="715.9" y1="707" x2="785.2" y2="825.8"/>
		<g>
			<polygon class="st2" points="532.8,657.6 539.5,669.4 538.4,670 			"/>
		</g>
		<g>
			<polygon class="st2" points="511.5,697 525.2,695 525.3,696.3 			"/>
		</g>
		<g>
			<path class="st2" d="M532.8,674.7c1.2-1.5,2.5-2.9,4.1-4.1c1.5-1.1,3.3-2.1,5.2-2.7c0.9-0.3,2-0.3,3-0.3c0.5,0.1,1,0.1,1.5,0.3
				c0.5,0.1,0.9,0.3,1.4,0.5c1.9,0.8,3.5,2.1,4.6,3.9c1.1,1.7,1.7,3.7,1.9,5.6c0.3,1.9,0.2,3.9-0.1,5.9c-0.5,3.9-1.7,7.6-3.4,11
				c-1.7,3.5-4.2,6.6-7.2,9.1c-1.5,1.2-3.2,2.3-5.1,2.9c-1.9,0.6-3.9,0.8-5.8,0.5s-3.8-1.3-5-2.9c-1.3-1.5-1.9-3.4-2.3-5.3
				c-0.4-1.9-0.5-3.8-0.4-5.8c0.1-1.9,0.3-3.8,0.7-5.7h0.1c-0.3,1.9-0.5,3.7-0.5,5.7c0,1.9,0.1,3.8,0.5,5.6c0.4,1.8,1.1,3.6,2.3,5
				c1.2,1.4,2.9,2.3,4.8,2.6s3.7,0.1,5.4-0.5c1.7-0.6,3.3-1.6,4.8-2.8c2.9-2.4,5.1-5.6,6.8-8.9c1.6-3.4,2.7-7.1,3.1-10.8
				c0.2-1.9,0.3-3.7,0-5.6c-0.2-1.8-0.7-3.6-1.7-5.1c-0.9-1.5-2.3-2.7-3.9-3.5c-0.8-0.4-1.7-0.7-2.5-0.8c-0.9-0.1-1.8-0.1-2.7,0.1
				c-1.8,0.4-3.5,1.2-5,2.3C535.7,672.1,534.2,673.3,532.8,674.7L532.8,674.7z"/>
		</g>
		<g>
			<path class="st2" d="M540.8,683.2l-0.3,0.6l1.1,0.6l1.1,0.5h0.1h0.1c1.1,0.5,1.5,1.8,1.6,2.6c0.3,1.5,0,3.3-0.7,5
				c-1.3,3-3.7,4.6-5.2,4.6c-0.3,0-0.6-0.1-0.9-0.2c-1.6-0.7-2.1-4.8-0.9-7.6C537.8,686.5,539.2,684.5,540.8,683.2 M548,678.8
				c-2.6,0-8.8,1-12.7,10c-1.3,3.1-1.1,8.2,1.5,9.3c0.5,0.2,0.9,0.3,1.5,0.3c2.3,0,5-2.1,6.5-5.4c1.7-4,1.1-8.2-1.5-9.3l-1.1-0.5
				c0.2-0.5,3.3-3,7-4.3C549.3,678.9,548.8,678.8,548,678.8L548,678.8z"/>
		</g>
		<g>
			<path class="st2" d="M710.4,676.7c5.4,0,11,3.5,13.5,8.3c1.7,3.3,2.8,8.9-2.1,16c-1.8,2.6-8.7,6.9-19.9,10.7
				c-12.5,4.2-26.9,6.6-40.5,6.6c-14.1,0-27.5-2.3-39.9-7c1.9,0.1,3.9,0.1,5.8,0.1c39.2,0,57.5-16,69.6-26.6c3.8-3.3,6.8-6,9.6-7.3
				C707.6,677,708.9,676.7,710.4,676.7 M710.4,675.3c-1.6,0-3.2,0.3-4.6,0.9c-11.9,5.6-27.2,33.7-78.7,33.7c-4.2,0-8.6-0.2-13.3-0.6
				l4.7,2.1c14.4,5.8,29.1,8,42.7,8c31.4,0,57.3-11.8,61.5-17.9C733.3,686.9,720.5,675.3,710.4,675.3L710.4,675.3z"/>
		</g>
		<g>
			<path class="st2" d="M609.1,730.3c7.4,3.7,14.3,15.5,16.9,25c1.5,5.9,1.3,10.4-0.5,12.6c-1.9,2.1-4.8,3.3-8,3.3
				c-2.9,0-5.8-1.1-7.4-2.9c-1.4-1.5-2-3.5-1.7-5.7c0.1-1.3,0.8-3,1.6-5C612.5,751.1,616.4,741.6,609.1,730.3 M605.6,727.8
				c13.1,15.9,2,28.5,1.4,34.7c-0.7,6.4,4.8,10.1,10.5,10.1c3.3,0,6.6-1.2,8.9-3.8c6.8-7.6-5.7-36.2-18.7-40.5L605.6,727.8
				L605.6,727.8z"/>
		</g>
		<path class="st1" d="M723.7,512.3l-6.2,40.7l-18.6-6.5l1.1-14.4l15.3,5l2.5-34.9c0-6.7,5.4-12.2,12.2-12.2
			c6.8,0,12.2,5.4,12.2,12.2s-5.4,12-12.2,12.2C727.4,514.3,723.7,512.3,723.7,512.3z"/>
		<circle class="st1" cx="589" cy="591" r="465.7"/>
		<path class="st1" d="M240.1,899.5c413.3-141.5,731.6-43,731.6-43"/>
	</g>
</g>
</svg>
