<?xml version="1.0" encoding="utf-8"?>
<!-- Generator: Adobe Illustrator 22.0.1, SVG Export Plug-In . SVG Version: 6.00 Build 0)  -->
<svg version="1.1" xmlns="http://www.w3.org/2000/svg" xmlns:xlink="http://www.w3.org/1999/xlink" x="0px" y="0px"
	 viewBox="0 0 2400 1800" style="enable-background:new 0 0 2400 1800;" xml:space="preserve">
<style type="text/css">
	.st0{display:none;}
	.st1{display:inline;fill:#382D2A;}
	.st2{display:inline;}
	.st3{fill:#534741;}
	.st4{fill:#C7B299;}
	.st5{fill:#382D2A;}
	.st6{fill:#736357;}
	.st7{fill:#F3F3F3;}
	.st8{fill:#DDDDDD;}
	.st9{fill:#444444;}
	.st10{fill:#888888;}
	.st11{fill:none;}
	.st12{font-family:'NotoSansJP-Bold-90ms-RKSJ-H';}
	.st13{font-size:36px;}
	.st14{letter-spacing:57;}
	.st15{font-family:'NotoSansJP-Medium-90ms-RKSJ-H';}
	.st16{font-size:24px;}
	.st17{letter-spacing:4;}
	.st18{letter-spacing:7;}
	.st19{font-size:150px;}
	.st20{letter-spacing:30;}
	.st21{fill:none;stroke:#000000;stroke-miterlimit:10;}
</style>
<g id="Layer_2" class="st0">
	<rect x="-1860.2" y="712.5" class="st1" width="1600" height="900"/>
	<g class="st2">
		<path class="st3" d="M-1069.2,1525.5l-29-23c73-107,164.4-178.1,164.4-372.8v-30.1h-187.6v107.7c0,34.8,2.4,67.3,3.2,83.1h-110.9
			c-0.1,0.1-29.1-22.9-29.1-22.9l33.8-167.9h-67.3c-39.6,0-68.1,1.6-85.5,3.2l-29-22.3c28-21,75-78.3,114.6-78.3h67.3v-78.4
			c0-23,63.2-64.4,78.2-94.4l29.5,23.1c-2.4,15-4.7,40.4-4.7,71.2v78.4h187.6V919c0-31.7,57.6-78.6,79.6-96.6l28.8,23
			c-2.4,15.8-5.5,42-5.5,73.6v83.1l116.6-28.6c0,0,29,23,28.9,23.2V1102c-17.4-1.6-45.1-2.4-87.1-2.4H-831v26.1
			C-830.9,1322.1-878.4,1441.6-1069.2,1525.5z"/>
	</g>
	<g class="st2">
		<path class="st4" d="M-1098.2,1502.5l-84.7-80c152.8-53,220.1-121.1,220.1-315.9v-30.1h-187.6v107.7c0,34.8,2.4,67.3,3.2,83.1
			h-110.9c2.4-15.8,4.7-47.5,4.7-83.1v-107.6h-67.3c-39.6,0-68.1,1.6-85.5,3.2V972.1c13.5,2.4,45.9,7.1,85.5,7.1h67.3v-78.4
			c0-23-2.4-47.5-4.7-71.2h112.4c-2.4,15-4.7,40.4-4.7,71.2v78.4h187.6v-83.1c0-31.7-2.4-57.8-4.7-73.6h113.2
			c-2.4,15.8-5.5,42-5.5,73.6v83.1h58.6c42,0,65.7-1.6,87.1-5.5V1079c-17.4-1.6-45.1-2.4-87.1-2.4h-58.6v26.1
			C-859.9,1299.1-907.4,1418.6-1098.2,1502.5z"/>
	</g>
</g>
<g id="Layer_1">
	<rect x="-1860.2" y="712.5" class="st5" width="1600" height="900"/>
	<rect x="-1833.4" y="1058" class="st11" width="1568.3" height="429"/>
	<text transform="matrix(1 0 0 1 -1832.2219 1429.8423)" class="st6 st12" style="font-size:270px; letter-spacing:54;">サンプラー</text>
	<rect x="-1842.4" y="1048" class="st11" width="1568.3" height="429"/>
	<text transform="matrix(1 0 0 1 -1841.222 1419.8423)" class="st4 st12" style="font-size:270px; letter-spacing:54;">サンプラー</text>
</g>
<g id="Layer_3">
	<rect x="-1860.2" y="712.5" class="st5" width="1600" height="900"/>
	<g>
		<g>
			<path class="st6" d="M-1668.8,1291.1l-28.9-27.3l-9-10c50-17.9,84.1-32.6,84.1-97.7v-10.3h-64v36.7c0,11.9,0.8,23,1.1,28.4h-37.8
				l-9-10l10.6-55.1h-23c-13.5,0-23.2,0.5-29.2,1.1l-9-10c6.5-5.7,24.7-24.3,38.2-24.3h23v-26.7c0-7.8,27.7-34.3,27.7-34.3l9,10
				c-0.8,5.1-1.6,13.8-1.6,24.3v26.7h64v-28.4c0-10.8,28-35.1,28-35.1l9,10c-0.8,5.4-1.9,14.3-1.9,25.1v28.4l40.7-11.9l9,10v35.9
				c-5.9-0.5-15.4-0.8-29.7-0.8h-20v8.9C-1587.5,1221.7-1603.7,1262.5-1668.8,1291.1z"/>
			<path class="st6" d="M-1352.9,1213.4c65.3-19.9,89.3-115,89.3-115s8.7,10.7,9,10l21.1,38.1c-20.5,36.5-56.4,73.7-99.9,99.9
				c-27.3,16.5-62.1,31.6-100.2,38.1l-9-10C-1408.4,1252-1379.1,1229-1352.9,1213.4z M-1352.9,1126.2l-27.5,28.1
				c-14-15.1-47.8-44.6-67.5-58.3l-9-10c19.9,1.8,95,30.2,95,30.2L-1352.9,1126.2z"/>
			<path class="st6" d="M-957.9,1043.8c7.3,0,15.1,1.1,15.1,1.1s17,20.9,17,31.3c0,17.5-14.6,32.1-32.1,32.1c-1.1,0-2.4,0-3.5-0.3
				c-0.8,3-1.3,5.7-2.2,8.1c-6.2,26.5-17.8,68.3-40.5,98.3c-24.3,32.4-60.5,59.1-108.5,74.8l-29.4-32.4
				c53.5-12.4,84-35.9,105.8-63.5c17.8-22.4,28.1-52.9,31.6-76.1h-125.6c-12.4,0-25.4,0.5-32.1,1.1l-9-10
				c11.9-16,32.2-25.9,41.1-25.9h125c3.8,0,9.7-0.3,15.4-1.1c-0.3-1.6-0.5-3.2-0.5-5.1C-990.3,1058.4-975.7,1043.8-957.9,1043.8z
				 M-957.9,1091.6c8.4,0,15.4-7,15.4-15.4c0-8.6-7-15.7-15.4-15.7c-8.6,0-15.7,7-15.7,15.7
				C-973.5,1084.6-966.5,1091.6-957.9,1091.6z"/>
			<path class="st6" d="M-656.3,1156.7c-8.1,26.2-19.7,52.4-40,74.8c-27.3,30.2-61.8,48.6-96.4,58.3l-9-10l-17.7-20.5
				c40.5-8.4,72.9-26.2,93.4-47.3c14.6-14.9,23-31.6,27.8-46.7h-130.4c-6.5,0-20,0.3-31.3,1.3l-9-10c11.4-6.6,32-23.5,40.3-23.5
				h133.7c8.6,0,34.7,2.2,34.7,2.2l9,10C-653,1148.8-655.2,1153.7-656.3,1156.7z M-806.9,1068.4h104c3.5,0,20.2-11.4,20.2-11.4l9,10
				v34.8c-7.3-0.5-20-0.8-29.7-0.8h-103.4c-8.6,0-20.3,0.3-28.1,0.8l-9-10C-834.3,1081.5-816.1,1068.4-806.9,1068.4z"/>
			<path class="st6" d="M-514.2,1150.7h145c8.6,0,22.6-11.6,22.6-11.6l9,10v42.4c-6.5-0.3-20.3-1.4-31.6-1.4h-145
				c-15.4,0-33.5,0.5-43.5,1.4l-9-10C-554.5,1172.5-528.3,1150.7-514.2,1150.7z"/>
		</g>
		<g>
			<path class="st4" d="M-1677.8,1281.1l-28.9-27.3c52.1-18.1,75.1-41.3,75.1-107.7v-10.3h-64v36.7c0,11.9,0.8,23,1.1,28.4h-37.8
				c0.8-5.4,1.6-16.2,1.6-28.4v-36.7h-23c-13.5,0-23.2,0.5-29.2,1.1v-36.7c4.6,0.8,15.7,2.4,29.2,2.4h23v-26.7
				c0-7.8-0.8-16.2-1.6-24.3h38.3c-0.8,5.1-1.6,13.8-1.6,24.3v26.7h64v-28.4c0-10.8-0.8-19.7-1.6-25.1h38.6
				c-0.8,5.4-1.9,14.3-1.9,25.1v28.4h20c14.3,0,22.4-0.5,29.7-1.9v35.9c-5.9-0.5-15.4-0.8-29.7-0.8h-20v8.9
				C-1596.5,1211.7-1612.7,1252.5-1677.8,1281.1z"/>
			<path class="st4" d="M-1361.9,1203.4c46.2-27.3,81.3-68.6,98.3-105l21.1,38.1c-20.5,36.5-56.4,73.7-99.9,99.9
				c-27.3,16.5-62.1,31.6-100.2,38.1l-22.7-35.6C-1423.2,1232.8-1388.1,1219-1361.9,1203.4z M-1361.9,1116.2l-27.5,28.1
				c-14-15.1-47.8-44.6-67.5-58.3l25.4-27C-1412.6,1071.6-1377.5,1099.7-1361.9,1116.2z"/>
			<path class="st4" d="M-966.9,1033.8c17.5,0,32.1,14.6,32.1,32.4c0,17.5-14.6,32.1-32.1,32.1c-1.1,0-2.4,0-3.5-0.3
				c-0.8,3-1.3,5.7-2.2,8.1c-6.2,26.5-17.8,68.3-40.5,98.3c-24.3,32.4-60.5,59.1-108.5,74.8l-29.4-32.4
				c53.5-12.4,84-35.9,105.8-63.5c17.8-22.4,28.1-52.9,31.6-76.1h-125.6c-12.4,0-25.4,0.5-32.1,1.1v-38.1c7.8,1.1,23.2,2.2,32.1,2.2
				h125c3.8,0,9.7-0.3,15.4-1.1c-0.3-1.6-0.5-3.2-0.5-5.1C-999.3,1048.4-984.7,1033.8-966.9,1033.8z M-966.9,1081.6
				c8.4,0,15.4-7,15.4-15.4c0-8.6-7-15.7-15.4-15.7c-8.6,0-15.7,7-15.7,15.7C-982.5,1074.6-975.5,1081.6-966.9,1081.6z"/>
			<path class="st4" d="M-665.3,1146.7c-8.1,26.2-19.7,52.4-40,74.8c-27.3,30.2-61.8,48.6-96.4,58.3l-26.7-30.5
				c40.5-8.4,72.9-26.2,93.4-47.3c14.6-14.9,23-31.6,27.8-46.7h-130.4c-6.5,0-20,0.3-31.3,1.3v-35.1c11.3,0.8,23,1.6,31.3,1.6h133.7
				c8.6,0,15.9-1.1,19.7-2.7l24,14.9C-662,1138.8-664.2,1143.7-665.3,1146.7z M-815.9,1058.4h104c8.4,0,21.6-0.3,29.2-1.4v34.8
				c-7.3-0.5-20-0.8-29.7-0.8h-103.4c-8.6,0-20.3,0.3-28.1,0.8V1057C-836.4,1058.1-825.1,1058.4-815.9,1058.4z"/>
			<path class="st4" d="M-523.2,1140.7h145c12.7,0,24.6-1.1,31.6-1.6v42.4c-6.5-0.3-20.3-1.4-31.6-1.4h-145
				c-15.4,0-33.5,0.5-43.5,1.4v-42.4C-557,1139.9-537.3,1140.7-523.2,1140.7z"/>
		</g>
	</g>
	<rect x="-1608.9" y="1451.6" class="st11" width="1097.4" height="42.7"/>
	<text transform="matrix(1 0 0 1 -1357.4114 1480.2834)" class="st4 st12 st13 st14">KATAKANA</text>
	<rect x="-1608.9" y="1520.1" class="st11" width="1097.4" height="42.7"/>
	<text transform="matrix(1 0 0 1 -1151.9358 1539.2705)" class="st6 st15 st16 st17">NotoSansJP</text>
</g>
<g id="Layer_5">
	<rect x="1600.5" class="st7" width="800" height="1800"/>
	<rect x="1679" y="1037.1" class="st8" width="641.9" height="641.9"/>
	<rect x="1683.5" y="120.8" class="st8" width="641.9" height="641.9"/>
	<g>
		<path class="st9" d="M1996,562.7l-28.9-27.3l-9-10c50-17.9,84.1-32.6,84.1-97.7v-10.3h-64v36.7c0,11.9,0.8,23,1.1,28.4h-37.8
			l-9-10l10.6-55.1h-23c-13.5,0-23.2,0.5-29.2,1.1l-9-10c6.5-5.7,24.7-24.3,38.2-24.3h23v-26.7c0-7.8,27.7-34.3,27.7-34.3l9,10
			c-0.8,5.1-1.6,13.8-1.6,24.3v26.7h64v-28.4c0-10.8,28-35.1,28-35.1l9,10c-0.8,5.4-1.9,14.3-1.9,25.1v28.4l40.7-11.9l9,10v35.9
			c-5.9-0.5-15.4-0.8-29.7-0.8h-20v8.9C2077.3,493.3,2061.1,534.1,1996,562.7z"/>
		<path class="st10" d="M1987,552.7l-28.9-27.3c52.1-18.1,75.1-41.3,75.1-107.7v-10.3h-64v36.7c0,11.9,0.8,23,1.1,28.4h-37.8
			c0.8-5.4,1.6-16.2,1.6-28.4v-36.7h-23c-13.5,0-23.2,0.5-29.2,1.1v-36.7c4.6,0.8,15.7,2.4,29.2,2.4h23v-26.7
			c0-7.8-0.8-16.2-1.6-24.3h38.3c-0.8,5.1-1.6,13.8-1.6,24.3v26.7h64v-28.4c0-10.8-0.8-19.7-1.6-25.1h38.6
			c-0.8,5.4-1.9,14.3-1.9,25.1v28.4h20c14.3,0,22.4-0.5,29.7-1.9v35.9c-5.9-0.5-15.4-0.8-29.7-0.8h-20v8.9
			C2068.3,483.3,2052.1,524.1,1987,552.7z"/>
	</g>
	<g>
		<rect class="st5" width="1600" height="900"/>
		<path class="st6" d="M191.5,578.7l-28.9-27.3l-9-10c50-17.9,84.1-32.6,84.1-97.7v-10.3h-64v36.7c0,11.9,0.8,23,1.1,28.4h-37.8
			l-9-10l10.6-55.1h-23c-13.5,0-23.2,0.5-29.2,1.1l-9-10c6.5-5.7,24.7-24.3,38.2-24.3h23v-26.7c0-7.8,27.7-34.3,27.7-34.3l9,10
			c-0.8,5.1-1.6,13.8-1.6,24.3v26.7h64v-28.4c0-10.8,28-35.1,28-35.1l9,10c-0.8,5.4-1.9,14.3-1.9,25.1v28.4l40.7-11.9l9,10v35.9
			c-5.9-0.5-15.4-0.8-29.7-0.8h-20v8.9C272.7,509.3,256.5,550,191.5,578.7z"/>
		<path class="st6" d="M507.4,500.9c65.3-19.9,89.3-115,89.3-115s8.7,10.7,9,10l21.1,38.1c-20.5,36.5-56.4,73.7-99.9,99.9
			c-27.3,16.5-62.1,31.6-100.2,38.1l-9-10C451.8,539.6,481.2,516.6,507.4,500.9z M507.4,413.7l-27.5,28.1
			c-14-15.1-47.8-44.6-67.5-58.3l-9-10c19.9,1.8,95,30.2,95,30.2L507.4,413.7z"/>
		<path class="st6" d="M902.4,331.3c7.3,0,15.1,1.1,15.1,1.1s17,20.9,17,31.3c0,17.5-14.6,32.1-32.1,32.1c-1.1,0-2.4,0-3.5-0.3
			c-0.8,3-1.3,5.7-2.2,8.1c-6.2,26.5-17.8,68.3-40.5,98.3c-24.3,32.4-60.5,59.1-108.5,74.8l-29.4-32.4c53.5-12.4,84-35.9,105.8-63.5
			c17.8-22.4,28.1-52.9,31.6-76.1H730.1c-12.4,0-25.4,0.5-32.1,1.1l-9-10c11.9-16,32.2-25.9,41.1-25.9h125c3.8,0,9.7-0.3,15.4-1.1
			c-0.3-1.6-0.5-3.2-0.5-5.1C870,345.9,884.6,331.3,902.4,331.3z M902.4,379.1c8.4,0,15.4-7,15.4-15.4c0-8.6-7-15.7-15.4-15.7
			c-8.6,0-15.7,7-15.7,15.7C886.7,372.1,893.7,379.1,902.4,379.1z"/>
		<path class="st6" d="M1204,444.2c-8.1,26.2-19.7,52.4-40,74.8c-27.3,30.2-61.8,48.6-96.4,58.3l-9-10l-17.7-20.5
			c40.5-8.4,72.9-26.2,93.4-47.3c14.6-14.9,23-31.6,27.8-46.7h-130.4c-6.5,0-20,0.3-31.3,1.3l-9-10c11.4-6.6,32-23.5,40.3-23.5
			h133.7c8.6,0,34.7,2.2,34.7,2.2l9,10C1207.2,436.4,1205,441.2,1204,444.2z M1053.3,355.9h104c3.5,0,20.2-11.4,20.2-11.4l9,10v34.8
			c-7.3-0.5-20-0.8-29.7-0.8h-103.4c-8.6,0-20.3,0.3-28.1,0.8l-9-10C1025.9,369,1044.1,355.9,1053.3,355.9z"/>
		<path class="st6" d="M1346,438.3h145c8.6,0,22.6-11.6,22.6-11.6l9,10V479c-6.5-0.3-20.3-1.4-31.6-1.4h-145
			c-15.4,0-33.5,0.5-43.5,1.4l-9-10C1305.7,460.1,1331.9,438.3,1346,438.3z"/>
		<path class="st4" d="M182.5,568.7l-28.9-27.3c52.1-18.1,75.1-41.3,75.1-107.7v-10.3h-64v36.7c0,11.9,0.8,23,1.1,28.4h-37.8
			c0.8-5.4,1.6-16.2,1.6-28.4v-36.7h-23c-13.5,0-23.2,0.5-29.2,1.1v-36.7c4.6,0.8,15.7,2.4,29.2,2.4h23v-26.7
			c0-7.8-0.8-16.2-1.6-24.3h38.3c-0.8,5.1-1.6,13.8-1.6,24.3v26.7h64v-28.4c0-10.8-0.8-19.7-1.6-25.1h38.6
			c-0.8,5.4-1.9,14.3-1.9,25.1v28.4h20c14.3,0,22.4-0.5,29.7-1.9v35.9c-5.9-0.5-15.4-0.8-29.7-0.8h-20v8.9
			C263.7,499.3,247.5,540,182.5,568.7z"/>
		<path class="st4" d="M498.4,490.9c46.2-27.3,81.3-68.6,98.3-105l21.1,38.1c-20.5,36.5-56.4,73.7-99.9,99.9
			c-27.3,16.5-62.1,31.6-100.2,38.1L395,526.3C437.1,520.3,472.2,506.6,498.4,490.9z M498.4,403.7l-27.5,28.1
			c-14-15.1-47.8-44.6-67.5-58.3l25.4-27C447.6,359.1,482.7,387.2,498.4,403.7z"/>
		<path class="st4" d="M893.4,321.3c17.5,0,32.1,14.6,32.1,32.4c0,17.5-14.6,32.1-32.1,32.1c-1.1,0-2.4,0-3.5-0.3
			c-0.8,3-1.3,5.7-2.2,8.1c-6.2,26.5-17.8,68.3-40.5,98.3c-24.3,32.4-60.5,59.1-108.5,74.8l-29.4-32.4c53.5-12.4,84-35.9,105.8-63.5
			c17.8-22.4,28.1-52.9,31.6-76.1H721.1c-12.4,0-25.4,0.5-32.1,1.1v-38.1c7.8,1.1,23.2,2.2,32.1,2.2h125c3.8,0,9.7-0.3,15.4-1.1
			c-0.3-1.6-0.5-3.2-0.5-5.1C861,335.9,875.6,321.3,893.4,321.3z M893.4,369.1c8.4,0,15.4-7,15.4-15.4c0-8.6-7-15.7-15.4-15.7
			c-8.6,0-15.7,7-15.7,15.7C877.7,362.1,884.7,369.1,893.4,369.1z"/>
		<path class="st4" d="M1195,434.2c-8.1,26.2-19.7,52.4-40,74.8c-27.3,30.2-61.8,48.6-96.4,58.3l-26.7-30.5
			c40.5-8.4,72.9-26.2,93.4-47.3c14.6-14.9,23-31.6,27.8-46.7h-130.4c-6.5,0-20,0.3-31.3,1.3v-35.1c11.3,0.8,23,1.6,31.3,1.6h133.7
			c8.6,0,15.9-1.1,19.7-2.7l24,14.9C1198.2,426.4,1196,431.2,1195,434.2z M1044.3,345.9h104c8.4,0,21.6-0.3,29.2-1.4v34.8
			c-7.3-0.5-20-0.8-29.7-0.8h-103.4c-8.6,0-20.3,0.3-28.1,0.8v-34.8C1023.8,345.6,1035.1,345.9,1044.3,345.9z"/>
		<path class="st4" d="M1337,428.3h145c12.7,0,24.6-1.1,31.6-1.6V469c-6.5-0.3-20.3-1.4-31.6-1.4h-145c-15.4,0-33.5,0.5-43.5,1.4
			v-42.4C1303.2,427.4,1322.9,428.3,1337,428.3z"/>
		<rect x="251.3" y="739.1" class="st11" width="1097.4" height="42.7"/>
		<text transform="matrix(1 0 0 1 502.8209 767.822)" class="st4 st12 st13 st14">KATAKANA</text>
		<rect x="251.3" y="807.7" class="st11" width="1097.4" height="42.7"/>
		<text transform="matrix(1 0 0 1 708.2965 826.8101)" class="st6 st15 st16 st17">NotoSansJP</text>
	</g>
	<g>
		<rect y="900" class="st6" width="1600" height="900"/>
		<path class="st5" d="M87,1408.3l-9-10c18.5,2.5,65.2,4.6,82.7,4.6c20.8,0,31.9-8.9,31.9-23c0-14.9-12.1-19.4-30-27l-26.7-11.3
			c-9.6-4-19.3-9.7-26.7-17.8l-11.5-12.9c0-32.7,26.4-80.8,66.9-80.8c19,0,53.6,15.7,53.6,15.7l9,10l-20.3,25.1
			c-12.7-10.5-25.9-16.5-42.4-16.5c-17.6,0-28.6,7.8-28.6,21.1c0,14.3,14,19.4,31.1,26.2l26.2,11.1c8.1,3.3,21,11.1,21,11.1l6.2,6.6
			c8.3,9,13,20.8,13,36.6c0,32.7-27.3,60.5-73.4,60.5C133.2,1437.5,106.4,1427,87,1408.3z"/>
		<path class="st5" d="M311.9,1392.7c0-32.4,26.2-49.4,87.2-55.9c-0.8-14.9-7.3-26.2-25.9-26.2c-14,0-27.5,6.2-41.6,14.3l-9-10
			c12.2-18.3,34.1-36.2,57.9-36.2c15.6,0,35.8,8.7,35.8,8.7l5.7,6.2c11,11.2,16.5,28.5,16.5,51.8v88.3h-32.4l-9-10l6.3-6.2h-1.1
			c-13.2,11.3-28.4,20-45.6,20c-11.2,0-20.9-3.3-28.3-9.1l-14.5-15.1C308.3,1405.8,311.9,1403.3,311.9,1392.7z M399.1,1391.6v-30.5
			c-37,4.6-49.4,14.8-49.4,28.4c0,11.9,8.4,17,20,17C381,1406.4,389.4,1401,399.1,1391.6z"/>
		<path class="st5" d="M533,1282.5l23.4-10l9,10l3,20.3h0.8c12.7-13.2,26.7-24,46.4-24c12.5,0,15.8-4.2,23,1.8l9.9,11
			c3.5,3.8,6.3,8.4,8.6,13.7c13.8-14.6,28.4-26.5,48.1-26.5c11.9,0,17.3-2.2,24.6,3.7c0,0,6.5,7.4,7.7,8.5
			c10,10.4,14.7,27,14.7,48.5v94.2h-39.7l-9-10l9-79.4c0-23.5-6.8-31.6-21.1-31.6c-8.6,0-18.4,5.7-29.2,17v104h-39.4l-9-10l9-79.4
			c0-23.5-7-31.6-21.3-31.6c-8.6,0-18.4,5.7-28.9,17v104H533l-9-10L533,1282.5z"/>
		<path class="st5" d="M847.3,1282.5l23.4-10l9,10l3,15.7h0.8c12.7-10.8,28.4-19.4,44.6-19.4c14.9,0,31.8,7.6,31.8,7.6l6.6,7.5
			c13.5,13.4,21,35,21,61.9c0,51.8-31.1,81.8-64.3,81.8c-13.2,0-25.9-5.9-37.5-16.5l1.3,24.8v45.9h-39.7l-9-10L847.3,1282.5z
			 M946.7,1356.2c0-28.9-9.2-44.8-30-44.8c-10.3,0-19.4,5.1-29.7,15.7v66.4c9.5,8.4,19.2,11.3,27.3,11.3
			C932.6,1404.8,946.7,1389.2,946.7,1356.2z"/>
		<path class="st5" d="M1075.2,1391.3v-173.1l30.7-10l9,10v174.7c0,9.2,1.7,5.2,4.2,1.6l9,10l4.9,29.4c-4.6,1.9-11.1,3.5-20.5,3.5
			c-12.6,0-21.5-3.8-27.4-10.6l-9.7-10.8C1071.5,1408.5,1075.2,1402.8,1075.2,1391.3z"/>
		<path class="st5" d="M1204.8,1358.1c0-48.9,34.6-79.4,70.5-79.4c17.4,0,27.2,0.4,37.5,9.7l5.7,6.4c13.2,12.9,20,32.7,20,56
			c0,7.6-0.8,14.9-1.9,18.4h-93.2c3.2,24.8,19.4,37.8,41.9,37.8c11.6,0,24.1-6.3,25-20.5l9,10l13.5,24.3
			c-14.9,10.3-34,16.7-52.7,16.7c-22.2,0-41.8-8.1-55.5-22.9l-10-11.1C1204.5,1390.3,1204.8,1379.4,1204.8,1358.1z M1304.4,1342.7
			c0-20.3-9.2-33.2-28.6-33.2c-15.9,0-30,11.3-32.9,33.2H1304.4z"/>
		<path class="st5" d="M1425.1,1282.5l23.4-10l9,10l3,26.7h0.8c11.1-19.7,27.3-30.5,42.9-30.5c4.2,0,8.8-6.8,8.8-6.8l9,10l-6.8,34.3
			c-5.4-1.6-9.7-2.4-15.9-2.4c-11.9,0-26.2,7.8-34.6,29.7v90.2h-39.7l-9-10L1425.1,1282.5z"/>
		<path class="st4" d="M78,1398.3l23-27.5c14.3,13.2,33.2,22.1,50.8,22.1c20.8,0,31.9-8.9,31.9-23c0-14.9-12.1-19.4-30-27
			l-26.7-11.3c-20.3-8.4-40.5-24.6-40.5-53.7c0-32.7,28.6-57.8,69.1-57.8c23.2,0,46.4,9.2,62.6,25.7l-20.3,25.1
			c-12.7-10.5-25.9-16.5-42.4-16.5c-17.6,0-28.6,7.8-28.6,21.1c0,14.3,14,19.4,31.1,26.2l26.2,11.1c24.3,10,40.2,25.4,40.2,54.3
			c0,32.7-27.3,60.5-73.4,60.5C124.2,1427.5,97.4,1417,78,1398.3z"/>
		<path class="st4" d="M302.9,1382.7c0-32.4,26.2-49.4,87.2-55.9c-0.8-14.9-7.3-26.2-25.9-26.2c-14,0-27.5,6.2-41.6,14.3l-14.3-26.2
			c17.8-11.1,39.4-20,63.2-20c38.3,0,58.1,23,58.1,66.7v88.3h-32.4l-2.7-16.2h-1.1c-13.2,11.3-28.4,20-45.6,20
			C320.7,1427.5,302.9,1408.3,302.9,1382.7z M390.1,1381.6v-30.5c-37,4.6-49.4,14.8-49.4,28.4c0,11.9,8.4,17,20,17
			C372,1396.4,380.4,1391,390.1,1381.6z"/>
		<path class="st4" d="M524,1272.5h32.4l3,20.3h0.8c12.7-13.2,26.7-24,46.4-24c21.6,0,34.3,9.7,41.6,26.5
			c13.8-14.6,28.4-26.5,48.1-26.5c32.1,0,47,22.7,47,60.8v94.2h-39.7v-89.4c0-23.5-6.8-31.6-21.1-31.6c-8.6,0-18.4,5.7-29.2,17v104
			h-39.4v-89.4c0-23.5-7-31.6-21.3-31.6c-8.6,0-18.4,5.7-28.9,17v104H524V1272.5z"/>
		<path class="st4" d="M838.3,1272.5h32.4l3,15.7h0.8c12.7-10.8,28.4-19.4,44.6-19.4c37.3,0,59.4,30.5,59.4,77
			c0,51.8-31.1,81.8-64.3,81.8c-13.2,0-25.9-5.9-37.5-16.5l1.3,24.8v45.9h-39.7V1272.5z M937.7,1346.2c0-28.9-9.2-44.8-30-44.8
			c-10.3,0-19.4,5.1-29.7,15.7v66.4c9.5,8.4,19.2,11.3,27.3,11.3C923.6,1394.8,937.7,1379.2,937.7,1346.2z"/>
		<path class="st4" d="M1066.2,1381.3v-173.1h39.7v174.7c0,9.2,4.1,12.2,7.8,12.2c1.6,0,2.7,0,5.4-0.5l4.9,29.4
			c-4.6,1.9-11.1,3.5-20.5,3.5C1075.9,1427.5,1066.2,1409.4,1066.2,1381.3z"/>
		<path class="st4" d="M1195.8,1348.1c0-48.9,34.6-79.4,70.5-79.4c41.6,0,63.2,30.5,63.2,72.1c0,7.6-0.8,14.9-1.9,18.4h-93.2
			c3.2,24.8,19.4,37.8,41.9,37.8c12.4,0,23.2-3.8,34-10.5l13.5,24.3c-14.9,10.3-34,16.7-52.7,16.7
			C1228.7,1427.5,1195.8,1398.1,1195.8,1348.1z M1295.4,1332.7c0-20.3-9.2-33.2-28.6-33.2c-15.9,0-30,11.3-32.9,33.2H1295.4z"/>
		<path class="st4" d="M1416.1,1272.5h32.4l3,26.7h0.8c11.1-19.7,27.3-30.5,42.9-30.5c8.4,0,13.2,1.4,17.8,3.2l-6.8,34.3
			c-5.4-1.6-9.7-2.4-15.9-2.4c-11.9,0-26.2,7.8-34.6,29.7v90.2h-39.7V1272.5z"/>
		<rect x="251.3" y="1639.1" class="st11" width="1097.4" height="42.7"/>
		<text transform="matrix(1 0 0 1 548.5411 1667.822)" class="st4 st12 st13 st14">ENGLISH</text>
		<rect x="251.3" y="1707.7" class="st11" width="1097.4" height="42.7"/>
		<text transform="matrix(1 0 0 1 708.297 1726.8091)" class="st5 st15 st16 st17">NotoSansJP</text>
	</g>
	<rect x="1787.9" y="875.8" class="st11" width="425.2" height="112"/>
	<text transform="matrix(1 0 0 1 1862.5491 904.512)" class="st9 st15 st13 st18">Pronounced</text>
	<g>
		<g>
			<path class="st9" d="M1885.2,1437.8l-6.5-7.2c13.4,1.8,47.2,3.3,59.9,3.3c15.1,0,23.1-6.5,23.1-16.6c0-10.8-8.8-14.1-21.7-19.6
				l-19.4-8.2c-7-2.9-14-7.1-19.4-12.9l-8.3-9.4c0-23.7,19.1-58.5,48.4-58.5c13.8,0,38.8,11.3,38.8,11.3l6.5,7.2l-14.7,18.2
				c-9.2-7.6-18.8-11.9-30.7-11.9c-12.7,0-20.7,5.7-20.7,15.3c0,10.4,10.2,14.1,22.5,19l19,8c5.9,2.4,15.2,8,15.2,8l4.5,4.8
				c6,6.6,9.4,15.1,9.4,26.5c0,23.7-19.7,43.8-53.2,43.8C1918.7,1459,1899.3,1451.3,1885.2,1437.8z"/>
			<path class="st10" d="M1878.7,1430.6l16.6-19.9c10.4,9.6,24,16,36.8,16c15.1,0,23.1-6.5,23.1-16.6c0-10.8-8.8-14.1-21.7-19.6
				l-19.4-8.2c-14.7-6.1-29.3-17.8-29.3-38.9c0-23.7,20.7-41.8,50.1-41.8c16.8,0,33.6,6.6,45.4,18.6l-14.7,18.2
				c-9.2-7.6-18.8-11.9-30.7-11.9c-12.7,0-20.7,5.7-20.7,15.3c0,10.4,10.2,14.1,22.5,19l19,8c17.6,7.2,29.1,18.4,29.1,39.3
				c0,23.7-19.7,43.8-53.2,43.8C1912.2,1451.7,1892.8,1444.1,1878.7,1430.6z"/>
		</g>
		<g>
			<path class="st9" d="M2025.5,1426.5c0-23.5,19-35.8,63.2-40.5c-0.6-10.8-5.3-19-18.8-19c-10.2,0-19.9,4.5-30.1,10.4l-6.5-7.2
				c8.8-13.2,24.7-26.2,41.9-26.2c11.3,0,26,6.3,26,6.3l4.1,4.5c7.9,8.1,12,20.7,12,37.5v63.9h-23.5l-6.5-7.2l4.6-4.5h-0.8
				c-9.6,8.2-20.5,14.5-33,14.5c-8.1,0-15.1-2.4-20.5-6.6l-10.5-11C2023,1436,2025.5,1434.2,2025.5,1426.5z M2088.7,1425.7v-22.1
				c-26.8,3.3-35.8,10.8-35.8,20.5c0,8.6,6.1,12.3,14.5,12.3C2075.6,1436.5,2081.7,1432.6,2088.7,1425.7z"/>
			<path class="st10" d="M2019,1419.3c0-23.5,19-35.8,63.2-40.5c-0.6-10.8-5.3-19-18.8-19c-10.2,0-19.9,4.5-30.1,10.4l-10.4-19
				c12.9-8,28.5-14.5,45.8-14.5c27.8,0,42,16.6,42,48.3v63.9h-23.5l-2-11.7h-0.8c-9.6,8.2-20.5,14.5-33,14.5
				C2031.9,1451.7,2019,1437.8,2019,1419.3z M2082.2,1418.5v-22.1c-26.8,3.3-35.8,10.8-35.8,20.5c0,8.6,6.1,12.3,14.5,12.3
				C2069.1,1429.2,2075.1,1425.3,2082.2,1418.5z"/>
		</g>
		<rect x="1786.9" y="1257.2" class="st11" width="190.3" height="151.8"/>
		<text transform="matrix(1 0 0 1 1786.8779 1376.7986)" class="st10 st15 st19 st20">“</text>
		<rect x="2022.9" y="1257.2" class="st11" width="190.3" height="151.8"/>
		<text transform="matrix(1 0 0 1 2135.4243 1376.7986)" class="st10 st15 st19 st20">”</text>
	</g>
	<line class="st21" x1="1600" y1="900" x2="1807.9" y2="900"/>
	<line class="st21" x1="2192.1" y1="900" x2="2400" y2="900"/>
</g>
<g id="Layer_4">
	<rect x="-1860.2" y="712.5" class="st6" width="1600" height="900"/>
	<g>
		<g>
			<path class="st5" d="M-1773.3,1220.8l-9-10c18.5,2.5,65.2,4.6,82.7,4.6c20.8,0,31.9-8.9,31.9-23c0-14.9-12.1-19.4-30-27
				l-26.7-11.3c-9.6-4-19.3-9.7-26.7-17.8l-11.5-12.9c0-32.7,26.4-80.8,66.9-80.8c19,0,53.6,15.7,53.6,15.7l9,10l-20.3,25.1
				c-12.7-10.5-25.9-16.5-42.4-16.5c-17.6,0-28.6,7.8-28.6,21.1c0,14.3,14,19.4,31.1,26.2l26.2,11.1c8.1,3.3,21,11.1,21,11.1
				l6.2,6.6c8.3,9,13,20.8,13,36.6c0,32.7-27.3,60.5-73.4,60.5C-1727.1,1249.9-1753.8,1239.4-1773.3,1220.8z"/>
			<path class="st5" d="M-1548.3,1205.1c0-32.4,26.2-49.4,87.2-55.9c-0.8-14.9-7.3-26.2-25.9-26.2c-14,0-27.5,6.2-41.6,14.3l-9-10
				c12.2-18.3,34.1-36.2,57.9-36.2c15.6,0,35.8,8.7,35.8,8.7l5.7,6.2c11,11.2,16.5,28.5,16.5,51.8v88.3h-32.4l-9-10l6.3-6.2h-1.1
				c-13.2,11.3-28.4,20-45.6,20c-11.2,0-20.9-3.3-28.3-9.1l-14.5-15.1C-1551.9,1218.3-1548.3,1215.8-1548.3,1205.1z M-1461.1,1204
				v-30.5c-37,4.6-49.4,14.8-49.4,28.4c0,11.9,8.4,17,20,17C-1479.2,1218.9-1470.9,1213.5-1461.1,1204z"/>
			<path class="st5" d="M-1327.2,1095l23.4-10l9,10l3,20.3h0.8c12.7-13.2,26.7-24,46.4-24c12.5,0,15.8-4.2,23,1.8l9.9,11
				c3.5,3.8,6.3,8.4,8.6,13.7c13.8-14.6,28.4-26.5,48.1-26.5c11.9,0,17.3-2.2,24.6,3.7c0,0,6.5,7.4,7.7,8.5
				c10,10.4,14.7,27,14.7,48.5v94.2h-39.7l-9-10l9-79.4c0-23.5-6.8-31.6-21.1-31.6c-8.6,0-18.4,5.7-29.2,17v104h-39.4l-9-10l9-79.4
				c0-23.5-7-31.6-21.3-31.6c-8.6,0-18.4,5.7-28.9,17v104h-39.7l-9-10L-1327.2,1095z"/>
			<path class="st5" d="M-1012.9,1095l23.4-10l9,10l3,15.7h0.8c12.7-10.8,28.4-19.4,44.6-19.4c14.9,0,31.8,7.6,31.8,7.6l6.6,7.5
				c13.5,13.4,21,35,21,61.9c0,51.8-31.1,81.8-64.3,81.8c-13.2,0-25.9-5.9-37.5-16.5l1.3,24.8v45.9h-39.7l-9-10L-1012.9,1095z
				 M-913.6,1168.7c0-28.9-9.2-44.8-30-44.8c-10.3,0-19.4,5.1-29.7,15.7v66.4c9.5,8.4,19.2,11.3,27.3,11.3
				C-927.6,1217.3-913.6,1201.6-913.6,1168.7z"/>
			<path class="st5" d="M-785.1,1203.8v-173.1l30.7-10l9,10v174.7c0,9.2,1.7,5.2,4.2,1.6l9,10l4.9,29.4c-4.6,1.9-11.1,3.5-20.5,3.5
				c-12.6,0-21.5-3.8-27.4-10.6l-9.7-10.8C-788.7,1220.9-785.1,1215.3-785.1,1203.8z"/>
			<path class="st5" d="M-655.5,1170.6c0-48.9,34.6-79.4,70.5-79.4c17.4,0,27.2,0.4,37.5,9.7l5.7,6.4c13.2,12.9,20,32.7,20,56
				c0,7.6-0.8,14.9-1.9,18.4h-93.2c3.2,24.8,19.4,37.8,41.9,37.8c11.6,0,24.1-6.3,25-20.5l9,10l13.5,24.3
				c-14.9,10.3-34,16.7-52.7,16.7c-22.2,0-41.8-8.1-55.5-22.9l-10-11.1C-655.8,1202.7-655.5,1191.9-655.5,1170.6z M-555.8,1155.2
				c0-20.3-9.2-33.2-28.6-33.2c-15.9,0-30,11.3-32.9,33.2H-555.8z"/>
			<path class="st5" d="M-435.1,1095l23.4-10l9,10l3,26.7h0.8c11.1-19.7,27.3-30.5,42.9-30.5c4.2,0,8.8-6.8,8.8-6.8l9,10l-6.8,34.3
				c-5.4-1.6-9.7-2.4-15.9-2.4c-11.9,0-26.2,7.8-34.6,29.7v90.2h-39.7l-9-10L-435.1,1095z"/>
		</g>
		<g>
			<path class="st4" d="M-1782.3,1210.8l23-27.5c14.3,13.2,33.2,22.1,50.8,22.1c20.8,0,31.9-8.9,31.9-23c0-14.9-12.1-19.4-30-27
				l-26.7-11.3c-20.3-8.4-40.5-24.6-40.5-53.7c0-32.7,28.6-57.8,69.1-57.8c23.2,0,46.4,9.2,62.6,25.7l-20.3,25.1
				c-12.7-10.5-25.9-16.5-42.4-16.5c-17.6,0-28.6,7.8-28.6,21.1c0,14.3,14,19.4,31.1,26.2l26.2,11.1c24.3,10,40.2,25.4,40.2,54.3
				c0,32.7-27.3,60.5-73.4,60.5C-1736.1,1239.9-1762.8,1229.4-1782.3,1210.8z"/>
			<path class="st4" d="M-1557.3,1195.1c0-32.4,26.2-49.4,87.2-55.9c-0.8-14.9-7.3-26.2-25.9-26.2c-14,0-27.5,6.2-41.6,14.3
				l-14.3-26.2c17.8-11.1,39.4-20,63.2-20c38.3,0,58.1,23,58.1,66.7v88.3h-32.4l-2.7-16.2h-1.1c-13.2,11.3-28.4,20-45.6,20
				C-1539.5,1239.9-1557.3,1220.8-1557.3,1195.1z M-1470.1,1194v-30.5c-37,4.6-49.4,14.8-49.4,28.4c0,11.9,8.4,17,20,17
				C-1488.2,1208.9-1479.9,1203.5-1470.1,1194z"/>
			<path class="st4" d="M-1336.2,1085h32.4l3,20.3h0.8c12.7-13.2,26.7-24,46.4-24c21.6,0,34.3,9.7,41.6,26.5
				c13.8-14.6,28.4-26.5,48.1-26.5c32.1,0,47,22.7,47,60.8v94.2h-39.7v-89.4c0-23.5-6.8-31.6-21.1-31.6c-8.6,0-18.4,5.7-29.2,17v104
				h-39.4v-89.4c0-23.5-7-31.6-21.3-31.6c-8.6,0-18.4,5.7-28.9,17v104h-39.7V1085z"/>
			<path class="st4" d="M-1021.9,1085h32.4l3,15.7h0.8c12.7-10.8,28.4-19.4,44.6-19.4c37.3,0,59.4,30.5,59.4,77
				c0,51.8-31.1,81.8-64.3,81.8c-13.2,0-25.9-5.9-37.5-16.5l1.3,24.8v45.9h-39.7V1085z M-922.6,1158.7c0-28.9-9.2-44.8-30-44.8
				c-10.3,0-19.4,5.1-29.7,15.7v66.4c9.5,8.4,19.2,11.3,27.3,11.3C-936.6,1207.3-922.6,1191.6-922.6,1158.7z"/>
			<path class="st4" d="M-794.1,1193.8v-173.1h39.7v174.7c0,9.2,4.1,12.2,7.8,12.2c1.6,0,2.7,0,5.4-0.5l4.9,29.4
				c-4.6,1.9-11.1,3.5-20.5,3.5C-784.3,1239.9-794.1,1221.9-794.1,1193.8z"/>
			<path class="st4" d="M-664.5,1160.6c0-48.9,34.6-79.4,70.5-79.4c41.6,0,63.2,30.5,63.2,72.1c0,7.6-0.8,14.9-1.9,18.4h-93.2
				c3.2,24.8,19.4,37.8,41.9,37.8c12.4,0,23.2-3.8,34-10.5l13.5,24.3c-14.9,10.3-34,16.7-52.7,16.7
				C-631.5,1239.9-664.5,1210.5-664.5,1160.6z M-564.8,1145.2c0-20.3-9.2-33.2-28.6-33.2c-15.9,0-30,11.3-32.9,33.2H-564.8z"/>
			<path class="st4" d="M-444.1,1085h32.4l3,26.7h0.8c11.1-19.7,27.3-30.5,42.9-30.5c8.4,0,13.2,1.4,17.8,3.2l-6.8,34.3
				c-5.4-1.6-9.7-2.4-15.9-2.4c-11.9,0-26.2,7.8-34.6,29.7v90.2h-39.7V1085z"/>
		</g>
	</g>
	<rect x="-1608.9" y="1451.6" class="st11" width="1097.4" height="42.7"/>
	<text transform="matrix(1 0 0 1 -1311.6917 1480.2834)" class="st4 st12 st13 st14">ENGLISH</text>
	<rect x="-1608.9" y="1520.1" class="st11" width="1097.4" height="42.7"/>
	<text transform="matrix(1 0 0 1 -1151.9358 1539.2705)" class="st5 st15 st16 st17">NotoSansJP</text>
</g>
</svg>
