<?xml version="1.0" encoding="utf-8"?>
<!-- Generator: Adobe Illustrator 22.0.1, SVG Export Plug-In . SVG Version: 6.00 Build 0)  -->
<svg version="1.1" id="Capa_1" xmlns="http://www.w3.org/2000/svg" xmlns:xlink="http://www.w3.org/1999/xlink" x="0px" y="0px"
	 viewBox="0 0 306.8 306.8" style="enable-background:new 0 0 306.8 306.8;" xml:space="preserve">
<g>
	<g>
		<path d="M153.4,104.4c-27.1,0-49,22-49,49s22,49,49,49s49-22,49-49S180.4,104.4,153.4,104.4z M149.7,138.8
			c-6.1,0-11.2,5.1-11.2,11.2c0,0,0.1,6.8-8.5,6.7c-7.8-0.1-7.8-6.7-7.8-6.7c0.3-15.2,12.5-27.4,27.4-27.4c0,0,8.2-0.1,7.9,7.3
			C157.3,139.2,149.7,138.8,149.7,138.8z"/>
	</g>
</g>
<g>
	<g>
		<path d="M302.2,143.2c-16.6-20.6-75.7-97.9-148.8-97.9S21.2,122.6,4.6,143.2c-4.7,5.7-4.7,14.2,0,20.3
			c16.6,20.6,75.7,97.9,148.8,97.9s132.2-77.3,148.8-97.9C306.9,157.8,306.9,149.3,302.2,143.2z M153.4,224.4c-39.2,0-71-31.8-71-71
			s31.8-71,71-71s71,31.8,71,71S192.6,224.4,153.4,224.4z"/>
	</g>
</g>
</svg>
