<?xml version="1.0" encoding="utf-8"?>
<!-- Generator: Adobe Illustrator 22.0.1, SVG Export Plug-In . SVG Version: 6.00 Build 0)  -->
<svg version="1.1" xmlns="http://www.w3.org/2000/svg" xmlns:xlink="http://www.w3.org/1999/xlink" x="0px" y="0px"
	 viewBox="0 0 200 200" style="enable-background:new 0 0 200 200;" xml:space="preserve">
<style type="text/css">
	.st0{fill:none;stroke:#F45E58;stroke-miterlimit:10;}
	.st1{fill:none;stroke:#288FEB;stroke-miterlimit:10;}
	.st2{fill:#F45E58;}
	.st3{fill:#288FEB;}
	.st4{fill:none;stroke:#F0F0F0;stroke-width:3;stroke-miterlimit:10;}
	.st5{fill:#FFFFFF;}
	.st6{fill:#278BD6;}
	.st7{opacity:0.13;fill:#278BD6;enable-background:new    ;}
	.st8{fill:#E05C5C;}
	.st9{fill:#F4615B;}
	.st10{fill:#F0F0F0;}
	.st11{fill:#248CD0;}
	.st12{fill:#F0F0F0;stroke:#F0F0F0;stroke-width:0.75;stroke-miterlimit:10;}
	.st13{fill:#F0F0F0;stroke:#F0F0F0;stroke-width:1.5;stroke-miterlimit:10;}
	.st14{fill:none;stroke:#248CD0;stroke-miterlimit:10;}
	.st15{fill:none;stroke:#F0F0F0;stroke-linecap:round;stroke-miterlimit:10;}
	.st16{fill:none;stroke:#FFD18F;stroke-miterlimit:10;stroke-dasharray:12.5631,12.5631;}
	.st17{fill:none;stroke:#D3D3D3;stroke-miterlimit:10;}
	.st18{fill:#D3D3D3;}
	.st19{fill:#FFD18F;}
</style>
<g id="Layer_1">
	<path class="st0" d="M45.3-113.4c-3.8,3.6-15,13.2-16.4,13.2c-1.4,0-12.8-9.7-16.7-13.3c-2.8-2.6-5.4-5.3-6.1-13
		C5.5-133.9,4.1-154,6-154.4c11.3-2.4,34.7-1.5,46.1,0.2c1.6,0.2,0.2,20.4-0.5,28C51-118.5,48.1-116,45.3-113.4z"/>
	<path class="st1" d="M194-103.6h-48c-1.1,0-2-0.9-2-2V-151c0-1.1,0.9-2,2-2h48c1.1,0,2,0.9,2,2v45.4
		C196-104.5,195.1-103.6,194-103.6z"/>
	<path class="st1" d="M183.8-113.8h-27.5c-1.1,0-2-0.9-2-1.9v-23.1c0-1.1,0.9-1.9,2-1.9h5.6l0-1.9c0-0.5,0.5-1,1-1h14.3
		c0.6,0,1,0.4,1,1v1.9h5.6c1.1,0,2,0.9,2,1.9v23.1C185.8-114.7,184.9-113.8,183.8-113.8z"/>
	<line class="st1" x1="178.9" y1="-122.5" x2="178.9" y2="-113.8"/>
	<line class="st1" x1="161.1" y1="-122.5" x2="161.1" y2="-113.8"/>
	<line class="st1" x1="172.8" y1="-122.5" x2="172.8" y2="-113.8"/>
	<line class="st1" x1="167.2" y1="-122.5" x2="167.2" y2="-113.8"/>
	<g>
		<path class="st2" d="M5.4-75.6h-4v-10.9h4C7-86.5,8.3-86,9.1-85c0.8,1,1.2,2.3,1.2,3.9c0,1.1-0.2,2.1-0.6,2.9
			c-0.4,0.8-0.9,1.5-1.7,1.9C7.3-75.8,6.4-75.6,5.4-75.6z M5.5-84.9H3.2v7.8h2.2c1,0,1.7-0.3,2.3-1s0.8-1.7,0.8-3
			c0-1.2-0.3-2.2-0.8-2.8C7.2-84.6,6.5-84.9,5.5-84.9z"/>
		<path class="st2" d="M18.6-79h-5.4c0.2,1.4,1,2.1,2.5,2.1c0.4,0,0.8-0.1,1.1-0.2c0.3-0.1,0.7-0.3,1.2-0.5l0.5,1.3
			c-0.9,0.6-1.8,0.9-2.9,0.9c-1.4,0-2.5-0.4-3.2-1.1c-0.7-0.7-1.1-1.7-1.1-3c0-0.8,0.2-1.5,0.5-2.1c0.3-0.6,0.7-1.1,1.3-1.4
			c0.6-0.3,1.2-0.5,2-0.5c1.1,0,2,0.4,2.6,1.1c0.6,0.8,0.9,1.7,0.9,2.9V-79z M13.3-80.2h3.6c-0.1-0.6-0.3-1.1-0.6-1.4
			C16-81.9,15.6-82,15.1-82c-0.5,0-0.9,0.2-1.2,0.5C13.6-81.2,13.4-80.8,13.3-80.2z"/>
		<path class="st2" d="M19.3-81.9v-1.4h1.2v-0.8c0-0.8,0.2-1.5,0.7-2c0.5-0.5,1.2-0.7,2-0.7c0.2,0,0.5,0,0.8,0.1
			c0.3,0.1,0.5,0.2,0.6,0.3l-0.5,1.3c-0.3-0.1-0.6-0.2-0.8-0.2c-0.4,0-0.6,0.1-0.8,0.4c-0.2,0.2-0.3,0.6-0.3,1v0.6h1.4l0.6,1.4h-2
			v6.3h-1.8v-6.3H19.3z"/>
		<path class="st2" d="M32.4-79H27c0.2,1.4,1,2.1,2.5,2.1c0.4,0,0.8-0.1,1.1-0.2c0.3-0.1,0.7-0.3,1.2-0.5l0.5,1.3
			c-0.9,0.6-1.8,0.9-2.9,0.9c-1.4,0-2.5-0.4-3.2-1.1c-0.7-0.7-1.1-1.7-1.1-3c0-0.8,0.2-1.5,0.5-2.1c0.3-0.6,0.7-1.1,1.3-1.4
			c0.6-0.3,1.2-0.5,2-0.5c1.1,0,2,0.4,2.6,1.1c0.6,0.8,0.9,1.7,0.9,2.9V-79z M27-80.2h3.6c-0.1-0.6-0.3-1.1-0.6-1.4
			c-0.3-0.3-0.7-0.5-1.2-0.5c-0.5,0-0.9,0.2-1.2,0.5C27.3-81.2,27.1-80.8,27-80.2z"/>
		<path class="st2" d="M35.5-75.6h-1.8v-7.8h1.2l0.3,0.9c0.4-0.4,0.9-0.7,1.5-0.9s1-0.3,1.5-0.3c0.9,0,1.6,0.3,2,0.8
			c0.4,0.5,0.6,1.3,0.6,2.2v5H39v-4.9c0-1.1-0.4-1.6-1.2-1.6c-0.7,0-1.4,0.4-2.3,1.1V-75.6z"/>
		<path class="st2" d="M48.2-77.5l0.5,1.3c-0.3,0.2-0.8,0.4-1.3,0.6c-0.5,0.1-1,0.2-1.4,0.2c-0.8,0-1.5-0.2-2.1-0.5
			c-0.6-0.3-1.1-0.8-1.4-1.4c-0.3-0.6-0.5-1.3-0.5-2.2c0-0.8,0.2-1.5,0.5-2.1c0.3-0.6,0.8-1.1,1.4-1.4c0.6-0.3,1.3-0.5,2.1-0.5
			c0.4,0,0.8,0.1,1.3,0.2c0.5,0.1,1,0.3,1.3,0.6l-0.5,1.3c-0.4-0.2-0.8-0.3-1.1-0.4c-0.3-0.1-0.7-0.1-1-0.1c-0.6,0-1.2,0.2-1.6,0.7
			c-0.4,0.5-0.6,1.1-0.6,1.8c0,0.8,0.2,1.4,0.6,1.8c0.4,0.5,0.9,0.7,1.6,0.7c0.4,0,0.8,0,1.1-0.1C47.5-77.2,47.8-77.3,48.2-77.5z"/>
		<path class="st2" d="M56.8-79h-5.4c0.2,1.4,1,2.1,2.5,2.1c0.4,0,0.8-0.1,1.1-0.2c0.3-0.1,0.7-0.3,1.2-0.5l0.5,1.3
			c-0.9,0.6-1.8,0.9-2.9,0.9c-1.4,0-2.5-0.4-3.2-1.1c-0.7-0.7-1.1-1.7-1.1-3c0-0.8,0.2-1.5,0.5-2.1c0.3-0.6,0.7-1.1,1.3-1.4
			c0.6-0.3,1.2-0.5,2-0.5c1.1,0,2,0.4,2.6,1.1c0.6,0.8,0.9,1.7,0.9,2.9V-79z M51.5-80.2h3.6c-0.1-0.6-0.3-1.1-0.6-1.4
			c-0.3-0.3-0.7-0.5-1.2-0.5c-0.5,0-0.9,0.2-1.2,0.5C51.8-81.2,51.6-80.8,51.5-80.2z"/>
	</g>
	<g>
		<path class="st3" d="M159.2-78l3.1-8.4h1.8l-4.2,10.9h-1.6l-4.2-10.8l1.8-0.3L159.2-78z"/>
		<path class="st3" d="M167.5-75.6h-1.8v-10.9h3.2c1.3,0,2.3,0.3,3,0.8c0.8,0.6,1.2,1.4,1.2,2.6c0,0.8-0.2,1.4-0.6,2
			c-0.4,0.5-0.9,0.9-1.6,1.2c-0.7,0.3-1.4,0.4-2.2,0.4h-1.3V-75.6z M168.9-85h-1.4v4h1.4c0.7,0,1.3-0.2,1.7-0.5
			c0.4-0.3,0.6-0.8,0.7-1.5c0-0.7-0.2-1.3-0.6-1.6C170.2-84.8,169.7-85,168.9-85z"/>
		<path class="st3" d="M175-75.6v-10.9h1.7l5.3,7.7v-7.7h1.8v10.9h-1.7l-5.3-7.7v7.7H175z"/>
	</g>
	<line class="st4" x1="100.5" y1="-127" x2="100.5" y2="-114"/>
	<line class="st4" x1="107" y1="-120.5" x2="94" y2="-120.5"/>
	<line class="st4" x1="859.5" y1="44" x2="859.5" y2="57"/>
	<line class="st4" x1="866" y1="50.5" x2="853" y2="50.5"/>
	<line class="st4" x1="859.5" y1="-127" x2="859.5" y2="-114"/>
	<line class="st4" x1="866" y1="-120.5" x2="853" y2="-120.5"/>
	<g>
		<path class="st5" d="M12.6,55.4c0,0,54-13.5,88.6-13.5C136,42,188,54.4,188,54.4l-6.6,41.4c0,0-60.1-7.6-80.8-7.6
			c-20.4,0-79.6,7.6-79.6,7.6L12.6,55.4z"/>
		<path class="st5" d="M99.9,11L99.9,11l76.3,31.5c0,0-6.2,76.3-19.1,97.7c-9.5,15.8-57.3,46.6-57.3,46.6"/>
		<path class="st5" d="M100.7,186.2L100,11l-0.1,0l-0.1,0L23.6,42.5c0,0,6.2,76.3,19.1,97.7c8.6,14.4,49.2,41.3,56.2,45.9
			c0.7,0.4,1,0.7,1,0.7L100.7,186.2z"/>
		<path class="st2" d="M100.1,17.3L169,46c0,0-5.6,69.6-17.2,89.1c-8.5,14.4-51.7,42.5-51.7,42.5"/>
		<path class="st2" d="M100.1,17.3L31.2,46c0,0,5.6,69.6,17.2,89.1c7.5,12.7,51.7,42.6,51.7,42.6l9.4-6.5l-0.2-150.1"/>
		<path d="M100.8,24.3L162.3,50c0,0-5,62.2-15.3,79.7c-7.6,12.9-46.2,38-46.2,38"/>
		<path d="M100.8,24.3L39.3,50c0,0,5,62.2,15.3,79.7c7.6,12.9,46.2,38,46.2,38"/>
		<path class="st3" d="M100.7,30l55.7,23.3c0,0-4.5,56.3-13.9,72c-6.9,11.7-41.8,34.4-41.8,34.4S86.1,149,93.5,82.3"/>
		<path class="st6" d="M100.7,30L45,53.2c0,0,4.5,56.3,13.9,72c6.9,11.7,41.9,34.4,41.9,34.4"/>
		<path class="st5" d="M110.1,94.6c0,5.2-4.2,9.4-9.4,9.4s-9.4-4.2-9.4-9.4c0-5.2,4.2-9.4,9.4-9.4l0,0
			C105.9,85.2,110.1,89.4,110.1,94.6L110.1,94.6z"/>
		<polygon class="st5" points="92,129.5 109.3,129.5 104.2,103.1 97.2,103.3 		"/>
		<path class="st7" d="M100.7,30L100.7,30L45,53.2c0,0,4.5,56.3,13.9,72c6.9,11.7,41.9,34.4,41.9,34.4V80.8"/>
		<polygon class="st8" points="173.4,86.6 163.7,89.7 164.3,85.8 		"/>
		<polygon class="st8" points="27.3,87.4 35.9,86.4 36.6,89.1 		"/>
		<path class="st2" d="M20,60.4c0,0,42.5-9.5,80.7-9.5c38.9,0,79.5,8.8,79.5,8.8l-4.4,27.9c0,0-56.7-6.7-75.7-6.7
			c-18.8,0-74.6,6.7-74.6,6.7L20,60.4z"/>
	</g>
	<g>
		<g>
			<path class="st2" d="M36.8,336.7c-0.3,0-0.6-0.1-0.8-0.3c-0.2-0.2-0.3-0.5-0.3-0.8v-14.2c0-0.3,0.1-0.6,0.3-0.8
				c0.2-0.2,0.5-0.4,0.8-0.4h4.7c1.8,0,3.3,0.4,4.6,1.2c1.3,0.8,2.2,1.8,2.8,3.1c0.6,1.3,1,2.6,1,4c0,1.4-0.3,2.7-1,4
				c-0.6,1.3-1.6,2.3-2.8,3.1c-1.3,0.8-2.8,1.2-4.6,1.2H36.8z M41.2,334.4c1.3,0,2.4-0.3,3.3-0.8c0.9-0.5,1.7-1.2,2.2-2.1
				c0.5-0.9,0.8-2,0.8-3.2c0-1.2-0.3-2.3-0.8-3.2c-0.5-0.9-1.3-1.6-2.2-2.1c-0.9-0.5-2.1-0.8-3.3-0.8H38v12.1H41.2z"/>
			<path class="st2" d="M41.5,320.2c1.8,0,3.3,0.4,4.5,1.2c1.2,0.8,2.2,1.8,2.8,3.1c0.6,1.2,0.9,2.6,0.9,3.9c0,1.4-0.3,2.7-0.9,3.9
				c-0.6,1.2-1.6,2.3-2.8,3.1c-1.2,0.8-2.8,1.2-4.5,1.2h-4.7c-0.3,0-0.5-0.1-0.8-0.3c-0.2-0.2-0.3-0.5-0.3-0.8v-14.2
				c0-0.3,0.1-0.6,0.3-0.8c0.2-0.2,0.5-0.3,0.8-0.3H41.5 M37.8,334.6h3.4c1.3,0,2.4-0.3,3.4-0.8c1-0.5,1.7-1.2,2.2-2.2
				c0.5-0.9,0.8-2,0.8-3.2c0-1.2-0.3-2.3-0.8-3.2c-0.5-0.9-1.3-1.7-2.2-2.2c-1-0.5-2.1-0.8-3.4-0.8h-3.4V334.6 M41.5,320h-4.7
				c-0.4,0-0.7,0.1-0.9,0.4c-0.2,0.3-0.4,0.6-0.4,0.9v14.2c0,0.4,0.1,0.7,0.4,0.9c0.2,0.3,0.6,0.4,0.9,0.4h4.7
				c1.8,0,3.4-0.4,4.7-1.2c1.3-0.8,2.2-1.9,2.9-3.2c0.6-1.3,1-2.6,1-4c0-1.4-0.3-2.8-1-4c-0.6-1.3-1.6-2.3-2.9-3.2
				C44.9,320.4,43.3,320,41.5,320L41.5,320z M38.1,322.4h3.1c1.2,0,2.3,0.3,3.3,0.8c0.9,0.5,1.6,1.2,2.2,2.1
				c0.5,0.9,0.8,1.9,0.8,3.1c0,1.2-0.3,2.2-0.8,3.1c-0.5,0.9-1.2,1.6-2.2,2.1c-0.9,0.5-2,0.8-3.3,0.8h-3.1V322.4L38.1,322.4z"/>
		</g>
		<g>
			<path class="st2" d="M54.9,336.7c-0.3,0-0.6-0.1-0.8-0.3c-0.2-0.2-0.3-0.5-0.3-0.8v-14.2c0-0.3,0.1-0.6,0.3-0.8
				c0.2-0.2,0.5-0.4,0.8-0.4h9.4c0.3,0,0.6,0.1,0.8,0.3c0.2,0.2,0.3,0.5,0.3,0.8c0,0.3-0.1,0.6-0.3,0.8c-0.2,0.2-0.5,0.3-0.8,0.3
				h-8.2v4.9h7.3c0.3,0,0.6,0.1,0.8,0.3c0.2,0.2,0.3,0.5,0.3,0.8c0,0.3-0.1,0.6-0.3,0.8c-0.2,0.2-0.5,0.3-0.8,0.3h-7.3v5h8.2
				c0.3,0,0.6,0.1,0.8,0.3c0.2,0.2,0.3,0.5,0.3,0.8c0,0.3-0.1,0.6-0.3,0.8c-0.2,0.2-0.5,0.3-0.8,0.3H54.9z"/>
			<path class="st2" d="M64.3,320.2c0.3,0,0.5,0.1,0.7,0.3c0.2,0.2,0.3,0.4,0.3,0.7c0,0.3-0.1,0.5-0.3,0.7c-0.2,0.2-0.4,0.3-0.7,0.3
				H56v5.2h7.5c0.3,0,0.5,0.1,0.7,0.3c0.2,0.2,0.3,0.4,0.3,0.7c0,0.3-0.1,0.5-0.3,0.7c-0.2,0.2-0.4,0.3-0.7,0.3H56v5.2h8.3
				c0.3,0,0.5,0.1,0.7,0.3c0.2,0.2,0.3,0.4,0.3,0.7c0,0.3-0.1,0.5-0.3,0.7c-0.2,0.2-0.4,0.3-0.7,0.3h-9.4c-0.3,0-0.5-0.1-0.8-0.3
				c-0.2-0.2-0.3-0.5-0.3-0.8v-14.2c0-0.3,0.1-0.6,0.3-0.8c0.2-0.2,0.5-0.3,0.8-0.3H64.3 M64.3,320h-9.4c-0.4,0-0.7,0.1-0.9,0.4
				c-0.2,0.3-0.4,0.6-0.4,0.9v14.2c0,0.4,0.1,0.7,0.4,0.9c0.2,0.3,0.6,0.4,0.9,0.4h9.4c0.3,0,0.6-0.1,0.9-0.3
				c0.2-0.2,0.4-0.5,0.4-0.9c0-0.3-0.1-0.6-0.4-0.9c-0.2-0.2-0.5-0.4-0.9-0.4h-8.1v-4.7h7.2c0.3,0,0.6-0.1,0.9-0.3
				c0.2-0.2,0.4-0.5,0.4-0.9c0-0.3-0.1-0.6-0.4-0.9c-0.2-0.2-0.5-0.4-0.9-0.4h-7.2v-4.7h8.1c0.3,0,0.6-0.1,0.9-0.4
				c0.2-0.2,0.4-0.5,0.4-0.9c0-0.3-0.1-0.6-0.4-0.9C65,320.1,64.7,320,64.3,320L64.3,320z"/>
		</g>
		<g>
			<path class="st2" d="M70.5,336.8c-0.3,0-0.6-0.1-0.8-0.3c-0.2-0.2-0.3-0.5-0.3-0.8v-14.3c0-0.3,0.1-0.6,0.3-0.8
				c0.2-0.2,0.5-0.4,0.8-0.4h9.1c0.3,0,0.6,0.1,0.8,0.3c0.2,0.2,0.3,0.5,0.3,0.8c0,0.3-0.1,0.6-0.3,0.8c-0.2,0.2-0.5,0.3-0.8,0.3
				h-7.9v4.9h7.1c0.3,0,0.6,0.1,0.8,0.3c0.2,0.2,0.3,0.5,0.3,0.8c0,0.3-0.1,0.6-0.3,0.8c-0.2,0.2-0.5,0.3-0.8,0.3h-7.1v6.1
				c0,0.3-0.1,0.6-0.4,0.8C71.1,336.7,70.8,336.8,70.5,336.8z"/>
			<path class="st2" d="M79.6,320.2c0.3,0,0.5,0.1,0.7,0.3c0.2,0.2,0.3,0.4,0.3,0.7c0,0.3-0.1,0.5-0.3,0.7c-0.2,0.2-0.4,0.3-0.7,0.3
				h-8v5.2h7.2c0.3,0,0.5,0.1,0.7,0.3c0.2,0.2,0.3,0.4,0.3,0.7c0,0.3-0.1,0.5-0.3,0.7c-0.2,0.2-0.4,0.3-0.7,0.3h-7.2v6.3
				c0,0.3-0.1,0.5-0.3,0.7c-0.2,0.2-0.5,0.3-0.8,0.3c-0.3,0-0.5-0.1-0.8-0.3c-0.2-0.2-0.3-0.5-0.3-0.7v-14.3c0-0.3,0.1-0.6,0.3-0.8
				c0.2-0.2,0.5-0.3,0.8-0.3H79.6 M79.6,320h-9.1c-0.4,0-0.7,0.1-0.9,0.4c-0.2,0.3-0.4,0.6-0.4,0.9v14.3c0,0.4,0.1,0.7,0.4,0.9
				c0.2,0.3,0.6,0.4,0.9,0.4c0.4,0,0.7-0.1,0.9-0.4c0.3-0.2,0.4-0.6,0.4-0.9v-6h7c0.3,0,0.6-0.1,0.9-0.3c0.2-0.2,0.4-0.5,0.4-0.9
				c0-0.3-0.1-0.6-0.4-0.9c-0.2-0.2-0.5-0.4-0.9-0.4h-7v-4.7h7.8c0.3,0,0.6-0.1,0.9-0.4c0.2-0.2,0.4-0.5,0.4-0.9
				c0-0.3-0.1-0.6-0.4-0.9C80.2,320.1,79.9,320,79.6,320L79.6,320z"/>
		</g>
		<g>
			<path class="st2" d="M85.3,336.7c-0.3,0-0.6-0.1-0.8-0.3c-0.2-0.2-0.3-0.5-0.3-0.8v-14.2c0-0.3,0.1-0.6,0.3-0.8
				c0.2-0.2,0.5-0.4,0.8-0.4h9.4c0.3,0,0.6,0.1,0.8,0.3c0.2,0.2,0.3,0.5,0.3,0.8c0,0.3-0.1,0.6-0.3,0.8c-0.2,0.2-0.5,0.3-0.8,0.3
				h-8.2v4.9h7.3c0.3,0,0.6,0.1,0.8,0.3c0.2,0.2,0.3,0.5,0.3,0.8c0,0.3-0.1,0.6-0.3,0.8c-0.2,0.2-0.5,0.3-0.8,0.3h-7.3v5h8.2
				c0.3,0,0.6,0.1,0.8,0.3c0.2,0.2,0.3,0.5,0.3,0.8c0,0.3-0.1,0.6-0.3,0.8c-0.2,0.2-0.5,0.3-0.8,0.3H85.3z"/>
			<path class="st2" d="M94.7,320.2c0.3,0,0.5,0.1,0.7,0.3c0.2,0.2,0.3,0.4,0.3,0.7c0,0.3-0.1,0.5-0.3,0.7c-0.2,0.2-0.4,0.3-0.7,0.3
				h-8.3v5.2h7.5c0.3,0,0.5,0.1,0.7,0.3c0.2,0.2,0.3,0.4,0.3,0.7c0,0.3-0.1,0.5-0.3,0.7c-0.2,0.2-0.4,0.3-0.7,0.3h-7.5v5.2h8.3
				c0.3,0,0.5,0.1,0.7,0.3c0.2,0.2,0.3,0.4,0.3,0.7c0,0.3-0.1,0.5-0.3,0.7c-0.2,0.2-0.4,0.3-0.7,0.3h-9.4c-0.3,0-0.5-0.1-0.8-0.3
				c-0.2-0.2-0.3-0.5-0.3-0.8v-14.2c0-0.3,0.1-0.6,0.3-0.8c0.2-0.2,0.5-0.3,0.8-0.3H94.7 M94.7,320h-9.4c-0.4,0-0.7,0.1-0.9,0.4
				c-0.2,0.3-0.4,0.6-0.4,0.9v14.2c0,0.4,0.1,0.7,0.4,0.9c0.2,0.3,0.6,0.4,0.9,0.4h9.4c0.3,0,0.6-0.1,0.9-0.3
				c0.2-0.2,0.4-0.5,0.4-0.9c0-0.3-0.1-0.6-0.4-0.9c-0.2-0.2-0.5-0.4-0.9-0.4h-8.1v-4.7h7.2c0.3,0,0.6-0.1,0.9-0.3
				c0.2-0.2,0.4-0.5,0.4-0.9c0-0.3-0.1-0.6-0.4-0.9c-0.2-0.2-0.5-0.4-0.9-0.4h-7.2v-4.7h8.1c0.3,0,0.6-0.1,0.9-0.4
				c0.2-0.2,0.4-0.5,0.4-0.9c0-0.3-0.1-0.6-0.4-0.9C95.3,320.1,95,320,94.7,320L94.7,320z"/>
		</g>
		<g>
			<path class="st2" d="M112.2,336.8c-0.3,0-0.5-0.1-0.8-0.2c-0.2-0.1-0.4-0.3-0.6-0.5l-8.8-12.8v12.3c0,0.3-0.1,0.6-0.4,0.8
				c-0.2,0.2-0.5,0.3-0.8,0.3c-0.3,0-0.6-0.1-0.8-0.3c-0.2-0.2-0.3-0.5-0.3-0.8v-14c0-0.5,0.2-0.8,0.5-1.2c0.3-0.3,0.7-0.5,1.2-0.5
				h0.3c0.5,0,1,0.3,1.4,0.8l8.8,12.7v-12.3c0-0.3,0.1-0.6,0.3-0.8c0.2-0.2,0.5-0.4,0.8-0.4c0.3,0,0.6,0.1,0.9,0.4
				c0.2,0.2,0.4,0.5,0.4,0.8v14c0,0.5-0.2,0.8-0.5,1.2c-0.3,0.3-0.7,0.5-1.2,0.5H112.2z"/>
			<path class="st2" d="M113,320.1c0.3,0,0.6,0.1,0.8,0.3c0.2,0.2,0.3,0.5,0.3,0.8v14c0,0.4-0.2,0.8-0.5,1.1
				c-0.3,0.3-0.7,0.4-1.1,0.4h-0.3c-0.3,0-0.5-0.1-0.7-0.2c-0.2-0.1-0.4-0.3-0.5-0.5l-9.1-13.1v12.7c0,0.3-0.1,0.5-0.3,0.7
				c-0.2,0.2-0.5,0.3-0.8,0.3c-0.3,0-0.5-0.1-0.8-0.3c-0.2-0.2-0.3-0.5-0.3-0.7v-14c0-0.4,0.1-0.8,0.4-1.1c0.3-0.3,0.7-0.5,1.1-0.5
				h0.3c0.5,0,0.9,0.2,1.3,0.7l9,13v-12.7c0-0.3,0.1-0.6,0.3-0.8C112.4,320.2,112.7,320.1,113,320.1 M113,319.8
				c-0.4,0-0.7,0.1-0.9,0.4c-0.2,0.3-0.4,0.6-0.4,0.9V333l-8.6-12.4c-0.4-0.5-0.9-0.8-1.5-0.8h-0.3c-0.5,0-0.9,0.2-1.3,0.5
				c-0.3,0.4-0.5,0.8-0.5,1.3v14c0,0.4,0.1,0.7,0.4,0.9c0.2,0.3,0.6,0.4,0.9,0.4c0.4,0,0.7-0.1,0.9-0.4c0.3-0.2,0.4-0.6,0.4-0.9
				v-11.9l8.6,12.4c0.2,0.2,0.4,0.4,0.6,0.5c0.3,0.1,0.5,0.2,0.8,0.2h0.3c0.5,0,0.9-0.2,1.3-0.5c0.4-0.3,0.5-0.8,0.5-1.3v-14
				c0-0.4-0.1-0.7-0.4-0.9C113.6,320,113.3,319.8,113,319.8L113,319.8z"/>
		</g>
		<g>
			<path class="st2" d="M126.4,336.9c-1.6,0-3-0.3-4.3-1c-1.3-0.7-2.3-1.7-3-3c-0.7-1.3-1.1-2.8-1.1-4.5s0.4-3.2,1.1-4.5
				c0.7-1.3,1.7-2.3,3-3c1.3-0.7,2.7-1,4.3-1c1.1,0,2,0.1,2.9,0.4c0.8,0.3,1.7,0.6,2.5,1.1c0.4,0.2,0.6,0.5,0.6,1
				c0,0.3-0.1,0.5-0.3,0.7c-0.2,0.2-0.5,0.3-0.8,0.3c-0.2,0-0.3,0-0.5-0.1c-0.7-0.4-1.4-0.6-2-0.8c-0.6-0.2-1.4-0.3-2.2-0.3
				c-1.3,0-2.4,0.3-3.4,0.8c-0.9,0.5-1.6,1.3-2.1,2.2c-0.5,0.9-0.7,2-0.7,3.2c0,1.2,0.2,2.3,0.7,3.2c0.5,0.9,1.2,1.7,2.1,2.2
				c0.9,0.5,2.1,0.8,3.4,0.8c0.8,0,1.6-0.1,2.2-0.3c0.6-0.2,1.3-0.5,2-0.8c0.1-0.1,0.3-0.1,0.5-0.1c0.3,0,0.6,0.1,0.8,0.3
				c0.2,0.2,0.3,0.4,0.3,0.7c0,0.5-0.2,0.8-0.6,1c-0.8,0.5-1.7,0.8-2.5,1.1C128.4,336.8,127.5,336.9,126.4,336.9z"/>
			<path class="st2" d="M126.4,320c1.1,0,2,0.1,2.8,0.4c0.8,0.3,1.7,0.6,2.5,1.1c0.3,0.2,0.5,0.5,0.5,0.9c0,0.2-0.1,0.4-0.3,0.6
				c-0.2,0.2-0.4,0.3-0.7,0.3c-0.2,0-0.3,0-0.4-0.1c-0.7-0.4-1.4-0.6-2-0.8c-0.7-0.2-1.4-0.3-2.3-0.3c-1.3,0-2.5,0.3-3.4,0.8
				c-0.9,0.6-1.7,1.3-2.1,2.3c-0.5,1-0.7,2-0.7,3.3c0,1.2,0.2,2.3,0.7,3.3c0.5,1,1.2,1.7,2.1,2.3c0.9,0.6,2.1,0.8,3.4,0.8
				c0.9,0,1.6-0.1,2.3-0.3c0.7-0.2,1.3-0.5,2-0.8c0.1-0.1,0.3-0.1,0.4-0.1c0.3,0,0.5,0.1,0.7,0.3c0.2,0.2,0.3,0.4,0.3,0.6
				c0,0.4-0.2,0.7-0.5,0.9c-0.8,0.5-1.7,0.8-2.5,1.1c-0.8,0.3-1.8,0.4-2.8,0.4c-1.6,0-3-0.3-4.2-1c-1.2-0.7-2.2-1.7-2.9-2.9
				c-0.7-1.3-1.1-2.8-1.1-4.5c0-1.7,0.4-3.2,1.1-4.5c0.7-1.3,1.7-2.2,2.9-2.9C123.4,320.3,124.8,320,126.4,320 M126.4,319.7
				c-1.6,0-3.1,0.4-4.3,1c-1.3,0.7-2.3,1.7-3,3c-0.7,1.3-1.1,2.8-1.1,4.6c0,1.7,0.4,3.3,1.1,4.6c0.7,1.3,1.7,2.3,3,3
				c1.3,0.7,2.7,1.1,4.3,1.1c1.1,0,2.1-0.1,2.9-0.4c0.8-0.3,1.7-0.6,2.5-1.1c0.4-0.2,0.6-0.6,0.6-1.1c0-0.3-0.1-0.6-0.3-0.8
				c-0.2-0.2-0.5-0.3-0.9-0.3c-0.2,0-0.4,0-0.5,0.1c-0.7,0.4-1.3,0.6-2,0.8c-0.6,0.2-1.4,0.3-2.2,0.3c-1.3,0-2.4-0.3-3.3-0.8
				c-0.9-0.5-1.6-1.3-2-2.2c-0.5-0.9-0.7-2-0.7-3.2c0-1.2,0.2-2.2,0.7-3.2c0.5-0.9,1.1-1.6,2-2.2c0.9-0.5,2-0.8,3.3-0.8
				c0.8,0,1.6,0.1,2.2,0.3c0.6,0.2,1.3,0.5,2,0.8c0.2,0.1,0.3,0.1,0.5,0.1c0.4,0,0.6-0.1,0.9-0.3c0.2-0.2,0.3-0.5,0.3-0.8
				c0-0.5-0.2-0.9-0.6-1.1c-0.8-0.5-1.7-0.8-2.5-1.1C128.4,319.8,127.5,319.7,126.4,319.7L126.4,319.7z"/>
		</g>
		<g>
			<path class="st2" d="M137.1,336.7c-0.3,0-0.6-0.1-0.8-0.3c-0.2-0.2-0.3-0.5-0.3-0.8v-14.2c0-0.3,0.1-0.6,0.3-0.8
				c0.2-0.2,0.5-0.4,0.8-0.4h9.4c0.3,0,0.6,0.1,0.8,0.3c0.2,0.2,0.3,0.5,0.3,0.8c0,0.3-0.1,0.6-0.3,0.8c-0.2,0.2-0.5,0.3-0.8,0.3
				h-8.2v4.9h7.3c0.3,0,0.6,0.1,0.8,0.3c0.2,0.2,0.3,0.5,0.3,0.8c0,0.3-0.1,0.6-0.3,0.8c-0.2,0.2-0.5,0.3-0.8,0.3h-7.3v5h8.2
				c0.3,0,0.6,0.1,0.8,0.3c0.2,0.2,0.3,0.5,0.3,0.8c0,0.3-0.1,0.6-0.3,0.8c-0.2,0.2-0.5,0.3-0.8,0.3H137.1z"/>
			<path class="st2" d="M146.5,320.2c0.3,0,0.5,0.1,0.7,0.3c0.2,0.2,0.3,0.4,0.3,0.7c0,0.3-0.1,0.5-0.3,0.7
				c-0.2,0.2-0.4,0.3-0.7,0.3h-8.3v5.2h7.5c0.3,0,0.5,0.1,0.7,0.3c0.2,0.2,0.3,0.4,0.3,0.7c0,0.3-0.1,0.5-0.3,0.7
				c-0.2,0.2-0.4,0.3-0.7,0.3h-7.5v5.2h8.3c0.3,0,0.5,0.1,0.7,0.3c0.2,0.2,0.3,0.4,0.3,0.7c0,0.3-0.1,0.5-0.3,0.7
				c-0.2,0.2-0.4,0.3-0.7,0.3h-9.4c-0.3,0-0.5-0.1-0.8-0.3c-0.2-0.2-0.3-0.5-0.3-0.8v-14.2c0-0.3,0.1-0.6,0.3-0.8
				c0.2-0.2,0.5-0.3,0.8-0.3H146.5 M146.5,320h-9.4c-0.4,0-0.7,0.1-0.9,0.4c-0.2,0.3-0.4,0.6-0.4,0.9v14.2c0,0.4,0.1,0.7,0.4,0.9
				c0.2,0.3,0.6,0.4,0.9,0.4h9.4c0.3,0,0.6-0.1,0.9-0.3c0.2-0.2,0.4-0.5,0.4-0.9c0-0.3-0.1-0.6-0.4-0.9c-0.2-0.2-0.5-0.4-0.9-0.4
				h-8.1v-4.7h7.2c0.3,0,0.6-0.1,0.9-0.3c0.2-0.2,0.4-0.5,0.4-0.9c0-0.3-0.1-0.6-0.4-0.9c-0.2-0.2-0.5-0.4-0.9-0.4h-7.2v-4.7h8.1
				c0.3,0,0.6-0.1,0.9-0.4c0.2-0.2,0.4-0.5,0.4-0.9c0-0.3-0.1-0.6-0.4-0.9C147.1,320.1,146.8,320,146.5,320L146.5,320z"/>
		</g>
		<g>
			<path class="st3" d="M157.2,336.8c-0.7,0-1.2-0.4-1.6-1.2l-5.8-14c-0.1-0.1-0.1-0.3-0.1-0.4c0-0.4,0.1-0.7,0.3-0.9
				c0.2-0.2,0.5-0.3,0.9-0.3c0.2,0,0.5,0.1,0.7,0.2c0.2,0.1,0.3,0.3,0.5,0.6l5.4,13.4l5.4-13.4c0.1-0.2,0.3-0.4,0.5-0.6
				c0.2-0.1,0.4-0.2,0.7-0.2c0.4,0,0.7,0.1,0.9,0.3c0.2,0.2,0.3,0.5,0.3,0.9c0,0.2,0,0.3-0.1,0.4l-5.8,14c-0.4,0.8-0.9,1.2-1.6,1.2
				H157.2z"/>
			<path class="st3" d="M163.9,320.1c0.3,0,0.6,0.1,0.8,0.3c0.2,0.2,0.3,0.5,0.3,0.8c0,0.1,0,0.3-0.1,0.4l-5.8,14
				c-0.3,0.7-0.8,1.1-1.5,1.1h-0.5c-0.6,0-1.1-0.4-1.5-1.1l-5.8-14c0-0.1-0.1-0.3-0.1-0.4c0-0.3,0.1-0.6,0.3-0.8
				c0.2-0.2,0.4-0.3,0.8-0.3c0.2,0,0.4,0.1,0.6,0.2c0.2,0.1,0.3,0.3,0.4,0.5l5.5,13.7l5.5-13.7c0.1-0.2,0.2-0.4,0.4-0.5
				C163.5,320.2,163.7,320.1,163.9,320.1 M163.9,319.8c-0.3,0-0.5,0.1-0.7,0.2c-0.2,0.2-0.4,0.4-0.5,0.6l-5.3,13.2l-5.3-13.1
				c-0.1-0.3-0.3-0.5-0.5-0.6c-0.2-0.2-0.5-0.2-0.7-0.2c-0.4,0-0.7,0.1-1,0.4c-0.2,0.2-0.4,0.6-0.4,1c0,0.2,0,0.3,0.1,0.5l5.8,14
				c0.4,0.8,0.9,1.2,1.7,1.2h0.5c0.7,0,1.3-0.4,1.7-1.2l5.8-14c0.1-0.2,0.1-0.3,0.1-0.5c0-0.4-0.1-0.7-0.4-1
				C164.7,320,164.3,319.8,163.9,319.8L163.9,319.8z"/>
		</g>
		<g>
			<path class="st3" d="M169.5,336.8c-0.3,0-0.6-0.1-0.8-0.3c-0.2-0.2-0.3-0.5-0.3-0.8v-14.3c0-0.3,0.1-0.6,0.3-0.8
				c0.2-0.2,0.5-0.4,0.8-0.4h5.3c1.5,0,2.7,0.3,3.7,0.8c1,0.5,1.7,1.2,2.1,2c0.4,0.8,0.6,1.7,0.6,2.6s-0.2,1.8-0.6,2.6
				c-0.4,0.8-1.1,1.5-2.1,2c-0.9,0.5-2.2,0.8-3.7,0.8h-4.1v4.9c0,0.3-0.1,0.6-0.4,0.8C170.1,336.7,169.8,336.8,169.5,336.8z
				 M174.6,328.5c1.6,0,2.7-0.3,3.3-0.9c0.6-0.6,0.9-1.3,0.9-2.2c0-0.9-0.3-1.6-0.9-2.2c-0.6-0.6-1.7-0.9-3.3-0.9h-3.9v6.1H174.6z"
				/>
			<path class="st3" d="M174.8,320.2c1.5,0,2.7,0.2,3.6,0.7c0.9,0.5,1.6,1.1,2,1.9c0.4,0.8,0.6,1.6,0.6,2.5s-0.2,1.7-0.6,2.5
				c-0.4,0.8-1.1,1.4-2,1.9c-0.9,0.5-2.1,0.7-3.6,0.7h-4.3v5c0,0.3-0.1,0.5-0.3,0.7c-0.2,0.2-0.5,0.3-0.8,0.3
				c-0.3,0-0.5-0.1-0.8-0.3c-0.2-0.2-0.3-0.5-0.3-0.7v-14.3c0-0.3,0.1-0.6,0.3-0.8c0.2-0.2,0.5-0.3,0.8-0.3H174.8 M170.5,328.6h4.1
				c1.6,0,2.7-0.3,3.4-0.9c0.6-0.6,1-1.4,1-2.3s-0.3-1.7-1-2.3c-0.6-0.6-1.8-0.9-3.4-0.9h-4.1V328.6 M174.8,320h-5.3
				c-0.4,0-0.7,0.1-0.9,0.4c-0.2,0.3-0.4,0.6-0.4,0.9v14.3c0,0.4,0.1,0.7,0.4,0.9c0.2,0.3,0.6,0.4,0.9,0.4c0.4,0,0.7-0.1,0.9-0.4
				c0.3-0.2,0.4-0.6,0.4-0.9v-4.8h4c1.5,0,2.8-0.3,3.7-0.8c1-0.5,1.7-1.2,2.1-2c0.4-0.8,0.6-1.7,0.6-2.6c0-0.9-0.2-1.8-0.6-2.6
				c-0.4-0.8-1.1-1.5-2.1-2C177.6,320.2,176.3,320,174.8,320L174.8,320z M170.8,322.5h3.8c1.5,0,2.6,0.3,3.2,0.8
				c0.6,0.6,0.9,1.2,0.9,2.1c0,0.8-0.3,1.5-0.9,2.1c-0.6,0.6-1.7,0.8-3.2,0.8h-3.8V322.5L170.8,322.5z"/>
		</g>
		<g>
			<path class="st3" d="M197.2,336.8c-0.3,0-0.5-0.1-0.8-0.2c-0.2-0.1-0.4-0.3-0.6-0.5l-8.8-12.8v12.3c0,0.3-0.1,0.6-0.4,0.8
				c-0.2,0.2-0.5,0.3-0.8,0.3c-0.3,0-0.6-0.1-0.8-0.3c-0.2-0.2-0.3-0.5-0.3-0.8v-14c0-0.5,0.2-0.8,0.5-1.2c0.3-0.3,0.7-0.5,1.2-0.5
				h0.3c0.5,0,1,0.3,1.4,0.8l8.8,12.7v-12.3c0-0.3,0.1-0.6,0.3-0.8c0.2-0.2,0.5-0.4,0.8-0.4c0.3,0,0.6,0.1,0.9,0.4
				c0.2,0.2,0.4,0.5,0.4,0.8v14c0,0.5-0.2,0.8-0.5,1.2c-0.3,0.3-0.7,0.5-1.2,0.5H197.2z"/>
			<path class="st3" d="M197.9,320.1c0.3,0,0.6,0.1,0.8,0.3c0.2,0.2,0.3,0.5,0.3,0.8v14c0,0.4-0.2,0.8-0.5,1.1
				c-0.3,0.3-0.7,0.4-1.1,0.4h-0.3c-0.3,0-0.5-0.1-0.7-0.2c-0.2-0.1-0.4-0.3-0.5-0.5l-9.1-13.1v12.7c0,0.3-0.1,0.5-0.3,0.7
				c-0.2,0.2-0.5,0.3-0.8,0.3c-0.3,0-0.5-0.1-0.8-0.3c-0.2-0.2-0.3-0.5-0.3-0.7v-14c0-0.4,0.1-0.8,0.4-1.1c0.3-0.3,0.7-0.5,1.1-0.5
				h0.3c0.5,0,0.9,0.2,1.3,0.7l9,13v-12.7c0-0.3,0.1-0.6,0.3-0.8C197.4,320.2,197.6,320.1,197.9,320.1 M197.9,319.8
				c-0.4,0-0.7,0.1-0.9,0.4c-0.2,0.3-0.4,0.6-0.4,0.9V333l-8.6-12.4c-0.4-0.5-0.9-0.8-1.5-0.8h-0.3c-0.5,0-0.9,0.2-1.3,0.5
				c-0.3,0.4-0.5,0.8-0.5,1.3v14c0,0.4,0.1,0.7,0.4,0.9c0.2,0.3,0.6,0.4,0.9,0.4c0.4,0,0.7-0.1,0.9-0.4c0.3-0.2,0.4-0.6,0.4-0.9
				v-11.9l8.6,12.4c0.2,0.2,0.4,0.4,0.6,0.5c0.3,0.1,0.5,0.2,0.8,0.2h0.3c0.5,0,0.9-0.2,1.3-0.5c0.4-0.3,0.5-0.8,0.5-1.3v-14
				c0-0.4-0.1-0.7-0.4-0.9C198.6,320,198.3,319.8,197.9,319.8L197.9,319.8z"/>
		</g>
	</g>
	<g>
		<path class="st9" d="M1.6,330.2c0,0,2.2-3.1,5.2-4.5c0,0,0.7,3.2,2,6c1.2,2.6,2.8,4.6,3.5,5c0,0,0,0.1,0,0.1
			c-2,2.1-6.6,2.6-6.5,2.5c2.1-1,3.7-2.4,3.7-2.4c-4.2-5.2-4.3-8.8-4.3-8.8C2.9,328.8,1.6,330.2,1.6,330.2z"/>
		<path class="st9" d="M9.8,325.1c0,0-0.1,1.5,1.5,5.6c1.1,2.8,3.2,4.2,3.3,4.1c2.1-1.8,3.4-4.2,2.9-6.6
			C16.4,323,11.6,323.9,9.8,325.1z"/>
		<path class="st9" d="M13.3,339.4l1.4,0.8l-3.6,2.2c0,0,3.2-1.2,4.9-2.1c8.8-4.5,10.4-14.3,10-19c0,0,0-0.3,0-0.3s0,0-0.1,0
			c-3.3,0.2-9-1.8-10.4-4.4c0,0-0.2-0.1-0.2-0.1s-1.2,1.6-3.5,2.9c-2,1.1-5.4,0.3-5.4,0.3l2.5,0.9L4.7,321l-0.1,2.1
			c-1.9,1.8-3,3.8-3,3.8s0,0,0.1-0.1c4.1-3.8,7.9-5.4,8.6-5.7c0.7-0.2,2.9-1.1,5.5-0.7c2.3,0.3,3.4,2,4.1,2.8
			c1.3,1.6,3.5,9.2-2.1,13.5C14.6,339.1,13.3,339.4,13.3,339.4z"/>
	</g>
	<g>
		<path class="st10" d="M386.6-125.1l-4.9-2.8v-24.2l4.9-2.8h12.3l4.9,2.8v24.2l-4.9,2.8l4.7,8.2H399l-4.6-8.2H386.6z M385.9-128.9
			h13.7v-22.3h-13.7V-128.9z"/>
		<path class="st10" d="M412-146.3h4.1v17.6h9.7v-17.6h4.1v21.2h-3.1l-1-1.7l-3,1.7h-5.9l-4.9-2.8V-146.3z"/>
		<path class="st10" d="M436.8-127.9v-6.8l4.9-2.8h7.6v-5.1h-10.4v-3.7h9.6l4.9,2.8v18.4h-1.1l-3-1.7l-3,1.7h-4.7L436.8-127.9z
			 M440.8-128.8h8.4v-5.2h-8.4V-128.8z"/>
		<path class="st10" d="M479-125.3h-4.1v-17.6h-9.7v17.6h-4.1v-21.2h3.1l1,1.7l3-1.7h5.9l4.9,2.8V-125.3z"/>
		<path class="st10" d="M485.1-146.3h3.9v-3.5l4.1-2.4v5.9h5v3.7h-5v13.7h5v3.7h-4.2l-4.9-2.8v-14.5h-3.9V-146.3z"/>
		<path class="st10" d="M504.8-156h4.5v4.5h-4.5V-156z M509-125.3H505v-21h4.1V-125.3z"/>
		<path class="st10" d="M520.9-129h11.7v3.7h-10.9l-4.9-2.8v-15.4l4.9-2.8h10.9v3.7h-11.7V-129z"/>
		<path class="st10" d="M552.5-125.1h-8.1l-4.9-2.8v-15.8l4.9-2.8h8.1l4.9,2.8v15.8L552.5-125.1z M543.6-128.8h9.7v-14.1h-9.7
			V-128.8z"/>
	</g>
	<g>
		<path class="st10" d="M385.5,42.5h13V46h-17.1V15.9h4.1V42.5z"/>
		<path class="st10" d="M419.1,46h-1.7c-0.4,0-0.7-0.1-0.9-0.2c-0.2-0.1-0.4-0.3-0.4-0.7l-0.4-2c-0.6,0.5-1.1,1-1.6,1.4
			c-0.5,0.4-1.1,0.7-1.7,1s-1.2,0.5-1.9,0.6c-0.7,0.1-1.4,0.2-2.2,0.2c-0.8,0-1.6-0.1-2.3-0.3c-0.7-0.2-1.3-0.6-1.9-1
			c-0.5-0.5-1-1.1-1.3-1.8c-0.3-0.7-0.5-1.5-0.5-2.5c0-0.8,0.2-1.7,0.7-2.4s1.2-1.5,2.2-2.1s2.4-1.1,4-1.5c1.7-0.4,3.7-0.6,6.1-0.6
			v-1.7c0-1.7-0.4-2.9-1.1-3.8s-1.8-1.3-3.1-1.3c-0.9,0-1.7,0.1-2.3,0.3c-0.6,0.2-1.2,0.5-1.6,0.8c-0.5,0.3-0.8,0.5-1.2,0.8
			s-0.7,0.3-1,0.3c-0.3,0-0.5-0.1-0.7-0.2c-0.2-0.1-0.3-0.3-0.5-0.5l-0.7-1.2c1.2-1.1,2.4-2,3.8-2.5c1.4-0.6,2.9-0.8,4.5-0.8
			c1.2,0,2.2,0.2,3.2,0.6c0.9,0.4,1.7,0.9,2.3,1.6s1.1,1.5,1.4,2.5s0.5,2.1,0.5,3.3V46z M409.4,43.7c0.7,0,1.3-0.1,1.8-0.2
			c0.5-0.1,1.1-0.3,1.5-0.6c0.5-0.2,0.9-0.5,1.4-0.9c0.4-0.3,0.9-0.7,1.3-1.2v-4.4c-1.7,0-3.2,0.1-4.4,0.3c-1.2,0.2-2.2,0.5-2.9,0.9
			c-0.8,0.4-1.3,0.8-1.6,1.2c-0.3,0.5-0.5,1-0.5,1.6c0,0.6,0.1,1,0.3,1.5s0.4,0.7,0.7,1c0.3,0.3,0.7,0.5,1.1,0.6
			S408.9,43.7,409.4,43.7z"/>
		<path class="st10" d="M432.3,46.3c-1.7,0-3-0.5-3.9-1.4c-0.9-0.9-1.4-2.3-1.4-4.1v-13h-2.6c-0.2,0-0.4-0.1-0.6-0.2
			c-0.2-0.1-0.2-0.3-0.2-0.6v-1.5l3.5-0.4l0.9-6.6c0-0.2,0.1-0.4,0.3-0.5c0.2-0.1,0.3-0.2,0.6-0.2h1.9v7.3h6.1v2.7h-6.1v12.8
			c0,0.9,0.2,1.6,0.7,2s1,0.7,1.7,0.7c0.4,0,0.7-0.1,1-0.2s0.5-0.2,0.7-0.3s0.4-0.2,0.5-0.3c0.1-0.1,0.3-0.2,0.4-0.2
			c0.2,0,0.4,0.1,0.5,0.4l1.1,1.8c-0.6,0.6-1.4,1.1-2.3,1.4C434.2,46.1,433.3,46.3,432.3,46.3z"/>
		<path class="st10" d="M451.2,24.3c1.6,0,3,0.3,4.2,0.8c1.3,0.5,2.3,1.3,3.2,2.2s1.5,2.1,2,3.5c0.5,1.4,0.7,2.9,0.7,4.5
			c0,1.7-0.2,3.2-0.7,4.5c-0.5,1.3-1.1,2.5-2,3.4c-0.9,1-1.9,1.7-3.2,2.2c-1.3,0.5-2.7,0.8-4.2,0.8c-1.6,0-3-0.3-4.2-0.8
			c-1.3-0.5-2.3-1.2-3.2-2.2c-0.9-1-1.6-2.1-2-3.4c-0.5-1.3-0.7-2.9-0.7-4.5c0-1.7,0.2-3.2,0.7-4.5c0.5-1.4,1.2-2.5,2-3.5
			s1.9-1.7,3.2-2.2C448.2,24.6,449.6,24.3,451.2,24.3z M451.2,43.3c2.1,0,3.7-0.7,4.7-2.1c1-1.4,1.6-3.4,1.6-5.9
			c0-2.5-0.5-4.5-1.6-5.9s-2.6-2.1-4.7-2.1c-1.1,0-2,0.2-2.8,0.5c-0.8,0.4-1.4,0.9-2,1.6s-0.9,1.5-1.2,2.5c-0.3,1-0.4,2.1-0.4,3.4
			c0,1.3,0.1,2.4,0.4,3.4c0.3,1,0.7,1.8,1.2,2.5s1.2,1.2,2,1.6C449.2,43.1,450.1,43.3,451.2,43.3z"/>
	</g>
	<g>
		<path class="st10" d="M382.2,261c0-0.1,0-0.3,0.1-0.6l10-27.6c0.2-0.4,0.7-0.7,1.7-0.7h1.2c1,0,1.6,0.2,1.7,0.7l10,27.6
			c0.1,0.2,0.1,0.4,0.1,0.5c0,0.5-0.6,0.7-1.8,0.7h-0.3c-1,0-1.5-0.2-1.7-0.7l-2.5-6.9h-12.3l-2.4,6.9c-0.1,0.4-0.7,0.7-1.7,0.7H384
			C382.8,261.7,382.2,261.4,382.2,261z M399.5,250.9l-4.4-12.5c-0.1-0.4-0.3-1.3-0.5-2.4h-0.1c-0.2,1.1-0.4,1.9-0.6,2.4l-4.4,12.5
			H399.5z"/>
		<path class="st10" d="M413.3,261.5c-1-0.3-1.8-0.7-2.4-1.1c-0.6-0.4-0.9-0.8-0.9-1.1c0-0.3,0.2-0.7,0.5-1.3
			c0.3-0.6,0.7-0.8,0.9-0.8c0.1,0,0.3,0.2,0.8,0.5c0.5,0.3,1.1,0.6,1.8,0.8c0.7,0.3,1.5,0.4,2.4,0.4c2.7,0,4.1-1.1,4.1-3.4
			c0-1-0.3-1.7-0.9-2.3c-0.6-0.6-1.7-1.1-3.3-1.5c-2.2-0.6-3.7-1.4-4.6-2.4c-0.8-1-1.3-2.3-1.3-3.9c0-1.2,0.3-2.2,0.9-3.2
			c0.6-0.9,1.4-1.6,2.5-2.2c1-0.5,2.2-0.8,3.6-0.8c1.4,0,2.7,0.2,3.8,0.5s1.7,0.8,1.7,1.3c0,0.4-0.2,0.8-0.5,1.4
			c-0.3,0.6-0.6,0.9-0.9,0.9c-0.1,0-0.5-0.2-1.1-0.6c-0.7-0.3-1.6-0.5-2.7-0.5c-1.1,0-2,0.2-2.7,0.7c-0.7,0.5-1.1,1.1-1.1,1.9
			c0,1,0.3,1.7,0.8,2.3c0.5,0.6,1.3,1,2.5,1.4c1.8,0.6,3.2,1.1,4.1,1.7c0.9,0.5,1.6,1.2,2,2c0.4,0.8,0.6,1.8,0.6,3.1
			c0,1.2-0.3,2.3-1,3.3c-0.7,1-1.6,1.8-2.7,2.4c-1.1,0.6-2.4,0.9-3.8,0.9C415.5,262,414.4,261.8,413.3,261.5z"/>
		<path class="st10" d="M431,260.2c-1.3-1.1-2-2.6-2-4.7c0-2.2,0.7-3.9,2-5c1.3-1.1,3-1.8,4.9-2.1c1.9-0.3,4.3-0.5,7.1-0.5v-2
			c0-1-0.4-1.9-1.1-2.5c-0.7-0.7-1.9-1-3.5-1c-1.2,0-2.3,0.1-3.2,0.4c-0.9,0.3-1.7,0.6-2.3,0.9c-0.6,0.3-1,0.4-1,0.4
			c-0.3,0-0.6-0.3-0.9-0.8c-0.4-0.6-0.5-1-0.5-1.3c0-0.4,0.4-0.8,1.1-1.2s1.7-0.8,3-1.1c1.2-0.3,2.5-0.4,3.8-0.4
			c2.6,0,4.6,0.6,6.1,1.7s2.2,2.8,2.2,4.9v9.4c0,1.8,0.1,3.2,0.3,4s0.3,1.2,0.3,1.3c0,0.3-0.3,0.6-0.8,0.7c-0.5,0.2-1,0.2-1.5,0.2
			c-0.4,0-0.7-0.2-0.9-0.7c-0.2-0.4-0.3-0.9-0.4-1.4c-0.1-0.5-0.2-0.8-0.2-0.9c-1.9,2.1-4.3,3.2-7.1,3.2
			C434,261.8,432.3,261.3,431,260.2z M439.9,258c1-0.5,2-1.2,3-2.1v-5c-2.1,0-3.8,0.1-5.1,0.3c-1.3,0.1-2.5,0.5-3.5,1.2
			c-1,0.6-1.5,1.6-1.5,3c0,1.1,0.3,2,0.9,2.6c0.6,0.6,1.5,0.9,2.7,0.9C437.7,258.8,438.9,258.5,439.9,258z"/>
		<path class="st10" d="M454.5,269.4V246c0-1.8-0.1-3.2-0.3-4c-0.2-0.8-0.3-1.2-0.3-1.3c0-0.3,0.3-0.6,0.8-0.7
			c0.5-0.2,1-0.2,1.5-0.2c0.4,0,0.7,0.2,0.9,0.6c0.2,0.4,0.3,0.8,0.4,1.3c0.1,0.4,0.2,0.7,0.2,0.9c2-2.1,4.2-3.1,6.7-3.1
			c1.7,0,3.2,0.5,4.4,1.4c1.2,1,2.1,2.3,2.8,4c0.6,1.7,1,3.6,1,5.8c0,2.4-0.4,4.4-1.1,6.1c-0.7,1.7-1.7,3-3,3.8s-2.8,1.3-4.5,1.3
			c-1.2,0-2.3-0.2-3.3-0.5c-0.9-0.4-1.9-0.9-2.8-1.6v9.7c0,0.6-0.6,0.9-1.7,0.9h-0.2C455,270.3,454.5,270,454.5,269.4z M467.4,256.7
			c1-1.3,1.4-3.3,1.4-5.8c0-2.7-0.4-4.8-1.3-6.3c-0.9-1.5-2.2-2.2-3.8-2.2c-1,0-1.9,0.3-2.9,0.8s-1.9,1.2-2.8,2.1v11.5
			c1.5,1.3,3.2,1.9,5.2,1.9C465.1,258.7,466.5,258.1,467.4,256.7z"/>
	</g>
	
		<image style="overflow:visible;" width="400" height="392" xlink:href="../../../../../Portfolio 2018/img/brand-demos/logo-shred4less.png"  transform="matrix(0.48 0 0 0.48 762 433)">
	</image>
	<g>
		<path class="st10" d="M775.2,95.5l0.4-1.6c0.4,0.2,0.9,0.4,1.5,0.6c0.6,0.2,1.1,0.3,1.6,0.3c0.8,0,1.4-0.1,1.8-0.4
			c0.4-0.3,0.6-0.7,0.6-1.1c0-0.3-0.1-0.6-0.3-0.9c-0.2-0.3-0.5-0.5-0.9-0.7c-0.4-0.2-0.9-0.5-1.5-0.8c-1.1-0.6-2-1.1-2.5-1.7
			c-0.6-0.6-0.9-1.3-0.9-2.1c0-0.6,0.2-1.2,0.5-1.6s0.8-0.9,1.4-1.2c0.6-0.3,1.3-0.4,2.2-0.4c0.6,0,1.1,0.1,1.7,0.2s1.1,0.4,1.6,0.6
			l-0.7,1.6c-0.5-0.2-0.9-0.4-1.3-0.5c-0.4-0.1-0.8-0.2-1.3-0.2c-0.6,0-1.1,0.1-1.5,0.4c-0.4,0.2-0.6,0.6-0.6,1.1
			c0,0.3,0.1,0.6,0.3,0.9s0.5,0.5,0.8,0.7s0.9,0.5,1.6,0.9c0.8,0.4,1.4,0.8,1.8,1.1c0.5,0.3,0.8,0.7,1.1,1.2s0.4,1,0.4,1.6
			c0,0.6-0.2,1.2-0.5,1.7c-0.3,0.5-0.9,0.9-1.5,1.2c-0.7,0.3-1.5,0.4-2.4,0.4c-0.5,0-1.2-0.1-1.9-0.3S775.5,95.7,775.2,95.5z"/>
		<path class="st10" d="M787.2,96.2h-2v-8.7h1.3l0.4,1c0.5-0.4,1.1-0.7,1.7-1c0.6-0.2,1.2-0.4,1.7-0.4c1,0,1.8,0.3,2.2,0.9
			c0.5,0.6,0.7,1.4,0.7,2.5v5.6h-2v-5.5c0-1.2-0.5-1.8-1.3-1.8c-0.7,0-1.6,0.4-2.6,1.2V96.2z"/>
		<path class="st10" d="M803.5,94.2c-0.4,0.7-0.9,1.2-1.6,1.6c-0.7,0.4-1.5,0.6-2.4,0.6c-0.9,0-1.7-0.2-2.4-0.6
			c-0.7-0.4-1.2-0.9-1.6-1.6c-0.4-0.7-0.5-1.5-0.5-2.4c0-0.9,0.2-1.7,0.5-2.4c0.4-0.7,0.9-1.2,1.6-1.6s1.5-0.6,2.4-0.6
			c0.9,0,1.7,0.2,2.4,0.6c0.7,0.4,1.2,0.9,1.6,1.6c0.4,0.7,0.5,1.5,0.5,2.4S803.9,93.5,803.5,94.2z M801.3,93.9
			c0.5-0.5,0.7-1.2,0.7-2c0-0.9-0.2-1.5-0.7-2.1c-0.4-0.5-1-0.8-1.8-0.8c-0.7,0-1.3,0.3-1.8,0.8c-0.4,0.5-0.7,1.2-0.7,2.1
			c0,0.9,0.2,1.5,0.7,2.1c0.4,0.5,1,0.8,1.8,0.8C800.2,94.7,800.8,94.4,801.3,93.9z"/>
		<path class="st10" d="M813,96.2l-1.8-5.8l-1.7,5.8h-1.8l-2.6-8.4l2-0.6l1.6,5.9l1.5-5.6h2.2l1.6,5.6l1.5-5.6h2.1l-2.8,8.7H813z"/>
	</g>
	<g>
		<path class="st11" d="M910.3,95.5l0.4-1.6c0.4,0.2,0.9,0.4,1.5,0.6c0.6,0.2,1.1,0.3,1.6,0.3c0.8,0,1.4-0.1,1.8-0.4
			c0.4-0.3,0.6-0.7,0.6-1.1c0-0.3-0.1-0.6-0.3-0.9c-0.2-0.3-0.5-0.5-0.9-0.7c-0.4-0.2-0.9-0.5-1.5-0.8c-1.1-0.6-2-1.1-2.5-1.7
			c-0.6-0.6-0.9-1.3-0.9-2.1c0-0.6,0.2-1.2,0.5-1.6s0.8-0.9,1.4-1.2c0.6-0.3,1.3-0.4,2.2-0.4c0.6,0,1.1,0.1,1.7,0.2s1.1,0.4,1.6,0.6
			l-0.7,1.6c-0.5-0.2-0.9-0.4-1.3-0.5c-0.4-0.1-0.8-0.2-1.3-0.2c-0.6,0-1.1,0.1-1.5,0.4c-0.4,0.2-0.6,0.6-0.6,1.1
			c0,0.3,0.1,0.6,0.3,0.9s0.5,0.5,0.8,0.7s0.9,0.5,1.6,0.9c0.8,0.4,1.4,0.8,1.8,1.1c0.5,0.3,0.8,0.7,1.1,1.2s0.4,1,0.4,1.6
			c0,0.6-0.2,1.2-0.5,1.7c-0.3,0.5-0.9,0.9-1.5,1.2c-0.7,0.3-1.5,0.4-2.4,0.4c-0.5,0-1.2-0.1-1.9-0.3S910.6,95.7,910.3,95.5z"/>
		<path class="st11" d="M926.1,87.5h2v8.7h-1.4l-0.4-1c-0.5,0.4-1.1,0.7-1.7,1c-0.6,0.2-1.2,0.4-1.7,0.4c-1.9,0-2.9-1.1-2.9-3.4
			v-5.6h2v5.5c0,1.2,0.5,1.8,1.3,1.8c0.7,0,1.6-0.4,2.6-1.2V87.5z"/>
		<path class="st11" d="M932.7,96.2h-2v-8.7h1.1l0.7,1.4c0.4-0.4,0.9-0.7,1.5-1c0.6-0.3,1-0.5,1.5-0.5l0.4,1.6
			c-0.4,0-0.9,0.2-1.5,0.5c-0.6,0.3-1.1,0.7-1.6,1.1V96.2z"/>
		<path class="st11" d="M936.6,89.1v-1.5h1.3v-0.9c0-0.9,0.3-1.7,0.8-2.2c0.5-0.5,1.3-0.8,2.3-0.8c0.3,0,0.6,0,0.9,0.1
			c0.3,0.1,0.6,0.2,0.7,0.3l-0.6,1.5c-0.4-0.1-0.7-0.2-0.9-0.2c-0.4,0-0.7,0.1-0.9,0.4c-0.2,0.3-0.3,0.7-0.3,1.1v0.7h1.6l0.6,1.5
			H940v7.1h-2v-7.1H936.6z"/>
	</g>
	<g>
		<path class="st5" d="M1276.3,434c-33.4,0-60.5,27.1-60.5,60.5c0,33.4,27.1,60.5,60.5,60.5c33.4,0,60.5-27.1,60.5-60.5
			C1336.8,461.1,1309.7,434,1276.3,434z M1330.9,473.2c1.8,4.5,3,9.2,3.5,14l-1.2,0.1c-0.6-4.7-1.8-9.3-3.5-13.7L1330.9,473.2z
			 M1319.5,454.9c3.3,3.6,6.1,7.5,8.4,11.7l-1.1,0.6c-2.2-4.1-5-8-8.2-11.5L1319.5,454.9z M1302.3,441.9c4.3,2.1,8.4,4.8,12,8
			l-0.8,0.9c-3.6-3.1-7.5-5.7-11.8-7.8L1302.3,441.9z M1281.6,436.1c4.8,0.4,9.5,1.5,14.1,3l-0.4,1.2c-4.4-1.6-9.1-2.6-13.8-3
			L1281.6,436.1z M1274.3,435.9l0,1.2c-4.7,0.2-9.4,0.9-13.9,2.2l-0.3-1.2C1264.7,436.8,1269.5,436,1274.3,435.9z M1253.3,440.5
			l0.5,1.1c-4.3,1.8-8.4,4.2-12.2,7.1l-0.7-1C1244.7,444.8,1248.9,442.4,1253.3,440.5z M1235.4,452.4l0.8,0.9c-3.4,3.3-6.4,7-8.8,11
			l-1-0.6C1228.9,459.6,1231.9,455.8,1235.4,452.4z M1222.9,470l1.1,0.5c-2,4.3-3.4,8.8-4.3,13.5l-1.2-0.2
			C1219.4,479,1220.9,474.4,1222.9,470z M1218.6,505.3c-0.7-3.6-1-7.2-1-10.8c0-1.2,0-2.4,0.1-3.5l1.2,0.1c-0.1,1.2-0.1,2.3-0.1,3.5
			c0,3.6,0.3,7.1,1,10.6L1218.6,505.3z M1226.4,525.4c-2.5-4.1-4.6-8.5-6-13.1l1.2-0.4c1.4,4.5,3.4,8.8,5.9,12.8L1226.4,525.4z
			 M1240.9,541.3c-3.8-2.9-7.3-6.3-10.4-10l1-0.8c3,3.7,6.4,7,10.1,9.8L1240.9,541.3z M1260.2,550.9c-4.6-1.3-9.1-3.2-13.3-5.6
			l0.6-1.1c4.1,2.4,8.5,4.2,13,5.5L1260.2,550.9z M1264.5,535c-4.4,0-9.6,0.3-15.7,0.9v-1.3c3.4-1,5.9-3.2,7.4-6.3
			c1.5-3.1,2.2-8.3,2.2-15.4V476c0-6.8-0.9-11.5-2.7-14.2c-1.8-2.6-4.1-4.3-6.9-4.9v-1.4c5.3,0.4,10.5,0.7,15.7,0.9V535L1264.5,535
			L1264.5,535z M1276.3,553.2c-3,0-6-0.2-9-0.7l0.2-1.2c4.6,0.7,9.4,0.9,14.1,0.4l0.1,1.2C1279.9,553.1,1278.1,553.2,1276.3,553.2z
			 M1288.8,551.8l-0.3-1.2c4.6-1,9.1-2.6,13.3-4.7l0.5,1.1C1298.1,549.2,1293.5,550.8,1288.8,551.8z M1293.9,498.2h-17.7v17.3
			c0,11.2,3.4,17.6,10.3,19v1.3c-7.1-0.6-11.5-0.9-13.4-0.9h-3v-78.6h18.5c5.4,0,12.4-0.3,21.2-0.9c0,1.3-0.1,3-0.1,5.1
			c0,1.2,0.1,3.4,0.2,6.7c0.2,3.6,0.2,5.5,0.2,5.7v1.9h-1.6c-1.4-9-5.6-13.4-12.7-13.4h-14.5c-1.6,0-3.1,0.2-4.4,0.7
			c-0.7,3.9-1,9.2-1,15.7v15.4h13.1c5.6,0,9.7-0.7,12.3-2.1c2.5-1.3,4.2-3.8,4.9-7.2h1.6c-0.3,5.4-0.5,9.1-0.5,11.1
			c0,1.2,0.1,3.4,0.2,6.3c0.2,2.8,0.3,4.9,0.3,6.1v2.5h-1.6C1306.3,502.1,1302.1,498.2,1293.9,498.2z M1308.7,543.4l-0.7-1
			c3.9-2.6,7.5-5.7,10.7-9.2l0.9,0.8C1316.4,537.6,1312.7,540.7,1308.7,543.4z M1324.1,528.4l-1-0.7c2.7-3.9,5-8,6.7-12.4l1.1,0.4
			C1329.2,520.2,1326.9,524.5,1324.1,528.4z M1333.2,508.8l-1.2-0.3c1.1-4.6,1.7-9.3,1.7-14v-0.1h1.2v0.1
			C1334.9,499.3,1334.3,504.1,1333.2,508.8z"/>
	</g>
	<g>
		<path class="st5" d="M1212.8,599.3v-10.8c0-0.2,0.1-0.4,0.2-0.5c0.1-0.1,0.3-0.1,0.5-0.1h5.5c0.2,0,0.3,0.1,0.3,0.2
			c0.1,0.1,0.1,0.3,0.1,0.6v0.4c0,0.3,0,0.4-0.1,0.6c-0.1,0.1-0.2,0.2-0.3,0.2h-3.9v3h3.7c0.2,0,0.3,0.1,0.3,0.2
			c0.1,0.1,0.1,0.3,0.1,0.6v0.4c0,0.3,0,0.4-0.1,0.6c-0.1,0.1-0.2,0.2-0.3,0.2h-3.7v4.7c0,0.2-0.1,0.3-0.2,0.4
			c-0.1,0.1-0.4,0.1-0.7,0.1h-0.4C1213.1,599.8,1212.8,599.7,1212.8,599.3z"/>
		<path class="st5" d="M1227.3,598.4c-0.9-1-1.4-2.5-1.4-4.5c0-2,0.5-3.5,1.4-4.5c0.9-1,2.3-1.6,4-1.6c1.7,0,3.1,0.5,4,1.5
			c0.9,1,1.4,2.5,1.4,4.5c0,2-0.5,3.5-1.4,4.5c-0.9,1-2.3,1.6-4,1.6C1229.5,599.9,1228.2,599.4,1227.3,598.4z M1233.5,596.9
			c0.5-0.7,0.8-1.8,0.8-3.1c0-1.4-0.3-2.4-0.8-3.1c-0.5-0.7-1.3-1.1-2.3-1.1s-1.8,0.4-2.3,1.1c-0.5,0.7-0.8,1.7-0.8,3.1
			c0,1.4,0.3,2.4,0.8,3.1c0.5,0.7,1.3,1.1,2.3,1.1C1232.3,598,1233,597.7,1233.5,596.9z"/>
		<path class="st5" d="M1244.8,599.7c-0.6-0.2-1.1-0.4-1.4-0.6c-0.3-0.2-0.4-0.4-0.4-0.6c0-0.2,0.1-0.5,0.3-0.8s0.4-0.5,0.6-0.5
			c0.1,0,0.2,0.1,0.4,0.2c0.4,0.2,0.7,0.3,1,0.4s0.7,0.2,1.2,0.2c0.5,0,0.9-0.1,1.3-0.4c0.3-0.2,0.5-0.6,0.5-1.1
			c0-0.3-0.1-0.6-0.3-0.8s-0.4-0.4-0.7-0.5c-0.3-0.1-0.6-0.3-1.1-0.5l-0.6-0.3c-0.5-0.2-1-0.5-1.3-0.7c-0.4-0.3-0.6-0.6-0.9-1
			s-0.3-1-0.3-1.6c0-0.7,0.2-1.3,0.5-1.8c0.4-0.5,0.8-0.9,1.4-1.1c0.6-0.3,1.3-0.4,2-0.4c0.5,0,1,0.1,1.5,0.2
			c0.5,0.1,0.8,0.3,1.1,0.5c0.2,0.2,0.4,0.3,0.4,0.5c0,0.2-0.1,0.5-0.3,0.8c-0.2,0.3-0.4,0.5-0.5,0.5c-0.1,0-0.1,0-0.3-0.1
			c-0.1-0.1-0.2-0.1-0.3-0.1c-0.5-0.2-0.9-0.3-1.4-0.3c-0.6,0-1.1,0.1-1.4,0.4c-0.3,0.2-0.4,0.6-0.4,0.9c0,0.3,0.1,0.6,0.3,0.8
			c0.2,0.2,0.4,0.4,0.6,0.5s0.6,0.3,1.1,0.5c0.6,0.3,1.2,0.5,1.6,0.8c0.4,0.3,0.8,0.6,1.1,1.1c0.3,0.5,0.5,1,0.5,1.8
			c0,1.2-0.4,2.1-1.1,2.7c-0.7,0.6-1.6,0.9-2.7,0.9C1246.1,599.9,1245.4,599.8,1244.8,599.7z"/>
		<path class="st5" d="M1259.7,599.3v-9.5h-2.9c-0.2,0-0.3-0.1-0.3-0.2c-0.1-0.1-0.1-0.3-0.1-0.6v-0.4c0-0.3,0-0.4,0.1-0.6
			c0.1-0.1,0.2-0.2,0.3-0.2h8c0.2,0,0.3,0.1,0.3,0.2c0.1,0.1,0.1,0.3,0.1,0.6v0.4c0,0.3,0,0.4-0.1,0.6c-0.1,0.1-0.2,0.2-0.3,0.2
			h-2.9v9.5c0,0.3-0.3,0.5-0.9,0.5h-0.4C1260,599.8,1259.7,599.7,1259.7,599.3z"/>
		<path class="st5" d="M1272.2,599.6c-0.1-0.1-0.2-0.3-0.2-0.5v-10.6c0-0.2,0.1-0.4,0.2-0.5c0.1-0.1,0.3-0.1,0.5-0.1h6
			c0.2,0,0.3,0.1,0.3,0.2c0.1,0.1,0.1,0.3,0.1,0.6v0.4c0,0.3,0,0.4-0.1,0.6c-0.1,0.1-0.2,0.2-0.3,0.2h-4.4v3h3.9
			c0.2,0,0.3,0.1,0.3,0.2c0.1,0.1,0.1,0.3,0.1,0.6v0.4c0,0.3,0,0.4-0.1,0.6c-0.1,0.1-0.2,0.2-0.3,0.2h-3.9v3.2h4.4
			c0.2,0,0.3,0.1,0.3,0.2c0.1,0.1,0.1,0.3,0.1,0.6v0.4c0,0.3,0,0.4-0.1,0.6c-0.1,0.1-0.2,0.2-0.3,0.2h-6
			C1272.4,599.8,1272.3,599.8,1272.2,599.6z"/>
		<path class="st5" d="M1286.3,599.3v-10.8c0-0.2,0-0.4,0.1-0.5c0.1-0.1,0.3-0.2,0.5-0.2h3.2c1.4,0,2.5,0.3,3.2,0.8
			c0.7,0.5,1,1.3,1,2.3c0,0.7-0.2,1.2-0.5,1.7c-0.4,0.5-0.8,0.8-1.4,1.1v0.1c0.2,0.1,0.5,0.3,0.7,0.6s0.4,0.7,0.6,1.1l1.4,3.6
			c0,0.2,0.1,0.3,0.1,0.3c0,0.2-0.3,0.3-0.9,0.3h-0.5c-0.5,0-0.8-0.1-0.9-0.3l-1.3-3.3c-0.2-0.5-0.4-0.8-0.7-1
			c-0.3-0.2-0.7-0.3-1.3-0.3h-1v4.4c0,0.3-0.3,0.5-0.9,0.5h-0.4C1286.6,599.8,1286.3,599.7,1286.3,599.3z M1290.4,593
			c0.4,0,0.8-0.2,1.1-0.5c0.3-0.3,0.5-0.7,0.5-1.2c0-0.5-0.2-0.9-0.5-1.1c-0.3-0.3-0.7-0.4-1.3-0.4h-1.7v3.2H1290.4z"/>
		<path class="st5" d="M1301.7,599.3v-11c0-0.3,0.3-0.5,0.9-0.5h0.4c0.6,0,0.9,0.2,0.9,0.5v11c0,0.3-0.3,0.5-0.9,0.5h-0.4
			C1302,599.9,1301.7,599.7,1301.7,599.3z"/>
		<path class="st5" d="M1311.7,599.3v-11c0-0.3,0.3-0.5,0.9-0.5h0.6c0.2,0,0.5,0,0.6,0.1c0.2,0.1,0.3,0.2,0.4,0.3l4.4,6.6
			c0.2,0.3,0.4,0.7,0.6,1l0.1,0c0-0.3,0-0.6,0-1.2v-6.4c0-0.3,0.3-0.5,0.9-0.5h0.4c0.6,0,0.9,0.2,0.9,0.5v11c0,0.3-0.3,0.5-0.9,0.5
			h-0.5c-0.2,0-0.4,0-0.6-0.1s-0.3-0.2-0.4-0.3l-4.5-6.8c-0.2-0.4-0.4-0.7-0.6-1l-0.1,0c0,0.3,0,0.6,0,1.2v6.5
			c0,0.3-0.3,0.5-0.9,0.5h-0.4C1312,599.8,1311.7,599.7,1311.7,599.3z"/>
		<path class="st5" d="M1337.8,593.5c0.1,0.1,0.2,0.3,0.2,0.5v4.7c0,0.5-0.4,0.8-1.2,1c-0.8,0.2-1.7,0.3-2.7,0.3
			c-1.8,0-3.2-0.5-4.1-1.5c-0.9-1-1.4-2.5-1.4-4.6c0-4.1,1.9-6.1,5.6-6.1c0.5,0,1.1,0.1,1.6,0.2c0.5,0.1,1,0.2,1.4,0.4
			c0.4,0.2,0.5,0.4,0.5,0.6c0,0.1-0.1,0.3-0.2,0.5c-0.1,0.2-0.2,0.4-0.4,0.6s-0.3,0.3-0.4,0.3c0,0-0.2-0.1-0.4-0.2s-0.5-0.2-0.9-0.3
			s-0.8-0.1-1.3-0.1c-1.1,0-2,0.3-2.5,1c-0.5,0.7-0.8,1.7-0.8,3.1c0,2.8,1.1,4.2,3.2,4.2c0.6,0,1.1-0.1,1.6-0.2v-2.6h-1.7
			c-0.2,0-0.3-0.1-0.3-0.2c-0.1-0.1-0.1-0.3-0.1-0.6v-0.4c0-0.3,0-0.4,0.1-0.6c0.1-0.1,0.2-0.2,0.3-0.2h3.3
			C1337.5,593.4,1337.6,593.4,1337.8,593.5z"/>
		<path class="st5" d="M1231,624.5v-11c0-0.2,0-0.3,0.1-0.4c0.1-0.1,0.2-0.1,0.4-0.1h5.4c0.1,0,0.2,0,0.3,0.1
			c0.1,0.1,0.1,0.2,0.1,0.4v0.3c0,0.2,0,0.3-0.1,0.4c-0.1,0.1-0.1,0.1-0.3,0.1h-4.4v3.9h4.1c0.1,0,0.2,0,0.3,0.1
			c0.1,0.1,0.1,0.2,0.1,0.4v0.3c0,0.2,0,0.3-0.1,0.4s-0.1,0.1-0.3,0.1h-4.1v5.1c0,0.2-0.2,0.4-0.7,0.4h-0.1
			C1231.2,624.8,1231,624.7,1231,624.5z"/>
		<path class="st5" d="M1244.7,624.5v-11.2c0-0.3,0.2-0.4,0.7-0.4h0.1c0.5,0,0.7,0.1,0.7,0.4v11.2c0,0.2-0.2,0.4-0.7,0.4h-0.1
			C1244.9,624.8,1244.7,624.7,1244.7,624.5z"/>
		<path class="st5" d="M1256.9,624.5v-10.3h-3.3c-0.1,0-0.2,0-0.3-0.1c-0.1-0.1-0.1-0.2-0.1-0.4v-0.3c0-0.2,0-0.3,0.1-0.4
			c0.1-0.1,0.1-0.1,0.3-0.1h8c0.1,0,0.2,0,0.3,0.1c0.1,0.1,0.1,0.2,0.1,0.4v0.3c0,0.2,0,0.3-0.1,0.4c-0.1,0.1-0.1,0.1-0.3,0.1h-3.2
			v10.3c0,0.2-0.2,0.4-0.7,0.4h-0.1C1257.1,624.8,1256.9,624.7,1256.9,624.5z"/>
		<path class="st5" d="M1268.9,624.5v-11.2c0-0.3,0.2-0.4,0.7-0.4h0.4c0.2,0,0.3,0,0.4,0.1c0.1,0,0.2,0.1,0.3,0.3l5.3,8.1
			c0.2,0.3,0.4,0.6,0.6,1l0.1,0c0-0.3,0-0.6,0-1.2v-7.9c0-0.3,0.2-0.4,0.7-0.4h0.1c0.5,0,0.7,0.1,0.7,0.4v11.2
			c0,0.2-0.2,0.4-0.7,0.4h-0.3c-0.3,0-0.5-0.1-0.6-0.2l-5.5-8.3c-0.2-0.3-0.4-0.6-0.6-1l-0.1,0c0,0.3,0,0.6,0,1.2v8
			c0,0.2-0.2,0.4-0.7,0.4h-0.1C1269.1,624.8,1268.9,624.7,1268.9,624.5z"/>
		<path class="st5" d="M1286.4,624.7c-0.1-0.1-0.1-0.2-0.1-0.4v-10.9c0-0.2,0-0.3,0.1-0.4c0.1-0.1,0.2-0.1,0.4-0.1h5.9
			c0.1,0,0.2,0,0.3,0.1c0.1,0.1,0.1,0.2,0.1,0.4v0.3c0,0.2,0,0.3-0.1,0.4c-0.1,0.1-0.1,0.1-0.3,0.1h-4.9v3.9h4.4
			c0.1,0,0.2,0,0.3,0.1c0.1,0.1,0.1,0.2,0.1,0.4v0.3c0,0.2,0,0.3-0.1,0.4s-0.1,0.1-0.3,0.1h-4.4v4.1h5c0.1,0,0.2,0,0.3,0.1
			c0.1,0.1,0.1,0.2,0.1,0.4v0.3c0,0.2,0,0.3-0.1,0.4c-0.1,0.1-0.1,0.1-0.3,0.1h-6C1286.6,624.8,1286.5,624.8,1286.4,624.7z"/>
		<path class="st5" d="M1301.3,624.7c-0.6-0.2-1-0.4-1.3-0.6c-0.2-0.2-0.3-0.3-0.3-0.4c0-0.1,0.1-0.3,0.2-0.6s0.3-0.4,0.4-0.4
			c0,0,0.2,0.1,0.4,0.2c0.4,0.2,0.7,0.4,1.1,0.5c0.4,0.1,0.9,0.2,1.4,0.2c0.7,0,1.2-0.2,1.6-0.6c0.4-0.4,0.6-0.9,0.6-1.5
			c0-0.4-0.1-0.8-0.3-1c-0.2-0.3-0.5-0.5-0.8-0.7c-0.3-0.2-0.8-0.4-1.4-0.6c-0.7-0.3-1.2-0.5-1.6-0.7c-0.4-0.2-0.7-0.5-1-1
			c-0.3-0.4-0.4-1-0.4-1.7c0-0.6,0.2-1.2,0.5-1.6c0.3-0.5,0.8-0.8,1.3-1.1s1.2-0.4,2-0.4c0.4,0,0.8,0.1,1.3,0.2
			c0.5,0.1,0.8,0.3,1.1,0.4c0.2,0.1,0.3,0.3,0.3,0.4c0,0.1-0.1,0.3-0.2,0.5s-0.3,0.4-0.3,0.4c-0.1,0-0.1,0-0.2-0.1
			c-0.1-0.1-0.2-0.1-0.2-0.1c-0.6-0.3-1.2-0.4-1.8-0.4c-0.7,0-1.2,0.2-1.6,0.5c-0.4,0.3-0.6,0.8-0.6,1.4c0,0.4,0.1,0.7,0.3,0.9
			c0.2,0.2,0.4,0.4,0.7,0.5c0.3,0.1,0.7,0.3,1.3,0.6c0.7,0.3,1.2,0.5,1.7,0.8c0.4,0.2,0.8,0.6,1.1,1.1c0.3,0.5,0.5,1,0.5,1.8
			c0,1-0.3,1.8-1,2.4c-0.7,0.6-1.6,0.9-2.8,0.9C1302.5,624.9,1301.9,624.8,1301.3,624.7z"/>
		<path class="st5" d="M1314.9,624.7c-0.6-0.2-1-0.4-1.3-0.6c-0.2-0.2-0.3-0.3-0.3-0.4c0-0.1,0.1-0.3,0.2-0.6s0.3-0.4,0.4-0.4
			c0,0,0.2,0.1,0.4,0.2c0.4,0.2,0.7,0.4,1.1,0.5c0.4,0.1,0.9,0.2,1.4,0.2c0.7,0,1.2-0.2,1.6-0.6c0.4-0.4,0.6-0.9,0.6-1.5
			c0-0.4-0.1-0.8-0.3-1c-0.2-0.3-0.5-0.5-0.8-0.7c-0.3-0.2-0.8-0.4-1.4-0.6c-0.7-0.3-1.2-0.5-1.6-0.7c-0.4-0.2-0.7-0.5-1-1
			c-0.3-0.4-0.4-1-0.4-1.7c0-0.6,0.2-1.2,0.5-1.6c0.3-0.5,0.8-0.8,1.3-1.1s1.2-0.4,2-0.4c0.4,0,0.8,0.1,1.3,0.2
			c0.5,0.1,0.8,0.3,1.1,0.4c0.2,0.1,0.3,0.3,0.3,0.4c0,0.1-0.1,0.3-0.2,0.5s-0.3,0.4-0.3,0.4c-0.1,0-0.1,0-0.2-0.1
			c-0.1-0.1-0.2-0.1-0.2-0.1c-0.6-0.3-1.2-0.4-1.8-0.4c-0.7,0-1.2,0.2-1.6,0.5c-0.4,0.3-0.6,0.8-0.6,1.4c0,0.4,0.1,0.7,0.3,0.9
			c0.2,0.2,0.4,0.4,0.7,0.5c0.3,0.1,0.7,0.3,1.3,0.6c0.7,0.3,1.2,0.5,1.7,0.8c0.4,0.2,0.8,0.6,1.1,1.1c0.3,0.5,0.5,1,0.5,1.8
			c0,1-0.3,1.8-1,2.4c-0.7,0.6-1.6,0.9-2.8,0.9C1316.1,624.9,1315.5,624.8,1314.9,624.7z"/>
	</g>
	<rect x="382.3" y="439" style="fill:none;" width="174.7" height="77.7"/>
	<text transform="matrix(1 0 0 1 392.9473 468.3994)"><tspan x="0" y="0" class="st10" style="font-family:'VarelaRound-Regular'; font-size:40px;">Gotham</tspan><tspan x="-10.6" y="43" class="st10" style="font-family:'VarelaRound-Regular'; font-size:40px;">Rounded</tspan></text>
	<g>
		<path class="st10" d="M768.1,260.3c-2.1-1.2-3.7-2.8-4.8-5c-1.1-2.1-1.7-4.5-1.7-7.2c0-2.8,0.6-5.2,1.8-7.3c1.2-2.1,2.8-3.8,4.9-5
			c2.1-1.2,4.4-1.8,6.9-1.8c2,0,3.8,0.2,5.3,0.7c1.5,0.5,3,1.2,4.4,2.1c0.2,0.1,0.4,0.3,0.5,0.5c0.2,0.3,0.2,0.5,0.2,0.9
			c0,0.4-0.2,0.8-0.4,1.1c-0.3,0.3-0.7,0.5-1.2,0.5c-0.3,0-0.6-0.1-0.8-0.2c-1.2-0.7-2.4-1.3-3.7-1.6s-2.5-0.5-4-0.5
			c-2,0-3.8,0.4-5.3,1.2s-2.8,2-3.7,3.6c-0.9,1.6-1.3,3.5-1.3,5.7c0,2,0.4,3.8,1.3,5.4c0.8,1.6,2.1,2.9,3.7,3.8s3.5,1.4,5.7,1.4
			c2.4,0,4.7-0.6,6.8-1.7v-7.1h-6.4c-0.4,0-0.8-0.2-1.1-0.5c-0.3-0.3-0.5-0.7-0.5-1.1s0.2-0.8,0.5-1.1c0.3-0.3,0.7-0.5,1.1-0.5h7.7
			c0.5,0,1,0.2,1.3,0.5c0.4,0.4,0.5,0.8,0.5,1.3v8.9c0,0.5-0.1,1-0.4,1.5c-0.3,0.4-0.6,0.7-1.1,1c-2.9,1.5-5.9,2.2-8.9,2.2
			C772.6,262.1,770.2,261.5,768.1,260.3z"/>
		<path class="st10" d="M795.5,260.8c-1.5-0.9-2.7-2.1-3.5-3.6c-0.8-1.6-1.2-3.4-1.2-5.4c0-2,0.4-3.8,1.2-5.4c0.8-1.6,2-2.8,3.5-3.6
			c1.5-0.9,3.3-1.3,5.3-1.3c2,0,3.7,0.4,5.2,1.3c1.5,0.9,2.7,2.1,3.5,3.6c0.8,1.6,1.2,3.4,1.2,5.4c0,2-0.4,3.8-1.2,5.4
			c-0.8,1.6-2,2.8-3.5,3.6c-1.5,0.9-3.3,1.3-5.2,1.3C798.8,262.1,797,261.6,795.5,260.8z M803.9,258.1c1-0.5,1.8-1.3,2.4-2.3
			c0.6-1.1,1-2.4,1-4.1c0-1.6-0.3-3-1-4c-0.6-1.1-1.4-1.8-2.4-2.3c-1-0.5-2-0.7-3.1-0.7c-1.1,0-2.1,0.2-3.1,0.7
			c-1,0.5-1.8,1.3-2.4,2.3c-0.6,1.1-0.9,2.4-0.9,4c0,1.6,0.3,3,0.9,4.1s1.4,1.8,2.4,2.3c1,0.5,2,0.7,3.1,0.7
			C801.9,258.8,802.9,258.6,803.9,258.1z"/>
		<path class="st10" d="M816.7,256.9v-12.1H814c-0.2,0-0.4-0.1-0.5-0.2c-0.1-0.1-0.2-0.3-0.2-0.5c0-0.3,0.1-0.5,0.4-0.7l5.3-5.2
			c0.2-0.2,0.5-0.4,0.7-0.4s0.4,0.1,0.5,0.2c0.1,0.2,0.2,0.3,0.2,0.5v3.1h4.4c0.4,0,0.8,0.1,1.1,0.4s0.4,0.7,0.4,1.1
			c0,0.4-0.1,0.8-0.4,1.1c-0.3,0.3-0.7,0.4-1.1,0.4h-4.4v11.8c0,1,0.2,1.7,0.7,1.9c0.5,0.3,1.1,0.4,1.8,0.4c0.5,0,1-0.1,1.6-0.2
			c0.1,0,0.2-0.1,0.3-0.1c0.1,0,0.3,0,0.4,0c0.4,0,0.7,0.1,1,0.4c0.3,0.3,0.4,0.6,0.4,1c0,0.6-0.3,1.1-0.9,1.4
			c-1,0.5-2.1,0.7-3.2,0.7C818.6,262.1,816.7,260.3,816.7,256.9z"/>
		<path class="st10" d="M831,261.4c-0.3-0.3-0.5-0.8-0.5-1.2v-25.3c0-0.5,0.2-0.9,0.5-1.3c0.3-0.4,0.8-0.5,1.2-0.5s0.9,0.2,1.3,0.5
			c0.4,0.4,0.5,0.8,0.5,1.3V245c1-1.1,2.1-2,3.2-2.6c1.1-0.7,2.5-1,4.1-1c1.4,0,2.7,0.3,3.7,1s1.9,1.6,2.4,2.8
			c0.6,1.2,0.8,2.5,0.8,3.9v11.1c0,0.5-0.2,0.9-0.5,1.2c-0.4,0.3-0.8,0.5-1.3,0.5c-0.5,0-0.9-0.2-1.2-0.5c-0.3-0.3-0.5-0.8-0.5-1.2
			v-10.7c0-3.2-1.4-4.8-4.3-4.8c-1.3,0-2.5,0.3-3.5,1c-1,0.7-2,1.6-2.9,2.7v11.7c0,0.5-0.2,0.9-0.5,1.2c-0.4,0.3-0.8,0.5-1.3,0.5
			S831.3,261.7,831,261.4z"/>
		<path class="st10" d="M856.1,261.4c-1-0.5-1.7-1.2-2.3-2c-0.6-0.9-0.9-1.9-0.9-3.1c0-1.9,0.8-3.5,2.3-4.6c1.5-1.1,3.8-1.7,6.7-1.7
			h4.7v-0.3c0-1.7-0.4-3-1.3-3.7c-0.8-0.8-2.2-1.1-4-1.1c-1,0-1.9,0.1-2.6,0.2c-0.8,0.2-1.6,0.4-2.6,0.7c-0.2,0.1-0.4,0.1-0.5,0.1
			c-0.4,0-0.7-0.1-1-0.4s-0.4-0.6-0.4-1.1c0-0.7,0.3-1.2,1-1.5c2.2-0.9,4.5-1.4,6.7-1.4c1.8,0,3.3,0.4,4.5,1.1
			c1.2,0.7,2.1,1.7,2.7,2.8s0.9,2.4,0.9,3.8v11c0,0.5-0.2,0.9-0.5,1.2c-0.4,0.3-0.8,0.5-1.3,0.5c-0.5,0-0.9-0.2-1.2-0.5
			c-0.3-0.3-0.5-0.8-0.5-1.2v-1c-1.9,2-4.4,3-7.3,3C858.1,262.1,857.1,261.8,856.1,261.4z M863.9,258.1c1.1-0.6,2-1.3,2.7-2.1v-3.3
			h-4.3c-3.9,0-5.9,1-5.9,3.1c0,0.9,0.3,1.7,1,2.3c0.6,0.6,1.7,0.9,3.2,0.9C861.8,258.9,862.9,258.7,863.9,258.1z"/>
		<path class="st10" d="M876.6,261.4c-0.3-0.3-0.5-0.8-0.5-1.2v-16.7c0-0.5,0.2-0.9,0.5-1.3c0.3-0.4,0.8-0.5,1.2-0.5
			s0.9,0.2,1.3,0.5c0.4,0.4,0.5,0.8,0.5,1.3v1.6c0.7-1,1.6-1.9,2.6-2.6c1-0.7,2.4-1,4-1c1.5,0,2.7,0.4,3.7,1.2
			c1,0.8,1.8,1.7,2.2,2.8c1.6-2.7,4-4,7.2-4c1.5,0,2.7,0.4,3.6,1.1c1,0.7,1.7,1.7,2.2,2.8c0.5,1.1,0.7,2.3,0.7,3.6v11.2
			c0,0.5-0.2,0.9-0.5,1.2c-0.4,0.3-0.8,0.5-1.3,0.5c-0.5,0-0.9-0.2-1.2-0.5c-0.3-0.3-0.5-0.8-0.5-1.2v-10.5c0-1.7-0.3-2.9-0.9-3.7
			s-1.6-1.2-3.1-1.2c-1.3,0-2.4,0.3-3.3,1c-0.9,0.7-1.6,1.6-2.3,2.7v11.7c0,0.5-0.2,0.9-0.5,1.2c-0.4,0.3-0.8,0.5-1.3,0.5
			s-0.9-0.2-1.2-0.5c-0.3-0.3-0.5-0.8-0.5-1.2v-10.5c0-1.7-0.3-2.9-0.9-3.7c-0.6-0.8-1.6-1.2-3.1-1.2c-1.3,0-2.4,0.3-3.3,1
			c-0.9,0.7-1.6,1.6-2.3,2.7v11.7c0,0.5-0.2,0.9-0.5,1.2c-0.4,0.3-0.8,0.5-1.3,0.5S877,261.7,876.6,261.4z"/>
		<path class="st10" d="M912.6,261.4c-0.3-0.3-0.5-0.8-0.5-1.2v-23.9c0-0.5,0.2-0.9,0.5-1.3c0.3-0.4,0.8-0.5,1.2-0.5h9.1
			c3.5,0,6.2,0.7,8,2.2c1.8,1.5,2.7,3.4,2.7,5.7c0,1.6-0.4,3-1.3,4.3c-0.9,1.3-2.1,2.2-3.8,2.8c1.9,0.5,3.2,1.7,3.8,3.5
			c0.7,1.8,1,3.6,1,5.4v1.8c0,0.5-0.2,0.9-0.5,1.2c-0.3,0.3-0.8,0.5-1.2,0.5c-0.5,0-1-0.2-1.3-0.5c-0.3-0.3-0.5-0.7-0.5-1.3v-1.2
			c0-1.3-0.1-2.5-0.4-3.6c-0.2-1.1-0.8-2.1-1.7-3c-0.9-0.9-2.2-1.3-4-1.3h-8.1v9c0,0.5-0.2,0.9-0.5,1.2c-0.4,0.3-0.8,0.5-1.3,0.5
			C913.4,261.9,912.9,261.7,912.6,261.4z M922.7,247.7c2.2,0,4-0.4,5.3-1.3c1.3-0.9,2-2.1,2-3.7c0-1.6-0.6-2.8-1.7-3.6
			c-1.1-0.8-3.1-1.2-5.8-1.2h-6.9v9.9H922.7z"/>
		<path class="st10" d="M942.7,260.8c-1.5-0.9-2.7-2.1-3.5-3.6c-0.8-1.6-1.2-3.4-1.2-5.4c0-2,0.4-3.8,1.2-5.4c0.8-1.6,2-2.8,3.5-3.6
			c1.5-0.9,3.3-1.3,5.3-1.3c2,0,3.7,0.4,5.2,1.3c1.5,0.9,2.7,2.1,3.5,3.6c0.8,1.6,1.2,3.4,1.2,5.4c0,2-0.4,3.8-1.2,5.4
			c-0.8,1.6-2,2.8-3.5,3.6c-1.5,0.9-3.3,1.3-5.2,1.3C945.9,262.1,944.2,261.6,942.7,260.8z M951,258.1c1-0.5,1.8-1.3,2.4-2.3
			c0.6-1.1,1-2.4,1-4.1c0-1.6-0.3-3-1-4c-0.6-1.1-1.4-1.8-2.4-2.3c-1-0.5-2-0.7-3.1-0.7c-1.1,0-2.1,0.2-3.1,0.7
			c-1,0.5-1.8,1.3-2.4,2.3c-0.6,1.1-0.9,2.4-0.9,4c0,1.6,0.3,3,0.9,4.1s1.4,1.8,2.4,2.3c1,0.5,2,0.7,3.1,0.7
			C949,258.8,950,258.6,951,258.1z"/>
		<path class="st10" d="M965.9,261c-1.1-0.7-1.9-1.6-2.4-2.8c-0.6-1.2-0.8-2.5-0.8-3.9v-11.1c0-0.5,0.2-0.9,0.5-1.2
			c0.4-0.3,0.8-0.5,1.3-0.5s0.9,0.2,1.2,0.5s0.5,0.8,0.5,1.2V254c0,3.2,1.4,4.8,4.3,4.8c1.3,0,2.5-0.3,3.5-1c1-0.7,2-1.6,2.9-2.7
			v-11.7c0-0.5,0.2-0.9,0.5-1.2s0.8-0.5,1.3-0.5c0.5,0,0.9,0.2,1.2,0.5s0.5,0.8,0.5,1.2v16.7c0,0.5-0.2,0.9-0.5,1.3
			c-0.3,0.4-0.8,0.5-1.2,0.5c-0.5,0-0.9-0.2-1.3-0.5c-0.4-0.4-0.5-0.8-0.5-1.3v-1.6c-1,1.1-2.1,2-3.2,2.6c-1.1,0.6-2.5,1-4.1,1
			C968.2,262.1,967,261.7,965.9,261z"/>
		<path class="st10" d="M987.1,261.4c-0.3-0.3-0.5-0.8-0.5-1.2v-16.7c0-0.5,0.2-0.9,0.5-1.3c0.3-0.4,0.8-0.5,1.2-0.5
			s0.9,0.2,1.3,0.5c0.4,0.4,0.5,0.8,0.5,1.3v1.6c1-1.1,2.1-2,3.2-2.6c1.1-0.7,2.5-1,4.1-1c1.4,0,2.7,0.3,3.7,1s1.9,1.6,2.4,2.8
			c0.6,1.2,0.8,2.5,0.8,3.9v11.1c0,0.5-0.2,0.9-0.5,1.2c-0.4,0.3-0.8,0.5-1.3,0.5c-0.5,0-0.9-0.2-1.2-0.5c-0.3-0.3-0.5-0.8-0.5-1.2
			v-10.7c0-3.2-1.4-4.8-4.3-4.8c-1.3,0-2.5,0.3-3.5,1c-1,0.7-2,1.6-2.9,2.7v11.7c0,0.5-0.2,0.9-0.5,1.2c-0.4,0.3-0.8,0.5-1.3,0.5
			S987.5,261.7,987.1,261.4z"/>
		<path class="st10" d="M1014,260.8c-1.4-0.8-2.6-2-3.5-3.6c-0.9-1.6-1.3-3.4-1.3-5.5c0-2.1,0.4-3.9,1.3-5.5
			c0.9-1.6,2.1-2.8,3.5-3.6c1.4-0.8,3-1.2,4.6-1.2c2.5,0,4.8,1,6.7,3v-9.6c0-0.5,0.2-0.9,0.5-1.3c0.4-0.3,0.8-0.5,1.3-0.5
			c0.5,0,0.9,0.2,1.2,0.5c0.3,0.4,0.5,0.8,0.5,1.3v25.3c0,0.5-0.2,0.9-0.5,1.2c-0.3,0.3-0.8,0.5-1.2,0.5c-0.5,0-0.9-0.2-1.3-0.5
			c-0.4-0.3-0.5-0.8-0.5-1.2v-1c-1.9,2-4.1,3-6.7,3C1017,262.1,1015.5,261.6,1014,260.8z M1022.5,257.9c1.1-0.5,2-1.2,2.8-2.1v-8.2
			c-0.8-0.9-1.7-1.6-2.8-2.1s-2.2-0.8-3.4-0.8c-1.9,0-3.5,0.6-4.6,1.8c-1.2,1.2-1.8,3-1.8,5.2c0,2.2,0.6,4,1.8,5.2
			c1.2,1.2,2.7,1.8,4.6,1.8C1020.3,258.7,1021.4,258.5,1022.5,257.9z"/>
		<path class="st10" d="M1036.4,259.3c-1.8-1.8-2.7-4.3-2.7-7.6c0-1.8,0.3-3.5,1-5.1c0.7-1.6,1.7-2.8,3.1-3.8s3.1-1.4,5.2-1.4
			c1.9,0,3.6,0.4,5,1.3c1.4,0.9,2.5,2.1,3.2,3.6c0.7,1.5,1.1,3.1,1.1,4.9c0,0.5-0.2,0.9-0.5,1.2s-0.8,0.5-1.3,0.5h-13.2
			c0.2,1.8,0.9,3.2,2,4.3c1.1,1,2.7,1.5,4.8,1.5c1.1,0,2-0.1,2.9-0.3c0.8-0.2,1.6-0.5,2.4-0.9c0.2-0.1,0.4-0.2,0.7-0.2
			c0.4,0,0.8,0.1,1.1,0.4c0.3,0.3,0.5,0.7,0.5,1.1c0,0.6-0.3,1.1-1,1.4c-1,0.6-2,1-3,1.3s-2.3,0.4-3.8,0.4
			C1040.7,262.1,1038.2,261.2,1036.4,259.3z M1048.9,250.1c-0.1-1.3-0.4-2.3-1-3.2c-0.6-0.9-1.3-1.5-2.2-1.9
			c-0.9-0.4-1.7-0.6-2.6-0.6c-0.9,0-1.8,0.2-2.6,0.6c-0.9,0.4-1.6,1-2.1,1.9c-0.6,0.9-0.9,1.9-1,3.2H1048.9z"/>
		<path class="st10" d="M1060.7,260.8c-1.4-0.8-2.6-2-3.5-3.6c-0.9-1.6-1.3-3.4-1.3-5.5c0-2.1,0.4-3.9,1.3-5.5
			c0.9-1.6,2.1-2.8,3.5-3.6c1.4-0.8,3-1.2,4.6-1.2c2.5,0,4.8,1,6.7,3v-9.6c0-0.5,0.2-0.9,0.5-1.3c0.4-0.3,0.8-0.5,1.3-0.5
			c0.5,0,0.9,0.2,1.2,0.5c0.3,0.4,0.5,0.8,0.5,1.3v25.3c0,0.5-0.2,0.9-0.5,1.2c-0.3,0.3-0.8,0.5-1.2,0.5c-0.5,0-0.9-0.2-1.3-0.5
			c-0.4-0.3-0.5-0.8-0.5-1.2v-1c-1.9,2-4.1,3-6.7,3C1063.7,262.1,1062.2,261.6,1060.7,260.8z M1069.2,257.9c1.1-0.5,2-1.2,2.8-2.1
			v-8.2c-0.8-0.9-1.7-1.6-2.8-2.1s-2.2-0.8-3.4-0.8c-1.9,0-3.5,0.6-4.6,1.8c-1.2,1.2-1.8,3-1.8,5.2c0,2.2,0.6,4,1.8,5.2
			c1.2,1.2,2.7,1.8,4.6,1.8C1067,258.7,1068.1,258.5,1069.2,257.9z"/>
	</g>
	<g>
		<path class="st10" d="M765.6,300.5c-0.2-0.2-0.3-0.4-0.3-0.6v-12.2c0-0.3,0.1-0.5,0.3-0.7c0.2-0.2,0.4-0.3,0.6-0.3h4.7
			c1.8,0,3.2,0.4,4.1,1.1c0.9,0.7,1.4,1.7,1.4,2.9c0,0.8-0.2,1.5-0.7,2.2c-0.4,0.7-1.1,1.1-1.9,1.4c1,0.3,1.6,0.9,2,1.8
			c0.4,0.9,0.5,1.9,0.5,2.8v0.9c0,0.3-0.1,0.5-0.3,0.6c-0.2,0.2-0.4,0.3-0.6,0.3c-0.3,0-0.5-0.1-0.7-0.3c-0.2-0.2-0.3-0.4-0.3-0.6
			v-0.6c0-0.7-0.1-1.3-0.2-1.8s-0.4-1.1-0.9-1.5c-0.5-0.4-1.1-0.7-2.1-0.7h-4.1v4.6c0,0.3-0.1,0.5-0.3,0.6c-0.2,0.2-0.4,0.3-0.7,0.3
			S765.8,300.7,765.6,300.5z M770.8,293.5c1.1,0,2.1-0.2,2.7-0.7c0.7-0.5,1-1.1,1-1.9c0-0.8-0.3-1.4-0.9-1.8s-1.6-0.6-3-0.6h-3.5
			v5.1H770.8z"/>
		<path class="st10" d="M780,299.5c-0.9-0.9-1.4-2.2-1.4-3.9c0-0.9,0.2-1.8,0.5-2.6c0.3-0.8,0.9-1.4,1.6-1.9s1.6-0.7,2.7-0.7
			c1,0,1.8,0.2,2.6,0.7s1.3,1.1,1.6,1.8c0.4,0.8,0.6,1.6,0.6,2.5c0,0.3-0.1,0.5-0.3,0.6c-0.2,0.2-0.4,0.3-0.7,0.3h-6.8
			c0.1,0.9,0.5,1.7,1,2.2c0.6,0.5,1.4,0.8,2.5,0.8c0.6,0,1-0.1,1.5-0.2c0.4-0.1,0.8-0.3,1.2-0.5c0.1-0.1,0.2-0.1,0.4-0.1
			c0.2,0,0.4,0.1,0.6,0.2c0.2,0.1,0.2,0.3,0.2,0.6c0,0.3-0.2,0.5-0.5,0.7c-0.5,0.3-1,0.5-1.5,0.7c-0.5,0.1-1.2,0.2-2,0.2
			C782.2,300.9,780.9,300.4,780,299.5z M786.4,294.8c0-0.7-0.2-1.2-0.5-1.6c-0.3-0.4-0.7-0.8-1.1-1c-0.4-0.2-0.9-0.3-1.3-0.3
			c-0.5,0-0.9,0.1-1.3,0.3c-0.4,0.2-0.8,0.5-1.1,1c-0.3,0.4-0.5,1-0.5,1.6H786.4z"/>
		<path class="st10" d="M793,305.2c-0.8-0.2-1.4-0.4-1.9-0.7c-0.2-0.1-0.4-0.4-0.4-0.7c0-0.2,0.1-0.4,0.2-0.6
			c0.2-0.2,0.3-0.3,0.6-0.3c0.1,0,0.2,0,0.4,0.1c1,0.5,2.1,0.8,3.3,0.8c2,0,3.1-1.1,3.1-3.3v-1.3c-0.9,1-2.1,1.5-3.4,1.5
			c-0.8,0-1.5-0.2-2.3-0.6s-1.3-1-1.8-1.8c-0.5-0.8-0.7-1.7-0.7-2.9s0.2-2.1,0.7-2.8c0.5-0.8,1.1-1.4,1.8-1.8
			c0.7-0.4,1.5-0.6,2.3-0.6c1.3,0,2.5,0.5,3.4,1.5v-0.5c0-0.3,0.1-0.5,0.3-0.7c0.2-0.2,0.4-0.3,0.6-0.3c0.3,0,0.5,0.1,0.6,0.3
			c0.2,0.2,0.3,0.4,0.3,0.7v8.9c0,1.7-0.4,3-1.2,3.9c-0.8,0.9-2,1.4-3.5,1.4C794.6,305.5,793.8,305.4,793,305.2z M796.8,298.6
			c0.5-0.3,0.9-0.6,1.4-1.1v-4.1c-0.4-0.5-0.9-0.8-1.4-1.1c-0.5-0.3-1-0.4-1.7-0.4c-1,0-1.8,0.3-2.4,0.9c-0.6,0.6-1,1.5-1,2.6
			c0,1.1,0.3,2,1,2.6c0.6,0.6,1.4,0.9,2.4,0.9C795.8,299,796.4,298.9,796.8,298.6z"/>
		<path class="st10" d="M804.8,300.4c-0.5-0.3-1-0.8-1.2-1.4c-0.3-0.6-0.4-1.3-0.4-2v-5.7c0-0.3,0.1-0.5,0.3-0.6
			c0.2-0.2,0.4-0.3,0.7-0.3c0.3,0,0.5,0.1,0.6,0.3c0.2,0.2,0.3,0.4,0.3,0.6v5.5c0,1.6,0.7,2.4,2.2,2.4c0.7,0,1.3-0.2,1.8-0.5
			c0.5-0.3,1-0.8,1.5-1.4v-6c0-0.3,0.1-0.5,0.3-0.6c0.2-0.2,0.4-0.3,0.7-0.3c0.3,0,0.5,0.1,0.6,0.3c0.2,0.2,0.3,0.4,0.3,0.6v8.6
			c0,0.3-0.1,0.5-0.3,0.7s-0.4,0.3-0.6,0.3c-0.3,0-0.5-0.1-0.7-0.3c-0.2-0.2-0.3-0.4-0.3-0.7v-0.8c-0.5,0.6-1.1,1-1.6,1.3
			s-1.3,0.5-2.1,0.5C805.9,300.9,805.3,300.7,804.8,300.4z"/>
		<path class="st10" d="M815.6,300.5c-0.2-0.2-0.3-0.4-0.3-0.6v-13c0-0.3,0.1-0.5,0.3-0.6c0.2-0.2,0.4-0.3,0.6-0.3
			c0.3,0,0.5,0.1,0.7,0.3c0.2,0.2,0.3,0.4,0.3,0.7v13c0,0.3-0.1,0.5-0.3,0.6s-0.4,0.3-0.6,0.3C816,300.8,815.8,300.7,815.6,300.5z"
			/>
		<path class="st10" d="M821.3,300.5c-0.5-0.2-0.9-0.6-1.2-1c-0.3-0.5-0.4-1-0.4-1.6c0-1,0.4-1.8,1.2-2.4c0.8-0.6,1.9-0.9,3.4-0.9
			h2.4v-0.2c0-0.9-0.2-1.5-0.7-1.9c-0.4-0.4-1.1-0.6-2-0.6c-0.5,0-1,0-1.3,0.1c-0.4,0.1-0.8,0.2-1.3,0.4c-0.1,0-0.2,0-0.3,0
			c-0.2,0-0.4-0.1-0.5-0.2c-0.1-0.1-0.2-0.3-0.2-0.5c0-0.4,0.2-0.6,0.5-0.8c1.1-0.5,2.3-0.7,3.5-0.7c0.9,0,1.7,0.2,2.3,0.6
			c0.6,0.4,1.1,0.9,1.4,1.5c0.3,0.6,0.5,1.2,0.5,1.9v5.7c0,0.3-0.1,0.5-0.3,0.6c-0.2,0.2-0.4,0.3-0.7,0.3s-0.5-0.1-0.6-0.3
			c-0.2-0.2-0.3-0.4-0.3-0.6v-0.5c-1,1-2.2,1.5-3.8,1.5C822.4,300.9,821.8,300.8,821.3,300.5z M825.3,298.9c0.5-0.3,1-0.6,1.4-1.1
			v-1.7h-2.2c-2,0-3,0.5-3,1.6c0,0.5,0.2,0.9,0.5,1.2c0.3,0.3,0.9,0.4,1.6,0.4C824.2,299.3,824.8,299.2,825.3,298.9z"/>
		<path class="st10" d="M831.9,300.5c-0.2-0.2-0.3-0.4-0.3-0.6v-8.6c0-0.3,0.1-0.5,0.3-0.7c0.2-0.2,0.4-0.3,0.6-0.3
			c0.3,0,0.5,0.1,0.6,0.3c0.2,0.2,0.3,0.4,0.3,0.7v0.9c0.9-1.3,2-1.9,3.1-1.9h0.1c0.3,0,0.5,0.1,0.6,0.3c0.2,0.2,0.3,0.4,0.3,0.6
			c0,0.3-0.1,0.5-0.3,0.6c-0.2,0.2-0.4,0.2-0.7,0.2h-0.1c-0.6,0-1.2,0.2-1.8,0.5s-1,0.7-1.3,1.3v6.1c0,0.3-0.1,0.5-0.3,0.6
			s-0.4,0.3-0.6,0.3C832.2,300.8,832,300.7,831.9,300.5z"/>
		<path class="st12" d="M880.9,299.9c-0.2-0.1-0.3-0.2-0.4-0.3s-0.2-0.3-0.2-0.5c0-0.2,0.1-0.4,0.2-0.6s0.3-0.3,0.6-0.3
			c0.1,0,0.3,0,0.4,0.1c1.2,0.5,2.5,0.8,3.9,0.8c2.3,0,3.5-0.8,3.5-2.3c0-0.4-0.2-0.7-0.5-1c-0.3-0.3-0.7-0.5-1.1-0.6
			c-0.4-0.2-1.1-0.3-1.9-0.5c-1.1-0.3-2-0.5-2.6-0.8c-0.7-0.3-1.2-0.7-1.7-1.2c-0.5-0.5-0.7-1.2-0.7-2.1c0-0.8,0.2-1.5,0.6-2.1
			c0.4-0.6,1-1.1,1.8-1.5c0.8-0.4,1.7-0.5,2.8-0.5c1.5,0,2.8,0.2,4,0.7c0.4,0.1,0.6,0.4,0.6,0.8c0,0.2-0.1,0.4-0.2,0.6
			c-0.1,0.2-0.3,0.3-0.6,0.3c-0.1,0-0.2,0-0.3-0.1c-1-0.4-2.1-0.5-3.2-0.5c-1.1,0-1.9,0.2-2.6,0.6c-0.7,0.4-1,1-1,1.7
			c0,0.5,0.2,0.9,0.5,1.2c0.3,0.3,0.7,0.5,1.2,0.7c0.5,0.2,1.1,0.3,1.9,0.5c1.1,0.3,1.9,0.5,2.6,0.8c0.6,0.3,1.2,0.6,1.7,1.2
			c0.5,0.5,0.7,1.3,0.7,2.2c0,0.7-0.2,1.4-0.6,2c-0.4,0.6-1,1.1-1.8,1.4s-1.7,0.5-2.7,0.5C883.9,300.9,882.3,300.6,880.9,299.9z"/>
		<path class="st12" d="M893.9,299.5c-0.9-0.9-1.4-2.2-1.4-3.9c0-0.9,0.2-1.8,0.5-2.6c0.3-0.8,0.9-1.4,1.6-1.9s1.6-0.7,2.7-0.7
			c1,0,1.8,0.2,2.6,0.7s1.3,1.1,1.6,1.8c0.4,0.8,0.6,1.6,0.6,2.5c0,0.3-0.1,0.5-0.3,0.6c-0.2,0.2-0.4,0.3-0.7,0.3h-6.8
			c0.1,0.9,0.5,1.7,1,2.2c0.6,0.5,1.4,0.8,2.5,0.8c0.6,0,1-0.1,1.5-0.2c0.4-0.1,0.8-0.3,1.2-0.5c0.1-0.1,0.2-0.1,0.4-0.1
			c0.2,0,0.4,0.1,0.6,0.2c0.2,0.1,0.2,0.3,0.2,0.6c0,0.3-0.2,0.5-0.5,0.7c-0.5,0.3-1,0.5-1.5,0.7c-0.5,0.1-1.2,0.2-2,0.2
			C896.1,300.9,894.8,300.4,893.9,299.5z M900.3,294.8c0-0.7-0.2-1.2-0.5-1.6c-0.3-0.4-0.7-0.8-1.1-1c-0.4-0.2-0.9-0.3-1.3-0.3
			c-0.5,0-0.9,0.1-1.3,0.3c-0.4,0.2-0.8,0.5-1.1,1c-0.3,0.4-0.5,1-0.5,1.6H900.3z"/>
		<path class="st12" d="M904.8,300.5c-0.2-0.2-0.3-0.4-0.3-0.6v-8.6c0-0.3,0.1-0.5,0.3-0.7c0.2-0.2,0.4-0.3,0.6-0.3
			c0.3,0,0.5,0.1,0.6,0.3c0.2,0.2,0.3,0.4,0.3,0.7v0.8c0.4-0.5,0.8-1,1.3-1.3c0.5-0.3,1.2-0.5,2-0.5c0.7,0,1.4,0.2,1.9,0.6
			c0.5,0.4,0.9,0.9,1.1,1.5c0.8-1.4,2.1-2.1,3.7-2.1c0.7,0,1.4,0.2,1.9,0.6s0.9,0.9,1.1,1.4c0.2,0.6,0.4,1.2,0.4,1.8v5.8
			c0,0.3-0.1,0.5-0.3,0.6c-0.2,0.2-0.4,0.3-0.7,0.3s-0.5-0.1-0.6-0.3c-0.2-0.2-0.3-0.4-0.3-0.6v-5.4c0-0.9-0.2-1.5-0.5-1.9
			c-0.3-0.4-0.8-0.6-1.6-0.6c-0.7,0-1.2,0.2-1.7,0.5c-0.4,0.4-0.8,0.8-1.2,1.4v6c0,0.3-0.1,0.5-0.3,0.6s-0.4,0.3-0.7,0.3
			s-0.5-0.1-0.6-0.3c-0.2-0.2-0.3-0.4-0.3-0.6v-5.4c0-0.9-0.2-1.5-0.5-1.9c-0.3-0.4-0.8-0.6-1.6-0.6c-0.7,0-1.2,0.2-1.7,0.5
			c-0.4,0.4-0.8,0.8-1.2,1.4v6c0,0.3-0.1,0.5-0.3,0.6s-0.4,0.3-0.6,0.3C905.2,300.8,904.9,300.7,904.8,300.5z"/>
		<path class="st12" d="M923,288.1c-0.2-0.2-0.3-0.4-0.3-0.7v-0.1c0-0.3,0.1-0.5,0.3-0.7c0.2-0.2,0.4-0.3,0.7-0.3h0.1
			c0.3,0,0.5,0.1,0.7,0.3c0.2,0.2,0.3,0.4,0.3,0.7v0.1c0,0.3-0.1,0.5-0.3,0.7s-0.4,0.3-0.7,0.3h-0.1
			C923.4,288.4,923.2,288.3,923,288.1z M923.1,300.5c-0.2-0.2-0.3-0.4-0.3-0.6v-8.6c0-0.3,0.1-0.5,0.3-0.7c0.2-0.2,0.4-0.3,0.6-0.3
			c0.3,0,0.5,0.1,0.7,0.3c0.2,0.2,0.3,0.4,0.3,0.7v8.6c0,0.3-0.1,0.5-0.3,0.6s-0.4,0.3-0.6,0.3C923.5,300.8,923.3,300.7,923.1,300.5
			z"/>
		<path class="st12" d="M929.7,299.4v0.5c0,0.3-0.1,0.5-0.3,0.6s-0.4,0.3-0.6,0.3c-0.3,0-0.5-0.1-0.6-0.3s-0.3-0.4-0.3-0.6v-13
			c0-0.3,0.1-0.5,0.3-0.6c0.2-0.2,0.4-0.3,0.6-0.3c0.3,0,0.5,0.1,0.7,0.3c0.2,0.2,0.3,0.4,0.3,0.7v4.9c1-1,2.1-1.5,3.4-1.5
			c0.8,0,1.6,0.2,2.3,0.6c0.7,0.4,1.3,1,1.8,1.8s0.7,1.8,0.7,2.8s-0.2,2-0.7,2.8s-1.1,1.4-1.8,1.8s-1.5,0.6-2.3,0.6
			C931.8,300.9,930.6,300.4,929.7,299.4z M935.2,298.3c0.6-0.6,0.9-1.5,0.9-2.7s-0.3-2-0.9-2.7c-0.6-0.6-1.4-0.9-2.4-0.9
			c-0.6,0-1.2,0.1-1.7,0.4s-1,0.6-1.4,1.1v4.2c0.4,0.5,0.9,0.8,1.4,1.1s1.1,0.4,1.7,0.4C933.8,299.2,934.6,298.9,935.2,298.3z"/>
		<path class="st12" d="M942.3,300.2c-0.8-0.4-1.4-1.1-1.8-1.9s-0.6-1.7-0.6-2.8s0.2-2,0.6-2.8s1-1.4,1.8-1.9
			c0.8-0.4,1.7-0.7,2.7-0.7c1,0,1.9,0.2,2.7,0.7c0.8,0.4,1.4,1.1,1.8,1.9s0.6,1.7,0.6,2.8s-0.2,2-0.6,2.8s-1,1.4-1.8,1.9
			s-1.7,0.7-2.7,0.7C943.9,300.9,943,300.7,942.3,300.2z M946.5,298.9c0.5-0.3,0.9-0.7,1.2-1.2c0.3-0.5,0.5-1.2,0.5-2.1
			c0-0.8-0.2-1.5-0.5-2.1c-0.3-0.5-0.7-0.9-1.2-1.2c-0.5-0.2-1-0.4-1.6-0.4c-0.6,0-1.1,0.1-1.6,0.4c-0.5,0.2-0.9,0.6-1.2,1.2
			c-0.3,0.5-0.5,1.2-0.5,2.1c0,0.8,0.2,1.5,0.5,2.1c0.3,0.5,0.7,0.9,1.2,1.2s1,0.4,1.6,0.4C945.5,299.2,946,299.1,946.5,298.9z"/>
		<path class="st12" d="M952.9,300.5c-0.2-0.2-0.3-0.4-0.3-0.6v-13c0-0.3,0.1-0.5,0.3-0.6c0.2-0.2,0.4-0.3,0.6-0.3
			c0.3,0,0.5,0.1,0.7,0.3c0.2,0.2,0.3,0.4,0.3,0.7v13c0,0.3-0.1,0.5-0.3,0.6s-0.4,0.3-0.6,0.3C953.3,300.8,953.1,300.7,952.9,300.5z
			"/>
		<path class="st12" d="M959.5,300.3c-0.7-0.4-1.3-1-1.8-1.8s-0.7-1.8-0.7-2.8s0.2-2,0.7-2.8s1.1-1.4,1.8-1.8
			c0.7-0.4,1.5-0.6,2.3-0.6c1.3,0,2.4,0.5,3.4,1.5v-4.9c0-0.3,0.1-0.5,0.3-0.7c0.2-0.2,0.4-0.3,0.6-0.3c0.3,0,0.5,0.1,0.6,0.3
			c0.2,0.2,0.3,0.4,0.3,0.6v13c0,0.3-0.1,0.5-0.3,0.6c-0.2,0.2-0.4,0.3-0.6,0.3c-0.3,0-0.5-0.1-0.6-0.3c-0.2-0.2-0.3-0.4-0.3-0.6
			v-0.5c-1,1-2.1,1.5-3.4,1.5C961,300.9,960.2,300.7,959.5,300.3z M963.8,298.8c0.5-0.3,1-0.6,1.4-1.1v-4.2
			c-0.4-0.5-0.9-0.8-1.4-1.1s-1.1-0.4-1.7-0.4c-1,0-1.8,0.3-2.4,0.9c-0.6,0.6-0.9,1.5-0.9,2.7s0.3,2,0.9,2.7
			c0.6,0.6,1.4,0.9,2.4,0.9C962.7,299.2,963.3,299.1,963.8,298.8z"/>
		<path class="st13" d="M1033.2,300.4c-0.2-0.2-0.3-0.4-0.3-0.6v-12.1c0-0.3,0.1-0.5,0.3-0.7c0.2-0.2,0.4-0.3,0.6-0.3h4.7
			c1.4,0,2.5,0.3,3.3,1c0.8,0.7,1.2,1.5,1.2,2.6c0,0.8-0.2,1.4-0.5,1.9c-0.4,0.5-0.8,0.9-1.4,1.2c0.8,0.3,1.5,0.7,2,1.2
			s0.8,1.3,0.8,2.1c0,1.2-0.4,2.2-1.2,2.9c-0.8,0.7-2.1,1-3.9,1h-4.8C1033.6,300.7,1033.4,300.6,1033.2,300.4z M1038.1,292.8
			c1.2,0,2-0.2,2.5-0.6c0.5-0.4,0.7-1,0.7-1.7c0-0.6-0.3-1.1-0.8-1.5c-0.5-0.4-1.2-0.6-2.1-0.6h-3.7v4.3H1038.1z M1038.5,299
			c1.3,0,2.2-0.2,2.8-0.6c0.5-0.4,0.8-1,0.8-1.7c0-1.5-1.2-2.3-3.5-2.3h-3.8v4.6H1038.5z"/>
		<path class="st13" d="M1048.2,300.2c-0.8-0.4-1.4-1.1-1.8-1.9s-0.6-1.7-0.6-2.8s0.2-2,0.6-2.8s1-1.4,1.8-1.9
			c0.8-0.4,1.7-0.7,2.7-0.7c1,0,1.9,0.2,2.7,0.7c0.8,0.4,1.4,1.1,1.8,1.9s0.6,1.7,0.6,2.8s-0.2,2-0.6,2.8s-1,1.4-1.8,1.9
			s-1.7,0.7-2.7,0.7C1049.9,300.9,1049,300.7,1048.2,300.2z M1052.5,298.9c0.5-0.3,0.9-0.7,1.2-1.2c0.3-0.5,0.5-1.2,0.5-2.1
			c0-0.8-0.2-1.5-0.5-2.1c-0.3-0.5-0.7-0.9-1.2-1.2c-0.5-0.2-1-0.4-1.6-0.4c-0.6,0-1.1,0.1-1.6,0.4c-0.5,0.2-0.9,0.6-1.2,1.2
			c-0.3,0.5-0.5,1.2-0.5,2.1c0,0.8,0.2,1.5,0.5,2.1c0.3,0.5,0.7,0.9,1.2,1.2s1,0.4,1.6,0.4C1051.4,299.2,1052,299.1,1052.5,298.9z"
			/>
		<path class="st13" d="M1058.8,300.5c-0.2-0.2-0.3-0.4-0.3-0.6v-13c0-0.3,0.1-0.5,0.3-0.6c0.2-0.2,0.4-0.3,0.6-0.3
			c0.3,0,0.5,0.1,0.7,0.3c0.2,0.2,0.3,0.4,0.3,0.7v13c0,0.3-0.1,0.5-0.3,0.6s-0.4,0.3-0.6,0.3C1059.2,300.8,1059,300.7,1058.8,300.5
			z"/>
		<path class="st13" d="M1065.4,300.3c-0.7-0.4-1.3-1-1.8-1.8s-0.7-1.8-0.7-2.8s0.2-2,0.7-2.8s1.1-1.4,1.8-1.8
			c0.7-0.4,1.5-0.6,2.3-0.6c1.3,0,2.4,0.5,3.4,1.5v-4.9c0-0.3,0.1-0.5,0.3-0.7c0.2-0.2,0.4-0.3,0.6-0.3c0.3,0,0.5,0.1,0.6,0.3
			c0.2,0.2,0.3,0.4,0.3,0.6v13c0,0.3-0.1,0.5-0.3,0.6c-0.2,0.2-0.4,0.3-0.6,0.3c-0.3,0-0.5-0.1-0.6-0.3c-0.2-0.2-0.3-0.4-0.3-0.6
			v-0.5c-1,1-2.1,1.5-3.4,1.5C1066.9,300.9,1066.1,300.7,1065.4,300.3z M1069.7,298.8c0.5-0.3,1-0.6,1.4-1.1v-4.2
			c-0.4-0.5-0.9-0.8-1.4-1.1s-1.1-0.4-1.7-0.4c-1,0-1.8,0.3-2.4,0.9c-0.6,0.6-0.9,1.5-0.9,2.7s0.3,2,0.9,2.7
			c0.6,0.6,1.4,0.9,2.4,0.9C1068.6,299.2,1069.2,299.1,1069.7,298.8z"/>
	</g>
	<g>
		<path class="st10" d="M15.5,461.5c-0.2-0.2-0.3-0.4-0.3-0.6v-12.2c0-0.3,0.1-0.5,0.3-0.7c0.2-0.2,0.4-0.3,0.6-0.3h4.7
			c1.8,0,3.2,0.4,4.1,1.1c0.9,0.7,1.4,1.7,1.4,2.9c0,0.8-0.2,1.5-0.7,2.2s-1.1,1.1-1.9,1.4c1,0.3,1.6,0.9,2,1.8
			c0.4,0.9,0.5,1.9,0.5,2.8v0.9c0,0.3-0.1,0.5-0.3,0.6c-0.2,0.2-0.4,0.3-0.6,0.3c-0.3,0-0.5-0.1-0.7-0.3c-0.2-0.2-0.3-0.4-0.3-0.6
			v-0.6c0-0.7-0.1-1.3-0.2-1.8c-0.1-0.6-0.4-1.1-0.9-1.5c-0.5-0.4-1.1-0.7-2.1-0.7h-4.1v4.6c0,0.3-0.1,0.5-0.3,0.6
			c-0.2,0.2-0.4,0.3-0.7,0.3C15.9,461.8,15.7,461.7,15.5,461.5z M20.7,454.5c1.1,0,2.1-0.2,2.7-0.7s1-1.1,1-1.9
			c0-0.8-0.3-1.4-0.9-1.8s-1.6-0.6-3-0.6h-3.5v5.1H20.7z"/>
		<path class="st10" d="M29.9,460.5c-0.9-0.9-1.4-2.2-1.4-3.9c0-0.9,0.2-1.8,0.5-2.6c0.3-0.8,0.9-1.4,1.6-1.9s1.6-0.7,2.7-0.7
			c1,0,1.8,0.2,2.6,0.7s1.3,1.1,1.6,1.8c0.4,0.8,0.6,1.6,0.6,2.5c0,0.3-0.1,0.5-0.3,0.6c-0.2,0.2-0.4,0.3-0.7,0.3h-6.8
			c0.1,0.9,0.5,1.7,1,2.2c0.6,0.5,1.4,0.8,2.5,0.8c0.6,0,1-0.1,1.5-0.2c0.4-0.1,0.8-0.3,1.2-0.5c0.1-0.1,0.2-0.1,0.4-0.1
			c0.2,0,0.4,0.1,0.6,0.2c0.2,0.1,0.2,0.3,0.2,0.6c0,0.3-0.2,0.5-0.5,0.7c-0.5,0.3-1,0.5-1.5,0.7c-0.5,0.1-1.2,0.2-2,0.2
			C32.1,461.9,30.8,461.4,29.9,460.5z M36.3,455.8c0-0.7-0.2-1.2-0.5-1.6c-0.3-0.4-0.7-0.8-1.1-1c-0.4-0.2-0.9-0.3-1.3-0.3
			c-0.5,0-0.9,0.1-1.3,0.3c-0.4,0.2-0.8,0.5-1.1,1c-0.3,0.4-0.5,1-0.5,1.6H36.3z"/>
		<path class="st10" d="M42.9,466.2c-0.8-0.2-1.4-0.4-1.9-0.7c-0.2-0.1-0.4-0.4-0.4-0.7c0-0.2,0.1-0.4,0.2-0.6
			c0.2-0.2,0.3-0.3,0.6-0.3c0.1,0,0.2,0,0.4,0.1c1,0.5,2.1,0.8,3.3,0.8c2,0,3.1-1.1,3.1-3.3v-1.3c-0.9,1-2.1,1.5-3.4,1.5
			c-0.8,0-1.5-0.2-2.3-0.6s-1.3-1-1.8-1.8c-0.5-0.8-0.7-1.7-0.7-2.9s0.2-2.1,0.7-2.8c0.5-0.8,1.1-1.4,1.8-1.8
			c0.7-0.4,1.5-0.6,2.3-0.6c1.3,0,2.5,0.5,3.4,1.5v-0.5c0-0.3,0.1-0.5,0.3-0.7c0.2-0.2,0.4-0.3,0.6-0.3c0.3,0,0.5,0.1,0.6,0.3
			c0.2,0.2,0.3,0.4,0.3,0.7v8.9c0,1.7-0.4,3-1.2,3.9c-0.8,0.9-2,1.4-3.5,1.4C44.5,466.5,43.7,466.4,42.9,466.2z M46.7,459.6
			c0.5-0.3,0.9-0.6,1.4-1.1v-4.1c-0.4-0.5-0.9-0.8-1.4-1.1c-0.5-0.3-1-0.4-1.7-0.4c-1,0-1.8,0.3-2.4,0.9c-0.6,0.6-1,1.5-1,2.6
			c0,1.1,0.3,2,1,2.6c0.6,0.6,1.4,0.9,2.4,0.9C45.7,460,46.3,459.9,46.7,459.6z"/>
		<path class="st10" d="M54.7,461.4c-0.5-0.3-1-0.8-1.2-1.4c-0.3-0.6-0.4-1.3-0.4-2v-5.7c0-0.3,0.1-0.5,0.3-0.6
			c0.2-0.2,0.4-0.3,0.7-0.3c0.3,0,0.5,0.1,0.6,0.3c0.2,0.2,0.3,0.4,0.3,0.6v5.5c0,1.6,0.7,2.4,2.2,2.4c0.7,0,1.3-0.2,1.8-0.5
			c0.5-0.3,1-0.8,1.5-1.4v-6c0-0.3,0.1-0.5,0.3-0.6c0.2-0.2,0.4-0.3,0.7-0.3c0.3,0,0.5,0.1,0.6,0.3c0.2,0.2,0.3,0.4,0.3,0.6v8.6
			c0,0.3-0.1,0.5-0.3,0.7s-0.4,0.3-0.6,0.3c-0.3,0-0.5-0.1-0.7-0.3c-0.2-0.2-0.3-0.4-0.3-0.7v-0.8c-0.5,0.6-1.1,1-1.6,1.3
			s-1.3,0.5-2.1,0.5C55.8,461.9,55.2,461.7,54.7,461.4z"/>
		<path class="st10" d="M65.5,461.5c-0.2-0.2-0.3-0.4-0.3-0.6v-13c0-0.3,0.1-0.5,0.3-0.6c0.2-0.2,0.4-0.3,0.6-0.3
			c0.3,0,0.5,0.1,0.7,0.3c0.2,0.2,0.3,0.4,0.3,0.7v13c0,0.3-0.1,0.5-0.3,0.6s-0.4,0.3-0.6,0.3C65.9,461.8,65.7,461.7,65.5,461.5z"/>
		<path class="st10" d="M71.2,461.5c-0.5-0.2-0.9-0.6-1.2-1c-0.3-0.5-0.4-1-0.4-1.6c0-1,0.4-1.8,1.2-2.4c0.8-0.6,1.9-0.9,3.4-0.9
			h2.4v-0.2c0-0.9-0.2-1.5-0.7-1.9c-0.4-0.4-1.1-0.6-2-0.6c-0.5,0-1,0-1.3,0.1c-0.4,0.1-0.8,0.2-1.3,0.4c-0.1,0-0.2,0-0.3,0
			c-0.2,0-0.4-0.1-0.5-0.2c-0.1-0.1-0.2-0.3-0.2-0.5c0-0.4,0.2-0.6,0.5-0.8c1.1-0.5,2.3-0.7,3.5-0.7c0.9,0,1.7,0.2,2.3,0.6
			c0.6,0.4,1.1,0.9,1.4,1.5c0.3,0.6,0.5,1.2,0.5,1.9v5.7c0,0.3-0.1,0.5-0.3,0.6c-0.2,0.2-0.4,0.3-0.7,0.3s-0.5-0.1-0.6-0.3
			c-0.2-0.2-0.3-0.4-0.3-0.6v-0.5c-1,1-2.2,1.5-3.8,1.5C72.3,461.9,71.7,461.8,71.2,461.5z M75.2,459.9c0.5-0.3,1-0.6,1.4-1.1v-1.7
			h-2.2c-2,0-3,0.5-3,1.6c0,0.5,0.2,0.9,0.5,1.2c0.3,0.3,0.9,0.4,1.6,0.4C74.1,460.3,74.7,460.2,75.2,459.9z"/>
		<path class="st10" d="M81.8,461.5c-0.2-0.2-0.3-0.4-0.3-0.6v-8.6c0-0.3,0.1-0.5,0.3-0.7c0.2-0.2,0.4-0.3,0.6-0.3
			c0.3,0,0.5,0.1,0.6,0.3c0.2,0.2,0.3,0.4,0.3,0.7v0.9c0.9-1.3,2-1.9,3.1-1.9h0.1c0.3,0,0.5,0.1,0.6,0.3c0.2,0.2,0.3,0.4,0.3,0.6
			c0,0.3-0.1,0.5-0.3,0.6c-0.2,0.2-0.4,0.2-0.7,0.2h-0.1c-0.6,0-1.2,0.2-1.8,0.5s-1,0.7-1.3,1.3v6.1c0,0.3-0.1,0.5-0.3,0.6
			s-0.4,0.3-0.6,0.3C82.1,461.8,81.9,461.7,81.8,461.5z"/>
		<path class="st12" d="M14.9,486.9c-0.2-0.1-0.3-0.2-0.4-0.3c-0.1-0.2-0.2-0.3-0.2-0.5c0-0.2,0.1-0.4,0.2-0.6
			c0.2-0.2,0.3-0.3,0.6-0.3c0.1,0,0.3,0,0.4,0.1c1.2,0.5,2.5,0.8,3.9,0.8c2.3,0,3.5-0.8,3.5-2.3c0-0.4-0.2-0.7-0.5-1
			c-0.3-0.3-0.7-0.5-1.1-0.6s-1.1-0.3-1.9-0.5c-1.1-0.3-2-0.5-2.6-0.8c-0.7-0.3-1.2-0.7-1.7-1.2c-0.5-0.5-0.7-1.2-0.7-2.1
			c0-0.8,0.2-1.5,0.6-2.1s1-1.1,1.8-1.5c0.8-0.4,1.7-0.5,2.8-0.5c1.5,0,2.8,0.2,4,0.7c0.4,0.1,0.6,0.4,0.6,0.8
			c0,0.2-0.1,0.4-0.2,0.6c-0.1,0.2-0.3,0.3-0.6,0.3c-0.1,0-0.2,0-0.3-0.1c-1-0.4-2.1-0.5-3.2-0.5c-1.1,0-1.9,0.2-2.6,0.6
			c-0.7,0.4-1,1-1,1.7c0,0.5,0.2,0.9,0.5,1.2s0.7,0.5,1.2,0.7c0.5,0.2,1.1,0.3,1.9,0.5c1.1,0.3,1.9,0.5,2.6,0.8
			c0.6,0.3,1.2,0.6,1.7,1.2c0.5,0.5,0.7,1.3,0.7,2.2c0,0.7-0.2,1.4-0.6,2c-0.4,0.6-1,1.1-1.8,1.4s-1.7,0.5-2.7,0.5
			C18,487.9,16.4,487.6,14.9,486.9z"/>
		<path class="st12" d="M28,486.5c-0.9-0.9-1.4-2.2-1.4-3.9c0-0.9,0.2-1.8,0.5-2.6c0.3-0.8,0.9-1.4,1.6-1.9s1.6-0.7,2.7-0.7
			c1,0,1.8,0.2,2.6,0.7s1.3,1.1,1.6,1.8c0.4,0.8,0.6,1.6,0.6,2.5c0,0.3-0.1,0.5-0.3,0.6c-0.2,0.2-0.4,0.3-0.7,0.3h-6.8
			c0.1,0.9,0.5,1.7,1,2.2c0.6,0.5,1.4,0.8,2.5,0.8c0.6,0,1-0.1,1.5-0.2c0.4-0.1,0.8-0.3,1.2-0.5c0.1-0.1,0.2-0.1,0.4-0.1
			c0.2,0,0.4,0.1,0.6,0.2c0.2,0.1,0.2,0.3,0.2,0.6c0,0.3-0.2,0.5-0.5,0.7c-0.5,0.3-1,0.5-1.5,0.7c-0.5,0.1-1.2,0.2-2,0.2
			C30.2,487.9,28.9,487.4,28,486.5z M34.4,481.8c0-0.7-0.2-1.2-0.5-1.6c-0.3-0.4-0.7-0.8-1.1-1c-0.4-0.2-0.9-0.3-1.3-0.3
			c-0.5,0-0.9,0.1-1.3,0.3c-0.4,0.2-0.8,0.5-1.1,1c-0.3,0.4-0.5,1-0.5,1.6H34.4z"/>
		<path class="st12" d="M38.8,487.5c-0.2-0.2-0.3-0.4-0.3-0.6v-8.6c0-0.3,0.1-0.5,0.3-0.7c0.2-0.2,0.4-0.3,0.6-0.3
			c0.3,0,0.5,0.1,0.6,0.3c0.2,0.2,0.3,0.4,0.3,0.7v0.8c0.4-0.5,0.8-1,1.3-1.3c0.5-0.3,1.2-0.5,2-0.5c0.7,0,1.4,0.2,1.9,0.6
			c0.5,0.4,0.9,0.9,1.1,1.5c0.8-1.4,2.1-2.1,3.7-2.1c0.7,0,1.4,0.2,1.9,0.6s0.9,0.9,1.1,1.4c0.2,0.6,0.4,1.2,0.4,1.8v5.8
			c0,0.3-0.1,0.5-0.3,0.6c-0.2,0.2-0.4,0.3-0.7,0.3s-0.5-0.1-0.6-0.3c-0.2-0.2-0.3-0.4-0.3-0.6v-5.4c0-0.9-0.2-1.5-0.5-1.9
			c-0.3-0.4-0.8-0.6-1.6-0.6c-0.7,0-1.2,0.2-1.7,0.5c-0.4,0.4-0.8,0.8-1.2,1.4v6c0,0.3-0.1,0.5-0.3,0.6s-0.4,0.3-0.7,0.3
			s-0.5-0.1-0.6-0.3c-0.2-0.2-0.3-0.4-0.3-0.6v-5.4c0-0.9-0.2-1.5-0.5-1.9c-0.3-0.4-0.8-0.6-1.6-0.6c-0.7,0-1.2,0.2-1.7,0.5
			c-0.4,0.4-0.8,0.8-1.2,1.4v6c0,0.3-0.1,0.5-0.3,0.6s-0.4,0.3-0.6,0.3C39.2,487.8,39,487.7,38.8,487.5z"/>
		<path class="st12" d="M57.1,475.1c-0.2-0.2-0.3-0.4-0.3-0.7v-0.1c0-0.3,0.1-0.5,0.3-0.7c0.2-0.2,0.4-0.3,0.7-0.3h0.1
			c0.3,0,0.5,0.1,0.7,0.3c0.2,0.2,0.3,0.4,0.3,0.7v0.1c0,0.3-0.1,0.5-0.3,0.7s-0.4,0.3-0.7,0.3h-0.1
			C57.5,475.4,57.3,475.3,57.1,475.1z M57.2,487.5c-0.2-0.2-0.3-0.4-0.3-0.6v-8.6c0-0.3,0.1-0.5,0.3-0.7c0.2-0.2,0.4-0.3,0.6-0.3
			c0.3,0,0.5,0.1,0.7,0.3c0.2,0.2,0.3,0.4,0.3,0.7v8.6c0,0.3-0.1,0.5-0.3,0.6s-0.4,0.3-0.6,0.3C57.6,487.8,57.3,487.7,57.2,487.5z"
			/>
		<path class="st12" d="M63.7,486.4v0.5c0,0.3-0.1,0.5-0.3,0.6s-0.4,0.3-0.6,0.3c-0.3,0-0.5-0.1-0.6-0.3s-0.3-0.4-0.3-0.6v-13
			c0-0.3,0.1-0.5,0.3-0.6c0.2-0.2,0.4-0.3,0.6-0.3c0.3,0,0.5,0.1,0.7,0.3c0.2,0.2,0.3,0.4,0.3,0.7v4.9c1-1,2.1-1.5,3.4-1.5
			c0.8,0,1.6,0.2,2.3,0.6c0.7,0.4,1.3,1,1.8,1.8s0.7,1.8,0.7,2.8s-0.2,2-0.7,2.8s-1.1,1.4-1.8,1.8s-1.5,0.6-2.3,0.6
			C65.8,487.9,64.7,487.4,63.7,486.4z M69.3,485.3c0.6-0.6,0.9-1.5,0.9-2.7s-0.3-2-0.9-2.7c-0.6-0.6-1.4-0.9-2.4-0.9
			c-0.6,0-1.2,0.1-1.7,0.4s-1,0.6-1.4,1.1v4.2c0.4,0.5,0.9,0.8,1.4,1.1s1.1,0.4,1.7,0.4C67.9,486.2,68.7,485.9,69.3,485.3z"/>
		<path class="st12" d="M76.3,487.2c-0.8-0.4-1.4-1.1-1.8-1.9s-0.6-1.7-0.6-2.8s0.2-2,0.6-2.8s1-1.4,1.8-1.9
			c0.8-0.4,1.7-0.7,2.7-0.7c1,0,1.9,0.2,2.7,0.7c0.8,0.4,1.4,1.1,1.8,1.9s0.6,1.7,0.6,2.8s-0.2,2-0.6,2.8s-1,1.4-1.8,1.9
			s-1.7,0.7-2.7,0.7C78,487.9,77.1,487.7,76.3,487.2z M80.6,485.9c0.5-0.3,0.9-0.7,1.2-1.2c0.3-0.5,0.5-1.2,0.5-2.1
			c0-0.8-0.2-1.5-0.5-2.1c-0.3-0.5-0.7-0.9-1.2-1.2c-0.5-0.2-1-0.4-1.6-0.4c-0.6,0-1.1,0.1-1.6,0.4c-0.5,0.2-0.9,0.6-1.2,1.2
			c-0.3,0.5-0.5,1.2-0.5,2.1c0,0.8,0.2,1.5,0.5,2.1c0.3,0.5,0.7,0.9,1.2,1.2s1,0.4,1.6,0.4C79.6,486.2,80.1,486.1,80.6,485.9z"/>
		<path class="st12" d="M86.9,487.5c-0.2-0.2-0.3-0.4-0.3-0.6v-13c0-0.3,0.1-0.5,0.3-0.6c0.2-0.2,0.4-0.3,0.6-0.3
			c0.3,0,0.5,0.1,0.7,0.3c0.2,0.2,0.3,0.4,0.3,0.7v13c0,0.3-0.1,0.5-0.3,0.6s-0.4,0.3-0.6,0.3C87.3,487.8,87.1,487.7,86.9,487.5z"/>
		<path class="st12" d="M93.5,487.3c-0.7-0.4-1.3-1-1.8-1.8s-0.7-1.8-0.7-2.8s0.2-2,0.7-2.8s1.1-1.4,1.8-1.8
			c0.7-0.4,1.5-0.6,2.3-0.6c1.3,0,2.4,0.5,3.4,1.5v-4.9c0-0.3,0.1-0.5,0.3-0.7c0.2-0.2,0.4-0.3,0.6-0.3c0.3,0,0.5,0.1,0.6,0.3
			c0.2,0.2,0.3,0.4,0.3,0.6v13c0,0.3-0.1,0.5-0.3,0.6c-0.2,0.2-0.4,0.3-0.6,0.3c-0.3,0-0.5-0.1-0.6-0.3c-0.2-0.2-0.3-0.4-0.3-0.6
			v-0.5c-1,1-2.1,1.5-3.4,1.5C95,487.9,94.3,487.7,93.5,487.3z M97.9,485.8c0.5-0.3,1-0.6,1.4-1.1v-4.2c-0.4-0.5-0.9-0.8-1.4-1.1
			s-1.1-0.4-1.7-0.4c-1,0-1.8,0.3-2.4,0.9c-0.6,0.6-0.9,1.5-0.9,2.7s0.3,2,0.9,2.7c0.6,0.6,1.4,0.9,2.4,0.9
			C96.7,486.2,97.3,486.1,97.9,485.8z"/>
		<path class="st13" d="M15.5,513.4c-0.2-0.2-0.3-0.4-0.3-0.6v-12.1c0-0.3,0.1-0.5,0.3-0.7c0.2-0.2,0.4-0.3,0.6-0.3h4.7
			c1.4,0,2.5,0.3,3.3,1c0.8,0.7,1.2,1.5,1.2,2.6c0,0.8-0.2,1.4-0.5,1.9c-0.4,0.5-0.8,0.9-1.4,1.2c0.8,0.3,1.5,0.7,2,1.2
			s0.8,1.3,0.8,2.1c0,1.2-0.4,2.2-1.2,2.9c-0.8,0.7-2.1,1-3.9,1h-4.8C15.9,513.7,15.7,513.6,15.5,513.4z M20.4,505.8
			c1.2,0,2-0.2,2.5-0.6c0.5-0.4,0.7-1,0.7-1.7c0-0.6-0.3-1.1-0.8-1.5c-0.5-0.4-1.2-0.6-2.1-0.6h-3.7v4.3H20.4z M20.8,512
			c1.3,0,2.2-0.2,2.8-0.6c0.5-0.4,0.8-1,0.8-1.7c0-1.5-1.2-2.3-3.5-2.3h-3.8v4.6H20.8z"/>
		<path class="st13" d="M30.5,513.2c-0.8-0.4-1.4-1.1-1.8-1.9s-0.6-1.7-0.6-2.8s0.2-2,0.6-2.8s1-1.4,1.8-1.9
			c0.8-0.4,1.7-0.7,2.7-0.7c1,0,1.9,0.2,2.7,0.7c0.8,0.4,1.4,1.1,1.8,1.9s0.6,1.7,0.6,2.8s-0.2,2-0.6,2.8s-1,1.4-1.8,1.9
			s-1.7,0.7-2.7,0.7C32.1,513.9,31.2,513.7,30.5,513.2z M34.7,511.9c0.5-0.3,0.9-0.7,1.2-1.2c0.3-0.5,0.5-1.2,0.5-2.1
			c0-0.8-0.2-1.5-0.5-2.1c-0.3-0.5-0.7-0.9-1.2-1.2c-0.5-0.2-1-0.4-1.6-0.4c-0.6,0-1.1,0.1-1.6,0.4c-0.5,0.2-0.9,0.6-1.2,1.2
			c-0.3,0.5-0.5,1.2-0.5,2.1c0,0.8,0.2,1.5,0.5,2.1c0.3,0.5,0.7,0.9,1.2,1.2s1,0.4,1.6,0.4C33.7,512.2,34.2,512.1,34.7,511.9z"/>
		<path class="st13" d="M41.1,513.5c-0.2-0.2-0.3-0.4-0.3-0.6v-13c0-0.3,0.1-0.5,0.3-0.6c0.2-0.2,0.4-0.3,0.6-0.3
			c0.3,0,0.5,0.1,0.7,0.3c0.2,0.2,0.3,0.4,0.3,0.7v13c0,0.3-0.1,0.5-0.3,0.6s-0.4,0.3-0.6,0.3C41.5,513.8,41.3,513.7,41.1,513.5z"/>
		<path class="st13" d="M47.7,513.3c-0.7-0.4-1.3-1-1.8-1.8s-0.7-1.8-0.7-2.8s0.2-2,0.7-2.8s1.1-1.4,1.8-1.8
			c0.7-0.4,1.5-0.6,2.3-0.6c1.3,0,2.4,0.5,3.4,1.5v-4.9c0-0.3,0.1-0.5,0.3-0.7c0.2-0.2,0.4-0.3,0.6-0.3c0.3,0,0.5,0.1,0.6,0.3
			c0.2,0.2,0.3,0.4,0.3,0.6v13c0,0.3-0.1,0.5-0.3,0.6c-0.2,0.2-0.4,0.3-0.6,0.3c-0.3,0-0.5-0.1-0.6-0.3c-0.2-0.2-0.3-0.4-0.3-0.6
			v-0.5c-1,1-2.1,1.5-3.4,1.5C49.2,513.9,48.4,513.7,47.7,513.3z M52,511.8c0.5-0.3,1-0.6,1.4-1.1v-4.2c-0.4-0.5-0.9-0.8-1.4-1.1
			s-1.1-0.4-1.7-0.4c-1,0-1.8,0.3-2.4,0.9c-0.6,0.6-0.9,1.5-0.9,2.7s0.3,2,0.9,2.7c0.6,0.6,1.4,0.9,2.4,0.9
			C50.9,512.2,51.5,512.1,52,511.8z"/>
	</g>
	<g>
		<path class="st10" d="M382.8-88v5.6h-2v-14h7.2l2.3,1.3v5.7L388-88l3.2,5.6H389l-3.2-5.6H382.8z M382.8-89.8h5.5v-4.8h-5.5V-89.8z
			"/>
		<path class="st10" d="M401.6-82.4H396l-2.3-1.3v-7.4l2.3-1.3h3.3l2.3,1.3v4.4h-6v2.6h6V-82.4z M395.6-88.5h4v-2.3h-4V-88.5z"/>
		<path class="st10" d="M404.8-83.5v-1.8l1.4-0.8l-1.4-0.8v-4.1l2.3-1.3h6.4v0.7l-1.8,1.1l1.2,0.7v2.8l-2.3,1.3h-3.8v1.7h4.4
			l2.3,1.3v3.2l-2.3,1.3h-4.5l-2.3-1.3v-1.2l1.9-1.1v2h5.2v-2.4h-4.8L404.8-83.5z M406.7-87.5h4.2v-3.2h-4.2V-87.5z"/>
		<path class="st10" d="M416.3-92.4h1.9v8.4h4.6v-8.4h1.9v10.1h-1.5l-0.5-0.8l-1.4,0.8h-2.8l-2.3-1.3V-92.4z"/>
		<path class="st10" d="M428-83.7V-97h1.9v12.9h2.4v1.7h-2L428-83.7z"/>
		<path class="st10" d="M433.9-83.6v-3.3l2.3-1.3h3.6v-2.4h-5v-1.7h4.6l2.3,1.3v8.8h-0.5l-1.4-0.8l-1.4,0.8h-2.2L433.9-83.6z
			 M435.9-84h4v-2.5h-4V-84z"/>
		<path class="st10" d="M447-90.7v8.3H445v-10h1.5l0.5,0.8l1.4-0.8h2.2v1.7H447z"/>
		<path class="st10" d="M475.5-89.7L475.5-89.7l1.7,1v4.9l-2.3,1.3h-7.6v-14h7.6l2.3,1.3v4.4L475.5-89.7z M470.1-90.8h4.3V-94h-4.3
			V-90.8z M470.1-84.8h4.3v-3.6h-4.3V-84.8z"/>
		<path class="st10" d="M487-82.3h-4.3l-2.3-1.3v-7.5l2.3-1.3h4.3l2.3,1.3v7.5L487-82.3z M483.2-84.6h3.4v-5.5h-3.4V-84.6z"/>
		<path class="st10" d="M492.3-83.7V-97h2.7v12.3h2v2.3h-2.4L492.3-83.7z"/>
		<path class="st10" d="M503.8-92.5l1.4,0.8V-97h2.7v14.7h-2.3l-0.5-0.8l-1.4,0.8h-2.6l-2.3-1.3v-7.5l2.3-1.3H503.8z M505.2-90.2
			h-3.6v5.5h3.6V-90.2z"/>
	</g>
	<g>
		<path class="st10" d="M380.9,302.7v-13c0-0.2,0-0.4,0.1-0.5c0.1-0.1,0.2-0.1,0.5-0.1h3.4c1.6,0,2.8,0.3,3.6,0.8
			c0.8,0.6,1.2,1.5,1.2,2.7c0,0.8-0.2,1.5-0.6,2.1c-0.4,0.6-1,1-1.7,1.3v0.1c0.4,0.1,0.7,0.4,1,0.8c0.3,0.4,0.5,1,0.8,1.7l1.6,3.9
			c0,0.1,0.1,0.2,0.1,0.3c0,0.2-0.3,0.3-0.8,0.3h-0.2c-0.2,0-0.4,0-0.5-0.1c-0.1-0.1-0.2-0.1-0.3-0.2l-1.5-3.9
			c-0.3-0.8-0.7-1.3-1.1-1.5c-0.4-0.3-1.1-0.4-1.9-0.4h-1.8v5.8c0,0.3-0.3,0.4-0.8,0.4h-0.2C381.2,303.1,380.9,303,380.9,302.7z
			 M385.3,295.4c0.5,0,0.9-0.1,1.3-0.3s0.7-0.5,0.9-0.9s0.3-0.8,0.3-1.2c0-0.8-0.2-1.4-0.7-1.8c-0.5-0.4-1.1-0.6-2-0.6h-2.5v4.8
			H385.3z"/>
		<path class="st10" d="M393.5,301.9c-0.8-0.9-1.2-2.2-1.2-4c0-1.8,0.4-3.1,1.2-4c0.8-0.9,1.9-1.4,3.5-1.4c1.4,0,2.4,0.4,3.1,1.3
			s1,2.2,1,3.9c0,0.1-0.1,0.3-0.2,0.5c-0.2,0.2-0.3,0.3-0.4,0.3h-6.3c0.1,1.1,0.4,1.9,0.9,2.4c0.5,0.5,1.2,0.8,2.2,0.8
			c0.6,0,1-0.1,1.4-0.2c0.4-0.1,0.7-0.3,1-0.4c0.3-0.1,0.4-0.2,0.5-0.2c0.1,0,0.3,0.1,0.4,0.4c0.2,0.3,0.3,0.5,0.3,0.6
			c0,0.2-0.2,0.3-0.5,0.6c-0.3,0.2-0.8,0.4-1.3,0.5c-0.6,0.1-1.1,0.2-1.8,0.2C395.5,303.2,394.3,302.8,393.5,301.9z M399.3,297.1
			c0-2.1-0.8-3.2-2.4-3.2c-1.7,0-2.7,1.1-2.8,3.2H399.3z"/>
		<path class="st10" d="M404,306.7c-0.7-0.4-1.1-1-1.1-1.9c0-0.6,0.2-1.1,0.5-1.5c0.3-0.4,0.8-0.8,1.3-1l0,0c-0.5-0.4-0.8-1-0.8-1.6
			c0-0.9,0.4-1.6,1.1-2.1c-0.6-0.3-1-0.7-1.3-1.2c-0.3-0.5-0.4-1-0.4-1.7c0-0.9,0.3-1.7,1-2.3c0.7-0.6,1.7-0.9,2.9-0.9
			c0.4,0,0.8,0,1.2,0.1h3.6c0.1,0,0.3,0,0.3,0.1c0.1,0.1,0.1,0.2,0.1,0.5v0.2c0,0.2,0,0.4-0.1,0.5c-0.1,0.1-0.2,0.1-0.3,0.1
			c-0.5,0-1,0-1.4-0.1l0,0c0.3,0.5,0.5,1.1,0.5,1.7c0,1-0.3,1.7-1,2.4c-0.7,0.6-1.7,0.9-2.9,0.9c-0.6,0-1.1,0.1-1.4,0.3
			c-0.3,0.2-0.5,0.6-0.5,1c0,0.3,0.1,0.6,0.3,0.8c0.2,0.2,0.5,0.3,0.8,0.4s0.8,0.2,1.4,0.2c0.3,0,0.5,0.1,0.7,0.1
			c1,0.1,1.7,0.3,2.2,0.7c0.5,0.3,0.8,0.9,0.8,1.7c0,1-0.4,1.7-1.2,2.2s-1.9,0.8-3.4,0.8C405.8,307.3,404.7,307.1,404,306.7z
			 M409.3,305.6c0.4-0.2,0.7-0.6,0.7-1.1c0-0.5-0.2-0.8-0.7-0.9c-0.4-0.2-1.1-0.3-2-0.4c-0.8-0.1-1.3-0.2-1.6-0.3
			c-0.9,0.4-1.3,0.9-1.3,1.6c0,1,1,1.4,2.9,1.4C408.2,306,408.9,305.8,409.3,305.6z M409,297.3c0.4-0.3,0.6-0.8,0.6-1.5
			c0-1.3-0.8-1.9-2.4-1.9c-1.6,0-2.4,0.6-2.4,1.9c0,1.3,0.8,1.9,2.4,1.9C408,297.7,408.6,297.6,409,297.3z"/>
		<path class="st10" d="M415.3,302.3c-0.6-0.6-0.9-1.4-0.9-2.4V293c0-0.3,0.3-0.4,0.8-0.4h0.1c0.5,0,0.8,0.1,0.8,0.4v6.8
			c0,0.6,0.2,1.1,0.5,1.4s0.9,0.5,1.5,0.5c0.5,0,0.9-0.1,1.4-0.4c0.4-0.3,0.8-0.6,1.2-1V293c0-0.3,0.3-0.4,0.8-0.4h0.1
			c0.5,0,0.8,0.1,0.8,0.4v7.1c0,0.9,0,1.5,0.1,1.9c0.1,0.4,0.1,0.6,0.1,0.6c0,0.2-0.1,0.3-0.4,0.3c-0.3,0.1-0.5,0.1-0.7,0.1
			c-0.2,0-0.3-0.1-0.4-0.3c-0.1-0.2-0.2-0.4-0.2-0.6s-0.1-0.4-0.1-0.4c-0.4,0.5-0.9,0.8-1.5,1.1c-0.5,0.3-1.1,0.4-1.7,0.4
			C416.6,303.2,415.8,302.9,415.3,302.3z"/>
		<path class="st10" d="M426.5,302.6c-0.5-0.4-0.8-1.1-0.8-2.2v-12c0-0.3,0.3-0.4,0.8-0.4h0.1c0.5,0,0.8,0.1,0.8,0.4v11.8
			c0,0.6,0.1,0.9,0.3,1.2c0.2,0.2,0.5,0.3,0.8,0.3c0.3,0,0.4,0,0.6,0c0.1,0,0.2,0,0.3,0c0.1,0,0.2,0.1,0.3,0.4
			c0.1,0.2,0.1,0.4,0.1,0.6c0,0.4-0.5,0.6-1.5,0.6C427.6,303.2,427,303,426.5,302.6z"/>
		<path class="st10" d="M431.9,302.4c-0.6-0.5-0.9-1.3-0.9-2.2c0-1.1,0.3-1.8,0.9-2.4c0.6-0.5,1.4-0.9,2.3-1c0.9-0.2,2-0.2,3.4-0.3
			v-0.9c0-0.5-0.2-0.9-0.5-1.2c-0.3-0.3-0.9-0.5-1.7-0.5c-0.6,0-1.1,0.1-1.5,0.2c-0.4,0.1-0.8,0.3-1.1,0.4c-0.3,0.1-0.5,0.2-0.5,0.2
			c-0.1,0-0.3-0.1-0.5-0.4c-0.2-0.3-0.3-0.5-0.3-0.6c0-0.2,0.2-0.4,0.5-0.6c0.4-0.2,0.8-0.4,1.4-0.5s1.2-0.2,1.8-0.2
			c1.2,0,2.2,0.3,2.9,0.8s1,1.3,1,2.3v4.5c0,0.9,0,1.5,0.1,1.9c0.1,0.4,0.1,0.6,0.1,0.6c0,0.2-0.1,0.3-0.4,0.3
			c-0.3,0.1-0.5,0.1-0.7,0.1c-0.2,0-0.3-0.1-0.4-0.3c-0.1-0.2-0.2-0.4-0.2-0.6s-0.1-0.4-0.1-0.4c-0.9,1-2,1.5-3.4,1.5
			C433.4,303.2,432.5,302.9,431.9,302.4z M436.1,301.4c0.5-0.2,1-0.6,1.5-1V298c-1,0-1.8,0.1-2.5,0.1c-0.6,0.1-1.2,0.3-1.7,0.6
			s-0.7,0.8-0.7,1.4c0,0.5,0.1,0.9,0.4,1.2c0.3,0.3,0.7,0.4,1.3,0.4C435.1,301.7,435.7,301.6,436.1,301.4z"/>
		<path class="st10" d="M442.7,302.7v-7c0-0.9,0-1.5-0.1-1.9c-0.1-0.4-0.1-0.6-0.1-0.6c0-0.2,0.1-0.3,0.4-0.4
			c0.3-0.1,0.5-0.1,0.7-0.1c0.2,0,0.3,0.1,0.4,0.3s0.2,0.4,0.2,0.6s0.1,0.4,0.1,0.4c0.7-1,1.5-1.5,2.3-1.5c0.4,0,0.7,0.1,0.9,0.2
			c0.2,0.1,0.3,0.3,0.3,0.6s0,0.5-0.1,0.7s-0.2,0.4-0.3,0.4c-0.1,0-0.2,0-0.4-0.1c-0.2-0.1-0.4-0.1-0.7-0.1c-0.3,0-0.6,0.1-0.9,0.3
			c-0.3,0.2-0.5,0.4-0.7,0.6s-0.3,0.3-0.3,0.4v7.3c0,0.3-0.3,0.4-0.8,0.4h-0.1C442.9,303.1,442.7,303,442.7,302.7z"/>
		<path class="st10" d="M469.1,302.9c-0.1-0.1-0.2-0.3-0.2-0.6v-12.4c0-0.3,0.1-0.5,0.2-0.6c0.1-0.1,0.3-0.2,0.6-0.2h4
			c1.6,0,2.8,0.3,3.6,0.9c0.8,0.6,1.1,1.5,1.1,2.6c0,0.7-0.2,1.3-0.6,1.8c-0.4,0.6-0.9,1-1.5,1.2l0,0.1c0.8,0.2,1.4,0.6,1.9,1.2
			s0.8,1.3,0.8,2.1c0,1.3-0.4,2.3-1.3,3c-0.8,0.7-2.1,1-3.8,1h-4.2C469.4,303.1,469.2,303,469.1,302.9z M473.4,294.7
			c0.6,0,1-0.1,1.4-0.4c0.3-0.3,0.5-0.6,0.5-1.1c0-1-0.6-1.5-1.8-1.5H472v3H473.4z M474,300.5c0.6,0,1-0.1,1.4-0.4s0.5-0.7,0.5-1.2
			s-0.2-0.9-0.6-1.2s-0.9-0.4-1.6-0.4H472v3.2H474z"/>
		<path class="st10" d="M481.3,301.8c-0.8-0.9-1.2-2.3-1.2-4c0-1.7,0.4-3.1,1.2-4c0.8-0.9,2-1.4,3.6-1.4c1.6,0,2.8,0.5,3.6,1.4
			c0.8,0.9,1.2,2.3,1.2,4c0,1.7-0.4,3.1-1.2,4c-0.8,0.9-2,1.4-3.6,1.4C483.4,303.2,482.2,302.8,481.3,301.8z M486.3,300.1
			c0.3-0.5,0.5-1.3,0.5-2.3c0-1-0.2-1.8-0.5-2.3c-0.3-0.5-0.8-0.8-1.4-0.8c-0.6,0-1.1,0.3-1.4,0.8c-0.3,0.5-0.5,1.3-0.5,2.3
			c0,2,0.6,3.1,1.9,3.1C485.6,300.9,486,300.6,486.3,300.1z"/>
		<path class="st10" d="M491.9,300v-11.4c0-0.4,0.4-0.6,1.2-0.6h0.6c0.8,0,1.2,0.2,1.2,0.6V300c0,0.3,0.1,0.5,0.2,0.7
			s0.3,0.2,0.6,0.2c0.1,0,0.2,0,0.3,0c0.1,0,0.2,0,0.3,0c0.1,0,0.2,0.1,0.3,0.3c0.1,0.2,0.2,0.4,0.2,0.7c0.1,0.2,0.1,0.4,0.1,0.5
			c0,0.7-0.6,1-1.9,1C492.9,303.2,491.9,302.2,491.9,300z"/>
		<path class="st10" d="M499.2,302.6c-0.6-0.4-1-1-1.3-1.8c-0.3-0.8-0.5-1.8-0.5-2.9c0-1.7,0.4-3,1.1-3.9s1.8-1.5,3.1-1.5
			c0.8,0,1.5,0.2,2,0.6v-4.4c0-0.4,0.4-0.6,1.2-0.6h0.6c0.8,0,1.2,0.2,1.2,0.6v10.9c0,0.6,0,1.1,0.1,1.4c0,0.3,0.1,0.7,0.1,1.1
			c0,0.2,0.1,0.3,0.1,0.4c0,0.2-0.3,0.4-0.8,0.5c-0.5,0.1-1,0.2-1.4,0.2c-0.2,0-0.4-0.1-0.5-0.3c-0.1-0.2-0.2-0.4-0.2-0.6
			c0-0.2-0.1-0.4-0.1-0.4c-0.2,0.4-0.6,0.8-1.1,1.1c-0.5,0.3-1,0.4-1.6,0.4C500.4,303.2,499.8,303,499.2,302.6z M503.7,299.6v-4.5
			c-0.5-0.3-0.9-0.4-1.4-0.4c-1.2,0-1.9,1-1.9,3c0,2,0.5,3,1.6,3C502.7,300.8,503.2,300.4,503.7,299.6z"/>
	</g>
	<g>
		<path class="st10" d="M382.1,87h6.7v0.9h-7.7V73.7h1V87z"/>
		<path class="st10" d="M392.5,74.5c0,0.1,0,0.2-0.1,0.3c-0.1,0.1-0.1,0.2-0.2,0.3s-0.2,0.1-0.3,0.2c-0.1,0-0.2,0.1-0.3,0.1
			s-0.2,0-0.3-0.1c-0.1,0-0.2-0.1-0.3-0.2s-0.1-0.2-0.2-0.3c0-0.1-0.1-0.2-0.1-0.3s0-0.2,0.1-0.3c0-0.1,0.1-0.2,0.2-0.3
			c0.1-0.1,0.2-0.1,0.3-0.2c0.1,0,0.2-0.1,0.3-0.1s0.2,0,0.3,0.1c0.1,0,0.2,0.1,0.3,0.2c0.1,0.1,0.1,0.2,0.2,0.3
			C392.5,74.2,392.5,74.4,392.5,74.5z M392.1,77.9v10h-0.9v-10H392.1z"/>
		<path class="st10" d="M398.9,77.7c0.4,0,0.8,0.1,1.2,0.2c0.4,0.1,0.7,0.3,1,0.5h2.6v0.3c0,0.2-0.1,0.3-0.3,0.3l-1.5,0.1
			c0.2,0.3,0.3,0.5,0.4,0.9c0.1,0.3,0.2,0.7,0.2,1c0,0.5-0.1,0.9-0.3,1.3c-0.2,0.4-0.4,0.7-0.7,1c-0.3,0.3-0.7,0.5-1.1,0.6
			s-0.9,0.2-1.4,0.2c-0.6,0-1.1-0.1-1.6-0.3c-0.3,0.2-0.5,0.3-0.7,0.6c-0.2,0.2-0.2,0.4-0.2,0.6c0,0.3,0.1,0.5,0.3,0.7
			c0.2,0.2,0.5,0.3,0.8,0.3c0.3,0.1,0.7,0.1,1.1,0.1c0.4,0,0.9,0,1.3,0.1s0.9,0.1,1.3,0.1c0.4,0.1,0.8,0.2,1.1,0.3s0.6,0.4,0.8,0.6
			s0.3,0.6,0.3,1.1c0,0.4-0.1,0.8-0.3,1.2c-0.2,0.4-0.5,0.7-0.9,1c-0.4,0.3-0.9,0.5-1.4,0.7c-0.6,0.2-1.2,0.3-1.9,0.3
			c-0.7,0-1.3-0.1-1.8-0.2c-0.5-0.1-1-0.3-1.3-0.6c-0.4-0.2-0.6-0.5-0.8-0.8c-0.2-0.3-0.3-0.7-0.3-1c0-0.5,0.2-1,0.5-1.4
			s0.8-0.7,1.4-0.9c-0.3-0.1-0.6-0.3-0.8-0.5c-0.2-0.2-0.3-0.5-0.3-0.9c0-0.1,0-0.3,0.1-0.4c0.1-0.2,0.1-0.3,0.2-0.5
			c0.1-0.2,0.2-0.3,0.4-0.4c0.1-0.1,0.3-0.3,0.5-0.4c-0.5-0.3-0.8-0.6-1.1-1.1c-0.3-0.5-0.4-1-0.4-1.6c0-0.5,0.1-0.9,0.3-1.3
			c0.2-0.4,0.4-0.7,0.7-1c0.3-0.3,0.7-0.5,1.1-0.6C397.9,77.8,398.3,77.7,398.9,77.7z M402.6,88.5c0-0.3-0.1-0.6-0.2-0.8
			s-0.4-0.3-0.7-0.4c-0.3-0.1-0.6-0.2-0.9-0.2S400,87,399.6,87s-0.8,0-1.2-0.1s-0.8-0.1-1.1-0.1c-0.3,0.1-0.5,0.2-0.7,0.3
			c-0.2,0.1-0.4,0.3-0.6,0.4c-0.2,0.2-0.3,0.3-0.4,0.5c-0.1,0.2-0.1,0.4-0.1,0.6c0,0.3,0.1,0.6,0.2,0.8c0.1,0.3,0.4,0.5,0.7,0.6
			c0.3,0.2,0.6,0.3,1.1,0.4c0.4,0.1,0.9,0.2,1.5,0.2c0.5,0,1-0.1,1.4-0.2s0.8-0.3,1.1-0.5c0.3-0.2,0.6-0.5,0.8-0.7
			C402.5,89.2,402.6,88.9,402.6,88.5z M398.9,83.5c0.4,0,0.8-0.1,1.1-0.2s0.6-0.3,0.8-0.5c0.2-0.2,0.4-0.5,0.5-0.8
			c0.1-0.3,0.2-0.6,0.2-1c0-0.4-0.1-0.7-0.2-1s-0.3-0.6-0.5-0.8c-0.2-0.2-0.5-0.4-0.8-0.5c-0.3-0.1-0.7-0.2-1.1-0.2
			s-0.8,0.1-1.1,0.2c-0.3,0.1-0.6,0.3-0.8,0.5c-0.2,0.2-0.4,0.5-0.5,0.8c-0.1,0.3-0.2,0.7-0.2,1c0,0.4,0.1,0.7,0.2,1
			c0.1,0.3,0.3,0.6,0.5,0.8c0.2,0.2,0.5,0.4,0.8,0.5C398.1,83.4,398.5,83.5,398.9,83.5z"/>
		<path class="st10" d="M405.7,87.9V73.3h1v6.3c0.5-0.6,1-1,1.6-1.4c0.6-0.3,1.3-0.5,2-0.5c0.5,0,1,0.1,1.4,0.3
			c0.4,0.2,0.8,0.4,1,0.8c0.3,0.3,0.5,0.7,0.6,1.2c0.1,0.5,0.2,1,0.2,1.6v6.4h-1v-6.4c0-0.9-0.2-1.7-0.6-2.2c-0.4-0.5-1.1-0.8-2-0.8
			c-0.7,0-1.3,0.2-1.8,0.5c-0.6,0.3-1.1,0.8-1.5,1.4v7.5H405.7z"/>
		<path class="st10" d="M419.2,88c-0.7,0-1.2-0.2-1.6-0.6s-0.6-1-0.6-1.7v-6.8h-1.4c-0.1,0-0.1,0-0.2-0.1c0,0-0.1-0.1-0.1-0.2v-0.4
			l1.7-0.1l0.2-3.6c0-0.1,0-0.1,0.1-0.2c0,0,0.1-0.1,0.2-0.1h0.4v3.8h3.1v0.7H418v6.8c0,0.3,0,0.5,0.1,0.7c0.1,0.2,0.2,0.4,0.3,0.5
			c0.1,0.1,0.3,0.2,0.4,0.3c0.2,0.1,0.3,0.1,0.5,0.1c0.2,0,0.4,0,0.6-0.1c0.2-0.1,0.3-0.1,0.5-0.2c0.1-0.1,0.2-0.2,0.3-0.2
			s0.1-0.1,0.2-0.1c0.1,0,0.1,0,0.2,0.1l0.3,0.4c-0.3,0.3-0.6,0.5-1,0.7C420,87.9,419.6,88,419.2,88z"/>
		<path class="st10" d="M437.5,81.9v6h-1.9V73.5h4c0.9,0,1.7,0.1,2.3,0.3c0.7,0.2,1.2,0.4,1.6,0.8c0.4,0.3,0.7,0.8,1,1.3
			c0.2,0.5,0.3,1,0.3,1.6c0,0.5-0.1,1-0.2,1.4s-0.4,0.8-0.7,1.2c-0.3,0.4-0.7,0.6-1.1,0.9c-0.4,0.2-0.9,0.4-1.5,0.6
			c0.2,0.1,0.5,0.3,0.6,0.6l4.2,5.7h-1.7c-0.4,0-0.6-0.1-0.8-0.4l-3.7-5.1c-0.1-0.2-0.2-0.3-0.4-0.3c-0.1-0.1-0.3-0.1-0.6-0.1H437.5
			z M437.5,80.5h2c0.6,0,1.1-0.1,1.5-0.2c0.4-0.1,0.8-0.3,1.1-0.6s0.5-0.5,0.7-0.9s0.2-0.7,0.2-1.2c0-0.9-0.3-1.5-0.8-1.9
			c-0.6-0.4-1.4-0.6-2.5-0.6h-2.1V80.5z"/>
		<path class="st10" d="M451.9,77.6c0.6,0,1.2,0.1,1.7,0.3c0.5,0.2,1,0.5,1.3,0.9c0.4,0.4,0.7,0.9,0.9,1.4c0.2,0.6,0.3,1.2,0.3,1.9
			c0,0.3,0,0.5-0.1,0.6c-0.1,0.1-0.2,0.1-0.3,0.1H449c0,0.6,0.1,1.2,0.3,1.7c0.2,0.5,0.4,0.9,0.7,1.2c0.3,0.3,0.6,0.6,1,0.7
			c0.4,0.2,0.8,0.2,1.3,0.2c0.4,0,0.8-0.1,1.2-0.2c0.3-0.1,0.6-0.2,0.8-0.3s0.4-0.2,0.6-0.3s0.3-0.2,0.4-0.2c0.1,0,0.3,0.1,0.3,0.2
			l0.5,0.6c-0.2,0.3-0.5,0.5-0.8,0.7c-0.3,0.2-0.6,0.4-1,0.5c-0.3,0.1-0.7,0.2-1.1,0.3c-0.4,0.1-0.7,0.1-1.1,0.1
			c-0.7,0-1.3-0.1-1.9-0.4c-0.6-0.2-1.1-0.6-1.5-1c-0.4-0.5-0.8-1-1-1.7c-0.2-0.7-0.4-1.4-0.4-2.3c0-0.7,0.1-1.4,0.3-2
			c0.2-0.6,0.5-1.1,0.9-1.6c0.4-0.4,0.9-0.8,1.5-1.1C450.6,77.7,451.2,77.6,451.9,77.6z M452,78.9c-0.9,0-1.5,0.2-2,0.7
			c-0.5,0.5-0.8,1.2-0.9,2.1h5.5c0-0.4-0.1-0.8-0.2-1.1c-0.1-0.3-0.3-0.6-0.5-0.9c-0.2-0.3-0.5-0.4-0.8-0.6S452.4,78.9,452,78.9z"/>
		<path class="st10" d="M461.8,77.6c0.4,0,0.9,0,1.2,0.1c0.4,0.1,0.7,0.2,1,0.4h2.8v0.7c0,0.2-0.1,0.4-0.4,0.4l-1.2,0.2
			c0.2,0.4,0.3,0.9,0.3,1.5c0,0.5-0.1,0.9-0.3,1.3c-0.2,0.4-0.5,0.7-0.8,1c-0.3,0.3-0.7,0.5-1.2,0.7c-0.5,0.2-1,0.2-1.5,0.2
			c-0.5,0-0.9-0.1-1.3-0.2c-0.2,0.1-0.4,0.3-0.5,0.4c-0.1,0.2-0.2,0.3-0.2,0.5c0,0.2,0.1,0.4,0.3,0.6s0.5,0.2,0.8,0.3
			c0.3,0.1,0.7,0.1,1.1,0.1c0.4,0,0.8,0,1.2,0c0.4,0,0.8,0,1.2,0.1c0.4,0.1,0.8,0.2,1.1,0.4c0.3,0.2,0.6,0.4,0.8,0.7
			s0.3,0.7,0.3,1.2c0,0.4-0.1,0.9-0.3,1.3s-0.5,0.8-0.9,1.1c-0.4,0.3-0.9,0.6-1.5,0.8s-1.3,0.3-2,0.3c-0.7,0-1.4-0.1-1.9-0.2
			s-1-0.3-1.4-0.6c-0.4-0.2-0.6-0.5-0.8-0.9c-0.2-0.3-0.3-0.7-0.3-1c0-0.5,0.2-0.9,0.5-1.3c0.3-0.4,0.8-0.6,1.3-0.8
			c-0.3-0.1-0.5-0.3-0.7-0.5c-0.2-0.2-0.3-0.5-0.3-0.9c0-0.1,0-0.3,0.1-0.5c0.1-0.2,0.1-0.3,0.2-0.5s0.2-0.3,0.4-0.4
			s0.3-0.3,0.6-0.4c-0.5-0.3-0.9-0.7-1.2-1.1s-0.4-1-0.4-1.6c0-0.5,0.1-0.9,0.3-1.3c0.2-0.4,0.5-0.7,0.8-1c0.3-0.3,0.7-0.5,1.2-0.7
			S461.3,77.6,461.8,77.6z M465,88.4c0-0.3-0.1-0.5-0.2-0.6c-0.1-0.2-0.3-0.3-0.6-0.4s-0.5-0.1-0.8-0.2c-0.3,0-0.6-0.1-1-0.1
			s-0.7,0-1.1,0s-0.7,0-1-0.1c-0.4,0.2-0.7,0.4-0.9,0.7s-0.4,0.6-0.4,0.9c0,0.2,0.1,0.4,0.2,0.6c0.1,0.2,0.3,0.4,0.5,0.5
			c0.2,0.1,0.5,0.3,0.9,0.3s0.8,0.1,1.3,0.1c0.5,0,0.9,0,1.3-0.1s0.7-0.2,1-0.4c0.3-0.2,0.5-0.4,0.6-0.6
			C464.9,88.9,465,88.6,465,88.4z M461.8,82.9c0.4,0,0.7,0,1-0.1c0.3-0.1,0.5-0.2,0.7-0.4c0.2-0.2,0.3-0.4,0.4-0.6
			c0.1-0.3,0.1-0.5,0.1-0.8c0-0.6-0.2-1.1-0.6-1.5c-0.4-0.4-0.9-0.5-1.6-0.5c-0.7,0-1.3,0.2-1.6,0.5c-0.4,0.4-0.6,0.9-0.6,1.5
			c0,0.3,0,0.6,0.1,0.8c0.1,0.3,0.2,0.5,0.4,0.6s0.4,0.3,0.7,0.4S461.5,82.9,461.8,82.9z"/>
		<path class="st10" d="M470.2,77.7v6.5c0,0.8,0.2,1.4,0.5,1.8c0.4,0.4,0.9,0.6,1.6,0.6c0.5,0,1-0.1,1.5-0.4s0.9-0.6,1.3-1v-7.5h1.8
			v10.1h-1.1c-0.3,0-0.4-0.1-0.5-0.4l-0.1-1.1c-0.4,0.5-0.9,0.9-1.5,1.2c-0.5,0.3-1.2,0.4-1.9,0.4c-0.6,0-1-0.1-1.5-0.3
			c-0.4-0.2-0.8-0.4-1.1-0.8c-0.3-0.3-0.5-0.7-0.6-1.2c-0.1-0.5-0.2-1-0.2-1.6v-6.5H470.2z"/>
		<path class="st10" d="M481.7,73.1v14.7H480V73.1H481.7z"/>
		<path class="st10" d="M492.3,87.9h-0.8c-0.2,0-0.3,0-0.4-0.1c-0.1-0.1-0.2-0.2-0.2-0.3l-0.2-0.9c-0.3,0.2-0.5,0.5-0.8,0.6
			c-0.3,0.2-0.5,0.3-0.8,0.5c-0.3,0.1-0.6,0.2-0.9,0.3s-0.7,0.1-1.1,0.1c-0.4,0-0.8-0.1-1.1-0.2c-0.3-0.1-0.6-0.3-0.9-0.5
			c-0.3-0.2-0.5-0.5-0.6-0.8c-0.1-0.3-0.2-0.7-0.2-1.2c0-0.4,0.1-0.8,0.3-1.2c0.2-0.4,0.6-0.7,1.1-1c0.5-0.3,1.1-0.5,1.9-0.7
			c0.8-0.2,1.8-0.3,2.9-0.3v-0.8c0-0.8-0.2-1.4-0.5-1.8c-0.3-0.4-0.8-0.6-1.5-0.6c-0.4,0-0.8,0.1-1.1,0.2s-0.6,0.2-0.8,0.4
			s-0.4,0.3-0.6,0.4c-0.2,0.1-0.3,0.2-0.5,0.2c-0.1,0-0.2,0-0.3-0.1s-0.2-0.1-0.2-0.2l-0.3-0.6c0.6-0.5,1.2-0.9,1.8-1.2
			c0.6-0.3,1.4-0.4,2.2-0.4c0.6,0,1.1,0.1,1.5,0.3c0.4,0.2,0.8,0.4,1.1,0.8s0.5,0.7,0.7,1.2c0.2,0.5,0.2,1,0.2,1.6V87.9z
			 M487.7,86.8c0.3,0,0.6,0,0.9-0.1c0.3-0.1,0.5-0.2,0.7-0.3s0.5-0.3,0.7-0.4s0.4-0.4,0.6-0.6v-2.1c-0.8,0-1.5,0.1-2.1,0.2
			c-0.6,0.1-1,0.2-1.4,0.4c-0.4,0.2-0.6,0.4-0.8,0.6S486,85,486,85.2c0,0.3,0,0.5,0.1,0.7s0.2,0.4,0.4,0.5c0.1,0.1,0.3,0.2,0.5,0.3
			C487.2,86.7,487.5,86.8,487.7,86.8z"/>
		<path class="st10" d="M495,87.9V77.7h1c0.2,0,0.3,0,0.4,0.1s0.1,0.2,0.2,0.4l0.1,1.6c0.3-0.7,0.8-1.3,1.3-1.7
			c0.5-0.4,1.1-0.6,1.8-0.6c0.3,0,0.5,0,0.8,0.1s0.4,0.2,0.6,0.3l-0.2,1.3c0,0.2-0.1,0.3-0.3,0.3c-0.1,0-0.2,0-0.4-0.1
			s-0.5-0.1-0.8-0.1c-0.6,0-1.1,0.2-1.6,0.5c-0.4,0.4-0.8,0.9-1,1.6v6.5H495z"/>
		<path class="st10" d="M518.5,87.9V73.4h5c0.9,0,1.8,0.1,2.4,0.3s1.2,0.4,1.7,0.8c0.4,0.3,0.7,0.7,0.9,1.2c0.2,0.5,0.3,1,0.3,1.6
			c0,0.3,0,0.7-0.1,1c-0.1,0.3-0.3,0.6-0.5,0.9s-0.5,0.5-0.8,0.7c-0.3,0.2-0.7,0.4-1.2,0.6c2,0.4,3,1.5,3,3.2c0,0.6-0.1,1.2-0.3,1.7
			s-0.6,1-1,1.3c-0.4,0.4-1,0.7-1.6,0.9s-1.4,0.3-2.2,0.3H518.5z M521.2,79.7h2.1c0.9,0,1.6-0.2,2.1-0.5c0.5-0.3,0.7-0.9,0.7-1.6
			c0-0.8-0.2-1.3-0.6-1.6c-0.4-0.3-1.1-0.5-2-0.5h-2.3V79.7z M521.2,81.5v4.2h2.7c0.5,0,0.9-0.1,1.3-0.2c0.3-0.1,0.6-0.3,0.8-0.5
			c0.2-0.2,0.3-0.4,0.4-0.7s0.1-0.5,0.1-0.9c0-0.3,0-0.6-0.1-0.8c-0.1-0.3-0.3-0.5-0.5-0.6c-0.2-0.2-0.5-0.3-0.8-0.4
			c-0.3-0.1-0.7-0.1-1.2-0.1H521.2z"/>
		<path class="st10" d="M535.8,77.4c0.8,0,1.5,0.1,2.1,0.4c0.6,0.2,1.2,0.6,1.6,1c0.4,0.5,0.8,1,1,1.7c0.2,0.7,0.4,1.4,0.4,2.2
			c0,0.8-0.1,1.5-0.4,2.2c-0.2,0.7-0.6,1.2-1,1.7c-0.4,0.5-1,0.8-1.6,1.1c-0.6,0.2-1.3,0.4-2.1,0.4s-1.5-0.1-2.1-0.4
			c-0.6-0.2-1.2-0.6-1.6-1.1c-0.4-0.5-0.8-1-1-1.7c-0.2-0.7-0.4-1.4-0.4-2.2c0-0.8,0.1-1.5,0.4-2.2c0.2-0.7,0.6-1.2,1-1.7
			c0.4-0.5,1-0.8,1.6-1C534.3,77.6,535,77.4,535.8,77.4z M535.8,86.1c0.9,0,1.5-0.3,1.9-0.9s0.6-1.4,0.6-2.5s-0.2-2-0.6-2.5
			s-1-0.9-1.9-0.9c-0.9,0-1.5,0.3-1.9,0.9c-0.4,0.6-0.6,1.4-0.6,2.5s0.2,1.9,0.6,2.5C534.3,85.8,534.9,86.1,535.8,86.1z"/>
		<path class="st10" d="M545.4,73v14.9h-2.5V73H545.4z"/>
		<path class="st10" d="M555.4,87.9c-0.3,0-0.5-0.1-0.6-0.5l-0.2-1c-0.2,0.2-0.4,0.5-0.7,0.6s-0.5,0.4-0.8,0.5
			c-0.3,0.1-0.6,0.2-0.9,0.3c-0.3,0.1-0.6,0.1-1,0.1c-0.6,0-1.1-0.1-1.5-0.4c-0.5-0.2-0.9-0.6-1.2-1s-0.6-1-0.8-1.6
			s-0.3-1.4-0.3-2.2c0-0.8,0.1-1.5,0.3-2.1c0.2-0.7,0.5-1.2,0.9-1.7s0.9-0.9,1.4-1.1s1.1-0.4,1.8-0.4c0.6,0,1.1,0.1,1.5,0.3
			c0.4,0.2,0.8,0.4,1.1,0.7V73h2.5v14.9H555.4z M552.1,86c0.5,0,1-0.1,1.3-0.3c0.4-0.2,0.7-0.5,1-0.9v-4.6c-0.3-0.3-0.6-0.6-0.9-0.7
			c-0.3-0.1-0.7-0.2-1.1-0.2c-0.4,0-0.7,0.1-1,0.2c-0.3,0.1-0.6,0.4-0.8,0.6c-0.2,0.3-0.4,0.6-0.5,1.1s-0.2,1-0.2,1.5
			c0,0.6,0,1.1,0.1,1.5c0.1,0.4,0.2,0.8,0.4,1c0.2,0.3,0.4,0.5,0.7,0.6S551.8,86,552.1,86z"/>
	</g>
</g>
<g id="Layer_2">
	<g>
		<path class="st14" d="M954.7,10c0,0-4.2,0.6-5.4,0.9c-35.6,8.8-48.6,45.7-48.6,45.7l5.5,1.9l1.5,5.2c0,0,37.3-13.5,46-48.3
			C954.1,14.2,954.7,10,954.7,10z"/>
		<line class="st14" x1="942.8" y1="22" x2="905.9" y2="58.9"/>
	</g>
</g>
<g id="Layer_3">
	<path class="st15" d="M821.1,8.9l2.9,2.9c3.1,3.1,3.7,8.4,0.4,10.8c-0.6,0.4-2.7,1.9-3.3,2.3c-11.4,9-26,24.4-35.7,34.8
		c-0.5,0.5-5.1,6.9-5.8,7.8c-2.6,3.1-7.7,2.6-10.8-0.4l-2.9-2.9c-3.1-3.1-3.5-8.2-0.4-10.8c0.8-0.7,7.6-5.7,8-6.1
		c10.3-9.8,25.3-24,34.4-35.4c0.5-0.6,2-2.8,2.4-3.4C812.8,5.3,818,5.8,821.1,8.9z"/>
	<g>
		<circle class="st16" cx="926.5" cy="-133.5" r="28"/>
	</g>
	<path class="st17" d="M819-111h-4c-1.7,0-3-1.3-3-3v-38.5c0-1.6,1.3-3,3-3h4c1.7,0,3,1.4,3,3v38.5C822-112.3,820.7-111,819-111z"/>
	<path class="st17" d="M776-111h-4c-1.7,0-3-1.3-3-3v-38.5c0-1.6,1.3-3,3-3h4c1.7,0,3,1.4,3,3v38.5C779-112.3,777.7-111,776-111z"/>
	<rect x="779" y="-137.1" class="st17" width="33" height="7.3"/>
	<rect x="822" y="-137.1" class="st17" width="6" height="7.3"/>
	<rect x="763" y="-137.1" class="st17" width="6" height="7.3"/>
	<g>
		<path class="st18" d="M762.1-77.5l0.4-1.6c0.4,0.2,0.9,0.4,1.5,0.6c0.6,0.2,1.1,0.3,1.6,0.3c0.8,0,1.4-0.1,1.8-0.4
			s0.6-0.7,0.6-1.1c0-0.3-0.1-0.6-0.3-0.9c-0.2-0.3-0.5-0.5-0.9-0.7c-0.4-0.2-0.9-0.5-1.5-0.8c-1.1-0.6-2-1.1-2.5-1.7
			c-0.6-0.6-0.9-1.3-0.9-2.1c0-0.6,0.2-1.2,0.5-1.6c0.3-0.5,0.8-0.9,1.4-1.2c0.6-0.3,1.3-0.4,2.2-0.4c0.6,0,1.1,0.1,1.7,0.2
			c0.6,0.2,1.1,0.4,1.6,0.6l-0.7,1.6c-0.5-0.2-0.9-0.4-1.3-0.5c-0.4-0.1-0.8-0.2-1.3-0.2c-0.6,0-1.1,0.1-1.5,0.4
			c-0.4,0.2-0.6,0.6-0.6,1.1c0,0.3,0.1,0.6,0.3,0.9c0.2,0.3,0.5,0.5,0.8,0.7c0.3,0.2,0.9,0.5,1.6,0.9c0.8,0.4,1.4,0.8,1.8,1.1
			c0.5,0.3,0.8,0.7,1.1,1.2c0.3,0.4,0.4,1,0.4,1.6c0,0.6-0.2,1.2-0.5,1.7c-0.3,0.5-0.9,0.9-1.5,1.2s-1.5,0.4-2.4,0.4
			c-0.5,0-1.2-0.1-1.9-0.3S762.4-77.3,762.1-77.5z"/>
		<path class="st18" d="M776.1-85.5l0.6,1.5h-2.2v4.2c0,0.5,0.1,0.8,0.3,1.1c0.2,0.3,0.5,0.4,0.9,0.4c0.3,0,0.6-0.1,0.9-0.2l0.6,1.5
			c-0.2,0.1-0.4,0.2-0.7,0.3c-0.3,0.1-0.6,0.1-0.9,0.1c-1,0-1.7-0.3-2.3-0.8s-0.8-1.2-0.8-2.2v-4.5h-1.2v-1.5h1.2v-2.1l2-0.4v2.5
			H776.1z"/>
		<path class="st18" d="M781.1-76.8h-2v-8.7h1.1l0.7,1.4c0.4-0.4,0.9-0.7,1.5-1c0.6-0.3,1-0.5,1.5-0.5l0.4,1.6
			c-0.4,0-0.9,0.1-1.5,0.4c-0.6,0.3-1.1,0.7-1.6,1.1V-76.8z"/>
		<path class="st18" d="M793.5-80.6h-6c0.2,1.6,1.1,2.3,2.8,2.3c0.5,0,0.9-0.1,1.3-0.2s0.8-0.3,1.3-0.6l0.6,1.5c-1,0.7-2,1-3.2,1
			c-1.6,0-2.8-0.4-3.6-1.2c-0.8-0.8-1.3-1.9-1.3-3.4c0-0.9,0.2-1.7,0.5-2.4c0.3-0.7,0.8-1.2,1.5-1.6c0.6-0.4,1.4-0.6,2.3-0.6
			c1.3,0,2.3,0.4,2.9,1.3c0.7,0.9,1,1.9,1,3.3V-80.6z M787.4-82h4.1c-0.1-0.7-0.3-1.2-0.7-1.5c-0.3-0.3-0.8-0.5-1.4-0.5
			c-0.6,0-1,0.2-1.4,0.5C787.7-83.1,787.5-82.6,787.4-82z"/>
		<path class="st18" d="M797.5-76.8h-2v-8.7h1.3l0.4,1c0.5-0.4,1.1-0.7,1.7-1c0.6-0.2,1.2-0.4,1.7-0.4c1,0,1.8,0.3,2.2,0.9
			c0.5,0.6,0.7,1.4,0.7,2.5v5.6h-2v-5.5c0-1.2-0.5-1.8-1.3-1.8c-0.7,0-1.6,0.4-2.6,1.2V-76.8z"/>
		<path class="st18" d="M813.6-85.5v9.3c0,1.1-0.4,2-1.2,2.6c-0.8,0.6-1.9,1-3.2,1c-0.4,0-1-0.1-1.7-0.3c-0.7-0.2-1.2-0.4-1.6-0.7
			l0.6-1.5c0.5,0.3,1,0.4,1.4,0.6c0.4,0.1,0.8,0.2,1.3,0.2c0.7,0,1.3-0.2,1.8-0.5c0.4-0.3,0.7-0.8,0.7-1.4v-0.9
			c-0.3,0.2-0.6,0.3-1,0.4c-0.3,0.1-0.7,0.2-1,0.2c-0.9,0-1.7-0.2-2.3-0.6c-0.7-0.4-1.2-0.9-1.5-1.6c-0.4-0.7-0.5-1.5-0.5-2.4
			c0-0.9,0.2-1.7,0.5-2.4c0.4-0.7,0.9-1.2,1.5-1.6s1.4-0.6,2.3-0.6c0.4,0,0.8,0.1,1.2,0.3c0.4,0.2,0.8,0.4,1.2,0.7l0.4-0.7H813.6z
			 M810.7-78.5c0.3-0.1,0.6-0.3,0.9-0.5v-4.3c-0.3-0.3-0.6-0.4-0.9-0.5c-0.3-0.1-0.6-0.2-1-0.2c-0.7,0-1.3,0.3-1.7,0.8
			s-0.6,1.2-0.6,2c0,0.9,0.2,1.6,0.6,2.1c0.4,0.5,1,0.8,1.7,0.8C810.1-78.3,810.4-78.4,810.7-78.5z"/>
		<path class="st18" d="M820.3-85.5l0.6,1.5h-2.2v4.2c0,0.5,0.1,0.8,0.3,1.1c0.2,0.3,0.5,0.4,0.9,0.4c0.3,0,0.6-0.1,0.9-0.2l0.6,1.5
			c-0.2,0.1-0.4,0.2-0.7,0.3c-0.3,0.1-0.6,0.1-0.9,0.1c-1,0-1.7-0.3-2.3-0.8s-0.8-1.2-0.8-2.2v-4.5h-1.2v-1.5h1.2v-2.1l2-0.4v2.5
			H820.3z"/>
		<path class="st18" d="M831.3-82.4v5.6h-2v-5.5c0-1.2-0.5-1.8-1.4-1.8c-0.7,0-1.6,0.4-2.5,1.2v6.1h-2v-12.5l2-0.2v4.8
			c0.5-0.3,1-0.6,1.5-0.8c0.5-0.2,1-0.3,1.5-0.3C830.3-85.8,831.3-84.7,831.3-82.4z"/>
	</g>
	<g>
		<path class="st19" d="M904.8-80.1l-3.2-4.3v8.1h-2v-12.2h1.3l4.2,5.9l3.9-5.9h1.2v12.2h-2.1v-7.8l-2.7,3.9L904.8-80.1z"/>
		<path class="st19" d="M921.2-78.3c-0.4,0.7-0.9,1.2-1.6,1.6c-0.7,0.4-1.5,0.6-2.4,0.6c-0.9,0-1.7-0.2-2.4-0.6
			c-0.7-0.4-1.2-0.9-1.6-1.6c-0.4-0.7-0.5-1.5-0.5-2.4c0-0.9,0.2-1.7,0.5-2.4s0.9-1.2,1.6-1.6c0.7-0.4,1.5-0.6,2.4-0.6
			c0.9,0,1.7,0.2,2.4,0.6c0.7,0.4,1.2,0.9,1.6,1.6c0.4,0.7,0.5,1.5,0.5,2.4C921.8-79.8,921.6-79,921.2-78.3z M919-78.6
			c0.5-0.5,0.7-1.2,0.7-2c0-0.9-0.2-1.5-0.7-2.1c-0.4-0.5-1-0.8-1.8-0.8c-0.7,0-1.3,0.3-1.8,0.8c-0.4,0.5-0.7,1.2-0.7,2.1
			c0,0.9,0.2,1.5,0.7,2.1c0.4,0.5,1,0.8,1.8,0.8C918-77.8,918.6-78.1,919-78.6z"/>
		<path class="st19" d="M927.8-85l0.6,1.5h-2.2v4.2c0,0.5,0.1,0.8,0.3,1.1c0.2,0.3,0.5,0.4,0.9,0.4c0.3,0,0.6-0.1,0.9-0.2l0.6,1.5
			c-0.2,0.1-0.4,0.2-0.7,0.3c-0.3,0.1-0.6,0.1-0.9,0.1c-1,0-1.7-0.3-2.3-0.8s-0.8-1.2-0.8-2.2v-4.5H923V-85h1.2v-2.1l2-0.4v2.5
			H927.8z"/>
		<path class="st19" d="M931.7-86.4c-0.3,0-0.6-0.1-0.8-0.4c-0.2-0.2-0.3-0.5-0.3-0.9c0-0.3,0.1-0.6,0.3-0.8
			c0.2-0.2,0.5-0.4,0.8-0.4c0.3,0,0.6,0.1,0.9,0.4c0.2,0.2,0.4,0.5,0.4,0.8c0,0.3-0.1,0.6-0.4,0.9C932.3-86.6,932-86.4,931.7-86.4z
			 M930.7-76.3V-85h2v8.7H930.7z"/>
		<path class="st19" d="M943.2-78.3c-0.4,0.7-0.9,1.2-1.6,1.6c-0.7,0.4-1.5,0.6-2.4,0.6c-0.9,0-1.7-0.2-2.4-0.6
			c-0.7-0.4-1.2-0.9-1.6-1.6c-0.4-0.7-0.5-1.5-0.5-2.4c0-0.9,0.2-1.7,0.5-2.4s0.9-1.2,1.6-1.6c0.7-0.4,1.5-0.6,2.4-0.6
			c0.9,0,1.7,0.2,2.4,0.6c0.7,0.4,1.2,0.9,1.6,1.6c0.4,0.7,0.5,1.5,0.5,2.4C943.7-79.8,943.5-79,943.2-78.3z M941-78.6
			c0.5-0.5,0.7-1.2,0.7-2c0-0.9-0.2-1.5-0.7-2.1c-0.4-0.5-1-0.8-1.8-0.8c-0.7,0-1.3,0.3-1.8,0.8c-0.4,0.5-0.7,1.2-0.7,2.1
			c0,0.9,0.2,1.5,0.7,2.1c0.4,0.5,1,0.8,1.8,0.8C939.9-77.8,940.5-78.1,941-78.6z"/>
		<path class="st19" d="M947.7-76.3h-2V-85h1.3l0.4,1c0.5-0.4,1.1-0.7,1.7-1c0.6-0.2,1.2-0.4,1.7-0.4c1,0,1.8,0.3,2.2,0.9
			c0.5,0.6,0.7,1.4,0.7,2.5v5.6h-2v-5.5c0-1.2-0.5-1.8-1.3-1.8c-0.7,0-1.6,0.4-2.6,1.2V-76.3z"/>
	</g>
</g>
</svg>
