<?xml version="1.0" encoding="utf-8"?>
<!-- Generator: Adobe Illustrator 22.0.1, SVG Export Plug-In . SVG Version: 6.00 Build 0)  -->
<svg version="1.1" xmlns="http://www.w3.org/2000/svg" xmlns:xlink="http://www.w3.org/1999/xlink" x="0px" y="0px"
	 viewBox="0 0 200 200" style="enable-background:new 0 0 200 200;" xml:space="preserve">
<style type="text/css">
	.st0{fill:none;stroke:#F45E58;stroke-miterlimit:10;}
	.st1{fill:none;stroke:#288FEB;stroke-miterlimit:10;}
	.st2{fill:#F45E58;}
	.st3{fill:#288FEB;}
	.st4{fill:none;stroke:#F0F0F0;stroke-width:3;stroke-miterlimit:10;}
	.st5{fill:#FFFFFF;}
	.st6{fill:#278BD6;}
	.st7{opacity:0.13;fill:#278BD6;enable-background:new    ;}
	.st8{fill:#E05C5C;}
	.st9{fill:#F4615B;}
	.st10{fill:#F0F0F0;}
	.st11{fill:#248CD0;}
	.st12{fill:#F0F0F0;stroke:#F0F0F0;stroke-width:0.75;stroke-miterlimit:10;}
	.st13{fill:#F0F0F0;stroke:#F0F0F0;stroke-width:1.5;stroke-miterlimit:10;}
	.st14{fill:none;stroke:#248CD0;stroke-miterlimit:10;}
	.st15{fill:none;stroke:#F0F0F0;stroke-linecap:round;stroke-miterlimit:10;}
	.st16{fill:none;stroke:#FFD18F;stroke-miterlimit:10;stroke-dasharray:12.5631,12.5631;}
	.st17{fill:none;stroke:#D3D3D3;stroke-miterlimit:10;}
	.st18{fill:#D3D3D3;}
	.st19{fill:#FFD18F;}
</style>
<g id="Layer_1">
	<path class="st0" d="M-1130.2-540.9c-3.8,3.6-15,13.2-16.4,13.2c-1.4,0-12.8-9.7-16.7-13.3c-2.8-2.6-5.4-5.3-6.1-13
		c-0.7-7.3-2.1-27.5-0.2-27.8c11.3-2.4,34.7-1.5,46.1,0.2c1.6,0.2,0.2,20.4-0.5,28C-1124.5-546-1127.4-543.5-1130.2-540.9z"/>
	<path class="st1" d="M-981.5-531.1h-48c-1.1,0-2-0.9-2-2v-45.4c0-1.1,0.9-2,2-2h48c1.1,0,2,0.9,2,2v45.4
		C-979.5-532-980.4-531.1-981.5-531.1z"/>
	<path class="st1" d="M-991.7-541.3h-27.5c-1.1,0-2-0.9-2-1.9v-23.1c0-1.1,0.9-1.9,2-1.9h5.6v-1.9c0-0.5,0.5-1,1-1h14.3
		c0.6,0,1,0.4,1,1v1.9h5.6c1.1,0,2,0.9,2,1.9v23.1C-989.7-542.2-990.6-541.3-991.7-541.3z"/>
	<line class="st1" x1="-996.6" y1="-550" x2="-996.6" y2="-541.3"/>
	<line class="st1" x1="-1014.4" y1="-550" x2="-1014.4" y2="-541.3"/>
	<line class="st1" x1="-1002.7" y1="-550" x2="-1002.7" y2="-541.3"/>
	<line class="st1" x1="-1008.3" y1="-550" x2="-1008.3" y2="-541.3"/>
	<g>
		<path class="st2" d="M-1170.1-503.1h-4V-514h4c1.6,0,2.8,0.5,3.7,1.5c0.8,1,1.2,2.3,1.2,3.9c0,1.1-0.2,2.1-0.6,2.9
			c-0.4,0.8-0.9,1.5-1.7,1.9C-1168.2-503.3-1169.1-503.1-1170.1-503.1z M-1170-512.4h-2.3v7.8h2.2c1,0,1.7-0.3,2.3-1s0.8-1.7,0.8-3
			c0-1.2-0.3-2.2-0.8-2.8C-1168.3-512.1-1169-512.4-1170-512.4z"/>
		<path class="st2" d="M-1156.9-506.5h-5.4c0.2,1.4,1,2.1,2.5,2.1c0.4,0,0.8-0.1,1.1-0.2c0.3-0.1,0.7-0.3,1.2-0.5l0.5,1.3
			c-0.9,0.6-1.8,0.9-2.9,0.9c-1.4,0-2.5-0.4-3.2-1.1c-0.7-0.7-1.1-1.7-1.1-3c0-0.8,0.2-1.5,0.5-2.1c0.3-0.6,0.7-1.1,1.3-1.4
			c0.6-0.3,1.2-0.5,2-0.5c1.1,0,2,0.4,2.6,1.1c0.6,0.8,0.9,1.7,0.9,2.9V-506.5z M-1162.2-507.7h3.6c-0.1-0.6-0.3-1.1-0.6-1.4
			c-0.3-0.3-0.7-0.5-1.2-0.5c-0.5,0-0.9,0.2-1.2,0.5C-1161.9-508.7-1162.1-508.3-1162.2-507.7z"/>
		<path class="st2" d="M-1156.2-509.4v-1.4h1.2v-0.8c0-0.8,0.2-1.5,0.7-2c0.5-0.5,1.2-0.7,2-0.7c0.2,0,0.5,0,0.8,0.1
			c0.3,0.1,0.5,0.2,0.6,0.3l-0.5,1.3c-0.3-0.1-0.6-0.2-0.8-0.2c-0.4,0-0.6,0.1-0.8,0.4c-0.2,0.2-0.3,0.6-0.3,1v0.6h1.4l0.6,1.4h-2
			v6.3h-1.8v-6.3H-1156.2z"/>
		<path class="st2" d="M-1143.1-506.5h-5.4c0.2,1.4,1,2.1,2.5,2.1c0.4,0,0.8-0.1,1.1-0.2c0.3-0.1,0.7-0.3,1.2-0.5l0.5,1.3
			c-0.9,0.6-1.8,0.9-2.9,0.9c-1.4,0-2.5-0.4-3.2-1.1c-0.7-0.7-1.1-1.7-1.1-3c0-0.8,0.2-1.5,0.5-2.1c0.3-0.6,0.7-1.1,1.3-1.4
			c0.6-0.3,1.2-0.5,2-0.5c1.1,0,2,0.4,2.6,1.1c0.6,0.8,0.9,1.7,0.9,2.9V-506.5z M-1148.5-507.7h3.6c-0.1-0.6-0.3-1.1-0.6-1.4
			c-0.3-0.3-0.7-0.5-1.2-0.5c-0.5,0-0.9,0.2-1.2,0.5C-1148.2-508.7-1148.4-508.3-1148.5-507.7z"/>
		<path class="st2" d="M-1140-503.1h-1.8v-7.8h1.2l0.3,0.9c0.4-0.4,0.9-0.7,1.5-0.9s1-0.3,1.5-0.3c0.9,0,1.6,0.3,2,0.8
			c0.4,0.5,0.6,1.3,0.6,2.2v5h-1.8v-4.9c0-1.1-0.4-1.6-1.2-1.6c-0.7,0-1.4,0.4-2.3,1.1V-503.1z"/>
		<path class="st2" d="M-1127.3-505l0.5,1.3c-0.3,0.2-0.8,0.4-1.3,0.6c-0.5,0.1-1,0.2-1.4,0.2c-0.8,0-1.5-0.2-2.1-0.5
			c-0.6-0.3-1.1-0.8-1.4-1.4c-0.3-0.6-0.5-1.3-0.5-2.2c0-0.8,0.2-1.5,0.5-2.1c0.3-0.6,0.8-1.1,1.4-1.4c0.6-0.3,1.3-0.5,2.1-0.5
			c0.4,0,0.8,0.1,1.3,0.2c0.5,0.1,1,0.3,1.3,0.6l-0.5,1.3c-0.4-0.2-0.8-0.3-1.1-0.4c-0.3-0.1-0.7-0.1-1-0.1c-0.6,0-1.2,0.2-1.6,0.7
			c-0.4,0.5-0.6,1.1-0.6,1.8c0,0.8,0.2,1.4,0.6,1.8c0.4,0.5,0.9,0.7,1.6,0.7c0.4,0,0.8,0,1.1-0.1
			C-1128-504.7-1127.7-504.8-1127.3-505z"/>
		<path class="st2" d="M-1118.7-506.5h-5.4c0.2,1.4,1,2.1,2.5,2.1c0.4,0,0.8-0.1,1.1-0.2c0.3-0.1,0.7-0.3,1.2-0.5l0.5,1.3
			c-0.9,0.6-1.8,0.9-2.9,0.9c-1.4,0-2.5-0.4-3.2-1.1c-0.7-0.7-1.1-1.7-1.1-3c0-0.8,0.2-1.5,0.5-2.1c0.3-0.6,0.7-1.1,1.3-1.4
			c0.6-0.3,1.2-0.5,2-0.5c1.1,0,2,0.4,2.6,1.1c0.6,0.8,0.9,1.7,0.9,2.9V-506.5z M-1124-507.7h3.6c-0.1-0.6-0.3-1.1-0.6-1.4
			c-0.3-0.3-0.7-0.5-1.2-0.5c-0.5,0-0.9,0.2-1.2,0.5C-1123.7-508.7-1123.9-508.3-1124-507.7z"/>
	</g>
	<g>
		<path class="st3" d="M-1016.3-505.5l3.1-8.4h1.8l-4.2,10.9h-1.6l-4.2-10.8l1.8-0.3L-1016.3-505.5z"/>
		<path class="st3" d="M-1008-503.1h-1.8V-514h3.2c1.3,0,2.3,0.3,3,0.8c0.8,0.6,1.2,1.4,1.2,2.6c0,0.8-0.2,1.4-0.6,2
			c-0.4,0.5-0.9,0.9-1.6,1.2c-0.7,0.3-1.4,0.4-2.2,0.4h-1.3V-503.1z M-1006.6-512.5h-1.4v4h1.4c0.7,0,1.3-0.2,1.7-0.5
			c0.4-0.3,0.6-0.8,0.7-1.5c0-0.7-0.2-1.3-0.6-1.6C-1005.3-512.3-1005.8-512.5-1006.6-512.5z"/>
		<path class="st3" d="M-1000.5-503.1V-514h1.7l5.3,7.7v-7.7h1.8v10.9h-1.7l-5.3-7.7v7.7H-1000.5z"/>
	</g>
	<line class="st4" x1="-1075" y1="-554.5" x2="-1075" y2="-541.5"/>
	<line class="st4" x1="-1068.5" y1="-548" x2="-1081.5" y2="-548"/>
	<line class="st4" x1="-316" y1="-383.5" x2="-316" y2="-370.5"/>
	<line class="st4" x1="-309.5" y1="-377" x2="-322.5" y2="-377"/>
	<line class="st4" x1="-316" y1="-554.5" x2="-316" y2="-541.5"/>
	<line class="st4" x1="-309.5" y1="-548" x2="-322.5" y2="-548"/>
	<g>
		<path class="st5" d="M-1162.9-372.1c0,0,54-13.5,88.6-13.5c34.8,0,86.8,12.4,86.8,12.4l-6.6,41.4c0,0-60.1-7.6-80.8-7.6
			c-20.4,0-79.6,7.6-79.6,7.6L-1162.9-372.1z"/>
		<path class="st5" d="M-1075.6-416.5L-1075.6-416.5l76.3,31.5c0,0-6.2,76.3-19.1,97.7c-9.5,15.8-57.3,46.6-57.3,46.6"/>
		<path class="st5" d="M-1074.8-241.3l-0.7-175.2l-0.1,0l-0.1,0l-76.3,31.5c0,0,6.2,76.3,19.1,97.7c8.6,14.4,49.2,41.3,56.2,45.9
			c0.7,0.4,1,0.7,1,0.7L-1074.8-241.3z"/>
		<path class="st2" d="M-1075.4-410.2l68.9,28.7c0,0-5.6,69.6-17.2,89.1c-8.5,14.4-51.7,42.5-51.7,42.5"/>
		<path class="st2" d="M-1075.4-410.2l-68.9,28.7c0,0,5.6,69.6,17.2,89.1c7.5,12.7,51.7,42.6,51.7,42.6l9.4-6.5l-0.2-150.1"/>
		<path d="M-1074.7-403.2l61.5,25.7c0,0-5,62.2-15.3,79.7c-7.6,12.9-46.2,38-46.2,38"/>
		<path d="M-1074.7-403.2l-61.5,25.7c0,0,5,62.2,15.3,79.7c7.6,12.9,46.2,38,46.2,38"/>
		<path class="st3" d="M-1074.8-397.5l55.7,23.3c0,0-4.5,56.3-13.9,72c-6.9,11.7-41.8,34.4-41.8,34.4s-14.7-10.7-7.3-77.4"/>
		<path class="st6" d="M-1074.8-397.5l-55.7,23.3c0,0,4.5,56.3,13.9,72c6.9,11.7,41.9,34.4,41.9,34.4"/>
		<path class="st5" d="M-1065.4-332.9c0,5.2-4.2,9.4-9.4,9.4c-5.2,0-9.4-4.2-9.4-9.4s4.2-9.4,9.4-9.4l0,0
			C-1069.6-342.3-1065.4-338.1-1065.4-332.9L-1065.4-332.9z"/>
		<polygon class="st5" points="-1083.5,-298 -1066.2,-298 -1071.3,-324.4 -1078.3,-324.2 		"/>
		<path class="st7" d="M-1074.8-397.5L-1074.8-397.5l-55.7,23.3c0,0,4.5,56.3,13.9,72c6.9,11.7,41.9,34.4,41.9,34.4v-78.8"/>
		<polygon class="st8" points="-1002.1,-340.9 -1011.8,-337.8 -1011.2,-341.7 		"/>
		<polygon class="st8" points="-1148.2,-340.1 -1139.6,-341.1 -1138.9,-338.4 		"/>
		<path class="st2" d="M-1155.5-367.1c0,0,42.5-9.5,80.7-9.5c38.9,0,79.5,8.8,79.5,8.8l-4.4,27.9c0,0-56.7-6.7-75.7-6.7
			c-18.8,0-74.6,6.7-74.6,6.7L-1155.5-367.1z"/>
	</g>
	<g>
		<g>
			<path class="st2" d="M-1138.7-90.8c-0.3,0-0.6-0.1-0.8-0.3c-0.2-0.2-0.3-0.5-0.3-0.8v-14.2c0-0.3,0.1-0.6,0.3-0.8
				c0.2-0.2,0.5-0.4,0.8-0.4h4.7c1.8,0,3.3,0.4,4.6,1.2c1.3,0.8,2.2,1.8,2.8,3.1c0.6,1.3,1,2.6,1,4c0,1.4-0.3,2.7-1,4
				c-0.6,1.3-1.6,2.3-2.8,3.1c-1.3,0.8-2.8,1.2-4.6,1.2H-1138.7z M-1134.3-93.1c1.3,0,2.4-0.3,3.3-0.8c0.9-0.5,1.7-1.2,2.2-2.1
				c0.5-0.9,0.8-2,0.8-3.2c0-1.2-0.3-2.3-0.8-3.2c-0.5-0.9-1.3-1.6-2.2-2.1c-0.9-0.5-2.1-0.8-3.3-0.8h-3.2v12.1H-1134.3z"/>
			<path class="st2" d="M-1134-107.3c1.8,0,3.3,0.4,4.5,1.2c1.2,0.8,2.2,1.8,2.8,3.1c0.6,1.2,0.9,2.6,0.9,3.9c0,1.4-0.3,2.7-0.9,3.9
				c-0.6,1.2-1.6,2.3-2.8,3.1c-1.2,0.8-2.8,1.2-4.5,1.2h-4.7c-0.3,0-0.5-0.1-0.8-0.3c-0.2-0.2-0.3-0.5-0.3-0.8v-14.2
				c0-0.3,0.1-0.6,0.3-0.8c0.2-0.2,0.5-0.3,0.8-0.3H-1134 M-1137.7-92.9h3.4c1.3,0,2.4-0.3,3.4-0.8c1-0.5,1.7-1.2,2.2-2.2
				c0.5-0.9,0.8-2,0.8-3.2c0-1.2-0.3-2.3-0.8-3.2c-0.5-0.9-1.3-1.7-2.2-2.2c-1-0.5-2.1-0.8-3.4-0.8h-3.4V-92.9 M-1134-107.5h-4.7
				c-0.4,0-0.7,0.1-0.9,0.4c-0.2,0.3-0.4,0.6-0.4,0.9V-92c0,0.4,0.1,0.7,0.4,0.9c0.2,0.3,0.6,0.4,0.9,0.4h4.7c1.8,0,3.4-0.4,4.7-1.2
				c1.3-0.8,2.2-1.9,2.9-3.2c0.6-1.3,1-2.6,1-4c0-1.4-0.3-2.8-1-4c-0.6-1.3-1.6-2.3-2.9-3.2C-1130.6-107.1-1132.2-107.5-1134-107.5
				L-1134-107.5z M-1137.4-105.1h3.1c1.2,0,2.3,0.3,3.3,0.8c0.9,0.5,1.6,1.2,2.2,2.1c0.5,0.9,0.8,1.9,0.8,3.1c0,1.2-0.3,2.2-0.8,3.1
				c-0.5,0.9-1.2,1.6-2.2,2.1c-0.9,0.5-2,0.8-3.3,0.8h-3.1V-105.1L-1137.4-105.1z"/>
		</g>
		<g>
			<path class="st2" d="M-1120.6-90.8c-0.3,0-0.6-0.1-0.8-0.3c-0.2-0.2-0.3-0.5-0.3-0.8v-14.2c0-0.3,0.1-0.6,0.3-0.8
				c0.2-0.2,0.5-0.4,0.8-0.4h9.4c0.3,0,0.6,0.1,0.8,0.3c0.2,0.2,0.3,0.5,0.3,0.8c0,0.3-0.1,0.6-0.3,0.8c-0.2,0.2-0.5,0.3-0.8,0.3
				h-8.2v4.9h7.3c0.3,0,0.6,0.1,0.8,0.3c0.2,0.2,0.3,0.5,0.3,0.8c0,0.3-0.1,0.6-0.3,0.8c-0.2,0.2-0.5,0.3-0.8,0.3h-7.3v5h8.2
				c0.3,0,0.6,0.1,0.8,0.3c0.2,0.2,0.3,0.5,0.3,0.8c0,0.3-0.1,0.6-0.3,0.8c-0.2,0.2-0.5,0.3-0.8,0.3H-1120.6z"/>
			<path class="st2" d="M-1111.2-107.3c0.3,0,0.5,0.1,0.7,0.3c0.2,0.2,0.3,0.4,0.3,0.7c0,0.3-0.1,0.5-0.3,0.7
				c-0.2,0.2-0.4,0.3-0.7,0.3h-8.3v5.2h7.5c0.3,0,0.5,0.1,0.7,0.3c0.2,0.2,0.3,0.4,0.3,0.7c0,0.3-0.1,0.5-0.3,0.7
				c-0.2,0.2-0.4,0.3-0.7,0.3h-7.5v5.2h8.3c0.3,0,0.5,0.1,0.7,0.3c0.2,0.2,0.3,0.4,0.3,0.7c0,0.3-0.1,0.5-0.3,0.7
				c-0.2,0.2-0.4,0.3-0.7,0.3h-9.4c-0.3,0-0.5-0.1-0.8-0.3c-0.2-0.2-0.3-0.5-0.3-0.8v-14.2c0-0.3,0.1-0.6,0.3-0.8
				c0.2-0.2,0.5-0.3,0.8-0.3H-1111.2 M-1111.2-107.5h-9.4c-0.4,0-0.7,0.1-0.9,0.4c-0.2,0.3-0.4,0.6-0.4,0.9V-92
				c0,0.4,0.1,0.7,0.4,0.9c0.2,0.3,0.6,0.4,0.9,0.4h9.4c0.3,0,0.6-0.1,0.9-0.3c0.2-0.2,0.4-0.5,0.4-0.9c0-0.3-0.1-0.6-0.4-0.9
				c-0.2-0.2-0.5-0.4-0.9-0.4h-8.1v-4.7h7.2c0.3,0,0.6-0.1,0.9-0.3c0.2-0.2,0.4-0.5,0.4-0.9c0-0.3-0.1-0.6-0.4-0.9
				c-0.2-0.2-0.5-0.4-0.9-0.4h-7.2v-4.7h8.1c0.3,0,0.6-0.1,0.9-0.4c0.2-0.2,0.4-0.5,0.4-0.9c0-0.3-0.1-0.6-0.4-0.9
				C-1110.5-107.4-1110.8-107.5-1111.2-107.5L-1111.2-107.5z"/>
		</g>
		<g>
			<path class="st2" d="M-1105-90.7c-0.3,0-0.6-0.1-0.8-0.3c-0.2-0.2-0.3-0.5-0.3-0.8v-14.3c0-0.3,0.1-0.6,0.3-0.8
				c0.2-0.2,0.5-0.4,0.8-0.4h9.1c0.3,0,0.6,0.1,0.8,0.3c0.2,0.2,0.3,0.5,0.3,0.8c0,0.3-0.1,0.6-0.3,0.8c-0.2,0.2-0.5,0.3-0.8,0.3
				h-7.9v4.9h7.1c0.3,0,0.6,0.1,0.8,0.3c0.2,0.2,0.3,0.5,0.3,0.8c0,0.3-0.1,0.6-0.3,0.8c-0.2,0.2-0.5,0.3-0.8,0.3h-7.1v6.1
				c0,0.3-0.1,0.6-0.4,0.8C-1104.4-90.8-1104.7-90.7-1105-90.7z"/>
			<path class="st2" d="M-1095.9-107.3c0.3,0,0.5,0.1,0.7,0.3c0.2,0.2,0.3,0.4,0.3,0.7c0,0.3-0.1,0.5-0.3,0.7
				c-0.2,0.2-0.4,0.3-0.7,0.3h-8v5.2h7.2c0.3,0,0.5,0.1,0.7,0.3c0.2,0.2,0.3,0.4,0.3,0.7c0,0.3-0.1,0.5-0.3,0.7
				c-0.2,0.2-0.4,0.3-0.7,0.3h-7.2v6.3c0,0.3-0.1,0.5-0.3,0.7c-0.2,0.2-0.5,0.3-0.8,0.3c-0.3,0-0.5-0.1-0.8-0.3
				c-0.2-0.2-0.3-0.5-0.3-0.7v-14.3c0-0.3,0.1-0.6,0.3-0.8c0.2-0.2,0.5-0.3,0.8-0.3H-1095.9 M-1095.9-107.5h-9.1
				c-0.4,0-0.7,0.1-0.9,0.4c-0.2,0.3-0.4,0.6-0.4,0.9v14.3c0,0.4,0.1,0.7,0.4,0.9c0.2,0.3,0.6,0.4,0.9,0.4c0.4,0,0.7-0.1,0.9-0.4
				c0.3-0.2,0.4-0.6,0.4-0.9v-6h7c0.3,0,0.6-0.1,0.9-0.3c0.2-0.2,0.4-0.5,0.4-0.9c0-0.3-0.1-0.6-0.4-0.9c-0.2-0.2-0.5-0.4-0.9-0.4
				h-7v-4.7h7.8c0.3,0,0.6-0.1,0.9-0.4c0.2-0.2,0.4-0.5,0.4-0.9c0-0.3-0.1-0.6-0.4-0.9C-1095.3-107.4-1095.6-107.5-1095.9-107.5
				L-1095.9-107.5z"/>
		</g>
		<g>
			<path class="st2" d="M-1090.2-90.8c-0.3,0-0.6-0.1-0.8-0.3c-0.2-0.2-0.3-0.5-0.3-0.8v-14.2c0-0.3,0.1-0.6,0.3-0.8
				c0.2-0.2,0.5-0.4,0.8-0.4h9.4c0.3,0,0.6,0.1,0.8,0.3c0.2,0.2,0.3,0.5,0.3,0.8c0,0.3-0.1,0.6-0.3,0.8c-0.2,0.2-0.5,0.3-0.8,0.3
				h-8.2v4.9h7.3c0.3,0,0.6,0.1,0.8,0.3c0.2,0.2,0.3,0.5,0.3,0.8c0,0.3-0.1,0.6-0.3,0.8c-0.2,0.2-0.5,0.3-0.8,0.3h-7.3v5h8.2
				c0.3,0,0.6,0.1,0.8,0.3c0.2,0.2,0.3,0.5,0.3,0.8c0,0.3-0.1,0.6-0.3,0.8c-0.2,0.2-0.5,0.3-0.8,0.3H-1090.2z"/>
			<path class="st2" d="M-1080.8-107.3c0.3,0,0.5,0.1,0.7,0.3c0.2,0.2,0.3,0.4,0.3,0.7c0,0.3-0.1,0.5-0.3,0.7
				c-0.2,0.2-0.4,0.3-0.7,0.3h-8.3v5.2h7.5c0.3,0,0.5,0.1,0.7,0.3c0.2,0.2,0.3,0.4,0.3,0.7c0,0.3-0.1,0.5-0.3,0.7
				c-0.2,0.2-0.4,0.3-0.7,0.3h-7.5v5.2h8.3c0.3,0,0.5,0.1,0.7,0.3c0.2,0.2,0.3,0.4,0.3,0.7c0,0.3-0.1,0.5-0.3,0.7
				c-0.2,0.2-0.4,0.3-0.7,0.3h-9.4c-0.3,0-0.5-0.1-0.8-0.3c-0.2-0.2-0.3-0.5-0.3-0.8v-14.2c0-0.3,0.1-0.6,0.3-0.8
				c0.2-0.2,0.5-0.3,0.8-0.3H-1080.8 M-1080.8-107.5h-9.4c-0.4,0-0.7,0.1-0.9,0.4c-0.2,0.3-0.4,0.6-0.4,0.9V-92
				c0,0.4,0.1,0.7,0.4,0.9c0.2,0.3,0.6,0.4,0.9,0.4h9.4c0.3,0,0.6-0.1,0.9-0.3c0.2-0.2,0.4-0.5,0.4-0.9c0-0.3-0.1-0.6-0.4-0.9
				c-0.2-0.2-0.5-0.4-0.9-0.4h-8.1v-4.7h7.2c0.3,0,0.6-0.1,0.9-0.3c0.2-0.2,0.4-0.5,0.4-0.9c0-0.3-0.1-0.6-0.4-0.9
				c-0.2-0.2-0.5-0.4-0.9-0.4h-7.2v-4.7h8.1c0.3,0,0.6-0.1,0.9-0.4c0.2-0.2,0.4-0.5,0.4-0.9c0-0.3-0.1-0.6-0.4-0.9
				C-1080.2-107.4-1080.5-107.5-1080.8-107.5L-1080.8-107.5z"/>
		</g>
		<g>
			<path class="st2" d="M-1063.3-90.7c-0.3,0-0.5-0.1-0.8-0.2c-0.2-0.1-0.4-0.3-0.6-0.5l-8.8-12.8v12.3c0,0.3-0.1,0.6-0.4,0.8
				c-0.2,0.2-0.5,0.3-0.8,0.3c-0.3,0-0.6-0.1-0.8-0.3c-0.2-0.2-0.3-0.5-0.3-0.8v-14c0-0.5,0.2-0.8,0.5-1.2c0.3-0.3,0.7-0.5,1.2-0.5
				h0.3c0.5,0,1,0.3,1.4,0.8l8.8,12.7v-12.3c0-0.3,0.1-0.6,0.3-0.8c0.2-0.2,0.5-0.4,0.8-0.4c0.3,0,0.6,0.1,0.9,0.4
				c0.2,0.2,0.4,0.5,0.4,0.8v14c0,0.5-0.2,0.8-0.5,1.2c-0.3,0.3-0.7,0.5-1.2,0.5H-1063.3z"/>
			<path class="st2" d="M-1062.5-107.4c0.3,0,0.6,0.1,0.8,0.3c0.2,0.2,0.3,0.5,0.3,0.8v14c0,0.4-0.2,0.8-0.5,1.1
				c-0.3,0.3-0.7,0.4-1.1,0.4h-0.3c-0.3,0-0.5-0.1-0.7-0.2c-0.2-0.1-0.4-0.3-0.5-0.5l-9.1-13.1v12.7c0,0.3-0.1,0.5-0.3,0.7
				c-0.2,0.2-0.5,0.3-0.8,0.3c-0.3,0-0.5-0.1-0.8-0.3c-0.2-0.2-0.3-0.5-0.3-0.7v-14c0-0.4,0.1-0.8,0.4-1.1c0.3-0.3,0.7-0.5,1.1-0.5
				h0.3c0.5,0,0.9,0.2,1.3,0.7l9,13v-12.7c0-0.3,0.1-0.6,0.3-0.8C-1063.1-107.3-1062.8-107.4-1062.5-107.4 M-1062.5-107.7
				c-0.4,0-0.7,0.1-0.9,0.4c-0.2,0.3-0.4,0.6-0.4,0.9v11.9l-8.6-12.4c-0.4-0.5-0.9-0.8-1.5-0.8h-0.3c-0.5,0-0.9,0.2-1.3,0.5
				c-0.3,0.4-0.5,0.8-0.5,1.3v14c0,0.4,0.1,0.7,0.4,0.9c0.2,0.3,0.6,0.4,0.9,0.4c0.4,0,0.7-0.1,0.9-0.4c0.3-0.2,0.4-0.6,0.4-0.9
				v-11.9l8.6,12.4c0.2,0.2,0.4,0.4,0.6,0.5c0.3,0.1,0.5,0.2,0.8,0.2h0.3c0.5,0,0.9-0.2,1.3-0.5c0.4-0.3,0.5-0.8,0.5-1.3v-14
				c0-0.4-0.1-0.7-0.4-0.9C-1061.9-107.5-1062.2-107.7-1062.5-107.7L-1062.5-107.7z"/>
		</g>
		<g>
			<path class="st2" d="M-1049.1-90.6c-1.6,0-3-0.3-4.3-1c-1.3-0.7-2.3-1.7-3-3c-0.7-1.3-1.1-2.8-1.1-4.5s0.4-3.2,1.1-4.5
				c0.7-1.3,1.7-2.3,3-3c1.3-0.7,2.7-1,4.3-1c1.1,0,2,0.1,2.9,0.4c0.8,0.3,1.7,0.6,2.5,1.1c0.4,0.2,0.6,0.5,0.6,1
				c0,0.3-0.1,0.5-0.3,0.7c-0.2,0.2-0.5,0.3-0.8,0.3c-0.2,0-0.3,0-0.5-0.1c-0.7-0.4-1.4-0.6-2-0.8c-0.6-0.2-1.4-0.3-2.2-0.3
				c-1.3,0-2.4,0.3-3.4,0.8c-0.9,0.5-1.6,1.3-2.1,2.2c-0.5,0.9-0.7,2-0.7,3.2c0,1.2,0.2,2.3,0.7,3.2c0.5,0.9,1.2,1.7,2.1,2.2
				c0.9,0.5,2.1,0.8,3.4,0.8c0.8,0,1.6-0.1,2.2-0.3c0.6-0.2,1.3-0.5,2-0.8c0.1-0.1,0.3-0.1,0.5-0.1c0.3,0,0.6,0.1,0.8,0.3
				c0.2,0.2,0.3,0.4,0.3,0.7c0,0.5-0.2,0.8-0.6,1c-0.8,0.5-1.7,0.8-2.5,1.1C-1047.1-90.7-1048-90.6-1049.1-90.6z"/>
			<path class="st2" d="M-1049.1-107.5c1.1,0,2,0.1,2.8,0.4c0.8,0.3,1.7,0.6,2.5,1.1c0.3,0.2,0.5,0.5,0.5,0.9c0,0.2-0.1,0.4-0.3,0.6
				c-0.2,0.2-0.4,0.3-0.7,0.3c-0.2,0-0.3,0-0.4-0.1c-0.7-0.4-1.4-0.6-2-0.8c-0.7-0.2-1.4-0.3-2.3-0.3c-1.3,0-2.5,0.3-3.4,0.8
				c-0.9,0.6-1.7,1.3-2.1,2.3c-0.5,1-0.7,2-0.7,3.3c0,1.2,0.2,2.3,0.7,3.3c0.5,1,1.2,1.7,2.1,2.3c0.9,0.6,2.1,0.8,3.4,0.8
				c0.9,0,1.6-0.1,2.3-0.3c0.7-0.2,1.3-0.5,2-0.8c0.1-0.1,0.3-0.1,0.4-0.1c0.3,0,0.5,0.1,0.7,0.3c0.2,0.2,0.3,0.4,0.3,0.6
				c0,0.4-0.2,0.7-0.5,0.9c-0.8,0.5-1.7,0.8-2.5,1.1c-0.8,0.3-1.8,0.4-2.8,0.4c-1.6,0-3-0.3-4.2-1c-1.2-0.7-2.2-1.7-2.9-2.9
				c-0.7-1.3-1.1-2.8-1.1-4.5c0-1.7,0.4-3.2,1.1-4.5c0.7-1.3,1.7-2.2,2.9-2.9C-1052.1-107.2-1050.7-107.5-1049.1-107.5
				 M-1049.1-107.8c-1.6,0-3.1,0.4-4.3,1c-1.3,0.7-2.3,1.7-3,3c-0.7,1.3-1.1,2.8-1.1,4.6c0,1.7,0.4,3.3,1.1,4.6c0.7,1.3,1.7,2.3,3,3
				c1.3,0.7,2.7,1.1,4.3,1.1c1.1,0,2.1-0.1,2.9-0.4c0.8-0.3,1.7-0.6,2.5-1.1c0.4-0.2,0.6-0.6,0.6-1.1c0-0.3-0.1-0.6-0.3-0.8
				c-0.2-0.2-0.5-0.3-0.9-0.3c-0.2,0-0.4,0-0.5,0.1c-0.7,0.4-1.3,0.6-2,0.8c-0.6,0.2-1.4,0.3-2.2,0.3c-1.3,0-2.4-0.3-3.3-0.8
				c-0.9-0.5-1.6-1.3-2-2.2c-0.5-0.9-0.7-2-0.7-3.2c0-1.2,0.2-2.2,0.7-3.2c0.5-0.9,1.1-1.6,2-2.2c0.9-0.5,2-0.8,3.3-0.8
				c0.8,0,1.6,0.1,2.2,0.3c0.6,0.2,1.3,0.5,2,0.8c0.2,0.1,0.3,0.1,0.5,0.1c0.4,0,0.6-0.1,0.9-0.3c0.2-0.2,0.3-0.5,0.3-0.8
				c0-0.5-0.2-0.9-0.6-1.1c-0.8-0.5-1.7-0.8-2.5-1.1C-1047.1-107.7-1048-107.8-1049.1-107.8L-1049.1-107.8z"/>
		</g>
		<g>
			<path class="st2" d="M-1038.4-90.8c-0.3,0-0.6-0.1-0.8-0.3c-0.2-0.2-0.3-0.5-0.3-0.8v-14.2c0-0.3,0.1-0.6,0.3-0.8
				c0.2-0.2,0.5-0.4,0.8-0.4h9.4c0.3,0,0.6,0.1,0.8,0.3c0.2,0.2,0.3,0.5,0.3,0.8c0,0.3-0.1,0.6-0.3,0.8c-0.2,0.2-0.5,0.3-0.8,0.3
				h-8.2v4.9h7.3c0.3,0,0.6,0.1,0.8,0.3c0.2,0.2,0.3,0.5,0.3,0.8c0,0.3-0.1,0.6-0.3,0.8c-0.2,0.2-0.5,0.3-0.8,0.3h-7.3v5h8.2
				c0.3,0,0.6,0.1,0.8,0.3c0.2,0.2,0.3,0.5,0.3,0.8c0,0.3-0.1,0.6-0.3,0.8c-0.2,0.2-0.5,0.3-0.8,0.3H-1038.4z"/>
			<path class="st2" d="M-1029-107.3c0.3,0,0.5,0.1,0.7,0.3c0.2,0.2,0.3,0.4,0.3,0.7c0,0.3-0.1,0.5-0.3,0.7
				c-0.2,0.2-0.4,0.3-0.7,0.3h-8.3v5.2h7.5c0.3,0,0.5,0.1,0.7,0.3c0.2,0.2,0.3,0.4,0.3,0.7c0,0.3-0.1,0.5-0.3,0.7
				c-0.2,0.2-0.4,0.3-0.7,0.3h-7.5v5.2h8.3c0.3,0,0.5,0.1,0.7,0.3c0.2,0.2,0.3,0.4,0.3,0.7c0,0.3-0.1,0.5-0.3,0.7
				c-0.2,0.2-0.4,0.3-0.7,0.3h-9.4c-0.3,0-0.5-0.1-0.8-0.3c-0.2-0.2-0.3-0.5-0.3-0.8v-14.2c0-0.3,0.1-0.6,0.3-0.8
				c0.2-0.2,0.5-0.3,0.8-0.3H-1029 M-1029-107.5h-9.4c-0.4,0-0.7,0.1-0.9,0.4c-0.2,0.3-0.4,0.6-0.4,0.9V-92c0,0.4,0.1,0.7,0.4,0.9
				c0.2,0.3,0.6,0.4,0.9,0.4h9.4c0.3,0,0.6-0.1,0.9-0.3c0.2-0.2,0.4-0.5,0.4-0.9c0-0.3-0.1-0.6-0.4-0.9c-0.2-0.2-0.5-0.4-0.9-0.4
				h-8.1v-4.7h7.2c0.3,0,0.6-0.1,0.9-0.3c0.2-0.2,0.4-0.5,0.4-0.9c0-0.3-0.1-0.6-0.4-0.9c-0.2-0.2-0.5-0.4-0.9-0.4h-7.2v-4.7h8.1
				c0.3,0,0.6-0.1,0.9-0.4c0.2-0.2,0.4-0.5,0.4-0.9c0-0.3-0.1-0.6-0.4-0.9C-1028.4-107.4-1028.7-107.5-1029-107.5L-1029-107.5z"/>
		</g>
		<g>
			<path class="st3" d="M-1018.3-90.7c-0.7,0-1.2-0.4-1.6-1.2l-5.8-14c-0.1-0.1-0.1-0.3-0.1-0.4c0-0.4,0.1-0.7,0.3-0.9
				c0.2-0.2,0.5-0.3,0.9-0.3c0.2,0,0.5,0.1,0.7,0.2c0.2,0.1,0.3,0.3,0.5,0.6l5.4,13.4l5.4-13.4c0.1-0.2,0.3-0.4,0.5-0.6
				c0.2-0.1,0.4-0.2,0.7-0.2c0.4,0,0.7,0.1,0.9,0.3c0.2,0.2,0.3,0.5,0.3,0.9c0,0.2,0,0.3-0.1,0.4l-5.8,14c-0.4,0.8-0.9,1.2-1.6,1.2
				H-1018.3z"/>
			<path class="st3" d="M-1011.6-107.4c0.3,0,0.6,0.1,0.8,0.3s0.3,0.5,0.3,0.8c0,0.1,0,0.3-0.1,0.4l-5.8,14
				c-0.3,0.7-0.8,1.1-1.5,1.1h-0.5c-0.6,0-1.1-0.4-1.5-1.1l-5.8-14c0-0.1-0.1-0.3-0.1-0.4c0-0.3,0.1-0.6,0.3-0.8
				c0.2-0.2,0.4-0.3,0.8-0.3c0.2,0,0.4,0.1,0.6,0.2c0.2,0.1,0.3,0.3,0.4,0.5l5.5,13.7l5.5-13.7c0.1-0.2,0.2-0.4,0.4-0.5
				C-1012-107.3-1011.8-107.4-1011.6-107.4 M-1011.6-107.7c-0.3,0-0.5,0.1-0.7,0.2c-0.2,0.2-0.4,0.4-0.5,0.6l-5.3,13.2l-5.3-13.1
				c-0.1-0.3-0.3-0.5-0.5-0.6c-0.2-0.2-0.5-0.2-0.7-0.2c-0.4,0-0.7,0.1-1,0.4c-0.2,0.2-0.4,0.6-0.4,1c0,0.2,0,0.3,0.1,0.5l5.8,14
				c0.4,0.8,0.9,1.2,1.7,1.2h0.5c0.7,0,1.3-0.4,1.7-1.2l5.8-14c0.1-0.2,0.1-0.3,0.1-0.5c0-0.4-0.1-0.7-0.4-1
				C-1010.8-107.5-1011.2-107.7-1011.6-107.7L-1011.6-107.7z"/>
		</g>
		<g>
			<path class="st3" d="M-1006-90.7c-0.3,0-0.6-0.1-0.8-0.3c-0.2-0.2-0.3-0.5-0.3-0.8v-14.3c0-0.3,0.1-0.6,0.3-0.8
				c0.2-0.2,0.5-0.4,0.8-0.4h5.3c1.5,0,2.7,0.3,3.7,0.8c1,0.5,1.7,1.2,2.1,2c0.4,0.8,0.6,1.7,0.6,2.6s-0.2,1.8-0.6,2.6
				c-0.4,0.8-1.1,1.5-2.1,2c-0.9,0.5-2.2,0.8-3.7,0.8h-4.1v4.9c0,0.3-0.1,0.6-0.4,0.8C-1005.4-90.8-1005.7-90.7-1006-90.7z
				 M-1000.9-99c1.6,0,2.7-0.3,3.3-0.9c0.6-0.6,0.9-1.3,0.9-2.2c0-0.9-0.3-1.6-0.9-2.2c-0.6-0.6-1.7-0.9-3.3-0.9h-3.9v6.1H-1000.9z"
				/>
			<path class="st3" d="M-1000.7-107.3c1.5,0,2.7,0.2,3.6,0.7c0.9,0.5,1.6,1.1,2,1.9c0.4,0.8,0.6,1.6,0.6,2.5s-0.2,1.7-0.6,2.5
				c-0.4,0.8-1.1,1.4-2,1.9c-0.9,0.5-2.1,0.7-3.6,0.7h-4.3v5c0,0.3-0.1,0.5-0.3,0.7c-0.2,0.2-0.5,0.3-0.8,0.3
				c-0.3,0-0.5-0.1-0.8-0.3c-0.2-0.2-0.3-0.5-0.3-0.7v-14.3c0-0.3,0.1-0.6,0.3-0.8c0.2-0.2,0.5-0.3,0.8-0.3H-1000.7 M-1005-98.9h4.1
				c1.6,0,2.7-0.3,3.4-0.9c0.6-0.6,1-1.4,1-2.3s-0.3-1.7-1-2.3c-0.6-0.6-1.8-0.9-3.4-0.9h-4.1V-98.9 M-1000.7-107.5h-5.3
				c-0.4,0-0.7,0.1-0.9,0.4c-0.2,0.3-0.4,0.6-0.4,0.9v14.3c0,0.4,0.1,0.7,0.4,0.9c0.2,0.3,0.6,0.4,0.9,0.4c0.4,0,0.7-0.1,0.9-0.4
				c0.3-0.2,0.4-0.6,0.4-0.9v-4.8h4c1.5,0,2.8-0.3,3.7-0.8c1-0.5,1.7-1.2,2.1-2c0.4-0.8,0.6-1.7,0.6-2.6c0-0.9-0.2-1.8-0.6-2.6
				c-0.4-0.8-1.1-1.5-2.1-2C-997.9-107.3-999.2-107.5-1000.7-107.5L-1000.7-107.5z M-1004.7-105h3.8c1.5,0,2.6,0.3,3.2,0.8
				c0.6,0.6,0.9,1.2,0.9,2.1c0,0.8-0.3,1.5-0.9,2.1c-0.6,0.6-1.7,0.8-3.2,0.8h-3.8V-105L-1004.7-105z"/>
		</g>
		<g>
			<path class="st3" d="M-978.3-90.7c-0.3,0-0.5-0.1-0.8-0.2c-0.2-0.1-0.4-0.3-0.6-0.5l-8.8-12.8v12.3c0,0.3-0.1,0.6-0.4,0.8
				c-0.2,0.2-0.5,0.3-0.8,0.3c-0.3,0-0.6-0.1-0.8-0.3c-0.2-0.2-0.3-0.5-0.3-0.8v-14c0-0.5,0.2-0.8,0.5-1.2c0.3-0.3,0.7-0.5,1.2-0.5
				h0.3c0.5,0,1,0.3,1.4,0.8l8.8,12.7v-12.3c0-0.3,0.1-0.6,0.3-0.8c0.2-0.2,0.5-0.4,0.8-0.4c0.3,0,0.6,0.1,0.9,0.4
				c0.2,0.2,0.4,0.5,0.4,0.8v14c0,0.5-0.2,0.8-0.5,1.2c-0.3,0.3-0.7,0.5-1.2,0.5H-978.3z"/>
			<path class="st3" d="M-977.6-107.4c0.3,0,0.6,0.1,0.8,0.3c0.2,0.2,0.3,0.5,0.3,0.8v14c0,0.4-0.2,0.8-0.5,1.1
				c-0.3,0.3-0.7,0.4-1.1,0.4h-0.3c-0.3,0-0.5-0.1-0.7-0.2c-0.2-0.1-0.4-0.3-0.5-0.5l-9.1-13.1v12.7c0,0.3-0.1,0.5-0.3,0.7
				c-0.2,0.2-0.5,0.3-0.8,0.3c-0.3,0-0.5-0.1-0.8-0.3c-0.2-0.2-0.3-0.5-0.3-0.7v-14c0-0.4,0.1-0.8,0.4-1.1c0.3-0.3,0.7-0.5,1.1-0.5
				h0.3c0.5,0,0.9,0.2,1.3,0.7l9,13v-12.7c0-0.3,0.1-0.6,0.3-0.8C-978.1-107.3-977.9-107.4-977.6-107.4 M-977.6-107.7
				c-0.4,0-0.7,0.1-0.9,0.4c-0.2,0.3-0.4,0.6-0.4,0.9v11.9l-8.6-12.4c-0.4-0.5-0.9-0.8-1.5-0.8h-0.3c-0.5,0-0.9,0.2-1.3,0.5
				c-0.3,0.4-0.5,0.8-0.5,1.3v14c0,0.4,0.1,0.7,0.4,0.9c0.2,0.3,0.6,0.4,0.9,0.4c0.4,0,0.7-0.1,0.9-0.4c0.3-0.2,0.4-0.6,0.4-0.9
				v-11.9l8.6,12.4c0.2,0.2,0.4,0.4,0.6,0.5c0.3,0.1,0.5,0.2,0.8,0.2h0.3c0.5,0,0.9-0.2,1.3-0.5c0.4-0.3,0.5-0.8,0.5-1.3v-14
				c0-0.4-0.1-0.7-0.4-0.9C-976.9-107.5-977.2-107.7-977.6-107.7L-977.6-107.7z"/>
		</g>
	</g>
	<g>
		<path class="st9" d="M-1173.9-97.3c0,0,2.2-3.1,5.2-4.5c0,0,0.7,3.2,2,6c1.2,2.6,2.8,4.6,3.5,5c0,0,0,0.1,0,0.1
			c-2,2.1-6.6,2.6-6.5,2.5c2.1-1,3.7-2.4,3.7-2.4c-4.2-5.2-4.3-8.8-4.3-8.8C-1172.6-98.7-1173.9-97.3-1173.9-97.3z"/>
		<path class="st9" d="M-1165.7-102.4c0,0-0.1,1.5,1.5,5.6c1.1,2.8,3.2,4.2,3.3,4.1c2.1-1.8,3.4-4.2,2.9-6.6
			C-1159.1-104.5-1163.9-103.6-1165.7-102.4z"/>
		<path class="st9" d="M-1162.2-88.1l1.4,0.8l-3.6,2.2c0,0,3.2-1.2,4.9-2.1c8.8-4.5,10.4-14.3,10-19c0,0,0-0.3,0-0.3s0,0-0.1,0
			c-3.3,0.2-9-1.8-10.4-4.4c0,0-0.2-0.1-0.2-0.1s-1.2,1.6-3.5,2.9c-2,1.1-5.4,0.3-5.4,0.3l2.5,0.9l-4.2,0.5l-0.1,2.1
			c-1.9,1.8-3,3.8-3,3.8s0,0,0.1-0.1c4.1-3.8,7.9-5.4,8.6-5.7c0.7-0.2,2.9-1.1,5.5-0.7c2.3,0.3,3.4,2,4.1,2.8
			c1.3,1.6,3.5,9.2-2.1,13.5C-1160.9-88.4-1162.2-88.1-1162.2-88.1z"/>
	</g>
	<g>
		<path class="st10" d="M-788.9-552.6l-4.9-2.8v-24.2l4.9-2.8h12.3l4.9,2.8v24.2l-4.9,2.8l4.7,8.2h-4.7l-4.6-8.2H-788.9z
			 M-789.6-556.4h13.7v-22.3h-13.7V-556.4z"/>
		<path class="st10" d="M-763.5-573.8h4.1v17.6h9.7v-17.6h4.1v21.2h-3.1l-1-1.7l-3,1.7h-5.9l-4.9-2.8V-573.8z"/>
		<path class="st10" d="M-738.7-555.4v-6.8l4.9-2.8h7.6v-5.1h-10.4v-3.7h9.6l4.9,2.8v18.4h-1.1l-3-1.7l-3,1.7h-4.7L-738.7-555.4z
			 M-734.7-556.3h8.4v-5.2h-8.4V-556.3z"/>
		<path class="st10" d="M-696.5-552.8h-4.1v-17.6h-9.7v17.6h-4.1v-21.2h3.1l1,1.7l3-1.7h5.9l4.9,2.8V-552.8z"/>
		<path class="st10" d="M-690.4-573.8h3.9v-3.5l4.1-2.4v5.9h5v3.7h-5v13.7h5v3.7h-4.2l-4.9-2.8v-14.5h-3.9V-573.8z"/>
		<path class="st10" d="M-670.7-583.5h4.5v4.5h-4.5V-583.5z M-666.5-552.8h-4.1v-21h4.1V-552.8z"/>
		<path class="st10" d="M-654.6-556.5h11.7v3.7h-10.9l-4.9-2.8V-571l4.9-2.8h10.9v3.7h-11.7V-556.5z"/>
		<path class="st10" d="M-623-552.6h-8.1l-4.9-2.8v-15.8l4.9-2.8h8.1l4.9,2.8v15.8L-623-552.6z M-631.9-556.3h9.7v-14.1h-9.7V-556.3
			z"/>
	</g>
	<g>
		<path class="st10" d="M-790-385h13v3.4H-794v-30.1h4.1V-385z"/>
		<path class="st10" d="M-756.4-381.5h-1.7c-0.4,0-0.7-0.1-0.9-0.2c-0.2-0.1-0.4-0.3-0.4-0.7l-0.4-2c-0.6,0.5-1.1,1-1.6,1.4
			c-0.5,0.4-1.1,0.7-1.7,1s-1.2,0.5-1.9,0.6c-0.7,0.1-1.4,0.2-2.2,0.2c-0.8,0-1.6-0.1-2.3-0.3c-0.7-0.2-1.3-0.6-1.9-1
			c-0.5-0.5-1-1.1-1.3-1.8c-0.3-0.7-0.5-1.5-0.5-2.5c0-0.8,0.2-1.7,0.7-2.4s1.2-1.5,2.2-2.1s2.4-1.1,4-1.5c1.7-0.4,3.7-0.6,6.1-0.6
			v-1.7c0-1.7-0.4-2.9-1.1-3.8s-1.8-1.3-3.1-1.3c-0.9,0-1.7,0.1-2.3,0.3c-0.6,0.2-1.2,0.5-1.6,0.8c-0.5,0.3-0.8,0.5-1.2,0.8
			s-0.7,0.3-1,0.3c-0.3,0-0.5-0.1-0.7-0.2c-0.2-0.1-0.3-0.3-0.5-0.5l-0.7-1.2c1.2-1.1,2.4-2,3.8-2.5c1.4-0.6,2.9-0.8,4.5-0.8
			c1.2,0,2.2,0.2,3.2,0.6c0.9,0.4,1.7,0.9,2.3,1.6s1.1,1.5,1.4,2.5s0.5,2.1,0.5,3.3V-381.5z M-766.1-383.8c0.7,0,1.3-0.1,1.8-0.2
			c0.5-0.1,1.1-0.3,1.5-0.6c0.5-0.2,0.9-0.5,1.4-0.9c0.4-0.3,0.9-0.7,1.3-1.2v-4.4c-1.7,0-3.2,0.1-4.4,0.3c-1.2,0.2-2.2,0.5-2.9,0.9
			c-0.8,0.4-1.3,0.8-1.6,1.2c-0.3,0.5-0.5,1-0.5,1.6c0,0.6,0.1,1,0.3,1.5s0.4,0.7,0.7,1c0.3,0.3,0.7,0.5,1.1,0.6
			S-766.6-383.8-766.1-383.8z"/>
		<path class="st10" d="M-743.2-381.2c-1.7,0-3-0.5-3.9-1.4c-0.9-0.9-1.4-2.3-1.4-4.1v-13h-2.6c-0.2,0-0.4-0.1-0.6-0.2
			c-0.2-0.1-0.2-0.3-0.2-0.6v-1.5l3.5-0.4l0.9-6.6c0-0.2,0.1-0.4,0.3-0.5c0.2-0.1,0.3-0.2,0.6-0.2h1.9v7.3h6.1v2.7h-6.1v12.8
			c0,0.9,0.2,1.6,0.7,2s1,0.7,1.7,0.7c0.4,0,0.7-0.1,1-0.2s0.5-0.2,0.7-0.3s0.4-0.2,0.5-0.3c0.1-0.1,0.3-0.2,0.4-0.2
			c0.2,0,0.4,0.1,0.5,0.4l1.1,1.8c-0.6,0.6-1.4,1.1-2.3,1.4C-741.3-381.4-742.2-381.2-743.2-381.2z"/>
		<path class="st10" d="M-724.3-403.2c1.6,0,3,0.3,4.2,0.8c1.3,0.5,2.3,1.3,3.2,2.2s1.5,2.1,2,3.5c0.5,1.4,0.7,2.9,0.7,4.5
			c0,1.7-0.2,3.2-0.7,4.5c-0.5,1.3-1.1,2.5-2,3.4c-0.9,1-1.9,1.7-3.2,2.2c-1.3,0.5-2.7,0.8-4.2,0.8c-1.6,0-3-0.3-4.2-0.8
			c-1.3-0.5-2.3-1.2-3.2-2.2c-0.9-1-1.6-2.1-2-3.4c-0.5-1.3-0.7-2.9-0.7-4.5c0-1.7,0.2-3.2,0.7-4.5c0.5-1.4,1.2-2.5,2-3.5
			s1.9-1.7,3.2-2.2C-727.3-402.9-725.9-403.2-724.3-403.2z M-724.3-384.2c2.1,0,3.7-0.7,4.7-2.1c1-1.4,1.6-3.4,1.6-5.9
			c0-2.5-0.5-4.5-1.6-5.9s-2.6-2.1-4.7-2.1c-1.1,0-2,0.2-2.8,0.5c-0.8,0.4-1.4,0.9-2,1.6s-0.9,1.5-1.2,2.5c-0.3,1-0.4,2.1-0.4,3.4
			c0,1.3,0.1,2.4,0.4,3.4c0.3,1,0.7,1.8,1.2,2.5s1.2,1.2,2,1.6C-726.3-384.4-725.4-384.2-724.3-384.2z"/>
	</g>
	<g>
		<path class="st10" d="M-793.3-166.5c0-0.1,0-0.3,0.1-0.6l10-27.6c0.2-0.4,0.7-0.7,1.7-0.7h1.2c1,0,1.6,0.2,1.7,0.7l10,27.6
			c0.1,0.2,0.1,0.4,0.1,0.5c0,0.5-0.6,0.7-1.8,0.7h-0.3c-1,0-1.5-0.2-1.7-0.7l-2.5-6.9h-12.3l-2.4,6.9c-0.1,0.4-0.7,0.7-1.7,0.7
			h-0.2C-792.7-165.8-793.3-166.1-793.3-166.5z M-776-176.6l-4.4-12.5c-0.1-0.4-0.3-1.3-0.5-2.4h-0.1c-0.2,1.1-0.4,1.9-0.6,2.4
			l-4.4,12.5H-776z"/>
		<path class="st10" d="M-762.2-166c-1-0.3-1.8-0.7-2.4-1.1c-0.6-0.4-0.9-0.8-0.9-1.1c0-0.3,0.2-0.7,0.5-1.3
			c0.3-0.6,0.7-0.8,0.9-0.8c0.1,0,0.3,0.2,0.8,0.5c0.5,0.3,1.1,0.6,1.8,0.8c0.7,0.3,1.5,0.4,2.4,0.4c2.7,0,4.1-1.1,4.1-3.4
			c0-1-0.3-1.7-0.9-2.3c-0.6-0.6-1.7-1.1-3.3-1.5c-2.2-0.6-3.7-1.4-4.6-2.4c-0.8-1-1.3-2.3-1.3-3.9c0-1.2,0.3-2.2,0.9-3.2
			c0.6-0.9,1.4-1.6,2.5-2.2c1-0.5,2.2-0.8,3.6-0.8c1.4,0,2.7,0.2,3.8,0.5s1.7,0.8,1.7,1.3c0,0.4-0.2,0.8-0.5,1.4
			c-0.3,0.6-0.6,0.9-0.9,0.9c-0.1,0-0.5-0.2-1.1-0.6c-0.7-0.3-1.6-0.5-2.7-0.5c-1.1,0-2,0.2-2.7,0.7c-0.7,0.5-1.1,1.1-1.1,1.9
			c0,1,0.3,1.7,0.8,2.3c0.5,0.6,1.3,1,2.5,1.4c1.8,0.6,3.2,1.1,4.1,1.7c0.9,0.5,1.6,1.2,2,2c0.4,0.8,0.6,1.8,0.6,3.1
			c0,1.2-0.3,2.3-1,3.3c-0.7,1-1.6,1.8-2.7,2.4c-1.1,0.6-2.4,0.9-3.8,0.9C-760-165.5-761.1-165.7-762.2-166z"/>
		<path class="st10" d="M-744.5-167.3c-1.3-1.1-2-2.6-2-4.7c0-2.2,0.7-3.9,2-5c1.3-1.1,3-1.8,4.9-2.1c1.9-0.3,4.3-0.5,7.1-0.5v-2
			c0-1-0.4-1.9-1.1-2.5c-0.7-0.7-1.9-1-3.5-1c-1.2,0-2.3,0.1-3.2,0.4c-0.9,0.3-1.7,0.6-2.3,0.9c-0.6,0.3-1,0.4-1,0.4
			c-0.3,0-0.6-0.3-0.9-0.8c-0.4-0.6-0.5-1-0.5-1.3c0-0.4,0.4-0.8,1.1-1.2s1.7-0.8,3-1.1c1.2-0.3,2.5-0.4,3.8-0.4
			c2.6,0,4.6,0.6,6.1,1.7s2.2,2.8,2.2,4.9v9.4c0,1.8,0.1,3.2,0.3,4s0.3,1.2,0.3,1.3c0,0.3-0.3,0.6-0.8,0.7c-0.5,0.2-1,0.2-1.5,0.2
			c-0.4,0-0.7-0.2-0.9-0.7c-0.2-0.4-0.3-0.9-0.4-1.4c-0.1-0.5-0.2-0.8-0.2-0.9c-1.9,2.1-4.3,3.2-7.1,3.2
			C-741.5-165.7-743.2-166.2-744.5-167.3z M-735.6-169.5c1-0.5,2-1.2,3-2.1v-5c-2.1,0-3.8,0.1-5.1,0.3c-1.3,0.1-2.5,0.5-3.5,1.2
			c-1,0.6-1.5,1.6-1.5,3c0,1.1,0.3,2,0.9,2.6c0.6,0.6,1.5,0.9,2.7,0.9C-737.8-168.7-736.6-169-735.6-169.5z"/>
		<path class="st10" d="M-721-158.1v-23.4c0-1.8-0.1-3.2-0.3-4c-0.2-0.8-0.3-1.2-0.3-1.3c0-0.3,0.3-0.6,0.8-0.7
			c0.5-0.2,1-0.2,1.5-0.2c0.4,0,0.7,0.2,0.9,0.6c0.2,0.4,0.3,0.8,0.4,1.3c0.1,0.4,0.2,0.7,0.2,0.9c2-2.1,4.2-3.1,6.7-3.1
			c1.7,0,3.2,0.5,4.4,1.4c1.2,1,2.1,2.3,2.8,4c0.6,1.7,1,3.6,1,5.8c0,2.4-0.4,4.4-1.1,6.1c-0.7,1.7-1.7,3-3,3.8s-2.8,1.3-4.5,1.3
			c-1.2,0-2.3-0.2-3.3-0.5c-0.9-0.4-1.9-0.9-2.8-1.6v9.7c0,0.6-0.6,0.9-1.7,0.9h-0.2C-720.5-157.2-721-157.5-721-158.1z
			 M-708.1-170.8c1-1.3,1.4-3.3,1.4-5.8c0-2.7-0.4-4.8-1.3-6.3c-0.9-1.5-2.2-2.2-3.8-2.2c-1,0-1.9,0.3-2.9,0.8s-1.9,1.2-2.8,2.1
			v11.5c1.5,1.3,3.2,1.9,5.2,1.9C-710.4-168.8-709-169.4-708.1-170.8z"/>
	</g>
	
		<image style="overflow:visible;" width="400" height="392" xlink:href="../../../../../Portfolio 2018/img/brand-demos/logo-shred4less.png"  transform="matrix(0.48 0 0 0.48 -413.5 5.5)">
	</image>
	<g>
		<path class="st10" d="M-400.3-332l0.4-1.6c0.4,0.2,0.9,0.4,1.5,0.6c0.6,0.2,1.1,0.3,1.6,0.3c0.8,0,1.4-0.1,1.8-0.4
			c0.4-0.3,0.6-0.7,0.6-1.1c0-0.3-0.1-0.6-0.3-0.9c-0.2-0.3-0.5-0.5-0.9-0.7c-0.4-0.2-0.9-0.5-1.5-0.8c-1.1-0.6-2-1.1-2.5-1.7
			c-0.6-0.6-0.9-1.3-0.9-2.1c0-0.6,0.2-1.2,0.5-1.6s0.8-0.9,1.4-1.2c0.6-0.3,1.3-0.4,2.2-0.4c0.6,0,1.1,0.1,1.7,0.2s1.1,0.4,1.6,0.6
			l-0.7,1.6c-0.5-0.2-0.9-0.4-1.3-0.5c-0.4-0.1-0.8-0.2-1.3-0.2c-0.6,0-1.1,0.1-1.5,0.4c-0.4,0.2-0.6,0.6-0.6,1.1
			c0,0.3,0.1,0.6,0.3,0.9s0.5,0.5,0.8,0.7s0.9,0.5,1.6,0.9c0.8,0.4,1.4,0.8,1.8,1.1c0.5,0.3,0.8,0.7,1.1,1.2s0.4,1,0.4,1.6
			c0,0.6-0.2,1.2-0.5,1.7c-0.3,0.5-0.9,0.9-1.5,1.2c-0.7,0.3-1.5,0.4-2.4,0.4c-0.5,0-1.2-0.1-1.9-0.3S-400-331.8-400.3-332z"/>
		<path class="st10" d="M-388.3-331.3h-2v-8.7h1.3l0.4,1c0.5-0.4,1.1-0.7,1.7-1c0.6-0.2,1.2-0.4,1.7-0.4c1,0,1.8,0.3,2.2,0.9
			c0.5,0.6,0.7,1.4,0.7,2.5v5.6h-2v-5.5c0-1.2-0.5-1.8-1.3-1.8c-0.7,0-1.6,0.4-2.6,1.2V-331.3z"/>
		<path class="st10" d="M-372-333.3c-0.4,0.7-0.9,1.2-1.6,1.6c-0.7,0.4-1.5,0.6-2.4,0.6c-0.9,0-1.7-0.2-2.4-0.6
			c-0.7-0.4-1.2-0.9-1.6-1.6c-0.4-0.7-0.5-1.5-0.5-2.4c0-0.9,0.2-1.7,0.5-2.4c0.4-0.7,0.9-1.2,1.6-1.6s1.5-0.6,2.4-0.6
			c0.9,0,1.7,0.2,2.4,0.6c0.7,0.4,1.2,0.9,1.6,1.6c0.4,0.7,0.5,1.5,0.5,2.4S-371.6-334-372-333.3z M-374.2-333.6
			c0.5-0.5,0.7-1.2,0.7-2c0-0.9-0.2-1.5-0.7-2.1c-0.4-0.5-1-0.8-1.8-0.8c-0.7,0-1.3,0.3-1.8,0.8c-0.4,0.5-0.7,1.2-0.7,2.1
			c0,0.9,0.2,1.5,0.7,2.1c0.4,0.5,1,0.8,1.8,0.8C-375.3-332.8-374.7-333.1-374.2-333.6z"/>
		<path class="st10" d="M-362.5-331.3l-1.8-5.8l-1.7,5.8h-1.8l-2.6-8.4l2-0.6l1.6,5.9l1.5-5.6h2.2l1.6,5.6l1.5-5.6h2.1l-2.8,8.7
			H-362.5z"/>
	</g>
	<g>
		<path class="st11" d="M-265.2-332l0.4-1.6c0.4,0.2,0.9,0.4,1.5,0.6c0.6,0.2,1.1,0.3,1.6,0.3c0.8,0,1.4-0.1,1.8-0.4
			c0.4-0.3,0.6-0.7,0.6-1.1c0-0.3-0.1-0.6-0.3-0.9c-0.2-0.3-0.5-0.5-0.9-0.7c-0.4-0.2-0.9-0.5-1.5-0.8c-1.1-0.6-2-1.1-2.5-1.7
			c-0.6-0.6-0.9-1.3-0.9-2.1c0-0.6,0.2-1.2,0.5-1.6s0.8-0.9,1.4-1.2c0.6-0.3,1.3-0.4,2.2-0.4c0.6,0,1.1,0.1,1.7,0.2s1.1,0.4,1.6,0.6
			l-0.7,1.6c-0.5-0.2-0.9-0.4-1.3-0.5c-0.4-0.1-0.8-0.2-1.3-0.2c-0.6,0-1.1,0.1-1.5,0.4c-0.4,0.2-0.6,0.6-0.6,1.1
			c0,0.3,0.1,0.6,0.3,0.9s0.5,0.5,0.8,0.7s0.9,0.5,1.6,0.9c0.8,0.4,1.4,0.8,1.8,1.1c0.5,0.3,0.8,0.7,1.1,1.2s0.4,1,0.4,1.6
			c0,0.6-0.2,1.2-0.5,1.7c-0.3,0.5-0.9,0.9-1.5,1.2c-0.7,0.3-1.5,0.4-2.4,0.4c-0.5,0-1.2-0.1-1.9-0.3S-264.9-331.8-265.2-332z"/>
		<path class="st11" d="M-249.4-340h2v8.7h-1.4l-0.4-1c-0.5,0.4-1.1,0.7-1.7,1c-0.6,0.2-1.2,0.4-1.7,0.4c-1.9,0-2.9-1.1-2.9-3.4
			v-5.6h2v5.5c0,1.2,0.5,1.8,1.3,1.8c0.7,0,1.6-0.4,2.6-1.2V-340z"/>
		<path class="st11" d="M-242.8-331.3h-2v-8.7h1.1l0.7,1.4c0.4-0.4,0.9-0.7,1.5-1c0.6-0.3,1-0.5,1.5-0.5l0.4,1.6
			c-0.4,0-0.9,0.2-1.5,0.5c-0.6,0.3-1.1,0.7-1.6,1.1V-331.3z"/>
		<path class="st11" d="M-238.9-338.4v-1.5h1.3v-0.9c0-0.9,0.3-1.7,0.8-2.2c0.5-0.5,1.3-0.8,2.3-0.8c0.3,0,0.6,0,0.9,0.1
			c0.3,0.1,0.6,0.2,0.7,0.3l-0.6,1.5c-0.4-0.1-0.7-0.2-0.9-0.2c-0.4,0-0.7,0.1-0.9,0.4c-0.2,0.3-0.3,0.7-0.3,1.1v0.7h1.6l0.6,1.5
			h-2.3v7.1h-2v-7.1H-238.9z"/>
	</g>
	<g>
		<path class="st5" d="M100.8,6.5C67.3,6.5,40.2,33.6,40.2,67c0,33.4,27.1,60.5,60.5,60.5c33.4,0,60.5-27.1,60.5-60.5
			C161.3,33.6,134.2,6.5,100.8,6.5z M155.4,45.7c1.8,4.5,3,9.2,3.5,14l-1.2,0.1c-0.6-4.7-1.8-9.3-3.5-13.7L155.4,45.7z M144,27.4
			c3.3,3.6,6.1,7.5,8.4,11.7l-1.1,0.6c-2.2-4.1-5-8-8.2-11.5L144,27.4z M126.8,14.4c4.3,2.1,8.4,4.8,12,8l-0.8,0.9
			c-3.6-3.1-7.5-5.7-11.8-7.8L126.8,14.4z M106.1,8.6c4.8,0.4,9.5,1.5,14.1,3l-0.4,1.2c-4.4-1.6-9.1-2.6-13.8-3L106.1,8.6z
			 M98.8,8.4l0,1.2c-4.7,0.2-9.4,0.9-13.9,2.2l-0.3-1.2C89.2,9.3,94,8.5,98.8,8.4z M77.8,13l0.5,1.1c-4.3,1.8-8.4,4.2-12.2,7.1
			l-0.7-1C69.2,17.3,73.4,14.9,77.8,13z M59.9,24.9l0.8,0.9c-3.4,3.3-6.4,7-8.8,11l-1-0.6C53.4,32.1,56.4,28.3,59.9,24.9z
			 M47.4,42.5l1.1,0.5c-2,4.3-3.4,8.8-4.3,13.5l-1.2-0.2C43.9,51.5,45.4,46.9,47.4,42.5z M43.1,77.8c-0.7-3.6-1-7.2-1-10.8
			c0-1.2,0-2.4,0.1-3.5l1.2,0.1c-0.1,1.2-0.1,2.3-0.1,3.5c0,3.6,0.3,7.1,1,10.6L43.1,77.8z M50.9,97.9c-2.5-4.1-4.6-8.5-6-13.1
			l1.2-0.4c1.4,4.5,3.4,8.8,5.9,12.8L50.9,97.9z M65.4,113.8c-3.8-2.9-7.3-6.3-10.4-10l1-0.8c3,3.7,6.4,7,10.1,9.8L65.4,113.8z
			 M84.7,123.4c-4.6-1.3-9.1-3.2-13.3-5.6l0.6-1.1c4.1,2.4,8.5,4.2,13,5.5L84.7,123.4z M89,107.5c-4.4,0-9.6,0.3-15.7,0.9V107
			c3.4-1,5.9-3.2,7.4-6.3c1.5-3.1,2.2-8.3,2.2-15.4V48.5c0-6.8-0.9-11.5-2.7-14.2c-1.8-2.6-4.1-4.3-6.9-4.9v-1.4
			c5.3,0.4,10.5,0.7,15.7,0.9V107.5L89,107.5L89,107.5z M100.8,125.7c-3,0-6-0.2-9-0.7l0.2-1.2c4.6,0.7,9.4,0.9,14.1,0.4l0.1,1.2
			C104.4,125.6,102.6,125.7,100.8,125.7z M113.3,124.3l-0.3-1.2c4.6-1,9.1-2.6,13.3-4.7l0.5,1.1C122.6,121.7,118,123.3,113.3,124.3z
			 M118.4,70.7h-17.7V88c0,11.2,3.4,17.6,10.3,19v1.3c-7.1-0.6-11.5-0.9-13.4-0.9h-3V28.8h18.5c5.4,0,12.4-0.3,21.2-0.9
			c0,1.3-0.1,3-0.1,5.1c0,1.2,0.1,3.4,0.2,6.7c0.2,3.6,0.2,5.5,0.2,5.7v1.9h-1.6c-1.4-9-5.6-13.4-12.7-13.4h-14.5
			c-1.6,0-3.1,0.2-4.4,0.7c-0.7,3.9-1,9.2-1,15.7v15.4h13.1c5.6,0,9.7-0.7,12.3-2.1c2.5-1.3,4.2-3.8,4.9-7.2h1.6
			c-0.3,5.4-0.5,9.1-0.5,11.1c0,1.2,0.1,3.4,0.2,6.3c0.2,2.8,0.3,4.9,0.3,6.1v2.5H131C130.8,74.6,126.6,70.7,118.4,70.7z
			 M133.2,115.9l-0.7-1c3.9-2.6,7.5-5.7,10.7-9.2l0.9,0.8C140.9,110.1,137.2,113.2,133.2,115.9z M148.6,100.9l-1-0.7
			c2.7-3.9,5-8,6.7-12.4l1.1,0.4C153.7,92.7,151.4,97,148.6,100.9z M157.7,81.3l-1.2-0.3c1.1-4.6,1.7-9.3,1.7-14v-0.1h1.2V67
			C159.4,71.8,158.8,76.6,157.7,81.3z"/>
	</g>
	<g>
		<path class="st5" d="M37.3,171.8V161c0-0.2,0.1-0.4,0.2-0.5c0.1-0.1,0.3-0.1,0.5-0.1h5.5c0.2,0,0.3,0.1,0.3,0.2
			c0.1,0.1,0.1,0.3,0.1,0.6v0.4c0,0.3,0,0.4-0.1,0.6c-0.1,0.1-0.2,0.2-0.3,0.2h-3.9v3h3.7c0.2,0,0.3,0.1,0.3,0.2
			c0.1,0.1,0.1,0.3,0.1,0.6v0.4c0,0.3,0,0.4-0.1,0.6c-0.1,0.1-0.2,0.2-0.3,0.2h-3.7v4.7c0,0.2-0.1,0.3-0.2,0.4
			c-0.1,0.1-0.4,0.1-0.7,0.1h-0.4C37.6,172.3,37.3,172.2,37.3,171.8z"/>
		<path class="st5" d="M51.8,170.9c-0.9-1-1.4-2.5-1.4-4.5c0-2,0.5-3.5,1.4-4.5c0.9-1,2.3-1.6,4-1.6c1.7,0,3.1,0.5,4,1.5
			c0.9,1,1.4,2.5,1.4,4.5c0,2-0.5,3.5-1.4,4.5c-0.9,1-2.3,1.6-4,1.6C54,172.4,52.7,171.9,51.8,170.9z M58,169.4
			c0.5-0.7,0.8-1.8,0.8-3.1c0-1.4-0.3-2.4-0.8-3.1c-0.5-0.7-1.3-1.1-2.3-1.1s-1.8,0.4-2.3,1.1c-0.5,0.7-0.8,1.7-0.8,3.1
			c0,1.4,0.3,2.4,0.8,3.1c0.5,0.7,1.3,1.1,2.3,1.1C56.8,170.5,57.5,170.2,58,169.4z"/>
		<path class="st5" d="M69.3,172.2c-0.6-0.2-1.1-0.4-1.4-0.6c-0.3-0.2-0.4-0.4-0.4-0.6c0-0.2,0.1-0.5,0.3-0.8s0.4-0.5,0.6-0.5
			c0.1,0,0.2,0.1,0.4,0.2c0.4,0.2,0.7,0.3,1,0.4s0.7,0.2,1.2,0.2c0.5,0,0.9-0.1,1.3-0.4c0.3-0.2,0.5-0.6,0.5-1.1
			c0-0.3-0.1-0.6-0.3-0.8s-0.4-0.4-0.7-0.5c-0.3-0.1-0.6-0.3-1.1-0.5l-0.6-0.3c-0.5-0.2-1-0.5-1.3-0.7c-0.4-0.3-0.6-0.6-0.9-1
			s-0.3-1-0.3-1.6c0-0.7,0.2-1.3,0.5-1.8c0.4-0.5,0.8-0.9,1.4-1.1c0.6-0.3,1.3-0.4,2-0.4c0.5,0,1,0.1,1.5,0.2
			c0.5,0.1,0.8,0.3,1.1,0.5c0.2,0.2,0.4,0.3,0.4,0.5c0,0.2-0.1,0.5-0.3,0.8c-0.2,0.3-0.4,0.5-0.5,0.5c-0.1,0-0.1,0-0.3-0.1
			c-0.1-0.1-0.2-0.1-0.3-0.1c-0.5-0.2-0.9-0.3-1.4-0.3c-0.6,0-1.1,0.1-1.4,0.4c-0.3,0.2-0.4,0.6-0.4,0.9c0,0.3,0.1,0.6,0.3,0.8
			c0.2,0.2,0.4,0.4,0.6,0.5s0.6,0.3,1.1,0.5c0.6,0.3,1.2,0.5,1.6,0.8c0.4,0.3,0.8,0.6,1.1,1.1c0.3,0.5,0.5,1,0.5,1.8
			c0,1.2-0.4,2.1-1.1,2.7c-0.7,0.6-1.6,0.9-2.7,0.9C70.6,172.4,69.9,172.3,69.3,172.2z"/>
		<path class="st5" d="M84.2,171.8v-9.5h-2.9c-0.2,0-0.3-0.1-0.3-0.2c-0.1-0.1-0.1-0.3-0.1-0.6v-0.4c0-0.3,0-0.4,0.1-0.6
			c0.1-0.1,0.2-0.2,0.3-0.2h8c0.2,0,0.3,0.1,0.3,0.2c0.1,0.1,0.1,0.3,0.1,0.6v0.4c0,0.3,0,0.4-0.1,0.6c-0.1,0.1-0.2,0.2-0.3,0.2
			h-2.9v9.5c0,0.3-0.3,0.5-0.9,0.5h-0.4C84.5,172.3,84.2,172.2,84.2,171.8z"/>
		<path class="st5" d="M96.7,172.1c-0.1-0.1-0.2-0.3-0.2-0.5V161c0-0.2,0.1-0.4,0.2-0.5c0.1-0.1,0.3-0.1,0.5-0.1h6
			c0.2,0,0.3,0.1,0.3,0.2c0.1,0.1,0.1,0.3,0.1,0.6v0.4c0,0.3,0,0.4-0.1,0.6c-0.1,0.1-0.2,0.2-0.3,0.2h-4.4v3h3.9
			c0.2,0,0.3,0.1,0.3,0.2c0.1,0.1,0.1,0.3,0.1,0.6v0.4c0,0.3,0,0.4-0.1,0.6c-0.1,0.1-0.2,0.2-0.3,0.2h-3.9v3.2h4.4
			c0.2,0,0.3,0.1,0.3,0.2c0.1,0.1,0.1,0.3,0.1,0.6v0.4c0,0.3,0,0.4-0.1,0.6c-0.1,0.1-0.2,0.2-0.3,0.2h-6
			C96.9,172.3,96.8,172.3,96.7,172.1z"/>
		<path class="st5" d="M110.8,171.8V161c0-0.2,0-0.4,0.1-0.5c0.1-0.1,0.3-0.2,0.5-0.2h3.2c1.4,0,2.5,0.3,3.2,0.8
			c0.7,0.5,1,1.3,1,2.3c0,0.7-0.2,1.2-0.5,1.7c-0.4,0.5-0.8,0.8-1.4,1.1v0.1c0.2,0.1,0.5,0.3,0.7,0.6s0.4,0.7,0.6,1.1l1.4,3.6
			c0,0.2,0.1,0.3,0.1,0.3c0,0.2-0.3,0.3-0.9,0.3h-0.5c-0.5,0-0.8-0.1-0.9-0.3l-1.3-3.3c-0.2-0.5-0.4-0.8-0.7-1
			c-0.3-0.2-0.7-0.3-1.3-0.3h-1v4.4c0,0.3-0.3,0.5-0.9,0.5h-0.4C111.1,172.3,110.8,172.2,110.8,171.8z M114.9,165.5
			c0.4,0,0.8-0.2,1.1-0.5c0.3-0.3,0.5-0.7,0.5-1.2c0-0.5-0.2-0.9-0.5-1.1c-0.3-0.3-0.7-0.4-1.3-0.4h-1.7v3.2H114.9z"/>
		<path class="st5" d="M126.2,171.8v-11c0-0.3,0.3-0.5,0.9-0.5h0.4c0.6,0,0.9,0.2,0.9,0.5v11c0,0.3-0.3,0.5-0.9,0.5h-0.4
			C126.5,172.4,126.2,172.2,126.2,171.8z"/>
		<path class="st5" d="M136.2,171.8v-11c0-0.3,0.3-0.5,0.9-0.5h0.6c0.2,0,0.5,0,0.6,0.1c0.2,0.1,0.3,0.2,0.4,0.3l4.4,6.6
			c0.2,0.3,0.4,0.7,0.6,1l0.1,0c0-0.3,0-0.6,0-1.2v-6.4c0-0.3,0.3-0.5,0.9-0.5h0.4c0.6,0,0.9,0.2,0.9,0.5v11c0,0.3-0.3,0.5-0.9,0.5
			h-0.5c-0.2,0-0.4,0-0.6-0.1s-0.3-0.2-0.4-0.3l-4.5-6.8c-0.2-0.4-0.4-0.7-0.6-1l-0.1,0c0,0.3,0,0.6,0,1.2v6.5
			c0,0.3-0.3,0.5-0.9,0.5h-0.4C136.5,172.3,136.2,172.2,136.2,171.8z"/>
		<path class="st5" d="M162.3,166c0.1,0.1,0.2,0.3,0.2,0.5v4.7c0,0.5-0.4,0.8-1.2,1c-0.8,0.2-1.7,0.3-2.7,0.3
			c-1.8,0-3.2-0.5-4.1-1.5c-0.9-1-1.4-2.5-1.4-4.6c0-4.1,1.9-6.1,5.6-6.1c0.5,0,1.1,0.1,1.6,0.2c0.5,0.1,1,0.2,1.4,0.4
			c0.4,0.2,0.5,0.4,0.5,0.6c0,0.1-0.1,0.3-0.2,0.5c-0.1,0.2-0.2,0.4-0.4,0.6s-0.3,0.3-0.4,0.3c0,0-0.2-0.1-0.4-0.2s-0.5-0.2-0.9-0.3
			s-0.8-0.1-1.3-0.1c-1.1,0-2,0.3-2.5,1c-0.5,0.7-0.8,1.7-0.8,3.1c0,2.8,1.1,4.2,3.2,4.2c0.6,0,1.1-0.1,1.6-0.2v-2.6h-1.7
			c-0.2,0-0.3-0.1-0.3-0.2c-0.1-0.1-0.1-0.3-0.1-0.6v-0.4c0-0.3,0-0.4,0.1-0.6c0.1-0.1,0.2-0.2,0.3-0.2h3.3
			C162,165.9,162.1,165.9,162.3,166z"/>
		<path class="st5" d="M55.5,197v-11c0-0.2,0-0.3,0.1-0.4c0.1-0.1,0.2-0.1,0.4-0.1h5.4c0.1,0,0.2,0,0.3,0.1c0.1,0.1,0.1,0.2,0.1,0.4
			v0.3c0,0.2,0,0.3-0.1,0.4c-0.1,0.1-0.1,0.1-0.3,0.1H57v3.9h4.1c0.1,0,0.2,0,0.3,0.1c0.1,0.1,0.1,0.2,0.1,0.4v0.3
			c0,0.2,0,0.3-0.1,0.4s-0.1,0.1-0.3,0.1H57v5.1c0,0.2-0.2,0.4-0.7,0.4h-0.1C55.7,197.3,55.5,197.2,55.5,197z"/>
		<path class="st5" d="M69.2,197v-11.2c0-0.3,0.2-0.4,0.7-0.4H70c0.5,0,0.7,0.1,0.7,0.4V197c0,0.2-0.2,0.4-0.7,0.4h-0.1
			C69.4,197.3,69.2,197.2,69.2,197z"/>
		<path class="st5" d="M81.4,197v-10.3h-3.3c-0.1,0-0.2,0-0.3-0.1c-0.1-0.1-0.1-0.2-0.1-0.4v-0.3c0-0.2,0-0.3,0.1-0.4
			c0.1-0.1,0.1-0.1,0.3-0.1h8c0.1,0,0.2,0,0.3,0.1c0.1,0.1,0.1,0.2,0.1,0.4v0.3c0,0.2,0,0.3-0.1,0.4c-0.1,0.1-0.1,0.1-0.3,0.1h-3.2
			V197c0,0.2-0.2,0.4-0.7,0.4H82C81.6,197.3,81.4,197.2,81.4,197z"/>
		<path class="st5" d="M93.4,197v-11.2c0-0.3,0.2-0.4,0.7-0.4h0.4c0.2,0,0.3,0,0.4,0.1c0.1,0,0.2,0.1,0.3,0.3l5.3,8.1
			c0.2,0.3,0.4,0.6,0.6,1l0.1,0c0-0.3,0-0.6,0-1.2v-7.9c0-0.3,0.2-0.4,0.7-0.4h0.1c0.5,0,0.7,0.1,0.7,0.4V197c0,0.2-0.2,0.4-0.7,0.4
			h-0.3c-0.3,0-0.5-0.1-0.6-0.2l-5.5-8.3c-0.2-0.3-0.4-0.6-0.6-1l-0.1,0c0,0.3,0,0.6,0,1.2v8c0,0.2-0.2,0.4-0.7,0.4h-0.1
			C93.6,197.3,93.4,197.2,93.4,197z"/>
		<path class="st5" d="M110.9,197.2c-0.1-0.1-0.1-0.2-0.1-0.4v-10.9c0-0.2,0-0.3,0.1-0.4c0.1-0.1,0.2-0.1,0.4-0.1h5.9
			c0.1,0,0.2,0,0.3,0.1c0.1,0.1,0.1,0.2,0.1,0.4v0.3c0,0.2,0,0.3-0.1,0.4c-0.1,0.1-0.1,0.1-0.3,0.1h-4.9v3.9h4.4
			c0.1,0,0.2,0,0.3,0.1c0.1,0.1,0.1,0.2,0.1,0.4v0.3c0,0.2,0,0.3-0.1,0.4s-0.1,0.1-0.3,0.1h-4.4v4.1h5c0.1,0,0.2,0,0.3,0.1
			c0.1,0.1,0.1,0.2,0.1,0.4v0.3c0,0.2,0,0.3-0.1,0.4c-0.1,0.1-0.1,0.1-0.3,0.1h-6C111.1,197.3,111,197.3,110.9,197.2z"/>
		<path class="st5" d="M125.8,197.2c-0.6-0.2-1-0.4-1.3-0.6c-0.2-0.2-0.3-0.3-0.3-0.4c0-0.1,0.1-0.3,0.2-0.6s0.3-0.4,0.4-0.4
			c0,0,0.2,0.1,0.4,0.2c0.4,0.2,0.7,0.4,1.1,0.5c0.4,0.1,0.9,0.2,1.4,0.2c0.7,0,1.2-0.2,1.6-0.6c0.4-0.4,0.6-0.9,0.6-1.5
			c0-0.4-0.1-0.8-0.3-1c-0.2-0.3-0.5-0.5-0.8-0.7c-0.3-0.2-0.8-0.4-1.4-0.6c-0.7-0.3-1.2-0.5-1.6-0.7c-0.4-0.2-0.7-0.5-1-1
			c-0.3-0.4-0.4-1-0.4-1.7c0-0.6,0.2-1.2,0.5-1.6c0.3-0.5,0.8-0.8,1.3-1.1s1.2-0.4,2-0.4c0.4,0,0.8,0.1,1.3,0.2
			c0.5,0.1,0.8,0.3,1.1,0.4c0.2,0.1,0.3,0.3,0.3,0.4c0,0.1-0.1,0.3-0.2,0.5s-0.3,0.4-0.3,0.4c-0.1,0-0.1,0-0.2-0.1
			c-0.1-0.1-0.2-0.1-0.2-0.1c-0.6-0.3-1.2-0.4-1.8-0.4c-0.7,0-1.2,0.2-1.6,0.5c-0.4,0.3-0.6,0.8-0.6,1.4c0,0.4,0.1,0.7,0.3,0.9
			c0.2,0.2,0.4,0.4,0.7,0.5c0.3,0.1,0.7,0.3,1.3,0.6c0.7,0.3,1.2,0.5,1.7,0.8c0.4,0.2,0.8,0.6,1.1,1.1c0.3,0.5,0.5,1,0.5,1.8
			c0,1-0.3,1.8-1,2.4c-0.7,0.6-1.6,0.9-2.8,0.9C127,197.4,126.4,197.3,125.8,197.2z"/>
		<path class="st5" d="M139.4,197.2c-0.6-0.2-1-0.4-1.3-0.6c-0.2-0.2-0.3-0.3-0.3-0.4c0-0.1,0.1-0.3,0.2-0.6s0.3-0.4,0.4-0.4
			c0,0,0.2,0.1,0.4,0.2c0.4,0.2,0.7,0.4,1.1,0.5c0.4,0.1,0.9,0.2,1.4,0.2c0.7,0,1.2-0.2,1.6-0.6c0.4-0.4,0.6-0.9,0.6-1.5
			c0-0.4-0.1-0.8-0.3-1c-0.2-0.3-0.5-0.5-0.8-0.7c-0.3-0.2-0.8-0.4-1.4-0.6c-0.7-0.3-1.2-0.5-1.6-0.7c-0.4-0.2-0.7-0.5-1-1
			c-0.3-0.4-0.4-1-0.4-1.7c0-0.6,0.2-1.2,0.5-1.6c0.3-0.5,0.8-0.8,1.3-1.1s1.2-0.4,2-0.4c0.4,0,0.8,0.1,1.3,0.2
			c0.5,0.1,0.8,0.3,1.1,0.4c0.2,0.1,0.3,0.3,0.3,0.4c0,0.1-0.1,0.3-0.2,0.5s-0.3,0.4-0.3,0.4c-0.1,0-0.1,0-0.2-0.1
			c-0.1-0.1-0.2-0.1-0.2-0.1c-0.6-0.3-1.2-0.4-1.8-0.4c-0.7,0-1.2,0.2-1.6,0.5c-0.4,0.3-0.6,0.8-0.6,1.4c0,0.4,0.1,0.7,0.3,0.9
			c0.2,0.2,0.4,0.4,0.7,0.5c0.3,0.1,0.7,0.3,1.3,0.6c0.7,0.3,1.2,0.5,1.7,0.8c0.4,0.2,0.8,0.6,1.1,1.1c0.3,0.5,0.5,1,0.5,1.8
			c0,1-0.3,1.8-1,2.4c-0.7,0.6-1.6,0.9-2.8,0.9C140.6,197.4,140,197.3,139.4,197.2z"/>
	</g>
	<rect x="-793.2" y="11.5" style="fill:none;" width="174.7" height="77.7"/>
	<text transform="matrix(1 0 0 1 -782.5527 40.8994)"><tspan x="0" y="0" class="st10" style="font-family:'VarelaRound-Regular'; font-size:40px;">Gotham</tspan><tspan x="-10.6" y="43" class="st10" style="font-family:'VarelaRound-Regular'; font-size:40px;">Rounded</tspan></text>
	<g>
		<path class="st10" d="M-407.4-167.2c-2.1-1.2-3.7-2.8-4.8-5c-1.1-2.1-1.7-4.5-1.7-7.2c0-2.8,0.6-5.2,1.8-7.3
			c1.2-2.1,2.8-3.8,4.9-5c2.1-1.2,4.4-1.8,6.9-1.8c2,0,3.8,0.2,5.3,0.7c1.5,0.5,3,1.2,4.4,2.1c0.2,0.1,0.4,0.3,0.5,0.5
			c0.2,0.3,0.2,0.5,0.2,0.9c0,0.4-0.2,0.8-0.4,1.1c-0.3,0.3-0.7,0.5-1.2,0.5c-0.3,0-0.6-0.1-0.8-0.2c-1.2-0.7-2.4-1.3-3.7-1.6
			s-2.5-0.5-4-0.5c-2,0-3.8,0.4-5.3,1.2s-2.8,2-3.7,3.6c-0.9,1.6-1.3,3.5-1.3,5.7c0,2,0.4,3.8,1.3,5.4c0.8,1.6,2.1,2.9,3.7,3.8
			s3.5,1.4,5.7,1.4c2.4,0,4.7-0.6,6.8-1.7v-7.1h-6.4c-0.4,0-0.8-0.2-1.1-0.5c-0.3-0.3-0.5-0.7-0.5-1.1s0.2-0.8,0.5-1.1
			c0.3-0.3,0.7-0.5,1.1-0.5h7.7c0.5,0,1,0.2,1.3,0.5c0.4,0.4,0.5,0.8,0.5,1.3v8.9c0,0.5-0.1,1-0.4,1.5c-0.3,0.4-0.6,0.7-1.1,1
			c-2.9,1.5-5.9,2.2-8.9,2.2C-402.9-165.4-405.3-166-407.4-167.2z"/>
		<path class="st10" d="M-380-166.7c-1.5-0.9-2.7-2.1-3.5-3.6c-0.8-1.6-1.2-3.4-1.2-5.4c0-2,0.4-3.8,1.2-5.4c0.8-1.6,2-2.8,3.5-3.6
			c1.5-0.9,3.3-1.3,5.3-1.3c2,0,3.7,0.4,5.2,1.3c1.5,0.9,2.7,2.1,3.5,3.6c0.8,1.6,1.2,3.4,1.2,5.4c0,2-0.4,3.8-1.2,5.4
			c-0.8,1.6-2,2.8-3.5,3.6c-1.5,0.9-3.3,1.3-5.2,1.3C-376.7-165.4-378.5-165.9-380-166.7z M-371.6-169.4c1-0.5,1.8-1.3,2.4-2.3
			c0.6-1.1,1-2.4,1-4.1c0-1.6-0.3-3-1-4c-0.6-1.1-1.4-1.8-2.4-2.3c-1-0.5-2-0.7-3.1-0.7c-1.1,0-2.1,0.2-3.1,0.7
			c-1,0.5-1.8,1.3-2.4,2.3c-0.6,1.1-0.9,2.4-0.9,4c0,1.6,0.3,3,0.9,4.1s1.4,1.8,2.4,2.3c1,0.5,2,0.7,3.1,0.7
			C-373.6-168.7-372.6-168.9-371.6-169.4z"/>
		<path class="st10" d="M-358.8-170.6v-12.1h-2.8c-0.2,0-0.4-0.1-0.5-0.2c-0.1-0.1-0.2-0.3-0.2-0.5c0-0.3,0.1-0.5,0.4-0.7l5.3-5.2
			c0.2-0.2,0.5-0.4,0.7-0.4s0.4,0.1,0.5,0.2c0.1,0.2,0.2,0.3,0.2,0.5v3.1h4.4c0.4,0,0.8,0.1,1.1,0.4s0.4,0.7,0.4,1.1
			c0,0.4-0.1,0.8-0.4,1.1c-0.3,0.3-0.7,0.4-1.1,0.4h-4.4v11.8c0,1,0.2,1.7,0.7,1.9c0.5,0.3,1.1,0.4,1.8,0.4c0.5,0,1-0.1,1.6-0.2
			c0.1,0,0.2-0.1,0.3-0.1c0.1,0,0.3,0,0.4,0c0.4,0,0.7,0.1,1,0.4c0.3,0.3,0.4,0.6,0.4,1c0,0.6-0.3,1.1-0.9,1.4
			c-1,0.5-2.1,0.7-3.2,0.7C-356.9-165.4-358.8-167.2-358.8-170.6z"/>
		<path class="st10" d="M-344.5-166.1c-0.3-0.3-0.5-0.8-0.5-1.2v-25.3c0-0.5,0.2-0.9,0.5-1.3c0.3-0.4,0.8-0.5,1.2-0.5
			s0.9,0.2,1.3,0.5c0.4,0.4,0.5,0.8,0.5,1.3v10.2c1-1.1,2.1-2,3.2-2.6c1.1-0.7,2.5-1,4.1-1c1.4,0,2.7,0.3,3.7,1s1.9,1.6,2.4,2.8
			c0.6,1.2,0.8,2.5,0.8,3.9v11.1c0,0.5-0.2,0.9-0.5,1.2c-0.4,0.3-0.8,0.5-1.3,0.5c-0.5,0-0.9-0.2-1.2-0.5c-0.3-0.3-0.5-0.8-0.5-1.2
			v-10.7c0-3.2-1.4-4.8-4.3-4.8c-1.3,0-2.5,0.3-3.5,1c-1,0.7-2,1.6-2.9,2.7v11.7c0,0.5-0.2,0.9-0.5,1.2c-0.4,0.3-0.8,0.5-1.3,0.5
			S-344.2-165.8-344.5-166.1z"/>
		<path class="st10" d="M-319.4-166.1c-1-0.5-1.7-1.2-2.3-2c-0.6-0.9-0.9-1.9-0.9-3.1c0-1.9,0.8-3.5,2.3-4.6
			c1.5-1.1,3.8-1.7,6.7-1.7h4.7v-0.3c0-1.7-0.4-3-1.3-3.7c-0.8-0.8-2.2-1.1-4-1.1c-1,0-1.9,0.1-2.6,0.2c-0.8,0.2-1.6,0.4-2.6,0.7
			c-0.2,0.1-0.4,0.1-0.5,0.1c-0.4,0-0.7-0.1-1-0.4s-0.4-0.6-0.4-1.1c0-0.7,0.3-1.2,1-1.5c2.2-0.9,4.5-1.4,6.7-1.4
			c1.8,0,3.3,0.4,4.5,1.1c1.2,0.7,2.1,1.7,2.7,2.8s0.9,2.4,0.9,3.8v11c0,0.5-0.2,0.9-0.5,1.2c-0.4,0.3-0.8,0.5-1.3,0.5
			c-0.5,0-0.9-0.2-1.2-0.5c-0.3-0.3-0.5-0.8-0.5-1.2v-1c-1.9,2-4.4,3-7.3,3C-317.4-165.4-318.4-165.7-319.4-166.1z M-311.6-169.4
			c1.1-0.6,2-1.3,2.7-2.1v-3.3h-4.3c-3.9,0-5.9,1-5.9,3.1c0,0.9,0.3,1.7,1,2.3c0.6,0.6,1.7,0.9,3.2,0.9
			C-313.7-168.6-312.6-168.8-311.6-169.4z"/>
		<path class="st10" d="M-298.9-166.1c-0.3-0.3-0.5-0.8-0.5-1.2v-16.7c0-0.5,0.2-0.9,0.5-1.3c0.3-0.4,0.8-0.5,1.2-0.5
			s0.9,0.2,1.3,0.5c0.4,0.4,0.5,0.8,0.5,1.3v1.6c0.7-1,1.6-1.9,2.6-2.6c1-0.7,2.4-1,4-1c1.5,0,2.7,0.4,3.7,1.2
			c1,0.8,1.8,1.7,2.2,2.8c1.6-2.7,4-4,7.2-4c1.5,0,2.7,0.4,3.6,1.1c1,0.7,1.7,1.7,2.2,2.8c0.5,1.1,0.7,2.3,0.7,3.6v11.2
			c0,0.5-0.2,0.9-0.5,1.2c-0.4,0.3-0.8,0.5-1.3,0.5c-0.5,0-0.9-0.2-1.2-0.5c-0.3-0.3-0.5-0.8-0.5-1.2v-10.5c0-1.7-0.3-2.9-0.9-3.7
			s-1.6-1.2-3.1-1.2c-1.3,0-2.4,0.3-3.3,1c-0.9,0.7-1.6,1.6-2.3,2.7v11.7c0,0.5-0.2,0.9-0.5,1.2c-0.4,0.3-0.8,0.5-1.3,0.5
			s-0.9-0.2-1.2-0.5c-0.3-0.3-0.5-0.8-0.5-1.2v-10.5c0-1.7-0.3-2.9-0.9-3.7c-0.6-0.8-1.6-1.2-3.1-1.2c-1.3,0-2.4,0.3-3.3,1
			c-0.9,0.7-1.6,1.6-2.3,2.7v11.7c0,0.5-0.2,0.9-0.5,1.2c-0.4,0.3-0.8,0.5-1.3,0.5S-298.5-165.8-298.9-166.1z"/>
		<path class="st10" d="M-262.9-166.1c-0.3-0.3-0.5-0.8-0.5-1.2v-23.9c0-0.5,0.2-0.9,0.5-1.3c0.3-0.4,0.8-0.5,1.2-0.5h9.1
			c3.5,0,6.2,0.7,8,2.2c1.8,1.5,2.7,3.4,2.7,5.7c0,1.6-0.4,3-1.3,4.3c-0.9,1.3-2.1,2.2-3.8,2.8c1.9,0.5,3.2,1.7,3.8,3.5
			c0.7,1.8,1,3.6,1,5.4v1.8c0,0.5-0.2,0.9-0.5,1.2c-0.3,0.3-0.8,0.5-1.2,0.5c-0.5,0-1-0.2-1.3-0.5c-0.3-0.3-0.5-0.7-0.5-1.3v-1.2
			c0-1.3-0.1-2.5-0.4-3.6c-0.2-1.1-0.8-2.1-1.7-3c-0.9-0.9-2.2-1.3-4-1.3h-8.1v9c0,0.5-0.2,0.9-0.5,1.2c-0.4,0.3-0.8,0.5-1.3,0.5
			C-262.1-165.6-262.6-165.8-262.9-166.1z M-252.8-179.8c2.2,0,4-0.4,5.3-1.3c1.3-0.9,2-2.1,2-3.7c0-1.6-0.6-2.8-1.7-3.6
			c-1.1-0.8-3.1-1.2-5.8-1.2h-6.9v9.9H-252.8z"/>
		<path class="st10" d="M-232.8-166.7c-1.5-0.9-2.7-2.1-3.5-3.6c-0.8-1.6-1.2-3.4-1.2-5.4c0-2,0.4-3.8,1.2-5.4
			c0.8-1.6,2-2.8,3.5-3.6c1.5-0.9,3.3-1.3,5.3-1.3c2,0,3.7,0.4,5.2,1.3c1.5,0.9,2.7,2.1,3.5,3.6c0.8,1.6,1.2,3.4,1.2,5.4
			c0,2-0.4,3.8-1.2,5.4c-0.8,1.6-2,2.8-3.5,3.6c-1.5,0.9-3.3,1.3-5.2,1.3C-229.6-165.4-231.3-165.9-232.8-166.7z M-224.5-169.4
			c1-0.5,1.8-1.3,2.4-2.3c0.6-1.1,1-2.4,1-4.1c0-1.6-0.3-3-1-4c-0.6-1.1-1.4-1.8-2.4-2.3c-1-0.5-2-0.7-3.1-0.7
			c-1.1,0-2.1,0.2-3.1,0.7c-1,0.5-1.8,1.3-2.4,2.3c-0.6,1.1-0.9,2.4-0.9,4c0,1.6,0.3,3,0.9,4.1s1.4,1.8,2.4,2.3c1,0.5,2,0.7,3.1,0.7
			C-226.5-168.7-225.5-168.9-224.5-169.4z"/>
		<path class="st10" d="M-209.6-166.5c-1.1-0.7-1.9-1.6-2.4-2.8c-0.6-1.2-0.8-2.5-0.8-3.9v-11.1c0-0.5,0.2-0.9,0.5-1.2
			c0.4-0.3,0.8-0.5,1.3-0.5s0.9,0.2,1.2,0.5s0.5,0.8,0.5,1.2v10.7c0,3.2,1.4,4.8,4.3,4.8c1.3,0,2.5-0.3,3.5-1c1-0.7,2-1.6,2.9-2.7
			v-11.7c0-0.5,0.2-0.9,0.5-1.2s0.8-0.5,1.3-0.5c0.5,0,0.9,0.2,1.2,0.5s0.5,0.8,0.5,1.2v16.7c0,0.5-0.2,0.9-0.5,1.3
			c-0.3,0.4-0.8,0.5-1.2,0.5c-0.5,0-0.9-0.2-1.3-0.5c-0.4-0.4-0.5-0.8-0.5-1.3v-1.6c-1,1.1-2.1,2-3.2,2.6c-1.1,0.6-2.5,1-4.1,1
			C-207.3-165.4-208.5-165.8-209.6-166.5z"/>
		<path class="st10" d="M-188.4-166.1c-0.3-0.3-0.5-0.8-0.5-1.2v-16.7c0-0.5,0.2-0.9,0.5-1.3c0.3-0.4,0.8-0.5,1.2-0.5
			s0.9,0.2,1.3,0.5c0.4,0.4,0.5,0.8,0.5,1.3v1.6c1-1.1,2.1-2,3.2-2.6c1.1-0.7,2.5-1,4.1-1c1.4,0,2.7,0.3,3.7,1s1.9,1.6,2.4,2.8
			c0.6,1.2,0.8,2.5,0.8,3.9v11.1c0,0.5-0.2,0.9-0.5,1.2c-0.4,0.3-0.8,0.5-1.3,0.5c-0.5,0-0.9-0.2-1.2-0.5c-0.3-0.3-0.5-0.8-0.5-1.2
			v-10.7c0-3.2-1.4-4.8-4.3-4.8c-1.3,0-2.5,0.3-3.5,1c-1,0.7-2,1.6-2.9,2.7v11.7c0,0.5-0.2,0.9-0.5,1.2c-0.4,0.3-0.8,0.5-1.3,0.5
			S-188-165.8-188.4-166.1z"/>
		<path class="st10" d="M-161.5-166.7c-1.4-0.8-2.6-2-3.5-3.6c-0.9-1.6-1.3-3.4-1.3-5.5c0-2.1,0.4-3.9,1.3-5.5
			c0.9-1.6,2.1-2.8,3.5-3.6c1.4-0.8,3-1.2,4.6-1.2c2.5,0,4.8,1,6.7,3v-9.6c0-0.5,0.2-0.9,0.5-1.3c0.4-0.3,0.8-0.5,1.3-0.5
			c0.5,0,0.9,0.2,1.2,0.5c0.3,0.4,0.5,0.8,0.5,1.3v25.3c0,0.5-0.2,0.9-0.5,1.2c-0.3,0.3-0.8,0.5-1.2,0.5c-0.5,0-0.9-0.2-1.3-0.5
			c-0.4-0.3-0.5-0.8-0.5-1.2v-1c-1.9,2-4.1,3-6.7,3C-158.5-165.4-160-165.9-161.5-166.7z M-153-169.6c1.1-0.5,2-1.2,2.8-2.1v-8.2
			c-0.8-0.9-1.7-1.6-2.8-2.1s-2.2-0.8-3.4-0.8c-1.9,0-3.5,0.6-4.6,1.8c-1.2,1.2-1.8,3-1.8,5.2c0,2.2,0.6,4,1.8,5.2
			c1.2,1.2,2.7,1.8,4.6,1.8C-155.2-168.8-154.1-169-153-169.6z"/>
		<path class="st10" d="M-139.1-168.2c-1.8-1.8-2.7-4.3-2.7-7.6c0-1.8,0.3-3.5,1-5.1c0.7-1.6,1.7-2.8,3.1-3.8s3.1-1.4,5.2-1.4
			c1.9,0,3.6,0.4,5,1.3c1.4,0.9,2.5,2.1,3.2,3.6c0.7,1.5,1.1,3.1,1.1,4.9c0,0.5-0.2,0.9-0.5,1.2s-0.8,0.5-1.3,0.5h-13.2
			c0.2,1.8,0.9,3.2,2,4.3c1.1,1,2.7,1.5,4.8,1.5c1.1,0,2-0.1,2.9-0.3c0.8-0.2,1.6-0.5,2.4-0.9c0.2-0.1,0.4-0.2,0.7-0.2
			c0.4,0,0.8,0.1,1.1,0.4c0.3,0.3,0.5,0.7,0.5,1.1c0,0.6-0.3,1.1-1,1.4c-1,0.6-2,1-3,1.3s-2.3,0.4-3.8,0.4
			C-134.8-165.4-137.3-166.3-139.1-168.2z M-126.6-177.4c-0.1-1.3-0.4-2.3-1-3.2c-0.6-0.9-1.3-1.5-2.2-1.9c-0.9-0.4-1.7-0.6-2.6-0.6
			c-0.9,0-1.8,0.2-2.6,0.6c-0.9,0.4-1.6,1-2.1,1.9c-0.6,0.9-0.9,1.9-1,3.2H-126.6z"/>
		<path class="st10" d="M-114.8-166.7c-1.4-0.8-2.6-2-3.5-3.6c-0.9-1.6-1.3-3.4-1.3-5.5c0-2.1,0.4-3.9,1.3-5.5
			c0.9-1.6,2.1-2.8,3.5-3.6c1.4-0.8,3-1.2,4.6-1.2c2.5,0,4.8,1,6.7,3v-9.6c0-0.5,0.2-0.9,0.5-1.3c0.4-0.3,0.8-0.5,1.3-0.5
			c0.5,0,0.9,0.2,1.2,0.5c0.3,0.4,0.5,0.8,0.5,1.3v25.3c0,0.5-0.2,0.9-0.5,1.2c-0.3,0.3-0.8,0.5-1.2,0.5c-0.5,0-0.9-0.2-1.3-0.5
			c-0.4-0.3-0.5-0.8-0.5-1.2v-1c-1.9,2-4.1,3-6.7,3C-111.8-165.4-113.3-165.9-114.8-166.7z M-106.3-169.6c1.1-0.5,2-1.2,2.8-2.1
			v-8.2c-0.8-0.9-1.7-1.6-2.8-2.1s-2.2-0.8-3.4-0.8c-1.9,0-3.5,0.6-4.6,1.8c-1.2,1.2-1.8,3-1.8,5.2c0,2.2,0.6,4,1.8,5.2
			c1.2,1.2,2.7,1.8,4.6,1.8C-108.5-168.8-107.4-169-106.3-169.6z"/>
	</g>
	<g>
		<path class="st10" d="M-409.9-127c-0.2-0.2-0.3-0.4-0.3-0.6v-12.2c0-0.3,0.1-0.5,0.3-0.7c0.2-0.2,0.4-0.3,0.6-0.3h4.7
			c1.8,0,3.2,0.4,4.1,1.1c0.9,0.7,1.4,1.7,1.4,2.9c0,0.8-0.2,1.5-0.7,2.2c-0.4,0.7-1.1,1.1-1.9,1.4c1,0.3,1.6,0.9,2,1.8
			c0.4,0.9,0.5,1.9,0.5,2.8v0.9c0,0.3-0.1,0.5-0.3,0.6c-0.2,0.2-0.4,0.3-0.6,0.3c-0.3,0-0.5-0.1-0.7-0.3c-0.2-0.2-0.3-0.4-0.3-0.6
			v-0.6c0-0.7-0.1-1.3-0.2-1.8s-0.4-1.1-0.9-1.5c-0.5-0.4-1.1-0.7-2.1-0.7h-4.1v4.6c0,0.3-0.1,0.5-0.3,0.6c-0.2,0.2-0.4,0.3-0.7,0.3
			S-409.7-126.8-409.9-127z M-404.7-134c1.1,0,2.1-0.2,2.7-0.7c0.7-0.5,1-1.1,1-1.9c0-0.8-0.3-1.4-0.9-1.8s-1.6-0.6-3-0.6h-3.5v5.1
			H-404.7z"/>
		<path class="st10" d="M-395.5-128c-0.9-0.9-1.4-2.2-1.4-3.9c0-0.9,0.2-1.8,0.5-2.6c0.3-0.8,0.9-1.4,1.6-1.9s1.6-0.7,2.7-0.7
			c1,0,1.8,0.2,2.6,0.7s1.3,1.1,1.6,1.8c0.4,0.8,0.6,1.6,0.6,2.5c0,0.3-0.1,0.5-0.3,0.6c-0.2,0.2-0.4,0.3-0.7,0.3h-6.8
			c0.1,0.9,0.5,1.7,1,2.2c0.6,0.5,1.4,0.8,2.5,0.8c0.6,0,1-0.1,1.5-0.2c0.4-0.1,0.8-0.3,1.2-0.5c0.1-0.1,0.2-0.1,0.4-0.1
			c0.2,0,0.4,0.1,0.6,0.2c0.2,0.1,0.2,0.3,0.2,0.6c0,0.3-0.2,0.5-0.5,0.7c-0.5,0.3-1,0.5-1.5,0.7c-0.5,0.1-1.2,0.2-2,0.2
			C-393.3-126.6-394.6-127.1-395.5-128z M-389.1-132.7c0-0.7-0.2-1.2-0.5-1.6c-0.3-0.4-0.7-0.8-1.1-1c-0.4-0.2-0.9-0.3-1.3-0.3
			c-0.5,0-0.9,0.1-1.3,0.3c-0.4,0.2-0.8,0.5-1.1,1c-0.3,0.4-0.5,1-0.5,1.6H-389.1z"/>
		<path class="st10" d="M-382.5-122.3c-0.8-0.2-1.4-0.4-1.9-0.7c-0.2-0.1-0.4-0.4-0.4-0.7c0-0.2,0.1-0.4,0.2-0.6
			c0.2-0.2,0.3-0.3,0.6-0.3c0.1,0,0.2,0,0.4,0.1c1,0.5,2.1,0.8,3.3,0.8c2,0,3.1-1.1,3.1-3.3v-1.3c-0.9,1-2.1,1.5-3.4,1.5
			c-0.8,0-1.5-0.2-2.3-0.6s-1.3-1-1.8-1.8c-0.5-0.8-0.7-1.7-0.7-2.9s0.2-2.1,0.7-2.8c0.5-0.8,1.1-1.4,1.8-1.8
			c0.7-0.4,1.5-0.6,2.3-0.6c1.3,0,2.5,0.5,3.4,1.5v-0.5c0-0.3,0.1-0.5,0.3-0.7c0.2-0.2,0.4-0.3,0.6-0.3c0.3,0,0.5,0.1,0.6,0.3
			c0.2,0.2,0.3,0.4,0.3,0.7v8.9c0,1.7-0.4,3-1.2,3.9c-0.8,0.9-2,1.4-3.5,1.4C-380.9-122-381.7-122.1-382.5-122.3z M-378.7-128.9
			c0.5-0.3,0.9-0.6,1.4-1.1v-4.1c-0.4-0.5-0.9-0.8-1.4-1.1c-0.5-0.3-1-0.4-1.7-0.4c-1,0-1.8,0.3-2.4,0.9c-0.6,0.6-1,1.5-1,2.6
			c0,1.1,0.3,2,1,2.6c0.6,0.6,1.4,0.9,2.4,0.9C-379.7-128.5-379.1-128.6-378.7-128.9z"/>
		<path class="st10" d="M-370.7-127.1c-0.5-0.3-1-0.8-1.2-1.4c-0.3-0.6-0.4-1.3-0.4-2v-5.7c0-0.3,0.1-0.5,0.3-0.6
			c0.2-0.2,0.4-0.3,0.7-0.3c0.3,0,0.5,0.1,0.6,0.3c0.2,0.2,0.3,0.4,0.3,0.6v5.5c0,1.6,0.7,2.4,2.2,2.4c0.7,0,1.3-0.2,1.8-0.5
			c0.5-0.3,1-0.8,1.5-1.4v-6c0-0.3,0.1-0.5,0.3-0.6c0.2-0.2,0.4-0.3,0.7-0.3c0.3,0,0.5,0.1,0.6,0.3c0.2,0.2,0.3,0.4,0.3,0.6v8.6
			c0,0.3-0.1,0.5-0.3,0.7s-0.4,0.3-0.6,0.3c-0.3,0-0.5-0.1-0.7-0.3c-0.2-0.2-0.3-0.4-0.3-0.7v-0.8c-0.5,0.6-1.1,1-1.6,1.3
			s-1.3,0.5-2.1,0.5C-369.6-126.6-370.2-126.8-370.7-127.1z"/>
		<path class="st10" d="M-359.9-127c-0.2-0.2-0.3-0.4-0.3-0.6v-13c0-0.3,0.1-0.5,0.3-0.6c0.2-0.2,0.4-0.3,0.6-0.3
			c0.3,0,0.5,0.1,0.7,0.3c0.2,0.2,0.3,0.4,0.3,0.7v13c0,0.3-0.1,0.5-0.3,0.6s-0.4,0.3-0.6,0.3C-359.5-126.7-359.7-126.8-359.9-127z"
			/>
		<path class="st10" d="M-354.2-127c-0.5-0.2-0.9-0.6-1.2-1c-0.3-0.5-0.4-1-0.4-1.6c0-1,0.4-1.8,1.2-2.4c0.8-0.6,1.9-0.9,3.4-0.9
			h2.4v-0.2c0-0.9-0.2-1.5-0.7-1.9c-0.4-0.4-1.1-0.6-2-0.6c-0.5,0-1,0-1.3,0.1c-0.4,0.1-0.8,0.2-1.3,0.4c-0.1,0-0.2,0-0.3,0
			c-0.2,0-0.4-0.1-0.5-0.2c-0.1-0.1-0.2-0.3-0.2-0.5c0-0.4,0.2-0.6,0.5-0.8c1.1-0.5,2.3-0.7,3.5-0.7c0.9,0,1.7,0.2,2.3,0.6
			c0.6,0.4,1.1,0.9,1.4,1.5c0.3,0.6,0.5,1.2,0.5,1.9v5.7c0,0.3-0.1,0.5-0.3,0.6c-0.2,0.2-0.4,0.3-0.7,0.3s-0.5-0.1-0.6-0.3
			c-0.2-0.2-0.3-0.4-0.3-0.6v-0.5c-1,1-2.2,1.5-3.8,1.5C-353.1-126.6-353.7-126.7-354.2-127z M-350.2-128.6c0.5-0.3,1-0.6,1.4-1.1
			v-1.7h-2.2c-2,0-3,0.5-3,1.6c0,0.5,0.2,0.9,0.5,1.2c0.3,0.3,0.9,0.4,1.6,0.4C-351.3-128.2-350.7-128.3-350.2-128.6z"/>
		<path class="st10" d="M-343.6-127c-0.2-0.2-0.3-0.4-0.3-0.6v-8.6c0-0.3,0.1-0.5,0.3-0.7c0.2-0.2,0.4-0.3,0.6-0.3
			c0.3,0,0.5,0.1,0.6,0.3c0.2,0.2,0.3,0.4,0.3,0.7v0.9c0.9-1.3,2-1.9,3.1-1.9h0.1c0.3,0,0.5,0.1,0.6,0.3c0.2,0.2,0.3,0.4,0.3,0.6
			c0,0.3-0.1,0.5-0.3,0.6c-0.2,0.2-0.4,0.2-0.7,0.2h-0.1c-0.6,0-1.2,0.2-1.8,0.5s-1,0.7-1.3,1.3v6.1c0,0.3-0.1,0.5-0.3,0.6
			s-0.4,0.3-0.6,0.3C-343.3-126.7-343.5-126.8-343.6-127z"/>
		<path class="st12" d="M-294.6-127.6c-0.2-0.1-0.3-0.2-0.4-0.3s-0.2-0.3-0.2-0.5c0-0.2,0.1-0.4,0.2-0.6c0.2-0.2,0.3-0.3,0.6-0.3
			c0.1,0,0.3,0,0.4,0.1c1.2,0.5,2.5,0.8,3.9,0.8c2.3,0,3.5-0.8,3.5-2.3c0-0.4-0.2-0.7-0.5-1c-0.3-0.3-0.7-0.5-1.1-0.6
			c-0.4-0.2-1.1-0.3-1.9-0.5c-1.1-0.3-2-0.5-2.6-0.8c-0.7-0.3-1.2-0.7-1.7-1.2c-0.5-0.5-0.7-1.2-0.7-2.1c0-0.8,0.2-1.5,0.6-2.1
			c0.4-0.6,1-1.1,1.8-1.5c0.8-0.4,1.7-0.5,2.8-0.5c1.5,0,2.8,0.2,4,0.7c0.4,0.1,0.6,0.4,0.6,0.8c0,0.2-0.1,0.4-0.2,0.6
			c-0.1,0.2-0.3,0.3-0.6,0.3c-0.1,0-0.2,0-0.3-0.1c-1-0.4-2.1-0.5-3.2-0.5c-1.1,0-1.9,0.2-2.6,0.6c-0.7,0.4-1,1-1,1.7
			c0,0.5,0.2,0.9,0.5,1.2c0.3,0.3,0.7,0.5,1.2,0.7c0.5,0.2,1.1,0.3,1.9,0.5c1.1,0.3,1.9,0.5,2.6,0.8c0.6,0.3,1.2,0.6,1.7,1.2
			c0.5,0.5,0.7,1.3,0.7,2.2c0,0.7-0.2,1.4-0.6,2c-0.4,0.6-1,1.1-1.8,1.4s-1.7,0.5-2.7,0.5C-291.6-126.6-293.2-126.9-294.6-127.6z"/>
		<path class="st12" d="M-281.6-128c-0.9-0.9-1.4-2.2-1.4-3.9c0-0.9,0.2-1.8,0.5-2.6c0.3-0.8,0.9-1.4,1.6-1.9s1.6-0.7,2.7-0.7
			c1,0,1.8,0.2,2.6,0.7s1.3,1.1,1.6,1.8c0.4,0.8,0.6,1.6,0.6,2.5c0,0.3-0.1,0.5-0.3,0.6c-0.2,0.2-0.4,0.3-0.7,0.3h-6.8
			c0.1,0.9,0.5,1.7,1,2.2c0.6,0.5,1.4,0.8,2.5,0.8c0.6,0,1-0.1,1.5-0.2c0.4-0.1,0.8-0.3,1.2-0.5c0.1-0.1,0.2-0.1,0.4-0.1
			c0.2,0,0.4,0.1,0.6,0.2c0.2,0.1,0.2,0.3,0.2,0.6c0,0.3-0.2,0.5-0.5,0.7c-0.5,0.3-1,0.5-1.5,0.7c-0.5,0.1-1.2,0.2-2,0.2
			C-279.4-126.6-280.7-127.1-281.6-128z M-275.2-132.7c0-0.7-0.2-1.2-0.5-1.6c-0.3-0.4-0.7-0.8-1.1-1c-0.4-0.2-0.9-0.3-1.3-0.3
			c-0.5,0-0.9,0.1-1.3,0.3c-0.4,0.2-0.8,0.5-1.1,1c-0.3,0.4-0.5,1-0.5,1.6H-275.2z"/>
		<path class="st12" d="M-270.7-127c-0.2-0.2-0.3-0.4-0.3-0.6v-8.6c0-0.3,0.1-0.5,0.3-0.7c0.2-0.2,0.4-0.3,0.6-0.3
			c0.3,0,0.5,0.1,0.6,0.3c0.2,0.2,0.3,0.4,0.3,0.7v0.8c0.4-0.5,0.8-1,1.3-1.3c0.5-0.3,1.2-0.5,2-0.5c0.7,0,1.4,0.2,1.9,0.6
			c0.5,0.4,0.9,0.9,1.1,1.5c0.8-1.4,2.1-2.1,3.7-2.1c0.7,0,1.4,0.2,1.9,0.6s0.9,0.9,1.1,1.4c0.2,0.6,0.4,1.2,0.4,1.8v5.8
			c0,0.3-0.1,0.5-0.3,0.6c-0.2,0.2-0.4,0.3-0.7,0.3s-0.5-0.1-0.6-0.3c-0.2-0.2-0.3-0.4-0.3-0.6v-5.4c0-0.9-0.2-1.5-0.5-1.9
			c-0.3-0.4-0.8-0.6-1.6-0.6c-0.7,0-1.2,0.2-1.7,0.5c-0.4,0.4-0.8,0.8-1.2,1.4v6c0,0.3-0.1,0.5-0.3,0.6s-0.4,0.3-0.7,0.3
			s-0.5-0.1-0.6-0.3c-0.2-0.2-0.3-0.4-0.3-0.6v-5.4c0-0.9-0.2-1.5-0.5-1.9c-0.3-0.4-0.8-0.6-1.6-0.6c-0.7,0-1.2,0.2-1.7,0.5
			c-0.4,0.4-0.8,0.8-1.2,1.4v6c0,0.3-0.1,0.5-0.3,0.6s-0.4,0.3-0.6,0.3C-270.3-126.7-270.6-126.8-270.7-127z"/>
		<path class="st12" d="M-252.5-139.4c-0.2-0.2-0.3-0.4-0.3-0.7v-0.1c0-0.3,0.1-0.5,0.3-0.7c0.2-0.2,0.4-0.3,0.7-0.3h0.1
			c0.3,0,0.5,0.1,0.7,0.3c0.2,0.2,0.3,0.4,0.3,0.7v0.1c0,0.3-0.1,0.5-0.3,0.7s-0.4,0.3-0.7,0.3h-0.1
			C-252.1-139.1-252.3-139.2-252.5-139.4z M-252.4-127c-0.2-0.2-0.3-0.4-0.3-0.6v-8.6c0-0.3,0.1-0.5,0.3-0.7
			c0.2-0.2,0.4-0.3,0.6-0.3c0.3,0,0.5,0.1,0.7,0.3c0.2,0.2,0.3,0.4,0.3,0.7v8.6c0,0.3-0.1,0.5-0.3,0.6s-0.4,0.3-0.6,0.3
			C-252-126.7-252.2-126.8-252.4-127z"/>
		<path class="st12" d="M-245.8-128.1v0.5c0,0.3-0.1,0.5-0.3,0.6s-0.4,0.3-0.6,0.3c-0.3,0-0.5-0.1-0.6-0.3s-0.3-0.4-0.3-0.6v-13
			c0-0.3,0.1-0.5,0.3-0.6c0.2-0.2,0.4-0.3,0.6-0.3c0.3,0,0.5,0.1,0.7,0.3c0.2,0.2,0.3,0.4,0.3,0.7v4.9c1-1,2.1-1.5,3.4-1.5
			c0.8,0,1.6,0.2,2.3,0.6c0.7,0.4,1.3,1,1.8,1.8s0.7,1.8,0.7,2.8s-0.2,2-0.7,2.8s-1.1,1.4-1.8,1.8s-1.5,0.6-2.3,0.6
			C-243.7-126.6-244.9-127.1-245.8-128.1z M-240.3-129.2c0.6-0.6,0.9-1.5,0.9-2.7s-0.3-2-0.9-2.7c-0.6-0.6-1.4-0.9-2.4-0.9
			c-0.6,0-1.2,0.1-1.7,0.4s-1,0.6-1.4,1.1v4.2c0.4,0.5,0.9,0.8,1.4,1.1s1.1,0.4,1.7,0.4C-241.7-128.3-240.9-128.6-240.3-129.2z"/>
		<path class="st12" d="M-233.2-127.3c-0.8-0.4-1.4-1.1-1.8-1.9s-0.6-1.7-0.6-2.8s0.2-2,0.6-2.8s1-1.4,1.8-1.9
			c0.8-0.4,1.7-0.7,2.7-0.7c1,0,1.9,0.2,2.7,0.7c0.8,0.4,1.4,1.1,1.8,1.9s0.6,1.7,0.6,2.8s-0.2,2-0.6,2.8s-1,1.4-1.8,1.9
			s-1.7,0.7-2.7,0.7C-231.6-126.6-232.5-126.8-233.2-127.3z M-229-128.6c0.5-0.3,0.9-0.7,1.2-1.2c0.3-0.5,0.5-1.2,0.5-2.1
			c0-0.8-0.2-1.5-0.5-2.1c-0.3-0.5-0.7-0.9-1.2-1.2c-0.5-0.2-1-0.4-1.6-0.4c-0.6,0-1.1,0.1-1.6,0.4c-0.5,0.2-0.9,0.6-1.2,1.2
			c-0.3,0.5-0.5,1.2-0.5,2.1c0,0.8,0.2,1.5,0.5,2.1c0.3,0.5,0.7,0.9,1.2,1.2s1,0.4,1.6,0.4C-230-128.3-229.5-128.4-229-128.6z"/>
		<path class="st12" d="M-222.6-127c-0.2-0.2-0.3-0.4-0.3-0.6v-13c0-0.3,0.1-0.5,0.3-0.6c0.2-0.2,0.4-0.3,0.6-0.3
			c0.3,0,0.5,0.1,0.7,0.3c0.2,0.2,0.3,0.4,0.3,0.7v13c0,0.3-0.1,0.5-0.3,0.6s-0.4,0.3-0.6,0.3C-222.2-126.7-222.4-126.8-222.6-127z"
			/>
		<path class="st12" d="M-216-127.2c-0.7-0.4-1.3-1-1.8-1.8s-0.7-1.8-0.7-2.8s0.2-2,0.7-2.8s1.1-1.4,1.8-1.8
			c0.7-0.4,1.5-0.6,2.3-0.6c1.3,0,2.4,0.5,3.4,1.5v-4.9c0-0.3,0.1-0.5,0.3-0.7c0.2-0.2,0.4-0.3,0.6-0.3c0.3,0,0.5,0.1,0.6,0.3
			c0.2,0.2,0.3,0.4,0.3,0.6v13c0,0.3-0.1,0.5-0.3,0.6c-0.2,0.2-0.4,0.3-0.6,0.3c-0.3,0-0.5-0.1-0.6-0.3c-0.2-0.2-0.3-0.4-0.3-0.6
			v-0.5c-1,1-2.1,1.5-3.4,1.5C-214.5-126.6-215.3-126.8-216-127.2z M-211.7-128.7c0.5-0.3,1-0.6,1.4-1.1v-4.2
			c-0.4-0.5-0.9-0.8-1.4-1.1s-1.1-0.4-1.7-0.4c-1,0-1.8,0.3-2.4,0.9c-0.6,0.6-0.9,1.5-0.9,2.7s0.3,2,0.9,2.7
			c0.6,0.6,1.4,0.9,2.4,0.9C-212.8-128.3-212.2-128.4-211.7-128.7z"/>
		<path class="st13" d="M-142.3-127.1c-0.2-0.2-0.3-0.4-0.3-0.6v-12.1c0-0.3,0.1-0.5,0.3-0.7c0.2-0.2,0.4-0.3,0.6-0.3h4.7
			c1.4,0,2.5,0.3,3.3,1c0.8,0.7,1.2,1.5,1.2,2.6c0,0.8-0.2,1.4-0.5,1.9c-0.4,0.5-0.8,0.9-1.4,1.2c0.8,0.3,1.5,0.7,2,1.2
			s0.8,1.3,0.8,2.1c0,1.2-0.4,2.2-1.2,2.9c-0.8,0.7-2.1,1-3.9,1h-4.8C-141.9-126.8-142.1-126.9-142.3-127.1z M-137.4-134.7
			c1.2,0,2-0.2,2.5-0.6c0.5-0.4,0.7-1,0.7-1.7c0-0.6-0.3-1.1-0.8-1.5c-0.5-0.4-1.2-0.6-2.1-0.6h-3.7v4.3H-137.4z M-137-128.5
			c1.3,0,2.2-0.2,2.8-0.6c0.5-0.4,0.8-1,0.8-1.7c0-1.5-1.2-2.3-3.5-2.3h-3.8v4.6H-137z"/>
		<path class="st13" d="M-127.3-127.3c-0.8-0.4-1.4-1.1-1.8-1.9s-0.6-1.7-0.6-2.8s0.2-2,0.6-2.8s1-1.4,1.8-1.9
			c0.8-0.4,1.7-0.7,2.7-0.7c1,0,1.9,0.2,2.7,0.7c0.8,0.4,1.4,1.1,1.8,1.9s0.6,1.7,0.6,2.8s-0.2,2-0.6,2.8s-1,1.4-1.8,1.9
			s-1.7,0.7-2.7,0.7C-125.6-126.6-126.5-126.8-127.3-127.3z M-123-128.6c0.5-0.3,0.9-0.7,1.2-1.2c0.3-0.5,0.5-1.2,0.5-2.1
			c0-0.8-0.2-1.5-0.5-2.1c-0.3-0.5-0.7-0.9-1.2-1.2c-0.5-0.2-1-0.4-1.6-0.4c-0.6,0-1.1,0.1-1.6,0.4c-0.5,0.2-0.9,0.6-1.2,1.2
			c-0.3,0.5-0.5,1.2-0.5,2.1c0,0.8,0.2,1.5,0.5,2.1c0.3,0.5,0.7,0.9,1.2,1.2s1,0.4,1.6,0.4C-124.1-128.3-123.5-128.4-123-128.6z"/>
		<path class="st13" d="M-116.7-127c-0.2-0.2-0.3-0.4-0.3-0.6v-13c0-0.3,0.1-0.5,0.3-0.6c0.2-0.2,0.4-0.3,0.6-0.3
			c0.3,0,0.5,0.1,0.7,0.3c0.2,0.2,0.3,0.4,0.3,0.7v13c0,0.3-0.1,0.5-0.3,0.6s-0.4,0.3-0.6,0.3C-116.3-126.7-116.5-126.8-116.7-127z"
			/>
		<path class="st13" d="M-110.1-127.2c-0.7-0.4-1.3-1-1.8-1.8s-0.7-1.8-0.7-2.8s0.2-2,0.7-2.8s1.1-1.4,1.8-1.8
			c0.7-0.4,1.5-0.6,2.3-0.6c1.3,0,2.4,0.5,3.4,1.5v-4.9c0-0.3,0.1-0.5,0.3-0.7c0.2-0.2,0.4-0.3,0.6-0.3c0.3,0,0.5,0.1,0.6,0.3
			c0.2,0.2,0.3,0.4,0.3,0.6v13c0,0.3-0.1,0.5-0.3,0.6c-0.2,0.2-0.4,0.3-0.6,0.3c-0.3,0-0.5-0.1-0.6-0.3c-0.2-0.2-0.3-0.4-0.3-0.6
			v-0.5c-1,1-2.1,1.5-3.4,1.5C-108.6-126.6-109.4-126.8-110.1-127.2z M-105.8-128.7c0.5-0.3,1-0.6,1.4-1.1v-4.2
			c-0.4-0.5-0.9-0.8-1.4-1.1s-1.1-0.4-1.7-0.4c-1,0-1.8,0.3-2.4,0.9c-0.6,0.6-0.9,1.5-0.9,2.7s0.3,2,0.9,2.7
			c0.6,0.6,1.4,0.9,2.4,0.9C-106.9-128.3-106.3-128.4-105.8-128.7z"/>
	</g>
	<g>
		<path class="st10" d="M-1160,34c-0.2-0.2-0.3-0.4-0.3-0.6V21.2c0-0.3,0.1-0.5,0.3-0.7c0.2-0.2,0.4-0.3,0.6-0.3h4.7
			c1.8,0,3.2,0.4,4.1,1.1c0.9,0.7,1.4,1.7,1.4,2.9c0,0.8-0.2,1.5-0.7,2.2s-1.1,1.1-1.9,1.4c1,0.3,1.6,0.9,2,1.8
			c0.4,0.9,0.5,1.9,0.5,2.8v0.9c0,0.3-0.1,0.5-0.3,0.6c-0.2,0.2-0.4,0.3-0.6,0.3c-0.3,0-0.5-0.1-0.7-0.3c-0.2-0.2-0.3-0.4-0.3-0.6
			v-0.6c0-0.7-0.1-1.3-0.2-1.8c-0.1-0.6-0.4-1.1-0.9-1.5c-0.5-0.4-1.1-0.7-2.1-0.7h-4.1v4.6c0,0.3-0.1,0.5-0.3,0.6
			c-0.2,0.2-0.4,0.3-0.7,0.3C-1159.6,34.3-1159.8,34.2-1160,34z M-1154.8,27c1.1,0,2.1-0.2,2.7-0.7s1-1.1,1-1.9
			c0-0.8-0.3-1.4-0.9-1.8s-1.6-0.6-3-0.6h-3.5V27H-1154.8z"/>
		<path class="st10" d="M-1145.6,33c-0.9-0.9-1.4-2.2-1.4-3.9c0-0.9,0.2-1.8,0.5-2.6c0.3-0.8,0.9-1.4,1.6-1.9s1.6-0.7,2.7-0.7
			c1,0,1.8,0.2,2.6,0.7s1.3,1.1,1.6,1.8c0.4,0.8,0.6,1.6,0.6,2.5c0,0.3-0.1,0.5-0.3,0.6c-0.2,0.2-0.4,0.3-0.7,0.3h-6.8
			c0.1,0.9,0.5,1.7,1,2.2c0.6,0.5,1.4,0.8,2.5,0.8c0.6,0,1-0.1,1.5-0.2c0.4-0.1,0.8-0.3,1.2-0.5c0.1-0.1,0.2-0.1,0.4-0.1
			c0.2,0,0.4,0.1,0.6,0.2c0.2,0.1,0.2,0.3,0.2,0.6c0,0.3-0.2,0.5-0.5,0.7c-0.5,0.3-1,0.5-1.5,0.7c-0.5,0.1-1.2,0.2-2,0.2
			C-1143.4,34.4-1144.7,33.9-1145.6,33z M-1139.2,28.3c0-0.7-0.2-1.2-0.5-1.6c-0.3-0.4-0.7-0.8-1.1-1c-0.4-0.2-0.9-0.3-1.3-0.3
			c-0.5,0-0.9,0.1-1.3,0.3c-0.4,0.2-0.8,0.5-1.1,1c-0.3,0.4-0.5,1-0.5,1.6H-1139.2z"/>
		<path class="st10" d="M-1132.6,38.7c-0.8-0.2-1.4-0.4-1.9-0.7c-0.2-0.1-0.4-0.4-0.4-0.7c0-0.2,0.1-0.4,0.2-0.6
			c0.2-0.2,0.3-0.3,0.6-0.3c0.1,0,0.2,0,0.4,0.1c1,0.5,2.1,0.8,3.3,0.8c2,0,3.1-1.1,3.1-3.3v-1.3c-0.9,1-2.1,1.5-3.4,1.5
			c-0.8,0-1.5-0.2-2.3-0.6s-1.3-1-1.8-1.8c-0.5-0.8-0.7-1.7-0.7-2.9s0.2-2.1,0.7-2.8c0.5-0.8,1.1-1.4,1.8-1.8
			c0.7-0.4,1.5-0.6,2.3-0.6c1.3,0,2.5,0.5,3.4,1.5v-0.5c0-0.3,0.1-0.5,0.3-0.7c0.2-0.2,0.4-0.3,0.6-0.3c0.3,0,0.5,0.1,0.6,0.3
			c0.2,0.2,0.3,0.4,0.3,0.7v8.9c0,1.7-0.4,3-1.2,3.9c-0.8,0.9-2,1.4-3.5,1.4C-1131,39-1131.8,38.9-1132.6,38.7z M-1128.8,32.1
			c0.5-0.3,0.9-0.6,1.4-1.1v-4.1c-0.4-0.5-0.9-0.8-1.4-1.1c-0.5-0.3-1-0.4-1.7-0.4c-1,0-1.8,0.3-2.4,0.9c-0.6,0.6-1,1.5-1,2.6
			c0,1.1,0.3,2,1,2.6c0.6,0.6,1.4,0.9,2.4,0.9C-1129.8,32.5-1129.2,32.4-1128.8,32.1z"/>
		<path class="st10" d="M-1120.8,33.9c-0.5-0.3-1-0.8-1.2-1.4c-0.3-0.6-0.4-1.3-0.4-2v-5.7c0-0.3,0.1-0.5,0.3-0.6
			c0.2-0.2,0.4-0.3,0.7-0.3c0.3,0,0.5,0.1,0.6,0.3c0.2,0.2,0.3,0.4,0.3,0.6v5.5c0,1.6,0.7,2.4,2.2,2.4c0.7,0,1.3-0.2,1.8-0.5
			c0.5-0.3,1-0.8,1.5-1.4v-6c0-0.3,0.1-0.5,0.3-0.6c0.2-0.2,0.4-0.3,0.7-0.3c0.3,0,0.5,0.1,0.6,0.3c0.2,0.2,0.3,0.4,0.3,0.6v8.6
			c0,0.3-0.1,0.5-0.3,0.7s-0.4,0.3-0.6,0.3c-0.3,0-0.5-0.1-0.7-0.3c-0.2-0.2-0.3-0.4-0.3-0.7v-0.8c-0.5,0.6-1.1,1-1.6,1.3
			s-1.3,0.5-2.1,0.5C-1119.7,34.4-1120.3,34.2-1120.8,33.9z"/>
		<path class="st10" d="M-1110,34c-0.2-0.2-0.3-0.4-0.3-0.6v-13c0-0.3,0.1-0.5,0.3-0.6c0.2-0.2,0.4-0.3,0.6-0.3
			c0.3,0,0.5,0.1,0.7,0.3c0.2,0.2,0.3,0.4,0.3,0.7v13c0,0.3-0.1,0.5-0.3,0.6s-0.4,0.3-0.6,0.3C-1109.6,34.3-1109.8,34.2-1110,34z"/>
		<path class="st10" d="M-1104.3,34c-0.5-0.2-0.9-0.6-1.2-1c-0.3-0.5-0.4-1-0.4-1.6c0-1,0.4-1.8,1.2-2.4c0.8-0.6,1.9-0.9,3.4-0.9
			h2.4V28c0-0.9-0.2-1.5-0.7-1.9c-0.4-0.4-1.1-0.6-2-0.6c-0.5,0-1,0-1.3,0.1c-0.4,0.1-0.8,0.2-1.3,0.4c-0.1,0-0.2,0-0.3,0
			c-0.2,0-0.4-0.1-0.5-0.2c-0.1-0.1-0.2-0.3-0.2-0.5c0-0.4,0.2-0.6,0.5-0.8c1.1-0.5,2.3-0.7,3.5-0.7c0.9,0,1.7,0.2,2.3,0.6
			c0.6,0.4,1.1,0.9,1.4,1.5c0.3,0.6,0.5,1.2,0.5,1.9v5.7c0,0.3-0.1,0.5-0.3,0.6c-0.2,0.2-0.4,0.3-0.7,0.3s-0.5-0.1-0.6-0.3
			c-0.2-0.2-0.3-0.4-0.3-0.6v-0.5c-1,1-2.2,1.5-3.8,1.5C-1103.2,34.4-1103.8,34.3-1104.3,34z M-1100.3,32.4c0.5-0.3,1-0.6,1.4-1.1
			v-1.7h-2.2c-2,0-3,0.5-3,1.6c0,0.5,0.2,0.9,0.5,1.2c0.3,0.3,0.9,0.4,1.6,0.4C-1101.4,32.8-1100.8,32.7-1100.3,32.4z"/>
		<path class="st10" d="M-1093.7,34c-0.2-0.2-0.3-0.4-0.3-0.6v-8.6c0-0.3,0.1-0.5,0.3-0.7c0.2-0.2,0.4-0.3,0.6-0.3
			c0.3,0,0.5,0.1,0.6,0.3c0.2,0.2,0.3,0.4,0.3,0.7v0.9c0.9-1.3,2-1.9,3.1-1.9h0.1c0.3,0,0.5,0.1,0.6,0.3c0.2,0.2,0.3,0.4,0.3,0.6
			c0,0.3-0.1,0.5-0.3,0.6c-0.2,0.2-0.4,0.2-0.7,0.2h-0.1c-0.6,0-1.2,0.2-1.8,0.5s-1,0.7-1.3,1.3v6.1c0,0.3-0.1,0.5-0.3,0.6
			s-0.4,0.3-0.6,0.3C-1093.4,34.3-1093.6,34.2-1093.7,34z"/>
		<path class="st12" d="M-1160.6,59.4c-0.2-0.1-0.3-0.2-0.4-0.3c-0.1-0.2-0.2-0.3-0.2-0.5c0-0.2,0.1-0.4,0.2-0.6
			c0.2-0.2,0.3-0.3,0.6-0.3c0.1,0,0.3,0,0.4,0.1c1.2,0.5,2.5,0.8,3.9,0.8c2.3,0,3.5-0.8,3.5-2.3c0-0.4-0.2-0.7-0.5-1
			c-0.3-0.3-0.7-0.5-1.1-0.6s-1.1-0.3-1.9-0.5c-1.1-0.3-2-0.5-2.6-0.8c-0.7-0.3-1.2-0.7-1.7-1.2c-0.5-0.5-0.7-1.2-0.7-2.1
			c0-0.8,0.2-1.5,0.6-2.1s1-1.1,1.8-1.5c0.8-0.4,1.7-0.5,2.8-0.5c1.5,0,2.8,0.2,4,0.7c0.4,0.1,0.6,0.4,0.6,0.8
			c0,0.2-0.1,0.4-0.2,0.6c-0.1,0.2-0.3,0.3-0.6,0.3c-0.1,0-0.2,0-0.3-0.1c-1-0.4-2.1-0.5-3.2-0.5c-1.1,0-1.9,0.2-2.6,0.6
			c-0.7,0.4-1,1-1,1.7c0,0.5,0.2,0.9,0.5,1.2s0.7,0.5,1.2,0.7c0.5,0.2,1.1,0.3,1.9,0.5c1.1,0.3,1.9,0.5,2.6,0.8
			c0.6,0.3,1.2,0.6,1.7,1.2c0.5,0.5,0.7,1.3,0.7,2.2c0,0.7-0.2,1.4-0.6,2c-0.4,0.6-1,1.1-1.8,1.4s-1.7,0.5-2.7,0.5
			C-1157.5,60.4-1159.1,60.1-1160.6,59.4z"/>
		<path class="st12" d="M-1147.5,59c-0.9-0.9-1.4-2.2-1.4-3.9c0-0.9,0.2-1.8,0.5-2.6c0.3-0.8,0.9-1.4,1.6-1.9s1.6-0.7,2.7-0.7
			c1,0,1.8,0.2,2.6,0.7s1.3,1.1,1.6,1.8c0.4,0.8,0.6,1.6,0.6,2.5c0,0.3-0.1,0.5-0.3,0.6c-0.2,0.2-0.4,0.3-0.7,0.3h-6.8
			c0.1,0.9,0.5,1.7,1,2.2c0.6,0.5,1.4,0.8,2.5,0.8c0.6,0,1-0.1,1.5-0.2c0.4-0.1,0.8-0.3,1.2-0.5c0.1-0.1,0.2-0.1,0.4-0.1
			c0.2,0,0.4,0.1,0.6,0.2c0.2,0.1,0.2,0.3,0.2,0.6c0,0.3-0.2,0.5-0.5,0.7c-0.5,0.3-1,0.5-1.5,0.7c-0.5,0.1-1.2,0.2-2,0.2
			C-1145.3,60.4-1146.6,59.9-1147.5,59z M-1141.1,54.3c0-0.7-0.2-1.2-0.5-1.6c-0.3-0.4-0.7-0.8-1.1-1c-0.4-0.2-0.9-0.3-1.3-0.3
			c-0.5,0-0.9,0.1-1.3,0.3c-0.4,0.2-0.8,0.5-1.1,1c-0.3,0.4-0.5,1-0.5,1.6H-1141.1z"/>
		<path class="st12" d="M-1136.7,60c-0.2-0.2-0.3-0.4-0.3-0.6v-8.6c0-0.3,0.1-0.5,0.3-0.7c0.2-0.2,0.4-0.3,0.6-0.3
			c0.3,0,0.5,0.1,0.6,0.3c0.2,0.2,0.3,0.4,0.3,0.7v0.8c0.4-0.5,0.8-1,1.3-1.3c0.5-0.3,1.2-0.5,2-0.5c0.7,0,1.4,0.2,1.9,0.6
			c0.5,0.4,0.9,0.9,1.1,1.5c0.8-1.4,2.1-2.1,3.7-2.1c0.7,0,1.4,0.2,1.9,0.6s0.9,0.9,1.1,1.4c0.2,0.6,0.4,1.2,0.4,1.8v5.8
			c0,0.3-0.1,0.5-0.3,0.6c-0.2,0.2-0.4,0.3-0.7,0.3s-0.5-0.1-0.6-0.3c-0.2-0.2-0.3-0.4-0.3-0.6V54c0-0.9-0.2-1.5-0.5-1.9
			c-0.3-0.4-0.8-0.6-1.6-0.6c-0.7,0-1.2,0.2-1.7,0.5c-0.4,0.4-0.8,0.8-1.2,1.4v6c0,0.3-0.1,0.5-0.3,0.6s-0.4,0.3-0.7,0.3
			s-0.5-0.1-0.6-0.3c-0.2-0.2-0.3-0.4-0.3-0.6V54c0-0.9-0.2-1.5-0.5-1.9c-0.3-0.4-0.8-0.6-1.6-0.6c-0.7,0-1.2,0.2-1.7,0.5
			c-0.4,0.4-0.8,0.8-1.2,1.4v6c0,0.3-0.1,0.5-0.3,0.6s-0.4,0.3-0.6,0.3C-1136.3,60.3-1136.5,60.2-1136.7,60z"/>
		<path class="st12" d="M-1118.4,47.6c-0.2-0.2-0.3-0.4-0.3-0.7v-0.1c0-0.3,0.1-0.5,0.3-0.7c0.2-0.2,0.4-0.3,0.7-0.3h0.1
			c0.3,0,0.5,0.1,0.7,0.3c0.2,0.2,0.3,0.4,0.3,0.7v0.1c0,0.3-0.1,0.5-0.3,0.7s-0.4,0.3-0.7,0.3h-0.1
			C-1118,47.9-1118.2,47.8-1118.4,47.6z M-1118.3,60c-0.2-0.2-0.3-0.4-0.3-0.6v-8.6c0-0.3,0.1-0.5,0.3-0.7c0.2-0.2,0.4-0.3,0.6-0.3
			c0.3,0,0.5,0.1,0.7,0.3c0.2,0.2,0.3,0.4,0.3,0.7v8.6c0,0.3-0.1,0.5-0.3,0.6s-0.4,0.3-0.6,0.3C-1117.9,60.3-1118.2,60.2-1118.3,60z
			"/>
		<path class="st12" d="M-1111.8,58.9v0.5c0,0.3-0.1,0.5-0.3,0.6s-0.4,0.3-0.6,0.3c-0.3,0-0.5-0.1-0.6-0.3s-0.3-0.4-0.3-0.6v-13
			c0-0.3,0.1-0.5,0.3-0.6c0.2-0.2,0.4-0.3,0.6-0.3c0.3,0,0.5,0.1,0.7,0.3c0.2,0.2,0.3,0.4,0.3,0.7v4.9c1-1,2.1-1.5,3.4-1.5
			c0.8,0,1.6,0.2,2.3,0.6c0.7,0.4,1.3,1,1.8,1.8s0.7,1.8,0.7,2.8s-0.2,2-0.7,2.8s-1.1,1.4-1.8,1.8s-1.5,0.6-2.3,0.6
			C-1109.7,60.4-1110.8,59.9-1111.8,58.9z M-1106.2,57.8c0.6-0.6,0.9-1.5,0.9-2.7s-0.3-2-0.9-2.7c-0.6-0.6-1.4-0.9-2.4-0.9
			c-0.6,0-1.2,0.1-1.7,0.4s-1,0.6-1.4,1.1v4.2c0.4,0.5,0.9,0.8,1.4,1.1s1.1,0.4,1.7,0.4C-1107.6,58.7-1106.8,58.4-1106.2,57.8z"/>
		<path class="st12" d="M-1099.2,59.7c-0.8-0.4-1.4-1.1-1.8-1.9s-0.6-1.7-0.6-2.8s0.2-2,0.6-2.8s1-1.4,1.8-1.9
			c0.8-0.4,1.7-0.7,2.7-0.7c1,0,1.9,0.2,2.7,0.7c0.8,0.4,1.4,1.1,1.8,1.9s0.6,1.7,0.6,2.8s-0.2,2-0.6,2.8s-1,1.4-1.8,1.9
			s-1.7,0.7-2.7,0.7C-1097.5,60.4-1098.4,60.2-1099.2,59.7z M-1094.9,58.4c0.5-0.3,0.9-0.7,1.2-1.2c0.3-0.5,0.5-1.2,0.5-2.1
			c0-0.8-0.2-1.5-0.5-2.1c-0.3-0.5-0.7-0.9-1.2-1.2c-0.5-0.2-1-0.4-1.6-0.4c-0.6,0-1.1,0.1-1.6,0.4c-0.5,0.2-0.9,0.6-1.2,1.2
			c-0.3,0.5-0.5,1.2-0.5,2.1c0,0.8,0.2,1.5,0.5,2.1c0.3,0.5,0.7,0.9,1.2,1.2s1,0.4,1.6,0.4C-1095.9,58.7-1095.4,58.6-1094.9,58.4z"
			/>
		<path class="st12" d="M-1088.6,60c-0.2-0.2-0.3-0.4-0.3-0.6v-13c0-0.3,0.1-0.5,0.3-0.6c0.2-0.2,0.4-0.3,0.6-0.3
			c0.3,0,0.5,0.1,0.7,0.3c0.2,0.2,0.3,0.4,0.3,0.7v13c0,0.3-0.1,0.5-0.3,0.6s-0.4,0.3-0.6,0.3C-1088.2,60.3-1088.4,60.2-1088.6,60z"
			/>
		<path class="st12" d="M-1082,59.8c-0.7-0.4-1.3-1-1.8-1.8s-0.7-1.8-0.7-2.8s0.2-2,0.7-2.8s1.1-1.4,1.8-1.8
			c0.7-0.4,1.5-0.6,2.3-0.6c1.3,0,2.4,0.5,3.4,1.5v-4.9c0-0.3,0.1-0.5,0.3-0.7c0.2-0.2,0.4-0.3,0.6-0.3c0.3,0,0.5,0.1,0.6,0.3
			c0.2,0.2,0.3,0.4,0.3,0.6v13c0,0.3-0.1,0.5-0.3,0.6c-0.2,0.2-0.4,0.3-0.6,0.3c-0.3,0-0.5-0.1-0.6-0.3c-0.2-0.2-0.3-0.4-0.3-0.6
			v-0.5c-1,1-2.1,1.5-3.4,1.5C-1080.5,60.4-1081.2,60.2-1082,59.8z M-1077.6,58.3c0.5-0.3,1-0.6,1.4-1.1V53
			c-0.4-0.5-0.9-0.8-1.4-1.1s-1.1-0.4-1.7-0.4c-1,0-1.8,0.3-2.4,0.9c-0.6,0.6-0.9,1.5-0.9,2.7s0.3,2,0.9,2.7
			c0.6,0.6,1.4,0.9,2.4,0.9C-1078.8,58.7-1078.2,58.6-1077.6,58.3z"/>
		<path class="st13" d="M-1160,85.9c-0.2-0.2-0.3-0.4-0.3-0.6V73.2c0-0.3,0.1-0.5,0.3-0.7c0.2-0.2,0.4-0.3,0.6-0.3h4.7
			c1.4,0,2.5,0.3,3.3,1c0.8,0.7,1.2,1.5,1.2,2.6c0,0.8-0.2,1.4-0.5,1.9c-0.4,0.5-0.8,0.9-1.4,1.2c0.8,0.3,1.5,0.7,2,1.2
			s0.8,1.3,0.8,2.1c0,1.2-0.4,2.2-1.2,2.9c-0.8,0.7-2.1,1-3.9,1h-4.8C-1159.6,86.2-1159.8,86.1-1160,85.9z M-1155.1,78.3
			c1.2,0,2-0.2,2.5-0.6c0.5-0.4,0.7-1,0.7-1.7c0-0.6-0.3-1.1-0.8-1.5c-0.5-0.4-1.2-0.6-2.1-0.6h-3.7v4.3H-1155.1z M-1154.7,84.5
			c1.3,0,2.2-0.2,2.8-0.6c0.5-0.4,0.8-1,0.8-1.7c0-1.5-1.2-2.3-3.5-2.3h-3.8v4.6H-1154.7z"/>
		<path class="st13" d="M-1145,85.7c-0.8-0.4-1.4-1.1-1.8-1.9s-0.6-1.7-0.6-2.8s0.2-2,0.6-2.8s1-1.4,1.8-1.9
			c0.8-0.4,1.7-0.7,2.7-0.7c1,0,1.9,0.2,2.7,0.7c0.8,0.4,1.4,1.1,1.8,1.9s0.6,1.7,0.6,2.8s-0.2,2-0.6,2.8s-1,1.4-1.8,1.9
			s-1.7,0.7-2.7,0.7C-1143.4,86.4-1144.3,86.2-1145,85.7z M-1140.8,84.4c0.5-0.3,0.9-0.7,1.2-1.2c0.3-0.5,0.5-1.2,0.5-2.1
			c0-0.8-0.2-1.5-0.5-2.1c-0.3-0.5-0.7-0.9-1.2-1.2c-0.5-0.2-1-0.4-1.6-0.4c-0.6,0-1.1,0.1-1.6,0.4c-0.5,0.2-0.9,0.6-1.2,1.2
			c-0.3,0.5-0.5,1.2-0.5,2.1c0,0.8,0.2,1.5,0.5,2.1c0.3,0.5,0.7,0.9,1.2,1.2s1,0.4,1.6,0.4C-1141.8,84.7-1141.3,84.6-1140.8,84.4z"
			/>
		<path class="st13" d="M-1134.4,86c-0.2-0.2-0.3-0.4-0.3-0.6v-13c0-0.3,0.1-0.5,0.3-0.6c0.2-0.2,0.4-0.3,0.6-0.3
			c0.3,0,0.5,0.1,0.7,0.3c0.2,0.2,0.3,0.4,0.3,0.7v13c0,0.3-0.1,0.5-0.3,0.6s-0.4,0.3-0.6,0.3C-1134,86.3-1134.2,86.2-1134.4,86z"/>
		<path class="st13" d="M-1127.8,85.8c-0.7-0.4-1.3-1-1.8-1.8s-0.7-1.8-0.7-2.8s0.2-2,0.7-2.8s1.1-1.4,1.8-1.8
			c0.7-0.4,1.5-0.6,2.3-0.6c1.3,0,2.4,0.5,3.4,1.5v-4.9c0-0.3,0.1-0.5,0.3-0.7c0.2-0.2,0.4-0.3,0.6-0.3c0.3,0,0.5,0.1,0.6,0.3
			c0.2,0.2,0.3,0.4,0.3,0.6v13c0,0.3-0.1,0.5-0.3,0.6c-0.2,0.2-0.4,0.3-0.6,0.3c-0.3,0-0.5-0.1-0.6-0.3c-0.2-0.2-0.3-0.4-0.3-0.6
			v-0.5c-1,1-2.1,1.5-3.4,1.5C-1126.3,86.4-1127.1,86.2-1127.8,85.8z M-1123.5,84.3c0.5-0.3,1-0.6,1.4-1.1V79
			c-0.4-0.5-0.9-0.8-1.4-1.1s-1.1-0.4-1.7-0.4c-1,0-1.8,0.3-2.4,0.9c-0.6,0.6-0.9,1.5-0.9,2.7s0.3,2,0.9,2.7
			c0.6,0.6,1.4,0.9,2.4,0.9C-1124.6,84.7-1124,84.6-1123.5,84.3z"/>
	</g>
	<g>
		<path class="st10" d="M-792.7-515.5v5.6h-2v-14h7.2l2.3,1.3v5.7l-2.3,1.3l3.2,5.6h-2.2l-3.2-5.6H-792.7z M-792.7-517.3h5.5v-4.8
			h-5.5V-517.3z"/>
		<path class="st10" d="M-773.9-509.9h-5.6l-2.3-1.3v-7.4l2.3-1.3h3.3l2.3,1.3v4.4h-6v2.6h6V-509.9z M-779.9-516h4v-2.3h-4V-516z"/>
		<path class="st10" d="M-770.7-511v-1.8l1.4-0.8l-1.4-0.8v-4.1l2.3-1.3h6.4v0.7l-1.8,1.1l1.2,0.7v2.8l-2.3,1.3h-3.8v1.7h4.4
			l2.3,1.3v3.2l-2.3,1.3h-4.5l-2.3-1.3v-1.2l1.9-1.1v2h5.2v-2.4h-4.8L-770.7-511z M-768.8-515h4.2v-3.2h-4.2V-515z"/>
		<path class="st10" d="M-759.2-519.9h1.9v8.4h4.6v-8.4h1.9v10.1h-1.5l-0.5-0.8l-1.4,0.8h-2.8l-2.3-1.3V-519.9z"/>
		<path class="st10" d="M-747.5-511.2v-13.3h1.9v12.9h2.4v1.7h-2L-747.5-511.2z"/>
		<path class="st10" d="M-741.6-511.1v-3.3l2.3-1.3h3.6v-2.4h-5v-1.7h4.6l2.3,1.3v8.8h-0.5l-1.4-0.8l-1.4,0.8h-2.2L-741.6-511.1z
			 M-739.6-511.5h4v-2.5h-4V-511.5z"/>
		<path class="st10" d="M-728.5-518.2v8.3h-1.9v-10h1.5l0.5,0.8l1.4-0.8h2.2v1.7H-728.5z"/>
		<path class="st10" d="M-700-517.2L-700-517.2l1.7,1v4.9l-2.3,1.3h-7.6v-14h7.6l2.3,1.3v4.4L-700-517.2z M-705.4-518.3h4.3v-3.2
			h-4.3V-518.3z M-705.4-512.3h4.3v-3.6h-4.3V-512.3z"/>
		<path class="st10" d="M-688.5-509.8h-4.3l-2.3-1.3v-7.5l2.3-1.3h4.3l2.3,1.3v7.5L-688.5-509.8z M-692.3-512.1h3.4v-5.5h-3.4
			V-512.1z"/>
		<path class="st10" d="M-683.2-511.2v-13.3h2.7v12.3h2v2.3h-2.4L-683.2-511.2z"/>
		<path class="st10" d="M-671.7-520l1.4,0.8v-5.3h2.7v14.7h-2.3l-0.5-0.8l-1.4,0.8h-2.6l-2.3-1.3v-7.5l2.3-1.3H-671.7z
			 M-670.3-517.7h-3.6v5.5h3.6V-517.7z"/>
	</g>
	<g>
		<path class="st10" d="M-794.6-124.8v-13c0-0.2,0-0.4,0.1-0.5c0.1-0.1,0.2-0.1,0.5-0.1h3.4c1.6,0,2.8,0.3,3.6,0.8
			c0.8,0.6,1.2,1.5,1.2,2.7c0,0.8-0.2,1.5-0.6,2.1c-0.4,0.6-1,1-1.7,1.3v0.1c0.4,0.1,0.7,0.4,1,0.8c0.3,0.4,0.5,1,0.8,1.7l1.6,3.9
			c0,0.1,0.1,0.2,0.1,0.3c0,0.2-0.3,0.3-0.8,0.3h-0.2c-0.2,0-0.4,0-0.5-0.1c-0.1-0.1-0.2-0.1-0.3-0.2l-1.5-3.9
			c-0.3-0.8-0.7-1.3-1.1-1.5c-0.4-0.3-1.1-0.4-1.9-0.4h-1.8v5.8c0,0.3-0.3,0.4-0.8,0.4h-0.2C-794.3-124.4-794.6-124.5-794.6-124.8z
			 M-790.2-132.1c0.5,0,0.9-0.1,1.3-0.3s0.7-0.5,0.9-0.9s0.3-0.8,0.3-1.2c0-0.8-0.2-1.4-0.7-1.8c-0.5-0.4-1.1-0.6-2-0.6h-2.5v4.8
			H-790.2z"/>
		<path class="st10" d="M-782-125.6c-0.8-0.9-1.2-2.2-1.2-4c0-1.8,0.4-3.1,1.2-4c0.8-0.9,1.9-1.4,3.5-1.4c1.4,0,2.4,0.4,3.1,1.3
			s1,2.2,1,3.9c0,0.1-0.1,0.3-0.2,0.5c-0.2,0.2-0.3,0.3-0.4,0.3h-6.3c0.1,1.1,0.4,1.9,0.9,2.4c0.5,0.5,1.2,0.8,2.2,0.8
			c0.6,0,1-0.1,1.4-0.2c0.4-0.1,0.7-0.3,1-0.4c0.3-0.1,0.4-0.2,0.5-0.2c0.1,0,0.3,0.1,0.4,0.4c0.2,0.3,0.3,0.5,0.3,0.6
			c0,0.2-0.2,0.3-0.5,0.6c-0.3,0.2-0.8,0.4-1.3,0.5c-0.6,0.1-1.1,0.2-1.8,0.2C-780-124.3-781.2-124.7-782-125.6z M-776.2-130.4
			c0-2.1-0.8-3.2-2.4-3.2c-1.7,0-2.7,1.1-2.8,3.2H-776.2z"/>
		<path class="st10" d="M-771.5-120.8c-0.7-0.4-1.1-1-1.1-1.9c0-0.6,0.2-1.1,0.5-1.5c0.3-0.4,0.8-0.8,1.3-1l0,0
			c-0.5-0.4-0.8-1-0.8-1.6c0-0.9,0.4-1.6,1.1-2.1c-0.6-0.3-1-0.7-1.3-1.2c-0.3-0.5-0.4-1-0.4-1.7c0-0.9,0.3-1.7,1-2.3
			c0.7-0.6,1.7-0.9,2.9-0.9c0.4,0,0.8,0,1.2,0.1h3.6c0.1,0,0.3,0,0.3,0.1c0.1,0.1,0.1,0.2,0.1,0.5v0.2c0,0.2,0,0.4-0.1,0.5
			c-0.1,0.1-0.2,0.1-0.3,0.1c-0.5,0-1,0-1.4-0.1l0,0c0.3,0.5,0.5,1.1,0.5,1.7c0,1-0.3,1.7-1,2.4c-0.7,0.6-1.7,0.9-2.9,0.9
			c-0.6,0-1.1,0.1-1.4,0.3c-0.3,0.2-0.5,0.6-0.5,1c0,0.3,0.1,0.6,0.3,0.8c0.2,0.2,0.5,0.3,0.8,0.4s0.8,0.2,1.4,0.2
			c0.3,0,0.5,0.1,0.7,0.1c1,0.1,1.7,0.3,2.2,0.7c0.5,0.3,0.8,0.9,0.8,1.7c0,1-0.4,1.7-1.2,2.2s-1.9,0.8-3.4,0.8
			C-769.7-120.2-770.8-120.4-771.5-120.8z M-766.2-121.9c0.4-0.2,0.7-0.6,0.7-1.1c0-0.5-0.2-0.8-0.7-0.9c-0.4-0.2-1.1-0.3-2-0.4
			c-0.8-0.1-1.3-0.2-1.6-0.3c-0.9,0.4-1.3,0.9-1.3,1.6c0,1,1,1.4,2.9,1.4C-767.3-121.5-766.6-121.7-766.2-121.9z M-766.5-130.3
			c0.4-0.3,0.6-0.8,0.6-1.5c0-1.3-0.8-1.9-2.4-1.9c-1.6,0-2.4,0.6-2.4,1.9c0,1.3,0.8,1.9,2.4,1.9
			C-767.5-129.8-766.9-129.9-766.5-130.3z"/>
		<path class="st10" d="M-760.2-125.2c-0.6-0.6-0.9-1.4-0.9-2.4v-6.9c0-0.3,0.3-0.4,0.8-0.4h0.1c0.5,0,0.8,0.1,0.8,0.4v6.8
			c0,0.6,0.2,1.1,0.5,1.4s0.9,0.5,1.5,0.5c0.5,0,0.9-0.1,1.4-0.4c0.4-0.3,0.8-0.6,1.2-1v-7.3c0-0.3,0.3-0.4,0.8-0.4h0.1
			c0.5,0,0.8,0.1,0.8,0.4v7.1c0,0.9,0,1.5,0.1,1.9c0.1,0.4,0.1,0.6,0.1,0.6c0,0.2-0.1,0.3-0.4,0.3c-0.3,0.1-0.5,0.1-0.7,0.1
			c-0.2,0-0.3-0.1-0.4-0.3c-0.1-0.2-0.2-0.4-0.2-0.6s-0.1-0.4-0.1-0.4c-0.4,0.5-0.9,0.8-1.5,1.1c-0.5,0.3-1.1,0.4-1.7,0.4
			C-758.9-124.3-759.7-124.6-760.2-125.2z"/>
		<path class="st10" d="M-749-124.9c-0.5-0.4-0.8-1.1-0.8-2.2v-12c0-0.3,0.3-0.4,0.8-0.4h0.1c0.5,0,0.8,0.1,0.8,0.4v11.8
			c0,0.6,0.1,0.9,0.3,1.2c0.2,0.2,0.5,0.3,0.8,0.3c0.3,0,0.4,0,0.6,0c0.1,0,0.2,0,0.3,0c0.1,0,0.2,0.1,0.3,0.4
			c0.1,0.2,0.1,0.4,0.1,0.6c0,0.4-0.5,0.6-1.5,0.6C-747.9-124.3-748.5-124.5-749-124.9z"/>
		<path class="st10" d="M-743.6-125.1c-0.6-0.5-0.9-1.3-0.9-2.2c0-1.1,0.3-1.8,0.9-2.4c0.6-0.5,1.4-0.9,2.3-1c0.9-0.2,2-0.2,3.4-0.3
			v-0.9c0-0.5-0.2-0.9-0.5-1.2c-0.3-0.3-0.9-0.5-1.7-0.5c-0.6,0-1.1,0.1-1.5,0.2c-0.4,0.1-0.8,0.3-1.1,0.4c-0.3,0.1-0.5,0.2-0.5,0.2
			c-0.1,0-0.3-0.1-0.5-0.4c-0.2-0.3-0.3-0.5-0.3-0.6c0-0.2,0.2-0.4,0.5-0.6c0.4-0.2,0.8-0.4,1.4-0.5s1.2-0.2,1.8-0.2
			c1.2,0,2.2,0.3,2.9,0.8s1,1.3,1,2.3v4.5c0,0.9,0,1.5,0.1,1.9c0.1,0.4,0.1,0.6,0.1,0.6c0,0.2-0.1,0.3-0.4,0.3
			c-0.3,0.1-0.5,0.1-0.7,0.1c-0.2,0-0.3-0.1-0.4-0.3c-0.1-0.2-0.2-0.4-0.2-0.6s-0.1-0.4-0.1-0.4c-0.9,1-2,1.5-3.4,1.5
			C-742.1-124.3-743-124.6-743.6-125.1z M-739.4-126.1c0.5-0.2,1-0.6,1.5-1v-2.4c-1,0-1.8,0.1-2.5,0.1c-0.6,0.1-1.2,0.3-1.7,0.6
			s-0.7,0.8-0.7,1.4c0,0.5,0.1,0.9,0.4,1.2c0.3,0.3,0.7,0.4,1.3,0.4C-740.4-125.8-739.8-125.9-739.4-126.1z"/>
		<path class="st10" d="M-732.8-124.8v-7c0-0.9,0-1.5-0.1-1.9c-0.1-0.4-0.1-0.6-0.1-0.6c0-0.2,0.1-0.3,0.4-0.4
			c0.3-0.1,0.5-0.1,0.7-0.1c0.2,0,0.3,0.1,0.4,0.3s0.2,0.4,0.2,0.6s0.1,0.4,0.1,0.4c0.7-1,1.5-1.5,2.3-1.5c0.4,0,0.7,0.1,0.9,0.2
			c0.2,0.1,0.3,0.3,0.3,0.6s0,0.5-0.1,0.7s-0.2,0.4-0.3,0.4c-0.1,0-0.2,0-0.4-0.1c-0.2-0.1-0.4-0.1-0.7-0.1c-0.3,0-0.6,0.1-0.9,0.3
			c-0.3,0.2-0.5,0.4-0.7,0.6s-0.3,0.3-0.3,0.4v7.3c0,0.3-0.3,0.4-0.8,0.4h-0.1C-732.6-124.4-732.8-124.5-732.8-124.8z"/>
		<path class="st10" d="M-706.4-124.6c-0.1-0.1-0.2-0.3-0.2-0.6v-12.4c0-0.3,0.1-0.5,0.2-0.6c0.1-0.1,0.3-0.2,0.6-0.2h4
			c1.6,0,2.8,0.3,3.6,0.9c0.8,0.6,1.1,1.5,1.1,2.6c0,0.7-0.2,1.3-0.6,1.8c-0.4,0.6-0.9,1-1.5,1.2l0,0.1c0.8,0.2,1.4,0.6,1.9,1.2
			s0.8,1.3,0.8,2.1c0,1.3-0.4,2.3-1.3,3c-0.8,0.7-2.1,1-3.8,1h-4.2C-706.1-124.4-706.3-124.5-706.4-124.6z M-702.1-132.8
			c0.6,0,1-0.1,1.4-0.4c0.3-0.3,0.5-0.6,0.5-1.1c0-1-0.6-1.5-1.8-1.5h-1.4v3H-702.1z M-701.5-127c0.6,0,1-0.1,1.4-0.4
			s0.5-0.7,0.5-1.2s-0.2-0.9-0.6-1.2s-0.9-0.4-1.6-0.4h-1.6v3.2H-701.5z"/>
		<path class="st10" d="M-694.2-125.7c-0.8-0.9-1.2-2.3-1.2-4c0-1.7,0.4-3.1,1.2-4c0.8-0.9,2-1.4,3.6-1.4c1.6,0,2.8,0.5,3.6,1.4
			c0.8,0.9,1.2,2.3,1.2,4c0,1.7-0.4,3.1-1.2,4c-0.8,0.9-2,1.4-3.6,1.4C-692.1-124.3-693.3-124.7-694.2-125.7z M-689.2-127.4
			c0.3-0.5,0.5-1.3,0.5-2.3c0-1-0.2-1.8-0.5-2.3c-0.3-0.5-0.8-0.8-1.4-0.8c-0.6,0-1.1,0.3-1.4,0.8c-0.3,0.5-0.5,1.3-0.5,2.3
			c0,2,0.6,3.1,1.9,3.1C-689.9-126.6-689.5-126.9-689.2-127.4z"/>
		<path class="st10" d="M-683.6-127.5v-11.4c0-0.4,0.4-0.6,1.2-0.6h0.6c0.8,0,1.2,0.2,1.2,0.6v11.4c0,0.3,0.1,0.5,0.2,0.7
			s0.3,0.2,0.6,0.2c0.1,0,0.2,0,0.3,0c0.1,0,0.2,0,0.3,0c0.1,0,0.2,0.1,0.3,0.3c0.1,0.2,0.2,0.4,0.2,0.7c0.1,0.2,0.1,0.4,0.1,0.5
			c0,0.7-0.6,1-1.9,1C-682.6-124.3-683.6-125.3-683.6-127.5z"/>
		<path class="st10" d="M-676.3-124.9c-0.6-0.4-1-1-1.3-1.8c-0.3-0.8-0.5-1.8-0.5-2.9c0-1.7,0.4-3,1.1-3.9s1.8-1.5,3.1-1.5
			c0.8,0,1.5,0.2,2,0.6v-4.4c0-0.4,0.4-0.6,1.2-0.6h0.6c0.8,0,1.2,0.2,1.2,0.6v10.9c0,0.6,0,1.1,0.1,1.4c0,0.3,0.1,0.7,0.1,1.1
			c0,0.2,0.1,0.3,0.1,0.4c0,0.2-0.3,0.4-0.8,0.5c-0.5,0.1-1,0.2-1.4,0.2c-0.2,0-0.4-0.1-0.5-0.3c-0.1-0.2-0.2-0.4-0.2-0.6
			c0-0.2-0.1-0.4-0.1-0.4c-0.2,0.4-0.6,0.8-1.1,1.1c-0.5,0.3-1,0.4-1.6,0.4C-675.1-124.3-675.7-124.5-676.3-124.9z M-671.8-127.9
			v-4.5c-0.5-0.3-0.9-0.4-1.4-0.4c-1.2,0-1.9,1-1.9,3c0,2,0.5,3,1.6,3C-672.8-126.7-672.3-127.1-671.8-127.9z"/>
	</g>
	<g>
		<path class="st10" d="M-793.4-340.5h6.7v0.9h-7.7v-14.1h1V-340.5z"/>
		<path class="st10" d="M-783-353c0,0.1,0,0.2-0.1,0.3c-0.1,0.1-0.1,0.2-0.2,0.3s-0.2,0.1-0.3,0.2c-0.1,0-0.2,0.1-0.3,0.1
			s-0.2,0-0.3-0.1c-0.1,0-0.2-0.1-0.3-0.2s-0.1-0.2-0.2-0.3c0-0.1-0.1-0.2-0.1-0.3s0-0.2,0.1-0.3c0-0.1,0.1-0.2,0.2-0.3
			c0.1-0.1,0.2-0.1,0.3-0.2c0.1,0,0.2-0.1,0.3-0.1s0.2,0,0.3,0.1c0.1,0,0.2,0.1,0.3,0.2c0.1,0.1,0.1,0.2,0.2,0.3
			C-783-353.3-783-353.1-783-353z M-783.4-349.6v10h-0.9v-10H-783.4z"/>
		<path class="st10" d="M-776.6-349.8c0.4,0,0.8,0.1,1.2,0.2c0.4,0.1,0.7,0.3,1,0.5h2.6v0.3c0,0.2-0.1,0.3-0.3,0.3l-1.5,0.1
			c0.2,0.3,0.3,0.5,0.4,0.9c0.1,0.3,0.2,0.7,0.2,1c0,0.5-0.1,0.9-0.3,1.3c-0.2,0.4-0.4,0.7-0.7,1c-0.3,0.3-0.7,0.5-1.1,0.6
			s-0.9,0.2-1.4,0.2c-0.6,0-1.1-0.1-1.6-0.3c-0.3,0.2-0.5,0.3-0.7,0.6c-0.2,0.2-0.2,0.4-0.2,0.6c0,0.3,0.1,0.5,0.3,0.7
			c0.2,0.2,0.5,0.3,0.8,0.3c0.3,0.1,0.7,0.1,1.1,0.1c0.4,0,0.9,0,1.3,0.1s0.9,0.1,1.3,0.1c0.4,0.1,0.8,0.2,1.1,0.3s0.6,0.4,0.8,0.6
			s0.3,0.6,0.3,1.1c0,0.4-0.1,0.8-0.3,1.2c-0.2,0.4-0.5,0.7-0.9,1c-0.4,0.3-0.9,0.5-1.4,0.7c-0.6,0.2-1.2,0.3-1.9,0.3
			c-0.7,0-1.3-0.1-1.8-0.2c-0.5-0.1-1-0.3-1.3-0.6c-0.4-0.2-0.6-0.5-0.8-0.8c-0.2-0.3-0.3-0.7-0.3-1c0-0.5,0.2-1,0.5-1.4
			s0.8-0.7,1.4-0.9c-0.3-0.1-0.6-0.3-0.8-0.5c-0.2-0.2-0.3-0.5-0.3-0.9c0-0.1,0-0.3,0.1-0.4c0.1-0.2,0.1-0.3,0.2-0.5
			c0.1-0.2,0.2-0.3,0.4-0.4c0.1-0.1,0.3-0.3,0.5-0.4c-0.5-0.3-0.8-0.6-1.1-1.1c-0.3-0.5-0.4-1-0.4-1.6c0-0.5,0.1-0.9,0.3-1.3
			c0.2-0.4,0.4-0.7,0.7-1c0.3-0.3,0.7-0.5,1.1-0.6C-777.6-349.7-777.2-349.8-776.6-349.8z M-772.9-339c0-0.3-0.1-0.6-0.2-0.8
			s-0.4-0.3-0.7-0.4c-0.3-0.1-0.6-0.2-0.9-0.2s-0.7-0.1-1.1-0.1s-0.8,0-1.2-0.1s-0.8-0.1-1.1-0.1c-0.3,0.1-0.5,0.2-0.7,0.3
			c-0.2,0.1-0.4,0.3-0.6,0.4c-0.2,0.2-0.3,0.3-0.4,0.5c-0.1,0.2-0.1,0.4-0.1,0.6c0,0.3,0.1,0.6,0.2,0.8c0.1,0.3,0.4,0.5,0.7,0.6
			c0.3,0.2,0.6,0.3,1.1,0.4c0.4,0.1,0.9,0.2,1.5,0.2c0.5,0,1-0.1,1.4-0.2s0.8-0.3,1.1-0.5c0.3-0.2,0.6-0.5,0.8-0.7
			C-773-338.3-772.9-338.6-772.9-339z M-776.6-344c0.4,0,0.8-0.1,1.1-0.2s0.6-0.3,0.8-0.5c0.2-0.2,0.4-0.5,0.5-0.8
			c0.1-0.3,0.2-0.6,0.2-1c0-0.4-0.1-0.7-0.2-1s-0.3-0.6-0.5-0.8c-0.2-0.2-0.5-0.4-0.8-0.5c-0.3-0.1-0.7-0.2-1.1-0.2
			s-0.8,0.1-1.1,0.2c-0.3,0.1-0.6,0.3-0.8,0.5c-0.2,0.2-0.4,0.5-0.5,0.8c-0.1,0.3-0.2,0.7-0.2,1c0,0.4,0.1,0.7,0.2,1
			c0.1,0.3,0.3,0.6,0.5,0.8c0.2,0.2,0.5,0.4,0.8,0.5C-777.4-344.1-777-344-776.6-344z"/>
		<path class="st10" d="M-769.8-339.6v-14.5h1v6.3c0.5-0.6,1-1,1.6-1.4c0.6-0.3,1.3-0.5,2-0.5c0.5,0,1,0.1,1.4,0.3
			c0.4,0.2,0.8,0.4,1,0.8c0.3,0.3,0.5,0.7,0.6,1.2c0.1,0.5,0.2,1,0.2,1.6v6.4h-1v-6.4c0-0.9-0.2-1.7-0.6-2.2c-0.4-0.5-1.1-0.8-2-0.8
			c-0.7,0-1.3,0.2-1.8,0.5c-0.6,0.3-1.1,0.8-1.5,1.4v7.5H-769.8z"/>
		<path class="st10" d="M-756.3-339.5c-0.7,0-1.2-0.2-1.6-0.6s-0.6-1-0.6-1.7v-6.8h-1.4c-0.1,0-0.1,0-0.2-0.1c0,0-0.1-0.1-0.1-0.2
			v-0.4l1.7-0.1l0.2-3.6c0-0.1,0-0.1,0.1-0.2c0,0,0.1-0.1,0.2-0.1h0.4v3.8h3.1v0.7h-3.1v6.8c0,0.3,0,0.5,0.1,0.7
			c0.1,0.2,0.2,0.4,0.3,0.5c0.1,0.1,0.3,0.2,0.4,0.3c0.2,0.1,0.3,0.1,0.5,0.1c0.2,0,0.4,0,0.6-0.1c0.2-0.1,0.3-0.1,0.5-0.2
			c0.1-0.1,0.2-0.2,0.3-0.2s0.1-0.1,0.2-0.1c0.1,0,0.1,0,0.2,0.1l0.3,0.4c-0.3,0.3-0.6,0.5-1,0.7
			C-755.5-339.6-755.9-339.5-756.3-339.5z"/>
		<path class="st10" d="M-738-345.6v6h-1.9V-354h4c0.9,0,1.7,0.1,2.3,0.3c0.7,0.2,1.2,0.4,1.6,0.8c0.4,0.3,0.7,0.8,1,1.3
			c0.2,0.5,0.3,1,0.3,1.6c0,0.5-0.1,1-0.2,1.4s-0.4,0.8-0.7,1.2c-0.3,0.4-0.7,0.6-1.1,0.9c-0.4,0.2-0.9,0.4-1.5,0.6
			c0.2,0.1,0.5,0.3,0.6,0.6l4.2,5.7h-1.7c-0.4,0-0.6-0.1-0.8-0.4l-3.7-5.1c-0.1-0.2-0.2-0.3-0.4-0.3c-0.1-0.1-0.3-0.1-0.6-0.1H-738z
			 M-738-347h2c0.6,0,1.1-0.1,1.5-0.2c0.4-0.1,0.8-0.3,1.1-0.6s0.5-0.5,0.7-0.9s0.2-0.7,0.2-1.2c0-0.9-0.3-1.5-0.8-1.9
			c-0.6-0.4-1.4-0.6-2.5-0.6h-2.1V-347z"/>
		<path class="st10" d="M-723.6-349.9c0.6,0,1.2,0.1,1.7,0.3c0.5,0.2,1,0.5,1.3,0.9c0.4,0.4,0.7,0.9,0.9,1.4
			c0.2,0.6,0.3,1.2,0.3,1.9c0,0.3,0,0.5-0.1,0.6c-0.1,0.1-0.2,0.1-0.3,0.1h-6.7c0,0.6,0.1,1.2,0.3,1.7c0.2,0.5,0.4,0.9,0.7,1.2
			c0.3,0.3,0.6,0.6,1,0.7c0.4,0.2,0.8,0.2,1.3,0.2c0.4,0,0.8-0.1,1.2-0.2c0.3-0.1,0.6-0.2,0.8-0.3s0.4-0.2,0.6-0.3s0.3-0.2,0.4-0.2
			c0.1,0,0.3,0.1,0.3,0.2l0.5,0.6c-0.2,0.3-0.5,0.5-0.8,0.7c-0.3,0.2-0.6,0.4-1,0.5c-0.3,0.1-0.7,0.2-1.1,0.3
			c-0.4,0.1-0.7,0.1-1.1,0.1c-0.7,0-1.3-0.1-1.9-0.4c-0.6-0.2-1.1-0.6-1.5-1c-0.4-0.5-0.8-1-1-1.7c-0.2-0.7-0.4-1.4-0.4-2.3
			c0-0.7,0.1-1.4,0.3-2c0.2-0.6,0.5-1.1,0.9-1.6c0.4-0.4,0.9-0.8,1.5-1.1C-724.9-349.8-724.3-349.9-723.6-349.9z M-723.5-348.6
			c-0.9,0-1.5,0.2-2,0.7c-0.5,0.5-0.8,1.2-0.9,2.1h5.5c0-0.4-0.1-0.8-0.2-1.1c-0.1-0.3-0.3-0.6-0.5-0.9c-0.2-0.3-0.5-0.4-0.8-0.6
			S-723.1-348.6-723.5-348.6z"/>
		<path class="st10" d="M-713.7-349.9c0.4,0,0.9,0,1.2,0.1c0.4,0.1,0.7,0.2,1,0.4h2.8v0.7c0,0.2-0.1,0.4-0.4,0.4l-1.2,0.2
			c0.2,0.4,0.3,0.9,0.3,1.5c0,0.5-0.1,0.9-0.3,1.3c-0.2,0.4-0.5,0.7-0.8,1c-0.3,0.3-0.7,0.5-1.2,0.7c-0.5,0.2-1,0.2-1.5,0.2
			c-0.5,0-0.9-0.1-1.3-0.2c-0.2,0.1-0.4,0.3-0.5,0.4c-0.1,0.2-0.2,0.3-0.2,0.5c0,0.2,0.1,0.4,0.3,0.6s0.5,0.2,0.8,0.3
			c0.3,0.1,0.7,0.1,1.1,0.1c0.4,0,0.8,0,1.2,0c0.4,0,0.8,0,1.2,0.1c0.4,0.1,0.8,0.2,1.1,0.4c0.3,0.2,0.6,0.4,0.8,0.7
			s0.3,0.7,0.3,1.2c0,0.4-0.1,0.9-0.3,1.3s-0.5,0.8-0.9,1.1c-0.4,0.3-0.9,0.6-1.5,0.8s-1.3,0.3-2,0.3c-0.7,0-1.4-0.1-1.9-0.2
			s-1-0.3-1.4-0.6c-0.4-0.2-0.6-0.5-0.8-0.9c-0.2-0.3-0.3-0.7-0.3-1c0-0.5,0.2-0.9,0.5-1.3c0.3-0.4,0.8-0.6,1.3-0.8
			c-0.3-0.1-0.5-0.3-0.7-0.5c-0.2-0.2-0.3-0.5-0.3-0.9c0-0.1,0-0.3,0.1-0.5c0.1-0.2,0.1-0.3,0.2-0.5s0.2-0.3,0.4-0.4
			s0.3-0.3,0.6-0.4c-0.5-0.3-0.9-0.7-1.2-1.1s-0.4-1-0.4-1.6c0-0.5,0.1-0.9,0.3-1.3c0.2-0.4,0.5-0.7,0.8-1c0.3-0.3,0.7-0.5,1.2-0.7
			S-714.2-349.9-713.7-349.9z M-710.5-339.1c0-0.3-0.1-0.5-0.2-0.6c-0.1-0.2-0.3-0.3-0.6-0.4s-0.5-0.1-0.8-0.2c-0.3,0-0.6-0.1-1-0.1
			s-0.7,0-1.1,0s-0.7,0-1-0.1c-0.4,0.2-0.7,0.4-0.9,0.7s-0.4,0.6-0.4,0.9c0,0.2,0.1,0.4,0.2,0.6c0.1,0.2,0.3,0.4,0.5,0.5
			c0.2,0.1,0.5,0.3,0.9,0.3s0.8,0.1,1.3,0.1c0.5,0,0.9,0,1.3-0.1s0.7-0.2,1-0.4c0.3-0.2,0.5-0.4,0.6-0.6
			C-710.6-338.6-710.5-338.9-710.5-339.1z M-713.7-344.6c0.4,0,0.7,0,1-0.1c0.3-0.1,0.5-0.2,0.7-0.4c0.2-0.2,0.3-0.4,0.4-0.6
			c0.1-0.3,0.1-0.5,0.1-0.8c0-0.6-0.2-1.1-0.6-1.5c-0.4-0.4-0.9-0.5-1.6-0.5c-0.7,0-1.3,0.2-1.6,0.5c-0.4,0.4-0.6,0.9-0.6,1.5
			c0,0.3,0,0.6,0.1,0.8c0.1,0.3,0.2,0.5,0.4,0.6s0.4,0.3,0.7,0.4S-714-344.6-713.7-344.6z"/>
		<path class="st10" d="M-705.3-349.8v6.5c0,0.8,0.2,1.4,0.5,1.8c0.4,0.4,0.9,0.6,1.6,0.6c0.5,0,1-0.1,1.5-0.4s0.9-0.6,1.3-1v-7.5
			h1.8v10.1h-1.1c-0.3,0-0.4-0.1-0.5-0.4l-0.1-1.1c-0.4,0.5-0.9,0.9-1.5,1.2c-0.5,0.3-1.2,0.4-1.9,0.4c-0.6,0-1-0.1-1.5-0.3
			c-0.4-0.2-0.8-0.4-1.1-0.8c-0.3-0.3-0.5-0.7-0.6-1.2c-0.1-0.5-0.2-1-0.2-1.6v-6.5H-705.3z"/>
		<path class="st10" d="M-693.8-354.4v14.7h-1.8v-14.7H-693.8z"/>
		<path class="st10" d="M-683.2-339.6h-0.8c-0.2,0-0.3,0-0.4-0.1c-0.1-0.1-0.2-0.2-0.2-0.3l-0.2-0.9c-0.3,0.2-0.5,0.5-0.8,0.6
			c-0.3,0.2-0.5,0.3-0.8,0.5c-0.3,0.1-0.6,0.2-0.9,0.3s-0.7,0.1-1.1,0.1c-0.4,0-0.8-0.1-1.1-0.2c-0.3-0.1-0.6-0.3-0.9-0.5
			c-0.3-0.2-0.5-0.5-0.6-0.8c-0.1-0.3-0.2-0.7-0.2-1.2c0-0.4,0.1-0.8,0.3-1.2c0.2-0.4,0.6-0.7,1.1-1c0.5-0.3,1.1-0.5,1.9-0.7
			c0.8-0.2,1.8-0.3,2.9-0.3v-0.8c0-0.8-0.2-1.4-0.5-1.8c-0.3-0.4-0.8-0.6-1.5-0.6c-0.4,0-0.8,0.1-1.1,0.2s-0.6,0.2-0.8,0.4
			s-0.4,0.3-0.6,0.4c-0.2,0.1-0.3,0.2-0.5,0.2c-0.1,0-0.2,0-0.3-0.1s-0.2-0.1-0.2-0.2l-0.3-0.6c0.6-0.5,1.2-0.9,1.8-1.2
			c0.6-0.3,1.4-0.4,2.2-0.4c0.6,0,1.1,0.1,1.5,0.3c0.4,0.2,0.8,0.4,1.1,0.8s0.5,0.7,0.7,1.2c0.2,0.5,0.2,1,0.2,1.6V-339.6z
			 M-687.8-340.7c0.3,0,0.6,0,0.9-0.1c0.3-0.1,0.5-0.2,0.7-0.3s0.5-0.3,0.7-0.4s0.4-0.4,0.6-0.6v-2.1c-0.8,0-1.5,0.1-2.1,0.2
			c-0.6,0.1-1,0.2-1.4,0.4c-0.4,0.2-0.6,0.4-0.8,0.6s-0.2,0.5-0.2,0.8c0,0.3,0,0.5,0.1,0.7s0.2,0.4,0.4,0.5c0.1,0.1,0.3,0.2,0.5,0.3
			C-688.3-340.8-688-340.7-687.8-340.7z"/>
		<path class="st10" d="M-680.5-339.6v-10.1h1c0.2,0,0.3,0,0.4,0.1s0.1,0.2,0.2,0.4l0.1,1.6c0.3-0.7,0.8-1.3,1.3-1.7
			c0.5-0.4,1.1-0.6,1.8-0.6c0.3,0,0.5,0,0.8,0.1s0.4,0.2,0.6,0.3l-0.2,1.3c0,0.2-0.1,0.3-0.3,0.3c-0.1,0-0.2,0-0.4-0.1
			s-0.5-0.1-0.8-0.1c-0.6,0-1.1,0.2-1.6,0.5c-0.4,0.4-0.8,0.9-1,1.6v6.5H-680.5z"/>
		<path class="st10" d="M-657-339.6v-14.5h5c0.9,0,1.8,0.1,2.4,0.3s1.2,0.4,1.7,0.8c0.4,0.3,0.7,0.7,0.9,1.2c0.2,0.5,0.3,1,0.3,1.6
			c0,0.3,0,0.7-0.1,1c-0.1,0.3-0.3,0.6-0.5,0.9s-0.5,0.5-0.8,0.7c-0.3,0.2-0.7,0.4-1.2,0.6c2,0.4,3,1.5,3,3.2c0,0.6-0.1,1.2-0.3,1.7
			s-0.6,1-1,1.3c-0.4,0.4-1,0.7-1.6,0.9s-1.4,0.3-2.2,0.3H-657z M-654.3-347.8h2.1c0.9,0,1.6-0.2,2.1-0.5c0.5-0.3,0.7-0.9,0.7-1.6
			c0-0.8-0.2-1.3-0.6-1.6c-0.4-0.3-1.1-0.5-2-0.5h-2.3V-347.8z M-654.3-346v4.2h2.7c0.5,0,0.9-0.1,1.3-0.2c0.3-0.1,0.6-0.3,0.8-0.5
			c0.2-0.2,0.3-0.4,0.4-0.7s0.1-0.5,0.1-0.9c0-0.3,0-0.6-0.1-0.8c-0.1-0.3-0.3-0.5-0.5-0.6c-0.2-0.2-0.5-0.3-0.8-0.4
			c-0.3-0.1-0.7-0.1-1.2-0.1H-654.3z"/>
		<path class="st10" d="M-639.7-350.1c0.8,0,1.5,0.1,2.1,0.4c0.6,0.2,1.2,0.6,1.6,1c0.4,0.5,0.8,1,1,1.7c0.2,0.7,0.4,1.4,0.4,2.2
			c0,0.8-0.1,1.5-0.4,2.2c-0.2,0.7-0.6,1.2-1,1.7c-0.4,0.5-1,0.8-1.6,1.1c-0.6,0.2-1.3,0.4-2.1,0.4s-1.5-0.1-2.1-0.4
			c-0.6-0.2-1.2-0.6-1.6-1.1c-0.4-0.5-0.8-1-1-1.7c-0.2-0.7-0.4-1.4-0.4-2.2c0-0.8,0.1-1.5,0.4-2.2c0.2-0.7,0.6-1.2,1-1.7
			c0.4-0.5,1-0.8,1.6-1C-641.2-349.9-640.5-350.1-639.7-350.1z M-639.7-341.4c0.9,0,1.5-0.3,1.9-0.9s0.6-1.4,0.6-2.5s-0.2-2-0.6-2.5
			s-1-0.9-1.9-0.9c-0.9,0-1.5,0.3-1.9,0.9c-0.4,0.6-0.6,1.4-0.6,2.5s0.2,1.9,0.6,2.5C-641.2-341.7-640.6-341.4-639.7-341.4z"/>
		<path class="st10" d="M-630.1-354.5v14.9h-2.5v-14.9H-630.1z"/>
		<path class="st10" d="M-620.1-339.6c-0.3,0-0.5-0.1-0.6-0.5l-0.2-1c-0.2,0.2-0.4,0.5-0.7,0.6s-0.5,0.4-0.8,0.5
			c-0.3,0.1-0.6,0.2-0.9,0.3c-0.3,0.1-0.6,0.1-1,0.1c-0.6,0-1.1-0.1-1.5-0.4c-0.5-0.2-0.9-0.6-1.2-1s-0.6-1-0.8-1.6
			s-0.3-1.4-0.3-2.2c0-0.8,0.1-1.5,0.3-2.1c0.2-0.7,0.5-1.2,0.9-1.7s0.9-0.9,1.4-1.1s1.1-0.4,1.8-0.4c0.6,0,1.1,0.1,1.5,0.3
			c0.4,0.2,0.8,0.4,1.1,0.7v-5.4h2.5v14.9H-620.1z M-623.4-341.5c0.5,0,1-0.1,1.3-0.3c0.4-0.2,0.7-0.5,1-0.9v-4.6
			c-0.3-0.3-0.6-0.6-0.9-0.7c-0.3-0.1-0.7-0.2-1.1-0.2c-0.4,0-0.7,0.1-1,0.2c-0.3,0.1-0.6,0.4-0.8,0.6c-0.2,0.3-0.4,0.6-0.5,1.1
			s-0.2,1-0.2,1.5c0,0.6,0,1.1,0.1,1.5c0.1,0.4,0.2,0.8,0.4,1c0.2,0.3,0.4,0.5,0.7,0.6S-623.7-341.5-623.4-341.5z"/>
	</g>
</g>
<g id="Layer_2">
	<g>
		<path class="st14" d="M-220.8-417.5c0,0-4.2,0.6-5.4,0.9c-35.6,8.8-48.6,45.7-48.6,45.7l5.5,1.9l1.5,5.2c0,0,37.3-13.5,46-48.3
			C-221.4-413.3-220.8-417.5-220.8-417.5z"/>
		<line class="st14" x1="-232.7" y1="-405.5" x2="-269.6" y2="-368.6"/>
	</g>
</g>
<g id="Layer_3">
	<path class="st15" d="M-354.4-418.6l2.9,2.9c3.1,3.1,3.7,8.4,0.4,10.8c-0.6,0.4-2.7,1.9-3.3,2.3c-11.4,9-26,24.4-35.7,34.8
		c-0.5,0.5-5.1,6.9-5.8,7.8c-2.6,3.1-7.7,2.6-10.8-0.4l-2.9-2.9c-3.1-3.1-3.5-8.2-0.4-10.8c0.8-0.7,7.6-5.7,8-6.1
		c10.3-9.8,25.3-24,34.4-35.4c0.5-0.6,2-2.8,2.4-3.4C-362.7-422.2-357.5-421.7-354.4-418.6z"/>
	<g>
		<circle class="st16" cx="-249" cy="-561" r="28"/>
	</g>
	<path class="st17" d="M-356.5-538.5h-4c-1.6,0-3-1.3-3-3V-580c0-1.7,1.4-3,3-3h4c1.7,0,3,1.3,3,3v38.5
		C-353.5-539.8-354.8-538.5-356.5-538.5z"/>
	<path class="st17" d="M-399.5-538.5h-4c-1.6,0-3-1.3-3-3V-580c0-1.7,1.4-3,3-3h4c1.7,0,3,1.3,3,3v38.5
		C-396.5-539.8-397.8-538.5-399.5-538.5z"/>
	<rect x="-396.5" y="-564.6" class="st17" width="33" height="7.3"/>
	<rect x="-353.5" y="-564.6" class="st17" width="6" height="7.3"/>
	<rect x="-412.5" y="-564.6" class="st17" width="6" height="7.3"/>
	<g>
		<path class="st18" d="M-413.4-505l0.4-1.6c0.4,0.2,0.9,0.4,1.5,0.6c0.6,0.2,1.1,0.3,1.6,0.3c0.8,0,1.4-0.1,1.8-0.4
			s0.6-0.7,0.6-1.1c0-0.3-0.1-0.6-0.3-0.9c-0.2-0.3-0.5-0.5-0.9-0.7c-0.4-0.2-0.9-0.5-1.5-0.8c-1.1-0.6-2-1.1-2.5-1.7
			c-0.6-0.6-0.9-1.3-0.9-2.1c0-0.6,0.2-1.2,0.5-1.6c0.3-0.5,0.8-0.9,1.4-1.2c0.6-0.3,1.3-0.4,2.2-0.4c0.6,0,1.1,0.1,1.7,0.2
			c0.6,0.2,1.1,0.4,1.6,0.6l-0.7,1.6c-0.5-0.2-0.9-0.4-1.3-0.5c-0.4-0.1-0.8-0.2-1.3-0.2c-0.6,0-1.1,0.1-1.5,0.4
			c-0.4,0.2-0.6,0.6-0.6,1.1c0,0.3,0.1,0.6,0.3,0.9c0.2,0.3,0.5,0.5,0.8,0.7c0.3,0.2,0.9,0.5,1.6,0.9c0.8,0.4,1.4,0.8,1.8,1.1
			c0.5,0.3,0.8,0.7,1.1,1.2c0.3,0.4,0.4,1,0.4,1.6c0,0.6-0.2,1.2-0.5,1.7c-0.3,0.5-0.9,0.9-1.5,1.2s-1.5,0.4-2.4,0.4
			c-0.5,0-1.2-0.1-1.9-0.3S-413.1-504.8-413.4-505z"/>
		<path class="st18" d="M-399.4-513l0.6,1.5h-2.2v4.2c0,0.5,0.1,0.8,0.3,1.1c0.2,0.3,0.5,0.4,0.9,0.4c0.3,0,0.6-0.1,0.9-0.2l0.6,1.5
			c-0.2,0.1-0.4,0.2-0.7,0.3c-0.3,0.1-0.6,0.1-0.9,0.1c-1,0-1.7-0.3-2.3-0.8s-0.8-1.2-0.8-2.2v-4.5h-1.2v-1.5h1.2v-2.1l2-0.4v2.5
			H-399.4z"/>
		<path class="st18" d="M-394.4-504.3h-2v-8.7h1.1l0.7,1.4c0.4-0.4,0.9-0.7,1.5-1c0.6-0.3,1-0.5,1.5-0.5l0.4,1.6
			c-0.4,0-0.9,0.1-1.5,0.4c-0.6,0.3-1.1,0.7-1.6,1.1V-504.3z"/>
		<path class="st18" d="M-382-508.1h-6c0.2,1.6,1.1,2.3,2.8,2.3c0.5,0,0.9-0.1,1.3-0.2s0.8-0.3,1.3-0.6l0.6,1.5c-1,0.7-2,1-3.2,1
			c-1.6,0-2.8-0.4-3.6-1.2c-0.8-0.8-1.3-1.9-1.3-3.4c0-0.9,0.2-1.7,0.5-2.4c0.3-0.7,0.8-1.2,1.5-1.6c0.6-0.4,1.4-0.6,2.3-0.6
			c1.3,0,2.3,0.4,2.9,1.3c0.7,0.9,1,1.9,1,3.3V-508.1z M-388.1-509.5h4.1c-0.1-0.7-0.3-1.2-0.7-1.5c-0.3-0.3-0.8-0.5-1.4-0.5
			c-0.6,0-1,0.2-1.4,0.5C-387.8-510.6-388-510.1-388.1-509.5z"/>
		<path class="st18" d="M-378-504.3h-2v-8.7h1.3l0.4,1c0.5-0.4,1.1-0.7,1.7-1c0.6-0.2,1.2-0.4,1.7-0.4c1,0,1.8,0.3,2.2,0.9
			c0.5,0.6,0.7,1.4,0.7,2.5v5.6h-2v-5.5c0-1.2-0.5-1.8-1.3-1.8c-0.7,0-1.6,0.4-2.6,1.2V-504.3z"/>
		<path class="st18" d="M-361.9-513v9.3c0,1.1-0.4,2-1.2,2.6c-0.8,0.6-1.9,1-3.2,1c-0.4,0-1-0.1-1.7-0.3c-0.7-0.2-1.2-0.4-1.6-0.7
			l0.6-1.5c0.5,0.3,1,0.4,1.4,0.6c0.4,0.1,0.8,0.2,1.3,0.2c0.7,0,1.3-0.2,1.8-0.5c0.4-0.3,0.7-0.8,0.7-1.4v-0.9
			c-0.3,0.2-0.6,0.3-1,0.4c-0.3,0.1-0.7,0.2-1,0.2c-0.9,0-1.7-0.2-2.3-0.6c-0.7-0.4-1.2-0.9-1.5-1.6c-0.4-0.7-0.5-1.5-0.5-2.4
			c0-0.9,0.2-1.7,0.5-2.4c0.4-0.7,0.9-1.2,1.5-1.6s1.4-0.6,2.3-0.6c0.4,0,0.8,0.1,1.2,0.3c0.4,0.2,0.8,0.4,1.2,0.7l0.4-0.7H-361.9z
			 M-364.8-506c0.3-0.1,0.6-0.3,0.9-0.5v-4.3c-0.3-0.3-0.6-0.4-0.9-0.5c-0.3-0.1-0.6-0.2-1-0.2c-0.7,0-1.3,0.3-1.7,0.8
			s-0.6,1.2-0.6,2c0,0.9,0.2,1.6,0.6,2.1c0.4,0.5,1,0.8,1.7,0.8C-365.4-505.8-365.1-505.9-364.8-506z"/>
		<path class="st18" d="M-355.2-513l0.6,1.5h-2.2v4.2c0,0.5,0.1,0.8,0.3,1.1c0.2,0.3,0.5,0.4,0.9,0.4c0.3,0,0.6-0.1,0.9-0.2l0.6,1.5
			c-0.2,0.1-0.4,0.2-0.7,0.3c-0.3,0.1-0.6,0.1-0.9,0.1c-1,0-1.7-0.3-2.3-0.8s-0.8-1.2-0.8-2.2v-4.5h-1.2v-1.5h1.2v-2.1l2-0.4v2.5
			H-355.2z"/>
		<path class="st18" d="M-344.2-509.9v5.6h-2v-5.5c0-1.2-0.5-1.8-1.4-1.8c-0.7,0-1.6,0.4-2.5,1.2v6.1h-2v-12.5l2-0.2v4.8
			c0.5-0.3,1-0.6,1.5-0.8c0.5-0.2,1-0.3,1.5-0.3C-345.2-513.3-344.2-512.2-344.2-509.9z"/>
	</g>
	<g>
		<path class="st19" d="M-270.7-507.6l-3.2-4.3v8.1h-2v-12.2h1.3l4.2,5.9l3.9-5.9h1.2v12.2h-2.1v-7.8l-2.7,3.9L-270.7-507.6z"/>
		<path class="st19" d="M-254.3-505.8c-0.4,0.7-0.9,1.2-1.6,1.6c-0.7,0.4-1.5,0.6-2.4,0.6c-0.9,0-1.7-0.2-2.4-0.6
			c-0.7-0.4-1.2-0.9-1.6-1.6c-0.4-0.7-0.5-1.5-0.5-2.4c0-0.9,0.2-1.7,0.5-2.4s0.9-1.2,1.6-1.6c0.7-0.4,1.5-0.6,2.4-0.6
			c0.9,0,1.7,0.2,2.4,0.6c0.7,0.4,1.2,0.9,1.6,1.6c0.4,0.7,0.5,1.5,0.5,2.4C-253.7-507.3-253.9-506.5-254.3-505.8z M-256.5-506.1
			c0.5-0.5,0.7-1.2,0.7-2c0-0.9-0.2-1.5-0.7-2.1c-0.4-0.5-1-0.8-1.8-0.8c-0.7,0-1.3,0.3-1.8,0.8c-0.4,0.5-0.7,1.2-0.7,2.1
			c0,0.9,0.2,1.5,0.7,2.1c0.4,0.5,1,0.8,1.8,0.8C-257.5-505.3-256.9-505.6-256.5-506.1z"/>
		<path class="st19" d="M-247.7-512.5l0.6,1.5h-2.2v4.2c0,0.5,0.1,0.8,0.3,1.1c0.2,0.3,0.5,0.4,0.9,0.4c0.3,0,0.6-0.1,0.9-0.2
			l0.6,1.5c-0.2,0.1-0.4,0.2-0.7,0.3c-0.3,0.1-0.6,0.1-0.9,0.1c-1,0-1.7-0.3-2.3-0.8s-0.8-1.2-0.8-2.2v-4.5h-1.2v-1.5h1.2v-2.1
			l2-0.4v2.5H-247.7z"/>
		<path class="st19" d="M-243.8-513.9c-0.3,0-0.6-0.1-0.8-0.4c-0.2-0.2-0.3-0.5-0.3-0.9c0-0.3,0.1-0.6,0.3-0.8
			c0.2-0.2,0.5-0.4,0.8-0.4c0.3,0,0.6,0.1,0.9,0.4c0.2,0.2,0.4,0.5,0.4,0.8c0,0.3-0.1,0.6-0.4,0.9
			C-243.2-514.1-243.5-513.9-243.8-513.9z M-244.8-503.8v-8.7h2v8.7H-244.8z"/>
		<path class="st19" d="M-232.3-505.8c-0.4,0.7-0.9,1.2-1.6,1.6c-0.7,0.4-1.5,0.6-2.4,0.6c-0.9,0-1.7-0.2-2.4-0.6
			c-0.7-0.4-1.2-0.9-1.6-1.6c-0.4-0.7-0.5-1.5-0.5-2.4c0-0.9,0.2-1.7,0.5-2.4s0.9-1.2,1.6-1.6c0.7-0.4,1.5-0.6,2.4-0.6
			c0.9,0,1.7,0.2,2.4,0.6c0.7,0.4,1.2,0.9,1.6,1.6c0.4,0.7,0.5,1.5,0.5,2.4C-231.8-507.3-232-506.5-232.3-505.8z M-234.5-506.1
			c0.5-0.5,0.7-1.2,0.7-2c0-0.9-0.2-1.5-0.7-2.1c-0.4-0.5-1-0.8-1.8-0.8c-0.7,0-1.3,0.3-1.8,0.8c-0.4,0.5-0.7,1.2-0.7,2.1
			c0,0.9,0.2,1.5,0.7,2.1c0.4,0.5,1,0.8,1.8,0.8C-235.6-505.3-235-505.6-234.5-506.1z"/>
		<path class="st19" d="M-227.8-503.8h-2v-8.7h1.3l0.4,1c0.5-0.4,1.1-0.7,1.7-1c0.6-0.2,1.2-0.4,1.7-0.4c1,0,1.8,0.3,2.2,0.9
			c0.5,0.6,0.7,1.4,0.7,2.5v5.6h-2v-5.5c0-1.2-0.5-1.8-1.3-1.8c-0.7,0-1.6,0.4-2.6,1.2V-503.8z"/>
	</g>
</g>
</svg>
