<?xml version="1.0" encoding="utf-8"?>
<!-- Generator: Adobe Illustrator 22.0.1, SVG Export Plug-In . SVG Version: 6.00 Build 0)  -->
<svg version="1.1" xmlns="http://www.w3.org/2000/svg" xmlns:xlink="http://www.w3.org/1999/xlink" x="0px" y="0px"
	 viewBox="0 0 200 100" style="enable-background:new 0 0 200 100;" xml:space="preserve">
<style type="text/css">
	.st0{fill:none;stroke:#F45E58;stroke-miterlimit:10;}
	.st1{fill:none;stroke:#288FEB;stroke-miterlimit:10;}
	.st2{fill:#F45E58;}
	.st3{fill:#288FEB;}
	.st4{fill:none;stroke:#F0F0F0;stroke-width:3;stroke-miterlimit:10;}
	.st5{fill:#FFFFFF;}
	.st6{fill:#278BD6;}
	.st7{opacity:0.13;fill:#278BD6;enable-background:new    ;}
	.st8{fill:#E05C5C;}
	.st9{fill:#F4615B;}
	.st10{fill:#F0F0F0;}
	.st11{fill:#248CD0;}
	.st12{fill:none;stroke:#248CD0;stroke-miterlimit:10;}
	.st13{fill:none;stroke:#F0F0F0;stroke-linecap:round;stroke-miterlimit:10;}
	.st14{fill:none;stroke:#FFD18F;stroke-miterlimit:10;stroke-dasharray:12.5631,12.5631;}
	.st15{fill:none;stroke:#D3D3D3;stroke-miterlimit:10;}
	.st16{fill:#D3D3D3;}
	.st17{fill:#FFD18F;}
</style>
<g id="Layer_1">
	<path class="st0" d="M-375.7,57.6c-3.8,3.6-15,13.2-16.4,13.2c-1.4,0-12.8-9.7-16.7-13.3c-2.8-2.6-5.4-5.3-6.1-13
		c-0.7-7.3-2.1-27.5-0.2-27.8c11.3-2.4,34.7-1.5,46.1,0.2c1.6,0.2,0.2,20.4-0.5,28C-370,52.5-372.9,55-375.7,57.6z"/>
	<path class="st1" d="M-227,67.4h-48c-1.1,0-2-0.9-2-2V20c0-1.1,0.9-2,2-2h48c1.1,0,2,0.9,2,2v45.4C-225,66.5-225.9,67.4-227,67.4z"
		/>
	<path class="st1" d="M-237.2,57.2h-27.5c-1.1,0-2-0.9-2-1.9V32.1c0-1.1,0.9-1.9,2-1.9h5.6v-1.9c0-0.5,0.5-1,1-1h14.3
		c0.6,0,1,0.4,1,1v1.9h5.6c1.1,0,2,0.9,2,1.9v23.1C-235.2,56.3-236.1,57.2-237.2,57.2z"/>
	<line class="st1" x1="-242.1" y1="48.5" x2="-242.1" y2="57.2"/>
	<line class="st1" x1="-259.9" y1="48.5" x2="-259.9" y2="57.2"/>
	<line class="st1" x1="-248.2" y1="48.5" x2="-248.2" y2="57.2"/>
	<line class="st1" x1="-253.8" y1="48.5" x2="-253.8" y2="57.2"/>
	<g>
		<path class="st2" d="M-415.6,95.4h-4V84.5h4c1.6,0,2.8,0.5,3.7,1.5c0.8,1,1.2,2.3,1.2,3.9c0,1.1-0.2,2.1-0.6,2.9
			c-0.4,0.8-0.9,1.5-1.7,1.9C-413.7,95.2-414.6,95.4-415.6,95.4z M-415.5,86.1h-2.3v7.8h2.2c1,0,1.7-0.3,2.3-1s0.8-1.7,0.8-3
			c0-1.2-0.3-2.2-0.8-2.8C-413.8,86.4-414.5,86.1-415.5,86.1z"/>
		<path class="st2" d="M-402.4,92h-5.4c0.2,1.4,1,2.1,2.5,2.1c0.4,0,0.8-0.1,1.1-0.2c0.3-0.1,0.7-0.3,1.2-0.5l0.5,1.3
			c-0.9,0.6-1.8,0.9-2.9,0.9c-1.4,0-2.5-0.4-3.2-1.1c-0.7-0.7-1.1-1.7-1.1-3c0-0.8,0.2-1.5,0.5-2.1c0.3-0.6,0.7-1.1,1.3-1.4
			c0.6-0.3,1.2-0.5,2-0.5c1.1,0,2,0.4,2.6,1.1c0.6,0.8,0.9,1.7,0.9,2.9V92z M-407.7,90.8h3.6c-0.1-0.6-0.3-1.1-0.6-1.4
			c-0.3-0.3-0.7-0.5-1.2-0.5c-0.5,0-0.9,0.2-1.2,0.5C-407.4,89.8-407.6,90.2-407.7,90.8z"/>
		<path class="st2" d="M-401.7,89.1v-1.4h1.2v-0.8c0-0.8,0.2-1.5,0.7-2c0.5-0.5,1.2-0.7,2-0.7c0.2,0,0.5,0,0.8,0.1
			c0.3,0.1,0.5,0.2,0.6,0.3l-0.5,1.3c-0.3-0.1-0.6-0.2-0.8-0.2c-0.4,0-0.6,0.1-0.8,0.4c-0.2,0.2-0.3,0.6-0.3,1v0.6h1.4l0.6,1.4h-2
			v6.3h-1.8v-6.3H-401.7z"/>
		<path class="st2" d="M-388.6,92h-5.4c0.2,1.4,1,2.1,2.5,2.1c0.4,0,0.8-0.1,1.1-0.2c0.3-0.1,0.7-0.3,1.2-0.5l0.5,1.3
			c-0.9,0.6-1.8,0.9-2.9,0.9c-1.4,0-2.5-0.4-3.2-1.1c-0.7-0.7-1.1-1.7-1.1-3c0-0.8,0.2-1.5,0.5-2.1c0.3-0.6,0.7-1.1,1.3-1.4
			c0.6-0.3,1.2-0.5,2-0.5c1.1,0,2,0.4,2.6,1.1c0.6,0.8,0.9,1.7,0.9,2.9V92z M-394,90.8h3.6c-0.1-0.6-0.3-1.1-0.6-1.4
			c-0.3-0.3-0.7-0.5-1.2-0.5c-0.5,0-0.9,0.2-1.2,0.5C-393.7,89.8-393.9,90.2-394,90.8z"/>
		<path class="st2" d="M-385.5,95.4h-1.8v-7.8h1.2l0.3,0.9c0.4-0.4,0.9-0.7,1.5-0.9s1-0.3,1.5-0.3c0.9,0,1.6,0.3,2,0.8
			c0.4,0.5,0.6,1.3,0.6,2.2v5h-1.8v-4.9c0-1.1-0.4-1.6-1.2-1.6c-0.7,0-1.4,0.4-2.3,1.1V95.4z"/>
		<path class="st2" d="M-372.8,93.5l0.5,1.3c-0.3,0.2-0.8,0.4-1.3,0.6c-0.5,0.1-1,0.2-1.4,0.2c-0.8,0-1.5-0.2-2.1-0.5
			c-0.6-0.3-1.1-0.8-1.4-1.4c-0.3-0.6-0.5-1.3-0.5-2.2c0-0.8,0.2-1.5,0.5-2.1c0.3-0.6,0.8-1.1,1.4-1.4c0.6-0.3,1.3-0.5,2.1-0.5
			c0.4,0,0.8,0.1,1.3,0.2c0.5,0.1,1,0.3,1.3,0.6l-0.5,1.3c-0.4-0.2-0.8-0.3-1.1-0.4c-0.3-0.1-0.7-0.1-1-0.1c-0.6,0-1.2,0.2-1.6,0.7
			c-0.4,0.5-0.6,1.1-0.6,1.8c0,0.8,0.2,1.4,0.6,1.8c0.4,0.5,0.9,0.7,1.6,0.7c0.4,0,0.8,0,1.1-0.1C-373.5,93.8-373.2,93.7-372.8,93.5
			z"/>
		<path class="st2" d="M-364.2,92h-5.4c0.2,1.4,1,2.1,2.5,2.1c0.4,0,0.8-0.1,1.1-0.2c0.3-0.1,0.7-0.3,1.2-0.5l0.5,1.3
			c-0.9,0.6-1.8,0.9-2.9,0.9c-1.4,0-2.5-0.4-3.2-1.1c-0.7-0.7-1.1-1.7-1.1-3c0-0.8,0.2-1.5,0.5-2.1c0.3-0.6,0.7-1.1,1.3-1.4
			c0.6-0.3,1.2-0.5,2-0.5c1.1,0,2,0.4,2.6,1.1c0.6,0.8,0.9,1.7,0.9,2.9V92z M-369.5,90.8h3.6c-0.1-0.6-0.3-1.1-0.6-1.4
			c-0.3-0.3-0.7-0.5-1.2-0.5c-0.5,0-0.9,0.2-1.2,0.5C-369.2,89.8-369.4,90.2-369.5,90.8z"/>
	</g>
	<g>
		<path class="st3" d="M-261.8,93l3.1-8.4h1.8l-4.2,10.9h-1.6l-4.2-10.8l1.8-0.3L-261.8,93z"/>
		<path class="st3" d="M-253.5,95.4h-1.8V84.5h3.2c1.3,0,2.3,0.3,3,0.8c0.8,0.6,1.2,1.4,1.2,2.6c0,0.8-0.2,1.4-0.6,2
			c-0.4,0.5-0.9,0.9-1.6,1.2c-0.7,0.3-1.4,0.4-2.2,0.4h-1.3V95.4z M-252.1,86h-1.4v4h1.4c0.7,0,1.3-0.2,1.7-0.5
			c0.4-0.3,0.6-0.8,0.7-1.5c0-0.7-0.2-1.3-0.6-1.6C-250.8,86.2-251.3,86-252.1,86z"/>
		<path class="st3" d="M-246,95.4V84.5h1.7l5.3,7.7v-7.7h1.8v10.9h-1.7l-5.3-7.7v7.7H-246z"/>
	</g>
	<line class="st4" x1="-320.5" y1="44" x2="-320.5" y2="57"/>
	<line class="st4" x1="-314" y1="50.5" x2="-327" y2="50.5"/>
	<line class="st4" x1="100.5" y1="158" x2="100.5" y2="171"/>
	<line class="st4" x1="107" y1="164.5" x2="94" y2="164.5"/>
	<line class="st4" x1="100.5" y1="44" x2="100.5" y2="57"/>
	<line class="st4" x1="107" y1="50.5" x2="94" y2="50.5"/>
	<g>
		<path class="st5" d="M-408.4,169.4c0,0,54-13.5,88.6-13.5c34.8,0,86.8,12.4,86.8,12.4l-6.6,41.4c0,0-60.1-7.6-80.8-7.6
			c-20.4,0-79.6,7.6-79.6,7.6L-408.4,169.4z"/>
		<path class="st5" d="M-321.1,125L-321.1,125l76.3,31.5c0,0-6.2,76.3-19.1,97.7c-9.5,15.8-57.3,46.6-57.3,46.6"/>
		<path class="st5" d="M-320.3,300.2L-321,125l-0.1,0l-0.1,0l-76.3,31.5c0,0,6.2,76.3,19.1,97.7c8.6,14.4,49.2,41.3,56.2,45.9
			c0.7,0.4,1,0.7,1,0.7L-320.3,300.2z"/>
		<path class="st2" d="M-320.9,131.3L-252,160c0,0-5.6,69.6-17.2,89.1c-8.5,14.4-51.7,42.5-51.7,42.5"/>
		<path class="st2" d="M-320.9,131.3l-68.9,28.7c0,0,5.6,69.6,17.2,89.1c7.5,12.7,51.7,42.6,51.7,42.6l9.4-6.5l-0.2-150.1"/>
		<path d="M-320.2,138.3l61.5,25.7c0,0-5,62.2-15.3,79.7c-7.6,12.9-46.2,38-46.2,38"/>
		<path d="M-320.2,138.3l-61.5,25.7c0,0,5,62.2,15.3,79.7c7.6,12.9,46.2,38,46.2,38"/>
		<path class="st3" d="M-320.3,144l55.7,23.3c0,0-4.5,56.3-13.9,72c-6.9,11.7-41.8,34.4-41.8,34.4s-14.7-10.7-7.3-77.4"/>
		<path class="st6" d="M-320.3,144l-55.7,23.3c0,0,4.5,56.3,13.9,72c6.9,11.7,41.9,34.4,41.9,34.4"/>
		<path class="st5" d="M-310.9,208.6c0,5.2-4.2,9.4-9.4,9.4s-9.4-4.2-9.4-9.4s4.2-9.4,9.4-9.4l0,0
			C-315.1,199.2-310.9,203.4-310.9,208.6L-310.9,208.6z"/>
		<polygon class="st5" points="-329,243.5 -311.7,243.5 -316.8,217.1 -323.8,217.3 		"/>
		<path class="st7" d="M-320.3,144L-320.3,144l-55.7,23.3c0,0,4.5,56.3,13.9,72c6.9,11.7,41.9,34.4,41.9,34.4v-78.8"/>
		<polygon class="st8" points="-247.6,200.6 -257.3,203.7 -256.7,199.8 		"/>
		<polygon class="st8" points="-393.7,201.4 -385.1,200.4 -384.4,203.1 		"/>
		<path class="st2" d="M-401,174.4c0,0,42.5-9.5,80.7-9.5c38.9,0,79.5,8.8,79.5,8.8l-4.4,27.9c0,0-56.7-6.7-75.7-6.7
			c-18.8,0-74.6,6.7-74.6,6.7L-401,174.4z"/>
	</g>
	<g>
		<g>
			<path class="st2" d="M-384.2,350.7c-0.3,0-0.6-0.1-0.8-0.3c-0.2-0.2-0.3-0.5-0.3-0.8v-14.2c0-0.3,0.1-0.6,0.3-0.8
				c0.2-0.2,0.5-0.4,0.8-0.4h4.7c1.8,0,3.3,0.4,4.6,1.2c1.3,0.8,2.2,1.8,2.8,3.1c0.6,1.3,1,2.6,1,4c0,1.4-0.3,2.7-1,4
				c-0.6,1.3-1.6,2.3-2.8,3.1c-1.3,0.8-2.8,1.2-4.6,1.2H-384.2z M-379.8,348.4c1.3,0,2.4-0.3,3.3-0.8c0.9-0.5,1.7-1.2,2.2-2.1
				c0.5-0.9,0.8-2,0.8-3.2c0-1.2-0.3-2.3-0.8-3.2c-0.5-0.9-1.3-1.6-2.2-2.1c-0.9-0.5-2.1-0.8-3.3-0.8h-3.2v12.1H-379.8z"/>
			<path class="st2" d="M-379.5,334.2c1.8,0,3.3,0.4,4.5,1.2c1.2,0.8,2.2,1.8,2.8,3.1c0.6,1.2,0.9,2.6,0.9,3.9
				c0,1.4-0.3,2.7-0.9,3.9c-0.6,1.2-1.6,2.3-2.8,3.1c-1.2,0.8-2.8,1.2-4.5,1.2h-4.7c-0.3,0-0.5-0.1-0.8-0.3
				c-0.2-0.2-0.3-0.5-0.3-0.8v-14.2c0-0.3,0.1-0.6,0.3-0.8c0.2-0.2,0.5-0.3,0.8-0.3H-379.5 M-383.2,348.6h3.4c1.3,0,2.4-0.3,3.4-0.8
				c1-0.5,1.7-1.2,2.2-2.2c0.5-0.9,0.8-2,0.8-3.2c0-1.2-0.3-2.3-0.8-3.2c-0.5-0.9-1.3-1.7-2.2-2.2c-1-0.5-2.1-0.8-3.4-0.8h-3.4
				V348.6 M-379.5,334h-4.7c-0.4,0-0.7,0.1-0.9,0.4c-0.2,0.3-0.4,0.6-0.4,0.9v14.2c0,0.4,0.1,0.7,0.4,0.9c0.2,0.3,0.6,0.4,0.9,0.4
				h4.7c1.8,0,3.4-0.4,4.7-1.2c1.3-0.8,2.2-1.9,2.9-3.2c0.6-1.3,1-2.6,1-4c0-1.4-0.3-2.8-1-4c-0.6-1.3-1.6-2.3-2.9-3.2
				C-376.1,334.4-377.7,334-379.5,334L-379.5,334z M-382.9,336.4h3.1c1.2,0,2.3,0.3,3.3,0.8c0.9,0.5,1.6,1.2,2.2,2.1
				c0.5,0.9,0.8,1.9,0.8,3.1c0,1.2-0.3,2.2-0.8,3.1c-0.5,0.9-1.2,1.6-2.2,2.1c-0.9,0.5-2,0.8-3.3,0.8h-3.1V336.4L-382.9,336.4z"/>
		</g>
		<g>
			<path class="st2" d="M-366.1,350.7c-0.3,0-0.6-0.1-0.8-0.3c-0.2-0.2-0.3-0.5-0.3-0.8v-14.2c0-0.3,0.1-0.6,0.3-0.8
				c0.2-0.2,0.5-0.4,0.8-0.4h9.4c0.3,0,0.6,0.1,0.8,0.3c0.2,0.2,0.3,0.5,0.3,0.8c0,0.3-0.1,0.6-0.3,0.8c-0.2,0.2-0.5,0.3-0.8,0.3
				h-8.2v4.9h7.3c0.3,0,0.6,0.1,0.8,0.3c0.2,0.2,0.3,0.5,0.3,0.8c0,0.3-0.1,0.6-0.3,0.8c-0.2,0.2-0.5,0.3-0.8,0.3h-7.3v5h8.2
				c0.3,0,0.6,0.1,0.8,0.3c0.2,0.2,0.3,0.5,0.3,0.8c0,0.3-0.1,0.6-0.3,0.8c-0.2,0.2-0.5,0.3-0.8,0.3H-366.1z"/>
			<path class="st2" d="M-356.7,334.2c0.3,0,0.5,0.1,0.7,0.3c0.2,0.2,0.3,0.4,0.3,0.7c0,0.3-0.1,0.5-0.3,0.7
				c-0.2,0.2-0.4,0.3-0.7,0.3h-8.3v5.2h7.5c0.3,0,0.5,0.1,0.7,0.3c0.2,0.2,0.3,0.4,0.3,0.7c0,0.3-0.1,0.5-0.3,0.7
				c-0.2,0.2-0.4,0.3-0.7,0.3h-7.5v5.2h8.3c0.3,0,0.5,0.1,0.7,0.3c0.2,0.2,0.3,0.4,0.3,0.7c0,0.3-0.1,0.5-0.3,0.7
				c-0.2,0.2-0.4,0.3-0.7,0.3h-9.4c-0.3,0-0.5-0.1-0.8-0.3c-0.2-0.2-0.3-0.5-0.3-0.8v-14.2c0-0.3,0.1-0.6,0.3-0.8
				c0.2-0.2,0.5-0.3,0.8-0.3H-356.7 M-356.7,334h-9.4c-0.4,0-0.7,0.1-0.9,0.4c-0.2,0.3-0.4,0.6-0.4,0.9v14.2c0,0.4,0.1,0.7,0.4,0.9
				c0.2,0.3,0.6,0.4,0.9,0.4h9.4c0.3,0,0.6-0.1,0.9-0.3c0.2-0.2,0.4-0.5,0.4-0.9c0-0.3-0.1-0.6-0.4-0.9c-0.2-0.2-0.5-0.4-0.9-0.4
				h-8.1v-4.7h7.2c0.3,0,0.6-0.1,0.9-0.3c0.2-0.2,0.4-0.5,0.4-0.9c0-0.3-0.1-0.6-0.4-0.9c-0.2-0.2-0.5-0.4-0.9-0.4h-7.2v-4.7h8.1
				c0.3,0,0.6-0.1,0.9-0.4c0.2-0.2,0.4-0.5,0.4-0.9c0-0.3-0.1-0.6-0.4-0.9C-356,334.1-356.3,334-356.7,334L-356.7,334z"/>
		</g>
		<g>
			<path class="st2" d="M-350.5,350.8c-0.3,0-0.6-0.1-0.8-0.3c-0.2-0.2-0.3-0.5-0.3-0.8v-14.3c0-0.3,0.1-0.6,0.3-0.8
				c0.2-0.2,0.5-0.4,0.8-0.4h9.1c0.3,0,0.6,0.1,0.8,0.3c0.2,0.2,0.3,0.5,0.3,0.8c0,0.3-0.1,0.6-0.3,0.8c-0.2,0.2-0.5,0.3-0.8,0.3
				h-7.9v4.9h7.1c0.3,0,0.6,0.1,0.8,0.3c0.2,0.2,0.3,0.5,0.3,0.8c0,0.3-0.1,0.6-0.3,0.8c-0.2,0.2-0.5,0.3-0.8,0.3h-7.1v6.1
				c0,0.3-0.1,0.6-0.4,0.8C-349.9,350.7-350.2,350.8-350.5,350.8z"/>
			<path class="st2" d="M-341.4,334.2c0.3,0,0.5,0.1,0.7,0.3c0.2,0.2,0.3,0.4,0.3,0.7c0,0.3-0.1,0.5-0.3,0.7
				c-0.2,0.2-0.4,0.3-0.7,0.3h-8v5.2h7.2c0.3,0,0.5,0.1,0.7,0.3c0.2,0.2,0.3,0.4,0.3,0.7c0,0.3-0.1,0.5-0.3,0.7
				c-0.2,0.2-0.4,0.3-0.7,0.3h-7.2v6.3c0,0.3-0.1,0.5-0.3,0.7c-0.2,0.2-0.5,0.3-0.8,0.3c-0.3,0-0.5-0.1-0.8-0.3
				c-0.2-0.2-0.3-0.5-0.3-0.7v-14.3c0-0.3,0.1-0.6,0.3-0.8c0.2-0.2,0.5-0.3,0.8-0.3H-341.4 M-341.4,334h-9.1c-0.4,0-0.7,0.1-0.9,0.4
				c-0.2,0.3-0.4,0.6-0.4,0.9v14.3c0,0.4,0.1,0.7,0.4,0.9c0.2,0.3,0.6,0.4,0.9,0.4c0.4,0,0.7-0.1,0.9-0.4c0.3-0.2,0.4-0.6,0.4-0.9
				v-6h7c0.3,0,0.6-0.1,0.9-0.3c0.2-0.2,0.4-0.5,0.4-0.9c0-0.3-0.1-0.6-0.4-0.9c-0.2-0.2-0.5-0.4-0.9-0.4h-7v-4.7h7.8
				c0.3,0,0.6-0.1,0.9-0.4c0.2-0.2,0.4-0.5,0.4-0.9c0-0.3-0.1-0.6-0.4-0.9C-340.8,334.1-341.1,334-341.4,334L-341.4,334z"/>
		</g>
		<g>
			<path class="st2" d="M-335.7,350.7c-0.3,0-0.6-0.1-0.8-0.3c-0.2-0.2-0.3-0.5-0.3-0.8v-14.2c0-0.3,0.1-0.6,0.3-0.8
				c0.2-0.2,0.5-0.4,0.8-0.4h9.4c0.3,0,0.6,0.1,0.8,0.3c0.2,0.2,0.3,0.5,0.3,0.8c0,0.3-0.1,0.6-0.3,0.8c-0.2,0.2-0.5,0.3-0.8,0.3
				h-8.2v4.9h7.3c0.3,0,0.6,0.1,0.8,0.3c0.2,0.2,0.3,0.5,0.3,0.8c0,0.3-0.1,0.6-0.3,0.8c-0.2,0.2-0.5,0.3-0.8,0.3h-7.3v5h8.2
				c0.3,0,0.6,0.1,0.8,0.3c0.2,0.2,0.3,0.5,0.3,0.8c0,0.3-0.1,0.6-0.3,0.8c-0.2,0.2-0.5,0.3-0.8,0.3H-335.7z"/>
			<path class="st2" d="M-326.3,334.2c0.3,0,0.5,0.1,0.7,0.3c0.2,0.2,0.3,0.4,0.3,0.7c0,0.3-0.1,0.5-0.3,0.7
				c-0.2,0.2-0.4,0.3-0.7,0.3h-8.3v5.2h7.5c0.3,0,0.5,0.1,0.7,0.3c0.2,0.2,0.3,0.4,0.3,0.7c0,0.3-0.1,0.5-0.3,0.7
				c-0.2,0.2-0.4,0.3-0.7,0.3h-7.5v5.2h8.3c0.3,0,0.5,0.1,0.7,0.3c0.2,0.2,0.3,0.4,0.3,0.7c0,0.3-0.1,0.5-0.3,0.7
				c-0.2,0.2-0.4,0.3-0.7,0.3h-9.4c-0.3,0-0.5-0.1-0.8-0.3c-0.2-0.2-0.3-0.5-0.3-0.8v-14.2c0-0.3,0.1-0.6,0.3-0.8
				c0.2-0.2,0.5-0.3,0.8-0.3H-326.3 M-326.3,334h-9.4c-0.4,0-0.7,0.1-0.9,0.4c-0.2,0.3-0.4,0.6-0.4,0.9v14.2c0,0.4,0.1,0.7,0.4,0.9
				c0.2,0.3,0.6,0.4,0.9,0.4h9.4c0.3,0,0.6-0.1,0.9-0.3c0.2-0.2,0.4-0.5,0.4-0.9c0-0.3-0.1-0.6-0.4-0.9c-0.2-0.2-0.5-0.4-0.9-0.4
				h-8.1v-4.7h7.2c0.3,0,0.6-0.1,0.9-0.3c0.2-0.2,0.4-0.5,0.4-0.9c0-0.3-0.1-0.6-0.4-0.9c-0.2-0.2-0.5-0.4-0.9-0.4h-7.2v-4.7h8.1
				c0.3,0,0.6-0.1,0.9-0.4c0.2-0.2,0.4-0.5,0.4-0.9c0-0.3-0.1-0.6-0.4-0.9C-325.7,334.1-326,334-326.3,334L-326.3,334z"/>
		</g>
		<g>
			<path class="st2" d="M-308.8,350.8c-0.3,0-0.5-0.1-0.8-0.2c-0.2-0.1-0.4-0.3-0.6-0.5l-8.8-12.8v12.3c0,0.3-0.1,0.6-0.4,0.8
				c-0.2,0.2-0.5,0.3-0.8,0.3c-0.3,0-0.6-0.1-0.8-0.3c-0.2-0.2-0.3-0.5-0.3-0.8v-14c0-0.5,0.2-0.8,0.5-1.2c0.3-0.3,0.7-0.5,1.2-0.5
				h0.3c0.5,0,1,0.3,1.4,0.8l8.8,12.7v-12.3c0-0.3,0.1-0.6,0.3-0.8c0.2-0.2,0.5-0.4,0.8-0.4c0.3,0,0.6,0.1,0.9,0.4
				c0.2,0.2,0.4,0.5,0.4,0.8v14c0,0.5-0.2,0.8-0.5,1.2c-0.3,0.3-0.7,0.5-1.2,0.5H-308.8z"/>
			<path class="st2" d="M-308,334.1c0.3,0,0.6,0.1,0.8,0.3c0.2,0.2,0.3,0.5,0.3,0.8v14c0,0.4-0.2,0.8-0.5,1.1
				c-0.3,0.3-0.7,0.4-1.1,0.4h-0.3c-0.3,0-0.5-0.1-0.7-0.2c-0.2-0.1-0.4-0.3-0.5-0.5l-9.1-13.1v12.7c0,0.3-0.1,0.5-0.3,0.7
				c-0.2,0.2-0.5,0.3-0.8,0.3c-0.3,0-0.5-0.1-0.8-0.3c-0.2-0.2-0.3-0.5-0.3-0.7v-14c0-0.4,0.1-0.8,0.4-1.1c0.3-0.3,0.7-0.5,1.1-0.5
				h0.3c0.5,0,0.9,0.2,1.3,0.7l9,13v-12.7c0-0.3,0.1-0.6,0.3-0.8C-308.6,334.2-308.3,334.1-308,334.1 M-308,333.8
				c-0.4,0-0.7,0.1-0.9,0.4c-0.2,0.3-0.4,0.6-0.4,0.9V347l-8.6-12.4c-0.4-0.5-0.9-0.8-1.5-0.8h-0.3c-0.5,0-0.9,0.2-1.3,0.5
				c-0.3,0.4-0.5,0.8-0.5,1.3v14c0,0.4,0.1,0.7,0.4,0.9c0.2,0.3,0.6,0.4,0.9,0.4c0.4,0,0.7-0.1,0.9-0.4c0.3-0.2,0.4-0.6,0.4-0.9
				v-11.9l8.6,12.4c0.2,0.2,0.4,0.4,0.6,0.5c0.3,0.1,0.5,0.2,0.8,0.2h0.3c0.5,0,0.9-0.2,1.3-0.5c0.4-0.3,0.5-0.8,0.5-1.3v-14
				c0-0.4-0.1-0.7-0.4-0.9C-307.4,334-307.7,333.8-308,333.8L-308,333.8z"/>
		</g>
		<g>
			<path class="st2" d="M-294.6,350.9c-1.6,0-3-0.3-4.3-1c-1.3-0.7-2.3-1.7-3-3c-0.7-1.3-1.1-2.8-1.1-4.5s0.4-3.2,1.1-4.5
				c0.7-1.3,1.7-2.3,3-3c1.3-0.7,2.7-1,4.3-1c1.1,0,2,0.1,2.9,0.4c0.8,0.3,1.7,0.6,2.5,1.1c0.4,0.2,0.6,0.5,0.6,1
				c0,0.3-0.1,0.5-0.3,0.7c-0.2,0.2-0.5,0.3-0.8,0.3c-0.2,0-0.3,0-0.5-0.1c-0.7-0.4-1.4-0.6-2-0.8c-0.6-0.2-1.4-0.3-2.2-0.3
				c-1.3,0-2.4,0.3-3.4,0.8c-0.9,0.5-1.6,1.3-2.1,2.2c-0.5,0.9-0.7,2-0.7,3.2c0,1.2,0.2,2.3,0.7,3.2c0.5,0.9,1.2,1.7,2.1,2.2
				c0.9,0.5,2.1,0.8,3.4,0.8c0.8,0,1.6-0.1,2.2-0.3c0.6-0.2,1.3-0.5,2-0.8c0.1-0.1,0.3-0.1,0.5-0.1c0.3,0,0.6,0.1,0.8,0.3
				c0.2,0.2,0.3,0.4,0.3,0.7c0,0.5-0.2,0.8-0.6,1c-0.8,0.5-1.7,0.8-2.5,1.1C-292.6,350.8-293.5,350.9-294.6,350.9z"/>
			<path class="st2" d="M-294.6,334c1.1,0,2,0.1,2.8,0.4c0.8,0.3,1.7,0.6,2.5,1.1c0.3,0.2,0.5,0.5,0.5,0.9c0,0.2-0.1,0.4-0.3,0.6
				c-0.2,0.2-0.4,0.3-0.7,0.3c-0.2,0-0.3,0-0.4-0.1c-0.7-0.4-1.4-0.6-2-0.8c-0.7-0.2-1.4-0.3-2.3-0.3c-1.3,0-2.5,0.3-3.4,0.8
				c-0.9,0.6-1.7,1.3-2.1,2.3c-0.5,1-0.7,2-0.7,3.3c0,1.2,0.2,2.3,0.7,3.3c0.5,1,1.2,1.7,2.1,2.3c0.9,0.6,2.1,0.8,3.4,0.8
				c0.9,0,1.6-0.1,2.3-0.3c0.7-0.2,1.3-0.5,2-0.8c0.1-0.1,0.3-0.1,0.4-0.1c0.3,0,0.5,0.1,0.7,0.3c0.2,0.2,0.3,0.4,0.3,0.6
				c0,0.4-0.2,0.7-0.5,0.9c-0.8,0.5-1.7,0.8-2.5,1.1c-0.8,0.3-1.8,0.4-2.8,0.4c-1.6,0-3-0.3-4.2-1c-1.2-0.7-2.2-1.7-2.9-2.9
				c-0.7-1.3-1.1-2.8-1.1-4.5c0-1.7,0.4-3.2,1.1-4.5c0.7-1.3,1.7-2.2,2.9-2.9C-297.6,334.3-296.2,334-294.6,334 M-294.6,333.7
				c-1.6,0-3.1,0.4-4.3,1c-1.3,0.7-2.3,1.7-3,3c-0.7,1.3-1.1,2.8-1.1,4.6c0,1.7,0.4,3.3,1.1,4.6c0.7,1.3,1.7,2.3,3,3
				c1.3,0.7,2.7,1.1,4.3,1.1c1.1,0,2.1-0.1,2.9-0.4c0.8-0.3,1.7-0.6,2.5-1.1c0.4-0.2,0.6-0.6,0.6-1.1c0-0.3-0.1-0.6-0.3-0.8
				c-0.2-0.2-0.5-0.3-0.9-0.3c-0.2,0-0.4,0-0.5,0.1c-0.7,0.4-1.3,0.6-2,0.8c-0.6,0.2-1.4,0.3-2.2,0.3c-1.3,0-2.4-0.3-3.3-0.8
				c-0.9-0.5-1.6-1.3-2-2.2c-0.5-0.9-0.7-2-0.7-3.2c0-1.2,0.2-2.2,0.7-3.2c0.5-0.9,1.1-1.6,2-2.2c0.9-0.5,2-0.8,3.3-0.8
				c0.8,0,1.6,0.1,2.2,0.3c0.6,0.2,1.3,0.5,2,0.8c0.2,0.1,0.3,0.1,0.5,0.1c0.4,0,0.6-0.1,0.9-0.3c0.2-0.2,0.3-0.5,0.3-0.8
				c0-0.5-0.2-0.9-0.6-1.1c-0.8-0.5-1.7-0.8-2.5-1.1C-292.6,333.8-293.5,333.7-294.6,333.7L-294.6,333.7z"/>
		</g>
		<g>
			<path class="st2" d="M-283.9,350.7c-0.3,0-0.6-0.1-0.8-0.3c-0.2-0.2-0.3-0.5-0.3-0.8v-14.2c0-0.3,0.1-0.6,0.3-0.8
				c0.2-0.2,0.5-0.4,0.8-0.4h9.4c0.3,0,0.6,0.1,0.8,0.3c0.2,0.2,0.3,0.5,0.3,0.8c0,0.3-0.1,0.6-0.3,0.8c-0.2,0.2-0.5,0.3-0.8,0.3
				h-8.2v4.9h7.3c0.3,0,0.6,0.1,0.8,0.3c0.2,0.2,0.3,0.5,0.3,0.8c0,0.3-0.1,0.6-0.3,0.8c-0.2,0.2-0.5,0.3-0.8,0.3h-7.3v5h8.2
				c0.3,0,0.6,0.1,0.8,0.3c0.2,0.2,0.3,0.5,0.3,0.8c0,0.3-0.1,0.6-0.3,0.8c-0.2,0.2-0.5,0.3-0.8,0.3H-283.9z"/>
			<path class="st2" d="M-274.5,334.2c0.3,0,0.5,0.1,0.7,0.3c0.2,0.2,0.3,0.4,0.3,0.7c0,0.3-0.1,0.5-0.3,0.7
				c-0.2,0.2-0.4,0.3-0.7,0.3h-8.3v5.2h7.5c0.3,0,0.5,0.1,0.7,0.3c0.2,0.2,0.3,0.4,0.3,0.7c0,0.3-0.1,0.5-0.3,0.7
				c-0.2,0.2-0.4,0.3-0.7,0.3h-7.5v5.2h8.3c0.3,0,0.5,0.1,0.7,0.3c0.2,0.2,0.3,0.4,0.3,0.7c0,0.3-0.1,0.5-0.3,0.7
				c-0.2,0.2-0.4,0.3-0.7,0.3h-9.4c-0.3,0-0.5-0.1-0.8-0.3c-0.2-0.2-0.3-0.5-0.3-0.8v-14.2c0-0.3,0.1-0.6,0.3-0.8
				c0.2-0.2,0.5-0.3,0.8-0.3H-274.5 M-274.5,334h-9.4c-0.4,0-0.7,0.1-0.9,0.4c-0.2,0.3-0.4,0.6-0.4,0.9v14.2c0,0.4,0.1,0.7,0.4,0.9
				c0.2,0.3,0.6,0.4,0.9,0.4h9.4c0.3,0,0.6-0.1,0.9-0.3c0.2-0.2,0.4-0.5,0.4-0.9c0-0.3-0.1-0.6-0.4-0.9c-0.2-0.2-0.5-0.4-0.9-0.4
				h-8.1v-4.7h7.2c0.3,0,0.6-0.1,0.9-0.3c0.2-0.2,0.4-0.5,0.4-0.9c0-0.3-0.1-0.6-0.4-0.9c-0.2-0.2-0.5-0.4-0.9-0.4h-7.2v-4.7h8.1
				c0.3,0,0.6-0.1,0.9-0.4c0.2-0.2,0.4-0.5,0.4-0.9c0-0.3-0.1-0.6-0.4-0.9C-273.9,334.1-274.2,334-274.5,334L-274.5,334z"/>
		</g>
		<g>
			<path class="st3" d="M-263.8,350.8c-0.7,0-1.2-0.4-1.6-1.2l-5.8-14c-0.1-0.1-0.1-0.3-0.1-0.4c0-0.4,0.1-0.7,0.3-0.9
				c0.2-0.2,0.5-0.3,0.9-0.3c0.2,0,0.5,0.1,0.7,0.2c0.2,0.1,0.3,0.3,0.5,0.6l5.4,13.4l5.4-13.4c0.1-0.2,0.3-0.4,0.5-0.6
				c0.2-0.1,0.4-0.2,0.7-0.2c0.4,0,0.7,0.1,0.9,0.3c0.2,0.2,0.3,0.5,0.3,0.9c0,0.2,0,0.3-0.1,0.4l-5.8,14c-0.4,0.8-0.9,1.2-1.6,1.2
				H-263.8z"/>
			<path class="st3" d="M-257.1,334.1c0.3,0,0.6,0.1,0.8,0.3c0.2,0.2,0.3,0.5,0.3,0.8c0,0.1,0,0.3-0.1,0.4l-5.8,14
				c-0.3,0.7-0.8,1.1-1.5,1.1h-0.5c-0.6,0-1.1-0.4-1.5-1.1l-5.8-14c0-0.1-0.1-0.3-0.1-0.4c0-0.3,0.1-0.6,0.3-0.8
				c0.2-0.2,0.4-0.3,0.8-0.3c0.2,0,0.4,0.1,0.6,0.2c0.2,0.1,0.3,0.3,0.4,0.5l5.5,13.7l5.5-13.7c0.1-0.2,0.2-0.4,0.4-0.5
				C-257.5,334.2-257.3,334.1-257.1,334.1 M-257.1,333.8c-0.3,0-0.5,0.1-0.7,0.2c-0.2,0.2-0.4,0.4-0.5,0.6l-5.3,13.2l-5.3-13.1
				c-0.1-0.3-0.3-0.5-0.5-0.6c-0.2-0.2-0.5-0.2-0.7-0.2c-0.4,0-0.7,0.1-1,0.4c-0.2,0.2-0.4,0.6-0.4,1c0,0.2,0,0.3,0.1,0.5l5.8,14
				c0.4,0.8,0.9,1.2,1.7,1.2h0.5c0.7,0,1.3-0.4,1.7-1.2l5.8-14c0.1-0.2,0.1-0.3,0.1-0.5c0-0.4-0.1-0.7-0.4-1
				C-256.3,334-256.7,333.8-257.1,333.8L-257.1,333.8z"/>
		</g>
		<g>
			<path class="st3" d="M-251.5,350.8c-0.3,0-0.6-0.1-0.8-0.3c-0.2-0.2-0.3-0.5-0.3-0.8v-14.3c0-0.3,0.1-0.6,0.3-0.8
				c0.2-0.2,0.5-0.4,0.8-0.4h5.3c1.5,0,2.7,0.3,3.7,0.8c1,0.5,1.7,1.2,2.1,2c0.4,0.8,0.6,1.7,0.6,2.6s-0.2,1.8-0.6,2.6
				c-0.4,0.8-1.1,1.5-2.1,2c-0.9,0.5-2.2,0.8-3.7,0.8h-4.1v4.9c0,0.3-0.1,0.6-0.4,0.8C-250.9,350.7-251.2,350.8-251.5,350.8z
				 M-246.4,342.5c1.6,0,2.7-0.3,3.3-0.9c0.6-0.6,0.9-1.3,0.9-2.2c0-0.9-0.3-1.6-0.9-2.2c-0.6-0.6-1.7-0.9-3.3-0.9h-3.9v6.1H-246.4z
				"/>
			<path class="st3" d="M-246.2,334.2c1.5,0,2.7,0.2,3.6,0.7c0.9,0.5,1.6,1.1,2,1.9c0.4,0.8,0.6,1.6,0.6,2.5s-0.2,1.7-0.6,2.5
				c-0.4,0.8-1.1,1.4-2,1.9c-0.9,0.5-2.1,0.7-3.6,0.7h-4.3v5c0,0.3-0.1,0.5-0.3,0.7c-0.2,0.2-0.5,0.3-0.8,0.3
				c-0.3,0-0.5-0.1-0.8-0.3c-0.2-0.2-0.3-0.5-0.3-0.7v-14.3c0-0.3,0.1-0.6,0.3-0.8c0.2-0.2,0.5-0.3,0.8-0.3H-246.2 M-250.5,342.6
				h4.1c1.6,0,2.7-0.3,3.4-0.9c0.6-0.6,1-1.4,1-2.3s-0.3-1.7-1-2.3c-0.6-0.6-1.8-0.9-3.4-0.9h-4.1V342.6 M-246.2,334h-5.3
				c-0.4,0-0.7,0.1-0.9,0.4c-0.2,0.3-0.4,0.6-0.4,0.9v14.3c0,0.4,0.1,0.7,0.4,0.9c0.2,0.3,0.6,0.4,0.9,0.4c0.4,0,0.7-0.1,0.9-0.4
				c0.3-0.2,0.4-0.6,0.4-0.9v-4.8h4c1.5,0,2.8-0.3,3.7-0.8c1-0.5,1.7-1.2,2.1-2c0.4-0.8,0.6-1.7,0.6-2.6c0-0.9-0.2-1.8-0.6-2.6
				c-0.4-0.8-1.1-1.5-2.1-2C-243.4,334.2-244.7,334-246.2,334L-246.2,334z M-250.2,336.5h3.8c1.5,0,2.6,0.3,3.2,0.8
				c0.6,0.6,0.9,1.2,0.9,2.1c0,0.8-0.3,1.5-0.9,2.1c-0.6,0.6-1.7,0.8-3.2,0.8h-3.8V336.5L-250.2,336.5z"/>
		</g>
		<g>
			<path class="st3" d="M-223.8,350.8c-0.3,0-0.5-0.1-0.8-0.2c-0.2-0.1-0.4-0.3-0.6-0.5l-8.8-12.8v12.3c0,0.3-0.1,0.6-0.4,0.8
				c-0.2,0.2-0.5,0.3-0.8,0.3c-0.3,0-0.6-0.1-0.8-0.3c-0.2-0.2-0.3-0.5-0.3-0.8v-14c0-0.5,0.2-0.8,0.5-1.2c0.3-0.3,0.7-0.5,1.2-0.5
				h0.3c0.5,0,1,0.3,1.4,0.8l8.8,12.7v-12.3c0-0.3,0.1-0.6,0.3-0.8c0.2-0.2,0.5-0.4,0.8-0.4c0.3,0,0.6,0.1,0.9,0.4
				c0.2,0.2,0.4,0.5,0.4,0.8v14c0,0.5-0.2,0.8-0.5,1.2c-0.3,0.3-0.7,0.5-1.2,0.5H-223.8z"/>
			<path class="st3" d="M-223.1,334.1c0.3,0,0.6,0.1,0.8,0.3c0.2,0.2,0.3,0.5,0.3,0.8v14c0,0.4-0.2,0.8-0.5,1.1
				c-0.3,0.3-0.7,0.4-1.1,0.4h-0.3c-0.3,0-0.5-0.1-0.7-0.2c-0.2-0.1-0.4-0.3-0.5-0.5l-9.1-13.1v12.7c0,0.3-0.1,0.5-0.3,0.7
				c-0.2,0.2-0.5,0.3-0.8,0.3c-0.3,0-0.5-0.1-0.8-0.3c-0.2-0.2-0.3-0.5-0.3-0.7v-14c0-0.4,0.1-0.8,0.4-1.1c0.3-0.3,0.7-0.5,1.1-0.5
				h0.3c0.5,0,0.9,0.2,1.3,0.7l9,13v-12.7c0-0.3,0.1-0.6,0.3-0.8C-223.6,334.2-223.4,334.1-223.1,334.1 M-223.1,333.8
				c-0.4,0-0.7,0.1-0.9,0.4c-0.2,0.3-0.4,0.6-0.4,0.9V347l-8.6-12.4c-0.4-0.5-0.9-0.8-1.5-0.8h-0.3c-0.5,0-0.9,0.2-1.3,0.5
				c-0.3,0.4-0.5,0.8-0.5,1.3v14c0,0.4,0.1,0.7,0.4,0.9c0.2,0.3,0.6,0.4,0.9,0.4c0.4,0,0.7-0.1,0.9-0.4c0.3-0.2,0.4-0.6,0.4-0.9
				v-11.9l8.6,12.4c0.2,0.2,0.4,0.4,0.6,0.5c0.3,0.1,0.5,0.2,0.8,0.2h0.3c0.5,0,0.9-0.2,1.3-0.5c0.4-0.3,0.5-0.8,0.5-1.3v-14
				c0-0.4-0.1-0.7-0.4-0.9C-222.4,334-222.7,333.8-223.1,333.8L-223.1,333.8z"/>
		</g>
	</g>
	<g>
		<path class="st9" d="M-419.4,344.2c0,0,2.2-3.1,5.2-4.5c0,0,0.7,3.2,2,6c1.2,2.6,2.8,4.6,3.5,5c0,0,0,0.1,0,0.1
			c-2,2.1-6.6,2.6-6.5,2.5c2.1-1,3.7-2.4,3.7-2.4c-4.2-5.2-4.3-8.8-4.3-8.8C-418.1,342.8-419.4,344.2-419.4,344.2z"/>
		<path class="st9" d="M-411.2,339.1c0,0-0.1,1.5,1.5,5.6c1.1,2.8,3.2,4.2,3.3,4.1c2.1-1.8,3.4-4.2,2.9-6.6
			C-404.6,337-409.4,337.9-411.2,339.1z"/>
		<path class="st9" d="M-407.7,353.4l1.4,0.8l-3.6,2.2c0,0,3.2-1.2,4.9-2.1c8.8-4.5,10.4-14.3,10-19c0,0,0-0.3,0-0.3s0,0-0.1,0
			c-3.3,0.2-9-1.8-10.4-4.4c0,0-0.2-0.1-0.2-0.1s-1.2,1.6-3.5,2.9c-2,1.1-5.4,0.3-5.4,0.3l2.5,0.9l-4.2,0.5l-0.1,2.1
			c-1.9,1.8-3,3.8-3,3.8s0,0,0.1-0.1c4.1-3.8,7.9-5.4,8.6-5.7c0.7-0.2,2.9-1.1,5.5-0.7c2.3,0.3,3.4,2,4.1,2.8
			c1.3,1.6,3.5,9.2-2.1,13.5C-406.4,353.1-407.7,353.4-407.7,353.4z"/>
	</g>
	<g>
		<path class="st10" d="M-191.4,60.9l-4.9-2.8V33.9l4.9-2.8h12.3l4.9,2.8v24.2l-4.9,2.8l4.7,8.2h-4.7l-4.6-8.2H-191.4z M-192.1,57.1
			h13.7V34.8h-13.7V57.1z"/>
		<path class="st10" d="M-166,39.7h4.1v17.6h9.7V39.7h4.1v21.2h-3.1l-1-1.7l-3,1.7h-5.9l-4.9-2.8V39.7z"/>
		<path class="st10" d="M-141.2,58.1v-6.8l4.9-2.8h7.6v-5.1h-10.4v-3.7h9.6l4.9,2.8v18.4h-1.1l-3-1.7l-3,1.7h-4.7L-141.2,58.1z
			 M-137.2,57.2h8.4V52h-8.4V57.2z"/>
		<path class="st10" d="M-99,60.7h-4.1V43.1h-9.7v17.6h-4.1V39.4h3.1l1,1.7l3-1.7h5.9l4.9,2.8V60.7z"/>
		<path class="st10" d="M-92.9,39.7h3.9v-3.5l4.1-2.4v5.9h5v3.7h-5V57h5v3.7h-4.2l-4.9-2.8V43.3h-3.9V39.7z"/>
		<path class="st10" d="M-73.2,30h4.5v4.5h-4.5V30z M-69,60.7H-73v-21h4.1V60.7z"/>
		<path class="st10" d="M-57.1,57h11.7v3.7h-10.9l-4.9-2.8V42.5l4.9-2.8h10.9v3.7h-11.7V57z"/>
		<path class="st10" d="M-25.5,60.9h-8.1l-4.9-2.8V42.3l4.9-2.8h8.1l4.9,2.8v15.8L-25.5,60.9z M-34.4,57.2h9.7V43.1h-9.7V57.2z"/>
	</g>
	<g>
		<path class="st10" d="M-143.5,171.5h13v3.4h-17.1v-30.1h4.1V171.5z"/>
		<path class="st10" d="M-109.9,175h-1.7c-0.4,0-0.7-0.1-0.9-0.2c-0.2-0.1-0.4-0.3-0.4-0.7l-0.4-2c-0.6,0.5-1.1,1-1.6,1.4
			c-0.5,0.4-1.1,0.7-1.7,1s-1.2,0.5-1.9,0.6c-0.7,0.1-1.4,0.2-2.2,0.2c-0.8,0-1.6-0.1-2.3-0.3c-0.7-0.2-1.3-0.6-1.9-1
			c-0.5-0.5-1-1.1-1.3-1.8c-0.3-0.7-0.5-1.5-0.5-2.5c0-0.8,0.2-1.7,0.7-2.4s1.2-1.5,2.2-2.1s2.4-1.1,4-1.5c1.7-0.4,3.7-0.6,6.1-0.6
			v-1.7c0-1.7-0.4-2.9-1.1-3.8s-1.8-1.3-3.1-1.3c-0.9,0-1.7,0.1-2.3,0.3c-0.6,0.2-1.2,0.5-1.6,0.8c-0.5,0.3-0.8,0.5-1.2,0.8
			s-0.7,0.3-1,0.3c-0.3,0-0.5-0.1-0.7-0.2c-0.2-0.1-0.3-0.3-0.5-0.5l-0.7-1.2c1.2-1.1,2.4-2,3.8-2.5c1.4-0.6,2.9-0.8,4.5-0.8
			c1.2,0,2.2,0.2,3.2,0.6c0.9,0.4,1.7,0.9,2.3,1.6s1.1,1.5,1.4,2.5s0.5,2.1,0.5,3.3V175z M-119.6,172.7c0.7,0,1.3-0.1,1.8-0.2
			c0.5-0.1,1.1-0.3,1.5-0.6c0.5-0.2,0.9-0.5,1.4-0.9c0.4-0.3,0.9-0.7,1.3-1.2v-4.4c-1.7,0-3.2,0.1-4.4,0.3c-1.2,0.2-2.2,0.5-2.9,0.9
			c-0.8,0.4-1.3,0.8-1.6,1.2c-0.3,0.5-0.5,1-0.5,1.6c0,0.6,0.1,1,0.3,1.5s0.4,0.7,0.7,1c0.3,0.3,0.7,0.5,1.1,0.6
			S-120.1,172.7-119.6,172.7z"/>
		<path class="st10" d="M-96.7,175.3c-1.7,0-3-0.5-3.9-1.4c-0.9-0.9-1.4-2.3-1.4-4.1v-13h-2.6c-0.2,0-0.4-0.1-0.6-0.2
			c-0.2-0.1-0.2-0.3-0.2-0.6v-1.5l3.5-0.4l0.9-6.6c0-0.2,0.1-0.4,0.3-0.5c0.2-0.1,0.3-0.2,0.6-0.2h1.9v7.3h6.1v2.7h-6.1v12.8
			c0,0.9,0.2,1.6,0.7,2s1,0.7,1.7,0.7c0.4,0,0.7-0.1,1-0.2s0.5-0.2,0.7-0.3s0.4-0.2,0.5-0.3c0.1-0.1,0.3-0.2,0.4-0.2
			c0.2,0,0.4,0.1,0.5,0.4l1.1,1.8c-0.6,0.6-1.4,1.1-2.3,1.4C-94.8,175.1-95.7,175.3-96.7,175.3z"/>
		<path class="st10" d="M-77.8,153.3c1.6,0,3,0.3,4.2,0.8c1.3,0.5,2.3,1.3,3.2,2.2s1.5,2.1,2,3.5c0.5,1.4,0.7,2.9,0.7,4.5
			c0,1.7-0.2,3.2-0.7,4.5c-0.5,1.3-1.1,2.5-2,3.4c-0.9,1-1.9,1.7-3.2,2.2c-1.3,0.5-2.7,0.8-4.2,0.8c-1.6,0-3-0.3-4.2-0.8
			c-1.3-0.5-2.3-1.2-3.2-2.2c-0.9-1-1.6-2.1-2-3.4c-0.5-1.3-0.7-2.9-0.7-4.5c0-1.7,0.2-3.2,0.7-4.5c0.5-1.4,1.2-2.5,2-3.5
			s1.9-1.7,3.2-2.2C-80.8,153.6-79.4,153.3-77.8,153.3z M-77.8,172.3c2.1,0,3.7-0.7,4.7-2.1c1-1.4,1.6-3.4,1.6-5.9
			c0-2.5-0.5-4.5-1.6-5.9s-2.6-2.1-4.7-2.1c-1.1,0-2,0.2-2.8,0.5c-0.8,0.4-1.4,0.9-2,1.6s-0.9,1.5-1.2,2.5c-0.3,1-0.4,2.1-0.4,3.4
			c0,1.3,0.1,2.4,0.4,3.4c0.3,1,0.7,1.8,1.2,2.5s1.2,1.2,2,1.6C-79.8,172.1-78.9,172.3-77.8,172.3z"/>
	</g>
	<g>
		<path class="st10" d="M-155.8,289c0-0.1,0-0.3,0.1-0.6l10-27.6c0.2-0.4,0.7-0.7,1.7-0.7h1.2c1,0,1.6,0.2,1.7,0.7l10,27.6
			c0.1,0.2,0.1,0.4,0.1,0.5c0,0.5-0.6,0.7-1.8,0.7h-0.3c-1,0-1.5-0.2-1.7-0.7l-2.5-6.9h-12.3l-2.4,6.9c-0.1,0.4-0.7,0.7-1.7,0.7
			h-0.2C-155.2,289.7-155.8,289.4-155.8,289z M-138.5,278.9l-4.4-12.5c-0.1-0.4-0.3-1.3-0.5-2.4h-0.1c-0.2,1.1-0.4,1.9-0.6,2.4
			l-4.4,12.5H-138.5z"/>
		<path class="st10" d="M-124.7,289.5c-1-0.3-1.8-0.7-2.4-1.1c-0.6-0.4-0.9-0.8-0.9-1.1c0-0.3,0.2-0.7,0.5-1.3
			c0.3-0.6,0.7-0.8,0.9-0.8c0.1,0,0.3,0.2,0.8,0.5c0.5,0.3,1.1,0.6,1.8,0.8c0.7,0.3,1.5,0.4,2.4,0.4c2.7,0,4.1-1.1,4.1-3.4
			c0-1-0.3-1.7-0.9-2.3c-0.6-0.6-1.7-1.1-3.3-1.5c-2.2-0.6-3.7-1.4-4.6-2.4c-0.8-1-1.3-2.3-1.3-3.9c0-1.2,0.3-2.2,0.9-3.2
			c0.6-0.9,1.4-1.6,2.5-2.2c1-0.5,2.2-0.8,3.6-0.8c1.4,0,2.7,0.2,3.8,0.5s1.7,0.8,1.7,1.3c0,0.4-0.2,0.8-0.5,1.4
			c-0.3,0.6-0.6,0.9-0.9,0.9c-0.1,0-0.5-0.2-1.1-0.6c-0.7-0.3-1.6-0.5-2.7-0.5c-1.1,0-2,0.2-2.7,0.7c-0.7,0.5-1.1,1.1-1.1,1.9
			c0,1,0.3,1.7,0.8,2.3c0.5,0.6,1.3,1,2.5,1.4c1.8,0.6,3.2,1.1,4.1,1.7c0.9,0.5,1.6,1.2,2,2c0.4,0.8,0.6,1.8,0.6,3.1
			c0,1.2-0.3,2.3-1,3.3c-0.7,1-1.6,1.8-2.7,2.4c-1.1,0.6-2.4,0.9-3.8,0.9C-122.5,290-123.6,289.8-124.7,289.5z"/>
		<path class="st10" d="M-107,288.2c-1.3-1.1-2-2.6-2-4.7c0-2.2,0.7-3.9,2-5c1.3-1.1,3-1.8,4.9-2.1c1.9-0.3,4.3-0.5,7.1-0.5v-2
			c0-1-0.4-1.9-1.1-2.5c-0.7-0.7-1.9-1-3.5-1c-1.2,0-2.3,0.1-3.2,0.4c-0.9,0.3-1.7,0.6-2.3,0.9c-0.6,0.3-1,0.4-1,0.4
			c-0.3,0-0.6-0.3-0.9-0.8c-0.4-0.6-0.5-1-0.5-1.3c0-0.4,0.4-0.8,1.1-1.2s1.7-0.8,3-1.1c1.2-0.3,2.5-0.4,3.8-0.4
			c2.6,0,4.6,0.6,6.1,1.7s2.2,2.8,2.2,4.9v9.4c0,1.8,0.1,3.2,0.3,4s0.3,1.2,0.3,1.3c0,0.3-0.3,0.6-0.8,0.7c-0.5,0.2-1,0.2-1.5,0.2
			c-0.4,0-0.7-0.2-0.9-0.7c-0.2-0.4-0.3-0.9-0.4-1.4c-0.1-0.5-0.2-0.8-0.2-0.9c-1.9,2.1-4.3,3.2-7.1,3.2
			C-104,289.8-105.7,289.3-107,288.2z M-98.1,286c1-0.5,2-1.2,3-2.1v-5c-2.1,0-3.8,0.1-5.1,0.3c-1.3,0.1-2.5,0.5-3.5,1.2
			c-1,0.6-1.5,1.6-1.5,3c0,1.1,0.3,2,0.9,2.6c0.6,0.6,1.5,0.9,2.7,0.9C-100.3,286.8-99.1,286.5-98.1,286z"/>
		<path class="st10" d="M-83.5,297.4V274c0-1.8-0.1-3.2-0.3-4c-0.2-0.8-0.3-1.2-0.3-1.3c0-0.3,0.3-0.6,0.8-0.7
			c0.5-0.2,1-0.2,1.5-0.2c0.4,0,0.7,0.2,0.9,0.6c0.2,0.4,0.3,0.8,0.4,1.3c0.1,0.4,0.2,0.7,0.2,0.9c2-2.1,4.2-3.1,6.7-3.1
			c1.7,0,3.2,0.5,4.4,1.4c1.2,1,2.1,2.3,2.8,4c0.6,1.7,1,3.6,1,5.8c0,2.4-0.4,4.4-1.1,6.1c-0.7,1.7-1.7,3-3,3.8s-2.8,1.3-4.5,1.3
			c-1.2,0-2.3-0.2-3.3-0.5c-0.9-0.4-1.9-0.9-2.8-1.6v9.7c0,0.6-0.6,0.9-1.7,0.9h-0.2C-83,298.3-83.5,298-83.5,297.4z M-70.6,284.7
			c1-1.3,1.4-3.3,1.4-5.8c0-2.7-0.4-4.8-1.3-6.3c-0.9-1.5-2.2-2.2-3.8-2.2c-1,0-1.9,0.3-2.9,0.8s-1.9,1.2-2.8,2.1v11.5
			c1.5,1.3,3.2,1.9,5.2,1.9C-72.9,286.7-71.5,286.1-70.6,284.7z"/>
	</g>
	
		<image style="overflow:visible;" width="400" height="392" xlink:href="../../../../../Portfolio 2018/img/brand-demos/logo-shred4less.png"  transform="matrix(0.48 0 0 0.48 3 332)">
	</image>
	<g>
		<path class="st10" d="M16.2,209.5l0.4-1.6c0.4,0.2,0.9,0.4,1.5,0.6c0.6,0.2,1.1,0.3,1.6,0.3c0.8,0,1.4-0.1,1.8-0.4
			c0.4-0.3,0.6-0.7,0.6-1.1c0-0.3-0.1-0.6-0.3-0.9c-0.2-0.3-0.5-0.5-0.9-0.7c-0.4-0.2-0.9-0.5-1.5-0.8c-1.1-0.6-2-1.1-2.5-1.7
			c-0.6-0.6-0.9-1.3-0.9-2.1c0-0.6,0.2-1.2,0.5-1.6s0.8-0.9,1.4-1.2c0.6-0.3,1.3-0.4,2.2-0.4c0.6,0,1.1,0.1,1.7,0.2s1.1,0.4,1.6,0.6
			l-0.7,1.6c-0.5-0.2-0.9-0.4-1.3-0.5c-0.4-0.1-0.8-0.2-1.3-0.2c-0.6,0-1.1,0.1-1.5,0.4c-0.4,0.2-0.6,0.6-0.6,1.1
			c0,0.3,0.1,0.6,0.3,0.9s0.5,0.5,0.8,0.7s0.9,0.5,1.6,0.9c0.8,0.4,1.4,0.8,1.8,1.1c0.5,0.3,0.8,0.7,1.1,1.2s0.4,1,0.4,1.6
			c0,0.6-0.2,1.2-0.5,1.7c-0.3,0.5-0.9,0.9-1.5,1.2c-0.7,0.3-1.5,0.4-2.4,0.4c-0.5,0-1.2-0.1-1.9-0.3S16.5,209.7,16.2,209.5z"/>
		<path class="st10" d="M28.2,210.2h-2v-8.7h1.3l0.4,1c0.5-0.4,1.1-0.7,1.7-1c0.6-0.2,1.2-0.4,1.7-0.4c1,0,1.8,0.3,2.2,0.9
			c0.5,0.6,0.7,1.4,0.7,2.5v5.6h-2v-5.5c0-1.2-0.5-1.8-1.3-1.8c-0.7,0-1.6,0.4-2.6,1.2V210.2z"/>
		<path class="st10" d="M44.5,208.2c-0.4,0.7-0.9,1.2-1.6,1.6c-0.7,0.4-1.5,0.6-2.4,0.6c-0.9,0-1.7-0.2-2.4-0.6
			c-0.7-0.4-1.2-0.9-1.6-1.6c-0.4-0.7-0.5-1.5-0.5-2.4c0-0.9,0.2-1.7,0.5-2.4c0.4-0.7,0.9-1.2,1.6-1.6s1.5-0.6,2.4-0.6
			c0.9,0,1.7,0.2,2.4,0.6c0.7,0.4,1.2,0.9,1.6,1.6c0.4,0.7,0.5,1.5,0.5,2.4S44.9,207.5,44.5,208.2z M42.3,207.9
			c0.5-0.5,0.7-1.2,0.7-2c0-0.9-0.2-1.5-0.7-2.1c-0.4-0.5-1-0.8-1.8-0.8c-0.7,0-1.3,0.3-1.8,0.8c-0.4,0.5-0.7,1.2-0.7,2.1
			c0,0.9,0.2,1.5,0.7,2.1c0.4,0.5,1,0.8,1.8,0.8C41.2,208.7,41.8,208.4,42.3,207.9z"/>
		<path class="st10" d="M54,210.2l-1.8-5.8l-1.7,5.8h-1.8l-2.6-8.4l2-0.6l1.6,5.9l1.5-5.6h2.2l1.6,5.6l1.5-5.6h2.1l-2.8,8.7H54z"/>
	</g>
	<g>
		<path class="st11" d="M151.3,209.5l0.4-1.6c0.4,0.2,0.9,0.4,1.5,0.6c0.6,0.2,1.1,0.3,1.6,0.3c0.8,0,1.4-0.1,1.8-0.4
			c0.4-0.3,0.6-0.7,0.6-1.1c0-0.3-0.1-0.6-0.3-0.9c-0.2-0.3-0.5-0.5-0.9-0.7c-0.4-0.2-0.9-0.5-1.5-0.8c-1.1-0.6-2-1.1-2.5-1.7
			c-0.6-0.6-0.9-1.3-0.9-2.1c0-0.6,0.2-1.2,0.5-1.6s0.8-0.9,1.4-1.2c0.6-0.3,1.3-0.4,2.2-0.4c0.6,0,1.1,0.1,1.7,0.2s1.1,0.4,1.6,0.6
			l-0.7,1.6c-0.5-0.2-0.9-0.4-1.3-0.5c-0.4-0.1-0.8-0.2-1.3-0.2c-0.6,0-1.1,0.1-1.5,0.4c-0.4,0.2-0.6,0.6-0.6,1.1
			c0,0.3,0.1,0.6,0.3,0.9s0.5,0.5,0.8,0.7s0.9,0.5,1.6,0.9c0.8,0.4,1.4,0.8,1.8,1.1c0.5,0.3,0.8,0.7,1.1,1.2s0.4,1,0.4,1.6
			c0,0.6-0.2,1.2-0.5,1.7c-0.3,0.5-0.9,0.9-1.5,1.2c-0.7,0.3-1.5,0.4-2.4,0.4c-0.5,0-1.2-0.1-1.9-0.3S151.6,209.7,151.3,209.5z"/>
		<path class="st11" d="M167.1,201.5h2v8.7h-1.4l-0.4-1c-0.5,0.4-1.1,0.7-1.7,1c-0.6,0.2-1.2,0.4-1.7,0.4c-1.9,0-2.9-1.1-2.9-3.4
			v-5.6h2v5.5c0,1.2,0.5,1.8,1.3,1.8c0.7,0,1.6-0.4,2.6-1.2V201.5z"/>
		<path class="st11" d="M173.7,210.2h-2v-8.7h1.1l0.7,1.4c0.4-0.4,0.9-0.7,1.5-1c0.6-0.3,1-0.5,1.5-0.5l0.4,1.6
			c-0.4,0-0.9,0.2-1.5,0.5c-0.6,0.3-1.1,0.7-1.6,1.1V210.2z"/>
		<path class="st11" d="M177.6,203.1v-1.5h1.3v-0.9c0-0.9,0.3-1.7,0.8-2.2c0.5-0.5,1.3-0.8,2.3-0.8c0.3,0,0.6,0,0.9,0.1
			c0.3,0.1,0.6,0.2,0.7,0.3l-0.6,1.5c-0.4-0.1-0.7-0.2-0.9-0.2c-0.4,0-0.7,0.1-0.9,0.4c-0.2,0.3-0.3,0.7-0.3,1.1v0.7h1.6l0.6,1.5
			H181v7.1h-2v-7.1H177.6z"/>
	</g>
</g>
<g id="Layer_2">
	<g>
		<path class="st12" d="M195.7,128c0,0-4.2,0.6-5.4,0.9c-35.6,8.8-48.6,45.7-48.6,45.7l5.5,1.9l1.5,5.2c0,0,37.3-13.5,46-48.3
			C195.1,132.2,195.7,128,195.7,128z"/>
		<line class="st12" x1="183.8" y1="140" x2="146.9" y2="176.9"/>
	</g>
</g>
<g id="Layer_3">
	<path class="st13" d="M62.1,126.9l2.9,2.9c3.1,3.1,3.7,8.4,0.4,10.8c-0.6,0.4-2.7,1.9-3.3,2.3c-11.4,9-26,24.4-35.7,34.8
		c-0.5,0.5-5.1,6.9-5.8,7.8c-2.6,3.1-7.7,2.6-10.8-0.4L7,182.1c-3.1-3.1-3.5-8.2-0.4-10.8c0.8-0.7,7.6-5.7,8-6.1
		c10.3-9.8,25.3-24,34.4-35.4c0.5-0.6,2-2.8,2.4-3.4C53.8,123.3,59,123.8,62.1,126.9z"/>
	<g>
		<circle class="st14" cx="167.5" cy="37.5" r="28"/>
	</g>
	<path class="st15" d="M60,60h-4c-1.7,0-3-1.3-3-3V18.5c0-1.6,1.3-3,3-3h4c1.6,0,3,1.4,3,3V57C63,58.7,61.7,60,60,60z"/>
	<path class="st15" d="M17,60h-4c-1.6,0-3-1.3-3-3V18.5c0-1.6,1.4-3,3-3h4c1.6,0,3,1.4,3,3V57C20,58.7,18.7,60,17,60z"/>
	<rect x="20" y="33.9" class="st15" width="33" height="7.3"/>
	<rect x="63" y="33.9" class="st15" width="6" height="7.3"/>
	<rect x="4" y="33.9" class="st15" width="6" height="7.3"/>
	<g>
		<path class="st16" d="M3.1,93.5l0.4-1.6C4,92,4.5,92.2,5,92.4c0.6,0.2,1.1,0.3,1.6,0.3c0.8,0,1.4-0.1,1.8-0.4s0.6-0.7,0.6-1.1
			c0-0.3-0.1-0.6-0.3-0.9c-0.2-0.3-0.5-0.5-0.9-0.7c-0.4-0.2-0.9-0.5-1.5-0.8c-1.1-0.6-2-1.1-2.5-1.7c-0.6-0.6-0.9-1.3-0.9-2.1
			c0-0.6,0.2-1.2,0.5-1.6c0.3-0.5,0.8-0.9,1.4-1.2c0.6-0.3,1.3-0.4,2.2-0.4c0.6,0,1.1,0.1,1.7,0.2c0.6,0.2,1.1,0.4,1.6,0.6l-0.7,1.6
			c-0.5-0.2-0.9-0.4-1.3-0.5c-0.4-0.1-0.8-0.2-1.3-0.2c-0.6,0-1.1,0.1-1.5,0.4C5.2,84,5,84.4,5,84.9c0,0.3,0.1,0.6,0.3,0.9
			c0.2,0.3,0.5,0.5,0.8,0.7c0.3,0.2,0.9,0.5,1.6,0.9c0.8,0.4,1.4,0.8,1.8,1.1c0.5,0.3,0.8,0.7,1.1,1.2c0.3,0.4,0.4,1,0.4,1.6
			c0,0.6-0.2,1.2-0.5,1.7c-0.3,0.5-0.9,0.9-1.5,1.2s-1.5,0.4-2.4,0.4c-0.5,0-1.2-0.1-1.9-0.3S3.4,93.7,3.1,93.5z"/>
		<path class="st16" d="M17.1,85.5l0.6,1.5h-2.2v4.2c0,0.5,0.1,0.8,0.3,1.1c0.2,0.3,0.5,0.4,0.9,0.4c0.3,0,0.6-0.1,0.9-0.2l0.6,1.5
			c-0.2,0.1-0.4,0.2-0.7,0.3c-0.3,0.1-0.6,0.1-0.9,0.1c-1,0-1.7-0.3-2.3-0.8s-0.8-1.2-0.8-2.2v-4.5h-1.2v-1.5h1.2v-2.1l2-0.4v2.5
			H17.1z"/>
		<path class="st16" d="M22.1,94.2h-2v-8.7h1.1l0.7,1.4c0.4-0.4,0.9-0.7,1.5-1c0.6-0.3,1-0.5,1.5-0.5l0.4,1.6
			c-0.4,0-0.9,0.1-1.5,0.4c-0.6,0.3-1.1,0.7-1.6,1.1V94.2z"/>
		<path class="st16" d="M34.5,90.4h-6c0.2,1.6,1.1,2.3,2.8,2.3c0.5,0,0.9-0.1,1.3-0.2s0.8-0.3,1.3-0.6l0.6,1.5c-1,0.7-2,1-3.2,1
			c-1.6,0-2.8-0.4-3.6-1.2c-0.8-0.8-1.3-1.9-1.3-3.4c0-0.9,0.2-1.7,0.5-2.4c0.3-0.7,0.8-1.2,1.5-1.6c0.6-0.4,1.4-0.6,2.3-0.6
			c1.3,0,2.3,0.4,2.9,1.3c0.7,0.9,1,1.9,1,3.3V90.4z M28.4,89h4.1c-0.1-0.7-0.3-1.2-0.7-1.5c-0.3-0.3-0.8-0.5-1.4-0.5
			c-0.6,0-1,0.2-1.4,0.5C28.7,87.9,28.5,88.4,28.4,89z"/>
		<path class="st16" d="M38.5,94.2h-2v-8.7h1.3l0.4,1c0.5-0.4,1.1-0.7,1.7-1c0.6-0.2,1.2-0.4,1.7-0.4c1,0,1.8,0.3,2.2,0.9
			c0.5,0.6,0.7,1.4,0.7,2.5v5.6h-2v-5.5c0-1.2-0.5-1.8-1.3-1.8c-0.7,0-1.6,0.4-2.6,1.2V94.2z"/>
		<path class="st16" d="M54.6,85.5v9.3c0,1.1-0.4,2-1.2,2.6c-0.8,0.6-1.9,1-3.2,1c-0.4,0-1-0.1-1.7-0.3c-0.7-0.2-1.2-0.4-1.6-0.7
			l0.6-1.5c0.5,0.3,1,0.4,1.4,0.6c0.4,0.1,0.8,0.2,1.3,0.2c0.7,0,1.3-0.2,1.8-0.5c0.4-0.3,0.7-0.8,0.7-1.4v-0.9
			c-0.3,0.2-0.6,0.3-1,0.4c-0.3,0.1-0.7,0.2-1,0.2c-0.9,0-1.7-0.2-2.3-0.6c-0.7-0.4-1.2-0.9-1.5-1.6c-0.4-0.7-0.5-1.5-0.5-2.4
			c0-0.9,0.2-1.7,0.5-2.4c0.4-0.7,0.9-1.2,1.5-1.6s1.4-0.6,2.3-0.6c0.4,0,0.8,0.1,1.2,0.3c0.4,0.2,0.8,0.4,1.2,0.7l0.4-0.7H54.6z
			 M51.7,92.5c0.3-0.1,0.6-0.3,0.9-0.5v-4.3c-0.3-0.3-0.6-0.4-0.9-0.5c-0.3-0.1-0.6-0.2-1-0.2c-0.7,0-1.3,0.3-1.7,0.8
			s-0.6,1.2-0.6,2c0,0.9,0.2,1.6,0.6,2.1c0.4,0.5,1,0.8,1.7,0.8C51.1,92.7,51.4,92.6,51.7,92.5z"/>
		<path class="st16" d="M61.3,85.5l0.6,1.5h-2.2v4.2c0,0.5,0.1,0.8,0.3,1.1c0.2,0.3,0.5,0.4,0.9,0.4c0.3,0,0.6-0.1,0.9-0.2l0.6,1.5
			c-0.2,0.1-0.4,0.2-0.7,0.3c-0.3,0.1-0.6,0.1-0.9,0.1c-1,0-1.7-0.3-2.3-0.8s-0.8-1.2-0.8-2.2v-4.5h-1.2v-1.5h1.2v-2.1l2-0.4v2.5
			H61.3z"/>
		<path class="st16" d="M72.3,88.6v5.6h-2v-5.5c0-1.2-0.5-1.8-1.4-1.8c-0.7,0-1.6,0.4-2.5,1.2v6.1h-2V81.7l2-0.2v4.8
			c0.5-0.3,1-0.6,1.5-0.8c0.5-0.2,1-0.3,1.5-0.3C71.3,85.2,72.3,86.3,72.3,88.6z"/>
	</g>
	<g>
		<path class="st17" d="M145.8,90.9l-3.2-4.3v8.1h-2V82.4h1.3l4.2,5.9l3.9-5.9h1.2v12.2h-2.1v-7.8l-2.7,3.9L145.8,90.9z"/>
		<path class="st17" d="M162.2,92.7c-0.4,0.7-0.9,1.2-1.6,1.6c-0.7,0.4-1.5,0.6-2.4,0.6c-0.9,0-1.7-0.2-2.4-0.6
			c-0.7-0.4-1.2-0.9-1.6-1.6c-0.4-0.7-0.5-1.5-0.5-2.4c0-0.9,0.2-1.7,0.5-2.4s0.9-1.2,1.6-1.6c0.7-0.4,1.5-0.6,2.4-0.6
			c0.9,0,1.7,0.2,2.4,0.6c0.7,0.4,1.2,0.9,1.6,1.6c0.4,0.7,0.5,1.5,0.5,2.4C162.8,91.2,162.6,92,162.2,92.7z M160,92.4
			c0.5-0.5,0.7-1.2,0.7-2c0-0.9-0.2-1.5-0.7-2.1c-0.4-0.5-1-0.8-1.8-0.8c-0.7,0-1.3,0.3-1.8,0.8c-0.4,0.5-0.7,1.2-0.7,2.1
			c0,0.9,0.2,1.5,0.7,2.1c0.4,0.5,1,0.8,1.8,0.8C159,93.2,159.6,92.9,160,92.4z"/>
		<path class="st17" d="M168.8,86l0.6,1.5h-2.2v4.2c0,0.5,0.1,0.8,0.3,1.1c0.2,0.3,0.5,0.4,0.9,0.4c0.3,0,0.6-0.1,0.9-0.2l0.6,1.5
			c-0.2,0.1-0.4,0.2-0.7,0.3c-0.3,0.1-0.6,0.1-0.9,0.1c-1,0-1.7-0.3-2.3-0.8s-0.8-1.2-0.8-2.2v-4.5H164V86h1.2v-2.1l2-0.4V86H168.8z
			"/>
		<path class="st17" d="M172.7,84.6c-0.3,0-0.6-0.1-0.8-0.4c-0.2-0.2-0.3-0.5-0.3-0.9c0-0.3,0.1-0.6,0.3-0.8
			c0.2-0.2,0.5-0.4,0.8-0.4c0.3,0,0.6,0.1,0.9,0.4c0.2,0.2,0.4,0.5,0.4,0.8c0,0.3-0.1,0.6-0.4,0.9C173.3,84.4,173,84.6,172.7,84.6z
			 M171.7,94.7V86h2v8.7H171.7z"/>
		<path class="st17" d="M184.2,92.7c-0.4,0.7-0.9,1.2-1.6,1.6c-0.7,0.4-1.5,0.6-2.4,0.6c-0.9,0-1.7-0.2-2.4-0.6
			c-0.7-0.4-1.2-0.9-1.6-1.6c-0.4-0.7-0.5-1.5-0.5-2.4c0-0.9,0.2-1.7,0.5-2.4s0.9-1.2,1.6-1.6c0.7-0.4,1.5-0.6,2.4-0.6
			c0.9,0,1.7,0.2,2.4,0.6c0.7,0.4,1.2,0.9,1.6,1.6c0.4,0.7,0.5,1.5,0.5,2.4C184.7,91.2,184.5,92,184.2,92.7z M182,92.4
			c0.5-0.5,0.7-1.2,0.7-2c0-0.9-0.2-1.5-0.7-2.1c-0.4-0.5-1-0.8-1.8-0.8c-0.7,0-1.3,0.3-1.8,0.8c-0.4,0.5-0.7,1.2-0.7,2.1
			c0,0.9,0.2,1.5,0.7,2.1c0.4,0.5,1,0.8,1.8,0.8C180.9,93.2,181.5,92.9,182,92.4z"/>
		<path class="st17" d="M188.7,94.7h-2V86h1.3l0.4,1c0.5-0.4,1.1-0.7,1.7-1c0.6-0.2,1.2-0.4,1.7-0.4c1,0,1.8,0.3,2.2,0.9
			c0.5,0.6,0.7,1.4,0.7,2.5v5.6h-2v-5.5c0-1.2-0.5-1.8-1.3-1.8c-0.7,0-1.6,0.4-2.6,1.2V94.7z"/>
	</g>
</g>
</svg>
