<?xml version="1.0" encoding="utf-8"?>
<!-- Generator: Adobe Illustrator 22.0.1, SVG Export Plug-In . SVG Version: 6.00 Build 0)  -->
<svg version="1.1" xmlns="http://www.w3.org/2000/svg" xmlns:xlink="http://www.w3.org/1999/xlink" x="0px" y="0px"
	 viewBox="0 0 200 100" style="enable-background:new 0 0 200 100;" xml:space="preserve">
<style type="text/css">
	.st0{fill:none;stroke:#F45E58;stroke-miterlimit:10;}
	.st1{fill:none;stroke:#288FEB;stroke-miterlimit:10;}
	.st2{fill:#F45E58;}
	.st3{fill:#288FEB;}
	.st4{fill:none;stroke:#F0F0F0;stroke-width:3;stroke-miterlimit:10;}
	.st5{fill:#FFFFFF;}
	.st6{fill:#278BD6;}
	.st7{opacity:0.13;fill:#278BD6;enable-background:new    ;}
	.st8{fill:#E05C5C;}
	.st9{fill:#F4615B;}
	.st10{fill:#F0F0F0;}
	.st11{fill:#248CD0;}
	.st12{fill:none;stroke:#248CD0;stroke-miterlimit:10;}
	.st13{fill:none;stroke:#F0F0F0;stroke-linecap:round;stroke-miterlimit:10;}
	.st14{fill:none;stroke:#FFD18F;stroke-miterlimit:10;stroke-dasharray:12.5631,12.5631;}
	.st15{fill:none;stroke:#D3D3D3;stroke-miterlimit:10;}
	.st16{fill:#D3D3D3;}
	.st17{fill:#FFD18F;}
</style>
<g id="Layer_1">
	<path class="st0" d="M-375.7-56.4c-3.8,3.6-15,13.2-16.4,13.2c-1.4,0-12.8-9.7-16.7-13.3c-2.8-2.6-5.4-5.3-6.1-13
		c-0.7-7.3-2.1-27.5-0.2-27.8c11.3-2.4,34.7-1.5,46.1,0.2c1.6,0.2,0.2,20.4-0.5,28C-370-61.5-372.9-59-375.7-56.4z"/>
	<path class="st1" d="M-227-46.6h-48c-1.1,0-2-0.9-2-2V-94c0-1.1,0.9-2,2-2h48c1.1,0,2,0.9,2,2v45.4C-225-47.5-225.9-46.6-227-46.6z
		"/>
	<path class="st1" d="M-237.2-56.8h-27.5c-1.1,0-2-0.9-2-1.9v-23.1c0-1.1,0.9-1.9,2-1.9h5.6v-1.9c0-0.5,0.5-1,1-1h14.3
		c0.6,0,1,0.4,1,1v1.9h5.6c1.1,0,2,0.9,2,1.9v23.1C-235.2-57.7-236.1-56.8-237.2-56.8z"/>
	<line class="st1" x1="-242.1" y1="-65.5" x2="-242.1" y2="-56.8"/>
	<line class="st1" x1="-259.9" y1="-65.5" x2="-259.9" y2="-56.8"/>
	<line class="st1" x1="-248.2" y1="-65.5" x2="-248.2" y2="-56.8"/>
	<line class="st1" x1="-253.8" y1="-65.5" x2="-253.8" y2="-56.8"/>
	<g>
		<path class="st2" d="M-415.6-18.6h-4v-10.9h4c1.6,0,2.8,0.5,3.7,1.5c0.8,1,1.2,2.3,1.2,3.9c0,1.1-0.2,2.1-0.6,2.9
			c-0.4,0.8-0.9,1.5-1.7,1.9C-413.7-18.8-414.6-18.6-415.6-18.6z M-415.5-27.9h-2.3v7.8h2.2c1,0,1.7-0.3,2.3-1s0.8-1.7,0.8-3
			c0-1.2-0.3-2.2-0.8-2.8C-413.8-27.6-414.5-27.9-415.5-27.9z"/>
		<path class="st2" d="M-402.4-22h-5.4c0.2,1.4,1,2.1,2.5,2.1c0.4,0,0.8-0.1,1.1-0.2c0.3-0.1,0.7-0.3,1.2-0.5l0.5,1.3
			c-0.9,0.6-1.8,0.9-2.9,0.9c-1.4,0-2.5-0.4-3.2-1.1c-0.7-0.7-1.1-1.7-1.1-3c0-0.8,0.2-1.5,0.5-2.1c0.3-0.6,0.7-1.1,1.3-1.4
			c0.6-0.3,1.2-0.5,2-0.5c1.1,0,2,0.4,2.6,1.1c0.6,0.8,0.9,1.7,0.9,2.9V-22z M-407.7-23.2h3.6c-0.1-0.6-0.3-1.1-0.6-1.4
			c-0.3-0.3-0.7-0.5-1.2-0.5c-0.5,0-0.9,0.2-1.2,0.5C-407.4-24.2-407.6-23.8-407.7-23.2z"/>
		<path class="st2" d="M-401.7-24.9v-1.4h1.2v-0.8c0-0.8,0.2-1.5,0.7-2c0.5-0.5,1.2-0.7,2-0.7c0.2,0,0.5,0,0.8,0.1
			c0.3,0.1,0.5,0.2,0.6,0.3l-0.5,1.3c-0.3-0.1-0.6-0.2-0.8-0.2c-0.4,0-0.6,0.1-0.8,0.4c-0.2,0.2-0.3,0.6-0.3,1v0.6h1.4l0.6,1.4h-2
			v6.3h-1.8v-6.3H-401.7z"/>
		<path class="st2" d="M-388.6-22h-5.4c0.2,1.4,1,2.1,2.5,2.1c0.4,0,0.8-0.1,1.1-0.2c0.3-0.1,0.7-0.3,1.2-0.5l0.5,1.3
			c-0.9,0.6-1.8,0.9-2.9,0.9c-1.4,0-2.5-0.4-3.2-1.1c-0.7-0.7-1.1-1.7-1.1-3c0-0.8,0.2-1.5,0.5-2.1c0.3-0.6,0.7-1.1,1.3-1.4
			c0.6-0.3,1.2-0.5,2-0.5c1.1,0,2,0.4,2.6,1.1c0.6,0.8,0.9,1.7,0.9,2.9V-22z M-394-23.2h3.6c-0.1-0.6-0.3-1.1-0.6-1.4
			c-0.3-0.3-0.7-0.5-1.2-0.5c-0.5,0-0.9,0.2-1.2,0.5C-393.7-24.2-393.9-23.8-394-23.2z"/>
		<path class="st2" d="M-385.5-18.6h-1.8v-7.8h1.2l0.3,0.9c0.4-0.4,0.9-0.7,1.5-0.9s1-0.3,1.5-0.3c0.9,0,1.6,0.3,2,0.8
			c0.4,0.5,0.6,1.3,0.6,2.2v5h-1.8v-4.9c0-1.1-0.4-1.6-1.2-1.6c-0.7,0-1.4,0.4-2.3,1.1V-18.6z"/>
		<path class="st2" d="M-372.8-20.5l0.5,1.3c-0.3,0.2-0.8,0.4-1.3,0.6c-0.5,0.1-1,0.2-1.4,0.2c-0.8,0-1.5-0.2-2.1-0.5
			c-0.6-0.3-1.1-0.8-1.4-1.4c-0.3-0.6-0.5-1.3-0.5-2.2c0-0.8,0.2-1.5,0.5-2.1c0.3-0.6,0.8-1.1,1.4-1.4c0.6-0.3,1.3-0.5,2.1-0.5
			c0.4,0,0.8,0.1,1.3,0.2c0.5,0.1,1,0.3,1.3,0.6l-0.5,1.3c-0.4-0.2-0.8-0.3-1.1-0.4c-0.3-0.1-0.7-0.1-1-0.1c-0.6,0-1.2,0.2-1.6,0.7
			c-0.4,0.5-0.6,1.1-0.6,1.8c0,0.8,0.2,1.4,0.6,1.8c0.4,0.5,0.9,0.7,1.6,0.7c0.4,0,0.8,0,1.1-0.1C-373.5-20.2-373.2-20.3-372.8-20.5
			z"/>
		<path class="st2" d="M-364.2-22h-5.4c0.2,1.4,1,2.1,2.5,2.1c0.4,0,0.8-0.1,1.1-0.2c0.3-0.1,0.7-0.3,1.2-0.5l0.5,1.3
			c-0.9,0.6-1.8,0.9-2.9,0.9c-1.4,0-2.5-0.4-3.2-1.1c-0.7-0.7-1.1-1.7-1.1-3c0-0.8,0.2-1.5,0.5-2.1c0.3-0.6,0.7-1.1,1.3-1.4
			c0.6-0.3,1.2-0.5,2-0.5c1.1,0,2,0.4,2.6,1.1c0.6,0.8,0.9,1.7,0.9,2.9V-22z M-369.5-23.2h3.6c-0.1-0.6-0.3-1.1-0.6-1.4
			c-0.3-0.3-0.7-0.5-1.2-0.5c-0.5,0-0.9,0.2-1.2,0.5C-369.2-24.2-369.4-23.8-369.5-23.2z"/>
	</g>
	<g>
		<path class="st3" d="M-261.8-21l3.1-8.4h1.8l-4.2,10.9h-1.6l-4.2-10.8l1.8-0.3L-261.8-21z"/>
		<path class="st3" d="M-253.5-18.6h-1.8v-10.9h3.2c1.3,0,2.3,0.3,3,0.8c0.8,0.6,1.2,1.4,1.2,2.6c0,0.8-0.2,1.4-0.6,2
			c-0.4,0.5-0.9,0.9-1.6,1.2c-0.7,0.3-1.4,0.4-2.2,0.4h-1.3V-18.6z M-252.1-28h-1.4v4h1.4c0.7,0,1.3-0.2,1.7-0.5
			c0.4-0.3,0.6-0.8,0.7-1.5c0-0.7-0.2-1.3-0.6-1.6C-250.8-27.8-251.3-28-252.1-28z"/>
		<path class="st3" d="M-246-18.6v-10.9h1.7l5.3,7.7v-7.7h1.8v10.9h-1.7l-5.3-7.7v7.7H-246z"/>
	</g>
	<line class="st4" x1="-320.5" y1="-70" x2="-320.5" y2="-57"/>
	<line class="st4" x1="-314" y1="-63.5" x2="-327" y2="-63.5"/>
	<line class="st4" x1="100.5" y1="44" x2="100.5" y2="57"/>
	<line class="st4" x1="107" y1="50.5" x2="94" y2="50.5"/>
	<line class="st4" x1="100.5" y1="-70" x2="100.5" y2="-57"/>
	<line class="st4" x1="107" y1="-63.5" x2="94" y2="-63.5"/>
	<g>
		<path class="st5" d="M-408.4,55.4c0,0,54-13.5,88.6-13.5C-285,42-233,54.4-233,54.4l-6.6,41.4c0,0-60.1-7.6-80.8-7.6
			c-20.4,0-79.6,7.6-79.6,7.6L-408.4,55.4z"/>
		<path class="st5" d="M-321.1,11L-321.1,11l76.3,31.5c0,0-6.2,76.3-19.1,97.7c-9.5,15.8-57.3,46.6-57.3,46.6"/>
		<path class="st5" d="M-320.3,186.2L-321,11l-0.1,0l-0.1,0l-76.3,31.5c0,0,6.2,76.3,19.1,97.7c8.6,14.4,49.2,41.3,56.2,45.9
			c0.7,0.4,1,0.7,1,0.7L-320.3,186.2z"/>
		<path class="st2" d="M-320.9,17.3L-252,46c0,0-5.6,69.6-17.2,89.1c-8.5,14.4-51.7,42.5-51.7,42.5"/>
		<path class="st2" d="M-320.9,17.3L-389.8,46c0,0,5.6,69.6,17.2,89.1c7.5,12.7,51.7,42.6,51.7,42.6l9.4-6.5l-0.2-150.1"/>
		<path d="M-320.2,24.3l61.5,25.7c0,0-5,62.2-15.3,79.7c-7.6,12.9-46.2,38-46.2,38"/>
		<path d="M-320.2,24.3L-381.7,50c0,0,5,62.2,15.3,79.7c7.6,12.9,46.2,38,46.2,38"/>
		<path class="st3" d="M-320.3,30l55.7,23.3c0,0-4.5,56.3-13.9,72c-6.9,11.7-41.8,34.4-41.8,34.4s-14.7-10.7-7.3-77.4"/>
		<path class="st6" d="M-320.3,30L-376,53.2c0,0,4.5,56.3,13.9,72c6.9,11.7,41.9,34.4,41.9,34.4"/>
		<path class="st5" d="M-310.9,94.6c0,5.2-4.2,9.4-9.4,9.4s-9.4-4.2-9.4-9.4c0-5.2,4.2-9.4,9.4-9.4l0,0
			C-315.1,85.2-310.9,89.4-310.9,94.6L-310.9,94.6z"/>
		<polygon class="st5" points="-329,129.5 -311.7,129.5 -316.8,103.1 -323.8,103.3 		"/>
		<path class="st7" d="M-320.3,30L-320.3,30L-376,53.2c0,0,4.5,56.3,13.9,72c6.9,11.7,41.9,34.4,41.9,34.4V80.8"/>
		<polygon class="st8" points="-247.6,86.6 -257.3,89.7 -256.7,85.8 		"/>
		<polygon class="st8" points="-393.7,87.4 -385.1,86.4 -384.4,89.1 		"/>
		<path class="st2" d="M-401,60.4c0,0,42.5-9.5,80.7-9.5c38.9,0,79.5,8.8,79.5,8.8l-4.4,27.9c0,0-56.7-6.7-75.7-6.7
			c-18.8,0-74.6,6.7-74.6,6.7L-401,60.4z"/>
	</g>
	<g>
		<g>
			<path class="st2" d="M-384.2,236.7c-0.3,0-0.6-0.1-0.8-0.3c-0.2-0.2-0.3-0.5-0.3-0.8v-14.2c0-0.3,0.1-0.6,0.3-0.8
				c0.2-0.2,0.5-0.4,0.8-0.4h4.7c1.8,0,3.3,0.4,4.6,1.2c1.3,0.8,2.2,1.8,2.8,3.1c0.6,1.3,1,2.6,1,4c0,1.4-0.3,2.7-1,4
				c-0.6,1.3-1.6,2.3-2.8,3.1c-1.3,0.8-2.8,1.2-4.6,1.2H-384.2z M-379.8,234.4c1.3,0,2.4-0.3,3.3-0.8c0.9-0.5,1.7-1.2,2.2-2.1
				c0.5-0.9,0.8-2,0.8-3.2c0-1.2-0.3-2.3-0.8-3.2c-0.5-0.9-1.3-1.6-2.2-2.1c-0.9-0.5-2.1-0.8-3.3-0.8h-3.2v12.1H-379.8z"/>
			<path class="st2" d="M-379.5,220.2c1.8,0,3.3,0.4,4.5,1.2c1.2,0.8,2.2,1.8,2.8,3.1c0.6,1.2,0.9,2.6,0.9,3.9
				c0,1.4-0.3,2.7-0.9,3.9c-0.6,1.2-1.6,2.3-2.8,3.1c-1.2,0.8-2.8,1.2-4.5,1.2h-4.7c-0.3,0-0.5-0.1-0.8-0.3
				c-0.2-0.2-0.3-0.5-0.3-0.8v-14.2c0-0.3,0.1-0.6,0.3-0.8c0.2-0.2,0.5-0.3,0.8-0.3H-379.5 M-383.2,234.6h3.4c1.3,0,2.4-0.3,3.4-0.8
				c1-0.5,1.7-1.2,2.2-2.2c0.5-0.9,0.8-2,0.8-3.2c0-1.2-0.3-2.3-0.8-3.2c-0.5-0.9-1.3-1.7-2.2-2.2c-1-0.5-2.1-0.8-3.4-0.8h-3.4
				V234.6 M-379.5,220h-4.7c-0.4,0-0.7,0.1-0.9,0.4c-0.2,0.3-0.4,0.6-0.4,0.9v14.2c0,0.4,0.1,0.7,0.4,0.9c0.2,0.3,0.6,0.4,0.9,0.4
				h4.7c1.8,0,3.4-0.4,4.7-1.2c1.3-0.8,2.2-1.9,2.9-3.2c0.6-1.3,1-2.6,1-4c0-1.4-0.3-2.8-1-4c-0.6-1.3-1.6-2.3-2.9-3.2
				C-376.1,220.4-377.7,220-379.5,220L-379.5,220z M-382.9,222.4h3.1c1.2,0,2.3,0.3,3.3,0.8c0.9,0.5,1.6,1.2,2.2,2.1
				c0.5,0.9,0.8,1.9,0.8,3.1c0,1.2-0.3,2.2-0.8,3.1c-0.5,0.9-1.2,1.6-2.2,2.1c-0.9,0.5-2,0.8-3.3,0.8h-3.1V222.4L-382.9,222.4z"/>
		</g>
		<g>
			<path class="st2" d="M-366.1,236.7c-0.3,0-0.6-0.1-0.8-0.3c-0.2-0.2-0.3-0.5-0.3-0.8v-14.2c0-0.3,0.1-0.6,0.3-0.8
				c0.2-0.2,0.5-0.4,0.8-0.4h9.4c0.3,0,0.6,0.1,0.8,0.3c0.2,0.2,0.3,0.5,0.3,0.8c0,0.3-0.1,0.6-0.3,0.8c-0.2,0.2-0.5,0.3-0.8,0.3
				h-8.2v4.9h7.3c0.3,0,0.6,0.1,0.8,0.3c0.2,0.2,0.3,0.5,0.3,0.8c0,0.3-0.1,0.6-0.3,0.8c-0.2,0.2-0.5,0.3-0.8,0.3h-7.3v5h8.2
				c0.3,0,0.6,0.1,0.8,0.3c0.2,0.2,0.3,0.5,0.3,0.8c0,0.3-0.1,0.6-0.3,0.8c-0.2,0.2-0.5,0.3-0.8,0.3H-366.1z"/>
			<path class="st2" d="M-356.7,220.2c0.3,0,0.5,0.1,0.7,0.3c0.2,0.2,0.3,0.4,0.3,0.7c0,0.3-0.1,0.5-0.3,0.7
				c-0.2,0.2-0.4,0.3-0.7,0.3h-8.3v5.2h7.5c0.3,0,0.5,0.1,0.7,0.3c0.2,0.2,0.3,0.4,0.3,0.7c0,0.3-0.1,0.5-0.3,0.7
				c-0.2,0.2-0.4,0.3-0.7,0.3h-7.5v5.2h8.3c0.3,0,0.5,0.1,0.7,0.3c0.2,0.2,0.3,0.4,0.3,0.7c0,0.3-0.1,0.5-0.3,0.7
				c-0.2,0.2-0.4,0.3-0.7,0.3h-9.4c-0.3,0-0.5-0.1-0.8-0.3c-0.2-0.2-0.3-0.5-0.3-0.8v-14.2c0-0.3,0.1-0.6,0.3-0.8
				c0.2-0.2,0.5-0.3,0.8-0.3H-356.7 M-356.7,220h-9.4c-0.4,0-0.7,0.1-0.9,0.4c-0.2,0.3-0.4,0.6-0.4,0.9v14.2c0,0.4,0.1,0.7,0.4,0.9
				c0.2,0.3,0.6,0.4,0.9,0.4h9.4c0.3,0,0.6-0.1,0.9-0.3c0.2-0.2,0.4-0.5,0.4-0.9c0-0.3-0.1-0.6-0.4-0.9c-0.2-0.2-0.5-0.4-0.9-0.4
				h-8.1v-4.7h7.2c0.3,0,0.6-0.1,0.9-0.3c0.2-0.2,0.4-0.5,0.4-0.9c0-0.3-0.1-0.6-0.4-0.9c-0.2-0.2-0.5-0.4-0.9-0.4h-7.2v-4.7h8.1
				c0.3,0,0.6-0.1,0.9-0.4c0.2-0.2,0.4-0.5,0.4-0.9c0-0.3-0.1-0.6-0.4-0.9C-356,220.1-356.3,220-356.7,220L-356.7,220z"/>
		</g>
		<g>
			<path class="st2" d="M-350.5,236.8c-0.3,0-0.6-0.1-0.8-0.3c-0.2-0.2-0.3-0.5-0.3-0.8v-14.3c0-0.3,0.1-0.6,0.3-0.8
				c0.2-0.2,0.5-0.4,0.8-0.4h9.1c0.3,0,0.6,0.1,0.8,0.3c0.2,0.2,0.3,0.5,0.3,0.8c0,0.3-0.1,0.6-0.3,0.8c-0.2,0.2-0.5,0.3-0.8,0.3
				h-7.9v4.9h7.1c0.3,0,0.6,0.1,0.8,0.3c0.2,0.2,0.3,0.5,0.3,0.8c0,0.3-0.1,0.6-0.3,0.8c-0.2,0.2-0.5,0.3-0.8,0.3h-7.1v6.1
				c0,0.3-0.1,0.6-0.4,0.8C-349.9,236.7-350.2,236.8-350.5,236.8z"/>
			<path class="st2" d="M-341.4,220.2c0.3,0,0.5,0.1,0.7,0.3c0.2,0.2,0.3,0.4,0.3,0.7c0,0.3-0.1,0.5-0.3,0.7
				c-0.2,0.2-0.4,0.3-0.7,0.3h-8v5.2h7.2c0.3,0,0.5,0.1,0.7,0.3c0.2,0.2,0.3,0.4,0.3,0.7c0,0.3-0.1,0.5-0.3,0.7
				c-0.2,0.2-0.4,0.3-0.7,0.3h-7.2v6.3c0,0.3-0.1,0.5-0.3,0.7c-0.2,0.2-0.5,0.3-0.8,0.3c-0.3,0-0.5-0.1-0.8-0.3
				c-0.2-0.2-0.3-0.5-0.3-0.7v-14.3c0-0.3,0.1-0.6,0.3-0.8c0.2-0.2,0.5-0.3,0.8-0.3H-341.4 M-341.4,220h-9.1c-0.4,0-0.7,0.1-0.9,0.4
				c-0.2,0.3-0.4,0.6-0.4,0.9v14.3c0,0.4,0.1,0.7,0.4,0.9c0.2,0.3,0.6,0.4,0.9,0.4c0.4,0,0.7-0.1,0.9-0.4c0.3-0.2,0.4-0.6,0.4-0.9
				v-6h7c0.3,0,0.6-0.1,0.9-0.3c0.2-0.2,0.4-0.5,0.4-0.9c0-0.3-0.1-0.6-0.4-0.9c-0.2-0.2-0.5-0.4-0.9-0.4h-7v-4.7h7.8
				c0.3,0,0.6-0.1,0.9-0.4c0.2-0.2,0.4-0.5,0.4-0.9c0-0.3-0.1-0.6-0.4-0.9C-340.8,220.1-341.1,220-341.4,220L-341.4,220z"/>
		</g>
		<g>
			<path class="st2" d="M-335.7,236.7c-0.3,0-0.6-0.1-0.8-0.3c-0.2-0.2-0.3-0.5-0.3-0.8v-14.2c0-0.3,0.1-0.6,0.3-0.8
				c0.2-0.2,0.5-0.4,0.8-0.4h9.4c0.3,0,0.6,0.1,0.8,0.3c0.2,0.2,0.3,0.5,0.3,0.8c0,0.3-0.1,0.6-0.3,0.8c-0.2,0.2-0.5,0.3-0.8,0.3
				h-8.2v4.9h7.3c0.3,0,0.6,0.1,0.8,0.3c0.2,0.2,0.3,0.5,0.3,0.8c0,0.3-0.1,0.6-0.3,0.8c-0.2,0.2-0.5,0.3-0.8,0.3h-7.3v5h8.2
				c0.3,0,0.6,0.1,0.8,0.3c0.2,0.2,0.3,0.5,0.3,0.8c0,0.3-0.1,0.6-0.3,0.8c-0.2,0.2-0.5,0.3-0.8,0.3H-335.7z"/>
			<path class="st2" d="M-326.3,220.2c0.3,0,0.5,0.1,0.7,0.3c0.2,0.2,0.3,0.4,0.3,0.7c0,0.3-0.1,0.5-0.3,0.7
				c-0.2,0.2-0.4,0.3-0.7,0.3h-8.3v5.2h7.5c0.3,0,0.5,0.1,0.7,0.3c0.2,0.2,0.3,0.4,0.3,0.7c0,0.3-0.1,0.5-0.3,0.7
				c-0.2,0.2-0.4,0.3-0.7,0.3h-7.5v5.2h8.3c0.3,0,0.5,0.1,0.7,0.3c0.2,0.2,0.3,0.4,0.3,0.7c0,0.3-0.1,0.5-0.3,0.7
				c-0.2,0.2-0.4,0.3-0.7,0.3h-9.4c-0.3,0-0.5-0.1-0.8-0.3c-0.2-0.2-0.3-0.5-0.3-0.8v-14.2c0-0.3,0.1-0.6,0.3-0.8
				c0.2-0.2,0.5-0.3,0.8-0.3H-326.3 M-326.3,220h-9.4c-0.4,0-0.7,0.1-0.9,0.4c-0.2,0.3-0.4,0.6-0.4,0.9v14.2c0,0.4,0.1,0.7,0.4,0.9
				c0.2,0.3,0.6,0.4,0.9,0.4h9.4c0.3,0,0.6-0.1,0.9-0.3c0.2-0.2,0.4-0.5,0.4-0.9c0-0.3-0.1-0.6-0.4-0.9c-0.2-0.2-0.5-0.4-0.9-0.4
				h-8.1v-4.7h7.2c0.3,0,0.6-0.1,0.9-0.3c0.2-0.2,0.4-0.5,0.4-0.9c0-0.3-0.1-0.6-0.4-0.9c-0.2-0.2-0.5-0.4-0.9-0.4h-7.2v-4.7h8.1
				c0.3,0,0.6-0.1,0.9-0.4c0.2-0.2,0.4-0.5,0.4-0.9c0-0.3-0.1-0.6-0.4-0.9C-325.7,220.1-326,220-326.3,220L-326.3,220z"/>
		</g>
		<g>
			<path class="st2" d="M-308.8,236.8c-0.3,0-0.5-0.1-0.8-0.2c-0.2-0.1-0.4-0.3-0.6-0.5l-8.8-12.8v12.3c0,0.3-0.1,0.6-0.4,0.8
				c-0.2,0.2-0.5,0.3-0.8,0.3c-0.3,0-0.6-0.1-0.8-0.3c-0.2-0.2-0.3-0.5-0.3-0.8v-14c0-0.5,0.2-0.8,0.5-1.2c0.3-0.3,0.7-0.5,1.2-0.5
				h0.3c0.5,0,1,0.3,1.4,0.8l8.8,12.7v-12.3c0-0.3,0.1-0.6,0.3-0.8c0.2-0.2,0.5-0.4,0.8-0.4c0.3,0,0.6,0.1,0.9,0.4
				c0.2,0.2,0.4,0.5,0.4,0.8v14c0,0.5-0.2,0.8-0.5,1.2c-0.3,0.3-0.7,0.5-1.2,0.5H-308.8z"/>
			<path class="st2" d="M-308,220.1c0.3,0,0.6,0.1,0.8,0.3c0.2,0.2,0.3,0.5,0.3,0.8v14c0,0.4-0.2,0.8-0.5,1.1
				c-0.3,0.3-0.7,0.4-1.1,0.4h-0.3c-0.3,0-0.5-0.1-0.7-0.2c-0.2-0.1-0.4-0.3-0.5-0.5l-9.1-13.1v12.7c0,0.3-0.1,0.5-0.3,0.7
				c-0.2,0.2-0.5,0.3-0.8,0.3c-0.3,0-0.5-0.1-0.8-0.3c-0.2-0.2-0.3-0.5-0.3-0.7v-14c0-0.4,0.1-0.8,0.4-1.1c0.3-0.3,0.7-0.5,1.1-0.5
				h0.3c0.5,0,0.9,0.2,1.3,0.7l9,13v-12.7c0-0.3,0.1-0.6,0.3-0.8C-308.6,220.2-308.3,220.1-308,220.1 M-308,219.8
				c-0.4,0-0.7,0.1-0.9,0.4c-0.2,0.3-0.4,0.6-0.4,0.9V233l-8.6-12.4c-0.4-0.5-0.9-0.8-1.5-0.8h-0.3c-0.5,0-0.9,0.2-1.3,0.5
				c-0.3,0.4-0.5,0.8-0.5,1.3v14c0,0.4,0.1,0.7,0.4,0.9c0.2,0.3,0.6,0.4,0.9,0.4c0.4,0,0.7-0.1,0.9-0.4c0.3-0.2,0.4-0.6,0.4-0.9
				v-11.9l8.6,12.4c0.2,0.2,0.4,0.4,0.6,0.5c0.3,0.1,0.5,0.2,0.8,0.2h0.3c0.5,0,0.9-0.2,1.3-0.5c0.4-0.3,0.5-0.8,0.5-1.3v-14
				c0-0.4-0.1-0.7-0.4-0.9C-307.4,220-307.7,219.8-308,219.8L-308,219.8z"/>
		</g>
		<g>
			<path class="st2" d="M-294.6,236.9c-1.6,0-3-0.3-4.3-1c-1.3-0.7-2.3-1.7-3-3c-0.7-1.3-1.1-2.8-1.1-4.5s0.4-3.2,1.1-4.5
				c0.7-1.3,1.7-2.3,3-3c1.3-0.7,2.7-1,4.3-1c1.1,0,2,0.1,2.9,0.4c0.8,0.3,1.7,0.6,2.5,1.1c0.4,0.2,0.6,0.5,0.6,1
				c0,0.3-0.1,0.5-0.3,0.7c-0.2,0.2-0.5,0.3-0.8,0.3c-0.2,0-0.3,0-0.5-0.1c-0.7-0.4-1.4-0.6-2-0.8c-0.6-0.2-1.4-0.3-2.2-0.3
				c-1.3,0-2.4,0.3-3.4,0.8c-0.9,0.5-1.6,1.3-2.1,2.2c-0.5,0.9-0.7,2-0.7,3.2c0,1.2,0.2,2.3,0.7,3.2c0.5,0.9,1.2,1.7,2.1,2.2
				c0.9,0.5,2.1,0.8,3.4,0.8c0.8,0,1.6-0.1,2.2-0.3c0.6-0.2,1.3-0.5,2-0.8c0.1-0.1,0.3-0.1,0.5-0.1c0.3,0,0.6,0.1,0.8,0.3
				c0.2,0.2,0.3,0.4,0.3,0.7c0,0.5-0.2,0.8-0.6,1c-0.8,0.5-1.7,0.8-2.5,1.1C-292.6,236.8-293.5,236.9-294.6,236.9z"/>
			<path class="st2" d="M-294.6,220c1.1,0,2,0.1,2.8,0.4c0.8,0.3,1.7,0.6,2.5,1.1c0.3,0.2,0.5,0.5,0.5,0.9c0,0.2-0.1,0.4-0.3,0.6
				c-0.2,0.2-0.4,0.3-0.7,0.3c-0.2,0-0.3,0-0.4-0.1c-0.7-0.4-1.4-0.6-2-0.8c-0.7-0.2-1.4-0.3-2.3-0.3c-1.3,0-2.5,0.3-3.4,0.8
				c-0.9,0.6-1.7,1.3-2.1,2.3c-0.5,1-0.7,2-0.7,3.3c0,1.2,0.2,2.3,0.7,3.3c0.5,1,1.2,1.7,2.1,2.3c0.9,0.6,2.1,0.8,3.4,0.8
				c0.9,0,1.6-0.1,2.3-0.3c0.7-0.2,1.3-0.5,2-0.8c0.1-0.1,0.3-0.1,0.4-0.1c0.3,0,0.5,0.1,0.7,0.3c0.2,0.2,0.3,0.4,0.3,0.6
				c0,0.4-0.2,0.7-0.5,0.9c-0.8,0.5-1.7,0.8-2.5,1.1c-0.8,0.3-1.8,0.4-2.8,0.4c-1.6,0-3-0.3-4.2-1c-1.2-0.7-2.2-1.7-2.9-2.9
				c-0.7-1.3-1.1-2.8-1.1-4.5c0-1.7,0.4-3.2,1.1-4.5c0.7-1.3,1.7-2.2,2.9-2.9C-297.6,220.3-296.2,220-294.6,220 M-294.6,219.7
				c-1.6,0-3.1,0.4-4.3,1c-1.3,0.7-2.3,1.7-3,3c-0.7,1.3-1.1,2.8-1.1,4.6c0,1.7,0.4,3.3,1.1,4.6c0.7,1.3,1.7,2.3,3,3
				c1.3,0.7,2.7,1.1,4.3,1.1c1.1,0,2.1-0.1,2.9-0.4c0.8-0.3,1.7-0.6,2.5-1.1c0.4-0.2,0.6-0.6,0.6-1.1c0-0.3-0.1-0.6-0.3-0.8
				c-0.2-0.2-0.5-0.3-0.9-0.3c-0.2,0-0.4,0-0.5,0.1c-0.7,0.4-1.3,0.6-2,0.8c-0.6,0.2-1.4,0.3-2.2,0.3c-1.3,0-2.4-0.3-3.3-0.8
				c-0.9-0.5-1.6-1.3-2-2.2c-0.5-0.9-0.7-2-0.7-3.2c0-1.2,0.2-2.2,0.7-3.2c0.5-0.9,1.1-1.6,2-2.2c0.9-0.5,2-0.8,3.3-0.8
				c0.8,0,1.6,0.1,2.2,0.3c0.6,0.2,1.3,0.5,2,0.8c0.2,0.1,0.3,0.1,0.5,0.1c0.4,0,0.6-0.1,0.9-0.3c0.2-0.2,0.3-0.5,0.3-0.8
				c0-0.5-0.2-0.9-0.6-1.1c-0.8-0.5-1.7-0.8-2.5-1.1C-292.6,219.8-293.5,219.7-294.6,219.7L-294.6,219.7z"/>
		</g>
		<g>
			<path class="st2" d="M-283.9,236.7c-0.3,0-0.6-0.1-0.8-0.3c-0.2-0.2-0.3-0.5-0.3-0.8v-14.2c0-0.3,0.1-0.6,0.3-0.8
				c0.2-0.2,0.5-0.4,0.8-0.4h9.4c0.3,0,0.6,0.1,0.8,0.3c0.2,0.2,0.3,0.5,0.3,0.8c0,0.3-0.1,0.6-0.3,0.8c-0.2,0.2-0.5,0.3-0.8,0.3
				h-8.2v4.9h7.3c0.3,0,0.6,0.1,0.8,0.3c0.2,0.2,0.3,0.5,0.3,0.8c0,0.3-0.1,0.6-0.3,0.8c-0.2,0.2-0.5,0.3-0.8,0.3h-7.3v5h8.2
				c0.3,0,0.6,0.1,0.8,0.3c0.2,0.2,0.3,0.5,0.3,0.8c0,0.3-0.1,0.6-0.3,0.8c-0.2,0.2-0.5,0.3-0.8,0.3H-283.9z"/>
			<path class="st2" d="M-274.5,220.2c0.3,0,0.5,0.1,0.7,0.3c0.2,0.2,0.3,0.4,0.3,0.7c0,0.3-0.1,0.5-0.3,0.7
				c-0.2,0.2-0.4,0.3-0.7,0.3h-8.3v5.2h7.5c0.3,0,0.5,0.1,0.7,0.3c0.2,0.2,0.3,0.4,0.3,0.7c0,0.3-0.1,0.5-0.3,0.7
				c-0.2,0.2-0.4,0.3-0.7,0.3h-7.5v5.2h8.3c0.3,0,0.5,0.1,0.7,0.3c0.2,0.2,0.3,0.4,0.3,0.7c0,0.3-0.1,0.5-0.3,0.7
				c-0.2,0.2-0.4,0.3-0.7,0.3h-9.4c-0.3,0-0.5-0.1-0.8-0.3c-0.2-0.2-0.3-0.5-0.3-0.8v-14.2c0-0.3,0.1-0.6,0.3-0.8
				c0.2-0.2,0.5-0.3,0.8-0.3H-274.5 M-274.5,220h-9.4c-0.4,0-0.7,0.1-0.9,0.4c-0.2,0.3-0.4,0.6-0.4,0.9v14.2c0,0.4,0.1,0.7,0.4,0.9
				c0.2,0.3,0.6,0.4,0.9,0.4h9.4c0.3,0,0.6-0.1,0.9-0.3c0.2-0.2,0.4-0.5,0.4-0.9c0-0.3-0.1-0.6-0.4-0.9c-0.2-0.2-0.5-0.4-0.9-0.4
				h-8.1v-4.7h7.2c0.3,0,0.6-0.1,0.9-0.3c0.2-0.2,0.4-0.5,0.4-0.9c0-0.3-0.1-0.6-0.4-0.9c-0.2-0.2-0.5-0.4-0.9-0.4h-7.2v-4.7h8.1
				c0.3,0,0.6-0.1,0.9-0.4c0.2-0.2,0.4-0.5,0.4-0.9c0-0.3-0.1-0.6-0.4-0.9C-273.9,220.1-274.2,220-274.5,220L-274.5,220z"/>
		</g>
		<g>
			<path class="st3" d="M-263.8,236.8c-0.7,0-1.2-0.4-1.6-1.2l-5.8-14c-0.1-0.1-0.1-0.3-0.1-0.4c0-0.4,0.1-0.7,0.3-0.9
				c0.2-0.2,0.5-0.3,0.9-0.3c0.2,0,0.5,0.1,0.7,0.2c0.2,0.1,0.3,0.3,0.5,0.6l5.4,13.4l5.4-13.4c0.1-0.2,0.3-0.4,0.5-0.6
				c0.2-0.1,0.4-0.2,0.7-0.2c0.4,0,0.7,0.1,0.9,0.3c0.2,0.2,0.3,0.5,0.3,0.9c0,0.2,0,0.3-0.1,0.4l-5.8,14c-0.4,0.8-0.9,1.2-1.6,1.2
				H-263.8z"/>
			<path class="st3" d="M-257.1,220.1c0.3,0,0.6,0.1,0.8,0.3c0.2,0.2,0.3,0.5,0.3,0.8c0,0.1,0,0.3-0.1,0.4l-5.8,14
				c-0.3,0.7-0.8,1.1-1.5,1.1h-0.5c-0.6,0-1.1-0.4-1.5-1.1l-5.8-14c0-0.1-0.1-0.3-0.1-0.4c0-0.3,0.1-0.6,0.3-0.8
				c0.2-0.2,0.4-0.3,0.8-0.3c0.2,0,0.4,0.1,0.6,0.2c0.2,0.1,0.3,0.3,0.4,0.5l5.5,13.7l5.5-13.7c0.1-0.2,0.2-0.4,0.4-0.5
				C-257.5,220.2-257.3,220.1-257.1,220.1 M-257.1,219.8c-0.3,0-0.5,0.1-0.7,0.2c-0.2,0.2-0.4,0.4-0.5,0.6l-5.3,13.2l-5.3-13.1
				c-0.1-0.3-0.3-0.5-0.5-0.6c-0.2-0.2-0.5-0.2-0.7-0.2c-0.4,0-0.7,0.1-1,0.4c-0.2,0.2-0.4,0.6-0.4,1c0,0.2,0,0.3,0.1,0.5l5.8,14
				c0.4,0.8,0.9,1.2,1.7,1.2h0.5c0.7,0,1.3-0.4,1.7-1.2l5.8-14c0.1-0.2,0.1-0.3,0.1-0.5c0-0.4-0.1-0.7-0.4-1
				C-256.3,220-256.7,219.8-257.1,219.8L-257.1,219.8z"/>
		</g>
		<g>
			<path class="st3" d="M-251.5,236.8c-0.3,0-0.6-0.1-0.8-0.3c-0.2-0.2-0.3-0.5-0.3-0.8v-14.3c0-0.3,0.1-0.6,0.3-0.8
				c0.2-0.2,0.5-0.4,0.8-0.4h5.3c1.5,0,2.7,0.3,3.7,0.8c1,0.5,1.7,1.2,2.1,2c0.4,0.8,0.6,1.7,0.6,2.6s-0.2,1.8-0.6,2.6
				c-0.4,0.8-1.1,1.5-2.1,2c-0.9,0.5-2.2,0.8-3.7,0.8h-4.1v4.9c0,0.3-0.1,0.6-0.4,0.8C-250.9,236.7-251.2,236.8-251.5,236.8z
				 M-246.4,228.5c1.6,0,2.7-0.3,3.3-0.9c0.6-0.6,0.9-1.3,0.9-2.2c0-0.9-0.3-1.6-0.9-2.2c-0.6-0.6-1.7-0.9-3.3-0.9h-3.9v6.1H-246.4z
				"/>
			<path class="st3" d="M-246.2,220.2c1.5,0,2.7,0.2,3.6,0.7c0.9,0.5,1.6,1.1,2,1.9c0.4,0.8,0.6,1.6,0.6,2.5s-0.2,1.7-0.6,2.5
				c-0.4,0.8-1.1,1.4-2,1.9c-0.9,0.5-2.1,0.7-3.6,0.7h-4.3v5c0,0.3-0.1,0.5-0.3,0.7c-0.2,0.2-0.5,0.3-0.8,0.3
				c-0.3,0-0.5-0.1-0.8-0.3c-0.2-0.2-0.3-0.5-0.3-0.7v-14.3c0-0.3,0.1-0.6,0.3-0.8c0.2-0.2,0.5-0.3,0.8-0.3H-246.2 M-250.5,228.6
				h4.1c1.6,0,2.7-0.3,3.4-0.9c0.6-0.6,1-1.4,1-2.3s-0.3-1.7-1-2.3c-0.6-0.6-1.8-0.9-3.4-0.9h-4.1V228.6 M-246.2,220h-5.3
				c-0.4,0-0.7,0.1-0.9,0.4c-0.2,0.3-0.4,0.6-0.4,0.9v14.3c0,0.4,0.1,0.7,0.4,0.9c0.2,0.3,0.6,0.4,0.9,0.4c0.4,0,0.7-0.1,0.9-0.4
				c0.3-0.2,0.4-0.6,0.4-0.9v-4.8h4c1.5,0,2.8-0.3,3.7-0.8c1-0.5,1.7-1.2,2.1-2c0.4-0.8,0.6-1.7,0.6-2.6c0-0.9-0.2-1.8-0.6-2.6
				c-0.4-0.8-1.1-1.5-2.1-2C-243.4,220.2-244.7,220-246.2,220L-246.2,220z M-250.2,222.5h3.8c1.5,0,2.6,0.3,3.2,0.8
				c0.6,0.6,0.9,1.2,0.9,2.1c0,0.8-0.3,1.5-0.9,2.1c-0.6,0.6-1.7,0.8-3.2,0.8h-3.8V222.5L-250.2,222.5z"/>
		</g>
		<g>
			<path class="st3" d="M-223.8,236.8c-0.3,0-0.5-0.1-0.8-0.2c-0.2-0.1-0.4-0.3-0.6-0.5l-8.8-12.8v12.3c0,0.3-0.1,0.6-0.4,0.8
				c-0.2,0.2-0.5,0.3-0.8,0.3c-0.3,0-0.6-0.1-0.8-0.3c-0.2-0.2-0.3-0.5-0.3-0.8v-14c0-0.5,0.2-0.8,0.5-1.2c0.3-0.3,0.7-0.5,1.2-0.5
				h0.3c0.5,0,1,0.3,1.4,0.8l8.8,12.7v-12.3c0-0.3,0.1-0.6,0.3-0.8c0.2-0.2,0.5-0.4,0.8-0.4c0.3,0,0.6,0.1,0.9,0.4
				c0.2,0.2,0.4,0.5,0.4,0.8v14c0,0.5-0.2,0.8-0.5,1.2c-0.3,0.3-0.7,0.5-1.2,0.5H-223.8z"/>
			<path class="st3" d="M-223.1,220.1c0.3,0,0.6,0.1,0.8,0.3c0.2,0.2,0.3,0.5,0.3,0.8v14c0,0.4-0.2,0.8-0.5,1.1
				c-0.3,0.3-0.7,0.4-1.1,0.4h-0.3c-0.3,0-0.5-0.1-0.7-0.2c-0.2-0.1-0.4-0.3-0.5-0.5l-9.1-13.1v12.7c0,0.3-0.1,0.5-0.3,0.7
				c-0.2,0.2-0.5,0.3-0.8,0.3c-0.3,0-0.5-0.1-0.8-0.3c-0.2-0.2-0.3-0.5-0.3-0.7v-14c0-0.4,0.1-0.8,0.4-1.1c0.3-0.3,0.7-0.5,1.1-0.5
				h0.3c0.5,0,0.9,0.2,1.3,0.7l9,13v-12.7c0-0.3,0.1-0.6,0.3-0.8C-223.6,220.2-223.4,220.1-223.1,220.1 M-223.1,219.8
				c-0.4,0-0.7,0.1-0.9,0.4c-0.2,0.3-0.4,0.6-0.4,0.9V233l-8.6-12.4c-0.4-0.5-0.9-0.8-1.5-0.8h-0.3c-0.5,0-0.9,0.2-1.3,0.5
				c-0.3,0.4-0.5,0.8-0.5,1.3v14c0,0.4,0.1,0.7,0.4,0.9c0.2,0.3,0.6,0.4,0.9,0.4c0.4,0,0.7-0.1,0.9-0.4c0.3-0.2,0.4-0.6,0.4-0.9
				v-11.9l8.6,12.4c0.2,0.2,0.4,0.4,0.6,0.5c0.3,0.1,0.5,0.2,0.8,0.2h0.3c0.5,0,0.9-0.2,1.3-0.5c0.4-0.3,0.5-0.8,0.5-1.3v-14
				c0-0.4-0.1-0.7-0.4-0.9C-222.4,220-222.7,219.8-223.1,219.8L-223.1,219.8z"/>
		</g>
	</g>
	<g>
		<path class="st9" d="M-419.4,230.2c0,0,2.2-3.1,5.2-4.5c0,0,0.7,3.2,2,6c1.2,2.6,2.8,4.6,3.5,5c0,0,0,0.1,0,0.1
			c-2,2.1-6.6,2.6-6.5,2.5c2.1-1,3.7-2.4,3.7-2.4c-4.2-5.2-4.3-8.8-4.3-8.8C-418.1,228.8-419.4,230.2-419.4,230.2z"/>
		<path class="st9" d="M-411.2,225.1c0,0-0.1,1.5,1.5,5.6c1.1,2.8,3.2,4.2,3.3,4.1c2.1-1.8,3.4-4.2,2.9-6.6
			C-404.6,223-409.4,223.9-411.2,225.1z"/>
		<path class="st9" d="M-407.7,239.4l1.4,0.8l-3.6,2.2c0,0,3.2-1.2,4.9-2.1c8.8-4.5,10.4-14.3,10-19c0,0,0-0.3,0-0.3s0,0-0.1,0
			c-3.3,0.2-9-1.8-10.4-4.4c0,0-0.2-0.1-0.2-0.1s-1.2,1.6-3.5,2.9c-2,1.1-5.4,0.3-5.4,0.3l2.5,0.9l-4.2,0.5l-0.1,2.1
			c-1.9,1.8-3,3.8-3,3.8s0,0,0.1-0.1c4.1-3.8,7.9-5.4,8.6-5.7c0.7-0.2,2.9-1.1,5.5-0.7c2.3,0.3,3.4,2,4.1,2.8
			c1.3,1.6,3.5,9.2-2.1,13.5C-406.4,239.1-407.7,239.4-407.7,239.4z"/>
	</g>
	<g>
		<path class="st10" d="M-191.4-53.1l-4.9-2.8v-24.2l4.9-2.8h12.3l4.9,2.8v24.2l-4.9,2.8l4.7,8.2h-4.7l-4.6-8.2H-191.4z
			 M-192.1-56.9h13.7v-22.3h-13.7V-56.9z"/>
		<path class="st10" d="M-166-74.3h4.1v17.6h9.7v-17.6h4.1v21.2h-3.1l-1-1.7l-3,1.7h-5.9l-4.9-2.8V-74.3z"/>
		<path class="st10" d="M-141.2-55.9v-6.8l4.9-2.8h7.6v-5.1h-10.4v-3.7h9.6l4.9,2.8v18.4h-1.1l-3-1.7l-3,1.7h-4.7L-141.2-55.9z
			 M-137.2-56.8h8.4V-62h-8.4V-56.8z"/>
		<path class="st10" d="M-99-53.3h-4.1v-17.6h-9.7v17.6h-4.1v-21.2h3.1l1,1.7l3-1.7h5.9l4.9,2.8V-53.3z"/>
		<path class="st10" d="M-92.9-74.3h3.9v-3.5l4.1-2.4v5.9h5v3.7h-5V-57h5v3.7h-4.2l-4.9-2.8v-14.5h-3.9V-74.3z"/>
		<path class="st10" d="M-73.2-84h4.5v4.5h-4.5V-84z M-69-53.3H-73v-21h4.1V-53.3z"/>
		<path class="st10" d="M-57.1-57h11.7v3.7h-10.9l-4.9-2.8v-15.4l4.9-2.8h10.9v3.7h-11.7V-57z"/>
		<path class="st10" d="M-25.5-53.1h-8.1l-4.9-2.8v-15.8l4.9-2.8h8.1l4.9,2.8v15.8L-25.5-53.1z M-34.4-56.8h9.7v-14.1h-9.7V-56.8z"
			/>
	</g>
	<g>
		<path class="st10" d="M-143.5,57.5h13V61h-17.1V30.9h4.1V57.5z"/>
		<path class="st10" d="M-109.9,61h-1.7c-0.4,0-0.7-0.1-0.9-0.2c-0.2-0.1-0.4-0.3-0.4-0.7l-0.4-2c-0.6,0.5-1.1,1-1.6,1.4
			c-0.5,0.4-1.1,0.7-1.7,1s-1.2,0.5-1.9,0.6c-0.7,0.1-1.4,0.2-2.2,0.2c-0.8,0-1.6-0.1-2.3-0.3c-0.7-0.2-1.3-0.6-1.9-1
			c-0.5-0.5-1-1.1-1.3-1.8c-0.3-0.7-0.5-1.5-0.5-2.5c0-0.8,0.2-1.7,0.7-2.4s1.2-1.5,2.2-2.1s2.4-1.1,4-1.5c1.7-0.4,3.7-0.6,6.1-0.6
			v-1.7c0-1.7-0.4-2.9-1.1-3.8s-1.8-1.3-3.1-1.3c-0.9,0-1.7,0.1-2.3,0.3c-0.6,0.2-1.2,0.5-1.6,0.8c-0.5,0.3-0.8,0.5-1.2,0.8
			s-0.7,0.3-1,0.3c-0.3,0-0.5-0.1-0.7-0.2c-0.2-0.1-0.3-0.3-0.5-0.5l-0.7-1.2c1.2-1.1,2.4-2,3.8-2.5c1.4-0.6,2.9-0.8,4.5-0.8
			c1.2,0,2.2,0.2,3.2,0.6c0.9,0.4,1.7,0.9,2.3,1.6s1.1,1.5,1.4,2.5s0.5,2.1,0.5,3.3V61z M-119.6,58.7c0.7,0,1.3-0.1,1.8-0.2
			c0.5-0.1,1.1-0.3,1.5-0.6c0.5-0.2,0.9-0.5,1.4-0.9c0.4-0.3,0.9-0.7,1.3-1.2v-4.4c-1.7,0-3.2,0.1-4.4,0.3c-1.2,0.2-2.2,0.5-2.9,0.9
			c-0.8,0.4-1.3,0.8-1.6,1.2c-0.3,0.5-0.5,1-0.5,1.6c0,0.6,0.1,1,0.3,1.5s0.4,0.7,0.7,1c0.3,0.3,0.7,0.5,1.1,0.6
			S-120.1,58.7-119.6,58.7z"/>
		<path class="st10" d="M-96.7,61.3c-1.7,0-3-0.5-3.9-1.4c-0.9-0.9-1.4-2.3-1.4-4.1v-13h-2.6c-0.2,0-0.4-0.1-0.6-0.2
			c-0.2-0.1-0.2-0.3-0.2-0.6v-1.5l3.5-0.4l0.9-6.6c0-0.2,0.1-0.4,0.3-0.5c0.2-0.1,0.3-0.2,0.6-0.2h1.9v7.3h6.1v2.7h-6.1v12.8
			c0,0.9,0.2,1.6,0.7,2s1,0.7,1.7,0.7c0.4,0,0.7-0.1,1-0.2s0.5-0.2,0.7-0.3s0.4-0.2,0.5-0.3c0.1-0.1,0.3-0.2,0.4-0.2
			c0.2,0,0.4,0.1,0.5,0.4l1.1,1.8c-0.6,0.6-1.4,1.1-2.3,1.4C-94.8,61.1-95.7,61.3-96.7,61.3z"/>
		<path class="st10" d="M-77.8,39.3c1.6,0,3,0.3,4.2,0.8c1.3,0.5,2.3,1.3,3.2,2.2s1.5,2.1,2,3.5c0.5,1.4,0.7,2.9,0.7,4.5
			c0,1.7-0.2,3.2-0.7,4.5c-0.5,1.3-1.1,2.5-2,3.4c-0.9,1-1.9,1.7-3.2,2.2c-1.3,0.5-2.7,0.8-4.2,0.8c-1.6,0-3-0.3-4.2-0.8
			c-1.3-0.5-2.3-1.2-3.2-2.2c-0.9-1-1.6-2.1-2-3.4c-0.5-1.3-0.7-2.9-0.7-4.5c0-1.7,0.2-3.2,0.7-4.5c0.5-1.4,1.2-2.5,2-3.5
			s1.9-1.7,3.2-2.2C-80.8,39.6-79.4,39.3-77.8,39.3z M-77.8,58.3c2.1,0,3.7-0.7,4.7-2.1c1-1.4,1.6-3.4,1.6-5.9
			c0-2.5-0.5-4.5-1.6-5.9s-2.6-2.1-4.7-2.1c-1.1,0-2,0.2-2.8,0.5c-0.8,0.4-1.4,0.9-2,1.6s-0.9,1.5-1.2,2.5c-0.3,1-0.4,2.1-0.4,3.4
			c0,1.3,0.1,2.4,0.4,3.4c0.3,1,0.7,1.8,1.2,2.5s1.2,1.2,2,1.6C-79.8,58.1-78.9,58.3-77.8,58.3z"/>
	</g>
	<g>
		<path class="st10" d="M-155.8,175c0-0.1,0-0.3,0.1-0.6l10-27.6c0.2-0.4,0.7-0.7,1.7-0.7h1.2c1,0,1.6,0.2,1.7,0.7l10,27.6
			c0.1,0.2,0.1,0.4,0.1,0.5c0,0.5-0.6,0.7-1.8,0.7h-0.3c-1,0-1.5-0.2-1.7-0.7l-2.5-6.9h-12.3l-2.4,6.9c-0.1,0.4-0.7,0.7-1.7,0.7
			h-0.2C-155.2,175.7-155.8,175.4-155.8,175z M-138.5,164.9l-4.4-12.5c-0.1-0.4-0.3-1.3-0.5-2.4h-0.1c-0.2,1.1-0.4,1.9-0.6,2.4
			l-4.4,12.5H-138.5z"/>
		<path class="st10" d="M-124.7,175.5c-1-0.3-1.8-0.7-2.4-1.1c-0.6-0.4-0.9-0.8-0.9-1.1c0-0.3,0.2-0.7,0.5-1.3
			c0.3-0.6,0.7-0.8,0.9-0.8c0.1,0,0.3,0.2,0.8,0.5c0.5,0.3,1.1,0.6,1.8,0.8c0.7,0.3,1.5,0.4,2.4,0.4c2.7,0,4.1-1.1,4.1-3.4
			c0-1-0.3-1.7-0.9-2.3c-0.6-0.6-1.7-1.1-3.3-1.5c-2.2-0.6-3.7-1.4-4.6-2.4c-0.8-1-1.3-2.3-1.3-3.9c0-1.2,0.3-2.2,0.9-3.2
			c0.6-0.9,1.4-1.6,2.5-2.2c1-0.5,2.2-0.8,3.6-0.8c1.4,0,2.7,0.2,3.8,0.5s1.7,0.8,1.7,1.3c0,0.4-0.2,0.8-0.5,1.4
			c-0.3,0.6-0.6,0.9-0.9,0.9c-0.1,0-0.5-0.2-1.1-0.6c-0.7-0.3-1.6-0.5-2.7-0.5c-1.1,0-2,0.2-2.7,0.7c-0.7,0.5-1.1,1.1-1.1,1.9
			c0,1,0.3,1.7,0.8,2.3c0.5,0.6,1.3,1,2.5,1.4c1.8,0.6,3.2,1.1,4.1,1.7c0.9,0.5,1.6,1.2,2,2c0.4,0.8,0.6,1.8,0.6,3.1
			c0,1.2-0.3,2.3-1,3.3c-0.7,1-1.6,1.8-2.7,2.4c-1.1,0.6-2.4,0.9-3.8,0.9C-122.5,176-123.6,175.8-124.7,175.5z"/>
		<path class="st10" d="M-107,174.2c-1.3-1.1-2-2.6-2-4.7c0-2.2,0.7-3.9,2-5c1.3-1.1,3-1.8,4.9-2.1c1.9-0.3,4.3-0.5,7.1-0.5v-2
			c0-1-0.4-1.9-1.1-2.5c-0.7-0.7-1.9-1-3.5-1c-1.2,0-2.3,0.1-3.2,0.4c-0.9,0.3-1.7,0.6-2.3,0.9c-0.6,0.3-1,0.4-1,0.4
			c-0.3,0-0.6-0.3-0.9-0.8c-0.4-0.6-0.5-1-0.5-1.3c0-0.4,0.4-0.8,1.1-1.2s1.7-0.8,3-1.1c1.2-0.3,2.5-0.4,3.8-0.4
			c2.6,0,4.6,0.6,6.1,1.7s2.2,2.8,2.2,4.9v9.4c0,1.8,0.1,3.2,0.3,4s0.3,1.2,0.3,1.3c0,0.3-0.3,0.6-0.8,0.7c-0.5,0.2-1,0.2-1.5,0.2
			c-0.4,0-0.7-0.2-0.9-0.7c-0.2-0.4-0.3-0.9-0.4-1.4c-0.1-0.5-0.2-0.8-0.2-0.9c-1.9,2.1-4.3,3.2-7.1,3.2
			C-104,175.8-105.7,175.3-107,174.2z M-98.1,172c1-0.5,2-1.2,3-2.1v-5c-2.1,0-3.8,0.1-5.1,0.3c-1.3,0.1-2.5,0.5-3.5,1.2
			c-1,0.6-1.5,1.6-1.5,3c0,1.1,0.3,2,0.9,2.6c0.6,0.6,1.5,0.9,2.7,0.9C-100.3,172.8-99.1,172.5-98.1,172z"/>
		<path class="st10" d="M-83.5,183.4V160c0-1.8-0.1-3.2-0.3-4c-0.2-0.8-0.3-1.2-0.3-1.3c0-0.3,0.3-0.6,0.8-0.7
			c0.5-0.2,1-0.2,1.5-0.2c0.4,0,0.7,0.2,0.9,0.6c0.2,0.4,0.3,0.8,0.4,1.3c0.1,0.4,0.2,0.7,0.2,0.9c2-2.1,4.2-3.1,6.7-3.1
			c1.7,0,3.2,0.5,4.4,1.4c1.2,1,2.1,2.3,2.8,4c0.6,1.7,1,3.6,1,5.8c0,2.4-0.4,4.4-1.1,6.1c-0.7,1.7-1.7,3-3,3.8s-2.8,1.3-4.5,1.3
			c-1.2,0-2.3-0.2-3.3-0.5c-0.9-0.4-1.9-0.9-2.8-1.6v9.7c0,0.6-0.6,0.9-1.7,0.9h-0.2C-83,184.3-83.5,184-83.5,183.4z M-70.6,170.7
			c1-1.3,1.4-3.3,1.4-5.8c0-2.7-0.4-4.8-1.3-6.3c-0.9-1.5-2.2-2.2-3.8-2.2c-1,0-1.9,0.3-2.9,0.8s-1.9,1.2-2.8,2.1v11.5
			c1.5,1.3,3.2,1.9,5.2,1.9C-72.9,172.7-71.5,172.1-70.6,170.7z"/>
	</g>
	
		<image style="overflow:visible;" width="400" height="392" xlink:href="../../../../../Portfolio 2018/img/brand-demos/logo-shred4less.png"  transform="matrix(0.48 0 0 0.48 3 218)">
	</image>
	<g>
		<path class="st10" d="M16.2,95.5l0.4-1.6c0.4,0.2,0.9,0.4,1.5,0.6c0.6,0.2,1.1,0.3,1.6,0.3c0.8,0,1.4-0.1,1.8-0.4
			c0.4-0.3,0.6-0.7,0.6-1.1c0-0.3-0.1-0.6-0.3-0.9c-0.2-0.3-0.5-0.5-0.9-0.7c-0.4-0.2-0.9-0.5-1.5-0.8c-1.1-0.6-2-1.1-2.5-1.7
			c-0.6-0.6-0.9-1.3-0.9-2.1c0-0.6,0.2-1.2,0.5-1.6s0.8-0.9,1.4-1.2c0.6-0.3,1.3-0.4,2.2-0.4c0.6,0,1.1,0.1,1.7,0.2s1.1,0.4,1.6,0.6
			l-0.7,1.6c-0.5-0.2-0.9-0.4-1.3-0.5c-0.4-0.1-0.8-0.2-1.3-0.2c-0.6,0-1.1,0.1-1.5,0.4C18.2,86,18,86.4,18,86.9
			c0,0.3,0.1,0.6,0.3,0.9s0.5,0.5,0.8,0.7s0.9,0.5,1.6,0.9c0.8,0.4,1.4,0.8,1.8,1.1c0.5,0.3,0.8,0.7,1.1,1.2s0.4,1,0.4,1.6
			c0,0.6-0.2,1.2-0.5,1.7c-0.3,0.5-0.9,0.9-1.5,1.2c-0.7,0.3-1.5,0.4-2.4,0.4c-0.5,0-1.2-0.1-1.9-0.3S16.5,95.7,16.2,95.5z"/>
		<path class="st10" d="M28.2,96.2h-2v-8.7h1.3l0.4,1c0.5-0.4,1.1-0.7,1.7-1c0.6-0.2,1.2-0.4,1.7-0.4c1,0,1.8,0.3,2.2,0.9
			c0.5,0.6,0.7,1.4,0.7,2.5v5.6h-2v-5.5c0-1.2-0.5-1.8-1.3-1.8c-0.7,0-1.6,0.4-2.6,1.2V96.2z"/>
		<path class="st10" d="M44.5,94.2c-0.4,0.7-0.9,1.2-1.6,1.6c-0.7,0.4-1.5,0.6-2.4,0.6c-0.9,0-1.7-0.2-2.4-0.6
			c-0.7-0.4-1.2-0.9-1.6-1.6c-0.4-0.7-0.5-1.5-0.5-2.4c0-0.9,0.2-1.7,0.5-2.4c0.4-0.7,0.9-1.2,1.6-1.6s1.5-0.6,2.4-0.6
			c0.9,0,1.7,0.2,2.4,0.6c0.7,0.4,1.2,0.9,1.6,1.6c0.4,0.7,0.5,1.5,0.5,2.4S44.9,93.5,44.5,94.2z M42.3,93.9c0.5-0.5,0.7-1.2,0.7-2
			c0-0.9-0.2-1.5-0.7-2.1c-0.4-0.5-1-0.8-1.8-0.8c-0.7,0-1.3,0.3-1.8,0.8c-0.4,0.5-0.7,1.2-0.7,2.1c0,0.9,0.2,1.5,0.7,2.1
			c0.4,0.5,1,0.8,1.8,0.8C41.2,94.7,41.8,94.4,42.3,93.9z"/>
		<path class="st10" d="M54,96.2l-1.8-5.8l-1.7,5.8h-1.8l-2.6-8.4l2-0.6l1.6,5.9l1.5-5.6h2.2l1.6,5.6l1.5-5.6h2.1l-2.8,8.7H54z"/>
	</g>
	<g>
		<path class="st11" d="M151.3,95.5l0.4-1.6c0.4,0.2,0.9,0.4,1.5,0.6c0.6,0.2,1.1,0.3,1.6,0.3c0.8,0,1.4-0.1,1.8-0.4
			c0.4-0.3,0.6-0.7,0.6-1.1c0-0.3-0.1-0.6-0.3-0.9c-0.2-0.3-0.5-0.5-0.9-0.7c-0.4-0.2-0.9-0.5-1.5-0.8c-1.1-0.6-2-1.1-2.5-1.7
			c-0.6-0.6-0.9-1.3-0.9-2.1c0-0.6,0.2-1.2,0.5-1.6s0.8-0.9,1.4-1.2c0.6-0.3,1.3-0.4,2.2-0.4c0.6,0,1.1,0.1,1.7,0.2s1.1,0.4,1.6,0.6
			l-0.7,1.6c-0.5-0.2-0.9-0.4-1.3-0.5c-0.4-0.1-0.8-0.2-1.3-0.2c-0.6,0-1.1,0.1-1.5,0.4c-0.4,0.2-0.6,0.6-0.6,1.1
			c0,0.3,0.1,0.6,0.3,0.9s0.5,0.5,0.8,0.7s0.9,0.5,1.6,0.9c0.8,0.4,1.4,0.8,1.8,1.1c0.5,0.3,0.8,0.7,1.1,1.2s0.4,1,0.4,1.6
			c0,0.6-0.2,1.2-0.5,1.7c-0.3,0.5-0.9,0.9-1.5,1.2c-0.7,0.3-1.5,0.4-2.4,0.4c-0.5,0-1.2-0.1-1.9-0.3S151.6,95.7,151.3,95.5z"/>
		<path class="st11" d="M167.1,87.5h2v8.7h-1.4l-0.4-1c-0.5,0.4-1.1,0.7-1.7,1c-0.6,0.2-1.2,0.4-1.7,0.4c-1.9,0-2.9-1.1-2.9-3.4
			v-5.6h2v5.5c0,1.2,0.5,1.8,1.3,1.8c0.7,0,1.6-0.4,2.6-1.2V87.5z"/>
		<path class="st11" d="M173.7,96.2h-2v-8.7h1.1l0.7,1.4c0.4-0.4,0.9-0.7,1.5-1c0.6-0.3,1-0.5,1.5-0.5l0.4,1.6
			c-0.4,0-0.9,0.2-1.5,0.5c-0.6,0.3-1.1,0.7-1.6,1.1V96.2z"/>
		<path class="st11" d="M177.6,89.1v-1.5h1.3v-0.9c0-0.9,0.3-1.7,0.8-2.2c0.5-0.5,1.3-0.8,2.3-0.8c0.3,0,0.6,0,0.9,0.1
			c0.3,0.1,0.6,0.2,0.7,0.3l-0.6,1.5c-0.4-0.1-0.7-0.2-0.9-0.2c-0.4,0-0.7,0.1-0.9,0.4c-0.2,0.3-0.3,0.7-0.3,1.1v0.7h1.6l0.6,1.5
			H181v7.1h-2v-7.1H177.6z"/>
	</g>
</g>
<g id="Layer_2">
	<g>
		<path class="st12" d="M195.7,10c0,0-4.2,0.6-5.4,0.9c-35.6,8.8-48.6,45.7-48.6,45.7l5.5,1.9l1.5,5.2c0,0,37.3-13.5,46-48.3
			C195.1,14.2,195.7,10,195.7,10z"/>
		<line class="st12" x1="183.8" y1="22" x2="146.9" y2="58.9"/>
	</g>
</g>
<g id="Layer_3">
	<path class="st13" d="M62.1,8.9l2.9,2.9c3.1,3.1,3.7,8.4,0.4,10.8c-0.6,0.4-2.7,1.9-3.3,2.3c-11.4,9-26,24.4-35.7,34.8
		c-0.5,0.5-5.1,6.9-5.8,7.8C18.1,70.5,13,70.1,9.9,67L7,64.1C3.9,61,3.4,55.9,6.5,53.3c0.8-0.7,7.6-5.7,8-6.1
		c10.3-9.8,25.3-24,34.4-35.4c0.5-0.6,2-2.8,2.4-3.4C53.8,5.3,59,5.8,62.1,8.9z"/>
	<g>
		<circle class="st14" cx="167.5" cy="-76.5" r="28"/>
	</g>
	<path class="st15" d="M60-54h-4c-1.7,0-3-1.3-3-3v-38.5c0-1.7,1.3-3,3-3h4c1.6,0,3,1.3,3,3V-57C63-55.3,61.7-54,60-54z"/>
	<path class="st15" d="M17-54h-4c-1.6,0-3-1.3-3-3v-38.5c0-1.7,1.4-3,3-3h4c1.6,0,3,1.3,3,3V-57C20-55.3,18.7-54,17-54z"/>
	<rect x="20" y="-80.1" class="st15" width="33" height="7.3"/>
	<rect x="63" y="-80.1" class="st15" width="6" height="7.3"/>
	<rect x="4" y="-80.1" class="st15" width="6" height="7.3"/>
	<g>
		<path class="st16" d="M3.1-20.5l0.4-1.6C4-22,4.5-21.8,5-21.6c0.6,0.2,1.1,0.3,1.6,0.3c0.8,0,1.4-0.1,1.8-0.4s0.6-0.7,0.6-1.1
			c0-0.3-0.1-0.6-0.3-0.9c-0.2-0.3-0.5-0.5-0.9-0.7c-0.4-0.2-0.9-0.5-1.5-0.8c-1.1-0.6-2-1.1-2.5-1.7c-0.6-0.6-0.9-1.3-0.9-2.1
			c0-0.6,0.2-1.2,0.5-1.6c0.3-0.5,0.8-0.9,1.4-1.2c0.6-0.3,1.3-0.4,2.2-0.4c0.6,0,1.1,0.1,1.7,0.2c0.6,0.2,1.1,0.4,1.6,0.6l-0.7,1.6
			c-0.5-0.2-0.9-0.4-1.3-0.5c-0.4-0.1-0.8-0.2-1.3-0.2c-0.6,0-1.1,0.1-1.5,0.4C5.2-30,5-29.6,5-29.1c0,0.3,0.1,0.6,0.3,0.9
			c0.2,0.3,0.5,0.5,0.8,0.7c0.3,0.2,0.9,0.5,1.6,0.9c0.8,0.4,1.4,0.8,1.8,1.1c0.5,0.3,0.8,0.7,1.1,1.2c0.3,0.4,0.4,1,0.4,1.6
			c0,0.6-0.2,1.2-0.5,1.7c-0.3,0.5-0.9,0.9-1.5,1.2s-1.5,0.4-2.4,0.4c-0.5,0-1.2-0.1-1.9-0.3S3.4-20.3,3.1-20.5z"/>
		<path class="st16" d="M17.1-28.5l0.6,1.5h-2.2v4.2c0,0.5,0.1,0.8,0.3,1.1c0.2,0.3,0.5,0.4,0.9,0.4c0.3,0,0.6-0.1,0.9-0.2l0.6,1.5
			c-0.2,0.1-0.4,0.2-0.7,0.3c-0.3,0.1-0.6,0.1-0.9,0.1c-1,0-1.7-0.3-2.3-0.8s-0.8-1.2-0.8-2.2v-4.5h-1.2v-1.5h1.2v-2.1l2-0.4v2.5
			H17.1z"/>
		<path class="st16" d="M22.1-19.8h-2v-8.7h1.1l0.7,1.4c0.4-0.4,0.9-0.7,1.5-1c0.6-0.3,1-0.5,1.5-0.5l0.4,1.6
			c-0.4,0-0.9,0.1-1.5,0.4c-0.6,0.3-1.1,0.7-1.6,1.1V-19.8z"/>
		<path class="st16" d="M34.5-23.6h-6c0.2,1.6,1.1,2.3,2.8,2.3c0.5,0,0.9-0.1,1.3-0.2s0.8-0.3,1.3-0.6l0.6,1.5c-1,0.7-2,1-3.2,1
			c-1.6,0-2.8-0.4-3.6-1.2c-0.8-0.8-1.3-1.9-1.3-3.4c0-0.9,0.2-1.7,0.5-2.4c0.3-0.7,0.8-1.2,1.5-1.6c0.6-0.4,1.4-0.6,2.3-0.6
			c1.3,0,2.3,0.4,2.9,1.3c0.7,0.9,1,1.9,1,3.3V-23.6z M28.4-25h4.1c-0.1-0.7-0.3-1.2-0.7-1.5c-0.3-0.3-0.8-0.5-1.4-0.5
			c-0.6,0-1,0.2-1.4,0.5C28.7-26.1,28.5-25.6,28.4-25z"/>
		<path class="st16" d="M38.5-19.8h-2v-8.7h1.3l0.4,1c0.5-0.4,1.1-0.7,1.7-1c0.6-0.2,1.2-0.4,1.7-0.4c1,0,1.8,0.3,2.2,0.9
			c0.5,0.6,0.7,1.4,0.7,2.5v5.6h-2v-5.5c0-1.2-0.5-1.8-1.3-1.8c-0.7,0-1.6,0.4-2.6,1.2V-19.8z"/>
		<path class="st16" d="M54.6-28.5v9.3c0,1.1-0.4,2-1.2,2.6c-0.8,0.6-1.9,1-3.2,1c-0.4,0-1-0.1-1.7-0.3c-0.7-0.2-1.2-0.4-1.6-0.7
			l0.6-1.5c0.5,0.3,1,0.4,1.4,0.6c0.4,0.1,0.8,0.2,1.3,0.2c0.7,0,1.3-0.2,1.8-0.5c0.4-0.3,0.7-0.8,0.7-1.4v-0.9
			c-0.3,0.2-0.6,0.3-1,0.4c-0.3,0.1-0.7,0.2-1,0.2c-0.9,0-1.7-0.2-2.3-0.6c-0.7-0.4-1.2-0.9-1.5-1.6c-0.4-0.7-0.5-1.5-0.5-2.4
			c0-0.9,0.2-1.7,0.5-2.4c0.4-0.7,0.9-1.2,1.5-1.6s1.4-0.6,2.3-0.6c0.4,0,0.8,0.1,1.2,0.3c0.4,0.2,0.8,0.4,1.2,0.7l0.4-0.7H54.6z
			 M51.7-21.5c0.3-0.1,0.6-0.3,0.9-0.5v-4.3c-0.3-0.3-0.6-0.4-0.9-0.5c-0.3-0.1-0.6-0.2-1-0.2c-0.7,0-1.3,0.3-1.7,0.8
			s-0.6,1.2-0.6,2c0,0.9,0.2,1.6,0.6,2.1c0.4,0.5,1,0.8,1.7,0.8C51.1-21.3,51.4-21.4,51.7-21.5z"/>
		<path class="st16" d="M61.3-28.5l0.6,1.5h-2.2v4.2c0,0.5,0.1,0.8,0.3,1.1c0.2,0.3,0.5,0.4,0.9,0.4c0.3,0,0.6-0.1,0.9-0.2l0.6,1.5
			c-0.2,0.1-0.4,0.2-0.7,0.3c-0.3,0.1-0.6,0.1-0.9,0.1c-1,0-1.7-0.3-2.3-0.8s-0.8-1.2-0.8-2.2v-4.5h-1.2v-1.5h1.2v-2.1l2-0.4v2.5
			H61.3z"/>
		<path class="st16" d="M72.3-25.4v5.6h-2v-5.5c0-1.2-0.5-1.8-1.4-1.8c-0.7,0-1.6,0.4-2.5,1.2v6.1h-2v-12.5l2-0.2v4.8
			c0.5-0.3,1-0.6,1.5-0.8c0.5-0.2,1-0.3,1.5-0.3C71.3-28.8,72.3-27.7,72.3-25.4z"/>
	</g>
	<g>
		<path class="st17" d="M145.8-23.1l-3.2-4.3v8.1h-2v-12.2h1.3l4.2,5.9l3.9-5.9h1.2v12.2h-2.1v-7.8l-2.7,3.9L145.8-23.1z"/>
		<path class="st17" d="M162.2-21.3c-0.4,0.7-0.9,1.2-1.6,1.6c-0.7,0.4-1.5,0.6-2.4,0.6c-0.9,0-1.7-0.2-2.4-0.6
			c-0.7-0.4-1.2-0.9-1.6-1.6c-0.4-0.7-0.5-1.5-0.5-2.4c0-0.9,0.2-1.7,0.5-2.4s0.9-1.2,1.6-1.6c0.7-0.4,1.5-0.6,2.4-0.6
			c0.9,0,1.7,0.2,2.4,0.6c0.7,0.4,1.2,0.9,1.6,1.6c0.4,0.7,0.5,1.5,0.5,2.4C162.8-22.8,162.6-22,162.2-21.3z M160-21.6
			c0.5-0.5,0.7-1.2,0.7-2c0-0.9-0.2-1.5-0.7-2.1c-0.4-0.5-1-0.8-1.8-0.8c-0.7,0-1.3,0.3-1.8,0.8c-0.4,0.5-0.7,1.2-0.7,2.1
			c0,0.9,0.2,1.5,0.7,2.1c0.4,0.5,1,0.8,1.8,0.8C159-20.8,159.6-21.1,160-21.6z"/>
		<path class="st17" d="M168.8-28l0.6,1.5h-2.2v4.2c0,0.5,0.1,0.8,0.3,1.1c0.2,0.3,0.5,0.4,0.9,0.4c0.3,0,0.6-0.1,0.9-0.2l0.6,1.5
			c-0.2,0.1-0.4,0.2-0.7,0.3c-0.3,0.1-0.6,0.1-0.9,0.1c-1,0-1.7-0.3-2.3-0.8s-0.8-1.2-0.8-2.2v-4.5H164V-28h1.2v-2.1l2-0.4v2.5
			H168.8z"/>
		<path class="st17" d="M172.7-29.4c-0.3,0-0.6-0.1-0.8-0.4c-0.2-0.2-0.3-0.5-0.3-0.9c0-0.3,0.1-0.6,0.3-0.8
			c0.2-0.2,0.5-0.4,0.8-0.4c0.3,0,0.6,0.1,0.9,0.4c0.2,0.2,0.4,0.5,0.4,0.8c0,0.3-0.1,0.6-0.4,0.9C173.3-29.6,173-29.4,172.7-29.4z
			 M171.7-19.3V-28h2v8.7H171.7z"/>
		<path class="st17" d="M184.2-21.3c-0.4,0.7-0.9,1.2-1.6,1.6c-0.7,0.4-1.5,0.6-2.4,0.6c-0.9,0-1.7-0.2-2.4-0.6
			c-0.7-0.4-1.2-0.9-1.6-1.6c-0.4-0.7-0.5-1.5-0.5-2.4c0-0.9,0.2-1.7,0.5-2.4s0.9-1.2,1.6-1.6c0.7-0.4,1.5-0.6,2.4-0.6
			c0.9,0,1.7,0.2,2.4,0.6c0.7,0.4,1.2,0.9,1.6,1.6c0.4,0.7,0.5,1.5,0.5,2.4C184.7-22.8,184.5-22,184.2-21.3z M182-21.6
			c0.5-0.5,0.7-1.2,0.7-2c0-0.9-0.2-1.5-0.7-2.1c-0.4-0.5-1-0.8-1.8-0.8c-0.7,0-1.3,0.3-1.8,0.8c-0.4,0.5-0.7,1.2-0.7,2.1
			c0,0.9,0.2,1.5,0.7,2.1c0.4,0.5,1,0.8,1.8,0.8C180.9-20.8,181.5-21.1,182-21.6z"/>
		<path class="st17" d="M188.7-19.3h-2V-28h1.3l0.4,1c0.5-0.4,1.1-0.7,1.7-1c0.6-0.2,1.2-0.4,1.7-0.4c1,0,1.8,0.3,2.2,0.9
			c0.5,0.6,0.7,1.4,0.7,2.5v5.6h-2v-5.5c0-1.2-0.5-1.8-1.3-1.8c-0.7,0-1.6,0.4-2.6,1.2V-19.3z"/>
	</g>
</g>
</svg>
